M48
;Layer_Color=9474304
;FILE_FORMAT=4:4
METRIC
;TYPE=PLATED
T1F00S00C0.3000
T2F00S00C0.4000
T3F00S00C0.5000
T4F00S00C0.6000
%
T01
X00808990Y00735584
X00831088Y00730758
X00865632Y00726186
X00858774Y00742950
X00854964Y00764794
X00843534Y00765556
X00816102Y00774446
X00803656Y00782574
X00827278Y00790448
X00922782Y00754888
X00962660Y00765810
X01016508Y00764540
X01142746Y00784352
X01140968Y00817880
X01148588Y00822198
X01139324Y00836048
X01129030Y00852424
X01073658Y00854456
X01073912Y00827278
X01073658Y00816864
Y00807466
X01075182Y00799846
X01043686Y00799592
X01048512Y00806958
X01028700Y00810260
Y00796544
X01046480Y00834898
X01040892Y00844296
X01041654Y00858012
X01048004Y00867410
X01011174Y00879602
X01004062Y00850646
X00964438Y00864870
X00922020Y00831088
X00865886Y00839470
X00844550Y00845566
X00855726Y00868934
X00855980Y00876046
X00841756Y00891286
X00819658Y00883412
X00821182Y00930910
X00838962Y00926592
X00856234Y00947420
X00872236Y00947674
X00849884Y00967232
X00849122Y00977646
X00834898Y00977392
X00835406Y00966470
X00822198Y00965708
Y00977646
X00814070Y00949452
X00802132Y00948944
X00798068Y00815086
X00820928Y00824230
X00840486Y00799592
X00907288Y00892810
X01092962Y00874776
X01129792Y00931926
X01140968
Y00945261
X01129792
Y00958596
X01140968
T02
X00895858Y00764286
X00947750Y00752500
X00960120Y00749046
X00946030Y00811530
X01016254Y00911860
X01075690Y00863854
T03
X01040130Y00727710
X01051814
X01114044Y00727202
X01113536Y00739648
X01084326Y00921378
X00801370Y00929894
X00821436Y00838962
X00820420Y00799084
T04
X01076960Y00748284
Y00765048
Y00778002
X01133602Y00767588
X01133348Y00754888
X00855218Y00886460
X00846836Y00881634
M30
