G04 Layer_Physical_Order=1*
G04 Layer_Color=255*
%FSAX44Y44*%
%MOMM*%
G71*
G01*
G75*
%ADD10R,0.9000X0.7000*%
%ADD11R,0.9000X0.8000*%
%ADD12R,0.9200X0.8200*%
%ADD13R,0.7000X0.9000*%
%ADD14R,0.3500X0.6500*%
%ADD15R,0.7200X0.8600*%
%ADD16R,1.4500X2.0000*%
%ADD17R,1.8000X0.4500*%
%ADD18R,3.2500X1.3000*%
%ADD19R,0.7000X0.5500*%
%ADD20O,0.8000X0.2500*%
%ADD21O,0.2500X0.8000*%
%ADD22R,2.7000X2.7000*%
%ADD23R,1.5000X0.9000*%
%ADD24R,1.5000X0.9500*%
%ADD25R,0.9500X1.5000*%
%ADD26R,0.8000X0.9000*%
%ADD27O,0.3500X1.4000*%
%ADD28R,0.8500X2.2000*%
%ADD29R,1.7000X2.5000*%
%ADD30R,0.9000X2.6000*%
%ADD31R,1.1000X0.6500*%
%ADD32R,1.6000X0.8900*%
%ADD33R,0.2500X0.8000*%
%ADD34R,0.6500X1.1000*%
%ADD35C,0.2540*%
%ADD36C,0.3000*%
%ADD37C,0.4000*%
%ADD38C,0.3500*%
%ADD39O,1.3000X0.8000*%
%ADD40O,1.2000X0.8000*%
%ADD41C,0.9000*%
%ADD42C,0.5000*%
%ADD43C,0.6000*%
%ADD44C,1.0000*%
%ADD45C,0.7000*%
%ADD46C,0.8000*%
G36*
X01139212Y00813641D02*
X01139540Y00813576D01*
Y00803124D01*
X01150874D01*
Y00801624D01*
X01146790D01*
Y00794624D01*
X01144290D01*
Y00801624D01*
X01138040D01*
Y00795686D01*
X01128736D01*
Y00783686D01*
X01135410D01*
X01137027Y00782069D01*
X01138019Y00781406D01*
X01139190Y00781173D01*
X01139190Y00781173D01*
X01139458D01*
X01139502Y00781108D01*
X01140990Y00780113D01*
X01142746Y00779764D01*
X01144502Y00780113D01*
X01145990Y00781108D01*
X01146985Y00782596D01*
X01147334Y00784352D01*
X01146985Y00786108D01*
X01146820Y00786354D01*
X01147499Y00787624D01*
X01150874D01*
Y00721614D01*
X01116967D01*
X01116581Y00722884D01*
X01117649Y00723597D01*
X01118754Y00725251D01*
X01119142Y00727202D01*
X01118754Y00729153D01*
X01117649Y00730807D01*
X01115995Y00731912D01*
X01114044Y00732300D01*
X01112093Y00731912D01*
X01110439Y00730807D01*
X01109884Y00729976D01*
X01108614Y00730361D01*
Y00733338D01*
X01096614D01*
Y00731162D01*
X01095152D01*
Y00733338D01*
X01083152D01*
Y00723338D01*
X01095152D01*
Y00725514D01*
X01096614D01*
Y00723338D01*
X01108614D01*
Y00724043D01*
X01109884Y00724428D01*
X01110439Y00723597D01*
X01111507Y00722884D01*
X01111121Y00721614D01*
X01053306D01*
X01053181Y00722884D01*
X01053765Y00723000D01*
X01055419Y00724105D01*
X01056524Y00725759D01*
X01056912Y00727710D01*
X01056524Y00729661D01*
X01055419Y00731315D01*
X01054638Y00731836D01*
Y00734874D01*
X01060304Y00740540D01*
X01070546D01*
Y00741521D01*
X01071816Y00742147D01*
X01072925Y00741296D01*
X01074872Y00740490D01*
X01075710Y00740379D01*
Y00748284D01*
X01078210D01*
Y00740379D01*
X01079048Y00740490D01*
X01080994Y00741296D01*
X01081882Y00741977D01*
X01083152Y00741351D01*
Y00738338D01*
X01095114D01*
Y00736838D01*
X01101364D01*
Y00743338D01*
Y00749838D01*
X01095114D01*
Y00748338D01*
X01091643D01*
X01091149Y00749078D01*
X01087296Y00752931D01*
X01087782Y00754104D01*
X01095660D01*
Y00783104D01*
X01096689Y00783686D01*
X01098162D01*
Y00769854D01*
X01113162D01*
Y00777630D01*
X01114335Y00778116D01*
X01115664Y00776787D01*
Y00754104D01*
X01126895D01*
X01127015Y00753191D01*
X01127670Y00751610D01*
X01128712Y00750252D01*
X01130070Y00749210D01*
X01131651Y00748555D01*
X01133348Y00748332D01*
X01135045Y00748555D01*
X01136626Y00749210D01*
X01137984Y00750252D01*
X01139026Y00751610D01*
X01139681Y00753191D01*
X01139904Y00754888D01*
X01139681Y00756585D01*
X01139026Y00758166D01*
X01137984Y00759524D01*
X01136740Y00760478D01*
X01136681Y00761001D01*
X01136789Y00761873D01*
X01136880Y00761910D01*
X01138238Y00762952D01*
X01139280Y00764310D01*
X01139935Y00765891D01*
X01140158Y00767588D01*
X01139935Y00769285D01*
X01139280Y00770866D01*
X01138238Y00772224D01*
X01136880Y00773266D01*
X01135299Y00773921D01*
X01133602Y00774144D01*
X01131905Y00773921D01*
X01130324Y00773266D01*
X01128966Y00772224D01*
X01128934Y00772182D01*
X01127664Y00772613D01*
Y00783104D01*
X01124765D01*
X01123736Y00783686D01*
Y00795686D01*
X01119090D01*
X01118912Y00796235D01*
X01118944Y00796268D01*
Y00804298D01*
X01121444D01*
Y00797463D01*
X01121852Y00797545D01*
X01123258Y00798484D01*
X01123743Y00799210D01*
X01124121Y00798958D01*
X01125194Y00798744D01*
X01126267Y00798958D01*
X01127177Y00799565D01*
X01127784Y00800475D01*
X01127998Y00801548D01*
Y00807048D01*
X01127969Y00807193D01*
X01129049Y00808273D01*
X01129194Y00808244D01*
X01134694D01*
X01135767Y00808458D01*
X01136677Y00809065D01*
X01137284Y00809975D01*
X01137498Y00811048D01*
X01137284Y00812121D01*
X01136904Y00812690D01*
X01136762Y00813548D01*
X01136817Y00813880D01*
X01138001Y00814451D01*
X01139212Y00813641D01*
D02*
G37*
G36*
X01150874Y00906018D02*
Y00903000D01*
X01147298D01*
Y00896000D01*
X01144798D01*
Y00903000D01*
X01138548D01*
Y00901500D01*
X01128364D01*
Y00901500D01*
X01091197D01*
Y00905202D01*
X01108496D01*
Y00904452D01*
X01118496D01*
Y00909702D01*
X01143996D01*
Y00925702D01*
X01143839D01*
X01143454Y00926972D01*
X01144933Y00927961D01*
X01146149Y00929780D01*
X01146327Y00930676D01*
X01140968D01*
Y00931926D01*
X01139718D01*
Y00937285D01*
X01138822Y00937107D01*
X01137003Y00935891D01*
X01136086Y00934519D01*
X01136070Y00934513D01*
X01134689D01*
X01134674Y00934519D01*
X01133757Y00935891D01*
X01131938Y00937107D01*
X01131042Y00937285D01*
Y00931926D01*
X01129792D01*
Y00930676D01*
X01124433D01*
X01124611Y00929780D01*
X01125827Y00927961D01*
X01127306Y00926972D01*
X01126921Y00925702D01*
X01108496D01*
Y00928202D01*
X01109455Y00928952D01*
X01112246D01*
Y00935452D01*
Y00941952D01*
Y00953452D01*
X01113746D01*
Y00957452D01*
X01101746D01*
Y00959952D01*
X01113746D01*
Y00963952D01*
X01108496D01*
Y00965702D01*
X01143996D01*
Y00981702D01*
X01118496D01*
Y00986952D01*
X01119412Y00987806D01*
X01150874D01*
Y00906018D01*
D02*
G37*
G36*
X00885444Y00919390D02*
X00882296D01*
Y00913140D01*
X00891546D01*
Y00918718D01*
X01051046D01*
Y00913140D01*
X01061546D01*
Y00910640D01*
X01051046D01*
Y00904390D01*
X01052546D01*
Y00893760D01*
X01052546Y00892840D01*
X01052546Y00891920D01*
Y00888503D01*
X01017016D01*
X01017016Y00888503D01*
X01015845Y00888270D01*
X01014853Y00887607D01*
X01014853Y00887607D01*
X01010865Y00883619D01*
X01009613Y00883370D01*
X01008290Y00882486D01*
X01007406Y00881163D01*
X01007096Y00879602D01*
X01007406Y00878041D01*
X01008290Y00876718D01*
X01009613Y00875834D01*
X01011174Y00875524D01*
X01012735Y00875834D01*
X01014058Y00876718D01*
X01014942Y00878041D01*
X01015191Y00879293D01*
X01018283Y00882385D01*
X01051648D01*
X01052546Y00881487D01*
X01052546Y00880490D01*
X01052546Y00879220D01*
Y00871434D01*
X01049204D01*
X01048740Y00871342D01*
X01048004Y00871488D01*
X01046443Y00871178D01*
X01045120Y00870294D01*
X01044236Y00868971D01*
X01043926Y00867410D01*
X01044236Y00865849D01*
X01045120Y00864526D01*
X01046443Y00863642D01*
X01048004Y00863332D01*
X01049565Y00863642D01*
X01050888Y00864526D01*
X01051276Y00865107D01*
X01052546Y00864722D01*
Y00860836D01*
X01044578D01*
X01044538Y00860896D01*
X01043215Y00861780D01*
X01041654Y00862090D01*
X01040093Y00861780D01*
X01038770Y00860896D01*
X01037886Y00859573D01*
X01037576Y00858012D01*
X01037886Y00856451D01*
X01038770Y00855128D01*
X01039000Y00854975D01*
X01038615Y00853705D01*
X01006684D01*
X01005623Y00854414D01*
X01004062Y00854724D01*
X01002501Y00854414D01*
X01001440Y00853705D01*
X00979929D01*
X00968455Y00865179D01*
X00968206Y00866431D01*
X00967322Y00867754D01*
X00965999Y00868638D01*
X00964438Y00868948D01*
X00962877Y00868638D01*
X00961554Y00867754D01*
X00960670Y00866431D01*
X00960360Y00864870D01*
X00960670Y00863309D01*
X00961554Y00861986D01*
X00962877Y00861102D01*
X00964129Y00860853D01*
X00976499Y00848483D01*
X00976499Y00848483D01*
X00977492Y00847820D01*
X00978662Y00847587D01*
X00978662Y00847587D01*
X01001440D01*
X01002501Y00846878D01*
X01004062Y00846568D01*
X01005623Y00846878D01*
X01006684Y00847587D01*
X01036152D01*
X01036830Y00846317D01*
X01036653Y00846052D01*
X01036304Y00844296D01*
X01036653Y00842540D01*
X01037648Y00841052D01*
X01037886Y00840893D01*
Y00802568D01*
X01037886Y00802568D01*
X01038101Y00801487D01*
X01038713Y00800571D01*
X01039196Y00800088D01*
X01039098Y00799592D01*
X01039447Y00797836D01*
X01040442Y00796348D01*
X01041930Y00795353D01*
X01043686Y00795004D01*
X01045442Y00795353D01*
X01046930Y00796348D01*
X01047925Y00797836D01*
X01048274Y00799592D01*
X01047957Y00801185D01*
X01048206Y00801716D01*
X01048739Y00802415D01*
X01050268Y00802719D01*
X01051276Y00803393D01*
X01052546Y00802784D01*
Y00792410D01*
X01052546Y00791340D01*
X01052546Y00790070D01*
Y00778794D01*
X00929970D01*
X00928889Y00778579D01*
X00927973Y00777967D01*
X00897552Y00747546D01*
X00896379Y00748032D01*
Y00756832D01*
X00898381Y00758835D01*
X00899012Y00759779D01*
X00899823Y00760321D01*
X00901039Y00762140D01*
X00901466Y00764286D01*
X00901039Y00766432D01*
X00899823Y00768251D01*
X00898004Y00769467D01*
X00895858Y00769894D01*
X00893712Y00769467D01*
X00891893Y00768251D01*
X00891316Y00767388D01*
X00890046Y00767773D01*
Y00778440D01*
X00890046D01*
Y00778640D01*
X00890046D01*
Y00790070D01*
X00890046Y00791140D01*
X00890046Y00792410D01*
Y00802770D01*
X00890046Y00803840D01*
X00890046Y00805110D01*
Y00815470D01*
X00890046Y00816540D01*
X00890046Y00817810D01*
Y00828170D01*
X00890046Y00829240D01*
X00890046Y00830510D01*
X00890046Y00841233D01*
X00891316Y00841759D01*
X00904511Y00828565D01*
X00905668Y00827791D01*
X00907034Y00827519D01*
X00919261D01*
X00920264Y00826849D01*
X00922020Y00826500D01*
X00923776Y00826849D01*
X00925264Y00827844D01*
X00926259Y00829332D01*
X00926608Y00831088D01*
X00926259Y00832844D01*
X00925264Y00834332D01*
X00923776Y00835327D01*
X00922020Y00835676D01*
X00920264Y00835327D01*
X00919261Y00834657D01*
X00908512D01*
X00892255Y00850913D01*
X00891098Y00851687D01*
X00890046Y00851896D01*
X00890046Y00854640D01*
X00890046Y00855910D01*
Y00867340D01*
X00890046D01*
Y00867540D01*
X00890046D01*
Y00870221D01*
X00890300D01*
X00891666Y00870493D01*
X00892823Y00871267D01*
X00896349Y00874793D01*
X00897123Y00875950D01*
X00897395Y00877316D01*
Y00887522D01*
X00899114Y00889241D01*
X00904529D01*
X00905532Y00888571D01*
X00907288Y00888222D01*
X00909044Y00888571D01*
X00910532Y00889566D01*
X00911527Y00891054D01*
X00911876Y00892810D01*
X00911527Y00894566D01*
X00910532Y00896054D01*
X00909044Y00897049D01*
X00907288Y00897398D01*
X00905532Y00897049D01*
X00904529Y00896379D01*
X00897636D01*
X00896270Y00896107D01*
X00895113Y00895333D01*
X00891316Y00891537D01*
X00891259Y00891538D01*
X00890961Y00891634D01*
X00890046Y00892490D01*
Y00893190D01*
X00890046D01*
Y00904390D01*
X00891546D01*
Y00910640D01*
X00881046D01*
Y00911890D01*
X00879796D01*
Y00919390D01*
X00873536D01*
Y00923056D01*
X00866536D01*
X00859536D01*
Y00918748D01*
X00858036D01*
Y00930306D01*
X00850862D01*
X00848907Y00932261D01*
X00849433Y00933531D01*
X00850415D01*
Y00943943D01*
X00851685Y00944328D01*
X00852269Y00943455D01*
X00854088Y00942239D01*
X00854984Y00942061D01*
Y00947420D01*
Y00952779D01*
X00854088Y00952601D01*
X00852269Y00951385D01*
X00851685Y00950512D01*
X00850415Y00950897D01*
Y00958531D01*
X00838915D01*
Y00933531D01*
X00839916D01*
X00840402Y00932358D01*
X00839181Y00931137D01*
X00838962Y00931180D01*
X00837206Y00930831D01*
X00835718Y00929836D01*
X00834723Y00928348D01*
X00834374Y00926592D01*
X00834723Y00924836D01*
X00835230Y00924078D01*
X00834551Y00922808D01*
X00831609D01*
Y00924052D01*
X00831337Y00925418D01*
X00830563Y00926575D01*
X00826378Y00930761D01*
X00826904Y00932031D01*
X00828415D01*
Y00944781D01*
X00822415D01*
Y00936254D01*
X00821433Y00935448D01*
X00821182Y00935498D01*
X00819426Y00935149D01*
X00817938Y00934154D01*
X00816943Y00932666D01*
X00816594Y00930910D01*
X00816943Y00929154D01*
X00817938Y00927666D01*
X00819426Y00926671D01*
X00820610Y00926436D01*
X00824471Y00922574D01*
Y00913675D01*
X00823201Y00913149D01*
X00820246Y00916105D01*
Y00922808D01*
X00806246D01*
Y00921027D01*
X00805379Y00920878D01*
X00804684Y00922012D01*
X00804939Y00923290D01*
Y00926265D01*
X00804975Y00926289D01*
X00806080Y00927943D01*
X00806468Y00929894D01*
X00806080Y00931845D01*
X00804975Y00933499D01*
X00803321Y00934604D01*
X00801370Y00934992D01*
X00799419Y00934604D01*
X00797765Y00933499D01*
X00796660Y00931845D01*
X00796272Y00929894D01*
X00796660Y00927943D01*
X00797765Y00926289D01*
X00797801Y00926265D01*
Y00924768D01*
X00795799Y00922765D01*
X00795691Y00922604D01*
X00792734D01*
Y00987806D01*
X00885444D01*
Y00919390D01*
D02*
G37*
G36*
X01052546Y00765940D02*
X01052546Y00765940D01*
Y00765740D01*
X01052546D01*
X01052546Y00764670D01*
Y00754310D01*
X01052546Y00753240D01*
X01052546D01*
Y00753040D01*
X01052546D01*
Y00740770D01*
X01049817Y00738041D01*
X01049205Y00737125D01*
X01048990Y00736044D01*
X01048990Y00736044D01*
Y00731836D01*
X01048209Y00731315D01*
X01047492Y00730241D01*
X01046059Y00730382D01*
X01045808Y00730988D01*
X01044766Y00732346D01*
X01043408Y00733388D01*
X01041827Y00734043D01*
X01041380Y00734101D01*
Y00727710D01*
X01038880D01*
Y00734101D01*
X01038433Y00734043D01*
X01037466Y00733642D01*
X01036196Y00734391D01*
Y00743290D01*
X01029696D01*
Y00732790D01*
X01027196D01*
Y00743290D01*
X01020696D01*
Y00741790D01*
X01018570D01*
Y00760506D01*
X01019752Y00761296D01*
X01020747Y00762784D01*
X01021096Y00764540D01*
X01020747Y00766296D01*
X01019752Y00767784D01*
X01018264Y00768779D01*
X01016508Y00769128D01*
X01014752Y00768779D01*
X01013264Y00767784D01*
X01012269Y00766296D01*
X01011920Y00764540D01*
X01012269Y00762784D01*
X01012922Y00761807D01*
Y00742688D01*
X01012024Y00741790D01*
X01009496Y00741790D01*
X01008226Y00741790D01*
X00997866D01*
X00996796Y00741790D01*
X00995526Y00741790D01*
X00985166D01*
X00984096Y00741790D01*
X00982826Y00741790D01*
X00972466D01*
X00971396Y00741790D01*
X00970126Y00741790D01*
X00958831Y00741790D01*
X00958326Y00742990D01*
X00958953Y00743670D01*
X00960120Y00743438D01*
X00962266Y00743865D01*
X00964085Y00745081D01*
X00965301Y00746900D01*
X00965728Y00749046D01*
X00965301Y00751192D01*
X00964085Y00753011D01*
X00962266Y00754227D01*
X00960120Y00754654D01*
X00957974Y00754227D01*
X00956155Y00753011D01*
X00954939Y00751192D01*
X00954512Y00749046D01*
X00954780Y00747700D01*
X00950433Y00743353D01*
X00949821Y00742437D01*
X00949692Y00741790D01*
X00945996Y00741790D01*
X00944726Y00741790D01*
X00942554D01*
Y00743310D01*
X00946404Y00747160D01*
X00947750Y00746892D01*
X00949896Y00747319D01*
X00951715Y00748535D01*
X00952931Y00750354D01*
X00953358Y00752500D01*
X00952931Y00754646D01*
X00951715Y00756465D01*
X00949896Y00757681D01*
X00947750Y00758108D01*
X00945604Y00757681D01*
X00944028Y00756628D01*
X00943219Y00757614D01*
X00948590Y00762986D01*
X00959135D01*
X00959416Y00762566D01*
X00960904Y00761571D01*
X00962660Y00761222D01*
X00964416Y00761571D01*
X00965904Y00762566D01*
X00966899Y00764054D01*
X00967248Y00765810D01*
X00966899Y00767566D01*
X00965904Y00769054D01*
X00964416Y00770049D01*
X00962660Y00770398D01*
X00960904Y00770049D01*
X00959416Y00769054D01*
X00959135Y00768634D01*
X00947420D01*
X00947420Y00768634D01*
X00946339Y00768419D01*
X00945423Y00767807D01*
X00924849Y00747233D01*
X00924237Y00746317D01*
X00924022Y00745236D01*
X00924022Y00745236D01*
Y00741790D01*
X00921896D01*
Y00743290D01*
X00915396D01*
Y00732790D01*
X00914146D01*
Y00731540D01*
X00906396D01*
Y00722884D01*
X00906396Y00722290D01*
X00905406Y00721614D01*
X00904000D01*
X00902770Y00721710D01*
Y00733710D01*
X00900594D01*
Y00742600D01*
X00931140Y00773146D01*
X01052546D01*
Y00765940D01*
D02*
G37*
%LPC*%
G36*
X01113162Y00767354D02*
X01106912D01*
Y00752604D01*
X01113162D01*
Y00767354D01*
D02*
G37*
G36*
X01104412D02*
X01098162D01*
Y00752604D01*
X01104412D01*
Y00767354D01*
D02*
G37*
G36*
X01110114Y00749838D02*
X01103864D01*
Y00743338D01*
Y00736838D01*
X01109400D01*
X01109931Y00736043D01*
X01111585Y00734938D01*
X01113536Y00734550D01*
X01115487Y00734938D01*
X01117141Y00736043D01*
X01118246Y00737697D01*
X01118634Y00739648D01*
X01118246Y00741599D01*
X01117141Y00743253D01*
X01115487Y00744358D01*
X01113536Y00744746D01*
X01111585Y00744358D01*
X01111234Y00744123D01*
X01110114Y00744722D01*
Y00749838D01*
D02*
G37*
G36*
X01142218Y00937285D02*
Y00933176D01*
X01146327D01*
X01146149Y00934072D01*
X01144933Y00935891D01*
X01143114Y00937107D01*
X01142218Y00937285D01*
D02*
G37*
G36*
X01128542D02*
X01127646Y00937107D01*
X01125827Y00935891D01*
X01124611Y00934072D01*
X01124433Y00933176D01*
X01128542D01*
Y00937285D01*
D02*
G37*
G36*
Y00944011D02*
X01124433D01*
X01124611Y00943115D01*
X01125827Y00941296D01*
X01127646Y00940080D01*
X01128542Y00939902D01*
Y00944011D01*
D02*
G37*
G36*
X01146327D02*
X01142218D01*
Y00939902D01*
X01143114Y00940080D01*
X01144933Y00941296D01*
X01146149Y00943115D01*
X01146327Y00944011D01*
D02*
G37*
G36*
X01128542Y00963955D02*
X01127646Y00963777D01*
X01125827Y00962561D01*
X01124611Y00960742D01*
X01124433Y00959846D01*
X01128542D01*
Y00963955D01*
D02*
G37*
G36*
X01142218D02*
Y00959846D01*
X01146327D01*
X01146149Y00960742D01*
X01144933Y00962561D01*
X01143114Y00963777D01*
X01142218Y00963955D01*
D02*
G37*
G36*
X01139718D02*
X01138822Y00963777D01*
X01137003Y00962561D01*
X01136086Y00961189D01*
X01136070Y00961183D01*
X01134689D01*
X01134674Y00961189D01*
X01133757Y00962561D01*
X01131938Y00963777D01*
X01131042Y00963955D01*
Y00958596D01*
Y00953237D01*
X01131938Y00953415D01*
X01133757Y00954631D01*
X01134674Y00956003D01*
X01134689Y00956009D01*
X01136070D01*
X01136086Y00956003D01*
X01137003Y00954631D01*
X01138822Y00953415D01*
X01139718Y00953237D01*
Y00958596D01*
Y00963955D01*
D02*
G37*
G36*
Y00950620D02*
X01138822Y00950442D01*
X01137003Y00949226D01*
X01136086Y00947854D01*
X01136070Y00947848D01*
X01134689D01*
X01134674Y00947854D01*
X01133757Y00949226D01*
X01131938Y00950442D01*
X01131042Y00950620D01*
Y00945261D01*
Y00939902D01*
X01131938Y00940080D01*
X01133757Y00941296D01*
X01134674Y00942668D01*
X01134689Y00942674D01*
X01136070D01*
X01136086Y00942668D01*
X01137003Y00941296D01*
X01138822Y00940080D01*
X01139718Y00939902D01*
Y00945261D01*
Y00950620D01*
D02*
G37*
G36*
X01128542D02*
X01127646Y00950442D01*
X01125827Y00949226D01*
X01124611Y00947407D01*
X01124433Y00946511D01*
X01128542D01*
Y00950620D01*
D02*
G37*
G36*
X01142218D02*
Y00946511D01*
X01146327D01*
X01146149Y00947407D01*
X01144933Y00949226D01*
X01143114Y00950442D01*
X01142218Y00950620D01*
D02*
G37*
G36*
X01128542Y00957346D02*
X01124433D01*
X01124611Y00956450D01*
X01125827Y00954631D01*
X01127646Y00953415D01*
X01128542Y00953237D01*
Y00957346D01*
D02*
G37*
G36*
X01146327D02*
X01142218D01*
Y00953237D01*
X01143114Y00953415D01*
X01144933Y00954631D01*
X01146149Y00956450D01*
X01146327Y00957346D01*
D02*
G37*
G36*
X00873536Y00931806D02*
X00867786D01*
Y00925556D01*
X00873536D01*
Y00931806D01*
D02*
G37*
G36*
X00836915Y00944781D02*
X00830915D01*
Y00932031D01*
X00836915D01*
Y00944781D01*
D02*
G37*
G36*
X00870986Y00946424D02*
X00866877D01*
X00867055Y00945528D01*
X00868271Y00943709D01*
X00870090Y00942493D01*
X00870986Y00942315D01*
Y00946424D01*
D02*
G37*
G36*
X00877595D02*
X00873486D01*
Y00942315D01*
X00874382Y00942493D01*
X00876201Y00943709D01*
X00877417Y00945528D01*
X00877595Y00946424D01*
D02*
G37*
G36*
X00861593Y00946170D02*
X00857484D01*
Y00942061D01*
X00858380Y00942239D01*
X00860199Y00943455D01*
X00861415Y00945274D01*
X00861593Y00946170D01*
D02*
G37*
G36*
X00865286Y00931806D02*
X00859536D01*
Y00925556D01*
X00865286D01*
Y00931806D01*
D02*
G37*
G36*
X01016254Y00917468D02*
X01014108Y00917041D01*
X01012289Y00915825D01*
X01012024Y00915429D01*
X00971804D01*
X00970438Y00915157D01*
X00969281Y00914383D01*
X00952263Y00897365D01*
X00951489Y00896208D01*
X00951217Y00894842D01*
Y00821764D01*
X00946498Y00817045D01*
X00946030Y00817138D01*
X00943884Y00816711D01*
X00942065Y00815495D01*
X00940849Y00813676D01*
X00940422Y00811530D01*
X00940849Y00809384D01*
X00942065Y00807565D01*
X00943884Y00806349D01*
X00946030Y00805922D01*
X00948176Y00806349D01*
X00949995Y00807565D01*
X00951211Y00809384D01*
X00951638Y00811530D01*
X00951545Y00811998D01*
X00957309Y00817763D01*
X00958083Y00818920D01*
X00958355Y00820286D01*
Y00893364D01*
X00973282Y00908291D01*
X01012024D01*
X01012289Y00907895D01*
X01014108Y00906679D01*
X01016254Y00906252D01*
X01018400Y00906679D01*
X01020219Y00907895D01*
X01021435Y00909714D01*
X01021862Y00911860D01*
X01021435Y00914006D01*
X01020219Y00915825D01*
X01018400Y00917041D01*
X01016254Y00917468D01*
D02*
G37*
G36*
X01028700Y00814848D02*
X01026944Y00814499D01*
X01025456Y00813504D01*
X01024461Y00812016D01*
X01024112Y00810260D01*
X01024461Y00808504D01*
X01025456Y00807016D01*
X01025876Y00806735D01*
Y00800069D01*
X01025456Y00799788D01*
X01024461Y00798300D01*
X01024112Y00796544D01*
X01024461Y00794788D01*
X01025456Y00793300D01*
X01026944Y00792305D01*
X01028700Y00791956D01*
X01030456Y00792305D01*
X01031944Y00793300D01*
X01032939Y00794788D01*
X01033288Y00796544D01*
X01032939Y00798300D01*
X01031944Y00799788D01*
X01031524Y00800069D01*
Y00806735D01*
X01031944Y00807016D01*
X01032939Y00808504D01*
X01033288Y00810260D01*
X01032939Y00812016D01*
X01031944Y00813504D01*
X01030456Y00814499D01*
X01028700Y00814848D01*
D02*
G37*
G36*
X00800882Y00947694D02*
X00796773D01*
X00796951Y00946798D01*
X00798167Y00944979D01*
X00799986Y00943763D01*
X00800882Y00943585D01*
Y00947694D01*
D02*
G37*
G36*
X00848634Y00965982D02*
X00844525D01*
X00844703Y00965086D01*
X00845919Y00963267D01*
X00847738Y00962051D01*
X00848634Y00961873D01*
Y00965982D01*
D02*
G37*
G36*
X00855243D02*
X00851134D01*
Y00961873D01*
X00852030Y00962051D01*
X00853849Y00963267D01*
X00855065Y00965086D01*
X00855243Y00965982D01*
D02*
G37*
G36*
X00840257Y00976142D02*
X00829539D01*
X00829717Y00975246D01*
X00830933Y00973427D01*
X00832282Y00972525D01*
X00832403Y00971158D01*
X00832369Y00971056D01*
X00831441Y00970435D01*
X00830225Y00968616D01*
X00830047Y00967720D01*
X00840765D01*
X00840587Y00968616D01*
X00839371Y00970435D01*
X00838022Y00971337D01*
X00837901Y00972704D01*
X00837935Y00972806D01*
X00838863Y00973427D01*
X00840079Y00975246D01*
X00840257Y00976142D01*
D02*
G37*
G36*
X00823448Y00983005D02*
Y00978896D01*
X00827557D01*
X00827379Y00979792D01*
X00826163Y00981611D01*
X00824344Y00982827D01*
X00823448Y00983005D01*
D02*
G37*
G36*
X00847872D02*
X00846976Y00982827D01*
X00845157Y00981611D01*
X00843941Y00979792D01*
X00843763Y00978896D01*
X00847872D01*
Y00983005D01*
D02*
G37*
G36*
X00850372D02*
Y00978896D01*
X00854481D01*
X00854303Y00979792D01*
X00853087Y00981611D01*
X00851268Y00982827D01*
X00850372Y00983005D01*
D02*
G37*
G36*
X00854481Y00976396D02*
X00843763D01*
X00843941Y00975500D01*
X00845157Y00973681D01*
X00846253Y00972948D01*
Y00971421D01*
X00845919Y00971197D01*
X00844703Y00969378D01*
X00844525Y00968482D01*
X00855243D01*
X00855065Y00969378D01*
X00853849Y00971197D01*
X00852753Y00971930D01*
Y00973457D01*
X00853087Y00973681D01*
X00854303Y00975500D01*
X00854481Y00976396D01*
D02*
G37*
G36*
X00833648Y00982751D02*
X00832752Y00982573D01*
X00830933Y00981357D01*
X00829717Y00979538D01*
X00829539Y00978642D01*
X00833648D01*
Y00982751D01*
D02*
G37*
G36*
X00836148D02*
Y00978642D01*
X00840257D01*
X00840079Y00979538D01*
X00838863Y00981357D01*
X00837044Y00982573D01*
X00836148Y00982751D01*
D02*
G37*
G36*
X00816775Y00983637D02*
X00796775D01*
Y00955637D01*
X00801078D01*
X00801203Y00954367D01*
X00799986Y00954125D01*
X00798167Y00952909D01*
X00796951Y00951090D01*
X00796773Y00950194D01*
X00802132D01*
Y00948944D01*
X00803382D01*
Y00943585D01*
X00804278Y00943763D01*
X00806097Y00944979D01*
X00807313Y00946798D01*
X00807504Y00947759D01*
X00808799D01*
X00808889Y00947306D01*
X00810105Y00945487D01*
X00811924Y00944271D01*
X00812820Y00944093D01*
Y00949452D01*
X00814070D01*
Y00950702D01*
X00819429D01*
X00819251Y00951598D01*
X00818035Y00953417D01*
X00816614Y00954367D01*
X00816775Y00955637D01*
X00816775Y00955718D01*
Y00961638D01*
X00818045Y00962024D01*
X00818233Y00961743D01*
X00820052Y00960527D01*
X00821252Y00960288D01*
X00822202Y00960078D01*
X00822415Y00958861D01*
Y00947281D01*
X00828415D01*
Y00960031D01*
X00825887D01*
X00825502Y00961301D01*
X00826163Y00961743D01*
X00827379Y00963562D01*
X00827557Y00964458D01*
X00822198D01*
Y00966958D01*
X00827557D01*
X00827379Y00967854D01*
X00826163Y00969673D01*
X00824344Y00970889D01*
X00823637Y00971030D01*
Y00972324D01*
X00824344Y00972465D01*
X00826163Y00973681D01*
X00827379Y00975500D01*
X00827557Y00976396D01*
X00822198D01*
Y00977646D01*
X00820948D01*
Y00983005D01*
X00820052Y00982827D01*
X00818233Y00981611D01*
X00818045Y00981330D01*
X00816775Y00981715D01*
Y00983637D01*
D02*
G37*
G36*
X00840765Y00965220D02*
X00830047D01*
X00830225Y00964324D01*
X00831441Y00962505D01*
X00833260Y00961289D01*
X00833075Y00960031D01*
X00830915D01*
Y00947281D01*
X00836915D01*
Y00959867D01*
X00836915Y00960031D01*
X00837141Y00961207D01*
X00837552Y00961289D01*
X00839371Y00962505D01*
X00840587Y00964324D01*
X00840765Y00965220D01*
D02*
G37*
G36*
X00819429Y00948202D02*
X00815320D01*
Y00944093D01*
X00816216Y00944271D01*
X00818035Y00945487D01*
X00819251Y00947306D01*
X00819429Y00948202D01*
D02*
G37*
G36*
X00877593Y00983637D02*
X00857593D01*
Y00955637D01*
X00877593D01*
Y00983637D01*
D02*
G37*
G36*
X00857484Y00952779D02*
Y00948670D01*
X00861593D01*
X00861415Y00949566D01*
X00860199Y00951385D01*
X00858380Y00952601D01*
X00857484Y00952779D01*
D02*
G37*
G36*
X00870986Y00953033D02*
X00870090Y00952855D01*
X00868271Y00951639D01*
X00867055Y00949820D01*
X00866877Y00948924D01*
X00870986D01*
Y00953033D01*
D02*
G37*
G36*
X00873486D02*
Y00948924D01*
X00877595D01*
X00877417Y00949820D01*
X00876201Y00951639D01*
X00874382Y00952855D01*
X00873486Y00953033D01*
D02*
G37*
G36*
X00921532Y00760247D02*
X00920636Y00760069D01*
X00918817Y00758853D01*
X00917601Y00757034D01*
X00917423Y00756138D01*
X00921532D01*
Y00760247D01*
D02*
G37*
G36*
Y00753638D02*
X00917423D01*
X00917601Y00752742D01*
X00918817Y00750923D01*
X00920636Y00749707D01*
X00921532Y00749529D01*
Y00753638D01*
D02*
G37*
G36*
X00928141D02*
X00924032D01*
Y00749529D01*
X00924928Y00749707D01*
X00926747Y00750923D01*
X00927963Y00752742D01*
X00928141Y00753638D01*
D02*
G37*
G36*
X00912896Y00743290D02*
X00906396D01*
Y00734040D01*
X00912896D01*
Y00743290D01*
D02*
G37*
G36*
X00924032Y00760247D02*
Y00756138D01*
X00928141D01*
X00927963Y00757034D01*
X00926747Y00758853D01*
X00924928Y00760069D01*
X00924032Y00760247D01*
D02*
G37*
%LPD*%
D10*
X01102614Y00743338D02*
D03*
Y00728338D02*
D03*
X01089152Y00728338D02*
D03*
Y00743338D02*
D03*
X00810006Y00863988D02*
D03*
Y00848988D02*
D03*
X00797560Y00745116D02*
D03*
Y00730116D02*
D03*
X00797560Y00757802D02*
D03*
Y00772802D02*
D03*
X00866140Y00775342D02*
D03*
Y00760342D02*
D03*
X00852170Y00912248D02*
D03*
Y00897248D02*
D03*
X00865886Y00788028D02*
D03*
Y00803028D02*
D03*
X00866140Y00734688D02*
D03*
Y00749688D02*
D03*
X00865886Y00862210D02*
D03*
Y00847210D02*
D03*
X00865886Y00815968D02*
D03*
Y00830968D02*
D03*
X01073912Y00931792D02*
D03*
Y00946792D02*
D03*
D11*
X00810006Y00874634D02*
D03*
Y00888634D02*
D03*
X00798068Y00874634D02*
D03*
Y00888634D02*
D03*
X00798068Y00863488D02*
D03*
Y00849488D02*
D03*
X00798068Y00805718D02*
D03*
Y00791718D02*
D03*
X00798068Y00823580D02*
D03*
Y00837580D02*
D03*
X01146048Y00882000D02*
D03*
Y00896000D02*
D03*
X01134364Y00882000D02*
D03*
Y00896000D02*
D03*
X01122680Y00896000D02*
D03*
Y00882000D02*
D03*
X00865886Y00873110D02*
D03*
Y00887110D02*
D03*
X01145540Y00794624D02*
D03*
Y00808624D02*
D03*
X00865886Y00911748D02*
D03*
Y00897748D02*
D03*
X01110996Y00896000D02*
D03*
Y00882000D02*
D03*
X01099312Y00896000D02*
D03*
Y00882000D02*
D03*
X01087628Y00896000D02*
D03*
Y00882000D02*
D03*
X00846582Y00868568D02*
D03*
Y00854568D02*
D03*
D12*
X00810260Y00791718D02*
D03*
Y00809118D02*
D03*
Y00837756D02*
D03*
Y00820356D02*
D03*
X00798322Y00899604D02*
D03*
Y00917004D02*
D03*
D13*
X00854590Y00727456D02*
D03*
X00839590D02*
D03*
X00897770Y00727710D02*
D03*
X00882770D02*
D03*
X01124070Y00870204D02*
D03*
X01139070D02*
D03*
X01133736Y00789686D02*
D03*
X01118736D02*
D03*
X01082308Y00974090D02*
D03*
X01067308D02*
D03*
X01082428Y00961898D02*
D03*
X01067428D02*
D03*
X01108590Y00789686D02*
D03*
X01093590D02*
D03*
D14*
X00809348Y00743672D02*
D03*
X00815848D02*
D03*
X00822348D02*
D03*
X00809348Y00764072D02*
D03*
X00815848D02*
D03*
X00822348D02*
D03*
D15*
X00811276Y00753872D02*
D03*
X00820420D02*
D03*
D16*
X01099746Y00974702D02*
D03*
Y00916702D02*
D03*
D17*
X01101746Y00932702D02*
D03*
Y00939202D02*
D03*
Y00945702D02*
D03*
Y00952202D02*
D03*
Y00958702D02*
D03*
D18*
X01126246Y00973702D02*
D03*
Y00917702D02*
D03*
D19*
X01113496Y00982702D02*
D03*
Y00908702D02*
D03*
D20*
X01131944Y00811048D02*
D03*
Y00816048D02*
D03*
Y00821048D02*
D03*
Y00826048D02*
D03*
Y00831048D02*
D03*
Y00836048D02*
D03*
Y00841048D02*
D03*
Y00846048D02*
D03*
X01083444D02*
D03*
Y00841048D02*
D03*
Y00836048D02*
D03*
Y00831048D02*
D03*
Y00826048D02*
D03*
Y00821048D02*
D03*
Y00816048D02*
D03*
Y00811048D02*
D03*
D21*
X01125194Y00852798D02*
D03*
X01120194D02*
D03*
X01115194D02*
D03*
X01110194D02*
D03*
X01105194D02*
D03*
X01100194D02*
D03*
X01095194D02*
D03*
X01090194D02*
D03*
Y00804298D02*
D03*
X01095194D02*
D03*
X01100194D02*
D03*
X01105194D02*
D03*
X01110194D02*
D03*
X01115194D02*
D03*
X01120194D02*
D03*
X01125194D02*
D03*
D22*
X01107694Y00828548D02*
D03*
D23*
X01061546Y00911890D02*
D03*
Y00899190D02*
D03*
Y00886490D02*
D03*
X00881046D02*
D03*
Y00899190D02*
D03*
Y00911890D02*
D03*
D24*
X01061546Y00873790D02*
D03*
Y00861090D02*
D03*
Y00848390D02*
D03*
Y00835690D02*
D03*
Y00822990D02*
D03*
Y00810290D02*
D03*
Y00797590D02*
D03*
Y00784890D02*
D03*
Y00772190D02*
D03*
Y00759490D02*
D03*
Y00746790D02*
D03*
X00881046D02*
D03*
Y00759490D02*
D03*
Y00772190D02*
D03*
Y00784890D02*
D03*
Y00797590D02*
D03*
Y00810290D02*
D03*
Y00822990D02*
D03*
Y00835690D02*
D03*
Y00848390D02*
D03*
Y00861090D02*
D03*
Y00873790D02*
D03*
D25*
X01028446Y00732790D02*
D03*
X01015746D02*
D03*
X01003046D02*
D03*
X00990346D02*
D03*
X00977646D02*
D03*
X00964946D02*
D03*
X00952246D02*
D03*
X00939546D02*
D03*
X00926846D02*
D03*
X00914146D02*
D03*
D26*
X00852536Y00924306D02*
D03*
X00866536D02*
D03*
D27*
X00853788Y00786794D02*
D03*
X00848788D02*
D03*
X00843788D02*
D03*
X00838788D02*
D03*
X00833788D02*
D03*
X00853788Y00742794D02*
D03*
X00848788D02*
D03*
X00843788D02*
D03*
X00838788D02*
D03*
X00833788D02*
D03*
D28*
X00829665Y00946031D02*
D03*
X00844665D02*
D03*
D29*
X00806775Y00969637D02*
D03*
X00867593D02*
D03*
D30*
X01089660Y00768604D02*
D03*
X01105662D02*
D03*
X01121664D02*
D03*
D31*
X00837246Y00899058D02*
D03*
Y00908558D02*
D03*
Y00918058D02*
D03*
X00813246D02*
D03*
Y00899058D02*
D03*
D32*
X00830072Y00859282D02*
D03*
D33*
X00822572Y00848832D02*
D03*
X00827572D02*
D03*
X00832572D02*
D03*
X00837572D02*
D03*
X00822572Y00869732D02*
D03*
X00827572D02*
D03*
X00832572D02*
D03*
X00837572D02*
D03*
D34*
X00850494Y00825054D02*
D03*
X00840994D02*
D03*
X00831494D02*
D03*
Y00801054D02*
D03*
X00850494D02*
D03*
D35*
X00865632Y00860686D02*
Y00871840D01*
X01121506Y00796956D02*
X01145540D01*
X00849750Y00908558D02*
X00853440Y00912248D01*
X00855980Y00877204D02*
X00858408Y00874776D01*
X00837826Y00864496D02*
Y00871510D01*
X00822826Y00864242D02*
Y00871510D01*
X00829109Y00861060D02*
X00831543D01*
X00837826Y00854777D01*
X00822826D02*
X00829109Y00861060D01*
X00827826Y00842368D02*
Y00850610D01*
X00812514Y00840010D02*
X00825468D01*
X00848716Y00819252D02*
Y00840459D01*
X00829716Y00821284D02*
Y00825054D01*
X00798068Y00887110D02*
X00810006D01*
X00832826Y00839938D02*
Y00850610D01*
X00846582Y00868568D02*
Y00870712D01*
X00837438Y00879856D02*
X00846582Y00870712D01*
X00833270Y00879856D02*
X00837438D01*
X00847478Y00891286D02*
X00853440Y00897248D01*
X00858408Y00874776D02*
X00864220D01*
X00865886Y00873110D01*
X00855980Y00876046D02*
Y00877204D01*
X00847456Y00891308D02*
X00847478Y00891286D01*
X00847434D02*
X00847456Y00891308D01*
X00841756Y00891286D02*
X00847434D01*
X00855726Y00868220D02*
X00857988Y00865958D01*
Y00844018D02*
Y00865958D01*
X00856514Y00791044D02*
Y00807701D01*
X00853534Y00788064D02*
X00856514Y00791044D01*
X00855726Y00808489D02*
Y00817619D01*
Y00808489D02*
X00856514Y00807701D01*
X00855726Y00832489D02*
Y00841756D01*
Y00832489D02*
X00856514Y00831701D01*
Y00818407D02*
Y00831701D01*
X00855726Y00817619D02*
X00856514Y00818407D01*
X00855726Y00841756D02*
X00857988Y00844018D01*
X00848788Y00742794D02*
Y00752522D01*
X00853944Y00742950D02*
X00858774D01*
X01080178Y00756054D02*
X01089152Y00747080D01*
Y00743338D02*
Y00747080D01*
X01064982Y00756054D02*
X01080178D01*
X01061546Y00759490D02*
X01064982Y00756054D01*
X01070102Y00771906D02*
X01076960Y00765048D01*
X01089152Y00728338D02*
X01102614D01*
X00952430Y00731960D02*
Y00741356D01*
X00939730Y00731960D02*
Y00744480D01*
X01040710Y00802568D02*
X01043686Y00799592D01*
X01075690Y00863854D02*
X01078993Y00860551D01*
X01101599D01*
X01105194Y00856956D01*
Y00852798D02*
Y00856956D01*
X01073404Y00876300D02*
X01085081Y00864623D01*
X01073404Y00876300D02*
Y00917069D01*
X01077468Y00877949D02*
X01086754Y00868663D01*
X01077468Y00877949D02*
Y00918718D01*
X01070739Y00919734D02*
X01073404Y00917069D01*
X01071880Y00924306D02*
X01077468Y00918718D01*
X01108580Y00860044D02*
X01131062D01*
X01104033Y00864591D02*
X01108580Y00860044D01*
X01110254Y00864084D02*
X01128800D01*
X01105707Y00868631D02*
X01110254Y00864084D01*
X01088604Y00864591D02*
X01104033D01*
X01090278Y00868631D02*
X01105707D01*
X01073658Y00854456D02*
X01082066Y00846048D01*
X01083444D01*
X01040710Y00802568D02*
Y00844114D01*
X01040892Y00844296D01*
X01041654Y00858012D02*
X01059482D01*
X01061730Y00860260D01*
X00812942Y00862472D02*
X00818388Y00867918D01*
X00810260Y00862472D02*
X00812942D01*
X00818388Y00867918D02*
Y00874776D01*
X00848788Y00752522D02*
X00851408Y00755142D01*
X00857250D01*
X00862704Y00749688D01*
X00866140D01*
X01078110Y00821048D02*
X01083444D01*
X01073912Y00825246D02*
X01078110Y00821048D01*
X01073912Y00825246D02*
Y00827278D01*
X01028700Y00796544D02*
Y00810260D01*
X01082628Y00816864D02*
X01083444Y00816048D01*
X01073658Y00816864D02*
X01082628D01*
X01046480Y00808990D02*
Y00834898D01*
Y00808990D02*
X01048512Y00806958D01*
X00859862Y00728576D02*
X00865974Y00734688D01*
X00866140D01*
X00859862Y00728410D02*
Y00728576D01*
X00859416Y00727964D02*
X00859862Y00728410D01*
X00806600Y00729814D02*
X00830144D01*
X00831088Y00730758D01*
X00797560Y00730116D02*
X00798202Y00730758D01*
X00805656D02*
X00806600Y00729814D01*
X00798202Y00730758D02*
X00805656D01*
X00843534Y00743048D02*
X00843788Y00742794D01*
X00843534Y00743048D02*
Y00765556D01*
X00797560Y00745116D02*
X00797560Y00745116D01*
Y00757802D01*
X00854590Y00727964D02*
X00859416D01*
X00826008Y00886968D02*
Y00887118D01*
X00817626Y00799084D02*
X00820420D01*
X00824422Y00803086D01*
X00810260Y00791718D02*
X00817626Y00799084D01*
X00824422Y00803086D02*
X00829716D01*
X00811910Y00810768D02*
X00841034D01*
X00833803Y00816530D02*
X00845994D01*
X00832180Y00818153D02*
X00833803Y00816530D01*
X00848534Y00779860D02*
Y00788064D01*
X00848788Y00780152D02*
X00851916Y00777024D01*
X00848788Y00780152D02*
Y00786794D01*
X00851916Y00777024D02*
X00855660D01*
X00865886Y00787250D02*
Y00788028D01*
X00855660Y00777024D02*
X00865886Y00787250D01*
X00823774Y00830886D02*
X00832826Y00839938D01*
X00814376Y00830886D02*
X00823774D01*
X00810260Y00826770D02*
X00814376Y00830886D01*
X00845994Y00816530D02*
X00848716Y00819252D01*
X00841034Y00810768D02*
X00848716Y00803086D01*
X00810260Y00809118D02*
X00811910Y00810768D01*
X00832180Y00818153D02*
Y00818820D01*
X00829716Y00821284D02*
X00832180Y00818820D01*
X00798068Y00791718D02*
X00810260D01*
X01028630Y00731960D02*
X01032880Y00727710D01*
X01040130D01*
X00939730Y00744480D02*
X00947750Y00752500D01*
X00952430Y00741356D02*
X00960120Y00749046D01*
X00866536Y00912398D02*
Y00924306D01*
X00865886Y00911748D02*
X00866536Y00912398D01*
X00853940Y00911748D02*
X00865886D01*
X00853440Y00912248D02*
X00853940Y00911748D01*
X01089406Y00949375D02*
X01093079Y00945702D01*
X01101746D01*
X01082428Y00948556D02*
X01091782Y00939202D01*
X01101746D01*
X01082308Y00974090D02*
X01089406Y00966992D01*
Y00949375D02*
Y00966992D01*
X01082428Y00948556D02*
Y00961898D01*
X01073698Y00956251D02*
Y00967700D01*
X01067308Y00974090D02*
X01073698Y00967700D01*
X01060958Y00955428D02*
X01067428Y00961898D01*
X01072075Y00954628D02*
X01073698Y00956251D01*
X01064998Y00951714D02*
X01067912Y00954628D01*
X01072075D01*
X01122680Y00896000D02*
X01122680Y00896000D01*
X01064998Y00927503D02*
X01068195Y00924306D01*
X01071880D01*
X01060958Y00925830D02*
Y00955428D01*
X01064998Y00927503D02*
Y00951714D01*
X01060958Y00925830D02*
X01067054Y00919734D01*
X01070739D01*
X01061546Y00873790D02*
X01064878Y00870458D01*
X01060676Y00874014D02*
X01061730Y00872960D01*
X01055272Y00868610D02*
X01060676Y00874014D01*
X01049204Y00868610D02*
X01055272D01*
X01138174Y00890524D02*
Y00892190D01*
Y00890524D02*
X01139928Y00888770D01*
X01140011D01*
X01146048Y00882733D01*
Y00882000D02*
Y00882733D01*
X01134364Y00896000D02*
X01138174Y00892190D01*
X01090245Y00868663D02*
X01090278Y00868631D01*
X01088572Y00864623D02*
X01088604Y00864591D01*
X01085081Y00864623D02*
X01088572D01*
X01086754Y00868663D02*
X01090245D01*
X01124070Y00868814D02*
Y00870204D01*
Y00868814D02*
X01128800Y00864084D01*
X01131944Y00841048D02*
X01135434D01*
X01138714Y00844328D01*
X01139070Y00870204D02*
X01145286Y00863988D01*
X01141714Y00830278D02*
X01145286Y00833850D01*
Y00863988D01*
X01131944Y00836048D02*
X01139324D01*
X01136934Y00830278D02*
X01141714D01*
X01136164Y00831048D02*
X01136934Y00830278D01*
X01131944Y00831048D02*
X01136164D01*
X01083444Y00809632D02*
Y00811048D01*
X01105194Y00793082D02*
X01108590Y00789686D01*
X01105194Y00793082D02*
Y00804298D01*
X01093590Y00789686D02*
X01100194Y00796290D01*
Y00804298D01*
X01115194Y00794752D02*
X01118736Y00791210D01*
X01115194Y00794752D02*
Y00804298D01*
X01108590Y00787855D02*
Y00789686D01*
X01121664Y00769366D02*
Y00776612D01*
X01120749Y00775697D02*
X01121664Y00776612D01*
X01108590Y00787855D02*
X01120749Y00775697D01*
X01089660Y00769366D02*
Y00781946D01*
X01093590Y00785876D01*
Y00789686D01*
X01087000Y00804298D02*
X01090194D01*
X01148588Y00811672D02*
Y00822198D01*
X01145540Y00808624D02*
X01148588Y00811672D01*
X01061730Y00771906D02*
X01070102D01*
X01061730D02*
Y00784060D01*
X01081278Y00807466D02*
X01083444Y00809632D01*
X01073658Y00807466D02*
X01081278D01*
X01084834Y00802132D02*
X01087000Y00804298D01*
X01075182Y00799846D02*
X01077468Y00802132D01*
X01084834D01*
X01051814Y00727710D02*
Y00736044D01*
X01061730Y00745960D01*
X01048004Y00867410D02*
X01049204Y00868610D01*
X01145540Y00794624D02*
Y00796956D01*
X01120194Y00798268D02*
X01121506Y00796956D01*
X01120194Y00798268D02*
Y00804298D01*
X01110194D02*
Y00809966D01*
X01111758Y00811530D01*
X01118616D01*
X01120194Y00809952D01*
Y00804298D02*
Y00809952D01*
X01122680Y00882000D02*
X01134364D01*
X01122680Y00882000D02*
X01122680Y00882000D01*
X01110996Y00882000D02*
X01122680D01*
X01099312D02*
X01110996D01*
X01087628D02*
X01099312D01*
X01128800Y00864084D02*
X01133118D01*
X01138714Y00858488D01*
Y00844328D02*
Y00858488D01*
X01134364Y00848468D02*
Y00856742D01*
X01131062Y00860044D02*
X01134364Y00856742D01*
X01131944Y00846048D02*
X01134364Y00848468D01*
X01125568Y00852424D02*
X01129030D01*
X01125194Y00852798D02*
X01125568Y00852424D01*
X01087628Y00880110D02*
X01092962Y00874776D01*
X01087628Y00880110D02*
Y00882000D01*
X00837246Y00908558D02*
X00849750D01*
X00929970Y00775970D02*
X01057666D01*
X01061730Y00771906D01*
X00897770Y00727710D02*
Y00743770D01*
X00929970Y00775970D01*
X00822826Y00850610D02*
Y00854777D01*
X00837826Y00850610D02*
Y00854777D01*
X00853948Y00845691D02*
Y00861202D01*
X00848716Y00840459D02*
X00853948Y00845691D01*
X00818388Y00874776D02*
X00820928Y00877316D01*
X00827572Y00869732D02*
Y00874482D01*
X00824738Y00877316D02*
X00827572Y00874482D01*
X00820928Y00877316D02*
X00824738D01*
X00822826Y00864242D02*
X00826008Y00861060D01*
X00829109D01*
X00832416Y00871920D02*
Y00880422D01*
X00831543Y00861060D02*
X00834390D01*
X00837826Y00864496D01*
X00798068Y00849488D02*
X00810006Y00861426D01*
Y00863988D01*
X00826008Y00887118D02*
X00833270Y00879856D01*
X00847780Y00867370D02*
X00853948Y00861202D01*
X00798068Y00837580D02*
X00810084D01*
X00810260Y00837756D01*
Y00820356D02*
Y00826770D01*
Y00837756D02*
Y00837756D01*
X00812514Y00840010D01*
X00825468D02*
X00827826Y00842368D01*
X01015746Y00732790D02*
Y00763778D01*
X01016508Y00764540D01*
X00947420Y00765810D02*
X00962660D01*
X00926846Y00732790D02*
Y00745236D01*
X00947420Y00765810D01*
X00798068Y00805718D02*
Y00815086D01*
X00798068Y00815086D02*
Y00823580D01*
Y00815086D02*
X00798068Y00815086D01*
X00840994Y00825054D02*
Y00842010D01*
X00844550Y00845566D01*
X00846582Y00847598D02*
Y00854568D01*
X00844550Y00845566D02*
X00846582Y00847598D01*
X00838035Y00854568D02*
X00846582D01*
X00837826Y00854777D02*
X00838035Y00854568D01*
X00798068Y00863488D02*
Y00874634D01*
X00798068Y00874634D02*
X00798068Y00874634D01*
X00798068Y00874634D02*
X00810006D01*
X00818784Y00883412D01*
X00819658D01*
X00859416Y00760342D02*
X00866140D01*
X00854964Y00764794D02*
X00859416Y00760342D01*
X00853788Y00742794D02*
X00853944Y00742950D01*
D36*
X00820674Y00752348D02*
X00833788Y00765462D01*
X00819150Y00753872D02*
X00820674Y00752348D01*
X01131944Y00825798D02*
X01132924D01*
X01139190Y00784232D02*
X01142746D01*
X01142626Y00784352D02*
X01142746Y00784232D01*
X00833788Y00786794D02*
X00838788D01*
Y00797894D01*
X01060500Y00885444D02*
X01061546Y00886490D01*
X01017016Y00885444D02*
X01060500D01*
X01011174Y00879602D02*
X01017016Y00885444D01*
X01004062Y00850646D02*
X01059290D01*
X00978662D02*
X01004062D01*
X00964438Y00864870D02*
X00978662Y00850646D01*
X00838962Y00926592D02*
X00844665Y00932295D01*
Y00932177D02*
X00852536Y00924306D01*
X00844665Y00932177D02*
Y00932295D01*
X00820674Y00752348D02*
X00822348Y00750674D01*
Y00743672D02*
Y00750674D01*
X00833788Y00765462D02*
Y00786794D01*
X00838788Y00797894D02*
X00840486Y00799592D01*
X00865886Y00847210D02*
X00865886Y00847210D01*
Y00830968D02*
X00865886Y00830968D01*
X00844665Y00932295D02*
Y00946031D01*
X01146048Y00869265D02*
Y00882000D01*
X01131944Y00821048D02*
Y00825798D01*
X01146048Y00869265D02*
X01149556Y00865757D01*
Y00832056D02*
Y00865757D01*
X01127118Y00821048D02*
X01131944D01*
X01140968Y00817880D02*
Y00823468D01*
X01131944Y00826048D02*
X01131984Y00826008D01*
X01143508D01*
X01140968Y00823468D02*
X01143508Y00826008D01*
X01149556Y00832056D01*
X01142746Y00784232D02*
Y00784352D01*
X01133736Y00789686D02*
X01139190Y00784232D01*
X01142626Y00784352D02*
X01142746D01*
X01059290Y00850646D02*
X01061546Y00848390D01*
X01091076Y00813054D02*
X01095194Y00808936D01*
X01091076Y00813054D02*
Y00843426D01*
X01092962Y00845312D01*
X01122173D01*
X01124458Y00843027D01*
Y00828802D02*
Y00843027D01*
Y00828802D02*
X01127212Y00826048D01*
X01131944D01*
X01095194Y00804298D02*
Y00808936D01*
X00798322Y00899604D02*
X00798868Y00899058D01*
X00813246D01*
D37*
X00810006Y00887110D02*
X00812404Y00889508D01*
X00822602Y00764072D02*
Y00777138D01*
X00808078Y00764072D02*
Y00775614D01*
Y00764072D02*
X00809312Y00762838D01*
X00853733Y00887110D02*
X00865886D01*
X00843684Y00884786D02*
X00846836Y00881634D01*
X00839064Y00884786D02*
X00843684D01*
X00838564Y00885286D02*
X00839064Y00884786D01*
X00907034Y00831088D02*
X00922020D01*
X00833788Y00742794D02*
X00838538D01*
X00881046Y00848390D02*
X00889732D01*
X00907034Y00831088D01*
X01089152Y00728338D02*
X01089152Y00728338D01*
X00954786Y00894842D02*
X00971804Y00911860D01*
X00954786Y00820286D02*
Y00894842D01*
X00971804Y00911860D02*
X01016254D01*
X00812192Y00917004D02*
X00813246Y00918058D01*
X00798322Y00917004D02*
X00812192D01*
X00798322D02*
Y00920242D01*
X00836168Y00885286D02*
X00838564D01*
X00822246Y00899208D02*
Y00909058D01*
X00813246Y00918058D02*
X00822246Y00909058D01*
Y00899208D02*
X00836168Y00885286D01*
X00865886Y00887110D02*
X00865886Y00887110D01*
Y00897748D01*
X00879604D01*
X00881046Y00899190D01*
Y00886490D02*
Y00899190D01*
X00895858Y00761358D02*
Y00764286D01*
X00892810Y00758310D02*
X00895858Y00761358D01*
X00892810Y00737750D02*
Y00758310D01*
X00818794Y00780946D02*
X00827278Y00790192D01*
X00818794Y00780946D02*
X00822602Y00777138D01*
X00827278Y00790192D02*
Y00790448D01*
X00808990Y00735584D02*
Y00743314D01*
Y00735584D02*
X00810768D01*
X00879856Y00726186D02*
X00881380Y00727710D01*
X00865632Y00726186D02*
X00879856D01*
X00838538Y00728508D02*
Y00742794D01*
Y00728508D02*
X00839590Y00727456D01*
X00808990Y00743314D02*
X00809348Y00743672D01*
X00810768Y00735584D02*
X00811276Y00736092D01*
X00827086D02*
X00833788Y00742794D01*
X00811276Y00736092D02*
X00827086D01*
X00797560Y00772802D02*
Y00776478D01*
X00815578Y00765834D02*
Y00772508D01*
X00816102Y00773032D02*
Y00774446D01*
X00815578Y00772508D02*
X00816102Y00773032D01*
X00829716Y00825054D02*
X00831494D01*
X00821752D02*
X00829716D01*
X00820928Y00824230D02*
X00821752Y00825054D01*
X00865886Y00803028D02*
Y00815968D01*
X00865886Y00839470D02*
Y00847210D01*
Y00830968D02*
Y00839470D01*
X00881380Y00727710D02*
X00882770D01*
X00797560Y00776478D02*
X00803656Y00782574D01*
X00809312Y00754566D02*
X00810006Y00753872D01*
X00809312Y00754566D02*
Y00762838D01*
X00808078Y00775614D02*
X00813410Y00780946D01*
X00818794D01*
X01073912Y00946284D02*
X01076318D01*
X01089900Y00932702D01*
X01101746D01*
X01087628Y00896000D02*
Y00918076D01*
X01073912Y00931792D02*
X01084326Y00921378D01*
X01087628Y00918076D01*
X01122680Y00896000D02*
X01134364D01*
X01110996Y00896000D02*
X01122680D01*
X01099312D02*
X01110996D01*
X01087628D02*
X01099312D01*
X00833046Y00918058D02*
X00837246D01*
X00830174Y00899058D02*
X00837246D01*
X00828040Y00901192D02*
X00830174Y00899058D01*
X00828040Y00901192D02*
Y00913052D01*
X00833046Y00918058D01*
X00882770Y00727710D02*
X00892810Y00737750D01*
X00946030Y00811530D02*
X00954786Y00820286D01*
X00823722Y00889508D02*
X00826008Y00886968D01*
X00812404Y00889508D02*
X00823722D01*
X00798322Y00920242D02*
X00801370Y00923290D01*
Y00929894D01*
X00821182Y00930910D02*
X00828040Y00924052D01*
Y00913052D02*
Y00924052D01*
X00881046Y00873790D02*
X00890300D01*
X00893826Y00877316D01*
Y00889000D01*
X00897636Y00892810D01*
X00907288D01*
D38*
X00843788Y00777610D02*
X00848894Y00772504D01*
X00863302D01*
X00866140Y00775342D01*
X00843788Y00777610D02*
Y00786794D01*
D39*
X01130046Y00973802D02*
D03*
Y00917702D02*
D03*
D40*
X01099746Y00921502D02*
D03*
Y00970002D02*
D03*
D41*
X00846836Y00881634D02*
D03*
X00855218Y00886460D02*
D03*
D42*
X00855980Y00876046D02*
D03*
X01073658Y00854456D02*
D03*
X01041654Y00858012D02*
D03*
X01011174Y00879602D02*
D03*
X01004062Y00850646D02*
D03*
X00964438Y00864870D02*
D03*
X00858774Y00742950D02*
D03*
X00854964Y00764794D02*
D03*
X00856234Y00947420D02*
D03*
X00798068Y00815086D02*
D03*
X00922782Y00754888D02*
D03*
X00834898Y00977392D02*
D03*
X00872236Y00947674D02*
D03*
X00849122Y00977646D02*
D03*
X00822198D02*
D03*
Y00965708D02*
D03*
X00835406Y00966470D02*
D03*
X00849884Y00967232D02*
D03*
X01129792Y00958596D02*
D03*
X01140968D02*
D03*
X01129792Y00945261D02*
D03*
X01140968D02*
D03*
X01129792Y00931926D02*
D03*
X01140968D02*
D03*
X01048004Y00867410D02*
D03*
X01129030Y00852424D02*
D03*
X01092962Y00874776D02*
D03*
X00802132Y00948944D02*
D03*
X00819658Y00883412D02*
D03*
X00844550Y00845566D02*
D03*
X00814070Y00949452D02*
D03*
D43*
X00855726Y00868934D02*
D03*
X00922020Y00831088D02*
D03*
X01040892Y00844296D02*
D03*
X00841756Y00891286D02*
D03*
X00838962Y00926592D02*
D03*
X01028700Y00796544D02*
D03*
X01073658Y00816864D02*
D03*
X01048512Y00806958D02*
D03*
X00831088Y00730758D02*
D03*
X00808990Y00735584D02*
D03*
X00865632Y00726186D02*
D03*
X00843534Y00765556D02*
D03*
X00827278Y00790448D02*
D03*
X00820928Y00824230D02*
D03*
X00840486Y00799592D02*
D03*
X00865886Y00839470D02*
D03*
X00803656Y00782574D02*
D03*
X00816102Y00774446D02*
D03*
X01139324Y00836048D02*
D03*
X01073912Y00827278D02*
D03*
X01028700Y00810260D02*
D03*
X01148588Y00822198D02*
D03*
X01140968Y00817880D02*
D03*
X01142746Y00784352D02*
D03*
X01073658Y00807466D02*
D03*
X01075182Y00799846D02*
D03*
X01043686Y00799592D02*
D03*
X01046480Y00834898D02*
D03*
X01016508Y00764540D02*
D03*
X00962660Y00765810D02*
D03*
X00821182Y00930910D02*
D03*
X00907288Y00892810D02*
D03*
D44*
X01076960Y00765048D02*
D03*
Y00778002D02*
D03*
Y00748284D02*
D03*
X01133602Y00767588D02*
D03*
X01133348Y00754888D02*
D03*
D45*
X01114044Y00727202D02*
D03*
X01113536Y00739648D02*
D03*
X00820420Y00799084D02*
D03*
X00821436Y00838962D02*
D03*
X01040130Y00727710D02*
D03*
X01084326Y00921378D02*
D03*
X01051814Y00727710D02*
D03*
X00801370Y00929894D02*
D03*
D46*
X01075690Y00863854D02*
D03*
X01016254Y00911860D02*
D03*
X00895858Y00764286D02*
D03*
X00947750Y00752500D02*
D03*
X00960120Y00749046D02*
D03*
X00946030Y00811530D02*
D03*
M02*
