G04 Layer_Physical_Order=2*
G04 Layer_Color=16711680*
%FSAX44Y44*%
%MOMM*%
G71*
G01*
G75*
%ADD10R,0.9000X0.7000*%
%ADD24R,1.5000X0.9500*%
%ADD35C,0.2540*%
%ADD36C,0.3000*%
%ADD37C,0.4000*%
%ADD39O,1.3000X0.8000*%
%ADD40O,1.2000X0.8000*%
%ADD41C,0.9000*%
%ADD42C,0.5000*%
%ADD43C,0.6000*%
%ADD44C,1.0000*%
%ADD45C,0.7000*%
%ADD46C,0.8000*%
%ADD47C,0.2000*%
G36*
X01150975Y00986907D02*
X01150874Y00906018D01*
Y00830288D01*
X01149604Y00829762D01*
X01143814Y00835553D01*
X01143912Y00836048D01*
X01143563Y00837804D01*
X01142568Y00839292D01*
X01141080Y00840287D01*
X01139324Y00840636D01*
X01137568Y00840287D01*
X01136080Y00839292D01*
X01135085Y00837804D01*
X01134736Y00836048D01*
X01135085Y00834292D01*
X01136080Y00832804D01*
X01137568Y00831809D01*
X01139324Y00831460D01*
X01139819Y00831558D01*
X01145397Y00825981D01*
X01145344Y00825442D01*
X01144349Y00823954D01*
X01144104Y00822724D01*
X01142927Y00822095D01*
X01142780Y00822081D01*
X01142724Y00822119D01*
X01140968Y00822468D01*
X01139212Y00822119D01*
X01137724Y00821124D01*
X01136729Y00819636D01*
X01136380Y00817880D01*
X01136729Y00816124D01*
X01137724Y00814636D01*
X01139212Y00813641D01*
X01139687Y00813547D01*
Y00787720D01*
X01139502Y00787596D01*
X01138507Y00786108D01*
X01138158Y00784352D01*
X01138507Y00782596D01*
X01139502Y00781108D01*
X01140990Y00780113D01*
X01142746Y00779764D01*
X01142989Y00778519D01*
Y00746757D01*
X01141225Y00744993D01*
X01122423D01*
X01087251Y00780165D01*
X01086258Y00780828D01*
X01085088Y00781061D01*
X01085088Y00781061D01*
X01082729D01*
X01082638Y00781280D01*
X01081596Y00782638D01*
X01080238Y00783680D01*
X01078657Y00784335D01*
X01076960Y00784558D01*
X01075263Y00784335D01*
X01073682Y00783680D01*
X01072324Y00782638D01*
X01071282Y00781280D01*
X01070627Y00779699D01*
X01070404Y00778002D01*
X01070627Y00776305D01*
X01071282Y00774724D01*
X01072324Y00773366D01*
X01073682Y00772324D01*
X01073952Y00772212D01*
Y00770838D01*
X01073682Y00770726D01*
X01072324Y00769684D01*
X01071282Y00768326D01*
X01070627Y00766745D01*
X01070404Y00765048D01*
X01070627Y00763351D01*
X01071282Y00761770D01*
X01072324Y00760412D01*
X01073682Y00759370D01*
X01075263Y00758715D01*
X01076960Y00758492D01*
X01078657Y00758715D01*
X01080238Y00759370D01*
X01081596Y00760412D01*
X01082638Y00761770D01*
X01083293Y00763351D01*
X01083516Y00765048D01*
X01083293Y00766745D01*
X01082638Y00768326D01*
X01081596Y00769684D01*
X01080238Y00770726D01*
X01079968Y00770838D01*
Y00772212D01*
X01080238Y00772324D01*
X01081596Y00773366D01*
X01082638Y00774724D01*
X01082640Y00774729D01*
X01083902Y00774862D01*
X01112858Y00745906D01*
X01112440Y00744528D01*
X01111585Y00744358D01*
X01109931Y00743253D01*
X01109410Y00742472D01*
X01084185D01*
X01083559Y00743742D01*
X01083948Y00744249D01*
X01084754Y00746196D01*
X01084865Y00747034D01*
X01069055D01*
X01069166Y00746196D01*
X01069972Y00744249D01*
X01070361Y00743742D01*
X01069735Y00742472D01*
X01066446D01*
X01049493Y00759425D01*
X01048577Y00760037D01*
X01047496Y00760252D01*
X01047496Y00760252D01*
X01020466D01*
X01020164Y00760694D01*
X01019904Y00761522D01*
X01020747Y00762784D01*
X01021096Y00764540D01*
X01020747Y00766296D01*
X01019752Y00767784D01*
X01019332Y00768065D01*
Y00770074D01*
X01022762D01*
Y00780074D01*
X01010762D01*
Y00770074D01*
X01013684D01*
Y00768065D01*
X01013264Y00767784D01*
X01012269Y00766296D01*
X01011920Y00764540D01*
X01012269Y00762784D01*
X01013112Y00761522D01*
X01012852Y00760694D01*
X01012550Y00760252D01*
X00964296D01*
X00964170Y00761522D01*
X00964416Y00761571D01*
X00965904Y00762566D01*
X00966899Y00764054D01*
X00967248Y00765810D01*
X00966899Y00767566D01*
X00966072Y00768804D01*
X00966367Y00769701D01*
X00966634Y00770074D01*
X00967644D01*
Y00780074D01*
X00955644D01*
Y00770074D01*
X00958686D01*
X00958953Y00769701D01*
X00959248Y00768804D01*
X00958421Y00767566D01*
X00958072Y00765810D01*
X00958421Y00764054D01*
X00959416Y00762566D01*
X00960904Y00761571D01*
X00961150Y00761522D01*
X00961024Y00760252D01*
X00952678D01*
X00951597Y00760037D01*
X00950681Y00759425D01*
X00949096Y00757840D01*
X00947750Y00758108D01*
X00945604Y00757681D01*
X00943785Y00756465D01*
X00942569Y00754646D01*
X00942142Y00752500D01*
X00942569Y00750354D01*
X00943785Y00748535D01*
X00945604Y00747319D01*
X00947750Y00746892D01*
X00949896Y00747319D01*
X00951715Y00748535D01*
X00952931Y00750354D01*
X00953358Y00752500D01*
X00953133Y00753630D01*
X00953995Y00754604D01*
X00956252D01*
X00956637Y00753334D01*
X00956155Y00753011D01*
X00954939Y00751192D01*
X00954512Y00749046D01*
X00954939Y00746900D01*
X00956155Y00745081D01*
X00957974Y00743865D01*
X00960120Y00743438D01*
X00962266Y00743865D01*
X00964085Y00745081D01*
X00964848Y00746222D01*
X01041754D01*
X01054559Y00733416D01*
X01053765Y00732420D01*
X01051814Y00732808D01*
X01049863Y00732420D01*
X01048209Y00731315D01*
X01047492Y00730241D01*
X01046059Y00730382D01*
X01045808Y00730988D01*
X01044766Y00732346D01*
X01043408Y00733388D01*
X01041827Y00734043D01*
X01041380Y00734101D01*
Y00727710D01*
X01040130D01*
Y00726460D01*
X01033738D01*
X01033797Y00726013D01*
X01034452Y00724432D01*
X01035494Y00723074D01*
X01035742Y00722884D01*
X01035311Y00721614D01*
X00869175D01*
X00868790Y00722884D01*
X00868876Y00722942D01*
X00869871Y00724430D01*
X00870220Y00726186D01*
X00869871Y00727942D01*
X00868876Y00729430D01*
X00867388Y00730425D01*
X00865632Y00730774D01*
X00863876Y00730425D01*
X00862388Y00729430D01*
X00861393Y00727942D01*
X00861370Y00727827D01*
X00835889D01*
X00835365Y00728805D01*
X00835346Y00729097D01*
X00835676Y00730758D01*
X00835327Y00732514D01*
X00834332Y00734002D01*
X00833912Y00734283D01*
Y00738732D01*
X00845531Y00750351D01*
X00845531Y00750351D01*
X00846143Y00751267D01*
X00846358Y00752348D01*
X00846358Y00752348D01*
Y00762031D01*
X00846778Y00762312D01*
X00847773Y00763800D01*
X00848122Y00765556D01*
X00847773Y00767312D01*
X00846778Y00768800D01*
X00845290Y00769795D01*
X00843534Y00770144D01*
X00841778Y00769795D01*
X00840290Y00768800D01*
X00839295Y00767312D01*
X00838946Y00765556D01*
X00839295Y00763800D01*
X00840290Y00762312D01*
X00840710Y00762031D01*
Y00753518D01*
X00829091Y00741899D01*
X00828479Y00740983D01*
X00828264Y00739902D01*
X00828264Y00739902D01*
Y00734283D01*
X00827844Y00734002D01*
X00826849Y00732514D01*
X00826500Y00730758D01*
X00826830Y00729097D01*
X00826811Y00728805D01*
X00826288Y00727827D01*
X00821794D01*
X00813464Y00736156D01*
X00813229Y00737340D01*
X00812559Y00738343D01*
Y00769939D01*
X00813829Y00770553D01*
X00814346Y00770207D01*
X00816102Y00769858D01*
X00817858Y00770207D01*
X00819346Y00771202D01*
X00820341Y00772690D01*
X00820690Y00774446D01*
X00820341Y00776202D01*
X00819346Y00777690D01*
X00817858Y00778685D01*
X00816102Y00779034D01*
X00814346Y00778685D01*
X00813343Y00778015D01*
X00813262D01*
X00808130Y00783146D01*
X00807895Y00784330D01*
X00806900Y00785818D01*
X00805412Y00786813D01*
X00803656Y00787162D01*
X00801900Y00786813D01*
X00800412Y00785818D01*
X00799417Y00784330D01*
X00799068Y00782574D01*
X00799417Y00780818D01*
X00800412Y00779330D01*
X00801900Y00778335D01*
X00803084Y00778100D01*
X00805421Y00775762D01*
Y00738343D01*
X00804751Y00737340D01*
X00804402Y00735584D01*
X00804751Y00733828D01*
X00805746Y00732340D01*
X00807234Y00731345D01*
X00808418Y00731110D01*
X00816643Y00722884D01*
X00816117Y00721614D01*
X00792734D01*
Y00810883D01*
X00794004Y00811268D01*
X00794103Y00811121D01*
X00795922Y00809905D01*
X00796818Y00809727D01*
Y00815086D01*
Y00820445D01*
X00795922Y00820267D01*
X00794103Y00819051D01*
X00794004Y00818904D01*
X00792734Y00819289D01*
Y00987806D01*
X00885444D01*
Y00918972D01*
X00885698Y00918718D01*
X01057402D01*
Y00987044D01*
X01058356Y00987806D01*
X01069086D01*
X01150077Y00987806D01*
X01150975Y00986907D01*
D02*
G37*
%LPC*%
G36*
X01127780Y00857783D02*
X01126884Y00857605D01*
X01125065Y00856389D01*
X01123849Y00854570D01*
X01123671Y00853674D01*
X01127780D01*
Y00857783D01*
D02*
G37*
G36*
X01079017Y00853206D02*
X01074908D01*
Y00849097D01*
X01075804Y00849275D01*
X01077623Y00850491D01*
X01078839Y00852310D01*
X01079017Y00853206D01*
D02*
G37*
G36*
X00946006Y00871882D02*
X00928006D01*
Y00859412D01*
X00926506D01*
Y00852912D01*
X00947506D01*
Y00859412D01*
X00946006D01*
Y00861811D01*
X00961816D01*
X00962877Y00861102D01*
X00964438Y00860792D01*
X00965999Y00861102D01*
X00967322Y00861986D01*
X00968206Y00863309D01*
X00968516Y00864870D01*
X00968206Y00866431D01*
X00967322Y00867754D01*
X00965999Y00868638D01*
X00964438Y00868948D01*
X00962877Y00868638D01*
X00961816Y00867929D01*
X00946006D01*
Y00871882D01*
D02*
G37*
G36*
X01130280Y00857783D02*
Y00853674D01*
X01134389D01*
X01134211Y00854570D01*
X01132995Y00856389D01*
X01131176Y00857605D01*
X01130280Y00857783D01*
D02*
G37*
G36*
X01072408Y00853206D02*
X01068299D01*
X01068477Y00852310D01*
X01069693Y00850491D01*
X01071512Y00849275D01*
X01072408Y00849097D01*
Y00853206D01*
D02*
G37*
G36*
X00845800Y00850925D02*
Y00846816D01*
X00849909D01*
X00849731Y00847712D01*
X00848515Y00849531D01*
X00846696Y00850747D01*
X00845800Y00850925D01*
D02*
G37*
G36*
X00843300D02*
X00842404Y00850747D01*
X00840585Y00849531D01*
X00839369Y00847712D01*
X00839191Y00846816D01*
X00843300D01*
Y00850925D01*
D02*
G37*
G36*
X01134389Y00851174D02*
X01130280D01*
Y00847065D01*
X01131176Y00847243D01*
X01132995Y00848459D01*
X01134211Y00850278D01*
X01134389Y00851174D01*
D02*
G37*
G36*
X01127780D02*
X01123671D01*
X01123849Y00850278D01*
X01125065Y00848459D01*
X01126884Y00847243D01*
X01127780Y00847065D01*
Y00851174D01*
D02*
G37*
G36*
X00989096Y00873382D02*
X00979846D01*
Y00866882D01*
X00989096D01*
Y00873382D01*
D02*
G37*
G36*
X01084326Y00926476D02*
X01082375Y00926088D01*
X01080721Y00924983D01*
X01080697Y00924947D01*
X01080661D01*
X01079296Y00924675D01*
X01078138Y00923901D01*
X01069665Y00915429D01*
X01020484D01*
X01020219Y00915825D01*
X01018400Y00917041D01*
X01016254Y00917468D01*
X01014108Y00917041D01*
X01012289Y00915825D01*
X01011073Y00914006D01*
X01010646Y00911860D01*
X01011073Y00909714D01*
X01012289Y00907895D01*
X01014108Y00906679D01*
X01016254Y00906252D01*
X01018400Y00906679D01*
X01020219Y00907895D01*
X01020484Y00908291D01*
X01071143D01*
X01072509Y00908563D01*
X01073667Y00909337D01*
X01081550Y00917220D01*
X01082375Y00916668D01*
X01084326Y00916280D01*
X01086277Y00916668D01*
X01087931Y00917773D01*
X01089036Y00919427D01*
X01089424Y00921378D01*
X01089036Y00923329D01*
X01087931Y00924983D01*
X01086277Y00926088D01*
X01084326Y00926476D01*
D02*
G37*
G36*
X01132546Y00923310D02*
X01127546D01*
X01125400Y00922883D01*
X01123581Y00921667D01*
X01122365Y00919848D01*
X01121938Y00917702D01*
X01122365Y00915556D01*
X01123581Y00913737D01*
X01125400Y00912521D01*
X01127546Y00912094D01*
X01132546D01*
X01134692Y00912521D01*
X01136511Y00913737D01*
X01137727Y00915556D01*
X01138154Y00917702D01*
X01137727Y00919848D01*
X01136511Y00921667D01*
X01134692Y00922883D01*
X01132546Y00923310D01*
D02*
G37*
G36*
X01128542Y00930676D02*
X01124433D01*
X01124611Y00929780D01*
X01125827Y00927961D01*
X01127646Y00926745D01*
X01128542Y00926567D01*
Y00930676D01*
D02*
G37*
G36*
X01101746Y00927110D02*
X01097746D01*
X01095600Y00926683D01*
X01093781Y00925467D01*
X01092565Y00923648D01*
X01092138Y00921502D01*
X01092565Y00919356D01*
X01093781Y00917537D01*
X01095600Y00916321D01*
X01097746Y00915894D01*
X01101746D01*
X01103892Y00916321D01*
X01105711Y00917537D01*
X01106927Y00919356D01*
X01107354Y00921502D01*
X01106927Y00923648D01*
X01105711Y00925467D01*
X01103892Y00926683D01*
X01101746Y00927110D01*
D02*
G37*
G36*
X01094212Y00880135D02*
Y00876026D01*
X01098321D01*
X01098143Y00876922D01*
X01096927Y00878741D01*
X01095108Y00879957D01*
X01094212Y00880135D01*
D02*
G37*
G36*
X01098321Y00873526D02*
X01094212D01*
Y00869417D01*
X01095108Y00869595D01*
X01096927Y00870811D01*
X01098143Y00872630D01*
X01098321Y00873526D01*
D02*
G37*
G36*
X01091712D02*
X01087603D01*
X01087781Y00872630D01*
X01088997Y00870811D01*
X01090816Y00869595D01*
X01091712Y00869417D01*
Y00873526D01*
D02*
G37*
G36*
Y00880135D02*
X01090816Y00879957D01*
X01088997Y00878741D01*
X01087781Y00876922D01*
X01087603Y00876026D01*
X01091712D01*
Y00880135D01*
D02*
G37*
G36*
X00907288Y00897398D02*
X00905532Y00897049D01*
X00904044Y00896054D01*
X00903049Y00894566D01*
X00902700Y00892810D01*
X00903049Y00891054D01*
X00903719Y00890051D01*
Y00885852D01*
X00898288D01*
Y00873352D01*
X00916288D01*
Y00885852D01*
X00910857D01*
Y00890051D01*
X00911527Y00891054D01*
X00911876Y00892810D01*
X00911527Y00894566D01*
X00910532Y00896054D01*
X00909044Y00897049D01*
X00907288Y00897398D01*
D02*
G37*
G36*
X00928141Y00753638D02*
X00924032D01*
Y00749529D01*
X00924928Y00749707D01*
X00926747Y00750923D01*
X00927963Y00752742D01*
X00928141Y00753638D01*
D02*
G37*
G36*
X00921532D02*
X00917423D01*
X00917601Y00752742D01*
X00918817Y00750923D01*
X00920636Y00749707D01*
X00921532Y00749529D01*
Y00753638D01*
D02*
G37*
G36*
X01075710Y00756189D02*
X01074872Y00756078D01*
X01072925Y00755272D01*
X01071254Y00753990D01*
X01069972Y00752318D01*
X01069166Y00750372D01*
X01069055Y00749534D01*
X01075710D01*
Y00756189D01*
D02*
G37*
G36*
X00921532Y00760247D02*
X00920636Y00760069D01*
X00918817Y00758853D01*
X00917601Y00757034D01*
X00917423Y00756138D01*
X00921532D01*
Y00760247D01*
D02*
G37*
G36*
X01078210Y00756189D02*
Y00749534D01*
X01084865D01*
X01084754Y00750372D01*
X01083948Y00752318D01*
X01082666Y00753990D01*
X01080994Y00755272D01*
X01079048Y00756078D01*
X01078210Y00756189D01*
D02*
G37*
G36*
X00857524Y00741700D02*
X00853415D01*
X00853593Y00740804D01*
X00854809Y00738985D01*
X00856628Y00737769D01*
X00857524Y00737591D01*
Y00741700D01*
D02*
G37*
G36*
X01038880Y00734101D02*
X01038433Y00734043D01*
X01036852Y00733388D01*
X01035494Y00732346D01*
X01034452Y00730988D01*
X01033797Y00729407D01*
X01033738Y00728960D01*
X01038880D01*
Y00734101D01*
D02*
G37*
G36*
X00864133Y00741700D02*
X00860024D01*
Y00737591D01*
X00860920Y00737769D01*
X00862739Y00738985D01*
X00863955Y00740804D01*
X00864133Y00741700D01*
D02*
G37*
G36*
X00860024Y00748309D02*
Y00744200D01*
X00864133D01*
X00863955Y00745096D01*
X00862739Y00746915D01*
X00860920Y00748131D01*
X00860024Y00748309D01*
D02*
G37*
G36*
X00857524D02*
X00856628Y00748131D01*
X00854809Y00746915D01*
X00853593Y00745096D01*
X00853415Y00744200D01*
X00857524D01*
Y00748309D01*
D02*
G37*
G36*
X01073912Y00831866D02*
X01072156Y00831517D01*
X01070668Y00830522D01*
X01069673Y00829034D01*
X01069380Y00827562D01*
X01043178D01*
X01043178Y00827562D01*
X01042097Y00827347D01*
X01041181Y00826735D01*
X01041181Y00826735D01*
X01029195Y00814750D01*
X01028700Y00814848D01*
X01026944Y00814499D01*
X01025456Y00813504D01*
X01024461Y00812016D01*
X01024112Y00810260D01*
X01024461Y00808504D01*
X01024625Y00808258D01*
X01023947Y00806988D01*
X00969010D01*
X00969010Y00806988D01*
X00967929Y00806773D01*
X00967013Y00806161D01*
X00967013Y00806161D01*
X00959647Y00798795D01*
X00959035Y00797879D01*
X00958820Y00796798D01*
X00958820Y00796798D01*
Y00795074D01*
X00955644D01*
Y00785074D01*
X00967644D01*
Y00795074D01*
X00965710D01*
X00965184Y00796344D01*
X00970180Y00801340D01*
X01025071D01*
X01025530Y00800086D01*
X01024935Y00799368D01*
X01023232D01*
X01022151Y00799153D01*
X01021235Y00798541D01*
X01017768Y00795074D01*
X01010762D01*
Y00785074D01*
X01022762D01*
Y00792080D01*
X01024049Y00793367D01*
X01025456Y00793300D01*
X01026944Y00792305D01*
X01028700Y00791956D01*
X01030456Y00792305D01*
X01031944Y00793300D01*
X01032939Y00794788D01*
X01033288Y00796544D01*
X01032939Y00798300D01*
X01031944Y00799788D01*
X01031523Y00800070D01*
X01031908Y00801340D01*
X01035050D01*
X01035050Y00801340D01*
X01036131Y00801555D01*
X01037047Y00802167D01*
X01042825Y00807945D01*
X01043996Y00807319D01*
X01043924Y00806958D01*
X01044241Y00805365D01*
X01043992Y00804834D01*
X01043459Y00804135D01*
X01041930Y00803831D01*
X01040442Y00802836D01*
X01039447Y00801348D01*
X01039098Y00799592D01*
X01039447Y00797836D01*
X01040442Y00796348D01*
X01041930Y00795353D01*
X01043686Y00795004D01*
X01045442Y00795353D01*
X01046930Y00796348D01*
X01047381Y00797022D01*
X01071657D01*
X01071938Y00796602D01*
X01073426Y00795607D01*
X01075182Y00795258D01*
X01075677Y00795356D01*
X01118143Y00752891D01*
X01119059Y00752279D01*
X01120140Y00752064D01*
X01120140Y00752064D01*
X01127482D01*
X01127670Y00751610D01*
X01128712Y00750252D01*
X01130070Y00749210D01*
X01131651Y00748555D01*
X01133348Y00748332D01*
X01135045Y00748555D01*
X01136626Y00749210D01*
X01137984Y00750252D01*
X01139026Y00751610D01*
X01139681Y00753191D01*
X01139904Y00754888D01*
X01139681Y00756585D01*
X01139026Y00758166D01*
X01137984Y00759524D01*
X01136740Y00760478D01*
X01136681Y00761001D01*
X01136789Y00761873D01*
X01136880Y00761910D01*
X01138238Y00762952D01*
X01139280Y00764310D01*
X01139935Y00765891D01*
X01140158Y00767588D01*
X01139935Y00769285D01*
X01139280Y00770866D01*
X01138238Y00772224D01*
X01136880Y00773266D01*
X01135299Y00773921D01*
X01133602Y00774144D01*
X01131905Y00773921D01*
X01130324Y00773266D01*
X01128966Y00772224D01*
X01127924Y00770866D01*
X01127736Y00770412D01*
X01116770D01*
X01077769Y00809413D01*
X01076902Y00810710D01*
X01075781Y00811459D01*
X01075732Y00811615D01*
Y00812715D01*
X01075781Y00812871D01*
X01076902Y00813620D01*
X01077897Y00815108D01*
X01078246Y00816864D01*
X01077897Y00818620D01*
X01076902Y00820108D01*
X01075414Y00821103D01*
X01073711Y00821442D01*
X01073687Y00821480D01*
X01073912Y00822690D01*
X01075668Y00823039D01*
X01077156Y00824034D01*
X01078151Y00825522D01*
X01078500Y00827278D01*
X01078151Y00829034D01*
X01077156Y00830522D01*
X01075668Y00831517D01*
X01073912Y00831866D01*
D02*
G37*
G36*
X00931298Y00812562D02*
X00925048D01*
Y00807312D01*
X00931298D01*
Y00812562D01*
D02*
G37*
G36*
X00843300Y00844316D02*
X00839191D01*
X00839369Y00843420D01*
X00840585Y00841601D01*
X00842404Y00840385D01*
X00843300Y00840207D01*
Y00844316D01*
D02*
G37*
G36*
X00947506Y00850412D02*
X00938256D01*
Y00843912D01*
X00947506D01*
Y00850412D01*
D02*
G37*
G36*
X00849909Y00844316D02*
X00845800D01*
Y00840207D01*
X00846696Y00840385D01*
X00848515Y00841601D01*
X00849731Y00843420D01*
X00849909Y00844316D01*
D02*
G37*
G36*
X00853714Y00763544D02*
X00849605D01*
X00849783Y00762648D01*
X00850999Y00760829D01*
X00852818Y00759613D01*
X00853714Y00759435D01*
Y00763544D01*
D02*
G37*
G36*
X00924032Y00760247D02*
Y00756138D01*
X00928141D01*
X00927963Y00757034D01*
X00926747Y00758853D01*
X00924928Y00760069D01*
X00924032Y00760247D01*
D02*
G37*
G36*
X00860323Y00763544D02*
X00856214D01*
Y00759435D01*
X00857110Y00759613D01*
X00858929Y00760829D01*
X00860145Y00762648D01*
X00860323Y00763544D01*
D02*
G37*
G36*
X00856214Y00770153D02*
Y00766044D01*
X00860323D01*
X00860145Y00766940D01*
X00858929Y00768759D01*
X00857110Y00769975D01*
X00856214Y00770153D01*
D02*
G37*
G36*
X00853714D02*
X00852818Y00769975D01*
X00850999Y00768759D01*
X00849783Y00766940D01*
X00849605Y00766044D01*
X00853714D01*
Y00770153D01*
D02*
G37*
G36*
X01139718Y00963955D02*
X01138822Y00963777D01*
X01137003Y00962561D01*
X01136086Y00961189D01*
X01136070Y00961183D01*
X01134689D01*
X01134674Y00961189D01*
X01133757Y00962561D01*
X01131938Y00963777D01*
X01131042Y00963955D01*
Y00958596D01*
Y00953237D01*
X01131938Y00953415D01*
X01133757Y00954631D01*
X01134674Y00956003D01*
X01134689Y00956009D01*
X01136070D01*
X01136086Y00956003D01*
X01137003Y00954631D01*
X01138822Y00953415D01*
X01139718Y00953237D01*
Y00958596D01*
Y00963955D01*
D02*
G37*
G36*
X00840765Y00965220D02*
X00836656D01*
Y00961111D01*
X00837552Y00961289D01*
X00839371Y00962505D01*
X00840587Y00964324D01*
X00840765Y00965220D01*
D02*
G37*
G36*
X00848634Y00965982D02*
X00844525D01*
X00844703Y00965086D01*
X00845919Y00963267D01*
X00847738Y00962051D01*
X00848634Y00961873D01*
Y00965982D01*
D02*
G37*
G36*
X01101746Y00975610D02*
X01097746D01*
X01095600Y00975183D01*
X01093781Y00973967D01*
X01092565Y00972148D01*
X01092138Y00970002D01*
X01092565Y00967856D01*
X01093781Y00966037D01*
X01095600Y00964821D01*
X01097746Y00964394D01*
X01101746D01*
X01103892Y00964821D01*
X01105711Y00966037D01*
X01106927Y00967856D01*
X01107354Y00970002D01*
X01106927Y00972148D01*
X01105711Y00973967D01*
X01103892Y00975183D01*
X01101746Y00975610D01*
D02*
G37*
G36*
X00855243Y00965982D02*
X00851134D01*
Y00961873D01*
X00852030Y00962051D01*
X00853849Y00963267D01*
X00855065Y00965086D01*
X00855243Y00965982D01*
D02*
G37*
G36*
X01142218Y00963955D02*
Y00959846D01*
X01146327D01*
X01146149Y00960742D01*
X01144933Y00962561D01*
X01143114Y00963777D01*
X01142218Y00963955D01*
D02*
G37*
G36*
X01128542D02*
X01127646Y00963777D01*
X01125827Y00962561D01*
X01124611Y00960742D01*
X01124433Y00959846D01*
X01128542D01*
Y00963955D01*
D02*
G37*
G36*
X00820948Y00964458D02*
X00816839D01*
X00817017Y00963562D01*
X00818233Y00961743D01*
X00820052Y00960527D01*
X00820948Y00960349D01*
Y00964458D01*
D02*
G37*
G36*
X00834156Y00965220D02*
X00830047D01*
X00830225Y00964324D01*
X00831441Y00962505D01*
X00833260Y00961289D01*
X00834156Y00961111D01*
Y00965220D01*
D02*
G37*
G36*
X00827557Y00964458D02*
X00823448D01*
Y00960349D01*
X00824344Y00960527D01*
X00826163Y00961743D01*
X00827379Y00963562D01*
X00827557Y00964458D01*
D02*
G37*
G36*
X00820948Y00983005D02*
X00820052Y00982827D01*
X00818233Y00981611D01*
X00817017Y00979792D01*
X00816839Y00978896D01*
X00820948D01*
Y00983005D01*
D02*
G37*
G36*
X00836148Y00982751D02*
Y00978642D01*
X00840257D01*
X00840079Y00979538D01*
X00838863Y00981357D01*
X00837044Y00982573D01*
X00836148Y00982751D01*
D02*
G37*
G36*
X00823448Y00983005D02*
Y00978896D01*
X00827557D01*
X00827379Y00979792D01*
X00826163Y00981611D01*
X00824344Y00982827D01*
X00823448Y00983005D01*
D02*
G37*
G36*
X00850372D02*
Y00978896D01*
X00854481D01*
X00854303Y00979792D01*
X00853087Y00981611D01*
X00851268Y00982827D01*
X00850372Y00983005D01*
D02*
G37*
G36*
X00847872D02*
X00846976Y00982827D01*
X00845157Y00981611D01*
X00843941Y00979792D01*
X00843763Y00978896D01*
X00847872D01*
Y00983005D01*
D02*
G37*
G36*
X00840257Y00976142D02*
X00829539D01*
X00829717Y00975246D01*
X00830933Y00973427D01*
X00832282Y00972525D01*
X00832403Y00971158D01*
X00832369Y00971056D01*
X00831441Y00970435D01*
X00830225Y00968616D01*
X00830047Y00967720D01*
X00840765D01*
X00840587Y00968616D01*
X00839371Y00970435D01*
X00838022Y00971337D01*
X00837901Y00972704D01*
X00837935Y00972806D01*
X00838863Y00973427D01*
X00840079Y00975246D01*
X00840257Y00976142D01*
D02*
G37*
G36*
X00827557Y00976396D02*
X00816839D01*
X00817017Y00975500D01*
X00818233Y00973681D01*
X00820052Y00972465D01*
X00820759Y00972324D01*
Y00971030D01*
X00820052Y00970889D01*
X00818233Y00969673D01*
X00817017Y00967854D01*
X00816839Y00966958D01*
X00827557D01*
X00827379Y00967854D01*
X00826163Y00969673D01*
X00824344Y00970889D01*
X00823637Y00971030D01*
Y00972324D01*
X00824344Y00972465D01*
X00826163Y00973681D01*
X00827379Y00975500D01*
X00827557Y00976396D01*
D02*
G37*
G36*
X01132546Y00979410D02*
X01127546D01*
X01125400Y00978983D01*
X01123581Y00977767D01*
X01122365Y00975948D01*
X01121938Y00973802D01*
X01122365Y00971656D01*
X01123581Y00969837D01*
X01125400Y00968621D01*
X01127546Y00968194D01*
X01132546D01*
X01134692Y00968621D01*
X01136511Y00969837D01*
X01137727Y00971656D01*
X01138154Y00973802D01*
X01137727Y00975948D01*
X01136511Y00977767D01*
X01134692Y00978983D01*
X01132546Y00979410D01*
D02*
G37*
G36*
X00833648Y00982751D02*
X00832752Y00982573D01*
X00830933Y00981357D01*
X00829717Y00979538D01*
X00829539Y00978642D01*
X00833648D01*
Y00982751D01*
D02*
G37*
G36*
X00854481Y00976396D02*
X00843763D01*
X00843941Y00975500D01*
X00845157Y00973681D01*
X00846253Y00972948D01*
Y00971421D01*
X00845919Y00971197D01*
X00844703Y00969378D01*
X00844525Y00968482D01*
X00855243D01*
X00855065Y00969378D01*
X00853849Y00971197D01*
X00852753Y00971930D01*
Y00973457D01*
X00853087Y00973681D01*
X00854303Y00975500D01*
X00854481Y00976396D01*
D02*
G37*
G36*
X00870986Y00946424D02*
X00866877D01*
X00867055Y00945528D01*
X00868271Y00943709D01*
X00870090Y00942493D01*
X00870986Y00942315D01*
Y00946424D01*
D02*
G37*
G36*
X01146327Y00944011D02*
X01142218D01*
Y00939902D01*
X01143114Y00940080D01*
X01144933Y00941296D01*
X01146149Y00943115D01*
X01146327Y00944011D01*
D02*
G37*
G36*
X00877595Y00946424D02*
X00873486D01*
Y00942315D01*
X00874382Y00942493D01*
X00876201Y00943709D01*
X00877417Y00945528D01*
X00877595Y00946424D01*
D02*
G37*
G36*
X01128542Y00950620D02*
X01127646Y00950442D01*
X01125827Y00949226D01*
X01124611Y00947407D01*
X01124433Y00946511D01*
X01128542D01*
Y00950620D01*
D02*
G37*
G36*
X00800882Y00947694D02*
X00796773D01*
X00796951Y00946798D01*
X00798167Y00944979D01*
X00799986Y00943763D01*
X00800882Y00943585D01*
Y00947694D01*
D02*
G37*
G36*
X01128542Y00937285D02*
X01127646Y00937107D01*
X01125827Y00935891D01*
X01124611Y00934072D01*
X01124433Y00933176D01*
X01128542D01*
Y00937285D01*
D02*
G37*
G36*
X01146327Y00930676D02*
X01142218D01*
Y00926567D01*
X01143114Y00926745D01*
X01144933Y00927961D01*
X01146149Y00929780D01*
X01146327Y00930676D01*
D02*
G37*
G36*
X01142218Y00937285D02*
Y00933176D01*
X01146327D01*
X01146149Y00934072D01*
X01144933Y00935891D01*
X01143114Y00937107D01*
X01142218Y00937285D01*
D02*
G37*
G36*
X01128542Y00944011D02*
X01124433D01*
X01124611Y00943115D01*
X01125827Y00941296D01*
X01127646Y00940080D01*
X01128542Y00939902D01*
Y00944011D01*
D02*
G37*
G36*
X01139718Y00937285D02*
X01138822Y00937107D01*
X01137003Y00935891D01*
X01136086Y00934519D01*
X01136070Y00934513D01*
X01134689D01*
X01134674Y00934519D01*
X01133757Y00935891D01*
X01131938Y00937107D01*
X01131042Y00937285D01*
Y00931926D01*
Y00926567D01*
X01131938Y00926745D01*
X01133757Y00927961D01*
X01134674Y00929333D01*
X01134689Y00929339D01*
X01136070D01*
X01136086Y00929333D01*
X01137003Y00927961D01*
X01138822Y00926745D01*
X01139718Y00926567D01*
Y00931926D01*
Y00937285D01*
D02*
G37*
G36*
X00800882Y00954303D02*
X00799986Y00954125D01*
X00798167Y00952909D01*
X00796951Y00951090D01*
X00796773Y00950194D01*
X00800882D01*
Y00954303D01*
D02*
G37*
G36*
X00815320Y00954811D02*
Y00949452D01*
X00812820D01*
Y00954811D01*
X00811924Y00954633D01*
X00810105Y00953417D01*
X00808889Y00951598D01*
X00808698Y00950637D01*
X00807403D01*
X00807313Y00951090D01*
X00806097Y00952909D01*
X00804278Y00954125D01*
X00803382Y00954303D01*
Y00948944D01*
Y00943585D01*
X00804278Y00943763D01*
X00806097Y00944979D01*
X00807313Y00946798D01*
X00807504Y00947759D01*
X00808799D01*
X00808889Y00947306D01*
X00810105Y00945487D01*
X00811089Y00944829D01*
X00811263Y00943206D01*
X00802770Y00934714D01*
X00801370Y00934992D01*
X00799419Y00934604D01*
X00797765Y00933499D01*
X00796660Y00931845D01*
X00796272Y00929894D01*
X00796660Y00927943D01*
X00797765Y00926289D01*
X00799419Y00925184D01*
X00801370Y00924796D01*
X00801830Y00924887D01*
X00802910Y00923807D01*
X00802864Y00923576D01*
X00802864Y00923576D01*
Y00819920D01*
X00801594Y00819345D01*
X00800214Y00820267D01*
X00799318Y00820445D01*
Y00815086D01*
Y00809727D01*
X00800214Y00809905D01*
X00802033Y00811121D01*
X00802451Y00811746D01*
X00803893Y00811617D01*
X00815505Y00800005D01*
X00815322Y00799084D01*
X00815710Y00797133D01*
X00816815Y00795479D01*
X00818469Y00794374D01*
X00820420Y00793986D01*
X00821945Y00794289D01*
X00823081Y00793660D01*
X00823283Y00793456D01*
X00823418Y00792771D01*
X00823039Y00792204D01*
X00822690Y00790448D01*
X00823039Y00788692D01*
X00824034Y00787204D01*
X00825522Y00786209D01*
X00827278Y00785860D01*
X00829034Y00786209D01*
X00830522Y00787204D01*
X00830987Y00787899D01*
X00853440D01*
X00854416Y00788093D01*
X00855242Y00788646D01*
X00860068Y00793472D01*
X00860621Y00794299D01*
X00860815Y00795274D01*
Y00836674D01*
X00862085Y00837059D01*
X00862642Y00836226D01*
X00864130Y00835231D01*
X00865314Y00834996D01*
X00892289Y00808020D01*
Y00768516D01*
X00891893Y00768251D01*
X00890677Y00766432D01*
X00890250Y00764286D01*
X00890677Y00762140D01*
X00891893Y00760321D01*
X00893712Y00759105D01*
X00895858Y00758678D01*
X00898004Y00759105D01*
X00899823Y00760321D01*
X00900365Y00761132D01*
X00901309Y00761763D01*
X00945562Y00806015D01*
X00946030Y00805922D01*
X00948176Y00806349D01*
X00949995Y00807565D01*
X00951211Y00809384D01*
X00951638Y00811530D01*
X00951211Y00813676D01*
X00949995Y00815495D01*
X00948176Y00816711D01*
X00946030Y00817138D01*
X00943884Y00816711D01*
X00942065Y00815495D01*
X00940849Y00813676D01*
X00940422Y00811530D01*
X00940515Y00811062D01*
X00932471Y00803018D01*
X00931298Y00803504D01*
Y00804812D01*
X00925048D01*
Y00799562D01*
X00927356D01*
X00927842Y00798389D01*
X00900600Y00771147D01*
X00899427Y00771633D01*
Y00808897D01*
X00900697Y00809423D01*
X00904082Y00806037D01*
Y00801062D01*
X00916082D01*
X00916298Y00799882D01*
Y00799562D01*
X00922548D01*
Y00806062D01*
Y00812562D01*
X00916298D01*
Y00812243D01*
X00916082Y00811062D01*
X00906267D01*
X00869452Y00847876D01*
X00868625Y00848429D01*
X00867650Y00848623D01*
X00862330D01*
X00861355Y00848429D01*
X00860528Y00847876D01*
X00856464Y00843812D01*
X00855911Y00842986D01*
X00855717Y00842010D01*
Y00796330D01*
X00852384Y00792997D01*
X00830987D01*
X00830847Y00793207D01*
Y00795471D01*
X00830989Y00796184D01*
Y00803260D01*
X00830717Y00804626D01*
X00829943Y00805783D01*
X00824497Y00811230D01*
Y00821471D01*
X00825167Y00822474D01*
X00825516Y00824230D01*
X00825167Y00825986D01*
X00824172Y00827474D01*
X00822684Y00828469D01*
X00821500Y00828704D01*
X00814337Y00835868D01*
Y00879190D01*
X00815607Y00879576D01*
X00815693Y00879447D01*
X00817512Y00878231D01*
X00818408Y00878053D01*
Y00883412D01*
Y00888771D01*
X00817512Y00888593D01*
X00815693Y00887377D01*
X00815607Y00887248D01*
X00814337Y00887634D01*
Y00919018D01*
X00821754Y00926436D01*
X00821904Y00926465D01*
X00821974Y00926455D01*
X00823138Y00925416D01*
Y00889048D01*
X00822018Y00888450D01*
X00821804Y00888593D01*
X00820908Y00888771D01*
Y00883412D01*
Y00878053D01*
X00821804Y00878231D01*
X00822018Y00878374D01*
X00823138Y00877775D01*
Y00845711D01*
X00821479Y00844051D01*
X00821436Y00844060D01*
X00819485Y00843672D01*
X00817831Y00842567D01*
X00816726Y00840913D01*
X00816338Y00838962D01*
X00816726Y00837011D01*
X00817831Y00835357D01*
X00819485Y00834252D01*
X00821436Y00833864D01*
X00823387Y00834252D01*
X00825041Y00835357D01*
X00826146Y00837011D01*
X00826534Y00838962D01*
X00826525Y00839005D01*
X00828537Y00841016D01*
X00829807Y00840490D01*
Y00811538D01*
X00829807Y00811538D01*
X00830040Y00810367D01*
X00830703Y00809375D01*
X00832866Y00807212D01*
Y00804153D01*
X00832866Y00804153D01*
X00833099Y00802983D01*
X00833762Y00801990D01*
X00835941Y00799811D01*
X00835898Y00799592D01*
X00836247Y00797836D01*
X00837242Y00796348D01*
X00838730Y00795353D01*
X00840486Y00795004D01*
X00842242Y00795353D01*
X00843730Y00796348D01*
X00844725Y00797836D01*
X00845074Y00799592D01*
X00844725Y00801348D01*
X00843730Y00802836D01*
X00842242Y00803831D01*
X00840486Y00804180D01*
X00840267Y00804137D01*
X00838984Y00805420D01*
Y00808479D01*
X00838751Y00809650D01*
X00838088Y00810642D01*
X00838088Y00810642D01*
X00835925Y00812805D01*
Y00871515D01*
X00837195Y00872041D01*
X00842299Y00866937D01*
X00843215Y00866325D01*
X00844296Y00866110D01*
X00852201D01*
X00852482Y00865690D01*
X00853970Y00864695D01*
X00855726Y00864346D01*
X00857482Y00864695D01*
X00858970Y00865690D01*
X00859965Y00867178D01*
X00860314Y00868934D01*
X00859965Y00870690D01*
X00859316Y00871661D01*
X00859945Y00872081D01*
X00861161Y00873900D01*
X00861339Y00874796D01*
X00855980D01*
Y00877296D01*
X00861339D01*
X00861161Y00878192D01*
X00859945Y00880011D01*
X00859106Y00880572D01*
Y00881842D01*
X00859544Y00882134D01*
X00860870Y00884119D01*
X00861336Y00886460D01*
X00860870Y00888801D01*
X00859544Y00890786D01*
X00857559Y00892112D01*
X00855218Y00892578D01*
X00852877Y00892112D01*
X00850892Y00890786D01*
X00849566Y00888801D01*
X00849502Y00888480D01*
X00848016Y00887517D01*
X00846836Y00887751D01*
X00846257Y00887636D01*
X00845493Y00888779D01*
X00845995Y00889530D01*
X00846344Y00891286D01*
X00845995Y00893042D01*
X00845000Y00894530D01*
X00843512Y00895525D01*
X00841756Y00895874D01*
X00840000Y00895525D01*
X00838512Y00894530D01*
X00837517Y00893042D01*
X00837195Y00891421D01*
X00835925Y00891546D01*
Y00919229D01*
X00838743Y00922047D01*
X00838962Y00922004D01*
X00840718Y00922353D01*
X00842206Y00923348D01*
X00843147Y00924756D01*
X00843367Y00924948D01*
X00844429Y00925270D01*
X00863897Y00905802D01*
Y00859988D01*
X00864169Y00858622D01*
X00864943Y00857465D01*
X00887493Y00834915D01*
X00888650Y00834141D01*
X00890016Y00833869D01*
X00898288D01*
Y00831188D01*
X00916216D01*
X00916337Y00831178D01*
X00917459Y00830950D01*
X00917781Y00829332D01*
X00918776Y00827844D01*
X00919541Y00827332D01*
X00919156Y00826062D01*
X00917798D01*
Y00824631D01*
X00916082D01*
Y00826062D01*
X00904082D01*
Y00816062D01*
X00916082D01*
Y00817493D01*
X00917798D01*
Y00816062D01*
X00929798D01*
Y00826062D01*
X00927366D01*
Y00829310D01*
X00927114Y00830582D01*
X00927170Y00830657D01*
X00928493Y00830999D01*
X00937665Y00821827D01*
X00938822Y00821053D01*
X00940188Y00820781D01*
X00983838D01*
Y00819350D01*
X00995838D01*
Y00820527D01*
X01011270D01*
Y00819096D01*
X01023270D01*
Y00820788D01*
X01023328Y00820799D01*
X01024485Y00821573D01*
X01031985Y00829073D01*
X01032759Y00830230D01*
X01033031Y00831596D01*
Y00859624D01*
X01032759Y00860990D01*
X01031985Y00862147D01*
X01026016Y00868117D01*
Y00868315D01*
X01028400Y00870699D01*
X01043864D01*
X01044543Y00869429D01*
X01044236Y00868971D01*
X01043926Y00867410D01*
X01044236Y00865849D01*
X01045120Y00864526D01*
X01045180Y00864486D01*
Y00861994D01*
X01043910Y00861316D01*
X01043215Y00861780D01*
X01041654Y00862090D01*
X01040093Y00861780D01*
X01038770Y00860896D01*
X01037886Y00859573D01*
X01037576Y00858012D01*
X01037886Y00856451D01*
X01038068Y00856179D01*
Y00847821D01*
X01037648Y00847540D01*
X01036653Y00846052D01*
X01036304Y00844296D01*
X01036653Y00842540D01*
X01037648Y00841052D01*
X01039136Y00840057D01*
X01040892Y00839708D01*
X01042648Y00840057D01*
X01043910Y00840900D01*
X01044738Y00840640D01*
X01045002Y00840459D01*
X01044963Y00839184D01*
X01044724Y00839137D01*
X01043236Y00838142D01*
X01042241Y00836654D01*
X01041892Y00834898D01*
X01042241Y00833142D01*
X01043236Y00831654D01*
X01044724Y00830659D01*
X01046480Y00830310D01*
X01048236Y00830659D01*
X01049724Y00831654D01*
X01050719Y00833142D01*
X01051068Y00834898D01*
X01050797Y00836263D01*
X01050828Y00836422D01*
X01050828Y00836422D01*
Y00864486D01*
X01050888Y00864526D01*
X01051772Y00865849D01*
X01052082Y00867410D01*
X01051772Y00868971D01*
X01051465Y00869429D01*
X01052144Y00870699D01*
X01063798D01*
X01070175Y00864322D01*
X01070082Y00863854D01*
X01070509Y00861708D01*
X01071124Y00860788D01*
X01071489Y00859704D01*
X01070800Y00859161D01*
X01069693Y00858421D01*
X01068477Y00856602D01*
X01068299Y00855706D01*
X01079017D01*
X01078839Y00856602D01*
X01078224Y00857522D01*
X01077859Y00858606D01*
X01078548Y00859149D01*
X01079655Y00859889D01*
X01080871Y00861708D01*
X01081298Y00863854D01*
X01080871Y00866000D01*
X01079655Y00867819D01*
X01077836Y00869035D01*
X01075690Y00869462D01*
X01075222Y00869369D01*
X01067799Y00876791D01*
X01066642Y00877565D01*
X01065276Y00877837D01*
X01026922D01*
X01025556Y00877565D01*
X01024399Y00876791D01*
X01019489Y00871882D01*
X01009576D01*
X01009050Y00873152D01*
X01011483Y00875585D01*
X01012735Y00875834D01*
X01014058Y00876718D01*
X01014942Y00878041D01*
X01015252Y00879602D01*
X01014942Y00881163D01*
X01014058Y00882486D01*
X01012735Y00883370D01*
X01011174Y00883680D01*
X01009613Y00883370D01*
X01008552Y00882661D01*
X00946006D01*
Y00885852D01*
X00928006D01*
Y00873352D01*
X00946006D01*
Y00876543D01*
X01002130D01*
X01002616Y00875370D01*
X01001914Y00874668D01*
X01001590Y00874344D01*
X01001590Y00874344D01*
X01001391Y00874145D01*
X01001105Y00873717D01*
X01001105Y00873717D01*
X00999946Y00873382D01*
X00991596D01*
Y00865632D01*
X00990346D01*
Y00864382D01*
X00979846D01*
Y00857882D01*
X00981346D01*
Y00845412D01*
X00983336D01*
X00983838Y00844350D01*
Y00834350D01*
X00995838D01*
Y00844350D01*
X00996340Y00845412D01*
X00999346D01*
Y00848218D01*
X01000616Y00848604D01*
X01001178Y00847762D01*
X01002501Y00846878D01*
X01004062Y00846568D01*
X01005623Y00846878D01*
X01006684Y00847587D01*
X01008016D01*
Y00845412D01*
X01013957D01*
Y00844096D01*
X01011270D01*
Y00834096D01*
X01023270D01*
Y00844096D01*
X01020075D01*
Y00845412D01*
X01025893D01*
Y00833074D01*
X01021915Y00829096D01*
X01011270D01*
Y00827665D01*
X00995838D01*
Y00829350D01*
X00983838D01*
Y00827919D01*
X00941666D01*
X00926943Y00842642D01*
X00927469Y00843912D01*
X00935756D01*
Y00850412D01*
X00926506D01*
Y00845937D01*
X00925236Y00845271D01*
X00924827Y00845554D01*
Y00856996D01*
X00924555Y00858362D01*
X00923781Y00859519D01*
X00916288Y00867013D01*
Y00871882D01*
X00898288D01*
Y00869201D01*
X00885652D01*
X00881266Y00873587D01*
Y00913511D01*
X00880994Y00914877D01*
X00880220Y00916034D01*
X00855614Y00940641D01*
X00856234Y00941812D01*
X00858380Y00942239D01*
X00860199Y00943455D01*
X00861415Y00945274D01*
X00861593Y00946170D01*
X00856234D01*
Y00947420D01*
X00854984D01*
Y00952779D01*
X00854088Y00952601D01*
X00852269Y00951385D01*
X00851053Y00949566D01*
X00850626Y00947420D01*
X00849455Y00946800D01*
X00848597Y00947657D01*
X00847440Y00948431D01*
X00846074Y00948703D01*
X00820293D01*
X00819678Y00949452D01*
X00819251Y00951598D01*
X00818035Y00953417D01*
X00816216Y00954633D01*
X00815320Y00954811D01*
D02*
G37*
G36*
X00837184Y00958101D02*
X00827635D01*
X00826270Y00957829D01*
X00825112Y00957055D01*
X00824338Y00955898D01*
X00824067Y00954532D01*
X00824338Y00953166D01*
X00825112Y00952009D01*
X00826270Y00951235D01*
X00827635Y00950963D01*
X00837184D01*
X00838550Y00951235D01*
X00839707Y00952009D01*
X00840481Y00953166D01*
X00840753Y00954532D01*
X00840481Y00955898D01*
X00839707Y00957055D01*
X00838550Y00957829D01*
X00837184Y00958101D01*
D02*
G37*
G36*
X01146327Y00957346D02*
X01142218D01*
Y00953237D01*
X01143114Y00953415D01*
X01144933Y00954631D01*
X01146149Y00956450D01*
X01146327Y00957346D01*
D02*
G37*
G36*
X01128542D02*
X01124433D01*
X01124611Y00956450D01*
X01125827Y00954631D01*
X01127646Y00953415D01*
X01128542Y00953237D01*
Y00957346D01*
D02*
G37*
G36*
X01139718Y00950620D02*
X01138822Y00950442D01*
X01137003Y00949226D01*
X01136086Y00947854D01*
X01136070Y00947848D01*
X01134689D01*
X01134674Y00947854D01*
X01133757Y00949226D01*
X01131938Y00950442D01*
X01131042Y00950620D01*
Y00945261D01*
Y00939902D01*
X01131938Y00940080D01*
X01133757Y00941296D01*
X01134674Y00942668D01*
X01134689Y00942674D01*
X01136070D01*
X01136086Y00942668D01*
X01137003Y00941296D01*
X01138822Y00940080D01*
X01139718Y00939902D01*
Y00945261D01*
Y00950620D01*
D02*
G37*
G36*
X01142218D02*
Y00946511D01*
X01146327D01*
X01146149Y00947407D01*
X01144933Y00949226D01*
X01143114Y00950442D01*
X01142218Y00950620D01*
D02*
G37*
G36*
X00857484Y00952779D02*
Y00948670D01*
X00861593D01*
X00861415Y00949566D01*
X00860199Y00951385D01*
X00858380Y00952601D01*
X00857484Y00952779D01*
D02*
G37*
G36*
X00873486Y00953033D02*
Y00948924D01*
X00877595D01*
X00877417Y00949820D01*
X00876201Y00951639D01*
X00874382Y00952855D01*
X00873486Y00953033D01*
D02*
G37*
G36*
X00870986D02*
X00870090Y00952855D01*
X00868271Y00951639D01*
X00867055Y00949820D01*
X00866877Y00948924D01*
X00870986D01*
Y00953033D01*
D02*
G37*
%LPD*%
D10*
X00923798Y00806062D02*
D03*
Y00821062D02*
D03*
X00910082Y00821062D02*
D03*
Y00806062D02*
D03*
X01016762Y00775074D02*
D03*
Y00790074D02*
D03*
X00961644Y00775074D02*
D03*
Y00790074D02*
D03*
X00989838Y00824350D02*
D03*
Y00839350D02*
D03*
X01017270Y00824096D02*
D03*
Y00839096D02*
D03*
D24*
X01017016Y00851662D02*
D03*
X00990346D02*
D03*
Y00865632D02*
D03*
X00907288Y00879602D02*
D03*
X00937006D02*
D03*
Y00865632D02*
D03*
Y00851662D02*
D03*
X00907288Y00837438D02*
D03*
Y00851662D02*
D03*
Y00865632D02*
D03*
X01017016D02*
D03*
D35*
X00888238Y00850646D02*
X00906272D01*
X00872236Y00866648D02*
X00888238Y00850646D01*
X00872236Y00866648D02*
Y00910590D01*
X00844296Y00938530D02*
X00872236Y00910590D01*
X00838454Y00886758D02*
X00842982Y00891286D01*
X00844296Y00868934D02*
X00855726D01*
X00838454Y00874776D02*
X00844296Y00868934D01*
X00838454Y00874776D02*
Y00886758D01*
X00842982Y00891286D02*
X00843004Y00891308D01*
X01042924Y00749046D02*
X01064768Y00727202D01*
X01114044D01*
X01065276Y00739648D02*
X01113536D01*
X01040892Y00844296D02*
Y00857250D01*
X01041654Y00858012D01*
X01048004Y00836422D02*
Y00867410D01*
X01046480Y00834898D02*
X01048004Y00836422D01*
X00841756Y00891286D02*
X00842982D01*
X00906272Y00850646D02*
X00907288Y00851662D01*
X01028446Y00796290D02*
X01028700Y00796544D01*
X01069618Y00812824D02*
X01073658Y00816864D01*
X01048512Y00806958D02*
Y00807974D01*
X01049020Y00808482D01*
X00843534Y00752348D02*
Y00765556D01*
X00831088Y00739902D02*
X00843534Y00752348D01*
X00831088Y00730758D02*
Y00739902D01*
X00947750Y00752500D02*
X00952678Y00757428D01*
X01148588Y00822198D02*
Y00826784D01*
X01139324Y00836048D02*
X01148588Y00826784D01*
X01049020Y00808482D02*
X01072134D01*
X01043940Y00799846D02*
X01075182D01*
X01043686Y00799592D02*
X01043940Y00799846D01*
X01073658Y00807466D02*
X01075722D01*
X01115600Y00767588D01*
X01133602D01*
X01120140Y00754888D02*
X01133348D01*
X01075182Y00799846D02*
X01120140Y00754888D01*
X01047663Y00867410D02*
X01048004D01*
X00952678Y00757428D02*
X01047496D01*
X01065276Y00739648D01*
X00960120Y00749046D02*
X01042924D01*
X01016508Y00764540D02*
Y00774820D01*
X01016762Y00775074D01*
X00962660Y00765810D02*
Y00774058D01*
X00961644Y00775074D02*
X00962660Y00774058D01*
X00961644Y00790074D02*
Y00796798D01*
X01016762Y00790074D02*
X01023232Y00796544D01*
X01028700D01*
X01071372Y00824738D02*
X01073912Y00827278D01*
X00805688Y00813816D02*
X00820420Y00799084D01*
X00820642Y00938530D02*
X00844296D01*
X00805688Y00923576D02*
X00820642Y00938530D01*
X00805688Y00813816D02*
Y00923576D01*
X01043710Y00812824D02*
X01069618D01*
X01028700Y00810260D02*
X01043178Y00824738D01*
X01071372D01*
X01035050Y00804164D02*
X01043710Y00812824D01*
X00961644Y00796798D02*
X00969010Y00804164D01*
X01035050D01*
D36*
X00835925Y00804153D02*
X00840486Y00799592D01*
X00835925Y00804153D02*
Y00808479D01*
X00832866Y00811538D02*
X00835925Y00808479D01*
X00832866Y00811538D02*
Y00920496D01*
X00838962Y00926592D01*
X01017016Y00839350D02*
X01017270Y00839096D01*
X01017016Y00839350D02*
Y00851662D01*
X00989838Y00851154D02*
X00996792D01*
X01003554Y00857916D01*
Y00871982D01*
X01011174Y00879602D01*
X00989838Y00839350D02*
Y00851154D01*
X01016000Y00850646D02*
X01017016Y00851662D01*
X01004062Y00850646D02*
X01016000D01*
X00935736Y00879602D02*
X01011174D01*
X00936498Y00864870D02*
X00964438D01*
X00935736Y00865632D02*
X00936498Y00864870D01*
X01076960Y00778002D02*
X01085088D01*
X01121156Y00741934D01*
X01142492D01*
X01146048Y00745490D01*
Y00781050D01*
X01142746Y00784352D02*
X01146048Y00781050D01*
X01140968Y00817880D02*
X01142746Y00816102D01*
Y00784352D02*
Y00816102D01*
D37*
X00867466Y00859988D02*
Y00907280D01*
Y00859988D02*
X00890016Y00837438D01*
X00841654Y00933092D02*
X00867466Y00907280D01*
X00890016Y00837438D02*
X00907288D01*
X00922020Y00831088D02*
X00923798Y00829310D01*
Y00821062D02*
Y00829310D01*
X00923798Y00821062D02*
X00923798Y00821062D01*
X00910082Y00821062D02*
X00923798D01*
X01023454Y00865632D02*
X01029462Y00859624D01*
X01018286Y00865632D02*
X01023454D01*
X01065276Y00874268D02*
X01075690Y00863854D01*
X01026922Y00874268D02*
X01065276D01*
X01018286Y00865632D02*
X01026922Y00874268D01*
X01017016Y00865632D02*
X01018286D01*
X01071143Y00911860D02*
X01080661Y00921378D01*
X01016254Y00911860D02*
X01071143D01*
X01017270Y00824096D02*
X01021962D01*
X00907288Y00865632D02*
X00912622D01*
X00921258Y00856996D01*
Y00843280D02*
Y00856996D01*
Y00843280D02*
X00940188Y00824350D01*
X00877697Y00872109D02*
Y00913511D01*
Y00872109D02*
X00884174Y00865632D01*
X00907288D01*
X00826707Y00844233D02*
Y00926275D01*
X00821436Y00838962D02*
X00826707Y00844233D01*
X00865886Y00839470D02*
X00895858Y00809498D01*
Y00764286D02*
Y00809498D01*
Y00764286D02*
X00898786D01*
X00809244Y00776986D02*
X00811784Y00774446D01*
X00816102D01*
X00863704Y00724258D02*
X00865632Y00726186D01*
X00808990Y00735584D02*
X00820316Y00724258D01*
X00863704D01*
X00808990Y00735584D02*
Y00776732D01*
X00809244Y00776986D01*
X00803656Y00782574D02*
X00809244Y00776986D01*
X00827278Y00790448D02*
Y00796042D01*
X00827420Y00796184D01*
Y00803260D01*
X00820928Y00809752D02*
X00827420Y00803260D01*
X00820928Y00809752D02*
Y00824230D01*
X01080661Y00921378D02*
X01084326D01*
X00898786Y00764286D02*
X00946030Y00811530D01*
X00827635Y00954532D02*
X00837184D01*
X00801370Y00929894D02*
X00802997D01*
X00846074Y00945134D02*
X00877697Y00913511D01*
X00802997Y00929894D02*
X00818237Y00945134D01*
X00846074D01*
X00826707Y00926275D02*
X00833524Y00933092D01*
X00841654D01*
X00810768Y00834390D02*
X00820928Y00824230D01*
X00810768Y00834390D02*
Y00920496D01*
X00821182Y00930910D01*
X00940188Y00824350D02*
X00989838D01*
X01021962Y00824096D02*
X01029462Y00831596D01*
Y00859624D01*
X00989838Y00824350D02*
X00990092Y00824096D01*
X01017270D01*
X00907288Y00879602D02*
Y00892810D01*
D39*
X01130046Y00973802D02*
D03*
Y00917702D02*
D03*
D40*
X01099746Y00921502D02*
D03*
Y00970002D02*
D03*
D41*
X00846836Y00881634D02*
D03*
X00855218Y00886460D02*
D03*
D42*
X00855980Y00876046D02*
D03*
X01073658Y00854456D02*
D03*
X01041654Y00858012D02*
D03*
X01011174Y00879602D02*
D03*
X01004062Y00850646D02*
D03*
X00964438Y00864870D02*
D03*
X00858774Y00742950D02*
D03*
X00854964Y00764794D02*
D03*
X00856234Y00947420D02*
D03*
X00798068Y00815086D02*
D03*
X00922782Y00754888D02*
D03*
X00834898Y00977392D02*
D03*
X00872236Y00947674D02*
D03*
X00849122Y00977646D02*
D03*
X00822198D02*
D03*
Y00965708D02*
D03*
X00835406Y00966470D02*
D03*
X00849884Y00967232D02*
D03*
X01129792Y00958596D02*
D03*
X01140968D02*
D03*
X01129792Y00945261D02*
D03*
X01140968D02*
D03*
X01129792Y00931926D02*
D03*
X01140968D02*
D03*
X01048004Y00867410D02*
D03*
X01129030Y00852424D02*
D03*
X01092962Y00874776D02*
D03*
X00802132Y00948944D02*
D03*
X00819658Y00883412D02*
D03*
X00844550Y00845566D02*
D03*
X00814070Y00949452D02*
D03*
D43*
X00855726Y00868934D02*
D03*
X00922020Y00831088D02*
D03*
X01040892Y00844296D02*
D03*
X00841756Y00891286D02*
D03*
X00838962Y00926592D02*
D03*
X01028700Y00796544D02*
D03*
X01073658Y00816864D02*
D03*
X01048512Y00806958D02*
D03*
X00831088Y00730758D02*
D03*
X00808990Y00735584D02*
D03*
X00865632Y00726186D02*
D03*
X00843534Y00765556D02*
D03*
X00827278Y00790448D02*
D03*
X00820928Y00824230D02*
D03*
X00840486Y00799592D02*
D03*
X00865886Y00839470D02*
D03*
X00803656Y00782574D02*
D03*
X00816102Y00774446D02*
D03*
X01139324Y00836048D02*
D03*
X01073912Y00827278D02*
D03*
X01028700Y00810260D02*
D03*
X01148588Y00822198D02*
D03*
X01140968Y00817880D02*
D03*
X01142746Y00784352D02*
D03*
X01073658Y00807466D02*
D03*
X01075182Y00799846D02*
D03*
X01043686Y00799592D02*
D03*
X01046480Y00834898D02*
D03*
X01016508Y00764540D02*
D03*
X00962660Y00765810D02*
D03*
X00821182Y00930910D02*
D03*
X00907288Y00892810D02*
D03*
D44*
X01076960Y00765048D02*
D03*
Y00778002D02*
D03*
Y00748284D02*
D03*
X01133602Y00767588D02*
D03*
X01133348Y00754888D02*
D03*
D45*
X01114044Y00727202D02*
D03*
X01113536Y00739648D02*
D03*
X00820420Y00799084D02*
D03*
X00821436Y00838962D02*
D03*
X01040130Y00727710D02*
D03*
X01084326Y00921378D02*
D03*
X01051814Y00727710D02*
D03*
X00801370Y00929894D02*
D03*
D46*
X01075690Y00863854D02*
D03*
X01016254Y00911860D02*
D03*
X00895858Y00764286D02*
D03*
X00947750Y00752500D02*
D03*
X00960120Y00749046D02*
D03*
X00946030Y00811530D02*
D03*
D47*
X00827278Y00790448D02*
X00853440D01*
X00858266Y00795274D01*
Y00842010D01*
X00862330Y00846074D01*
X00867650D01*
X00907662Y00806062D01*
X00910082D01*
M02*
