G04 Layer_Color=16711935*
%FSAX44Y44*%
%MOMM*%
G71*
G01*
G75*
%ADD50R,1.1032X0.9032*%
%ADD64R,1.7032X1.1532*%
%ADD75O,1.5032X1.0032*%
%ADD76O,1.4032X1.0032*%
%ADD77C,1.1032*%
%ADD78C,1.2032*%
%ADD79C,0.9032*%
D50*
X00923798Y00806062D02*
D03*
Y00821062D02*
D03*
X00910082Y00821062D02*
D03*
Y00806062D02*
D03*
X01016762Y00775074D02*
D03*
Y00790074D02*
D03*
X00961644Y00775074D02*
D03*
Y00790074D02*
D03*
X00989838Y00824350D02*
D03*
Y00839350D02*
D03*
X01017270Y00824096D02*
D03*
Y00839096D02*
D03*
D64*
X01017016Y00851662D02*
D03*
X00990346D02*
D03*
Y00865632D02*
D03*
X00907288Y00879602D02*
D03*
X00937006D02*
D03*
Y00865632D02*
D03*
Y00851662D02*
D03*
X00907288Y00837438D02*
D03*
Y00851662D02*
D03*
Y00865632D02*
D03*
X01017016D02*
D03*
D75*
X01130046Y00973802D02*
D03*
Y00917702D02*
D03*
D76*
X01099746Y00921502D02*
D03*
Y00970002D02*
D03*
D77*
X00846836Y00881634D02*
D03*
X00855218Y00886460D02*
D03*
D78*
X01076960Y00765048D02*
D03*
Y00778002D02*
D03*
Y00748284D02*
D03*
X01133602Y00767588D02*
D03*
X01133348Y00754888D02*
D03*
D79*
X01114044Y00727202D02*
D03*
X01113536Y00739648D02*
D03*
X00820420Y00799084D02*
D03*
X00821436Y00838962D02*
D03*
X01040130Y00727710D02*
D03*
X01051814D02*
D03*
X00801370Y00929894D02*
D03*
M02*
