G04 Layer_Color=8388736*
%FSAX44Y44*%
%MOMM*%
G71*
G01*
G75*
%ADD50R,1.1032X0.9032*%
%ADD51R,1.1032X1.0032*%
%ADD52R,1.1232X1.0232*%
%ADD53R,0.9032X1.1032*%
%ADD54R,0.5532X0.8532*%
%ADD55R,0.9232X1.0632*%
%ADD56R,1.6532X2.2032*%
%ADD57R,2.0032X0.6532*%
%ADD58R,3.4532X1.5032*%
%ADD59R,0.9032X0.7532*%
%ADD60O,1.0032X0.4532*%
%ADD61O,0.4532X1.0032*%
%ADD62R,2.9032X2.9032*%
%ADD63R,1.7032X1.1032*%
%ADD64R,1.7032X1.1532*%
%ADD65R,1.1532X1.7032*%
%ADD66R,1.0032X1.1032*%
%ADD67O,0.4500X1.5000*%
%ADD68R,1.0532X2.4032*%
%ADD69R,1.9032X2.7032*%
%ADD70R,1.0000X2.7000*%
%ADD71R,1.3032X0.8532*%
%ADD72R,1.8032X1.0932*%
%ADD73R,0.4532X1.0032*%
%ADD74R,0.8532X1.3032*%
%ADD75O,1.5032X1.0032*%
%ADD76O,1.4032X1.0032*%
%ADD77C,1.1032*%
%ADD78C,1.2032*%
%ADD79C,0.9032*%
D50*
X01102614Y00743338D02*
D03*
Y00728338D02*
D03*
X01089152Y00728338D02*
D03*
Y00743338D02*
D03*
X00810006Y00863988D02*
D03*
Y00848988D02*
D03*
X00797560Y00745116D02*
D03*
Y00730116D02*
D03*
X00797560Y00757802D02*
D03*
Y00772802D02*
D03*
X00866140Y00775342D02*
D03*
Y00760342D02*
D03*
X00852170Y00912248D02*
D03*
Y00897248D02*
D03*
X00865886Y00788028D02*
D03*
Y00803028D02*
D03*
X00866140Y00734688D02*
D03*
Y00749688D02*
D03*
X00865886Y00862210D02*
D03*
Y00847210D02*
D03*
X00865886Y00815968D02*
D03*
Y00830968D02*
D03*
X01073912Y00931792D02*
D03*
Y00946792D02*
D03*
D51*
X00810006Y00874634D02*
D03*
Y00888634D02*
D03*
X00798068Y00874634D02*
D03*
Y00888634D02*
D03*
X00798068Y00863488D02*
D03*
Y00849488D02*
D03*
X00798068Y00805718D02*
D03*
Y00791718D02*
D03*
X00798068Y00823580D02*
D03*
Y00837580D02*
D03*
X01146048Y00882000D02*
D03*
Y00896000D02*
D03*
X01134364Y00882000D02*
D03*
Y00896000D02*
D03*
X01122680Y00896000D02*
D03*
Y00882000D02*
D03*
X00865886Y00873110D02*
D03*
Y00887110D02*
D03*
X01145540Y00794624D02*
D03*
Y00808624D02*
D03*
X00865886Y00911748D02*
D03*
Y00897748D02*
D03*
X01110996Y00896000D02*
D03*
Y00882000D02*
D03*
X01099312Y00896000D02*
D03*
Y00882000D02*
D03*
X01087628Y00896000D02*
D03*
Y00882000D02*
D03*
X00846582Y00868568D02*
D03*
Y00854568D02*
D03*
D52*
X00810260Y00791718D02*
D03*
Y00809118D02*
D03*
Y00837756D02*
D03*
Y00820356D02*
D03*
X00798322Y00899604D02*
D03*
Y00917004D02*
D03*
D53*
X00854590Y00727456D02*
D03*
X00839590D02*
D03*
X00897770Y00727710D02*
D03*
X00882770D02*
D03*
X01124070Y00870204D02*
D03*
X01139070D02*
D03*
X01133736Y00789686D02*
D03*
X01118736D02*
D03*
X01082308Y00974090D02*
D03*
X01067308D02*
D03*
X01082428Y00961898D02*
D03*
X01067428D02*
D03*
X01108590Y00789686D02*
D03*
X01093590D02*
D03*
D54*
X00809348Y00743672D02*
D03*
X00815848D02*
D03*
X00822348D02*
D03*
X00809348Y00764072D02*
D03*
X00815848D02*
D03*
X00822348D02*
D03*
D55*
X00811276Y00753872D02*
D03*
X00820420D02*
D03*
D56*
X01099746Y00974702D02*
D03*
Y00916702D02*
D03*
D57*
X01101746Y00932702D02*
D03*
Y00939202D02*
D03*
Y00945702D02*
D03*
Y00952202D02*
D03*
Y00958702D02*
D03*
D58*
X01126246Y00973702D02*
D03*
Y00917702D02*
D03*
D59*
X01113496Y00982702D02*
D03*
Y00908702D02*
D03*
D60*
X01131944Y00811048D02*
D03*
Y00816048D02*
D03*
Y00821048D02*
D03*
Y00826048D02*
D03*
Y00831048D02*
D03*
Y00836048D02*
D03*
Y00841048D02*
D03*
Y00846048D02*
D03*
X01083444D02*
D03*
Y00841048D02*
D03*
Y00836048D02*
D03*
Y00831048D02*
D03*
Y00826048D02*
D03*
Y00821048D02*
D03*
Y00816048D02*
D03*
Y00811048D02*
D03*
D61*
X01125194Y00852798D02*
D03*
X01120194D02*
D03*
X01115194D02*
D03*
X01110194D02*
D03*
X01105194D02*
D03*
X01100194D02*
D03*
X01095194D02*
D03*
X01090194D02*
D03*
Y00804298D02*
D03*
X01095194D02*
D03*
X01100194D02*
D03*
X01105194D02*
D03*
X01110194D02*
D03*
X01115194D02*
D03*
X01120194D02*
D03*
X01125194D02*
D03*
D62*
X01107694Y00828548D02*
D03*
D63*
X01061546Y00911890D02*
D03*
Y00899190D02*
D03*
Y00886490D02*
D03*
X00881046D02*
D03*
Y00899190D02*
D03*
Y00911890D02*
D03*
D64*
X01061546Y00873790D02*
D03*
Y00861090D02*
D03*
Y00848390D02*
D03*
Y00835690D02*
D03*
Y00822990D02*
D03*
Y00810290D02*
D03*
Y00797590D02*
D03*
Y00784890D02*
D03*
Y00772190D02*
D03*
Y00759490D02*
D03*
Y00746790D02*
D03*
X00881046D02*
D03*
Y00759490D02*
D03*
Y00772190D02*
D03*
Y00784890D02*
D03*
Y00797590D02*
D03*
Y00810290D02*
D03*
Y00822990D02*
D03*
Y00835690D02*
D03*
Y00848390D02*
D03*
Y00861090D02*
D03*
Y00873790D02*
D03*
D65*
X01028446Y00732790D02*
D03*
X01015746D02*
D03*
X01003046D02*
D03*
X00990346D02*
D03*
X00977646D02*
D03*
X00964946D02*
D03*
X00952246D02*
D03*
X00939546D02*
D03*
X00926846D02*
D03*
X00914146D02*
D03*
D66*
X00852536Y00924306D02*
D03*
X00866536D02*
D03*
D67*
X00853788Y00786794D02*
D03*
X00848788D02*
D03*
X00843788D02*
D03*
X00838788D02*
D03*
X00833788D02*
D03*
X00853788Y00742794D02*
D03*
X00848788D02*
D03*
X00843788D02*
D03*
X00838788D02*
D03*
X00833788D02*
D03*
D68*
X00829665Y00946031D02*
D03*
X00844665D02*
D03*
D69*
X00806775Y00969637D02*
D03*
X00867593D02*
D03*
D70*
X01089660Y00768604D02*
D03*
X01105662D02*
D03*
X01121664D02*
D03*
D71*
X00837246Y00899058D02*
D03*
Y00908558D02*
D03*
Y00918058D02*
D03*
X00813246D02*
D03*
Y00899058D02*
D03*
D72*
X00830072Y00859282D02*
D03*
D73*
X00822572Y00848832D02*
D03*
X00827572D02*
D03*
X00832572D02*
D03*
X00837572D02*
D03*
X00822572Y00869732D02*
D03*
X00827572D02*
D03*
X00832572D02*
D03*
X00837572D02*
D03*
D74*
X00850494Y00825054D02*
D03*
X00840994D02*
D03*
X00831494D02*
D03*
Y00801054D02*
D03*
X00850494D02*
D03*
D75*
X01130046Y00973802D02*
D03*
Y00917702D02*
D03*
D76*
X01099746Y00921502D02*
D03*
Y00970002D02*
D03*
D77*
X00846836Y00881634D02*
D03*
X00855218Y00886460D02*
D03*
D78*
X01076960Y00765048D02*
D03*
Y00778002D02*
D03*
Y00748284D02*
D03*
X01133602Y00767588D02*
D03*
X01133348Y00754888D02*
D03*
D79*
X01114044Y00727202D02*
D03*
X01113536Y00739648D02*
D03*
X00820420Y00799084D02*
D03*
X00821436Y00838962D02*
D03*
X01040130Y00727710D02*
D03*
X01051814D02*
D03*
X00801370Y00929894D02*
D03*
M02*
