G04*
G04 #@! TF.GenerationSoftware,Altium Limited,Altium Designer,18.0.11 (651)*
G04*
G04 Layer_Physical_Order=2*
G04 Layer_Color=16711680*
%FSAX44Y44*%
%MOMM*%
G71*
G01*
G75*
%ADD10C,0.3000*%
%ADD16R,1.5000X0.9500*%
%ADD18C,0.2540*%
%ADD19C,0.4000*%
%ADD20C,0.3500*%
%ADD21C,0.2500*%
%ADD22C,0.5000*%
%ADD23C,0.6000*%
%ADD24R,0.3500X0.6500*%
%ADD25R,0.7200X0.8600*%
%ADD26R,1.4000X0.4000*%
%ADD27R,1.9000X2.3000*%
%ADD28O,1.4000X0.3500*%
%ADD29R,0.6500X1.1000*%
%ADD30R,0.7000X0.9000*%
%ADD31R,0.8000X0.9000*%
%ADD32R,0.9000X0.7000*%
%ADD33R,1.6000X0.8900*%
%ADD34R,0.2500X0.8000*%
%ADD35R,0.9000X0.8000*%
%ADD36R,0.9500X0.9500*%
%ADD37R,0.9200X0.8200*%
%ADD38R,0.8200X0.9200*%
%ADD39R,0.4000X0.6000*%
%ADD40R,0.6000X0.4000*%
%ADD41R,2.2000X0.8500*%
%ADD42C,0.2100*%
G36*
X00959876Y00918972D02*
X00960262Y00917702D01*
X00958785Y00916715D01*
X00957569Y00914896D01*
X00957391Y00914000D01*
X00968109D01*
X00967931Y00914896D01*
X00966715Y00916715D01*
X00965238Y00917702D01*
X00965624Y00918972D01*
X00992779Y00918972D01*
X00993750Y00918250D01*
Y00915074D01*
X00988004D01*
X00988004Y00915074D01*
X00986923Y00914859D01*
X00986007Y00914247D01*
X00983217Y00911458D01*
X00978648D01*
X00977380Y00911205D01*
X00976305Y00910487D01*
X00975587Y00909412D01*
X00975334Y00908144D01*
X00975493Y00907344D01*
X00974711Y00906074D01*
X00966250D01*
X00966250Y00906074D01*
X00965169Y00905859D01*
X00964253Y00905247D01*
X00964253Y00905247D01*
X00949623Y00890617D01*
X00948930Y00890593D01*
X00948178Y00890719D01*
X00947838Y00891320D01*
X00948209Y00891876D01*
X00948462Y00893144D01*
X00948209Y00894412D01*
X00948184Y00894450D01*
X00948537Y00896147D01*
X00951665Y00899275D01*
X00951665Y00899275D01*
X00952277Y00900191D01*
X00952492Y00901272D01*
Y00905016D01*
X00952367Y00905644D01*
X00952492Y00906272D01*
Y00911832D01*
X00952492Y00911832D01*
X00952277Y00912913D01*
X00951665Y00913829D01*
X00947792Y00917702D01*
X00948318Y00918972D01*
X00959876D01*
D02*
G37*
G36*
X01007250Y00918972D02*
Y00913500D01*
X01013750D01*
Y00911000D01*
X01007250D01*
Y00906500D01*
X01006250D01*
Y00900250D01*
X01013250D01*
Y00897750D01*
X01006250D01*
Y00891500D01*
X01007062D01*
X01007937Y00890230D01*
X01007891Y00890000D01*
X01013250D01*
Y00887500D01*
X01007891D01*
X01008069Y00886604D01*
X01009285Y00884785D01*
X01010327Y00884089D01*
X01009941Y00882819D01*
X00992272D01*
X00991601Y00883422D01*
X00991886Y00884773D01*
X00992260Y00884847D01*
X00993417Y00885621D01*
X01000797Y00893000D01*
X01004750D01*
Y00905000D01*
X01003798D01*
X01003750Y00906250D01*
X01003750D01*
Y00917702D01*
X01004721Y00918972D01*
X01007250D01*
D02*
G37*
G36*
X00965416Y00887626D02*
X00965391Y00887500D01*
X00970750D01*
Y00886250D01*
X00972000D01*
Y00880891D01*
X00972896Y00881069D01*
X00974715Y00882285D01*
X00975931Y00884104D01*
X00976004Y00884474D01*
X00977375Y00885080D01*
X00977419Y00885075D01*
X00978648Y00884830D01*
X00980329D01*
Y00884602D01*
X00980601Y00883236D01*
X00981375Y00882079D01*
X00984776Y00878678D01*
X00985011Y00877494D01*
X00986006Y00876006D01*
X00987494Y00875011D01*
X00989250Y00874662D01*
X00991006Y00875011D01*
X00992009Y00875681D01*
X01023700D01*
X01025066Y00875953D01*
X01025585Y00876300D01*
X01027480D01*
X01028750Y00876300D01*
Y00876300D01*
X01028750D01*
Y00876300D01*
X01031802D01*
X01032365Y00875030D01*
X01031896Y00874512D01*
X01031300Y00874631D01*
X01029545Y00874281D01*
X01028160Y00873356D01*
X00987793D01*
X00986524Y00873104D01*
X00985449Y00872386D01*
X00982673Y00869610D01*
X00981730Y00870000D01*
X00975000D01*
X00968500D01*
Y00866104D01*
X00965000D01*
Y00877250D01*
X00962824D01*
Y00886830D01*
X00964246Y00888251D01*
X00965416Y00887626D01*
D02*
G37*
G36*
X01019949Y00858411D02*
X01019511Y00857756D01*
X01019162Y00856000D01*
X01019511Y00854244D01*
X01019828Y00853770D01*
X01019149Y00852500D01*
X01011000D01*
Y00840500D01*
X01018418D01*
X01018783Y00840020D01*
X01018153Y00838750D01*
X01017750D01*
Y00831250D01*
X01016500D01*
Y00830000D01*
X01009500D01*
Y00824510D01*
X01009104Y00824431D01*
X01007285Y00823215D01*
X01007020Y00822819D01*
X01005750Y00823204D01*
Y00828000D01*
X01005750D01*
Y00828500D01*
X01005750D01*
Y00838500D01*
X00998994D01*
X00995264Y00842230D01*
X00995505Y00843500D01*
X01005750D01*
Y00853500D01*
X01005750Y00853500D01*
X01005870Y00854720D01*
X01006518Y00855689D01*
X01006828Y00857250D01*
X01006597Y00858411D01*
X01007347Y00859681D01*
X01019270D01*
X01019949Y00858411D01*
D02*
G37*
G36*
X01054181Y00821522D02*
Y00763478D01*
X01048772Y00758069D01*
X01043978D01*
X01042052Y00759995D01*
X01042862Y00760981D01*
X01043104Y00760819D01*
X01044000Y00760641D01*
Y00766000D01*
X01045250D01*
Y00767250D01*
X01050609D01*
X01050431Y00768146D01*
X01049215Y00769965D01*
X01047396Y00771181D01*
X01045250Y00771608D01*
X01044810Y00771520D01*
X01044185Y00772691D01*
X01048497Y00777003D01*
X01049109Y00777919D01*
X01049324Y00779000D01*
X01049324Y00779000D01*
Y00786826D01*
X01049384Y00786866D01*
X01050268Y00788189D01*
X01050578Y00789750D01*
X01050268Y00791311D01*
X01049384Y00792634D01*
X01048061Y00793518D01*
X01046500Y00793828D01*
X01046430Y00793814D01*
X01044997Y00795247D01*
X01044572Y00795531D01*
X01044294Y00796873D01*
X01044341Y00797097D01*
X01048497Y00801253D01*
X01049109Y00802169D01*
X01049324Y00803250D01*
X01049324Y00803250D01*
Y00815000D01*
X01049109Y00816081D01*
X01048497Y00816997D01*
X01048497Y00816997D01*
X01041247Y00824247D01*
X01040331Y00824859D01*
X01039250Y00825074D01*
X01039250Y00825074D01*
X01039197D01*
X01038000Y00825250D01*
Y00827681D01*
X01048022D01*
X01054181Y00821522D01*
D02*
G37*
G36*
X01041000Y00846500D02*
X01055000D01*
Y00845250D01*
X01056250D01*
Y00838000D01*
X01068832D01*
Y00811530D01*
Y00731280D01*
X01067562Y00730895D01*
X01066994Y00731744D01*
X01065506Y00732739D01*
X01063750Y00733088D01*
X01061994Y00732739D01*
X01060506Y00731744D01*
X01060225Y00731324D01*
X01059000D01*
Y00734000D01*
X01049000D01*
Y00722000D01*
X01059000D01*
Y00725676D01*
X01060225D01*
X01060506Y00725256D01*
X01061994Y00724261D01*
X01063750Y00723912D01*
X01065506Y00724261D01*
X01066994Y00725256D01*
X01067562Y00726105D01*
X01068832Y00725720D01*
Y00720090D01*
X01038322D01*
X01037798Y00721360D01*
X01038341Y00722000D01*
X01044000D01*
Y00734000D01*
X01041319D01*
Y00750165D01*
X01042300Y00750971D01*
X01042500Y00750931D01*
X01050250D01*
X01051616Y00751203D01*
X01052773Y00751977D01*
X01060273Y00759477D01*
X01061047Y00760634D01*
X01061319Y00762000D01*
Y00823000D01*
X01061047Y00824366D01*
X01060273Y00825523D01*
X01052023Y00833773D01*
X01050866Y00834547D01*
X01049500Y00834818D01*
X01038000D01*
Y00837250D01*
X01031332D01*
X01030967Y00837730D01*
X01031250Y00838301D01*
Y00846500D01*
X01032500D01*
Y00847750D01*
X01039500D01*
Y00852431D01*
X01041000D01*
Y00846500D01*
D02*
G37*
G36*
X00874175Y00918972D02*
X00875250Y00918500D01*
Y00907750D01*
X00873500D01*
Y00901500D01*
X00880000D01*
Y00899000D01*
X00873500D01*
Y00892750D01*
Y00889250D01*
X00880500D01*
Y00886750D01*
X00873500D01*
Y00880500D01*
Y00877000D01*
X00880500D01*
Y00874500D01*
X00873500D01*
Y00868250D01*
Y00864750D01*
X00880500D01*
Y00862250D01*
X00873500D01*
Y00856000D01*
X00873500D01*
Y00852500D01*
X00880500D01*
Y00850000D01*
X00873500D01*
Y00846500D01*
X00873500D01*
Y00840250D01*
X00880500D01*
Y00837750D01*
X00873500D01*
Y00831500D01*
X00873500D01*
Y00828000D01*
X00880500D01*
Y00825500D01*
X00873500D01*
Y00819250D01*
X00873936D01*
Y00794600D01*
X00895936D01*
X00896681Y00793639D01*
Y00758500D01*
X00896953Y00757134D01*
X00897654Y00756085D01*
X00897515Y00755172D01*
X00897383Y00754736D01*
X00897104Y00754681D01*
X00895285Y00753465D01*
X00894069Y00751646D01*
X00893891Y00750750D01*
X00904609D01*
X00904431Y00751646D01*
X00904120Y00752111D01*
X00904719Y00753231D01*
X00918220D01*
X00918380Y00753050D01*
X00918826Y00752041D01*
X00917517Y00750733D01*
X00916910Y00749823D01*
X00916746Y00749000D01*
X00913500D01*
Y00739000D01*
X00917535D01*
X00919861Y00736673D01*
X00919375Y00735500D01*
X00912000D01*
Y00730250D01*
X00919500D01*
Y00729000D01*
X00920750D01*
Y00722500D01*
X00927000D01*
Y00724000D01*
X00938750D01*
X00939649Y00723104D01*
X00941277Y00721477D01*
X00941451Y00721360D01*
X00941066Y00720090D01*
X00895936D01*
Y00743753D01*
X00896904Y00744270D01*
X00897206Y00744299D01*
X00898000Y00744141D01*
Y00748250D01*
X00893891D01*
X00894069Y00747354D01*
X00894446Y00746790D01*
X00893847Y00745670D01*
X00873936D01*
Y00720090D01*
X00870966D01*
Y00918972D01*
X00874175D01*
D02*
G37*
G36*
X00984750Y00736000D02*
X00991475D01*
X00991641Y00735169D01*
X00992253Y00734253D01*
X00994023Y00732483D01*
X00994023Y00732483D01*
X00994939Y00731871D01*
X00996020Y00731656D01*
X00996121D01*
X00997000Y00730750D01*
Y00727569D01*
X00961750D01*
Y00728930D01*
X00961866Y00728953D01*
X00963023Y00729727D01*
X00966273Y00732977D01*
X00967047Y00734134D01*
X00967319Y00735500D01*
Y00735745D01*
X00968589Y00736415D01*
X00969854Y00735569D01*
X00970750Y00735391D01*
Y00740750D01*
X00973250D01*
Y00735391D01*
X00974146Y00735569D01*
X00974791Y00736000D01*
X00982250D01*
Y00743750D01*
X00984750D01*
Y00736000D01*
D02*
G37*
%LPC*%
G36*
X00968109Y00911500D02*
X00964000D01*
Y00907391D01*
X00964896Y00907569D01*
X00966715Y00908785D01*
X00967931Y00910604D01*
X00968109Y00911500D01*
D02*
G37*
G36*
X00961500D02*
X00957391D01*
X00957569Y00910604D01*
X00958785Y00908785D01*
X00960604Y00907569D01*
X00961500Y00907391D01*
Y00911500D01*
D02*
G37*
G36*
X00969500Y00885000D02*
X00965391D01*
X00965569Y00884104D01*
X00966785Y00882285D01*
X00968604Y00881069D01*
X00969500Y00880891D01*
Y00885000D01*
D02*
G37*
G36*
X00981500Y00878750D02*
X00976250D01*
Y00872500D01*
X00981500D01*
Y00878750D01*
D02*
G37*
G36*
X00973750D02*
X00968500D01*
Y00872500D01*
X00973750D01*
Y00878750D01*
D02*
G37*
G36*
X01015250Y00838750D02*
X01009500D01*
Y00832500D01*
X01015250D01*
Y00838750D01*
D02*
G37*
G36*
X01050609Y00764750D02*
X01046500D01*
Y00760641D01*
X01047396Y00760819D01*
X01049215Y00762035D01*
X01050431Y00763854D01*
X01050609Y00764750D01*
D02*
G37*
G36*
X01039500Y00845250D02*
X01033750D01*
Y00839000D01*
X01039500D01*
Y00845250D01*
D02*
G37*
G36*
X01053750Y00844000D02*
X01041000D01*
Y00838000D01*
X01053750D01*
Y00844000D01*
D02*
G37*
G36*
X00904609Y00748250D02*
X00900500D01*
Y00744141D01*
X00901396Y00744319D01*
X00903215Y00745535D01*
X00904431Y00747354D01*
X00904609Y00748250D01*
D02*
G37*
G36*
X00918250Y00727750D02*
X00912000D01*
Y00722500D01*
X00918250D01*
Y00727750D01*
D02*
G37*
%LPD*%
D10*
X01017250Y00846500D02*
X01032500Y00831250D01*
X01016500Y00846500D02*
X01017250D01*
X01021750Y00821750D02*
X01031250Y00831250D01*
X01021750Y00816750D02*
Y00821750D01*
X01019250Y00814250D02*
X01021750Y00816750D01*
X01019250Y00809750D02*
Y00814250D01*
X01035750Y00803250D02*
X01038250D01*
X01042000Y00807000D01*
Y00812000D01*
X01037250Y00816750D02*
X01042000Y00812000D01*
X01021750Y00816750D02*
X01037250D01*
X00983250Y00815500D02*
X00987500Y00811250D01*
X00983250Y00815500D02*
Y00825550D01*
X00974750Y00812200D02*
X00978250Y00815700D01*
Y00825550D01*
D16*
X00952750Y00755250D02*
D03*
Y00766750D02*
D03*
Y00743750D02*
D03*
Y00732250D02*
D03*
X00983500Y00766750D02*
D03*
Y00755250D02*
D03*
Y00743750D02*
D03*
X01006000Y00764500D02*
D03*
X01026750D02*
D03*
Y00752000D02*
D03*
X01006000Y00751750D02*
D03*
D18*
X01024750Y00847500D02*
X01025750Y00846500D01*
X01032500D01*
X01033000Y00822250D02*
X01039250D01*
X01024711Y00803289D02*
X01024800D01*
X01024250Y00803250D02*
Y00809750D01*
Y00803250D02*
X01024461Y00803039D01*
X01024711Y00803289D01*
X01003730Y00803520D02*
X01017750D01*
X01011250Y00819250D02*
Y00826000D01*
X01000500Y00808500D02*
X01011250Y00819250D01*
X01008500Y00796000D02*
X01010000Y00797500D01*
X01017750Y00798250D02*
Y00803250D01*
X01041500Y00798250D02*
X01046500Y00803250D01*
X01035750Y00798250D02*
X01041500D01*
X01049297Y00889289D02*
Y00896297D01*
X00988230Y00842263D02*
Y00846450D01*
X00998750Y00808500D02*
X00999750D01*
X00987500Y00797250D02*
X00998750Y00808500D01*
X00979533Y00836000D02*
X00980750D01*
X00978750D02*
X00979533D01*
X00968250D02*
X00978750D01*
X00967500Y00835250D02*
X00968250Y00836000D01*
X00973250Y00830500D02*
X00978750Y00836000D01*
X00973250Y00825550D02*
Y00830500D01*
Y00842283D02*
Y00846450D01*
Y00842283D02*
X00979533Y00836000D01*
X00988250Y00825550D02*
Y00832250D01*
X00987500Y00833000D02*
X00988250Y00832250D01*
X00983750Y00833000D02*
X00987500D01*
X00980750Y00836000D02*
X00983750Y00833000D01*
X00981967Y00836000D02*
X00988230Y00842263D01*
X00980750Y00836000D02*
X00981967D01*
X00992270Y00841230D02*
X01000000Y00833500D01*
X00999750Y00822500D02*
Y00833500D01*
X00992270Y00841230D02*
Y00851980D01*
X00989750Y00854500D02*
X00992270Y00851980D01*
X00986500Y00854500D02*
X00989750D01*
X00983250Y00851250D02*
X00986500Y00854500D01*
X00983250Y00846450D02*
Y00851250D01*
X01006000Y00764500D02*
Y00765000D01*
X00983898Y00892894D02*
Y00893144D01*
X00983550Y00907796D02*
X00983898Y00908144D01*
X00983792Y00903250D02*
X00983898Y00903144D01*
X00895250Y00912500D02*
X00908000D01*
X00908250Y00912250D01*
X00922250Y00900500D02*
X00924894Y00903144D01*
X00939898D01*
X00909000Y00885500D02*
X00922250D01*
X00939898Y00898144D02*
X00946540D01*
X00923250Y00912250D02*
X00927750Y00916750D01*
X00934356Y00908144D02*
X00939898D01*
X00931250Y00911250D02*
X00934356Y00908144D01*
X00927750Y00916750D02*
X00944750D01*
X00949668Y00901272D02*
Y00905016D01*
X00949500Y00905184D02*
X00949668Y00905016D01*
X00949500Y00905184D02*
Y00906104D01*
X00949668Y00906272D01*
Y00911832D01*
X00946540Y00898144D02*
X00949668Y00901272D01*
X00944750Y00916750D02*
X00949668Y00911832D01*
X00921000Y00871250D02*
X00934500D01*
X00960000Y00871250D02*
Y00888000D01*
X00970144Y00898144D01*
X00983898D01*
X00966250Y00903250D02*
X00983792D01*
X00949500Y00871250D02*
X00951500Y00873250D01*
Y00888500D01*
X00966250Y00903250D01*
X00988004Y00912250D02*
X00998750D01*
X00983898Y00908144D02*
X00988004Y00912250D01*
X00920000Y00850000D02*
Y00853750D01*
X00915480Y00858270D02*
X00920000Y00853750D01*
X00907480Y00858270D02*
X00915480D01*
X00905250Y00860500D02*
X00907480Y00858270D01*
X00932750Y00786750D02*
X00938750D01*
X00945500Y00793500D01*
X00946000D01*
X00950980Y00788520D01*
Y00788353D02*
Y00788520D01*
Y00788353D02*
X00952603Y00786730D01*
X00952770D01*
X00958250Y00781250D01*
Y00779500D02*
Y00781250D01*
X01062000Y00885000D02*
Y00896750D01*
X01062750Y00897500D01*
X01050500D02*
X01062750D01*
X01048696Y00889289D02*
X01049297D01*
Y00896297D02*
X01050500Y00897500D01*
X00984250Y00835750D02*
X00987467D01*
X01054500Y00728500D02*
X01063750D01*
X01054000Y00728000D02*
X01054500Y00728500D01*
X00932750Y00786750D02*
Y00788000D01*
X00922750Y00798000D02*
X00932750Y00788000D01*
X01003000Y00740750D02*
Y00748750D01*
X01006000Y00751750D01*
X01027750Y00740500D02*
Y00749750D01*
X01002583Y00751750D02*
X01006000D01*
X00995000Y00759333D02*
X01002583Y00751750D01*
X00995000Y00759333D02*
Y00764500D01*
X00992750Y00766750D02*
X00995000Y00764500D01*
X00983500Y00766750D02*
X00992750D01*
X01021000Y00740500D02*
X01027750D01*
X00989250Y00755250D02*
X00994250Y00750250D01*
X00983500Y00755250D02*
X00989250D01*
X01016270Y00754730D02*
X01019000Y00752000D01*
X01016270Y00754730D02*
Y00757647D01*
X01016250Y00757667D02*
X01016270Y00757647D01*
X01016250Y00757667D02*
Y00758583D01*
X01014980Y00734480D02*
X01021000Y00740500D01*
X00994250Y00736250D02*
Y00750250D01*
Y00736250D02*
X00996020Y00734480D01*
X01014980D01*
X00910250Y00785334D02*
Y00792500D01*
Y00785334D02*
X00912368Y00783216D01*
X01039250Y00822250D02*
X01046500Y00815000D01*
X01035750Y00793250D02*
X01043000D01*
X01046500Y00789750D01*
Y00803250D02*
Y00815000D01*
X00999750Y00808500D02*
X01000500D01*
X01011250Y00826000D02*
X01016500Y00831250D01*
X01024250Y00786750D02*
X01029250D01*
X01034250D01*
X01040750Y00773250D02*
X01046500Y00779000D01*
Y00789750D01*
X01034250Y00785250D02*
X01039750Y00779750D01*
X01034250Y00785250D02*
Y00786750D01*
X01017750Y00803250D02*
Y00803520D01*
X00998750Y00808500D02*
X01003730Y00803520D01*
X01001317Y00768480D02*
X01002520D01*
X01006000Y00765000D01*
X00996000Y00772750D02*
X00997047D01*
X01001317Y00768480D01*
X00999750Y00796000D02*
X01008500D01*
X01009750Y00780500D02*
X01013011D01*
X01019250Y00779500D02*
Y00786750D01*
X00999500Y00783000D02*
X01007250D01*
X01009750Y00780500D01*
X00940000Y00766750D02*
X00952750D01*
X01018820Y00779069D02*
X01019250Y00779500D01*
X01019333Y00773250D02*
X01040750D01*
X01012299Y00779788D02*
X01013011Y00780500D01*
X01012299Y00779538D02*
Y00779788D01*
X01013964Y00773750D02*
X01018820Y00778605D01*
X01003500Y00773750D02*
X01013964D01*
X01018820Y00778605D02*
Y00779069D01*
X01016250Y00758583D02*
X01016270Y00758603D01*
Y00770187D01*
X01019333Y00773250D01*
X00977270Y00769000D02*
X00987250D01*
X00987500Y00769250D01*
Y00786250D01*
D19*
X01032500Y00831250D02*
X01049500D01*
X01031250D02*
X01032500D01*
X01049500D02*
X01057750Y00823000D01*
Y00762000D02*
Y00823000D01*
X01050250Y00754500D02*
X01057750Y00762000D01*
X01042500Y00754500D02*
X01050250D01*
X01037750Y00759250D02*
X01042500Y00754500D01*
X00945625Y00779375D02*
X00945750Y00779500D01*
X00943800Y00724000D02*
X01035000D01*
X00916000Y00837250D02*
X00923500D01*
X00895000Y00900250D02*
X00908750D01*
X00974750Y00798500D02*
X00987500Y00811250D01*
X00974750Y00794800D02*
Y00798500D01*
X00972500Y00792550D02*
X00974750Y00794800D01*
X00972500Y00769000D02*
Y00792550D01*
X00964000Y00806750D02*
Y00822250D01*
X00955750D02*
X00964000D01*
X00958250Y00801000D02*
X00964000Y00806750D01*
X00988425Y00863250D02*
X01033700D01*
X00982425Y00857250D02*
X00988425Y00863250D01*
X00978500Y00857250D02*
X00982425D01*
X00943750D02*
X00978500D01*
X00978250Y00857000D02*
X00978500Y00857250D01*
X00978250Y00846450D02*
Y00857000D01*
X00998500Y00853000D02*
X01002750Y00857250D01*
X00943750Y00857250D02*
X00944000Y00857000D01*
X00962750Y00840000D02*
Y00848000D01*
X00955500Y00832750D02*
X00962750Y00840000D01*
Y00848000D02*
X00963000Y00848250D01*
X00936750Y00857250D02*
X00943750D01*
X00944000Y00848250D02*
Y00857000D01*
X00944000Y00839250D02*
X00950500Y00832750D01*
X00955500D01*
X00944000Y00839250D02*
Y00848250D01*
X00944000Y00848250D01*
Y00809350D02*
X00946600Y00806750D01*
X00944000Y00809350D02*
Y00820500D01*
X00967000Y00771750D02*
Y00787750D01*
X00961250Y00793500D02*
X00967000Y00787750D01*
X00958250Y00793500D02*
X00961250D01*
X00964250Y00769000D02*
X00967000Y00771750D01*
X00964250Y00749550D02*
Y00769000D01*
X00972500Y00767500D02*
Y00769000D01*
X00969750Y00764750D02*
X00972500Y00767500D01*
X00969750Y00747272D02*
Y00764750D01*
X00963750Y00735500D02*
Y00741272D01*
X00960500Y00732250D02*
X00963750Y00735500D01*
X00952750Y00732250D02*
X00960500D01*
X00963750Y00741272D02*
X00969750Y00747272D01*
X00958450Y00743750D02*
X00964250Y00749550D01*
X00952750Y00743750D02*
X00958450D01*
X00939898Y00888144D02*
Y00892302D01*
X00894500Y00826750D02*
X00900250Y00821000D01*
X00894500Y00839000D02*
Y00851250D01*
X00894500Y00851250D01*
Y00863500D01*
X00894500Y00863500D02*
X00894500Y00863500D01*
X00894500Y00863500D02*
Y00875750D01*
Y00888000D01*
Y00899750D01*
X00895000Y00900250D01*
X00893450D02*
X00895000D01*
X00881200Y00912500D02*
X00893450Y00900250D01*
X00880250Y00912500D02*
X00881200D01*
X00983898Y00888144D02*
Y00892894D01*
Y00888144D02*
X00990894D01*
X00999250Y00896500D01*
Y00899000D01*
X01038500Y00893178D02*
Y00901450D01*
X01036572Y00891250D02*
X01038500Y00893178D01*
X01022500Y00904450D02*
X01025500Y00901450D01*
X01038500D02*
X01041500Y00904450D01*
X01038500Y00915500D02*
X01041500Y00912500D01*
Y00904450D02*
Y00912500D01*
X01022500Y00904450D02*
Y00912750D01*
X01025250Y00915500D01*
X01038500D01*
X01023700Y00879250D02*
X01025500Y00881050D01*
X00983898Y00884602D02*
Y00888144D01*
Y00884602D02*
X00989250Y00879250D01*
X01023700D01*
X01025500Y00881050D02*
Y00889322D01*
X01027428Y00891250D01*
X00929500Y00850000D02*
X00936750Y00857250D01*
X00910500Y00814800D02*
Y00826000D01*
Y00814800D02*
X00911300Y00814000D01*
X00928700D02*
Y00825200D01*
X00929500Y00826000D01*
X00900250Y00758500D02*
X00901950Y00756800D01*
X00900250Y00758500D02*
Y00821000D01*
X00911750Y00803750D02*
X00918450D01*
X00928700Y00814000D01*
X00958250Y00793500D02*
Y00801000D01*
X00928700Y00814000D02*
X00932750Y00809950D01*
Y00800750D02*
Y00809950D01*
X01050500Y00911500D02*
X01062750D01*
X01042500D02*
X01050500D01*
X01041500Y00912500D02*
X01042500Y00911500D01*
X01033700Y00863250D02*
X01041450Y00871000D01*
X01036572Y00891250D02*
X01038250D01*
X01041500Y00888000D01*
Y00887800D02*
Y00888000D01*
Y00887800D02*
X01041700D01*
X01042696Y00886804D01*
Y00886804D02*
Y00886804D01*
Y00886804D02*
X01046125Y00883375D01*
Y00871125D02*
Y00883375D01*
Y00871125D02*
X01046250Y00871000D01*
X01041450D02*
X01046250D01*
X01062000D01*
X00943275Y00777025D02*
X00945500Y00779250D01*
X00925760Y00777025D02*
X00943275D01*
X00945500Y00779250D02*
Y00779500D01*
X01035000Y00724000D02*
X01039000Y00728000D01*
X00923500Y00774765D02*
Y00786500D01*
X00911750Y00803750D02*
X00916250Y00799250D01*
Y00793750D02*
X00923500Y00786500D01*
X00916250Y00793750D02*
Y00799250D01*
X01037750Y00729250D02*
X01039000Y00728000D01*
X01037750Y00729250D02*
Y00759250D01*
X01032500Y00764500D02*
X01037750Y00759250D01*
X01026750Y00764500D02*
X01032500D01*
X00912368Y00756800D02*
X00918300D01*
X00901950D02*
X00912368D01*
X00943015Y00755250D02*
X00952750D01*
X00923500Y00774765D02*
X00925760Y00777025D01*
X00923500Y00774765D02*
X00943015Y00755250D01*
X00941750Y00753985D02*
X00943015Y00755250D01*
X00941750Y00726050D02*
X00943800Y00724000D01*
X00941750Y00726050D02*
Y00753985D01*
X00923500Y00837250D02*
X00929500Y00843250D01*
Y00850000D01*
X00910500Y00842750D02*
Y00850000D01*
Y00842750D02*
X00916000Y00837250D01*
X01023750Y00856000D02*
X01054000D01*
X01055000Y00857000D01*
X00998500Y00848500D02*
Y00853000D01*
X00894500Y00839000D02*
X00894500Y00839000D01*
Y00826750D02*
Y00839000D01*
X00939500Y00767250D02*
X00940000Y00766750D01*
D20*
X00987793Y00870042D02*
X01031300D01*
X00980540Y00862790D02*
X00987793Y00870042D01*
X00913644Y00893144D02*
X00939898D01*
X00908750Y00898038D02*
X00913644Y00893144D01*
X00908750Y00898038D02*
Y00900250D01*
X00901500Y00875750D02*
X00906000Y00871250D01*
X00894500Y00875750D02*
X00901500D01*
X01032000Y00901450D02*
Y00909000D01*
X01038500Y00876000D02*
Y00881050D01*
X01032042Y00869542D02*
X01038500Y00876000D01*
X01031542Y00870042D02*
X01032042Y00869542D01*
X01031300Y00870042D02*
X01031542D01*
X00906000Y00871250D02*
X00906000D01*
X00914460Y00862790D01*
X00980540D01*
D21*
X00953000Y00838750D02*
Y00847750D01*
X00953500Y00848250D01*
X00932750Y00729000D02*
Y00734000D01*
Y00744000D02*
Y00753000D01*
X00932250Y00753500D02*
X00932750Y00753000D01*
X00930750Y00736000D02*
X00932750Y00734000D01*
X00924500Y00736000D02*
X00930750D01*
X00919500Y00741000D02*
X00924500Y00736000D01*
X00919500Y00741000D02*
Y00744000D01*
Y00748750D01*
X00924500Y00753750D01*
D22*
X01024750Y00847500D02*
D03*
X01033000Y00822250D02*
D03*
X01024800Y00803289D02*
D03*
X01011250Y00819250D02*
D03*
X01010000Y00797500D02*
D03*
X00996000Y00772750D02*
D03*
X00987500Y00786250D02*
D03*
X01002750Y00857250D02*
D03*
X00967500Y00835250D02*
D03*
X00953000Y00838750D02*
D03*
X00972000Y00740750D02*
D03*
X00955750Y00822250D02*
D03*
X00899250Y00749500D02*
D03*
X00970750Y00886250D02*
D03*
X00931250Y00911250D02*
D03*
X00962750Y00912750D02*
D03*
X01013250Y00888750D02*
D03*
X00905250Y00860500D02*
D03*
X01048696Y00889289D02*
D03*
X00910250Y00792500D02*
D03*
X00939500Y00767250D02*
D03*
X00922750Y00798000D02*
D03*
X00932250Y00753500D02*
D03*
X00924500Y00753750D02*
D03*
X01046500Y00789750D02*
D03*
X01039750Y00779750D02*
D03*
X01003500Y00773750D02*
D03*
X01045250Y00766000D02*
D03*
X01012299Y00779538D02*
D03*
D23*
X00989250Y00879250D02*
D03*
X01032000Y00909000D02*
D03*
X01031300Y00870042D02*
D03*
X00911750Y00803750D02*
D03*
X01063750Y00728500D02*
D03*
X01023750Y00856000D02*
D03*
X00923490Y00837250D02*
D03*
D24*
X01038500Y00881050D02*
D03*
X01032000D02*
D03*
X01025500D02*
D03*
X01038500Y00901450D02*
D03*
X01032000D02*
D03*
X01025500D02*
D03*
D25*
X01036572Y00891250D02*
D03*
X01027428D02*
D03*
D26*
X00912368Y00783216D02*
D03*
Y00776612D02*
D03*
Y00770008D02*
D03*
Y00763404D02*
D03*
Y00756800D02*
D03*
D27*
X00884936Y00732670D02*
D03*
Y00807600D02*
D03*
D28*
X00983898Y00908144D02*
D03*
Y00903144D02*
D03*
Y00898144D02*
D03*
Y00893144D02*
D03*
Y00888144D02*
D03*
X00939898Y00908144D02*
D03*
Y00903144D02*
D03*
Y00898144D02*
D03*
Y00893144D02*
D03*
Y00888144D02*
D03*
D29*
X00944000Y00848250D02*
D03*
X00953500D02*
D03*
X00963000D02*
D03*
Y00824250D02*
D03*
X00944000D02*
D03*
X00910500Y00850000D02*
D03*
X00920000D02*
D03*
X00929500D02*
D03*
Y00826000D02*
D03*
X00910500D02*
D03*
D30*
X00880000Y00900250D02*
D03*
X00895000D02*
D03*
X00895250Y00912500D02*
D03*
X00880250D02*
D03*
X00907750Y00912250D02*
D03*
X00922750D02*
D03*
X01013750Y00912250D02*
D03*
X00998750D02*
D03*
X00960000Y00871250D02*
D03*
X00975000D02*
D03*
X00949500Y00871250D02*
D03*
X00934500D02*
D03*
X00921000D02*
D03*
X00906000D02*
D03*
X01039000Y00728000D02*
D03*
X01054000D02*
D03*
D31*
X00894500Y00875750D02*
D03*
X00880500D02*
D03*
X00894500Y00863500D02*
D03*
X00880500D02*
D03*
X00894500Y00888000D02*
D03*
X00880500D02*
D03*
X00894500Y00839000D02*
D03*
X00880500D02*
D03*
X00880500Y00851250D02*
D03*
X00894500D02*
D03*
Y00826750D02*
D03*
X00880500D02*
D03*
X00999250Y00899000D02*
D03*
X01013250D02*
D03*
X01032500Y00846500D02*
D03*
X01016500D02*
D03*
X01032500Y00831250D02*
D03*
X01016500D02*
D03*
D32*
X00921750Y00885500D02*
D03*
Y00900500D02*
D03*
X00907250Y00885500D02*
D03*
Y00900500D02*
D03*
X00999750Y00848500D02*
D03*
Y00833500D02*
D03*
X01027750Y00725500D02*
D03*
Y00740500D02*
D03*
X01003000Y00725750D02*
D03*
Y00740750D02*
D03*
X00919500Y00744000D02*
D03*
Y00729000D02*
D03*
X00932750Y00744000D02*
D03*
Y00729000D02*
D03*
D33*
X00980750Y00836000D02*
D03*
D34*
X00988250Y00825550D02*
D03*
X00983250D02*
D03*
X00978250D02*
D03*
X00973250D02*
D03*
X00988250Y00846450D02*
D03*
X00983250D02*
D03*
X00978250D02*
D03*
X00973250D02*
D03*
D35*
X01050500Y00911500D02*
D03*
Y00897500D02*
D03*
X01062750Y00911500D02*
D03*
Y00897500D02*
D03*
X01062000Y00885000D02*
D03*
Y00871000D02*
D03*
X00999750Y00822500D02*
D03*
Y00808500D02*
D03*
X00987500Y00811250D02*
D03*
Y00797250D02*
D03*
X00932750Y00786750D02*
D03*
Y00800750D02*
D03*
X00958250Y00793500D02*
D03*
Y00779500D02*
D03*
X00945500Y00779500D02*
D03*
Y00793500D02*
D03*
D36*
X00999500Y00783000D02*
D03*
X00999750Y00796000D02*
D03*
D37*
X00974750Y00812200D02*
D03*
Y00794800D02*
D03*
D38*
X00944800Y00806750D02*
D03*
X00962200D02*
D03*
X00911300Y00814000D02*
D03*
X00928700D02*
D03*
D39*
X01034250Y00786750D02*
D03*
X01029250D02*
D03*
X01024250D02*
D03*
X01019250D02*
D03*
Y00809750D02*
D03*
X01024250D02*
D03*
X01029250D02*
D03*
X01034250D02*
D03*
D40*
X01017750Y00793250D02*
D03*
Y00798250D02*
D03*
Y00803250D02*
D03*
X01035750D02*
D03*
Y00798250D02*
D03*
Y00793250D02*
D03*
D41*
X01055000Y00857000D02*
D03*
Y00845250D02*
D03*
D42*
X01029850Y00797350D02*
Y00801500D01*
X01025750Y00793250D02*
X01029850Y00797350D01*
X01017750Y00793250D02*
X01025750D01*
X01031600Y00803250D02*
X01035750D01*
X01029850Y00801500D02*
X01031600Y00803250D01*
M02*
