G04*
G04 #@! TF.GenerationSoftware,Altium Limited,Altium Designer,18.0.11 (651)*
G04*
G04 Layer_Physical_Order=1*
G04 Layer_Color=255*
%FSAX44Y44*%
%MOMM*%
G71*
G01*
G75*
%ADD15R,1.5000X0.9000*%
%ADD16R,1.5000X0.9500*%
%ADD17R,0.9500X1.5000*%
%ADD18C,0.2540*%
%ADD19C,0.4000*%
%ADD20C,0.3500*%
%ADD21C,0.2500*%
%ADD22C,0.5000*%
%ADD23C,0.6000*%
G36*
X01068832Y00918718D02*
Y00915500D01*
X01061446D01*
Y00908000D01*
X01060196D01*
Y00906750D01*
X01049696D01*
Y00900500D01*
X01051196D01*
Y00895644D01*
X01049946Y00894668D01*
Y00889289D01*
Y00883910D01*
X01051196Y00882934D01*
Y00881061D01*
X01031753Y00861618D01*
X01031141Y00860702D01*
X01030926Y00859621D01*
X01030926Y00859621D01*
Y00850443D01*
X01029656Y00850058D01*
X01028715Y00851465D01*
X01027905Y00852007D01*
X01026994Y00852756D01*
X01027989Y00854244D01*
X01028338Y00856000D01*
X01027989Y00857756D01*
X01027319Y00858759D01*
Y00860000D01*
X01027047Y00861366D01*
X01026273Y00862523D01*
X01007023Y00881773D01*
X01005866Y00882547D01*
X01004500Y00882819D01*
X00992009D01*
X00991006Y00883489D01*
X00989250Y00883838D01*
X00987494Y00883489D01*
X00986006Y00882494D01*
X00985011Y00881006D01*
X00984662Y00879250D01*
X00985011Y00877494D01*
X00986006Y00876006D01*
X00987494Y00875011D01*
X00989250Y00874662D01*
X00991006Y00875011D01*
X00992009Y00875681D01*
X01003022D01*
X01020086Y00858617D01*
X01019511Y00857756D01*
X01019162Y00856000D01*
X01019511Y00854244D01*
X01020506Y00852756D01*
X01020588Y00852701D01*
X01020589Y00851172D01*
X01019569Y00849646D01*
X01019391Y00848750D01*
X01024750D01*
Y00847500D01*
X01026000D01*
Y00842141D01*
X01026896Y00842319D01*
X01028715Y00843535D01*
X01029656Y00844942D01*
X01030926Y00844557D01*
Y00829670D01*
X01026330Y00825074D01*
X01023500D01*
X01022419Y00824859D01*
X01021503Y00824247D01*
X01021503Y00824247D01*
X01017752Y00820496D01*
X01016536Y00820865D01*
X01016431Y00821396D01*
X01015215Y00823215D01*
X01013396Y00824431D01*
X01012500Y00824609D01*
Y00819250D01*
X01011250D01*
Y00818000D01*
X01005891D01*
X01006069Y00817104D01*
X01007285Y00815285D01*
X01009104Y00814069D01*
X01009635Y00813963D01*
X01010004Y00812748D01*
X00987570Y00790314D01*
X00987500Y00790328D01*
X00985939Y00790018D01*
X00984616Y00789134D01*
X00983732Y00787811D01*
X00983422Y00786250D01*
X00983732Y00784689D01*
X00984616Y00783366D01*
X00985939Y00782482D01*
X00987500Y00782172D01*
X00989061Y00782482D01*
X00990384Y00783366D01*
X00991268Y00784689D01*
X00991578Y00786250D01*
X00991564Y00786320D01*
X01005510Y00800266D01*
X01006496Y00799456D01*
X01006232Y00799061D01*
X01005922Y00797500D01*
X01006232Y00795939D01*
X01007116Y00794616D01*
X01008439Y00793732D01*
X01010000Y00793422D01*
X01011561Y00793732D01*
X01012884Y00794616D01*
X01013768Y00795939D01*
X01014078Y00797500D01*
X01013768Y00799061D01*
X01012884Y00800384D01*
X01012824Y00800424D01*
Y00801867D01*
X01024508Y00813551D01*
X01034875D01*
X01034875Y00813551D01*
X01035956Y00813766D01*
X01036872Y00814378D01*
X01038752Y00816258D01*
X01039926Y00815772D01*
Y00794623D01*
X01028627Y00783324D01*
X01013768D01*
X01012299Y00783616D01*
X01010739Y00783306D01*
X01009416Y00782422D01*
X01008531Y00781099D01*
X01008221Y00779538D01*
X01008531Y00777977D01*
X01009416Y00776654D01*
X01010739Y00775770D01*
X01012299Y00775460D01*
X01013860Y00775770D01*
X01015183Y00776654D01*
X01015866Y00777676D01*
X01029797D01*
X01029797Y00777676D01*
X01030878Y00777891D01*
X01031794Y00778503D01*
X01032922Y00779631D01*
X01034258Y00779170D01*
X01034569Y00777604D01*
X01035785Y00775785D01*
X01037604Y00774569D01*
X01038500Y00774391D01*
Y00779750D01*
X01039750D01*
Y00781000D01*
X01045109D01*
X01044931Y00781896D01*
X01043715Y00783715D01*
X01041896Y00784931D01*
X01040330Y00785242D01*
X01039869Y00786578D01*
X01041527Y00788235D01*
X01042950Y00787863D01*
X01043616Y00786866D01*
X01044478Y00786290D01*
X01044503Y00786253D01*
X01045419Y00785641D01*
X01046500Y00785426D01*
X01047581Y00785641D01*
X01048497Y00786253D01*
X01048560Y00786315D01*
X01049384Y00786866D01*
X01049926Y00787678D01*
X01051196Y00787450D01*
Y00787250D01*
X01051196D01*
Y00774750D01*
X01051196D01*
Y00774550D01*
X01051196D01*
Y00769287D01*
X01049926Y00768902D01*
X01049215Y00769965D01*
X01047396Y00771181D01*
X01046500Y00771359D01*
Y00766000D01*
Y00760641D01*
X01047396Y00760819D01*
X01049215Y00762035D01*
X01049362Y00762255D01*
X01050939Y00762329D01*
X01051196Y00762050D01*
Y00761850D01*
X01051196D01*
Y00749350D01*
X01051196D01*
Y00749150D01*
X01051196D01*
Y00736650D01*
X01060926D01*
Y00732025D01*
X01060506Y00731744D01*
X01059511Y00730256D01*
X01059162Y00728500D01*
X01059511Y00726744D01*
X01060506Y00725256D01*
X01061994Y00724261D01*
X01063750Y00723912D01*
X01065506Y00724261D01*
X01066994Y00725256D01*
X01067562Y00726105D01*
X01068832Y00725720D01*
Y00720090D01*
X01034846D01*
Y00727650D01*
X01027096D01*
Y00728900D01*
X01025846D01*
Y00739400D01*
X01019346D01*
Y00737900D01*
X01008146D01*
Y00737900D01*
X01007946D01*
Y00737900D01*
X00995446D01*
Y00737900D01*
X00995246D01*
Y00737900D01*
X00982746D01*
Y00737900D01*
X00982546D01*
Y00737900D01*
X00978122D01*
X00977293Y00739170D01*
X00977359Y00739500D01*
X00966641D01*
X00966707Y00739170D01*
X00965878Y00737900D01*
X00957346D01*
Y00737900D01*
X00957146D01*
Y00737900D01*
X00944646D01*
Y00737900D01*
X00944446D01*
Y00737900D01*
X00931946D01*
Y00737900D01*
X00931746D01*
Y00737900D01*
X00920546D01*
Y00739400D01*
X00914046D01*
Y00728900D01*
X00912796D01*
Y00727650D01*
X00905046D01*
Y00720090D01*
X00870712D01*
Y00736650D01*
X00888696D01*
Y00749150D01*
X00888696D01*
Y00749350D01*
X00888696D01*
Y00761850D01*
X00888696D01*
Y00762050D01*
X00888696D01*
Y00773764D01*
X00889966Y00774290D01*
X00918023Y00746233D01*
X00918023Y00746233D01*
X00918939Y00745621D01*
X00920020Y00745406D01*
X00966969D01*
X00967647Y00744136D01*
X00966819Y00742896D01*
X00966641Y00742000D01*
X00977359D01*
X00977181Y00742896D01*
X00976352Y00744136D01*
X00977031Y00745406D01*
X00984480D01*
X00984480Y00745406D01*
X00985561Y00745621D01*
X00986477Y00746233D01*
X01005497Y00765253D01*
X01006109Y00766169D01*
X01006324Y00767250D01*
X01006324Y00767250D01*
Y00770826D01*
X01006384Y00770866D01*
X01007268Y00772189D01*
X01007578Y00773750D01*
X01007268Y00775311D01*
X01006384Y00776634D01*
X01005061Y00777518D01*
X01003500Y00777828D01*
X01001939Y00777518D01*
X01001260Y00777064D01*
X00999965Y00776715D01*
X00998491Y00777701D01*
X00998125Y00779131D01*
X01004420Y00785426D01*
X01014203D01*
X01014203Y00785426D01*
X01015284Y00785641D01*
X01016200Y00786253D01*
X01026797Y00796850D01*
X01026797Y00796850D01*
X01027409Y00797766D01*
X01027624Y00798847D01*
X01027624Y00798847D01*
Y00800366D01*
X01027684Y00800405D01*
X01028568Y00801729D01*
X01028878Y00803289D01*
X01028568Y00804850D01*
X01027684Y00806173D01*
X01026361Y00807057D01*
X01024800Y00807367D01*
X01023239Y00807057D01*
X01021916Y00806173D01*
X01021032Y00804850D01*
X01020722Y00803289D01*
X01021032Y00801729D01*
X01021916Y00800405D01*
X01021269Y00799310D01*
X01013033Y00791074D01*
X01003250D01*
X01003250Y00791074D01*
X01002169Y00790859D01*
X01001253Y00790247D01*
X00991080Y00780074D01*
X00981420D01*
X00967074Y00794420D01*
Y00804250D01*
X00966859Y00805331D01*
X00966247Y00806247D01*
X00966247Y00806247D01*
X00955557Y00816937D01*
X00955623Y00817358D01*
X00956057Y00818233D01*
X00957311Y00818482D01*
X00957609Y00818681D01*
X00968500D01*
X00969866Y00818953D01*
X00971023Y00819727D01*
X01005273Y00853977D01*
X01005453Y00854245D01*
X01005634Y00854366D01*
X01006518Y00855689D01*
X01006828Y00857250D01*
X01006518Y00858811D01*
X01005634Y00860134D01*
X01004311Y00861018D01*
X01002750Y00861328D01*
X01001189Y00861018D01*
X00999866Y00860134D01*
X00998982Y00858811D01*
X00998726Y00857523D01*
X00973770Y00832567D01*
X00973268Y00832815D01*
X00972723Y00833316D01*
X00972859Y00834000D01*
X00968750D01*
Y00829891D01*
X00969434Y00830027D01*
X00969935Y00829482D01*
X00970183Y00828980D01*
X00967022Y00825819D01*
X00957609D01*
X00957311Y00826018D01*
X00955750Y00826328D01*
X00954189Y00826018D01*
X00952866Y00825134D01*
X00951982Y00823811D01*
X00951733Y00822557D01*
X00950858Y00822123D01*
X00950437Y00822057D01*
X00934074Y00838420D01*
Y00841250D01*
X00933859Y00842331D01*
X00933247Y00843247D01*
X00930497Y00845997D01*
X00929581Y00846609D01*
X00928500Y00846824D01*
X00928500Y00846824D01*
X00920761D01*
X00920761Y00846824D01*
X00919681Y00846609D01*
X00918764Y00845997D01*
X00913503Y00840736D01*
X00912891Y00839819D01*
X00912676Y00838739D01*
X00912676Y00838738D01*
Y00825000D01*
X00912676Y00825000D01*
X00912891Y00823919D01*
X00913503Y00823003D01*
X00946426Y00790080D01*
Y00763170D01*
X00944850Y00761594D01*
X00928900D01*
X00900830Y00789664D01*
Y00800266D01*
X00902004Y00800752D01*
X00906285Y00796471D01*
X00906285Y00796465D01*
X00905069Y00794646D01*
X00904891Y00793750D01*
X00910250D01*
Y00792500D01*
X00911500D01*
Y00787141D01*
X00912396Y00787319D01*
X00914215Y00788535D01*
X00914221Y00788535D01*
X00935436Y00767320D01*
X00935422Y00767250D01*
X00935732Y00765689D01*
X00936616Y00764366D01*
X00937939Y00763482D01*
X00939500Y00763172D01*
X00941061Y00763482D01*
X00942384Y00764366D01*
X00943268Y00765689D01*
X00943578Y00767250D01*
X00943268Y00768811D01*
X00942384Y00770134D01*
X00941061Y00771018D01*
X00939500Y00771328D01*
X00939430Y00771314D01*
X00919021Y00791723D01*
X00919105Y00792293D01*
X00920480Y00792902D01*
X00920604Y00792819D01*
X00921500Y00792641D01*
Y00798000D01*
Y00803359D01*
X00920604Y00803181D01*
X00918785Y00801965D01*
X00917569Y00800146D01*
X00917283Y00798710D01*
X00916139Y00798363D01*
X00915120Y00799165D01*
X00914994Y00800506D01*
X00915989Y00801994D01*
X00916338Y00803750D01*
X00915989Y00805506D01*
X00914994Y00806994D01*
X00913506Y00807989D01*
X00912322Y00808224D01*
X00910385Y00810162D01*
Y00850449D01*
X00910113Y00851814D01*
X00909339Y00852972D01*
X00908057Y00854254D01*
X00908231Y00855877D01*
X00909215Y00856535D01*
X00910431Y00858354D01*
X00910609Y00859250D01*
X00905250D01*
Y00860500D01*
X00904000D01*
Y00865948D01*
X00902819Y00866901D01*
Y00869000D01*
X00902547Y00870366D01*
X00901773Y00871523D01*
X00888696Y00884601D01*
Y00888600D01*
X00888696D01*
Y00889300D01*
X00888696D01*
Y00900500D01*
X00890196D01*
Y00906750D01*
X00879696D01*
Y00908000D01*
X00878446D01*
Y00915500D01*
X00870712D01*
Y00918972D01*
X00959876D01*
X00960262Y00917702D01*
X00958785Y00916715D01*
X00957569Y00914896D01*
X00957391Y00914000D01*
X00968109D01*
X00967931Y00914896D01*
X00966715Y00916715D01*
X00965238Y00917702D01*
X00965624Y00918972D01*
X01068578D01*
X01068832Y00918718D01*
D02*
G37*
G36*
X00929253Y00835253D02*
X00961426Y00803080D01*
Y00793250D01*
X00961426Y00793250D01*
X00961641Y00792169D01*
X00962253Y00791253D01*
X00978253Y00775253D01*
X00978253Y00775253D01*
X00979169Y00774641D01*
X00980250Y00774426D01*
X00980250Y00774426D01*
X00989725D01*
X00990074Y00774000D01*
X00996000D01*
Y00772750D01*
X00997250D01*
Y00766996D01*
X00998244Y00766294D01*
X00998284Y00766028D01*
X00983310Y00751054D01*
X00950816D01*
X00950290Y00752324D01*
X00956233Y00758267D01*
X00956840Y00759177D01*
X00957054Y00760250D01*
Y00793750D01*
X00956840Y00794823D01*
X00956233Y00795733D01*
X00926293Y00825673D01*
Y00833711D01*
X00926734Y00834006D01*
X00927647Y00835371D01*
X00928306Y00835529D01*
X00929039Y00835573D01*
X00929253Y00835253D01*
D02*
G37*
%LPC*%
G36*
X00932500Y00916609D02*
Y00912500D01*
X00936609D01*
X00936431Y00913396D01*
X00935215Y00915215D01*
X00933396Y00916431D01*
X00932500Y00916609D01*
D02*
G37*
G36*
X00930000D02*
X00929104Y00916431D01*
X00927285Y00915215D01*
X00926069Y00913396D01*
X00925891Y00912500D01*
X00930000D01*
Y00916609D01*
D02*
G37*
G36*
X01058946Y00915500D02*
X01049696D01*
Y00909250D01*
X01058946D01*
Y00915500D01*
D02*
G37*
G36*
X00890196D02*
X00880946D01*
Y00909250D01*
X00890196D01*
Y00915500D01*
D02*
G37*
G36*
X00968109Y00911500D02*
X00964000D01*
Y00907391D01*
X00964896Y00907569D01*
X00966715Y00908785D01*
X00967931Y00910604D01*
X00968109Y00911500D01*
D02*
G37*
G36*
X00961500D02*
X00957391D01*
X00957569Y00910604D01*
X00958785Y00908785D01*
X00960604Y00907569D01*
X00961500Y00907391D01*
Y00911500D01*
D02*
G37*
G36*
X00936609Y00910000D02*
X00932500D01*
Y00905891D01*
X00933396Y00906069D01*
X00935215Y00907285D01*
X00936431Y00909104D01*
X00936609Y00910000D01*
D02*
G37*
G36*
X00930000D02*
X00925891D01*
X00926069Y00909104D01*
X00927285Y00907285D01*
X00929104Y00906069D01*
X00930000Y00905891D01*
Y00910000D01*
D02*
G37*
G36*
X01047446Y00894648D02*
X01046550Y00894470D01*
X01044731Y00893254D01*
X01043515Y00891435D01*
X01043337Y00890539D01*
X01047446D01*
Y00894648D01*
D02*
G37*
G36*
X01014500Y00894109D02*
Y00890000D01*
X01018609D01*
X01018431Y00890896D01*
X01017215Y00892715D01*
X01015396Y00893931D01*
X01014500Y00894109D01*
D02*
G37*
G36*
X01012000D02*
X01011104Y00893931D01*
X01009285Y00892715D01*
X01008069Y00890896D01*
X01007891Y00890000D01*
X01012000D01*
Y00894109D01*
D02*
G37*
G36*
X00972000Y00891609D02*
Y00887500D01*
X00976109D01*
X00975931Y00888396D01*
X00974715Y00890215D01*
X00972896Y00891431D01*
X00972000Y00891609D01*
D02*
G37*
G36*
X00969500D02*
X00968604Y00891431D01*
X00966785Y00890215D01*
X00965569Y00888396D01*
X00965391Y00887500D01*
X00969500D01*
Y00891609D01*
D02*
G37*
G36*
X01047446Y00888039D02*
X01043337D01*
X01043515Y00887143D01*
X01044731Y00885324D01*
X01046550Y00884108D01*
X01047446Y00883930D01*
Y00888039D01*
D02*
G37*
G36*
X01018609Y00887500D02*
X01014500D01*
Y00883391D01*
X01015396Y00883569D01*
X01017215Y00884785D01*
X01018431Y00886604D01*
X01018609Y00887500D01*
D02*
G37*
G36*
X01012000D02*
X01007891D01*
X01008069Y00886604D01*
X01009285Y00884785D01*
X01011104Y00883569D01*
X01012000Y00883391D01*
Y00887500D01*
D02*
G37*
G36*
X00976109Y00885000D02*
X00972000D01*
Y00880891D01*
X00972896Y00881069D01*
X00974715Y00882285D01*
X00975931Y00884104D01*
X00976109Y00885000D01*
D02*
G37*
G36*
X00969500D02*
X00965391D01*
X00965569Y00884104D01*
X00966785Y00882285D01*
X00968604Y00881069D01*
X00969500Y00880891D01*
Y00885000D01*
D02*
G37*
G36*
X01032000Y00913588D02*
X01030244Y00913239D01*
X01028756Y00912244D01*
X01027761Y00910756D01*
X01027412Y00909000D01*
X01027761Y00907244D01*
X01027987Y00906907D01*
Y00873183D01*
X01027061Y00871798D01*
X01026712Y00870042D01*
X01027061Y00868287D01*
X01028056Y00866798D01*
X01029545Y00865804D01*
X01031300Y00865454D01*
X01033056Y00865804D01*
X01034545Y00866798D01*
X01035539Y00868287D01*
X01035889Y00870042D01*
X01035539Y00871798D01*
X01034614Y00873183D01*
Y00905334D01*
X01035244Y00905756D01*
X01036239Y00907244D01*
X01036588Y00909000D01*
X01036239Y00910756D01*
X01035244Y00912244D01*
X01033756Y00913239D01*
X01032000Y00913588D01*
D02*
G37*
G36*
X00906500Y00865859D02*
Y00861750D01*
X00910609D01*
X00910431Y00862646D01*
X00909215Y00864465D01*
X00907396Y00865681D01*
X00906500Y00865859D01*
D02*
G37*
G36*
X01023500Y00846250D02*
X01019391D01*
X01019569Y00845354D01*
X01020785Y00843535D01*
X01022604Y00842319D01*
X01023500Y00842141D01*
Y00846250D01*
D02*
G37*
G36*
X00954250Y00844109D02*
Y00840000D01*
X00958359D01*
X00958181Y00840896D01*
X00956965Y00842715D01*
X00955146Y00843931D01*
X00954250Y00844109D01*
D02*
G37*
G36*
X00951750D02*
X00950854Y00843931D01*
X00949035Y00842715D01*
X00947819Y00840896D01*
X00947641Y00840000D01*
X00951750D01*
Y00844109D01*
D02*
G37*
G36*
X00968750Y00840609D02*
Y00836500D01*
X00972859D01*
X00972681Y00837396D01*
X00971465Y00839215D01*
X00969646Y00840431D01*
X00968750Y00840609D01*
D02*
G37*
G36*
X00966250D02*
X00965354Y00840431D01*
X00963535Y00839215D01*
X00962319Y00837396D01*
X00962141Y00836500D01*
X00966250D01*
Y00840609D01*
D02*
G37*
G36*
X00958359Y00837500D02*
X00954250D01*
Y00833391D01*
X00955146Y00833569D01*
X00956965Y00834785D01*
X00958181Y00836604D01*
X00958359Y00837500D01*
D02*
G37*
G36*
X00951750D02*
X00947641D01*
X00947819Y00836604D01*
X00949035Y00834785D01*
X00950854Y00833569D01*
X00951750Y00833391D01*
Y00837500D01*
D02*
G37*
G36*
X00966250Y00834000D02*
X00962141D01*
X00962319Y00833104D01*
X00963535Y00831285D01*
X00965354Y00830069D01*
X00966250Y00829891D01*
Y00834000D01*
D02*
G37*
G36*
X01010000Y00824609D02*
X01009104Y00824431D01*
X01007285Y00823215D01*
X01006069Y00821396D01*
X01005891Y00820500D01*
X01010000D01*
Y00824609D01*
D02*
G37*
G36*
X00924000Y00803359D02*
Y00799250D01*
X00928109D01*
X00927931Y00800146D01*
X00926715Y00801965D01*
X00924896Y00803181D01*
X00924000Y00803359D01*
D02*
G37*
G36*
X00928109Y00796750D02*
X00924000D01*
Y00792641D01*
X00924896Y00792819D01*
X00926715Y00794035D01*
X00927931Y00795854D01*
X00928109Y00796750D01*
D02*
G37*
G36*
X00909000Y00791250D02*
X00904891D01*
X00905069Y00790354D01*
X00906285Y00788535D01*
X00908104Y00787319D01*
X00909000Y00787141D01*
Y00791250D01*
D02*
G37*
G36*
X01045109Y00778500D02*
X01041000D01*
Y00774391D01*
X01041896Y00774569D01*
X01043715Y00775785D01*
X01044931Y00777604D01*
X01045109Y00778500D01*
D02*
G37*
G36*
X01044000Y00771359D02*
X01043104Y00771181D01*
X01041285Y00769965D01*
X01040069Y00768146D01*
X01039891Y00767250D01*
X01044000D01*
Y00771359D01*
D02*
G37*
G36*
Y00764750D02*
X01039891D01*
X01040069Y00763854D01*
X01041285Y00762035D01*
X01043104Y00760819D01*
X01044000Y00760641D01*
Y00764750D01*
D02*
G37*
G36*
X00900500Y00754859D02*
Y00750750D01*
X00904609D01*
X00904431Y00751646D01*
X00903215Y00753465D01*
X00901396Y00754681D01*
X00900500Y00754859D01*
D02*
G37*
G36*
X00898000D02*
X00897104Y00754681D01*
X00895285Y00753465D01*
X00894069Y00751646D01*
X00893891Y00750750D01*
X00898000D01*
Y00754859D01*
D02*
G37*
G36*
X00904609Y00748250D02*
X00900500D01*
Y00744141D01*
X00901396Y00744319D01*
X00903215Y00745535D01*
X00904431Y00747354D01*
X00904609Y00748250D01*
D02*
G37*
G36*
X00898000D02*
X00893891D01*
X00894069Y00747354D01*
X00895285Y00745535D01*
X00897104Y00744319D01*
X00898000Y00744141D01*
Y00748250D01*
D02*
G37*
G36*
X01034846Y00739400D02*
X01028346D01*
Y00730150D01*
X01034846D01*
Y00739400D01*
D02*
G37*
G36*
X00911546D02*
X00905046D01*
Y00730150D01*
X00911546D01*
Y00739400D01*
D02*
G37*
G36*
X00994750Y00771500D02*
X00990641D01*
X00990819Y00770604D01*
X00992035Y00768785D01*
X00993854Y00767569D01*
X00994750Y00767391D01*
Y00771500D01*
D02*
G37*
%LPD*%
D15*
X01060196Y00908000D02*
D03*
Y00895300D02*
D03*
Y00882600D02*
D03*
X00879696D02*
D03*
Y00895300D02*
D03*
Y00908000D02*
D03*
D16*
X01060196Y00869900D02*
D03*
Y00857200D02*
D03*
Y00844500D02*
D03*
Y00831800D02*
D03*
Y00819100D02*
D03*
Y00806400D02*
D03*
Y00793700D02*
D03*
Y00781000D02*
D03*
Y00768300D02*
D03*
Y00755600D02*
D03*
Y00742900D02*
D03*
X00879696D02*
D03*
Y00755600D02*
D03*
Y00768300D02*
D03*
Y00781000D02*
D03*
Y00793700D02*
D03*
Y00806400D02*
D03*
Y00819100D02*
D03*
Y00831800D02*
D03*
Y00844500D02*
D03*
Y00857200D02*
D03*
Y00869900D02*
D03*
D17*
X01027096Y00728900D02*
D03*
X01014396D02*
D03*
X01001696D02*
D03*
X00988996D02*
D03*
X00976296D02*
D03*
X00963596D02*
D03*
X00950896D02*
D03*
X00938196D02*
D03*
X00925496D02*
D03*
X00912796D02*
D03*
D18*
X01023500Y00822250D02*
X01033000D01*
X01038500Y00820000D02*
Y00855000D01*
X01034875Y00816375D02*
X01038500Y00820000D01*
X01042750Y00793453D02*
Y00850000D01*
X01047500Y00789250D02*
Y00839250D01*
X01024800Y00798847D02*
Y00803289D01*
X01014203Y00788250D02*
X01024800Y00798847D01*
X00987500Y00786250D02*
X01023500Y00822250D01*
X01010000Y00797500D02*
Y00803037D01*
X01023338Y00816375D01*
X01034875D01*
X01033750Y00859621D02*
X01056729Y00882600D01*
X01060196D01*
X01059196Y00843500D02*
X01060196Y00844500D01*
X01059770Y00859000D02*
X01061322Y00860552D01*
X01052750Y00844500D02*
X01060196D01*
X01047500Y00839250D02*
X01052750Y00844500D01*
X01060196Y00742900D02*
X01063750Y00739346D01*
Y00728500D02*
Y00739346D01*
X01053400Y00869900D02*
X01060196D01*
X01049950Y00857200D02*
X01060196D01*
X01042750Y00850000D02*
X01049950Y00857200D01*
X01038500Y00855000D02*
X01053400Y00869900D01*
X01046500Y00788250D02*
Y00789750D01*
Y00788250D02*
X01047500Y00789250D01*
X01033750Y00828500D02*
Y00859621D01*
X01028250Y00823000D02*
X01033750Y00828500D01*
X00931250Y00837250D02*
Y00841250D01*
X00879696Y00869900D02*
X00888100D01*
X00894480Y00856039D02*
Y00863520D01*
X00888100Y00869900D02*
X00894480Y00863520D01*
X00908980Y00797770D02*
X00912433D01*
X00915520Y00794683D01*
Y00791230D02*
Y00794683D01*
Y00791230D02*
X00939500Y00767250D01*
X00879696Y00857200D02*
X00883163D01*
X00920020Y00748230D02*
X00984480D01*
X00889966Y00778284D02*
X00920020Y00748230D01*
X00902046Y00804704D02*
X00908980Y00797770D01*
X00902046Y00804704D02*
Y00848473D01*
X00898006Y00788494D02*
Y00842357D01*
X00883163Y00857200D02*
X00898006Y00842357D01*
X00894480Y00856039D02*
X00902046Y00848473D01*
X00889966Y00778284D02*
Y00824000D01*
X00889966Y00824000D01*
Y00828750D01*
X00886916Y00831800D02*
X00889966Y00828750D01*
X00879696Y00831800D02*
X00886916D01*
X00984480Y00748230D02*
X01003500Y00767250D01*
Y00773750D01*
X00980250Y00777250D02*
X00992250D01*
X01003250Y00788250D01*
X01014203D01*
X01029797Y00780500D02*
X01042750Y00793453D01*
X00996000Y00772750D02*
Y00773703D01*
X00998621Y00776324D01*
Y00777908D01*
X01000713Y00780000D01*
X00964250Y00793250D02*
X00980250Y00777250D01*
X00964250Y00793250D02*
Y00804250D01*
X00931250Y00837250D02*
X00964250Y00804250D01*
X00949250Y00762000D02*
Y00791250D01*
X00928500Y00844000D02*
X00931250Y00841250D01*
X00915500Y00825000D02*
X00949250Y00791250D01*
X00915500Y00825000D02*
Y00838739D01*
X00920761Y00844000D01*
X00928500D01*
X01012299Y00779538D02*
X01013261Y00780500D01*
X01029797D01*
X00927730Y00758770D02*
X00946020D01*
X00949250Y00762000D01*
X00898006Y00788494D02*
X00927730Y00758770D01*
D19*
X00968500Y00822250D02*
X01002750Y00856500D01*
X00955750Y00822250D02*
X00968500D01*
X01002750Y00856500D02*
Y00857250D01*
X00989250Y00879250D02*
X01004500D01*
X00879696Y00882600D02*
X00885650D01*
X00879268Y00887506D02*
Y00894750D01*
X01023750Y00856000D02*
Y00860000D01*
X01004500Y00879250D02*
X01023750Y00860000D01*
X00899250Y00858015D02*
Y00869000D01*
X00885650Y00882600D02*
X00899250Y00869000D01*
X00906816Y00808684D02*
X00911750Y00803750D01*
X00906816Y00808684D02*
Y00850449D01*
X00899250Y00858015D02*
X00906816Y00850449D01*
D20*
X01031300Y00870042D02*
Y00908300D01*
X01032000Y00909000D01*
D21*
X00879696Y00844500D02*
X00887750D01*
X00893986Y00784264D02*
X00924500Y00753750D01*
X00893986Y00784264D02*
Y00838264D01*
X00887750Y00844500D02*
X00893986Y00838264D01*
X00932250Y00753500D02*
X00947500D01*
X00954250Y00760250D01*
X00923489Y00824511D02*
Y00837250D01*
Y00824511D02*
X00954250Y00793750D01*
Y00760250D02*
Y00793750D01*
D22*
X01024750Y00847500D02*
D03*
X01033000Y00822250D02*
D03*
X01024800Y00803289D02*
D03*
X01011250Y00819250D02*
D03*
X01010000Y00797500D02*
D03*
X00996000Y00772750D02*
D03*
X00987500Y00786250D02*
D03*
X01002750Y00857250D02*
D03*
X00967500Y00835250D02*
D03*
X00953000Y00838750D02*
D03*
X00972000Y00740750D02*
D03*
X00955750Y00822250D02*
D03*
X00899250Y00749500D02*
D03*
X00970750Y00886250D02*
D03*
X00931250Y00911250D02*
D03*
X00962750Y00912750D02*
D03*
X01013250Y00888750D02*
D03*
X00905250Y00860500D02*
D03*
X01048696Y00889289D02*
D03*
X00910250Y00792500D02*
D03*
X00939500Y00767250D02*
D03*
X00922750Y00798000D02*
D03*
X00932250Y00753500D02*
D03*
X00924500Y00753750D02*
D03*
X01046500Y00789750D02*
D03*
X01039750Y00779750D02*
D03*
X01003500Y00773750D02*
D03*
X01045250Y00766000D02*
D03*
X01012299Y00779538D02*
D03*
D23*
X00989250Y00879250D02*
D03*
X01032000Y00909000D02*
D03*
X01031300Y00870042D02*
D03*
X00911750Y00803750D02*
D03*
X01063750Y00728500D02*
D03*
X01023750Y00856000D02*
D03*
X00923490Y00837250D02*
D03*
M02*
