G04*
G04 #@! TF.GenerationSoftware,Altium Limited,Altium Designer,18.0.11 (651)*
G04*
G04 Layer_Color=16711935*
%FSAX44Y44*%
%MOMM*%
G71*
G01*
G75*
%ADD12R,1.7032X1.1532*%
%ADD14C,0.7032*%
%ADD43R,0.5532X0.8532*%
%ADD44R,0.9232X1.0632*%
%ADD45R,1.6032X0.6032*%
%ADD46R,2.1032X2.5032*%
%ADD47O,1.5000X0.4500*%
%ADD48R,0.8532X1.3032*%
%ADD49R,0.9032X1.1032*%
%ADD50R,1.0032X1.1032*%
%ADD51R,1.1032X0.9032*%
%ADD52R,1.8032X1.0932*%
%ADD53R,0.4532X1.0032*%
%ADD54R,1.1032X1.0032*%
%ADD55R,1.1532X1.1532*%
%ADD56R,1.1232X1.0232*%
%ADD57R,1.0232X1.1232*%
%ADD58R,0.6032X0.8032*%
%ADD59R,0.8032X0.6032*%
%ADD60R,2.4032X1.0532*%
D12*
X00952750Y00755250D02*
D03*
Y00766750D02*
D03*
Y00743750D02*
D03*
Y00732250D02*
D03*
X00983500Y00766750D02*
D03*
Y00755250D02*
D03*
Y00743750D02*
D03*
X01006000Y00764500D02*
D03*
X01026750D02*
D03*
Y00752000D02*
D03*
X01006000Y00751750D02*
D03*
D14*
X01024750Y00847500D02*
D03*
D43*
X01038500Y00881050D02*
D03*
X01032000D02*
D03*
X01025500D02*
D03*
X01038500Y00901450D02*
D03*
X01032000D02*
D03*
X01025500D02*
D03*
D44*
X01036572Y00891250D02*
D03*
X01027428D02*
D03*
D45*
X00912368Y00783216D02*
D03*
Y00776612D02*
D03*
Y00770008D02*
D03*
Y00763404D02*
D03*
Y00756800D02*
D03*
D46*
X00884936Y00732670D02*
D03*
Y00807600D02*
D03*
D47*
X00983898Y00908144D02*
D03*
Y00903144D02*
D03*
Y00898144D02*
D03*
Y00893144D02*
D03*
Y00888144D02*
D03*
X00939898Y00908144D02*
D03*
Y00903144D02*
D03*
Y00898144D02*
D03*
Y00893144D02*
D03*
Y00888144D02*
D03*
D48*
X00944000Y00848250D02*
D03*
X00953500D02*
D03*
X00963000D02*
D03*
Y00824250D02*
D03*
X00944000D02*
D03*
X00910500Y00850000D02*
D03*
X00920000D02*
D03*
X00929500D02*
D03*
Y00826000D02*
D03*
X00910500D02*
D03*
D49*
X00880000Y00900250D02*
D03*
X00895000D02*
D03*
X00895250Y00912500D02*
D03*
X00880250D02*
D03*
X00907750Y00912250D02*
D03*
X00922750D02*
D03*
X01013750Y00912250D02*
D03*
X00998750D02*
D03*
X00960000Y00871250D02*
D03*
X00975000D02*
D03*
X00949500Y00871250D02*
D03*
X00934500D02*
D03*
X00921000D02*
D03*
X00906000D02*
D03*
X01039000Y00728000D02*
D03*
X01054000D02*
D03*
D50*
X00894500Y00875750D02*
D03*
X00880500D02*
D03*
X00894500Y00863500D02*
D03*
X00880500D02*
D03*
X00894500Y00888000D02*
D03*
X00880500D02*
D03*
X00894500Y00839000D02*
D03*
X00880500D02*
D03*
X00880500Y00851250D02*
D03*
X00894500D02*
D03*
Y00826750D02*
D03*
X00880500D02*
D03*
X00999250Y00899000D02*
D03*
X01013250D02*
D03*
X01032500Y00846500D02*
D03*
X01016500D02*
D03*
X01032500Y00831250D02*
D03*
X01016500D02*
D03*
D51*
X00921750Y00885500D02*
D03*
Y00900500D02*
D03*
X00907250Y00885500D02*
D03*
Y00900500D02*
D03*
X00999750Y00848500D02*
D03*
Y00833500D02*
D03*
X01027750Y00725500D02*
D03*
Y00740500D02*
D03*
X01003000Y00725750D02*
D03*
Y00740750D02*
D03*
X00919500Y00744000D02*
D03*
Y00729000D02*
D03*
X00932750Y00744000D02*
D03*
Y00729000D02*
D03*
D52*
X00980750Y00836000D02*
D03*
D53*
X00988250Y00825550D02*
D03*
X00983250D02*
D03*
X00978250D02*
D03*
X00973250D02*
D03*
X00988250Y00846450D02*
D03*
X00983250D02*
D03*
X00978250D02*
D03*
X00973250D02*
D03*
D54*
X01050500Y00911500D02*
D03*
Y00897500D02*
D03*
X01062750Y00911500D02*
D03*
Y00897500D02*
D03*
X01062000Y00885000D02*
D03*
Y00871000D02*
D03*
X00999750Y00822500D02*
D03*
Y00808500D02*
D03*
X00987500Y00811250D02*
D03*
Y00797250D02*
D03*
X00932750Y00786750D02*
D03*
Y00800750D02*
D03*
X00958250Y00793500D02*
D03*
Y00779500D02*
D03*
X00945500Y00779500D02*
D03*
Y00793500D02*
D03*
D55*
X00999500Y00783000D02*
D03*
X00999750Y00796000D02*
D03*
D56*
X00974750Y00812200D02*
D03*
Y00794800D02*
D03*
D57*
X00944800Y00806750D02*
D03*
X00962200D02*
D03*
X00911300Y00814000D02*
D03*
X00928700D02*
D03*
D58*
X01034250Y00786750D02*
D03*
X01029250D02*
D03*
X01024250D02*
D03*
X01019250D02*
D03*
Y00809750D02*
D03*
X01024250D02*
D03*
X01029250D02*
D03*
X01034250D02*
D03*
D59*
X01017750Y00793250D02*
D03*
Y00798250D02*
D03*
Y00803250D02*
D03*
X01035750D02*
D03*
Y00798250D02*
D03*
Y00793250D02*
D03*
D60*
X01055000Y00857000D02*
D03*
Y00845250D02*
D03*
M02*
