M48
;Layer_Color=9474304
;FILE_FORMAT=4:4
METRIC
;TYPE=PLATED
T1F00S00C0.3000
%
T01
X00899250Y00749500
X00924500Y00753750
X00932250Y00753500
X00939500Y00767250
X00910250Y00792500
X00987500Y00786250
X00996000Y00772750
X01003500Y00773750
X01012299Y00779538
X01039750Y00779750
X01046500Y00789750
X01045250Y00766000
X01063750Y00728500
X00972000Y00740750
X01010000Y00797500
X01024800Y00803289
X01033000Y00822250
X01011250Y00819250
X01024750Y00847500
X01023750Y00856000
X01031300Y00870042
X01048696Y00889289
X01013250Y00888750
X00989250Y00879250
X00970750Y00886250
X00962750Y00912750
X00931250Y00911250
X00905250Y00860500
X00923490Y00837250
X00953000Y00838750
X00967500Y00835250
X00955750Y00822250
X00922750Y00798000
X00911750Y00803750
X01002750Y00857250
X01032000Y00909000
M30
