G04*
G04 #@! TF.GenerationSoftware,Altium Limited,Altium Designer,18.0.11 (651)*
G04*
G04 Layer_Color=32896*
%FSAX44Y44*%
%MOMM*%
G71*
G01*
G75*
%ADD19C,0.4000*%
%ADD21C,0.2500*%
%ADD61C,0.1000*%
%ADD62C,0.1500*%
%ADD63C,0.2000*%
G36*
X01011024Y00887314D02*
X01011264D01*
Y00887074D01*
X01011504D01*
Y00886835D01*
Y00886595D01*
Y00886355D01*
X01011264D01*
Y00886116D01*
X01011504D01*
Y00885876D01*
Y00885636D01*
Y00885397D01*
X01011264D01*
Y00885157D01*
X01011504D01*
Y00884917D01*
Y00884678D01*
Y00884438D01*
X01011264D01*
Y00884198D01*
X01011504D01*
Y00883959D01*
Y00883719D01*
Y00883479D01*
X01011264D01*
Y00883240D01*
X01011504D01*
Y00883000D01*
Y00882760D01*
Y00882521D01*
X01011264D01*
Y00882281D01*
X01011504D01*
Y00882041D01*
Y00881802D01*
Y00881562D01*
X01011264D01*
Y00881322D01*
X01011504D01*
Y00881083D01*
Y00880843D01*
Y00880603D01*
X01011264D01*
Y00880364D01*
X01011504D01*
Y00880124D01*
Y00879884D01*
Y00879645D01*
X01011264D01*
Y00879405D01*
X01011504D01*
Y00879165D01*
Y00878926D01*
Y00878686D01*
X01011264D01*
Y00878446D01*
X01011504D01*
Y00878207D01*
Y00877967D01*
Y00877728D01*
X01011264D01*
Y00877488D01*
X01011504D01*
Y00877248D01*
Y00877009D01*
Y00876769D01*
X01011264D01*
Y00876529D01*
X01011504D01*
Y00876290D01*
Y00876050D01*
Y00875810D01*
X01011264D01*
Y00875571D01*
X01011504D01*
Y00875331D01*
Y00875091D01*
Y00874852D01*
X01011264D01*
Y00874612D01*
X01011504D01*
Y00874372D01*
Y00874133D01*
Y00873893D01*
X01011264D01*
Y00873653D01*
X01011504D01*
Y00873413D01*
Y00873174D01*
Y00872934D01*
X01011264D01*
Y00872694D01*
X01011504D01*
Y00872455D01*
Y00872215D01*
Y00871976D01*
X01011264D01*
Y00871736D01*
X01011504D01*
Y00871496D01*
Y00871257D01*
Y00871017D01*
X01011264D01*
Y00870777D01*
X01011504D01*
Y00870538D01*
Y00870298D01*
Y00870058D01*
X01011264D01*
Y00869819D01*
X01011504D01*
Y00869579D01*
Y00869339D01*
Y00869100D01*
X01011264D01*
Y00868860D01*
X01011504D01*
Y00868620D01*
Y00868381D01*
Y00868141D01*
X01011264D01*
Y00867901D01*
X01011504D01*
Y00867662D01*
Y00867422D01*
Y00867182D01*
X01011264D01*
Y00866943D01*
X01011504D01*
Y00866703D01*
X01011264D01*
Y00866463D01*
X01011024D01*
Y00866224D01*
X01010785D01*
Y00866463D01*
X01010545D01*
Y00866224D01*
X01010305D01*
Y00866463D01*
X01010066D01*
Y00866224D01*
X01009826D01*
Y00866463D01*
X01009586D01*
Y00866224D01*
X01009347D01*
Y00866463D01*
X01009107D01*
Y00866224D01*
X01008867D01*
Y00866463D01*
X01008628D01*
Y00866224D01*
X01008388D01*
Y00866463D01*
X01008148D01*
Y00866224D01*
X01007909D01*
Y00866463D01*
X01007669D01*
Y00866224D01*
X01007430D01*
Y00866463D01*
X01007190D01*
Y00866224D01*
X01006950D01*
Y00866463D01*
X01006711D01*
Y00866224D01*
X01006471D01*
Y00866463D01*
X01006231D01*
Y00866224D01*
X01005992D01*
Y00866463D01*
X01005752D01*
Y00866224D01*
X01005512D01*
Y00866463D01*
X01005273D01*
Y00866224D01*
X01005033D01*
Y00866463D01*
X01004793D01*
Y00866224D01*
X01004554D01*
Y00866463D01*
X01004314D01*
Y00866224D01*
X01004074D01*
Y00866463D01*
X01003835D01*
Y00866224D01*
X01003595D01*
Y00866463D01*
X01003355D01*
Y00866224D01*
X01003116D01*
Y00866463D01*
X01001917D01*
Y00866703D01*
X01001678D01*
Y00866463D01*
X01001438D01*
Y00866703D01*
X01001198D01*
Y00866463D01*
X01000959D01*
Y00866703D01*
X01000240D01*
Y00866943D01*
X01000000D01*
Y00867182D01*
X00999760D01*
Y00866943D01*
X01000000D01*
Y00866703D01*
X00999760D01*
Y00866943D01*
X00999521D01*
Y00867182D01*
X00998802D01*
Y00867422D01*
X00998562D01*
Y00867662D01*
X00997843D01*
Y00867901D01*
X00997603D01*
Y00868141D01*
X00997364D01*
Y00868381D01*
X00997124D01*
Y00868620D01*
X00996884D01*
Y00868860D01*
X00996645D01*
Y00869100D01*
X00996405D01*
Y00869339D01*
Y00869579D01*
X00995926D01*
Y00869819D01*
X00996165D01*
Y00870058D01*
X00995926D01*
Y00870298D01*
X00995686D01*
Y00870538D01*
X00995446D01*
Y00870777D01*
Y00871017D01*
Y00871257D01*
X00995207D01*
Y00871496D01*
X00994967D01*
Y00871736D01*
X00995207D01*
Y00871976D01*
X00994967D01*
Y00872215D01*
Y00872455D01*
X00994727D01*
Y00872694D01*
Y00872934D01*
X00994488D01*
Y00873174D01*
X00994727D01*
Y00873413D01*
X00994488D01*
Y00873653D01*
Y00873893D01*
Y00874133D01*
X00994248D01*
Y00874372D01*
X00994488D01*
Y00874612D01*
X00994248D01*
Y00874852D01*
Y00875091D01*
Y00875331D01*
X00994008D01*
Y00875571D01*
X00994248D01*
Y00875810D01*
Y00876050D01*
Y00876290D01*
X00994008D01*
Y00876529D01*
X00994248D01*
Y00876769D01*
Y00877009D01*
Y00877248D01*
X00994008D01*
Y00877488D01*
X00994248D01*
Y00877728D01*
Y00877967D01*
Y00878207D01*
X00994008D01*
Y00878446D01*
X00994248D01*
Y00878686D01*
X00994488D01*
Y00878926D01*
X00994248D01*
Y00879165D01*
X00994488D01*
Y00879405D01*
Y00879645D01*
Y00879884D01*
X00994727D01*
Y00880124D01*
X00994488D01*
Y00880364D01*
X00994727D01*
Y00880603D01*
X00994488D01*
Y00880843D01*
X00994727D01*
Y00881083D01*
X00994967D01*
Y00881322D01*
Y00881562D01*
Y00881802D01*
X00995207D01*
Y00882041D01*
X00994967D01*
Y00882281D01*
X00995207D01*
Y00882521D01*
X00995446D01*
Y00882760D01*
X00995686D01*
Y00883000D01*
Y00883240D01*
Y00883479D01*
X00995926D01*
Y00883719D01*
X00996165D01*
Y00883959D01*
X00996405D01*
Y00884198D01*
X00996645D01*
Y00884438D01*
X00996405D01*
Y00884678D01*
X00996165D01*
Y00884438D01*
X00995446D01*
Y00884678D01*
X00995207D01*
Y00884438D01*
X00994488D01*
Y00884678D01*
X00994248D01*
Y00884438D01*
X00993529D01*
Y00884678D01*
X00993289D01*
Y00884438D01*
X00992570D01*
Y00884678D01*
X00992331D01*
Y00884438D01*
X00992091D01*
Y00884678D01*
X00991852D01*
Y00884917D01*
X00991612D01*
Y00885157D01*
X00991852D01*
Y00885397D01*
X00991612D01*
Y00885636D01*
X00991852D01*
Y00885876D01*
X00991612D01*
Y00886116D01*
X00991852D01*
Y00886355D01*
X00991612D01*
Y00886595D01*
X00991852D01*
Y00886835D01*
X00991612D01*
Y00887074D01*
X00991852D01*
Y00887314D01*
X00992091D01*
Y00887554D01*
X00992331D01*
Y00887314D01*
X00992570D01*
Y00887554D01*
X00992810D01*
Y00887314D01*
X00993050D01*
Y00887554D01*
X00993289D01*
Y00887314D01*
X00993529D01*
Y00887554D01*
X00993769D01*
Y00887314D01*
X00994008D01*
Y00887554D01*
X00994248D01*
Y00887314D01*
X00994488D01*
Y00887554D01*
X00994727D01*
Y00887314D01*
X00994967D01*
Y00887554D01*
X00995207D01*
Y00887314D01*
X00995446D01*
Y00887554D01*
X00995686D01*
Y00887314D01*
X00995926D01*
Y00887554D01*
X00996165D01*
Y00887314D01*
X00996405D01*
Y00887554D01*
X00996645D01*
Y00887314D01*
X00996884D01*
Y00887554D01*
X00997124D01*
Y00887314D01*
X00997364D01*
Y00887554D01*
X00997603D01*
Y00887314D01*
X00997843D01*
Y00887554D01*
X00998083D01*
Y00887314D01*
X00998322D01*
Y00887554D01*
X00998562D01*
Y00887314D01*
X00998802D01*
Y00887554D01*
X00999041D01*
Y00887314D01*
X00999281D01*
Y00887554D01*
X00999521D01*
Y00887314D01*
X00999760D01*
Y00887554D01*
X01000000D01*
Y00887314D01*
X01000240D01*
Y00887554D01*
X01000479D01*
Y00887314D01*
X01000719D01*
Y00887554D01*
X01000959D01*
Y00887314D01*
X01001198D01*
Y00887554D01*
X01001438D01*
Y00887314D01*
X01001678D01*
Y00887554D01*
X01001917D01*
Y00887314D01*
X01002157D01*
Y00887554D01*
X01002397D01*
Y00887314D01*
X01002636D01*
Y00887554D01*
X01002876D01*
Y00887314D01*
X01003116D01*
Y00887554D01*
X01003355D01*
Y00887314D01*
X01003595D01*
Y00887554D01*
X01003835D01*
Y00887314D01*
X01004074D01*
Y00887554D01*
X01004314D01*
Y00887314D01*
X01004554D01*
Y00887554D01*
X01004793D01*
Y00887314D01*
X01005033D01*
Y00887554D01*
X01005273D01*
Y00887314D01*
X01005512D01*
Y00887554D01*
X01005752D01*
Y00887314D01*
X01005992D01*
Y00887554D01*
X01006231D01*
Y00887314D01*
X01006471D01*
Y00887554D01*
X01006711D01*
Y00887314D01*
X01006950D01*
Y00887554D01*
X01007190D01*
Y00887314D01*
X01007430D01*
Y00887554D01*
X01007669D01*
Y00887314D01*
X01007909D01*
Y00887554D01*
X01008148D01*
Y00887314D01*
X01008388D01*
Y00887554D01*
X01008628D01*
Y00887314D01*
X01008867D01*
Y00887554D01*
X01009107D01*
Y00887314D01*
X01009347D01*
Y00887554D01*
X01009586D01*
Y00887314D01*
X01009826D01*
Y00887554D01*
X01010066D01*
Y00887314D01*
X01010305D01*
Y00887554D01*
X01010545D01*
Y00887314D01*
X01010785D01*
Y00887554D01*
X01011024D01*
Y00887314D01*
D02*
G37*
G36*
X01013074Y00796437D02*
X01012109D01*
Y00799133D01*
X01004899D01*
Y00800218D01*
X01012109D01*
Y00802922D01*
X01013074D01*
Y00796437D01*
D02*
G37*
G36*
X01009357Y00795616D02*
X01009556Y00795608D01*
X01009740Y00795592D01*
X01009915Y00795576D01*
X01010067Y00795560D01*
X01010218Y00795544D01*
X01010346Y00795528D01*
X01010465Y00795512D01*
X01010569Y00795496D01*
X01010657Y00795480D01*
X01010729Y00795464D01*
X01010785Y00795448D01*
X01010824Y00795440D01*
X01010848Y00795432D01*
X01010856D01*
X01011112Y00795361D01*
X01011351Y00795273D01*
X01011558Y00795193D01*
X01011646Y00795153D01*
X01011734Y00795113D01*
X01011805Y00795073D01*
X01011877Y00795042D01*
X01011933Y00795010D01*
X01011981Y00794986D01*
X01012021Y00794962D01*
X01012045Y00794946D01*
X01012061Y00794930D01*
X01012069D01*
X01012244Y00794802D01*
X01012404Y00794667D01*
X01012531Y00794531D01*
X01012643Y00794404D01*
X01012723Y00794284D01*
X01012786Y00794196D01*
X01012810Y00794156D01*
X01012818Y00794132D01*
X01012834Y00794117D01*
Y00794109D01*
X01012922Y00793917D01*
X01012994Y00793718D01*
X01013042Y00793526D01*
X01013074Y00793351D01*
X01013082Y00793271D01*
X01013090Y00793191D01*
X01013097Y00793128D01*
X01013105Y00793072D01*
Y00792960D01*
X01013097Y00792793D01*
X01013082Y00792641D01*
X01013058Y00792489D01*
X01013034Y00792354D01*
X01012994Y00792218D01*
X01012954Y00792099D01*
X01012914Y00791987D01*
X01012866Y00791883D01*
X01012818Y00791796D01*
X01012778Y00791708D01*
X01012738Y00791644D01*
X01012699Y00791580D01*
X01012675Y00791540D01*
X01012651Y00791500D01*
X01012635Y00791485D01*
X01012627Y00791477D01*
X01012531Y00791373D01*
X01012428Y00791269D01*
X01012212Y00791086D01*
X01011989Y00790934D01*
X01011766Y00790815D01*
X01011662Y00790759D01*
X01011566Y00790719D01*
X01011486Y00790679D01*
X01011407Y00790647D01*
X01011351Y00790623D01*
X01011303Y00790607D01*
X01011271Y00790591D01*
X01011263D01*
X01011088Y00790543D01*
X01010912Y00790496D01*
X01010521Y00790424D01*
X01010138Y00790368D01*
X01009947Y00790352D01*
X01009764Y00790336D01*
X01009588Y00790320D01*
X01009429Y00790312D01*
X01009293Y00790304D01*
X01009165D01*
X01009070Y00790296D01*
X01008990D01*
X01008942D01*
X01008934D01*
X01008926D01*
X01008512Y00790304D01*
X01008121Y00790328D01*
X01007770Y00790368D01*
X01007435Y00790424D01*
X01007140Y00790480D01*
X01006869Y00790551D01*
X01006621Y00790623D01*
X01006406Y00790703D01*
X01006215Y00790775D01*
X01006047Y00790846D01*
X01005911Y00790918D01*
X01005800Y00790974D01*
X01005712Y00791030D01*
X01005648Y00791070D01*
X01005616Y00791094D01*
X01005600Y00791102D01*
X01005457Y00791229D01*
X01005321Y00791373D01*
X01005210Y00791524D01*
X01005114Y00791676D01*
X01005034Y00791827D01*
X01004970Y00791987D01*
X01004914Y00792139D01*
X01004867Y00792282D01*
X01004835Y00792418D01*
X01004811Y00792545D01*
X01004787Y00792665D01*
X01004779Y00792761D01*
X01004771Y00792848D01*
X01004763Y00792904D01*
Y00792960D01*
X01004771Y00793128D01*
X01004787Y00793279D01*
X01004811Y00793431D01*
X01004835Y00793566D01*
X01004875Y00793702D01*
X01004914Y00793821D01*
X01004954Y00793933D01*
X01005002Y00794037D01*
X01005050Y00794124D01*
X01005090Y00794204D01*
X01005130Y00794276D01*
X01005170Y00794332D01*
X01005194Y00794380D01*
X01005218Y00794412D01*
X01005234Y00794427D01*
X01005241Y00794436D01*
X01005337Y00794539D01*
X01005441Y00794643D01*
X01005656Y00794826D01*
X01005888Y00794978D01*
X01006103Y00795098D01*
X01006207Y00795153D01*
X01006302Y00795193D01*
X01006382Y00795233D01*
X01006462Y00795265D01*
X01006518Y00795289D01*
X01006565Y00795305D01*
X01006597Y00795321D01*
X01006605D01*
X01006781Y00795377D01*
X01006956Y00795424D01*
X01007339Y00795496D01*
X01007730Y00795552D01*
X01007913Y00795568D01*
X01008097Y00795584D01*
X01008272Y00795600D01*
X01008424Y00795608D01*
X01008567Y00795616D01*
X01008687D01*
X01008791Y00795624D01*
X01008862D01*
X01008910D01*
X01008926D01*
X01009149D01*
X01009357Y00795616D01*
D02*
G37*
G36*
X00941365Y00759699D02*
X00941541Y00759683D01*
X00941700Y00759659D01*
X00941852Y00759619D01*
X00941995Y00759579D01*
X00942131Y00759531D01*
X00942259Y00759484D01*
X00942370Y00759428D01*
X00942466Y00759380D01*
X00942562Y00759324D01*
X00942633Y00759276D01*
X00942697Y00759236D01*
X00942753Y00759196D01*
X00942785Y00759173D01*
X00942809Y00759157D01*
X00942817Y00759149D01*
X00942928Y00759037D01*
X00943040Y00758925D01*
X00943136Y00758798D01*
X00943216Y00758670D01*
X00943295Y00758542D01*
X00943359Y00758407D01*
X00943423Y00758279D01*
X00943471Y00758160D01*
X00943519Y00758040D01*
X00943551Y00757936D01*
X00943583Y00757833D01*
X00943606Y00757753D01*
X00943622Y00757681D01*
X00943638Y00757633D01*
X00943646Y00757593D01*
Y00757585D01*
X00942641Y00757410D01*
X00942617Y00757545D01*
X00942594Y00757665D01*
X00942554Y00757785D01*
X00942522Y00757888D01*
X00942482Y00757992D01*
X00942442Y00758080D01*
X00942394Y00758160D01*
X00942354Y00758239D01*
X00942314Y00758303D01*
X00942274Y00758359D01*
X00942243Y00758407D01*
X00942211Y00758439D01*
X00942187Y00758471D01*
X00942163Y00758495D01*
X00942155Y00758503D01*
X00942147Y00758511D01*
X00942075Y00758574D01*
X00941995Y00758638D01*
X00941828Y00758726D01*
X00941668Y00758798D01*
X00941509Y00758838D01*
X00941373Y00758869D01*
X00941317Y00758877D01*
X00941262D01*
X00941222Y00758885D01*
X00941054D01*
X00940958Y00758869D01*
X00940767Y00758830D01*
X00940600Y00758766D01*
X00940464Y00758702D01*
X00940352Y00758638D01*
X00940265Y00758574D01*
X00940241Y00758550D01*
X00940217Y00758534D01*
X00940209Y00758527D01*
X00940201Y00758519D01*
X00940137Y00758447D01*
X00940073Y00758375D01*
X00939986Y00758223D01*
X00939914Y00758072D01*
X00939874Y00757928D01*
X00939842Y00757801D01*
X00939834Y00757745D01*
Y00757697D01*
X00939826Y00757657D01*
Y00757625D01*
Y00757609D01*
Y00757601D01*
X00939834Y00757474D01*
X00939850Y00757362D01*
X00939874Y00757250D01*
X00939906Y00757147D01*
X00939946Y00757059D01*
X00939994Y00756971D01*
X00940033Y00756891D01*
X00940081Y00756828D01*
X00940137Y00756764D01*
X00940177Y00756716D01*
X00940225Y00756668D01*
X00940265Y00756636D01*
X00940297Y00756604D01*
X00940321Y00756588D01*
X00940336Y00756581D01*
X00940344Y00756572D01*
X00940544Y00756461D01*
X00940743Y00756381D01*
X00940935Y00756317D01*
X00941118Y00756277D01*
X00941198Y00756269D01*
X00941270Y00756254D01*
X00941333Y00756245D01*
X00941389D01*
X00941437Y00756237D01*
X00941549D01*
X00941605Y00756245D01*
X00941644Y00756254D01*
X00941660D01*
X00941772Y00755376D01*
X00941620Y00755408D01*
X00941485Y00755440D01*
X00941365Y00755456D01*
X00941262Y00755464D01*
X00941182Y00755472D01*
X00941118Y00755480D01*
X00941070D01*
X00940943Y00755472D01*
X00940823Y00755464D01*
X00940600Y00755408D01*
X00940400Y00755336D01*
X00940312Y00755296D01*
X00940233Y00755257D01*
X00940161Y00755217D01*
X00940105Y00755177D01*
X00940049Y00755137D01*
X00940002Y00755105D01*
X00939970Y00755073D01*
X00939946Y00755049D01*
X00939930Y00755041D01*
X00939922Y00755033D01*
X00939842Y00754946D01*
X00939770Y00754858D01*
X00939714Y00754762D01*
X00939659Y00754666D01*
X00939611Y00754571D01*
X00939579Y00754475D01*
X00939523Y00754299D01*
X00939507Y00754212D01*
X00939491Y00754140D01*
X00939483Y00754068D01*
X00939475Y00754012D01*
X00939467Y00753957D01*
Y00753925D01*
Y00753901D01*
Y00753893D01*
X00939475Y00753757D01*
X00939491Y00753630D01*
X00939515Y00753510D01*
X00939539Y00753398D01*
X00939619Y00753191D01*
X00939667Y00753095D01*
X00939706Y00753015D01*
X00939754Y00752936D01*
X00939802Y00752872D01*
X00939842Y00752816D01*
X00939874Y00752768D01*
X00939906Y00752728D01*
X00939930Y00752704D01*
X00939946Y00752688D01*
X00939954Y00752680D01*
X00940049Y00752593D01*
X00940145Y00752521D01*
X00940241Y00752457D01*
X00940344Y00752401D01*
X00940448Y00752353D01*
X00940544Y00752314D01*
X00940735Y00752258D01*
X00940823Y00752234D01*
X00940903Y00752218D01*
X00940966Y00752210D01*
X00941030Y00752202D01*
X00941078Y00752194D01*
X00941150D01*
X00941262Y00752202D01*
X00941365Y00752210D01*
X00941557Y00752250D01*
X00941732Y00752314D01*
X00941884Y00752385D01*
X00942003Y00752449D01*
X00942051Y00752481D01*
X00942091Y00752513D01*
X00942123Y00752537D01*
X00942147Y00752553D01*
X00942155Y00752569D01*
X00942163D01*
X00942235Y00752648D01*
X00942306Y00752728D01*
X00942426Y00752920D01*
X00942530Y00753127D01*
X00942609Y00753326D01*
X00942641Y00753422D01*
X00942673Y00753510D01*
X00942697Y00753598D01*
X00942713Y00753661D01*
X00942729Y00753725D01*
X00942737Y00753765D01*
X00942745Y00753797D01*
Y00753805D01*
X00943750Y00753669D01*
X00943726Y00753478D01*
X00943686Y00753303D01*
X00943638Y00753135D01*
X00943583Y00752975D01*
X00943519Y00752824D01*
X00943455Y00752688D01*
X00943383Y00752561D01*
X00943311Y00752449D01*
X00943240Y00752345D01*
X00943176Y00752258D01*
X00943112Y00752186D01*
X00943056Y00752122D01*
X00943008Y00752066D01*
X00942976Y00752034D01*
X00942952Y00752010D01*
X00942944Y00752002D01*
X00942809Y00751891D01*
X00942665Y00751795D01*
X00942514Y00751707D01*
X00942362Y00751636D01*
X00942219Y00751572D01*
X00942067Y00751524D01*
X00941924Y00751476D01*
X00941788Y00751444D01*
X00941652Y00751420D01*
X00941533Y00751396D01*
X00941429Y00751380D01*
X00941333Y00751372D01*
X00941262D01*
X00941206Y00751364D01*
X00941158D01*
X00940935Y00751372D01*
X00940727Y00751396D01*
X00940528Y00751436D01*
X00940344Y00751484D01*
X00940169Y00751540D01*
X00940009Y00751596D01*
X00939858Y00751667D01*
X00939722Y00751739D01*
X00939595Y00751803D01*
X00939491Y00751875D01*
X00939395Y00751931D01*
X00939324Y00751994D01*
X00939260Y00752034D01*
X00939212Y00752074D01*
X00939188Y00752098D01*
X00939180Y00752106D01*
X00939044Y00752250D01*
X00938925Y00752393D01*
X00938821Y00752553D01*
X00938725Y00752704D01*
X00938654Y00752856D01*
X00938590Y00753007D01*
X00938534Y00753151D01*
X00938494Y00753287D01*
X00938462Y00753422D01*
X00938438Y00753542D01*
X00938422Y00753645D01*
X00938406Y00753741D01*
Y00753813D01*
X00938398Y00753869D01*
Y00753909D01*
Y00753917D01*
X00938406Y00754060D01*
X00938414Y00754204D01*
X00938462Y00754459D01*
X00938494Y00754571D01*
X00938526Y00754682D01*
X00938566Y00754778D01*
X00938598Y00754874D01*
X00938638Y00754953D01*
X00938678Y00755025D01*
X00938709Y00755089D01*
X00938741Y00755137D01*
X00938765Y00755177D01*
X00938789Y00755209D01*
X00938797Y00755225D01*
X00938805Y00755233D01*
X00938885Y00755328D01*
X00938965Y00755416D01*
X00939148Y00755560D01*
X00939340Y00755687D01*
X00939515Y00755775D01*
X00939682Y00755847D01*
X00939746Y00755871D01*
X00939810Y00755895D01*
X00939858Y00755910D01*
X00939898Y00755919D01*
X00939922Y00755927D01*
X00939930D01*
X00939730Y00756030D01*
X00939563Y00756142D01*
X00939419Y00756254D01*
X00939300Y00756365D01*
X00939204Y00756461D01*
X00939140Y00756541D01*
X00939116Y00756572D01*
X00939100Y00756596D01*
X00939084Y00756604D01*
Y00756612D01*
X00938989Y00756780D01*
X00938917Y00756947D01*
X00938869Y00757107D01*
X00938829Y00757258D01*
X00938813Y00757386D01*
X00938805Y00757442D01*
Y00757490D01*
X00938797Y00757530D01*
Y00757553D01*
Y00757569D01*
Y00757577D01*
X00938813Y00757785D01*
X00938845Y00757976D01*
X00938893Y00758160D01*
X00938949Y00758311D01*
X00939005Y00758447D01*
X00939028Y00758503D01*
X00939052Y00758542D01*
X00939068Y00758582D01*
X00939084Y00758606D01*
X00939100Y00758622D01*
Y00758630D01*
X00939220Y00758806D01*
X00939355Y00758965D01*
X00939499Y00759101D01*
X00939643Y00759212D01*
X00939770Y00759300D01*
X00939818Y00759340D01*
X00939866Y00759364D01*
X00939906Y00759388D01*
X00939938Y00759404D01*
X00939954Y00759420D01*
X00939962D01*
X00940177Y00759516D01*
X00940392Y00759587D01*
X00940592Y00759635D01*
X00940783Y00759675D01*
X00940871Y00759683D01*
X00940951Y00759691D01*
X00941014Y00759699D01*
X00941078D01*
X00941126Y00759707D01*
X00941190D01*
X00941365Y00759699D01*
D02*
G37*
G36*
X00931842D02*
X00932018Y00759683D01*
X00932177Y00759659D01*
X00932329Y00759619D01*
X00932473Y00759579D01*
X00932608Y00759531D01*
X00932736Y00759484D01*
X00932847Y00759428D01*
X00932943Y00759380D01*
X00933039Y00759324D01*
X00933111Y00759276D01*
X00933174Y00759236D01*
X00933230Y00759196D01*
X00933262Y00759173D01*
X00933286Y00759157D01*
X00933294Y00759149D01*
X00933406Y00759037D01*
X00933517Y00758925D01*
X00933613Y00758798D01*
X00933693Y00758670D01*
X00933773Y00758542D01*
X00933836Y00758407D01*
X00933900Y00758279D01*
X00933948Y00758160D01*
X00933996Y00758040D01*
X00934028Y00757936D01*
X00934060Y00757833D01*
X00934084Y00757753D01*
X00934100Y00757681D01*
X00934116Y00757633D01*
X00934124Y00757593D01*
Y00757585D01*
X00933119Y00757410D01*
X00933095Y00757545D01*
X00933071Y00757665D01*
X00933031Y00757785D01*
X00932999Y00757888D01*
X00932959Y00757992D01*
X00932919Y00758080D01*
X00932871Y00758160D01*
X00932831Y00758239D01*
X00932792Y00758303D01*
X00932752Y00758359D01*
X00932720Y00758407D01*
X00932688Y00758439D01*
X00932664Y00758471D01*
X00932640Y00758495D01*
X00932632Y00758503D01*
X00932624Y00758511D01*
X00932552Y00758574D01*
X00932473Y00758638D01*
X00932305Y00758726D01*
X00932145Y00758798D01*
X00931986Y00758838D01*
X00931850Y00758869D01*
X00931795Y00758877D01*
X00931739D01*
X00931699Y00758885D01*
X00931531D01*
X00931436Y00758869D01*
X00931244Y00758830D01*
X00931077Y00758766D01*
X00930941Y00758702D01*
X00930829Y00758638D01*
X00930742Y00758574D01*
X00930718Y00758550D01*
X00930694Y00758534D01*
X00930686Y00758527D01*
X00930678Y00758519D01*
X00930614Y00758447D01*
X00930550Y00758375D01*
X00930463Y00758223D01*
X00930391Y00758072D01*
X00930351Y00757928D01*
X00930319Y00757801D01*
X00930311Y00757745D01*
Y00757697D01*
X00930303Y00757657D01*
Y00757625D01*
Y00757609D01*
Y00757601D01*
X00930311Y00757474D01*
X00930327Y00757362D01*
X00930351Y00757250D01*
X00930383Y00757147D01*
X00930423Y00757059D01*
X00930471Y00756971D01*
X00930510Y00756891D01*
X00930558Y00756828D01*
X00930614Y00756764D01*
X00930654Y00756716D01*
X00930702Y00756668D01*
X00930742Y00756636D01*
X00930774Y00756604D01*
X00930798Y00756588D01*
X00930814Y00756581D01*
X00930822Y00756572D01*
X00931021Y00756461D01*
X00931220Y00756381D01*
X00931412Y00756317D01*
X00931595Y00756277D01*
X00931675Y00756269D01*
X00931747Y00756254D01*
X00931811Y00756245D01*
X00931866D01*
X00931914Y00756237D01*
X00932026D01*
X00932082Y00756245D01*
X00932122Y00756254D01*
X00932138D01*
X00932249Y00755376D01*
X00932098Y00755408D01*
X00931962Y00755440D01*
X00931842Y00755456D01*
X00931739Y00755464D01*
X00931659Y00755472D01*
X00931595Y00755480D01*
X00931547D01*
X00931420Y00755472D01*
X00931300Y00755464D01*
X00931077Y00755408D01*
X00930877Y00755336D01*
X00930790Y00755296D01*
X00930710Y00755257D01*
X00930638Y00755217D01*
X00930582Y00755177D01*
X00930527Y00755137D01*
X00930479Y00755105D01*
X00930447Y00755073D01*
X00930423Y00755049D01*
X00930407Y00755041D01*
X00930399Y00755033D01*
X00930319Y00754946D01*
X00930247Y00754858D01*
X00930191Y00754762D01*
X00930136Y00754666D01*
X00930088Y00754571D01*
X00930056Y00754475D01*
X00930000Y00754299D01*
X00929984Y00754212D01*
X00929968Y00754140D01*
X00929960Y00754068D01*
X00929952Y00754012D01*
X00929944Y00753957D01*
Y00753925D01*
Y00753901D01*
Y00753893D01*
X00929952Y00753757D01*
X00929968Y00753630D01*
X00929992Y00753510D01*
X00930016Y00753398D01*
X00930096Y00753191D01*
X00930144Y00753095D01*
X00930183Y00753015D01*
X00930231Y00752936D01*
X00930279Y00752872D01*
X00930319Y00752816D01*
X00930351Y00752768D01*
X00930383Y00752728D01*
X00930407Y00752704D01*
X00930423Y00752688D01*
X00930431Y00752680D01*
X00930527Y00752593D01*
X00930622Y00752521D01*
X00930718Y00752457D01*
X00930822Y00752401D01*
X00930925Y00752353D01*
X00931021Y00752314D01*
X00931212Y00752258D01*
X00931300Y00752234D01*
X00931380Y00752218D01*
X00931444Y00752210D01*
X00931507Y00752202D01*
X00931555Y00752194D01*
X00931627D01*
X00931739Y00752202D01*
X00931842Y00752210D01*
X00932034Y00752250D01*
X00932209Y00752314D01*
X00932361Y00752385D01*
X00932480Y00752449D01*
X00932528Y00752481D01*
X00932568Y00752513D01*
X00932600Y00752537D01*
X00932624Y00752553D01*
X00932632Y00752569D01*
X00932640D01*
X00932712Y00752648D01*
X00932784Y00752728D01*
X00932903Y00752920D01*
X00933007Y00753127D01*
X00933087Y00753326D01*
X00933119Y00753422D01*
X00933150Y00753510D01*
X00933174Y00753598D01*
X00933190Y00753661D01*
X00933206Y00753725D01*
X00933214Y00753765D01*
X00933222Y00753797D01*
Y00753805D01*
X00934227Y00753669D01*
X00934203Y00753478D01*
X00934163Y00753303D01*
X00934116Y00753135D01*
X00934060Y00752975D01*
X00933996Y00752824D01*
X00933932Y00752688D01*
X00933860Y00752561D01*
X00933789Y00752449D01*
X00933717Y00752345D01*
X00933653Y00752258D01*
X00933589Y00752186D01*
X00933533Y00752122D01*
X00933485Y00752066D01*
X00933454Y00752034D01*
X00933430Y00752010D01*
X00933422Y00752002D01*
X00933286Y00751891D01*
X00933142Y00751795D01*
X00932991Y00751707D01*
X00932839Y00751636D01*
X00932696Y00751572D01*
X00932544Y00751524D01*
X00932401Y00751476D01*
X00932265Y00751444D01*
X00932130Y00751420D01*
X00932010Y00751396D01*
X00931906Y00751380D01*
X00931811Y00751372D01*
X00931739D01*
X00931683Y00751364D01*
X00931635D01*
X00931412Y00751372D01*
X00931204Y00751396D01*
X00931005Y00751436D01*
X00930822Y00751484D01*
X00930646Y00751540D01*
X00930487Y00751596D01*
X00930335Y00751667D01*
X00930200Y00751739D01*
X00930072Y00751803D01*
X00929968Y00751875D01*
X00929873Y00751931D01*
X00929801Y00751994D01*
X00929737Y00752034D01*
X00929689Y00752074D01*
X00929665Y00752098D01*
X00929657Y00752106D01*
X00929521Y00752250D01*
X00929402Y00752393D01*
X00929298Y00752553D01*
X00929202Y00752704D01*
X00929131Y00752856D01*
X00929067Y00753007D01*
X00929011Y00753151D01*
X00928971Y00753287D01*
X00928939Y00753422D01*
X00928915Y00753542D01*
X00928899Y00753645D01*
X00928884Y00753741D01*
Y00753813D01*
X00928876Y00753869D01*
Y00753909D01*
Y00753917D01*
X00928884Y00754060D01*
X00928892Y00754204D01*
X00928939Y00754459D01*
X00928971Y00754571D01*
X00929003Y00754682D01*
X00929043Y00754778D01*
X00929075Y00754874D01*
X00929115Y00754953D01*
X00929155Y00755025D01*
X00929187Y00755089D01*
X00929219Y00755137D01*
X00929242Y00755177D01*
X00929266Y00755209D01*
X00929274Y00755225D01*
X00929282Y00755233D01*
X00929362Y00755328D01*
X00929442Y00755416D01*
X00929625Y00755560D01*
X00929817Y00755687D01*
X00929992Y00755775D01*
X00930160Y00755847D01*
X00930223Y00755871D01*
X00930287Y00755895D01*
X00930335Y00755910D01*
X00930375Y00755919D01*
X00930399Y00755927D01*
X00930407D01*
X00930207Y00756030D01*
X00930040Y00756142D01*
X00929896Y00756254D01*
X00929777Y00756365D01*
X00929681Y00756461D01*
X00929617Y00756541D01*
X00929593Y00756572D01*
X00929577Y00756596D01*
X00929561Y00756604D01*
Y00756612D01*
X00929466Y00756780D01*
X00929394Y00756947D01*
X00929346Y00757107D01*
X00929306Y00757258D01*
X00929290Y00757386D01*
X00929282Y00757442D01*
Y00757490D01*
X00929274Y00757530D01*
Y00757553D01*
Y00757569D01*
Y00757577D01*
X00929290Y00757785D01*
X00929322Y00757976D01*
X00929370Y00758160D01*
X00929426Y00758311D01*
X00929482Y00758447D01*
X00929506Y00758503D01*
X00929529Y00758542D01*
X00929546Y00758582D01*
X00929561Y00758606D01*
X00929577Y00758622D01*
Y00758630D01*
X00929697Y00758806D01*
X00929833Y00758965D01*
X00929976Y00759101D01*
X00930120Y00759212D01*
X00930247Y00759300D01*
X00930295Y00759340D01*
X00930343Y00759364D01*
X00930383Y00759388D01*
X00930415Y00759404D01*
X00930431Y00759420D01*
X00930439D01*
X00930654Y00759516D01*
X00930869Y00759587D01*
X00931069Y00759635D01*
X00931260Y00759675D01*
X00931348Y00759683D01*
X00931428Y00759691D01*
X00931491Y00759699D01*
X00931555D01*
X00931603Y00759707D01*
X00931667D01*
X00931842Y00759699D01*
D02*
G37*
G36*
X00925151Y00751500D02*
X00924026D01*
X00920828Y00759675D01*
X00921929D01*
X00924146Y00753733D01*
X00924234Y00753486D01*
X00924321Y00753239D01*
X00924393Y00753015D01*
X00924457Y00752816D01*
X00924489Y00752720D01*
X00924513Y00752641D01*
X00924529Y00752569D01*
X00924553Y00752505D01*
X00924569Y00752457D01*
X00924577Y00752425D01*
X00924585Y00752401D01*
Y00752393D01*
X00924656Y00752633D01*
X00924728Y00752864D01*
X00924800Y00753087D01*
X00924864Y00753295D01*
X00924896Y00753390D01*
X00924928Y00753470D01*
X00924951Y00753550D01*
X00924975Y00753614D01*
X00924991Y00753661D01*
X00925007Y00753701D01*
X00925015Y00753725D01*
Y00753733D01*
X00927137Y00759675D01*
X00928309D01*
X00925151Y00751500D01*
D02*
G37*
G36*
X00936843D02*
X00935703D01*
Y00752641D01*
X00936843D01*
Y00751500D01*
D02*
G37*
G36*
X01007467Y00788304D02*
X01007699Y00788144D01*
X01007914Y00787985D01*
X01008097Y00787833D01*
X01008257Y00787698D01*
X01008329Y00787634D01*
X01008384Y00787578D01*
X01008440Y00787530D01*
X01008480Y00787490D01*
X01008512Y00787458D01*
X01008544Y00787434D01*
X01008552Y00787418D01*
X01008560Y00787410D01*
X01008632Y00787315D01*
X01008711Y00787211D01*
X01008775Y00787107D01*
X01008839Y00787004D01*
X01008887Y00786908D01*
X01008935Y00786828D01*
X01008943Y00786796D01*
X01008959Y00786772D01*
X01008967Y00786764D01*
Y00786756D01*
X01008998Y00786972D01*
X01009046Y00787171D01*
X01009094Y00787355D01*
X01009150Y00787522D01*
X01009214Y00787682D01*
X01009278Y00787825D01*
X01009342Y00787953D01*
X01009405Y00788064D01*
X01009469Y00788168D01*
X01009525Y00788256D01*
X01009581Y00788327D01*
X01009629Y00788391D01*
X01009669Y00788439D01*
X01009700Y00788471D01*
X01009716Y00788487D01*
X01009724Y00788495D01*
X01009836Y00788599D01*
X01009956Y00788679D01*
X01010083Y00788758D01*
X01010203Y00788822D01*
X01010331Y00788878D01*
X01010450Y00788926D01*
X01010570Y00788958D01*
X01010681Y00788989D01*
X01010785Y00789013D01*
X01010889Y00789029D01*
X01010968Y00789045D01*
X01011048Y00789053D01*
X01011104Y00789061D01*
X01011152D01*
X01011184D01*
X01011192D01*
X01011319D01*
X01011439Y00789045D01*
X01011670Y00789006D01*
X01011878Y00788950D01*
X01012061Y00788894D01*
X01012141Y00788862D01*
X01012205Y00788830D01*
X01012269Y00788798D01*
X01012324Y00788774D01*
X01012364Y00788750D01*
X01012396Y00788734D01*
X01012412Y00788726D01*
X01012420Y00788718D01*
X01012611Y00788583D01*
X01012779Y00788431D01*
X01012915Y00788280D01*
X01013018Y00788136D01*
X01013098Y00788008D01*
X01013130Y00787953D01*
X01013162Y00787905D01*
X01013178Y00787865D01*
X01013194Y00787833D01*
X01013202Y00787817D01*
Y00787809D01*
X01013242Y00787698D01*
X01013273Y00787578D01*
X01013329Y00787315D01*
X01013369Y00787036D01*
X01013401Y00786764D01*
X01013409Y00786645D01*
X01013417Y00786525D01*
Y00786421D01*
X01013425Y00786334D01*
Y00782529D01*
X01005250D01*
Y00783614D01*
X01008879D01*
Y00785010D01*
X01008871Y00785137D01*
X01008863Y00785241D01*
Y00785321D01*
X01008855Y00785385D01*
X01008847Y00785432D01*
X01008839Y00785456D01*
Y00785464D01*
X01008815Y00785560D01*
X01008775Y00785648D01*
X01008743Y00785727D01*
X01008703Y00785799D01*
X01008671Y00785863D01*
X01008640Y00785911D01*
X01008624Y00785943D01*
X01008616Y00785951D01*
X01008552Y00786047D01*
X01008464Y00786142D01*
X01008376Y00786230D01*
X01008289Y00786318D01*
X01008209Y00786389D01*
X01008137Y00786453D01*
X01008089Y00786485D01*
X01008081Y00786501D01*
X01008073D01*
X01007994Y00786565D01*
X01007914Y00786621D01*
X01007730Y00786756D01*
X01007547Y00786884D01*
X01007364Y00787012D01*
X01007204Y00787115D01*
X01007132Y00787163D01*
X01007068Y00787203D01*
X01007021Y00787235D01*
X01006981Y00787259D01*
X01006957Y00787275D01*
X01006949Y00787283D01*
X01005250Y00788367D01*
Y00789715D01*
X01007467Y00788304D01*
D02*
G37*
G36*
X01009708Y00781070D02*
X01009908Y00781062D01*
X01010091Y00781046D01*
X01010267Y00781030D01*
X01010418Y00781014D01*
X01010570Y00780998D01*
X01010697Y00780982D01*
X01010817Y00780966D01*
X01010921Y00780950D01*
X01011008Y00780934D01*
X01011080Y00780918D01*
X01011136Y00780902D01*
X01011176Y00780894D01*
X01011200Y00780886D01*
X01011208D01*
X01011463Y00780815D01*
X01011702Y00780727D01*
X01011910Y00780647D01*
X01011997Y00780607D01*
X01012085Y00780567D01*
X01012157Y00780527D01*
X01012229Y00780496D01*
X01012284Y00780464D01*
X01012332Y00780440D01*
X01012372Y00780416D01*
X01012396Y00780400D01*
X01012412Y00780384D01*
X01012420D01*
X01012596Y00780256D01*
X01012755Y00780121D01*
X01012883Y00779985D01*
X01012994Y00779857D01*
X01013074Y00779738D01*
X01013138Y00779650D01*
X01013162Y00779610D01*
X01013170Y00779586D01*
X01013186Y00779570D01*
Y00779562D01*
X01013273Y00779371D01*
X01013345Y00779172D01*
X01013393Y00778980D01*
X01013425Y00778805D01*
X01013433Y00778725D01*
X01013441Y00778645D01*
X01013449Y00778581D01*
X01013457Y00778525D01*
Y00778414D01*
X01013449Y00778246D01*
X01013433Y00778095D01*
X01013409Y00777943D01*
X01013385Y00777808D01*
X01013345Y00777672D01*
X01013305Y00777552D01*
X01013266Y00777441D01*
X01013218Y00777337D01*
X01013170Y00777249D01*
X01013130Y00777162D01*
X01013090Y00777098D01*
X01013050Y00777034D01*
X01013026Y00776994D01*
X01013002Y00776954D01*
X01012986Y00776938D01*
X01012978Y00776930D01*
X01012883Y00776827D01*
X01012779Y00776723D01*
X01012564Y00776540D01*
X01012340Y00776388D01*
X01012117Y00776268D01*
X01012013Y00776213D01*
X01011918Y00776173D01*
X01011838Y00776133D01*
X01011758Y00776101D01*
X01011702Y00776077D01*
X01011654Y00776061D01*
X01011622Y00776045D01*
X01011615D01*
X01011439Y00775997D01*
X01011264Y00775949D01*
X01010873Y00775878D01*
X01010490Y00775822D01*
X01010299Y00775806D01*
X01010115Y00775790D01*
X01009940Y00775774D01*
X01009780Y00775766D01*
X01009645Y00775758D01*
X01009517D01*
X01009421Y00775750D01*
X01009342D01*
X01009294D01*
X01009286D01*
X01009278D01*
X01008863Y00775758D01*
X01008472Y00775782D01*
X01008121Y00775822D01*
X01007786Y00775878D01*
X01007491Y00775933D01*
X01007220Y00776005D01*
X01006973Y00776077D01*
X01006757Y00776157D01*
X01006566Y00776228D01*
X01006398Y00776300D01*
X01006263Y00776372D01*
X01006151Y00776428D01*
X01006064Y00776484D01*
X01006000Y00776524D01*
X01005968Y00776548D01*
X01005952Y00776555D01*
X01005808Y00776683D01*
X01005673Y00776827D01*
X01005561Y00776978D01*
X01005465Y00777130D01*
X01005386Y00777281D01*
X01005322Y00777441D01*
X01005266Y00777592D01*
X01005218Y00777736D01*
X01005186Y00777871D01*
X01005162Y00777999D01*
X01005138Y00778119D01*
X01005130Y00778214D01*
X01005122Y00778302D01*
X01005114Y00778358D01*
Y00778414D01*
X01005122Y00778581D01*
X01005138Y00778733D01*
X01005162Y00778884D01*
X01005186Y00779020D01*
X01005226Y00779156D01*
X01005266Y00779275D01*
X01005306Y00779387D01*
X01005354Y00779491D01*
X01005402Y00779578D01*
X01005441Y00779658D01*
X01005481Y00779730D01*
X01005521Y00779786D01*
X01005545Y00779834D01*
X01005569Y00779865D01*
X01005585Y00779881D01*
X01005593Y00779889D01*
X01005689Y00779993D01*
X01005792Y00780097D01*
X01006008Y00780280D01*
X01006239Y00780432D01*
X01006454Y00780551D01*
X01006558Y00780607D01*
X01006654Y00780647D01*
X01006733Y00780687D01*
X01006813Y00780719D01*
X01006869Y00780743D01*
X01006917Y00780759D01*
X01006949Y00780775D01*
X01006957D01*
X01007132Y00780831D01*
X01007308Y00780878D01*
X01007691Y00780950D01*
X01008081Y00781006D01*
X01008265Y00781022D01*
X01008448Y00781038D01*
X01008624Y00781054D01*
X01008775Y00781062D01*
X01008919Y00781070D01*
X01009038D01*
X01009142Y00781078D01*
X01009214D01*
X01009262D01*
X01009278D01*
X01009501D01*
X01009708Y00781070D01*
D02*
G37*
G36*
X01052572Y00832707D02*
X01049486D01*
Y00833719D01*
X01052572D01*
Y00832707D01*
D02*
G37*
G36*
X01057342Y00830250D02*
X01056217D01*
X01053019Y00838425D01*
X01054119D01*
X01056337Y00832483D01*
X01056424Y00832236D01*
X01056512Y00831989D01*
X01056584Y00831765D01*
X01056648Y00831566D01*
X01056680Y00831470D01*
X01056704Y00831391D01*
X01056720Y00831319D01*
X01056743Y00831255D01*
X01056759Y00831207D01*
X01056767Y00831175D01*
X01056775Y00831151D01*
Y00831143D01*
X01056847Y00831383D01*
X01056919Y00831614D01*
X01056991Y00831837D01*
X01057055Y00832045D01*
X01057086Y00832140D01*
X01057118Y00832220D01*
X01057142Y00832300D01*
X01057166Y00832364D01*
X01057182Y00832411D01*
X01057198Y00832451D01*
X01057206Y00832475D01*
Y00832483D01*
X01059328Y00838425D01*
X01060500D01*
X01057342Y00830250D01*
D02*
G37*
G36*
X01040568Y00869748D02*
X01042793D01*
Y00868815D01*
X01040568D01*
Y00866574D01*
X01039619D01*
Y00868815D01*
X01037394D01*
Y00869748D01*
X01039619D01*
Y00871973D01*
X01040568D01*
Y00869748D01*
D02*
G37*
G36*
X01047842Y00865250D02*
X01046717D01*
X01043519Y00873425D01*
X01044620D01*
X01046837Y00867483D01*
X01046925Y00867236D01*
X01047012Y00866989D01*
X01047084Y00866765D01*
X01047148Y00866566D01*
X01047180Y00866470D01*
X01047204Y00866391D01*
X01047220Y00866319D01*
X01047243Y00866255D01*
X01047259Y00866207D01*
X01047267Y00866175D01*
X01047275Y00866151D01*
Y00866143D01*
X01047347Y00866383D01*
X01047419Y00866614D01*
X01047491Y00866837D01*
X01047554Y00867045D01*
X01047586Y00867140D01*
X01047618Y00867220D01*
X01047642Y00867300D01*
X01047666Y00867364D01*
X01047682Y00867411D01*
X01047698Y00867451D01*
X01047706Y00867475D01*
Y00867483D01*
X01049828Y00873425D01*
X01051000D01*
X01047842Y00865250D01*
D02*
G37*
G36*
X00940025Y00762750D02*
X00938988D01*
Y00769162D01*
X00934697Y00762750D01*
X00933581D01*
Y00770925D01*
X00934618D01*
Y00764505D01*
X00938916Y00770925D01*
X00940025D01*
Y00762750D01*
D02*
G37*
G36*
X00943000D02*
X00941915D01*
Y00770925D01*
X00943000D01*
Y00762750D01*
D02*
G37*
G36*
X00932384Y00769960D02*
X00929689D01*
Y00762750D01*
X00928604D01*
Y00769960D01*
X00925900D01*
Y00770925D01*
X00932384D01*
Y00769960D01*
D02*
G37*
G36*
X00971589Y00771311D02*
X00971789Y00771295D01*
X00971972Y00771271D01*
X00972156Y00771239D01*
X00972331Y00771207D01*
X00972498Y00771159D01*
X00972650Y00771119D01*
X00972785Y00771071D01*
X00972921Y00771023D01*
X00973033Y00770984D01*
X00973137Y00770936D01*
X00973216Y00770904D01*
X00973288Y00770872D01*
X00973336Y00770848D01*
X00973368Y00770832D01*
X00973376Y00770824D01*
X00973543Y00770728D01*
X00973695Y00770617D01*
X00973838Y00770505D01*
X00973974Y00770385D01*
X00974093Y00770266D01*
X00974213Y00770146D01*
X00974317Y00770026D01*
X00974405Y00769915D01*
X00974492Y00769803D01*
X00974564Y00769699D01*
X00974620Y00769612D01*
X00974676Y00769532D01*
X00974716Y00769468D01*
X00974740Y00769412D01*
X00974755Y00769380D01*
X00974763Y00769372D01*
X00974851Y00769189D01*
X00974923Y00769006D01*
X00974987Y00768814D01*
X00975043Y00768623D01*
X00975090Y00768439D01*
X00975130Y00768248D01*
X00975162Y00768073D01*
X00975186Y00767905D01*
X00975210Y00767746D01*
X00975226Y00767602D01*
X00975234Y00767474D01*
X00975242Y00767363D01*
X00975250Y00767275D01*
Y00767203D01*
Y00767163D01*
Y00767147D01*
X00975242Y00766932D01*
X00975234Y00766717D01*
X00975210Y00766509D01*
X00975186Y00766310D01*
X00975146Y00766118D01*
X00975114Y00765935D01*
X00975074Y00765768D01*
X00975035Y00765608D01*
X00974995Y00765464D01*
X00974955Y00765337D01*
X00974915Y00765225D01*
X00974883Y00765129D01*
X00974859Y00765058D01*
X00974835Y00765002D01*
X00974827Y00764970D01*
X00974819Y00764954D01*
X00974732Y00764771D01*
X00974644Y00764595D01*
X00974540Y00764436D01*
X00974445Y00764284D01*
X00974341Y00764140D01*
X00974237Y00764013D01*
X00974133Y00763901D01*
X00974030Y00763798D01*
X00973934Y00763702D01*
X00973846Y00763622D01*
X00973774Y00763550D01*
X00973703Y00763503D01*
X00973647Y00763455D01*
X00973599Y00763423D01*
X00973575Y00763407D01*
X00973567Y00763399D01*
X00973408Y00763303D01*
X00973240Y00763223D01*
X00973057Y00763151D01*
X00972881Y00763088D01*
X00972698Y00763040D01*
X00972522Y00762992D01*
X00972347Y00762960D01*
X00972179Y00762928D01*
X00972020Y00762912D01*
X00971876Y00762896D01*
X00971749Y00762880D01*
X00971637Y00762872D01*
X00971541Y00762864D01*
X00971414D01*
X00971182Y00762872D01*
X00970951Y00762896D01*
X00970744Y00762928D01*
X00970536Y00762976D01*
X00970345Y00763024D01*
X00970170Y00763088D01*
X00970002Y00763144D01*
X00969850Y00763215D01*
X00969723Y00763279D01*
X00969603Y00763343D01*
X00969500Y00763399D01*
X00969412Y00763447D01*
X00969340Y00763494D01*
X00969292Y00763526D01*
X00969260Y00763550D01*
X00969252Y00763558D01*
X00969093Y00763694D01*
X00968941Y00763845D01*
X00968814Y00764005D01*
X00968686Y00764172D01*
X00968574Y00764340D01*
X00968471Y00764507D01*
X00968383Y00764675D01*
X00968303Y00764842D01*
X00968239Y00764994D01*
X00968176Y00765137D01*
X00968128Y00765265D01*
X00968088Y00765377D01*
X00968064Y00765464D01*
X00968040Y00765536D01*
X00968024Y00765576D01*
Y00765592D01*
X00969109Y00765863D01*
X00969157Y00765680D01*
X00969212Y00765504D01*
X00969268Y00765337D01*
X00969332Y00765185D01*
X00969404Y00765050D01*
X00969476Y00764922D01*
X00969547Y00764802D01*
X00969619Y00764699D01*
X00969683Y00764611D01*
X00969747Y00764531D01*
X00969811Y00764460D01*
X00969858Y00764404D01*
X00969898Y00764364D01*
X00969938Y00764332D01*
X00969954Y00764316D01*
X00969962Y00764308D01*
X00970082Y00764220D01*
X00970209Y00764140D01*
X00970337Y00764069D01*
X00970465Y00764005D01*
X00970600Y00763957D01*
X00970728Y00763917D01*
X00970967Y00763853D01*
X00971079Y00763829D01*
X00971182Y00763813D01*
X00971270Y00763805D01*
X00971350Y00763798D01*
X00971414Y00763790D01*
X00971501D01*
X00971637Y00763798D01*
X00971773Y00763805D01*
X00972036Y00763853D01*
X00972267Y00763909D01*
X00972379Y00763949D01*
X00972475Y00763981D01*
X00972570Y00764021D01*
X00972650Y00764053D01*
X00972722Y00764085D01*
X00972778Y00764117D01*
X00972825Y00764140D01*
X00972857Y00764156D01*
X00972881Y00764164D01*
X00972889Y00764172D01*
X00973001Y00764252D01*
X00973112Y00764332D01*
X00973304Y00764515D01*
X00973464Y00764707D01*
X00973599Y00764898D01*
X00973703Y00765066D01*
X00973743Y00765137D01*
X00973774Y00765201D01*
X00973798Y00765257D01*
X00973814Y00765297D01*
X00973830Y00765321D01*
Y00765329D01*
X00973934Y00765632D01*
X00974006Y00765943D01*
X00974062Y00766254D01*
X00974078Y00766398D01*
X00974093Y00766533D01*
X00974109Y00766669D01*
X00974118Y00766780D01*
X00974125Y00766892D01*
Y00766980D01*
X00974133Y00767052D01*
Y00767107D01*
Y00767147D01*
Y00767155D01*
X00974125Y00767450D01*
X00974093Y00767738D01*
X00974054Y00768001D01*
X00974030Y00768128D01*
X00974006Y00768240D01*
X00973982Y00768344D01*
X00973958Y00768439D01*
X00973934Y00768519D01*
X00973918Y00768591D01*
X00973902Y00768647D01*
X00973886Y00768687D01*
X00973878Y00768710D01*
Y00768718D01*
X00973822Y00768862D01*
X00973766Y00768990D01*
X00973703Y00769117D01*
X00973631Y00769229D01*
X00973559Y00769341D01*
X00973487Y00769444D01*
X00973416Y00769532D01*
X00973336Y00769620D01*
X00973272Y00769691D01*
X00973208Y00769755D01*
X00973144Y00769811D01*
X00973097Y00769859D01*
X00973049Y00769891D01*
X00973017Y00769915D01*
X00973001Y00769931D01*
X00972993Y00769939D01*
X00972873Y00770018D01*
X00972746Y00770090D01*
X00972610Y00770146D01*
X00972483Y00770202D01*
X00972347Y00770250D01*
X00972219Y00770282D01*
X00971964Y00770338D01*
X00971852Y00770353D01*
X00971749Y00770369D01*
X00971653Y00770377D01*
X00971573Y00770385D01*
X00971501Y00770393D01*
X00971414D01*
X00971262Y00770385D01*
X00971119Y00770377D01*
X00970855Y00770330D01*
X00970736Y00770298D01*
X00970624Y00770266D01*
X00970520Y00770226D01*
X00970433Y00770186D01*
X00970345Y00770146D01*
X00970273Y00770106D01*
X00970209Y00770074D01*
X00970154Y00770042D01*
X00970114Y00770018D01*
X00970082Y00769995D01*
X00970066Y00769987D01*
X00970058Y00769979D01*
X00969962Y00769899D01*
X00969866Y00769803D01*
X00969699Y00769604D01*
X00969555Y00769389D01*
X00969436Y00769181D01*
X00969388Y00769077D01*
X00969348Y00768990D01*
X00969308Y00768902D01*
X00969284Y00768830D01*
X00969260Y00768774D01*
X00969244Y00768727D01*
X00969228Y00768695D01*
Y00768687D01*
X00968160Y00768934D01*
X00968232Y00769141D01*
X00968303Y00769333D01*
X00968391Y00769516D01*
X00968487Y00769684D01*
X00968582Y00769843D01*
X00968678Y00769987D01*
X00968774Y00770114D01*
X00968869Y00770234D01*
X00968965Y00770338D01*
X00969053Y00770433D01*
X00969125Y00770513D01*
X00969196Y00770577D01*
X00969252Y00770625D01*
X00969292Y00770657D01*
X00969324Y00770680D01*
X00969332Y00770688D01*
X00969492Y00770800D01*
X00969659Y00770896D01*
X00969835Y00770984D01*
X00970010Y00771055D01*
X00970178Y00771111D01*
X00970353Y00771167D01*
X00970520Y00771207D01*
X00970672Y00771239D01*
X00970824Y00771263D01*
X00970959Y00771287D01*
X00971079Y00771303D01*
X00971182Y00771311D01*
X00971270Y00771319D01*
X00971390D01*
X00971589Y00771311D01*
D02*
G37*
G36*
X00966732Y00763000D02*
X00961628D01*
Y00763965D01*
X00965647D01*
Y00771175D01*
X00966732D01*
Y00763000D01*
D02*
G37*
G36*
X00975500Y00751500D02*
X00972549D01*
X00972278Y00751508D01*
X00972031Y00751524D01*
X00971807Y00751540D01*
X00971712Y00751556D01*
X00971616Y00751572D01*
X00971536Y00751580D01*
X00971456Y00751596D01*
X00971393Y00751604D01*
X00971345Y00751612D01*
X00971297Y00751620D01*
X00971265Y00751628D01*
X00971249Y00751636D01*
X00971241D01*
X00971034Y00751691D01*
X00970842Y00751755D01*
X00970675Y00751827D01*
X00970531Y00751891D01*
X00970419Y00751947D01*
X00970372Y00751979D01*
X00970332Y00751994D01*
X00970300Y00752018D01*
X00970276Y00752034D01*
X00970268Y00752042D01*
X00970260D01*
X00970108Y00752154D01*
X00969973Y00752274D01*
X00969845Y00752393D01*
X00969734Y00752513D01*
X00969646Y00752625D01*
X00969574Y00752704D01*
X00969550Y00752736D01*
X00969534Y00752760D01*
X00969518Y00752776D01*
Y00752784D01*
X00969399Y00752968D01*
X00969287Y00753167D01*
X00969191Y00753366D01*
X00969111Y00753558D01*
X00969080Y00753637D01*
X00969048Y00753717D01*
X00969024Y00753789D01*
X00969000Y00753853D01*
X00968984Y00753901D01*
X00968968Y00753941D01*
X00968960Y00753964D01*
Y00753972D01*
X00968888Y00754252D01*
X00968832Y00754539D01*
X00968792Y00754818D01*
X00968777Y00754946D01*
X00968761Y00755073D01*
X00968753Y00755193D01*
X00968745Y00755296D01*
Y00755392D01*
X00968737Y00755472D01*
Y00755544D01*
Y00755592D01*
Y00755623D01*
Y00755631D01*
X00968753Y00756030D01*
X00968769Y00756214D01*
X00968784Y00756397D01*
X00968809Y00756564D01*
X00968840Y00756724D01*
X00968872Y00756876D01*
X00968896Y00757011D01*
X00968928Y00757131D01*
X00968960Y00757242D01*
X00968984Y00757338D01*
X00969016Y00757418D01*
X00969032Y00757482D01*
X00969048Y00757530D01*
X00969064Y00757561D01*
Y00757569D01*
X00969199Y00757872D01*
X00969271Y00758016D01*
X00969351Y00758152D01*
X00969431Y00758271D01*
X00969510Y00758383D01*
X00969590Y00758495D01*
X00969662Y00758590D01*
X00969742Y00758670D01*
X00969805Y00758750D01*
X00969869Y00758814D01*
X00969925Y00758869D01*
X00969965Y00758909D01*
X00969997Y00758941D01*
X00970021Y00758957D01*
X00970029Y00758965D01*
X00970220Y00759117D01*
X00970427Y00759236D01*
X00970627Y00759340D01*
X00970818Y00759420D01*
X00970906Y00759452D01*
X00970986Y00759484D01*
X00971050Y00759508D01*
X00971113Y00759523D01*
X00971161Y00759539D01*
X00971201Y00759547D01*
X00971225Y00759555D01*
X00971233D01*
X00971329Y00759579D01*
X00971440Y00759595D01*
X00971672Y00759627D01*
X00971911Y00759643D01*
X00972150Y00759659D01*
X00972254Y00759667D01*
X00972358D01*
X00972445Y00759675D01*
X00975500D01*
Y00751500D01*
D02*
G37*
G36*
X00968139D02*
X00966998D01*
X00966105Y00753972D01*
X00962675D01*
X00961726Y00751500D01*
X00960498D01*
X00963840Y00759675D01*
X00965012D01*
X00968139Y00751500D01*
D02*
G37*
G36*
X00970632Y00747811D02*
X00970855Y00747795D01*
X00971062Y00747771D01*
X00971262Y00747739D01*
X00971453Y00747699D01*
X00971629Y00747659D01*
X00971796Y00747611D01*
X00971948Y00747571D01*
X00972083Y00747523D01*
X00972211Y00747476D01*
X00972315Y00747436D01*
X00972402Y00747396D01*
X00972474Y00747364D01*
X00972530Y00747340D01*
X00972562Y00747324D01*
X00972570Y00747316D01*
X00972737Y00747212D01*
X00972897Y00747109D01*
X00973048Y00746989D01*
X00973184Y00746861D01*
X00973320Y00746734D01*
X00973431Y00746606D01*
X00973543Y00746479D01*
X00973639Y00746359D01*
X00973726Y00746239D01*
X00973798Y00746128D01*
X00973862Y00746032D01*
X00973910Y00745944D01*
X00973950Y00745872D01*
X00973982Y00745825D01*
X00973997Y00745793D01*
X00974006Y00745777D01*
X00974093Y00745577D01*
X00974165Y00745386D01*
X00974237Y00745187D01*
X00974293Y00744995D01*
X00974341Y00744804D01*
X00974380Y00744620D01*
X00974412Y00744445D01*
X00974436Y00744277D01*
X00974460Y00744126D01*
X00974476Y00743982D01*
X00974484Y00743863D01*
X00974492Y00743751D01*
X00974500Y00743671D01*
Y00743607D01*
Y00743568D01*
Y00743552D01*
X00974492Y00743328D01*
X00974476Y00743113D01*
X00974452Y00742906D01*
X00974420Y00742706D01*
X00974388Y00742515D01*
X00974341Y00742331D01*
X00974301Y00742164D01*
X00974253Y00742004D01*
X00974205Y00741869D01*
X00974165Y00741741D01*
X00974117Y00741629D01*
X00974085Y00741542D01*
X00974053Y00741462D01*
X00974029Y00741414D01*
X00974014Y00741374D01*
X00974006Y00741366D01*
X00973902Y00741191D01*
X00973798Y00741023D01*
X00973679Y00740864D01*
X00973559Y00740720D01*
X00973439Y00740593D01*
X00973312Y00740465D01*
X00973192Y00740353D01*
X00973072Y00740258D01*
X00972961Y00740170D01*
X00972857Y00740090D01*
X00972761Y00740026D01*
X00972682Y00739971D01*
X00972618Y00739931D01*
X00972562Y00739899D01*
X00972530Y00739883D01*
X00972522Y00739875D01*
X00972331Y00739787D01*
X00972147Y00739707D01*
X00971956Y00739636D01*
X00971764Y00739580D01*
X00971573Y00739532D01*
X00971389Y00739492D01*
X00971222Y00739452D01*
X00971055Y00739428D01*
X00970903Y00739404D01*
X00970760Y00739388D01*
X00970640Y00739380D01*
X00970528Y00739372D01*
X00970448Y00739364D01*
X00970329D01*
X00969994Y00739380D01*
X00969683Y00739412D01*
X00969531Y00739436D01*
X00969388Y00739468D01*
X00969252Y00739492D01*
X00969125Y00739524D01*
X00969005Y00739556D01*
X00968901Y00739580D01*
X00968813Y00739612D01*
X00968734Y00739636D01*
X00968670Y00739651D01*
X00968630Y00739668D01*
X00968598Y00739683D01*
X00968590D01*
X00968271Y00739819D01*
X00967968Y00739971D01*
X00967689Y00740122D01*
X00967561Y00740202D01*
X00967442Y00740282D01*
X00967338Y00740353D01*
X00967234Y00740417D01*
X00967147Y00740473D01*
X00967075Y00740529D01*
X00967019Y00740569D01*
X00966971Y00740609D01*
X00966947Y00740625D01*
X00966939Y00740632D01*
Y00743671D01*
X00970400D01*
Y00742706D01*
X00968000D01*
Y00741183D01*
X00968143Y00741071D01*
X00968311Y00740959D01*
X00968478Y00740864D01*
X00968638Y00740776D01*
X00968790Y00740704D01*
X00968853Y00740672D01*
X00968909Y00740648D01*
X00968957Y00740625D01*
X00968989Y00740617D01*
X00969013Y00740601D01*
X00969021D01*
X00969268Y00740513D01*
X00969515Y00740449D01*
X00969746Y00740401D01*
X00969954Y00740369D01*
X00970050Y00740361D01*
X00970137Y00740353D01*
X00970209Y00740345D01*
X00970273D01*
X00970321Y00740337D01*
X00970393D01*
X00970544Y00740345D01*
X00970688Y00740353D01*
X00970967Y00740393D01*
X00971230Y00740449D01*
X00971350Y00740481D01*
X00971453Y00740513D01*
X00971557Y00740545D01*
X00971645Y00740577D01*
X00971724Y00740609D01*
X00971788Y00740632D01*
X00971844Y00740657D01*
X00971884Y00740672D01*
X00971908Y00740688D01*
X00971916D01*
X00972044Y00740760D01*
X00972171Y00740840D01*
X00972283Y00740920D01*
X00972386Y00741007D01*
X00972490Y00741103D01*
X00972578Y00741191D01*
X00972658Y00741279D01*
X00972729Y00741366D01*
X00972793Y00741454D01*
X00972849Y00741534D01*
X00972897Y00741598D01*
X00972937Y00741661D01*
X00972969Y00741709D01*
X00972993Y00741749D01*
X00973001Y00741773D01*
X00973009Y00741781D01*
X00973072Y00741925D01*
X00973128Y00742076D01*
X00973224Y00742379D01*
X00973288Y00742690D01*
X00973320Y00742834D01*
X00973336Y00742977D01*
X00973352Y00743113D01*
X00973360Y00743233D01*
X00973375Y00743336D01*
Y00743432D01*
X00973383Y00743512D01*
Y00743568D01*
Y00743599D01*
Y00743615D01*
X00973367Y00743942D01*
X00973336Y00744246D01*
X00973312Y00744389D01*
X00973288Y00744525D01*
X00973256Y00744652D01*
X00973224Y00744772D01*
X00973200Y00744875D01*
X00973168Y00744971D01*
X00973144Y00745059D01*
X00973120Y00745123D01*
X00973104Y00745187D01*
X00973088Y00745227D01*
X00973072Y00745250D01*
Y00745258D01*
X00973001Y00745418D01*
X00972913Y00745569D01*
X00972833Y00745705D01*
X00972745Y00745825D01*
X00972674Y00745928D01*
X00972618Y00746000D01*
X00972578Y00746048D01*
X00972562Y00746064D01*
X00972426Y00746199D01*
X00972283Y00746319D01*
X00972139Y00746415D01*
X00972004Y00746503D01*
X00971876Y00746574D01*
X00971828Y00746598D01*
X00971780Y00746622D01*
X00971740Y00746638D01*
X00971717Y00746654D01*
X00971701Y00746662D01*
X00971693D01*
X00971485Y00746742D01*
X00971262Y00746798D01*
X00971047Y00746837D01*
X00970847Y00746861D01*
X00970751Y00746877D01*
X00970672Y00746885D01*
X00970600D01*
X00970536Y00746893D01*
X00970408D01*
X00970185Y00746885D01*
X00969970Y00746861D01*
X00969779Y00746822D01*
X00969611Y00746790D01*
X00969539Y00746766D01*
X00969475Y00746750D01*
X00969419Y00746726D01*
X00969372Y00746710D01*
X00969332Y00746702D01*
X00969308Y00746686D01*
X00969292Y00746678D01*
X00969284D01*
X00969100Y00746590D01*
X00968949Y00746495D01*
X00968813Y00746399D01*
X00968702Y00746311D01*
X00968614Y00746231D01*
X00968550Y00746160D01*
X00968518Y00746120D01*
X00968502Y00746112D01*
Y00746104D01*
X00968399Y00745960D01*
X00968311Y00745801D01*
X00968231Y00745633D01*
X00968167Y00745482D01*
X00968112Y00745338D01*
X00968088Y00745274D01*
X00968072Y00745227D01*
X00968056Y00745187D01*
X00968048Y00745147D01*
X00968040Y00745131D01*
Y00745123D01*
X00967067Y00745386D01*
X00967107Y00745537D01*
X00967154Y00745681D01*
X00967202Y00745817D01*
X00967250Y00745944D01*
X00967306Y00746064D01*
X00967354Y00746176D01*
X00967402Y00746279D01*
X00967458Y00746367D01*
X00967505Y00746447D01*
X00967545Y00746518D01*
X00967585Y00746582D01*
X00967617Y00746630D01*
X00967649Y00746670D01*
X00967673Y00746702D01*
X00967681Y00746718D01*
X00967689Y00746726D01*
X00967856Y00746909D01*
X00968040Y00747069D01*
X00968223Y00747204D01*
X00968407Y00747316D01*
X00968566Y00747404D01*
X00968638Y00747444D01*
X00968694Y00747468D01*
X00968742Y00747492D01*
X00968782Y00747507D01*
X00968805Y00747523D01*
X00968813D01*
X00969085Y00747619D01*
X00969364Y00747691D01*
X00969627Y00747747D01*
X00969754Y00747763D01*
X00969874Y00747779D01*
X00969986Y00747795D01*
X00970089Y00747803D01*
X00970185Y00747811D01*
X00970257D01*
X00970321Y00747819D01*
X00970408D01*
X00970632Y00747811D01*
D02*
G37*
G36*
X00975074Y00732368D02*
X00974133Y00732249D01*
X00974046Y00732368D01*
X00973942Y00732480D01*
X00973846Y00732576D01*
X00973743Y00732663D01*
X00973663Y00732727D01*
X00973591Y00732775D01*
X00973543Y00732807D01*
X00973535Y00732815D01*
X00973527D01*
X00973376Y00732887D01*
X00973224Y00732942D01*
X00973081Y00732982D01*
X00972945Y00733014D01*
X00972825Y00733030D01*
X00972778D01*
X00972730Y00733038D01*
X00972650D01*
X00972506Y00733030D01*
X00972371Y00733014D01*
X00972243Y00732990D01*
X00972116Y00732958D01*
X00972004Y00732918D01*
X00971900Y00732879D01*
X00971805Y00732831D01*
X00971717Y00732791D01*
X00971645Y00732743D01*
X00971573Y00732695D01*
X00971517Y00732655D01*
X00971470Y00732615D01*
X00971430Y00732583D01*
X00971406Y00732560D01*
X00971390Y00732544D01*
X00971382Y00732536D01*
X00971294Y00732440D01*
X00971222Y00732336D01*
X00971159Y00732225D01*
X00971103Y00732113D01*
X00971055Y00732001D01*
X00971015Y00731890D01*
X00970959Y00731674D01*
X00970935Y00731571D01*
X00970919Y00731475D01*
X00970911Y00731395D01*
X00970903Y00731323D01*
X00970895Y00731260D01*
Y00731220D01*
Y00731188D01*
Y00731180D01*
X00970903Y00731012D01*
X00970919Y00730861D01*
X00970943Y00730709D01*
X00970975Y00730574D01*
X00971015Y00730446D01*
X00971055Y00730326D01*
X00971103Y00730215D01*
X00971143Y00730119D01*
X00971190Y00730031D01*
X00971238Y00729951D01*
X00971278Y00729880D01*
X00971318Y00729832D01*
X00971350Y00729784D01*
X00971374Y00729752D01*
X00971390Y00729736D01*
X00971398Y00729728D01*
X00971494Y00729632D01*
X00971597Y00729553D01*
X00971701Y00729481D01*
X00971805Y00729417D01*
X00971908Y00729361D01*
X00972004Y00729322D01*
X00972203Y00729258D01*
X00972291Y00729234D01*
X00972371Y00729218D01*
X00972443Y00729202D01*
X00972506Y00729194D01*
X00972554Y00729186D01*
X00972626D01*
X00972738Y00729194D01*
X00972841Y00729202D01*
X00973041Y00729250D01*
X00973216Y00729305D01*
X00973368Y00729377D01*
X00973495Y00729449D01*
X00973543Y00729481D01*
X00973583Y00729513D01*
X00973615Y00729537D01*
X00973639Y00729553D01*
X00973655Y00729561D01*
X00973663Y00729569D01*
X00973735Y00729649D01*
X00973806Y00729728D01*
X00973926Y00729920D01*
X00974014Y00730111D01*
X00974086Y00730294D01*
X00974141Y00730470D01*
X00974157Y00730542D01*
X00974173Y00730605D01*
X00974181Y00730661D01*
X00974189Y00730701D01*
X00974197Y00730725D01*
Y00730733D01*
X00975250Y00730645D01*
X00975226Y00730454D01*
X00975186Y00730278D01*
X00975138Y00730111D01*
X00975082Y00729951D01*
X00975019Y00729800D01*
X00974955Y00729664D01*
X00974883Y00729537D01*
X00974811Y00729425D01*
X00974747Y00729330D01*
X00974676Y00729242D01*
X00974620Y00729162D01*
X00974564Y00729098D01*
X00974516Y00729050D01*
X00974484Y00729018D01*
X00974460Y00728995D01*
X00974452Y00728987D01*
X00974317Y00728875D01*
X00974173Y00728779D01*
X00974022Y00728699D01*
X00973870Y00728628D01*
X00973711Y00728564D01*
X00973559Y00728516D01*
X00973416Y00728476D01*
X00973272Y00728444D01*
X00973137Y00728420D01*
X00973017Y00728396D01*
X00972905Y00728380D01*
X00972810Y00728372D01*
X00972730D01*
X00972674Y00728364D01*
X00972626D01*
X00972379Y00728372D01*
X00972140Y00728404D01*
X00971924Y00728452D01*
X00971717Y00728516D01*
X00971525Y00728596D01*
X00971350Y00728676D01*
X00971190Y00728763D01*
X00971039Y00728859D01*
X00970911Y00728955D01*
X00970800Y00729042D01*
X00970704Y00729122D01*
X00970624Y00729202D01*
X00970560Y00729266D01*
X00970520Y00729314D01*
X00970489Y00729345D01*
X00970481Y00729353D01*
X00970369Y00729505D01*
X00970265Y00729664D01*
X00970178Y00729832D01*
X00970106Y00729991D01*
X00970042Y00730151D01*
X00969986Y00730311D01*
X00969946Y00730470D01*
X00969906Y00730613D01*
X00969882Y00730749D01*
X00969858Y00730877D01*
X00969843Y00730988D01*
X00969835Y00731084D01*
Y00731164D01*
X00969827Y00731220D01*
Y00731252D01*
Y00731267D01*
X00969835Y00731483D01*
X00969858Y00731690D01*
X00969898Y00731882D01*
X00969938Y00732065D01*
X00970002Y00732233D01*
X00970058Y00732392D01*
X00970130Y00732536D01*
X00970193Y00732663D01*
X00970265Y00732783D01*
X00970337Y00732887D01*
X00970393Y00732974D01*
X00970449Y00733046D01*
X00970497Y00733102D01*
X00970536Y00733150D01*
X00970560Y00733174D01*
X00970568Y00733182D01*
X00970712Y00733309D01*
X00970855Y00733429D01*
X00971007Y00733525D01*
X00971159Y00733612D01*
X00971310Y00733684D01*
X00971462Y00733740D01*
X00971613Y00733788D01*
X00971749Y00733828D01*
X00971876Y00733860D01*
X00971996Y00733884D01*
X00972108Y00733900D01*
X00972195Y00733915D01*
X00972275D01*
X00972331Y00733923D01*
X00972379D01*
X00972530Y00733915D01*
X00972682Y00733900D01*
X00972825Y00733876D01*
X00972961Y00733844D01*
X00973224Y00733756D01*
X00973344Y00733716D01*
X00973456Y00733668D01*
X00973559Y00733612D01*
X00973647Y00733572D01*
X00973735Y00733525D01*
X00973798Y00733485D01*
X00973854Y00733453D01*
X00973894Y00733429D01*
X00973918Y00733413D01*
X00973926Y00733405D01*
X00973487Y00735614D01*
X00970209D01*
Y00736571D01*
X00974285D01*
X00975074Y00732368D01*
D02*
G37*
G36*
X00966166Y00728500D02*
X00965041D01*
X00961843Y00736675D01*
X00962944D01*
X00965161Y00730733D01*
X00965249Y00730486D01*
X00965336Y00730239D01*
X00965408Y00730015D01*
X00965472Y00729816D01*
X00965504Y00729720D01*
X00965528Y00729641D01*
X00965544Y00729569D01*
X00965568Y00729505D01*
X00965584Y00729457D01*
X00965592Y00729425D01*
X00965600Y00729401D01*
Y00729393D01*
X00965671Y00729632D01*
X00965743Y00729864D01*
X00965815Y00730087D01*
X00965879Y00730294D01*
X00965911Y00730390D01*
X00965943Y00730470D01*
X00965966Y00730550D01*
X00965990Y00730613D01*
X00966006Y00730661D01*
X00966022Y00730701D01*
X00966030Y00730725D01*
Y00730733D01*
X00968152Y00736675D01*
X00969324D01*
X00966166Y00728500D01*
D02*
G37*
G36*
X00960744Y00913325D02*
X00960664Y00913141D01*
X00960577Y00912966D01*
X00960497Y00912806D01*
X00960425Y00912663D01*
X00960393Y00912607D01*
X00960361Y00912551D01*
X00960337Y00912511D01*
X00960321Y00912479D01*
X00960305Y00912463D01*
Y00912455D01*
X00960178Y00912248D01*
X00960050Y00912056D01*
X00959931Y00911889D01*
X00959827Y00911753D01*
X00959739Y00911642D01*
X00959667Y00911562D01*
X00959643Y00911538D01*
X00959628Y00911514D01*
X00959612Y00911506D01*
Y00911498D01*
X00966000D01*
Y00910493D01*
X00957793D01*
Y00911147D01*
X00957897Y00911195D01*
X00957992Y00911259D01*
X00958192Y00911394D01*
X00958375Y00911538D01*
X00958543Y00911682D01*
X00958615Y00911753D01*
X00958686Y00911817D01*
X00958742Y00911881D01*
X00958798Y00911929D01*
X00958838Y00911969D01*
X00958870Y00912009D01*
X00958886Y00912025D01*
X00958894Y00912032D01*
X00959093Y00912280D01*
X00959277Y00912527D01*
X00959444Y00912774D01*
X00959580Y00913006D01*
X00959643Y00913109D01*
X00959691Y00913205D01*
X00959739Y00913285D01*
X00959779Y00913356D01*
X00959811Y00913420D01*
X00959835Y00913460D01*
X00959843Y00913492D01*
X00959851Y00913500D01*
X00960816D01*
X00960744Y00913325D01*
D02*
G37*
G36*
X00912250Y00733000D02*
X00911165D01*
Y00736629D01*
X00909770D01*
X00909642Y00736621D01*
X00909538Y00736613D01*
X00909458D01*
X00909395Y00736605D01*
X00909347Y00736597D01*
X00909323Y00736589D01*
X00909315D01*
X00909219Y00736565D01*
X00909131Y00736525D01*
X00909052Y00736493D01*
X00908980Y00736453D01*
X00908916Y00736422D01*
X00908868Y00736390D01*
X00908836Y00736374D01*
X00908829Y00736366D01*
X00908733Y00736302D01*
X00908637Y00736214D01*
X00908549Y00736126D01*
X00908462Y00736039D01*
X00908390Y00735959D01*
X00908326Y00735887D01*
X00908294Y00735839D01*
X00908278Y00735831D01*
Y00735823D01*
X00908214Y00735744D01*
X00908158Y00735664D01*
X00908023Y00735480D01*
X00907895Y00735297D01*
X00907768Y00735114D01*
X00907664Y00734954D01*
X00907616Y00734882D01*
X00907576Y00734818D01*
X00907544Y00734771D01*
X00907521Y00734731D01*
X00907505Y00734707D01*
X00907496Y00734699D01*
X00906412Y00733000D01*
X00905064D01*
X00906476Y00735217D01*
X00906635Y00735449D01*
X00906795Y00735664D01*
X00906946Y00735847D01*
X00907082Y00736007D01*
X00907146Y00736079D01*
X00907201Y00736134D01*
X00907249Y00736190D01*
X00907289Y00736230D01*
X00907321Y00736262D01*
X00907345Y00736294D01*
X00907361Y00736302D01*
X00907369Y00736310D01*
X00907465Y00736382D01*
X00907568Y00736461D01*
X00907672Y00736525D01*
X00907776Y00736589D01*
X00907871Y00736637D01*
X00907951Y00736685D01*
X00907983Y00736693D01*
X00908007Y00736709D01*
X00908015Y00736717D01*
X00908023D01*
X00907808Y00736749D01*
X00907608Y00736796D01*
X00907425Y00736844D01*
X00907257Y00736900D01*
X00907098Y00736964D01*
X00906954Y00737028D01*
X00906827Y00737092D01*
X00906715Y00737155D01*
X00906611Y00737219D01*
X00906524Y00737275D01*
X00906452Y00737331D01*
X00906388Y00737379D01*
X00906340Y00737419D01*
X00906308Y00737450D01*
X00906292Y00737466D01*
X00906284Y00737474D01*
X00906181Y00737586D01*
X00906101Y00737706D01*
X00906021Y00737833D01*
X00905957Y00737953D01*
X00905901Y00738081D01*
X00905854Y00738200D01*
X00905822Y00738320D01*
X00905790Y00738431D01*
X00905766Y00738535D01*
X00905750Y00738639D01*
X00905734Y00738718D01*
X00905726Y00738798D01*
X00905718Y00738854D01*
Y00738902D01*
Y00738934D01*
Y00738942D01*
Y00739069D01*
X00905734Y00739189D01*
X00905774Y00739420D01*
X00905830Y00739628D01*
X00905885Y00739811D01*
X00905917Y00739891D01*
X00905949Y00739955D01*
X00905981Y00740018D01*
X00906005Y00740074D01*
X00906029Y00740114D01*
X00906045Y00740146D01*
X00906053Y00740162D01*
X00906061Y00740170D01*
X00906197Y00740361D01*
X00906348Y00740529D01*
X00906500Y00740665D01*
X00906643Y00740768D01*
X00906771Y00740848D01*
X00906827Y00740880D01*
X00906874Y00740912D01*
X00906914Y00740928D01*
X00906946Y00740944D01*
X00906962Y00740952D01*
X00906970D01*
X00907082Y00740992D01*
X00907201Y00741023D01*
X00907465Y00741079D01*
X00907744Y00741119D01*
X00908015Y00741151D01*
X00908135Y00741159D01*
X00908254Y00741167D01*
X00908358D01*
X00908446Y00741175D01*
X00912250D01*
Y00733000D01*
D02*
G37*
G36*
X00904761Y00735871D02*
Y00734954D01*
X00901212D01*
Y00733000D01*
X00900207D01*
Y00734954D01*
X00899106D01*
Y00735871D01*
X00900207D01*
Y00741175D01*
X00901028D01*
X00904761Y00735871D01*
D02*
G37*
G36*
X00902291Y00730699D02*
X00902467Y00730683D01*
X00902626Y00730659D01*
X00902778Y00730619D01*
X00902921Y00730579D01*
X00903057Y00730531D01*
X00903185Y00730484D01*
X00903296Y00730428D01*
X00903392Y00730380D01*
X00903488Y00730324D01*
X00903559Y00730276D01*
X00903623Y00730236D01*
X00903679Y00730197D01*
X00903711Y00730173D01*
X00903735Y00730157D01*
X00903743Y00730149D01*
X00903855Y00730037D01*
X00903966Y00729925D01*
X00904062Y00729798D01*
X00904142Y00729670D01*
X00904221Y00729542D01*
X00904285Y00729407D01*
X00904349Y00729279D01*
X00904397Y00729160D01*
X00904445Y00729040D01*
X00904477Y00728936D01*
X00904509Y00728833D01*
X00904532Y00728753D01*
X00904548Y00728681D01*
X00904564Y00728633D01*
X00904572Y00728593D01*
Y00728585D01*
X00903567Y00728410D01*
X00903543Y00728546D01*
X00903520Y00728665D01*
X00903480Y00728785D01*
X00903448Y00728888D01*
X00903408Y00728992D01*
X00903368Y00729080D01*
X00903320Y00729160D01*
X00903280Y00729239D01*
X00903240Y00729303D01*
X00903201Y00729359D01*
X00903169Y00729407D01*
X00903137Y00729439D01*
X00903113Y00729471D01*
X00903089Y00729495D01*
X00903081Y00729503D01*
X00903073Y00729511D01*
X00903001Y00729574D01*
X00902921Y00729638D01*
X00902754Y00729726D01*
X00902594Y00729798D01*
X00902435Y00729838D01*
X00902299Y00729870D01*
X00902243Y00729877D01*
X00902188D01*
X00902148Y00729885D01*
X00901980D01*
X00901885Y00729870D01*
X00901693Y00729830D01*
X00901526Y00729766D01*
X00901390Y00729702D01*
X00901278Y00729638D01*
X00901191Y00729574D01*
X00901167Y00729550D01*
X00901143Y00729535D01*
X00901135Y00729527D01*
X00901127Y00729519D01*
X00901063Y00729447D01*
X00900999Y00729375D01*
X00900911Y00729223D01*
X00900840Y00729072D01*
X00900800Y00728928D01*
X00900768Y00728801D01*
X00900760Y00728745D01*
Y00728697D01*
X00900752Y00728657D01*
Y00728625D01*
Y00728609D01*
Y00728601D01*
X00900760Y00728474D01*
X00900776Y00728362D01*
X00900800Y00728250D01*
X00900832Y00728147D01*
X00900872Y00728059D01*
X00900919Y00727971D01*
X00900959Y00727891D01*
X00901007Y00727828D01*
X00901063Y00727764D01*
X00901103Y00727716D01*
X00901151Y00727668D01*
X00901191Y00727636D01*
X00901223Y00727604D01*
X00901246Y00727588D01*
X00901262Y00727580D01*
X00901270Y00727572D01*
X00901470Y00727461D01*
X00901669Y00727381D01*
X00901861Y00727317D01*
X00902044Y00727277D01*
X00902124Y00727269D01*
X00902196Y00727253D01*
X00902259Y00727245D01*
X00902315D01*
X00902363Y00727237D01*
X00902475D01*
X00902531Y00727245D01*
X00902570Y00727253D01*
X00902586D01*
X00902698Y00726376D01*
X00902546Y00726408D01*
X00902411Y00726440D01*
X00902291Y00726456D01*
X00902188Y00726464D01*
X00902108Y00726472D01*
X00902044Y00726480D01*
X00901996D01*
X00901869Y00726472D01*
X00901749Y00726464D01*
X00901526Y00726408D01*
X00901326Y00726336D01*
X00901238Y00726296D01*
X00901159Y00726256D01*
X00901087Y00726217D01*
X00901031Y00726177D01*
X00900975Y00726137D01*
X00900927Y00726105D01*
X00900895Y00726073D01*
X00900872Y00726049D01*
X00900856Y00726041D01*
X00900848Y00726033D01*
X00900768Y00725946D01*
X00900696Y00725858D01*
X00900640Y00725762D01*
X00900584Y00725666D01*
X00900537Y00725571D01*
X00900505Y00725475D01*
X00900449Y00725299D01*
X00900433Y00725212D01*
X00900417Y00725140D01*
X00900409Y00725068D01*
X00900401Y00725012D01*
X00900393Y00724957D01*
Y00724925D01*
Y00724901D01*
Y00724893D01*
X00900401Y00724757D01*
X00900417Y00724630D01*
X00900441Y00724510D01*
X00900465Y00724398D01*
X00900545Y00724191D01*
X00900592Y00724095D01*
X00900632Y00724015D01*
X00900680Y00723936D01*
X00900728Y00723872D01*
X00900768Y00723816D01*
X00900800Y00723768D01*
X00900832Y00723728D01*
X00900856Y00723704D01*
X00900872Y00723688D01*
X00900880Y00723680D01*
X00900975Y00723593D01*
X00901071Y00723521D01*
X00901167Y00723457D01*
X00901270Y00723401D01*
X00901374Y00723353D01*
X00901470Y00723314D01*
X00901661Y00723258D01*
X00901749Y00723234D01*
X00901829Y00723218D01*
X00901892Y00723210D01*
X00901956Y00723202D01*
X00902004Y00723194D01*
X00902076D01*
X00902188Y00723202D01*
X00902291Y00723210D01*
X00902483Y00723250D01*
X00902658Y00723314D01*
X00902810Y00723385D01*
X00902929Y00723449D01*
X00902977Y00723481D01*
X00903017Y00723513D01*
X00903049Y00723537D01*
X00903073Y00723553D01*
X00903081Y00723569D01*
X00903089D01*
X00903161Y00723649D01*
X00903232Y00723728D01*
X00903352Y00723920D01*
X00903456Y00724127D01*
X00903535Y00724326D01*
X00903567Y00724422D01*
X00903599Y00724510D01*
X00903623Y00724598D01*
X00903639Y00724661D01*
X00903655Y00724725D01*
X00903663Y00724765D01*
X00903671Y00724797D01*
Y00724805D01*
X00904676Y00724669D01*
X00904652Y00724478D01*
X00904612Y00724303D01*
X00904564Y00724135D01*
X00904509Y00723976D01*
X00904445Y00723824D01*
X00904381Y00723688D01*
X00904309Y00723561D01*
X00904237Y00723449D01*
X00904165Y00723345D01*
X00904102Y00723258D01*
X00904038Y00723186D01*
X00903982Y00723122D01*
X00903934Y00723066D01*
X00903902Y00723034D01*
X00903878Y00723010D01*
X00903870Y00723002D01*
X00903735Y00722891D01*
X00903591Y00722795D01*
X00903440Y00722707D01*
X00903288Y00722636D01*
X00903145Y00722572D01*
X00902993Y00722524D01*
X00902850Y00722476D01*
X00902714Y00722444D01*
X00902578Y00722420D01*
X00902459Y00722396D01*
X00902355Y00722380D01*
X00902259Y00722372D01*
X00902188D01*
X00902132Y00722364D01*
X00902084D01*
X00901861Y00722372D01*
X00901653Y00722396D01*
X00901454Y00722436D01*
X00901270Y00722484D01*
X00901095Y00722540D01*
X00900935Y00722596D01*
X00900784Y00722667D01*
X00900648Y00722739D01*
X00900521Y00722803D01*
X00900417Y00722875D01*
X00900321Y00722931D01*
X00900249Y00722995D01*
X00900186Y00723034D01*
X00900138Y00723074D01*
X00900114Y00723098D01*
X00900106Y00723106D01*
X00899970Y00723250D01*
X00899851Y00723393D01*
X00899747Y00723553D01*
X00899651Y00723704D01*
X00899579Y00723856D01*
X00899516Y00724007D01*
X00899460Y00724151D01*
X00899420Y00724286D01*
X00899388Y00724422D01*
X00899364Y00724542D01*
X00899348Y00724645D01*
X00899332Y00724741D01*
Y00724813D01*
X00899324Y00724869D01*
Y00724909D01*
Y00724917D01*
X00899332Y00725060D01*
X00899340Y00725204D01*
X00899388Y00725459D01*
X00899420Y00725571D01*
X00899452Y00725682D01*
X00899492Y00725778D01*
X00899524Y00725874D01*
X00899564Y00725953D01*
X00899604Y00726025D01*
X00899635Y00726089D01*
X00899667Y00726137D01*
X00899691Y00726177D01*
X00899715Y00726209D01*
X00899723Y00726225D01*
X00899731Y00726233D01*
X00899811Y00726328D01*
X00899891Y00726416D01*
X00900074Y00726560D01*
X00900265Y00726687D01*
X00900441Y00726775D01*
X00900608Y00726847D01*
X00900672Y00726871D01*
X00900736Y00726895D01*
X00900784Y00726910D01*
X00900824Y00726918D01*
X00900848Y00726926D01*
X00900856D01*
X00900656Y00727030D01*
X00900489Y00727142D01*
X00900345Y00727253D01*
X00900226Y00727365D01*
X00900130Y00727461D01*
X00900066Y00727541D01*
X00900042Y00727572D01*
X00900026Y00727596D01*
X00900010Y00727604D01*
Y00727612D01*
X00899914Y00727780D01*
X00899843Y00727947D01*
X00899795Y00728107D01*
X00899755Y00728258D01*
X00899739Y00728386D01*
X00899731Y00728442D01*
Y00728490D01*
X00899723Y00728530D01*
Y00728553D01*
Y00728569D01*
Y00728577D01*
X00899739Y00728785D01*
X00899771Y00728976D01*
X00899819Y00729160D01*
X00899875Y00729311D01*
X00899930Y00729447D01*
X00899954Y00729503D01*
X00899978Y00729542D01*
X00899994Y00729582D01*
X00900010Y00729606D01*
X00900026Y00729622D01*
Y00729630D01*
X00900146Y00729806D01*
X00900281Y00729965D01*
X00900425Y00730101D01*
X00900568Y00730212D01*
X00900696Y00730300D01*
X00900744Y00730340D01*
X00900792Y00730364D01*
X00900832Y00730388D01*
X00900864Y00730404D01*
X00900880Y00730420D01*
X00900888D01*
X00901103Y00730516D01*
X00901318Y00730587D01*
X00901518Y00730635D01*
X00901709Y00730675D01*
X00901797Y00730683D01*
X00901877Y00730691D01*
X00901940Y00730699D01*
X00902004D01*
X00902052Y00730707D01*
X00902116D01*
X00902291Y00730699D01*
D02*
G37*
G36*
X00912500Y00722500D02*
X00911415D01*
Y00726129D01*
X00910020D01*
X00909892Y00726121D01*
X00909788Y00726113D01*
X00909708D01*
X00909645Y00726105D01*
X00909597Y00726097D01*
X00909573Y00726089D01*
X00909565D01*
X00909469Y00726065D01*
X00909381Y00726025D01*
X00909302Y00725993D01*
X00909230Y00725953D01*
X00909166Y00725921D01*
X00909118Y00725890D01*
X00909086Y00725874D01*
X00909079Y00725866D01*
X00908983Y00725802D01*
X00908887Y00725714D01*
X00908799Y00725626D01*
X00908712Y00725539D01*
X00908640Y00725459D01*
X00908576Y00725387D01*
X00908544Y00725339D01*
X00908528Y00725331D01*
Y00725323D01*
X00908464Y00725244D01*
X00908409Y00725164D01*
X00908273Y00724980D01*
X00908145Y00724797D01*
X00908018Y00724613D01*
X00907914Y00724454D01*
X00907866Y00724382D01*
X00907826Y00724318D01*
X00907794Y00724271D01*
X00907770Y00724231D01*
X00907755Y00724207D01*
X00907747Y00724199D01*
X00906662Y00722500D01*
X00905314D01*
X00906726Y00724717D01*
X00906885Y00724949D01*
X00907045Y00725164D01*
X00907196Y00725347D01*
X00907332Y00725507D01*
X00907396Y00725579D01*
X00907451Y00725634D01*
X00907499Y00725690D01*
X00907539Y00725730D01*
X00907571Y00725762D01*
X00907595Y00725794D01*
X00907611Y00725802D01*
X00907619Y00725810D01*
X00907715Y00725882D01*
X00907818Y00725961D01*
X00907922Y00726025D01*
X00908026Y00726089D01*
X00908121Y00726137D01*
X00908201Y00726185D01*
X00908233Y00726193D01*
X00908257Y00726209D01*
X00908265Y00726217D01*
X00908273D01*
X00908058Y00726248D01*
X00907858Y00726296D01*
X00907675Y00726344D01*
X00907507Y00726400D01*
X00907348Y00726464D01*
X00907204Y00726528D01*
X00907077Y00726591D01*
X00906965Y00726655D01*
X00906861Y00726719D01*
X00906774Y00726775D01*
X00906702Y00726831D01*
X00906638Y00726879D01*
X00906590Y00726918D01*
X00906558Y00726950D01*
X00906542Y00726966D01*
X00906534Y00726974D01*
X00906431Y00727086D01*
X00906351Y00727206D01*
X00906271Y00727333D01*
X00906207Y00727453D01*
X00906151Y00727580D01*
X00906104Y00727700D01*
X00906072Y00727820D01*
X00906040Y00727931D01*
X00906016Y00728035D01*
X00906000Y00728139D01*
X00905984Y00728219D01*
X00905976Y00728298D01*
X00905968Y00728354D01*
Y00728402D01*
Y00728434D01*
Y00728442D01*
Y00728569D01*
X00905984Y00728689D01*
X00906024Y00728920D01*
X00906080Y00729128D01*
X00906135Y00729311D01*
X00906167Y00729391D01*
X00906199Y00729455D01*
X00906231Y00729519D01*
X00906255Y00729574D01*
X00906279Y00729614D01*
X00906295Y00729646D01*
X00906303Y00729662D01*
X00906311Y00729670D01*
X00906447Y00729862D01*
X00906598Y00730029D01*
X00906750Y00730165D01*
X00906893Y00730268D01*
X00907021Y00730348D01*
X00907077Y00730380D01*
X00907124Y00730412D01*
X00907164Y00730428D01*
X00907196Y00730444D01*
X00907212Y00730452D01*
X00907220D01*
X00907332Y00730492D01*
X00907451Y00730524D01*
X00907715Y00730579D01*
X00907994Y00730619D01*
X00908265Y00730651D01*
X00908385Y00730659D01*
X00908504Y00730667D01*
X00908608D01*
X00908696Y00730675D01*
X00912500D01*
Y00722500D01*
D02*
G37*
G36*
X01024730Y00862699D02*
X01024930Y00862675D01*
X01025113Y00862635D01*
X01025288Y00862587D01*
X01025448Y00862531D01*
X01025600Y00862468D01*
X01025743Y00862396D01*
X01025871Y00862332D01*
X01025982Y00862260D01*
X01026086Y00862188D01*
X01026166Y00862125D01*
X01026238Y00862069D01*
X01026301Y00862021D01*
X01026341Y00861981D01*
X01026365Y00861957D01*
X01026373Y00861949D01*
X01026501Y00861806D01*
X01026612Y00861646D01*
X01026708Y00861487D01*
X01026796Y00861319D01*
X01026860Y00861152D01*
X01026924Y00860984D01*
X01026971Y00860817D01*
X01027011Y00860665D01*
X01027035Y00860514D01*
X01027059Y00860378D01*
X01027075Y00860258D01*
X01027091Y00860155D01*
Y00860067D01*
X01027099Y00860003D01*
Y00859963D01*
Y00859947D01*
X01027091Y00859724D01*
X01027067Y00859517D01*
X01027035Y00859325D01*
X01026987Y00859134D01*
X01026939Y00858966D01*
X01026876Y00858807D01*
X01026812Y00858655D01*
X01026748Y00858528D01*
X01026684Y00858408D01*
X01026620Y00858304D01*
X01026557Y00858217D01*
X01026509Y00858145D01*
X01026461Y00858089D01*
X01026429Y00858041D01*
X01026405Y00858017D01*
X01026397Y00858009D01*
X01026262Y00857882D01*
X01026118Y00857770D01*
X01025974Y00857666D01*
X01025831Y00857587D01*
X01025687Y00857515D01*
X01025544Y00857451D01*
X01025408Y00857403D01*
X01025273Y00857371D01*
X01025153Y00857339D01*
X01025041Y00857315D01*
X01024938Y00857299D01*
X01024850Y00857283D01*
X01024778D01*
X01024730Y00857275D01*
X01024682D01*
X01024459Y00857291D01*
X01024252Y00857323D01*
X01024060Y00857371D01*
X01023893Y00857427D01*
X01023821Y00857451D01*
X01023757Y00857475D01*
X01023693Y00857499D01*
X01023645Y00857523D01*
X01023606Y00857547D01*
X01023582Y00857555D01*
X01023566Y00857571D01*
X01023558D01*
X01023374Y00857690D01*
X01023207Y00857818D01*
X01023063Y00857945D01*
X01022944Y00858065D01*
X01022848Y00858177D01*
X01022784Y00858264D01*
X01022760Y00858296D01*
X01022744Y00858320D01*
X01022728Y00858336D01*
Y00858257D01*
Y00858201D01*
Y00858161D01*
Y00858145D01*
X01022736Y00857914D01*
X01022752Y00857690D01*
X01022776Y00857483D01*
X01022800Y00857299D01*
X01022816Y00857212D01*
X01022832Y00857140D01*
X01022848Y00857076D01*
X01022856Y00857020D01*
X01022864Y00856980D01*
X01022872Y00856941D01*
X01022880Y00856925D01*
Y00856917D01*
X01022936Y00856701D01*
X01022999Y00856518D01*
X01023063Y00856350D01*
X01023127Y00856215D01*
X01023175Y00856103D01*
X01023215Y00856023D01*
X01023231Y00855999D01*
X01023247Y00855975D01*
X01023255Y00855967D01*
Y00855959D01*
X01023342Y00855832D01*
X01023430Y00855720D01*
X01023526Y00855625D01*
X01023622Y00855545D01*
X01023701Y00855481D01*
X01023765Y00855433D01*
X01023805Y00855401D01*
X01023813Y00855393D01*
X01023821D01*
X01023957Y00855322D01*
X01024092Y00855274D01*
X01024236Y00855234D01*
X01024355Y00855210D01*
X01024467Y00855194D01*
X01024555Y00855186D01*
X01024634D01*
X01024826Y00855202D01*
X01025001Y00855234D01*
X01025153Y00855282D01*
X01025281Y00855337D01*
X01025384Y00855393D01*
X01025456Y00855441D01*
X01025504Y00855473D01*
X01025512Y00855489D01*
X01025520D01*
X01025584Y00855553D01*
X01025639Y00855625D01*
X01025735Y00855776D01*
X01025815Y00855944D01*
X01025879Y00856103D01*
X01025927Y00856255D01*
X01025943Y00856318D01*
X01025958Y00856374D01*
X01025966Y00856422D01*
X01025974Y00856454D01*
X01025982Y00856478D01*
Y00856486D01*
X01026947Y00856398D01*
X01026916Y00856223D01*
X01026884Y00856055D01*
X01026836Y00855896D01*
X01026780Y00855752D01*
X01026724Y00855617D01*
X01026668Y00855497D01*
X01026604Y00855377D01*
X01026541Y00855282D01*
X01026477Y00855186D01*
X01026421Y00855114D01*
X01026365Y00855042D01*
X01026317Y00854986D01*
X01026277Y00854947D01*
X01026245Y00854915D01*
X01026230Y00854899D01*
X01026222Y00854891D01*
X01026102Y00854795D01*
X01025982Y00854715D01*
X01025855Y00854644D01*
X01025719Y00854588D01*
X01025592Y00854532D01*
X01025456Y00854492D01*
X01025209Y00854428D01*
X01025097Y00854412D01*
X01024985Y00854396D01*
X01024890Y00854380D01*
X01024810Y00854372D01*
X01024746Y00854364D01*
X01024650D01*
X01024483Y00854372D01*
X01024323Y00854388D01*
X01024172Y00854412D01*
X01024028Y00854436D01*
X01023885Y00854476D01*
X01023757Y00854516D01*
X01023637Y00854556D01*
X01023526Y00854604D01*
X01023430Y00854651D01*
X01023342Y00854691D01*
X01023263Y00854731D01*
X01023199Y00854771D01*
X01023143Y00854795D01*
X01023111Y00854819D01*
X01023087Y00854835D01*
X01023079Y00854843D01*
X01022960Y00854939D01*
X01022840Y00855042D01*
X01022641Y00855266D01*
X01022465Y00855505D01*
X01022322Y00855728D01*
X01022258Y00855840D01*
X01022210Y00855936D01*
X01022170Y00856023D01*
X01022130Y00856103D01*
X01022098Y00856167D01*
X01022082Y00856215D01*
X01022066Y00856247D01*
Y00856255D01*
X01022002Y00856438D01*
X01021955Y00856629D01*
X01021907Y00856829D01*
X01021867Y00857036D01*
X01021803Y00857451D01*
X01021787Y00857658D01*
X01021763Y00857850D01*
X01021755Y00858041D01*
X01021739Y00858209D01*
X01021731Y00858360D01*
Y00858496D01*
X01021723Y00858599D01*
Y00858679D01*
Y00858711D01*
Y00858735D01*
Y00858743D01*
Y00858751D01*
Y00859022D01*
X01021739Y00859285D01*
X01021755Y00859525D01*
X01021779Y00859748D01*
X01021803Y00859955D01*
X01021835Y00860139D01*
X01021859Y00860314D01*
X01021891Y00860466D01*
X01021923Y00860601D01*
X01021955Y00860721D01*
X01021987Y00860817D01*
X01022010Y00860904D01*
X01022034Y00860968D01*
X01022050Y00861008D01*
X01022058Y00861040D01*
X01022066Y00861048D01*
X01022130Y00861191D01*
X01022210Y00861327D01*
X01022290Y00861455D01*
X01022369Y00861574D01*
X01022449Y00861686D01*
X01022537Y00861790D01*
X01022617Y00861877D01*
X01022696Y00861965D01*
X01022776Y00862037D01*
X01022840Y00862101D01*
X01022904Y00862149D01*
X01022960Y00862196D01*
X01023008Y00862228D01*
X01023039Y00862260D01*
X01023063Y00862268D01*
X01023071Y00862276D01*
X01023199Y00862356D01*
X01023326Y00862420D01*
X01023454Y00862476D01*
X01023582Y00862523D01*
X01023821Y00862603D01*
X01024052Y00862651D01*
X01024148Y00862675D01*
X01024244Y00862683D01*
X01024323Y00862691D01*
X01024395Y00862699D01*
X01024451Y00862707D01*
X01024531D01*
X01024730Y00862699D01*
D02*
G37*
G36*
X01031589Y00862811D02*
X01031789Y00862795D01*
X01031972Y00862771D01*
X01032156Y00862739D01*
X01032331Y00862707D01*
X01032498Y00862659D01*
X01032650Y00862619D01*
X01032785Y00862571D01*
X01032921Y00862523D01*
X01033033Y00862484D01*
X01033137Y00862436D01*
X01033216Y00862404D01*
X01033288Y00862372D01*
X01033336Y00862348D01*
X01033368Y00862332D01*
X01033376Y00862324D01*
X01033543Y00862228D01*
X01033695Y00862117D01*
X01033838Y00862005D01*
X01033974Y00861885D01*
X01034093Y00861766D01*
X01034213Y00861646D01*
X01034317Y00861526D01*
X01034405Y00861415D01*
X01034492Y00861303D01*
X01034564Y00861199D01*
X01034620Y00861112D01*
X01034676Y00861032D01*
X01034716Y00860968D01*
X01034740Y00860912D01*
X01034755Y00860881D01*
X01034763Y00860872D01*
X01034851Y00860689D01*
X01034923Y00860506D01*
X01034987Y00860314D01*
X01035043Y00860123D01*
X01035090Y00859939D01*
X01035130Y00859748D01*
X01035162Y00859573D01*
X01035186Y00859405D01*
X01035210Y00859246D01*
X01035226Y00859102D01*
X01035234Y00858974D01*
X01035242Y00858863D01*
X01035250Y00858775D01*
Y00858703D01*
Y00858663D01*
Y00858647D01*
X01035242Y00858432D01*
X01035234Y00858217D01*
X01035210Y00858009D01*
X01035186Y00857810D01*
X01035146Y00857618D01*
X01035114Y00857435D01*
X01035074Y00857268D01*
X01035035Y00857108D01*
X01034995Y00856964D01*
X01034955Y00856837D01*
X01034915Y00856725D01*
X01034883Y00856629D01*
X01034859Y00856558D01*
X01034835Y00856502D01*
X01034827Y00856470D01*
X01034819Y00856454D01*
X01034732Y00856271D01*
X01034644Y00856095D01*
X01034540Y00855936D01*
X01034445Y00855784D01*
X01034341Y00855640D01*
X01034237Y00855513D01*
X01034133Y00855401D01*
X01034030Y00855298D01*
X01033934Y00855202D01*
X01033846Y00855122D01*
X01033774Y00855050D01*
X01033703Y00855003D01*
X01033647Y00854955D01*
X01033599Y00854923D01*
X01033575Y00854907D01*
X01033567Y00854899D01*
X01033408Y00854803D01*
X01033240Y00854723D01*
X01033057Y00854651D01*
X01032881Y00854588D01*
X01032698Y00854540D01*
X01032522Y00854492D01*
X01032347Y00854460D01*
X01032179Y00854428D01*
X01032020Y00854412D01*
X01031876Y00854396D01*
X01031749Y00854380D01*
X01031637Y00854372D01*
X01031541Y00854364D01*
X01031414D01*
X01031182Y00854372D01*
X01030951Y00854396D01*
X01030744Y00854428D01*
X01030536Y00854476D01*
X01030345Y00854524D01*
X01030170Y00854588D01*
X01030002Y00854644D01*
X01029850Y00854715D01*
X01029723Y00854779D01*
X01029603Y00854843D01*
X01029500Y00854899D01*
X01029412Y00854947D01*
X01029340Y00854995D01*
X01029292Y00855026D01*
X01029260Y00855050D01*
X01029252Y00855058D01*
X01029093Y00855194D01*
X01028941Y00855345D01*
X01028814Y00855505D01*
X01028686Y00855672D01*
X01028574Y00855840D01*
X01028471Y00856007D01*
X01028383Y00856175D01*
X01028303Y00856342D01*
X01028239Y00856494D01*
X01028176Y00856637D01*
X01028128Y00856765D01*
X01028088Y00856877D01*
X01028064Y00856964D01*
X01028040Y00857036D01*
X01028024Y00857076D01*
Y00857092D01*
X01029109Y00857363D01*
X01029157Y00857180D01*
X01029212Y00857004D01*
X01029268Y00856837D01*
X01029332Y00856685D01*
X01029404Y00856550D01*
X01029476Y00856422D01*
X01029547Y00856302D01*
X01029619Y00856199D01*
X01029683Y00856111D01*
X01029747Y00856031D01*
X01029811Y00855959D01*
X01029858Y00855904D01*
X01029898Y00855864D01*
X01029938Y00855832D01*
X01029954Y00855816D01*
X01029962Y00855808D01*
X01030082Y00855720D01*
X01030209Y00855640D01*
X01030337Y00855569D01*
X01030465Y00855505D01*
X01030600Y00855457D01*
X01030728Y00855417D01*
X01030967Y00855353D01*
X01031079Y00855330D01*
X01031182Y00855313D01*
X01031270Y00855305D01*
X01031350Y00855298D01*
X01031414Y00855290D01*
X01031501D01*
X01031637Y00855298D01*
X01031773Y00855305D01*
X01032036Y00855353D01*
X01032267Y00855409D01*
X01032379Y00855449D01*
X01032475Y00855481D01*
X01032570Y00855521D01*
X01032650Y00855553D01*
X01032722Y00855585D01*
X01032778Y00855617D01*
X01032825Y00855640D01*
X01032857Y00855657D01*
X01032881Y00855664D01*
X01032889Y00855672D01*
X01033001Y00855752D01*
X01033112Y00855832D01*
X01033304Y00856015D01*
X01033464Y00856207D01*
X01033599Y00856398D01*
X01033703Y00856566D01*
X01033743Y00856637D01*
X01033774Y00856701D01*
X01033798Y00856757D01*
X01033814Y00856797D01*
X01033830Y00856821D01*
Y00856829D01*
X01033934Y00857132D01*
X01034006Y00857443D01*
X01034062Y00857754D01*
X01034078Y00857898D01*
X01034093Y00858033D01*
X01034109Y00858169D01*
X01034118Y00858280D01*
X01034125Y00858392D01*
Y00858480D01*
X01034133Y00858552D01*
Y00858607D01*
Y00858647D01*
Y00858655D01*
X01034125Y00858950D01*
X01034093Y00859238D01*
X01034054Y00859501D01*
X01034030Y00859628D01*
X01034006Y00859740D01*
X01033982Y00859844D01*
X01033958Y00859939D01*
X01033934Y00860019D01*
X01033918Y00860091D01*
X01033902Y00860147D01*
X01033886Y00860187D01*
X01033878Y00860210D01*
Y00860219D01*
X01033822Y00860362D01*
X01033766Y00860490D01*
X01033703Y00860617D01*
X01033631Y00860729D01*
X01033559Y00860841D01*
X01033487Y00860944D01*
X01033416Y00861032D01*
X01033336Y00861120D01*
X01033272Y00861191D01*
X01033208Y00861255D01*
X01033144Y00861311D01*
X01033097Y00861359D01*
X01033049Y00861391D01*
X01033017Y00861415D01*
X01033001Y00861431D01*
X01032993Y00861439D01*
X01032873Y00861518D01*
X01032746Y00861590D01*
X01032610Y00861646D01*
X01032483Y00861702D01*
X01032347Y00861750D01*
X01032219Y00861782D01*
X01031964Y00861837D01*
X01031852Y00861853D01*
X01031749Y00861869D01*
X01031653Y00861877D01*
X01031573Y00861885D01*
X01031501Y00861893D01*
X01031414D01*
X01031262Y00861885D01*
X01031119Y00861877D01*
X01030855Y00861830D01*
X01030736Y00861798D01*
X01030624Y00861766D01*
X01030520Y00861726D01*
X01030433Y00861686D01*
X01030345Y00861646D01*
X01030273Y00861606D01*
X01030209Y00861574D01*
X01030154Y00861542D01*
X01030114Y00861518D01*
X01030082Y00861495D01*
X01030066Y00861487D01*
X01030058Y00861479D01*
X01029962Y00861399D01*
X01029866Y00861303D01*
X01029699Y00861104D01*
X01029555Y00860888D01*
X01029436Y00860681D01*
X01029388Y00860577D01*
X01029348Y00860490D01*
X01029308Y00860402D01*
X01029284Y00860330D01*
X01029260Y00860274D01*
X01029244Y00860227D01*
X01029228Y00860195D01*
Y00860187D01*
X01028160Y00860434D01*
X01028232Y00860641D01*
X01028303Y00860833D01*
X01028391Y00861016D01*
X01028487Y00861183D01*
X01028582Y00861343D01*
X01028678Y00861487D01*
X01028774Y00861614D01*
X01028869Y00861734D01*
X01028965Y00861837D01*
X01029053Y00861933D01*
X01029125Y00862013D01*
X01029196Y00862077D01*
X01029252Y00862125D01*
X01029292Y00862157D01*
X01029324Y00862180D01*
X01029332Y00862188D01*
X01029492Y00862300D01*
X01029659Y00862396D01*
X01029835Y00862484D01*
X01030010Y00862555D01*
X01030178Y00862611D01*
X01030353Y00862667D01*
X01030520Y00862707D01*
X01030672Y00862739D01*
X01030824Y00862763D01*
X01030959Y00862787D01*
X01031079Y00862803D01*
X01031182Y00862811D01*
X01031270Y00862819D01*
X01031390D01*
X01031589Y00862811D01*
D02*
G37*
G36*
X01022509Y00823469D02*
X01022585Y00823354D01*
X01022748Y00823115D01*
X01022919Y00822896D01*
X01023092Y00822695D01*
X01023177Y00822609D01*
X01023254Y00822523D01*
X01023330Y00822457D01*
X01023388Y00822390D01*
X01023435Y00822342D01*
X01023483Y00822304D01*
X01023502Y00822285D01*
X01023512Y00822275D01*
X01023808Y00822036D01*
X01024104Y00821817D01*
X01024400Y00821616D01*
X01024677Y00821454D01*
X01024801Y00821377D01*
X01024916Y00821320D01*
X01025011Y00821263D01*
X01025097Y00821215D01*
X01025173Y00821177D01*
X01025221Y00821148D01*
X01025259Y00821139D01*
X01025269Y00821129D01*
Y00819974D01*
X01025059Y00820059D01*
X01024839Y00820155D01*
X01024629Y00820260D01*
X01024438Y00820356D01*
X01024266Y00820441D01*
X01024199Y00820480D01*
X01024132Y00820518D01*
X01024085Y00820546D01*
X01024046Y00820566D01*
X01024027Y00820585D01*
X01024018D01*
X01023770Y00820738D01*
X01023540Y00820890D01*
X01023340Y00821034D01*
X01023177Y00821158D01*
X01023044Y00821263D01*
X01022948Y00821349D01*
X01022919Y00821377D01*
X01022891Y00821396D01*
X01022881Y00821416D01*
X01022872D01*
Y00813766D01*
X01021668D01*
Y00823593D01*
X01022452D01*
X01022509Y00823469D01*
D02*
G37*
G36*
X01014907D02*
X01014983Y00823354D01*
X01015145Y00823115D01*
X01015317Y00822896D01*
X01015489Y00822695D01*
X01015575Y00822609D01*
X01015652Y00822523D01*
X01015728Y00822457D01*
X01015785Y00822390D01*
X01015833Y00822342D01*
X01015881Y00822304D01*
X01015900Y00822285D01*
X01015910Y00822275D01*
X01016206Y00822036D01*
X01016502Y00821817D01*
X01016798Y00821616D01*
X01017075Y00821454D01*
X01017199Y00821377D01*
X01017314Y00821320D01*
X01017409Y00821263D01*
X01017495Y00821215D01*
X01017571Y00821177D01*
X01017619Y00821148D01*
X01017657Y00821139D01*
X01017667Y00821129D01*
Y00819974D01*
X01017457Y00820059D01*
X01017237Y00820155D01*
X01017027Y00820260D01*
X01016836Y00820356D01*
X01016664Y00820441D01*
X01016597Y00820480D01*
X01016530Y00820518D01*
X01016483Y00820546D01*
X01016444Y00820566D01*
X01016425Y00820585D01*
X01016416D01*
X01016167Y00820738D01*
X01015938Y00820890D01*
X01015738Y00821034D01*
X01015575Y00821158D01*
X01015442Y00821263D01*
X01015346Y00821349D01*
X01015317Y00821377D01*
X01015289Y00821396D01*
X01015279Y00821416D01*
X01015270D01*
Y00813766D01*
X01014066D01*
Y00823593D01*
X01014849D01*
X01014907Y00823469D01*
D02*
G37*
G36*
X01031572Y00823717D02*
X01031811Y00823698D01*
X01032031Y00823670D01*
X01032250Y00823631D01*
X01032460Y00823593D01*
X01032661Y00823536D01*
X01032842Y00823488D01*
X01033005Y00823431D01*
X01033167Y00823373D01*
X01033301Y00823326D01*
X01033425Y00823268D01*
X01033521Y00823230D01*
X01033606Y00823192D01*
X01033664Y00823163D01*
X01033702Y00823144D01*
X01033711Y00823135D01*
X01033912Y00823020D01*
X01034093Y00822886D01*
X01034265Y00822753D01*
X01034428Y00822609D01*
X01034571Y00822466D01*
X01034714Y00822323D01*
X01034838Y00822180D01*
X01034943Y00822046D01*
X01035049Y00821912D01*
X01035135Y00821788D01*
X01035201Y00821683D01*
X01035268Y00821588D01*
X01035316Y00821511D01*
X01035345Y00821444D01*
X01035364Y00821406D01*
X01035373Y00821396D01*
X01035478Y00821177D01*
X01035564Y00820957D01*
X01035641Y00820728D01*
X01035707Y00820499D01*
X01035765Y00820279D01*
X01035813Y00820050D01*
X01035851Y00819840D01*
X01035879Y00819639D01*
X01035908Y00819448D01*
X01035927Y00819276D01*
X01035937Y00819124D01*
X01035946Y00818990D01*
X01035956Y00818885D01*
Y00818799D01*
Y00818751D01*
Y00818732D01*
X01035946Y00818474D01*
X01035937Y00818216D01*
X01035908Y00817968D01*
X01035879Y00817729D01*
X01035832Y00817500D01*
X01035794Y00817280D01*
X01035746Y00817080D01*
X01035698Y00816889D01*
X01035650Y00816717D01*
X01035602Y00816564D01*
X01035555Y00816430D01*
X01035517Y00816316D01*
X01035488Y00816230D01*
X01035459Y00816163D01*
X01035450Y00816125D01*
X01035440Y00816106D01*
X01035335Y00815886D01*
X01035230Y00815676D01*
X01035106Y00815485D01*
X01034991Y00815303D01*
X01034867Y00815131D01*
X01034743Y00814979D01*
X01034619Y00814845D01*
X01034495Y00814721D01*
X01034380Y00814606D01*
X01034275Y00814511D01*
X01034189Y00814425D01*
X01034103Y00814367D01*
X01034036Y00814310D01*
X01033979Y00814272D01*
X01033950Y00814253D01*
X01033941Y00814243D01*
X01033750Y00814129D01*
X01033549Y00814033D01*
X01033329Y00813947D01*
X01033119Y00813871D01*
X01032900Y00813813D01*
X01032690Y00813756D01*
X01032479Y00813718D01*
X01032279Y00813680D01*
X01032088Y00813661D01*
X01031916Y00813642D01*
X01031763Y00813623D01*
X01031629Y00813613D01*
X01031515Y00813603D01*
X01031362D01*
X01031085Y00813613D01*
X01030808Y00813642D01*
X01030560Y00813680D01*
X01030312Y00813737D01*
X01030082Y00813794D01*
X01029872Y00813871D01*
X01029672Y00813938D01*
X01029490Y00814024D01*
X01029337Y00814100D01*
X01029194Y00814176D01*
X01029070Y00814243D01*
X01028965Y00814301D01*
X01028879Y00814358D01*
X01028822Y00814396D01*
X01028783Y00814425D01*
X01028774Y00814434D01*
X01028583Y00814597D01*
X01028401Y00814778D01*
X01028249Y00814969D01*
X01028096Y00815170D01*
X01027962Y00815370D01*
X01027838Y00815571D01*
X01027733Y00815771D01*
X01027637Y00815972D01*
X01027561Y00816153D01*
X01027485Y00816325D01*
X01027427Y00816478D01*
X01027380Y00816612D01*
X01027351Y00816717D01*
X01027322Y00816803D01*
X01027303Y00816851D01*
Y00816870D01*
X01028602Y00817194D01*
X01028659Y00816975D01*
X01028726Y00816765D01*
X01028793Y00816564D01*
X01028869Y00816383D01*
X01028955Y00816220D01*
X01029041Y00816067D01*
X01029127Y00815924D01*
X01029213Y00815800D01*
X01029290Y00815695D01*
X01029366Y00815599D01*
X01029443Y00815513D01*
X01029500Y00815447D01*
X01029548Y00815399D01*
X01029595Y00815361D01*
X01029614Y00815341D01*
X01029624Y00815332D01*
X01029767Y00815227D01*
X01029920Y00815131D01*
X01030073Y00815045D01*
X01030226Y00814969D01*
X01030388Y00814912D01*
X01030541Y00814864D01*
X01030827Y00814788D01*
X01030961Y00814759D01*
X01031085Y00814740D01*
X01031190Y00814730D01*
X01031286Y00814721D01*
X01031362Y00814711D01*
X01031467D01*
X01031629Y00814721D01*
X01031792Y00814730D01*
X01032107Y00814788D01*
X01032384Y00814855D01*
X01032518Y00814902D01*
X01032632Y00814940D01*
X01032747Y00814988D01*
X01032842Y00815026D01*
X01032928Y00815065D01*
X01032995Y00815103D01*
X01033053Y00815131D01*
X01033091Y00815151D01*
X01033119Y00815160D01*
X01033129Y00815170D01*
X01033263Y00815265D01*
X01033396Y00815361D01*
X01033625Y00815580D01*
X01033817Y00815809D01*
X01033979Y00816039D01*
X01034103Y00816239D01*
X01034151Y00816325D01*
X01034189Y00816402D01*
X01034218Y00816469D01*
X01034237Y00816516D01*
X01034256Y00816545D01*
Y00816554D01*
X01034380Y00816917D01*
X01034466Y00817290D01*
X01034533Y00817662D01*
X01034552Y00817834D01*
X01034571Y00817997D01*
X01034590Y00818159D01*
X01034600Y00818293D01*
X01034609Y00818426D01*
Y00818531D01*
X01034619Y00818617D01*
Y00818684D01*
Y00818732D01*
Y00818742D01*
X01034609Y00819095D01*
X01034571Y00819439D01*
X01034523Y00819754D01*
X01034495Y00819907D01*
X01034466Y00820040D01*
X01034437Y00820164D01*
X01034409Y00820279D01*
X01034380Y00820375D01*
X01034361Y00820461D01*
X01034342Y00820527D01*
X01034323Y00820575D01*
X01034313Y00820604D01*
Y00820613D01*
X01034246Y00820785D01*
X01034180Y00820938D01*
X01034103Y00821091D01*
X01034017Y00821225D01*
X01033931Y00821358D01*
X01033845Y00821482D01*
X01033759Y00821588D01*
X01033664Y00821693D01*
X01033587Y00821778D01*
X01033511Y00821855D01*
X01033435Y00821922D01*
X01033377Y00821979D01*
X01033320Y00822017D01*
X01033282Y00822046D01*
X01033263Y00822065D01*
X01033253Y00822075D01*
X01033110Y00822170D01*
X01032957Y00822256D01*
X01032795Y00822323D01*
X01032642Y00822390D01*
X01032479Y00822447D01*
X01032327Y00822485D01*
X01032021Y00822552D01*
X01031887Y00822571D01*
X01031763Y00822590D01*
X01031649Y00822600D01*
X01031553Y00822609D01*
X01031467Y00822619D01*
X01031362D01*
X01031181Y00822609D01*
X01031009Y00822600D01*
X01030694Y00822542D01*
X01030550Y00822504D01*
X01030417Y00822466D01*
X01030293Y00822418D01*
X01030187Y00822371D01*
X01030082Y00822323D01*
X01029996Y00822275D01*
X01029920Y00822237D01*
X01029853Y00822199D01*
X01029805Y00822170D01*
X01029767Y00822141D01*
X01029748Y00822132D01*
X01029738Y00822122D01*
X01029624Y00822027D01*
X01029509Y00821912D01*
X01029309Y00821673D01*
X01029137Y00821416D01*
X01028994Y00821167D01*
X01028936Y00821043D01*
X01028888Y00820938D01*
X01028841Y00820833D01*
X01028812Y00820747D01*
X01028783Y00820680D01*
X01028764Y00820623D01*
X01028745Y00820585D01*
Y00820575D01*
X01027466Y00820871D01*
X01027551Y00821120D01*
X01027637Y00821349D01*
X01027742Y00821568D01*
X01027857Y00821769D01*
X01027972Y00821960D01*
X01028086Y00822132D01*
X01028201Y00822285D01*
X01028316Y00822428D01*
X01028430Y00822552D01*
X01028535Y00822667D01*
X01028621Y00822762D01*
X01028707Y00822839D01*
X01028774Y00822896D01*
X01028822Y00822934D01*
X01028860Y00822963D01*
X01028869Y00822972D01*
X01029061Y00823106D01*
X01029261Y00823221D01*
X01029471Y00823326D01*
X01029681Y00823412D01*
X01029882Y00823478D01*
X01030092Y00823545D01*
X01030293Y00823593D01*
X01030474Y00823631D01*
X01030655Y00823660D01*
X01030818Y00823689D01*
X01030961Y00823708D01*
X01031085Y00823717D01*
X01031190Y00823727D01*
X01031333D01*
X01031572Y00823717D01*
D02*
G37*
%LPC*%
G36*
X01007430Y00884438D02*
X01007190D01*
Y00884198D01*
X01006711D01*
Y00883959D01*
X01007430D01*
Y00883719D01*
X01007909D01*
Y00883479D01*
X01008148D01*
Y00883240D01*
X01008388D01*
Y00883479D01*
Y00883719D01*
Y00883959D01*
Y00884198D01*
X01007430D01*
Y00884438D01*
D02*
G37*
G36*
X01006950Y00882281D02*
X01004074D01*
Y00882041D01*
Y00881802D01*
Y00881562D01*
Y00881322D01*
Y00881083D01*
Y00880843D01*
Y00880603D01*
Y00880364D01*
Y00880124D01*
Y00879884D01*
Y00879645D01*
Y00879405D01*
Y00879165D01*
Y00878926D01*
Y00878686D01*
Y00878446D01*
Y00878207D01*
Y00877967D01*
Y00877728D01*
Y00877488D01*
X01006950D01*
Y00877728D01*
X01007190D01*
Y00877967D01*
X01007430D01*
Y00878207D01*
X01007669D01*
Y00878446D01*
Y00878686D01*
X01007909D01*
Y00878926D01*
Y00879165D01*
Y00879405D01*
Y00879645D01*
Y00879884D01*
Y00880124D01*
Y00880364D01*
Y00880603D01*
Y00880843D01*
Y00881083D01*
X01007669D01*
Y00881322D01*
Y00881562D01*
X01007430D01*
Y00881802D01*
X01007190D01*
Y00882041D01*
X01006950D01*
Y00882281D01*
D02*
G37*
G36*
X01008388Y00876529D02*
X01007909D01*
Y00876290D01*
X01007669D01*
Y00876050D01*
X01007190D01*
Y00875810D01*
Y00875571D01*
Y00875331D01*
X01007430D01*
Y00875091D01*
X01007669D01*
Y00874852D01*
Y00874612D01*
Y00874372D01*
X01007909D01*
Y00874133D01*
Y00873893D01*
X01008148D01*
Y00873653D01*
X01008388D01*
Y00873893D01*
Y00874133D01*
Y00874372D01*
Y00874612D01*
Y00874852D01*
Y00875091D01*
Y00875331D01*
Y00875571D01*
Y00875810D01*
Y00876050D01*
Y00876290D01*
Y00876529D01*
D02*
G37*
G36*
X01000000Y00883000D02*
X00999521D01*
Y00882760D01*
X00999281D01*
Y00882521D01*
X00999041D01*
Y00882281D01*
X00998802D01*
Y00882041D01*
X00998562D01*
Y00881802D01*
Y00881562D01*
X00998322D01*
Y00881322D01*
Y00881083D01*
X00998083D01*
Y00880843D01*
Y00880603D01*
X00997843D01*
Y00880364D01*
Y00880124D01*
Y00879884D01*
X00997603D01*
Y00879645D01*
Y00879405D01*
Y00879165D01*
Y00878926D01*
Y00878686D01*
Y00878446D01*
Y00878207D01*
X00997364D01*
Y00877967D01*
Y00877728D01*
Y00877488D01*
Y00877248D01*
Y00877009D01*
Y00876769D01*
Y00876529D01*
Y00876290D01*
Y00876050D01*
Y00875810D01*
Y00875571D01*
X00997603D01*
Y00875331D01*
Y00875091D01*
Y00874852D01*
Y00874612D01*
Y00874372D01*
Y00874133D01*
Y00873893D01*
X00997843D01*
Y00873653D01*
Y00873413D01*
Y00873174D01*
Y00872934D01*
X00998083D01*
Y00872694D01*
Y00872455D01*
X00998322D01*
Y00872215D01*
Y00871976D01*
X00998562D01*
Y00871736D01*
Y00871496D01*
X00998802D01*
Y00871257D01*
X00999041D01*
Y00871017D01*
Y00870777D01*
X00999281D01*
Y00870538D01*
X00999760D01*
Y00870298D01*
X01000000D01*
Y00870538D01*
Y00870777D01*
X00999760D01*
Y00871017D01*
Y00871257D01*
Y00871496D01*
Y00871736D01*
Y00871976D01*
Y00872215D01*
Y00872455D01*
Y00872694D01*
Y00872934D01*
Y00873174D01*
Y00873413D01*
Y00873653D01*
Y00873893D01*
Y00874133D01*
Y00874372D01*
Y00874612D01*
Y00874852D01*
Y00875091D01*
Y00875331D01*
Y00875571D01*
Y00875810D01*
Y00876050D01*
Y00876290D01*
Y00876529D01*
Y00876769D01*
Y00877009D01*
Y00877248D01*
Y00877488D01*
Y00877728D01*
Y00877967D01*
Y00878207D01*
Y00878446D01*
Y00878686D01*
Y00878926D01*
Y00879165D01*
Y00879405D01*
Y00879645D01*
Y00879884D01*
Y00880124D01*
Y00880364D01*
Y00880603D01*
Y00880843D01*
Y00881083D01*
Y00881322D01*
Y00881562D01*
Y00881802D01*
Y00882041D01*
Y00882281D01*
Y00882521D01*
X01000000D01*
Y00882760D01*
Y00883000D01*
D02*
G37*
G36*
X01005512Y00875810D02*
X01004074D01*
Y00875571D01*
Y00875331D01*
Y00875091D01*
Y00874852D01*
Y00874612D01*
Y00874372D01*
Y00874133D01*
Y00873893D01*
Y00873653D01*
Y00873413D01*
Y00873174D01*
Y00872934D01*
Y00872694D01*
Y00872455D01*
Y00872215D01*
Y00871976D01*
Y00871736D01*
Y00871496D01*
Y00871257D01*
Y00871017D01*
Y00870777D01*
Y00870538D01*
Y00870298D01*
Y00870058D01*
Y00869819D01*
Y00869579D01*
Y00869339D01*
X01008148D01*
Y00869579D01*
Y00869819D01*
Y00870058D01*
X01007909D01*
Y00870298D01*
Y00870538D01*
Y00870777D01*
X01007669D01*
Y00871017D01*
Y00871257D01*
Y00871496D01*
X01007430D01*
Y00871736D01*
Y00871976D01*
Y00872215D01*
X01007190D01*
Y00872455D01*
Y00872694D01*
Y00872934D01*
X01006950D01*
Y00873174D01*
Y00873413D01*
Y00873653D01*
X01006711D01*
Y00873893D01*
Y00874133D01*
Y00874372D01*
X01006471D01*
Y00874612D01*
Y00874852D01*
X01006231D01*
Y00875091D01*
X01005992D01*
Y00875331D01*
Y00875571D01*
X01005512D01*
Y00875810D01*
D02*
G37*
G36*
X00998083Y00868141D02*
X00997843D01*
Y00867901D01*
X00998083D01*
Y00868141D01*
D02*
G37*
G36*
X01009118Y00794595D02*
X01009062D01*
X01009014D01*
X01008974D01*
X01008950D01*
X01008934D01*
X01008926D01*
X01008567Y00794587D01*
X01008232Y00794571D01*
X01007929Y00794547D01*
X01007658Y00794523D01*
X01007411Y00794483D01*
X01007196Y00794444D01*
X01007004Y00794404D01*
X01006837Y00794356D01*
X01006685Y00794308D01*
X01006565Y00794268D01*
X01006462Y00794228D01*
X01006382Y00794188D01*
X01006318Y00794164D01*
X01006278Y00794140D01*
X01006254Y00794124D01*
X01006246Y00794117D01*
X01006127Y00794029D01*
X01006031Y00793933D01*
X01005943Y00793837D01*
X01005864Y00793734D01*
X01005800Y00793638D01*
X01005744Y00793542D01*
X01005704Y00793455D01*
X01005664Y00793359D01*
X01005640Y00793279D01*
X01005616Y00793199D01*
X01005608Y00793136D01*
X01005592Y00793072D01*
Y00793024D01*
X01005584Y00792992D01*
Y00792960D01*
X01005592Y00792832D01*
X01005616Y00792713D01*
X01005648Y00792593D01*
X01005688Y00792489D01*
X01005792Y00792290D01*
X01005856Y00792202D01*
X01005919Y00792115D01*
X01005975Y00792043D01*
X01006039Y00791979D01*
X01006095Y00791923D01*
X01006143Y00791883D01*
X01006183Y00791843D01*
X01006215Y00791820D01*
X01006238Y00791804D01*
X01006246Y00791796D01*
X01006382Y00791716D01*
X01006550Y00791644D01*
X01006741Y00791580D01*
X01006948Y00791524D01*
X01007164Y00791477D01*
X01007387Y00791437D01*
X01007833Y00791381D01*
X01008049Y00791365D01*
X01008256Y00791349D01*
X01008440Y00791341D01*
X01008599Y00791333D01*
X01008671D01*
X01008735Y00791325D01*
X01008791D01*
X01008839D01*
X01008878D01*
X01008902D01*
X01008918D01*
X01008926D01*
X01009285Y00791333D01*
X01009620Y00791349D01*
X01009931Y00791373D01*
X01010202Y00791405D01*
X01010458Y00791445D01*
X01010681Y00791485D01*
X01010880Y00791532D01*
X01011064Y00791580D01*
X01011215Y00791628D01*
X01011343Y00791676D01*
X01011454Y00791716D01*
X01011534Y00791756D01*
X01011606Y00791788D01*
X01011654Y00791812D01*
X01011678Y00791827D01*
X01011686Y00791835D01*
X01011789Y00791915D01*
X01011877Y00792003D01*
X01011957Y00792091D01*
X01012029Y00792186D01*
X01012085Y00792274D01*
X01012132Y00792370D01*
X01012172Y00792458D01*
X01012204Y00792545D01*
X01012244Y00792705D01*
X01012260Y00792769D01*
X01012268Y00792832D01*
X01012276Y00792880D01*
Y00792944D01*
X01012268Y00793072D01*
X01012244Y00793199D01*
X01012212Y00793319D01*
X01012172Y00793431D01*
X01012061Y00793630D01*
X01012005Y00793718D01*
X01011941Y00793797D01*
X01011877Y00793877D01*
X01011821Y00793941D01*
X01011766Y00793997D01*
X01011710Y00794037D01*
X01011670Y00794077D01*
X01011638Y00794100D01*
X01011614Y00794117D01*
X01011606Y00794124D01*
X01011470Y00794204D01*
X01011303Y00794284D01*
X01011112Y00794340D01*
X01010912Y00794396D01*
X01010689Y00794444D01*
X01010465Y00794483D01*
X01010019Y00794539D01*
X01009803Y00794555D01*
X01009596Y00794571D01*
X01009413Y00794579D01*
X01009253Y00794587D01*
X01009181D01*
X01009118Y00794595D01*
D02*
G37*
G36*
X01011248Y00787945D02*
X01011216D01*
X01011200D01*
X01011192D01*
X01011048Y00787937D01*
X01010905Y00787913D01*
X01010785Y00787873D01*
X01010673Y00787833D01*
X01010578Y00787793D01*
X01010514Y00787753D01*
X01010466Y00787729D01*
X01010458Y00787721D01*
X01010450D01*
X01010331Y00787634D01*
X01010235Y00787530D01*
X01010147Y00787426D01*
X01010083Y00787323D01*
X01010027Y00787235D01*
X01009995Y00787163D01*
X01009972Y00787107D01*
X01009964Y00787099D01*
Y00787091D01*
X01009916Y00786924D01*
X01009876Y00786732D01*
X01009852Y00786541D01*
X01009828Y00786358D01*
Y00786270D01*
X01009820Y00786190D01*
Y00786118D01*
X01009812Y00786055D01*
Y00783614D01*
X01012524D01*
Y00786366D01*
X01012508Y00786517D01*
X01012492Y00786653D01*
X01012468Y00786788D01*
X01012436Y00786908D01*
X01012404Y00787012D01*
X01012372Y00787107D01*
X01012340Y00787195D01*
X01012300Y00787275D01*
X01012269Y00787339D01*
X01012237Y00787394D01*
X01012205Y00787442D01*
X01012181Y00787474D01*
X01012165Y00787506D01*
X01012157Y00787514D01*
X01012149Y00787522D01*
X01012077Y00787594D01*
X01011997Y00787666D01*
X01011926Y00787721D01*
X01011838Y00787769D01*
X01011678Y00787841D01*
X01011527Y00787889D01*
X01011399Y00787921D01*
X01011335Y00787929D01*
X01011288Y00787937D01*
X01011248Y00787945D01*
D02*
G37*
G36*
X01009469Y00780049D02*
X01009413D01*
X01009365D01*
X01009325D01*
X01009302D01*
X01009286D01*
X01009278D01*
X01008919Y00780041D01*
X01008584Y00780025D01*
X01008281Y00780001D01*
X01008010Y00779977D01*
X01007762Y00779937D01*
X01007547Y00779897D01*
X01007356Y00779857D01*
X01007188Y00779810D01*
X01007037Y00779762D01*
X01006917Y00779722D01*
X01006813Y00779682D01*
X01006733Y00779642D01*
X01006670Y00779618D01*
X01006630Y00779594D01*
X01006606Y00779578D01*
X01006598Y00779570D01*
X01006478Y00779483D01*
X01006383Y00779387D01*
X01006295Y00779291D01*
X01006215Y00779187D01*
X01006151Y00779092D01*
X01006095Y00778996D01*
X01006056Y00778908D01*
X01006016Y00778813D01*
X01005992Y00778733D01*
X01005968Y00778653D01*
X01005960Y00778589D01*
X01005944Y00778525D01*
Y00778478D01*
X01005936Y00778446D01*
Y00778414D01*
X01005944Y00778286D01*
X01005968Y00778167D01*
X01006000Y00778047D01*
X01006040Y00777943D01*
X01006143Y00777744D01*
X01006207Y00777656D01*
X01006271Y00777568D01*
X01006327Y00777497D01*
X01006391Y00777433D01*
X01006446Y00777377D01*
X01006494Y00777337D01*
X01006534Y00777297D01*
X01006566Y00777273D01*
X01006590Y00777257D01*
X01006598Y00777249D01*
X01006733Y00777170D01*
X01006901Y00777098D01*
X01007092Y00777034D01*
X01007300Y00776978D01*
X01007515Y00776930D01*
X01007738Y00776890D01*
X01008185Y00776835D01*
X01008400Y00776819D01*
X01008608Y00776803D01*
X01008791Y00776795D01*
X01008951Y00776787D01*
X01009023D01*
X01009086Y00776779D01*
X01009142D01*
X01009190D01*
X01009230D01*
X01009254D01*
X01009270D01*
X01009278D01*
X01009637Y00776787D01*
X01009972Y00776803D01*
X01010283Y00776827D01*
X01010554Y00776859D01*
X01010809Y00776898D01*
X01011032Y00776938D01*
X01011232Y00776986D01*
X01011415Y00777034D01*
X01011567Y00777082D01*
X01011694Y00777130D01*
X01011806Y00777170D01*
X01011886Y00777209D01*
X01011957Y00777241D01*
X01012005Y00777265D01*
X01012029Y00777281D01*
X01012037Y00777289D01*
X01012141Y00777369D01*
X01012229Y00777457D01*
X01012308Y00777544D01*
X01012380Y00777640D01*
X01012436Y00777728D01*
X01012484Y00777824D01*
X01012524Y00777911D01*
X01012556Y00777999D01*
X01012596Y00778159D01*
X01012611Y00778222D01*
X01012619Y00778286D01*
X01012627Y00778334D01*
Y00778398D01*
X01012619Y00778525D01*
X01012596Y00778653D01*
X01012564Y00778773D01*
X01012524Y00778884D01*
X01012412Y00779084D01*
X01012356Y00779172D01*
X01012292Y00779251D01*
X01012229Y00779331D01*
X01012173Y00779395D01*
X01012117Y00779451D01*
X01012061Y00779491D01*
X01012021Y00779530D01*
X01011989Y00779554D01*
X01011965Y00779570D01*
X01011957Y00779578D01*
X01011822Y00779658D01*
X01011654Y00779738D01*
X01011463Y00779794D01*
X01011264Y00779849D01*
X01011040Y00779897D01*
X01010817Y00779937D01*
X01010370Y00779993D01*
X01010155Y00780009D01*
X01009948Y00780025D01*
X01009764Y00780033D01*
X01009605Y00780041D01*
X01009533D01*
X01009469Y00780049D01*
D02*
G37*
G36*
X00974415Y00758710D02*
X00972525D01*
X00972366Y00758702D01*
X00972214Y00758694D01*
X00972078Y00758686D01*
X00971951Y00758670D01*
X00971831Y00758654D01*
X00971736Y00758638D01*
X00971640Y00758630D01*
X00971560Y00758614D01*
X00971488Y00758598D01*
X00971432Y00758582D01*
X00971385Y00758566D01*
X00971353Y00758558D01*
X00971329Y00758550D01*
X00971313Y00758542D01*
X00971305D01*
X00971193Y00758495D01*
X00971089Y00758431D01*
X00970890Y00758295D01*
X00970715Y00758144D01*
X00970563Y00757984D01*
X00970443Y00757841D01*
X00970396Y00757777D01*
X00970348Y00757721D01*
X00970316Y00757673D01*
X00970292Y00757641D01*
X00970284Y00757617D01*
X00970276Y00757609D01*
X00970204Y00757474D01*
X00970132Y00757330D01*
X00970077Y00757171D01*
X00970029Y00757011D01*
X00969957Y00756684D01*
X00969925Y00756525D01*
X00969909Y00756373D01*
X00969885Y00756222D01*
X00969877Y00756086D01*
X00969869Y00755966D01*
X00969861Y00755855D01*
X00969853Y00755767D01*
Y00755703D01*
Y00755663D01*
Y00755647D01*
X00969861Y00755312D01*
X00969869Y00755161D01*
X00969885Y00755009D01*
X00969901Y00754874D01*
X00969925Y00754738D01*
X00969941Y00754619D01*
X00969957Y00754515D01*
X00969981Y00754411D01*
X00969997Y00754323D01*
X00970021Y00754252D01*
X00970037Y00754188D01*
X00970045Y00754132D01*
X00970061Y00754100D01*
X00970069Y00754076D01*
Y00754068D01*
X00970156Y00753837D01*
X00970252Y00753637D01*
X00970356Y00753462D01*
X00970451Y00753310D01*
X00970539Y00753191D01*
X00970579Y00753151D01*
X00970611Y00753111D01*
X00970635Y00753079D01*
X00970659Y00753055D01*
X00970667Y00753047D01*
X00970675Y00753039D01*
X00970786Y00752944D01*
X00970906Y00752856D01*
X00971026Y00752784D01*
X00971145Y00752720D01*
X00971249Y00752672D01*
X00971329Y00752641D01*
X00971361Y00752625D01*
X00971385Y00752617D01*
X00971401Y00752609D01*
X00971408D01*
X00971496Y00752585D01*
X00971592Y00752561D01*
X00971799Y00752529D01*
X00972007Y00752497D01*
X00972214Y00752481D01*
X00972310D01*
X00972398Y00752473D01*
X00972477D01*
X00972541Y00752465D01*
X00974415D01*
Y00758710D01*
D02*
G37*
G36*
X00964454Y00758814D02*
X00964414Y00758686D01*
X00964374Y00758550D01*
X00964278Y00758271D01*
X00964183Y00757984D01*
X00964087Y00757713D01*
X00964047Y00757593D01*
X00964007Y00757482D01*
X00963967Y00757378D01*
X00963935Y00757290D01*
X00963912Y00757218D01*
X00963887Y00757163D01*
X00963880Y00757131D01*
X00963872Y00757115D01*
X00963010Y00754850D01*
X00965802D01*
X00964893Y00757250D01*
X00964797Y00757545D01*
X00964709Y00757825D01*
X00964629Y00758088D01*
X00964597Y00758207D01*
X00964566Y00758327D01*
X00964541Y00758431D01*
X00964518Y00758527D01*
X00964502Y00758606D01*
X00964486Y00758678D01*
X00964470Y00758734D01*
X00964462Y00758782D01*
X00964454Y00758806D01*
Y00758814D01*
D02*
G37*
G36*
X00911165Y00740274D02*
X00908414D01*
X00908262Y00740258D01*
X00908127Y00740242D01*
X00907991Y00740218D01*
X00907871Y00740186D01*
X00907768Y00740154D01*
X00907672Y00740122D01*
X00907584Y00740090D01*
X00907505Y00740050D01*
X00907441Y00740018D01*
X00907385Y00739987D01*
X00907337Y00739955D01*
X00907305Y00739931D01*
X00907273Y00739915D01*
X00907265Y00739907D01*
X00907257Y00739899D01*
X00907186Y00739827D01*
X00907114Y00739747D01*
X00907058Y00739676D01*
X00907010Y00739588D01*
X00906938Y00739428D01*
X00906890Y00739277D01*
X00906859Y00739149D01*
X00906851Y00739085D01*
X00906842Y00739037D01*
X00906835Y00738998D01*
Y00738966D01*
Y00738950D01*
Y00738942D01*
X00906842Y00738798D01*
X00906867Y00738655D01*
X00906906Y00738535D01*
X00906946Y00738423D01*
X00906986Y00738328D01*
X00907026Y00738264D01*
X00907050Y00738216D01*
X00907058Y00738208D01*
Y00738200D01*
X00907146Y00738081D01*
X00907249Y00737985D01*
X00907353Y00737897D01*
X00907457Y00737833D01*
X00907544Y00737777D01*
X00907616Y00737746D01*
X00907672Y00737722D01*
X00907680Y00737714D01*
X00907688D01*
X00907855Y00737666D01*
X00908047Y00737626D01*
X00908238Y00737602D01*
X00908422Y00737578D01*
X00908509D01*
X00908589Y00737570D01*
X00908661D01*
X00908725Y00737562D01*
X00911165D01*
Y00740274D01*
D02*
G37*
G36*
X00901212Y00739564D02*
Y00735871D01*
X00903780D01*
X00901212Y00739564D01*
D02*
G37*
G36*
X00911415Y00729774D02*
X00908664D01*
X00908512Y00729758D01*
X00908377Y00729742D01*
X00908241Y00729718D01*
X00908121Y00729686D01*
X00908018Y00729654D01*
X00907922Y00729622D01*
X00907834Y00729590D01*
X00907755Y00729550D01*
X00907691Y00729519D01*
X00907635Y00729487D01*
X00907587Y00729455D01*
X00907555Y00729431D01*
X00907523Y00729415D01*
X00907515Y00729407D01*
X00907507Y00729399D01*
X00907436Y00729327D01*
X00907364Y00729247D01*
X00907308Y00729176D01*
X00907260Y00729088D01*
X00907188Y00728928D01*
X00907140Y00728777D01*
X00907109Y00728649D01*
X00907101Y00728585D01*
X00907093Y00728538D01*
X00907085Y00728498D01*
Y00728466D01*
Y00728450D01*
Y00728442D01*
X00907093Y00728298D01*
X00907116Y00728155D01*
X00907156Y00728035D01*
X00907196Y00727923D01*
X00907236Y00727828D01*
X00907276Y00727764D01*
X00907300Y00727716D01*
X00907308Y00727708D01*
Y00727700D01*
X00907396Y00727580D01*
X00907499Y00727485D01*
X00907603Y00727397D01*
X00907707Y00727333D01*
X00907794Y00727277D01*
X00907866Y00727245D01*
X00907922Y00727222D01*
X00907930Y00727214D01*
X00907938D01*
X00908105Y00727166D01*
X00908297Y00727126D01*
X00908488Y00727102D01*
X00908672Y00727078D01*
X00908759D01*
X00908839Y00727070D01*
X00908911D01*
X00908975Y00727062D01*
X00911415D01*
Y00729774D01*
D02*
G37*
G36*
X01024475Y00861877D02*
X01024411D01*
X01024292Y00861869D01*
X01024172Y00861853D01*
X01024068Y00861830D01*
X01023964Y00861798D01*
X01023773Y00861718D01*
X01023614Y00861622D01*
X01023542Y00861574D01*
X01023478Y00861526D01*
X01023430Y00861487D01*
X01023382Y00861447D01*
X01023350Y00861415D01*
X01023326Y00861391D01*
X01023310Y00861375D01*
X01023303Y00861367D01*
X01023223Y00861271D01*
X01023151Y00861160D01*
X01023087Y00861048D01*
X01023031Y00860936D01*
X01022991Y00860825D01*
X01022952Y00860705D01*
X01022896Y00860490D01*
X01022880Y00860386D01*
X01022864Y00860298D01*
X01022856Y00860210D01*
X01022848Y00860139D01*
X01022840Y00860075D01*
Y00860035D01*
Y00860003D01*
Y00859995D01*
X01022848Y00859836D01*
X01022856Y00859692D01*
X01022880Y00859548D01*
X01022912Y00859421D01*
X01022944Y00859301D01*
X01022983Y00859190D01*
X01023023Y00859086D01*
X01023063Y00858998D01*
X01023111Y00858919D01*
X01023151Y00858847D01*
X01023191Y00858783D01*
X01023223Y00858735D01*
X01023255Y00858695D01*
X01023279Y00858671D01*
X01023287Y00858655D01*
X01023295Y00858647D01*
X01023382Y00858560D01*
X01023470Y00858488D01*
X01023566Y00858424D01*
X01023661Y00858368D01*
X01023757Y00858320D01*
X01023853Y00858280D01*
X01024036Y00858225D01*
X01024116Y00858201D01*
X01024196Y00858185D01*
X01024268Y00858177D01*
X01024323Y00858169D01*
X01024371Y00858161D01*
X01024443D01*
X01024571Y00858169D01*
X01024690Y00858185D01*
X01024810Y00858209D01*
X01024914Y00858241D01*
X01025113Y00858312D01*
X01025201Y00858360D01*
X01025288Y00858408D01*
X01025360Y00858448D01*
X01025424Y00858496D01*
X01025480Y00858536D01*
X01025520Y00858576D01*
X01025560Y00858599D01*
X01025584Y00858623D01*
X01025600Y00858639D01*
X01025608Y00858647D01*
X01025687Y00858743D01*
X01025759Y00858839D01*
X01025823Y00858942D01*
X01025871Y00859054D01*
X01025919Y00859158D01*
X01025958Y00859261D01*
X01026014Y00859461D01*
X01026030Y00859557D01*
X01026046Y00859644D01*
X01026054Y00859716D01*
X01026062Y00859788D01*
X01026070Y00859844D01*
Y00859883D01*
Y00859907D01*
Y00859915D01*
X01026062Y00860075D01*
X01026046Y00860227D01*
X01026022Y00860370D01*
X01025990Y00860506D01*
X01025958Y00860625D01*
X01025911Y00860745D01*
X01025871Y00860849D01*
X01025823Y00860944D01*
X01025775Y00861032D01*
X01025735Y00861112D01*
X01025687Y00861176D01*
X01025655Y00861231D01*
X01025623Y00861271D01*
X01025600Y00861303D01*
X01025584Y00861319D01*
X01025576Y00861327D01*
X01025480Y00861423D01*
X01025384Y00861510D01*
X01025281Y00861582D01*
X01025185Y00861646D01*
X01025089Y00861702D01*
X01024993Y00861742D01*
X01024898Y00861782D01*
X01024810Y00861806D01*
X01024722Y00861830D01*
X01024650Y00861845D01*
X01024579Y00861861D01*
X01024523Y00861869D01*
X01024475Y00861877D01*
D02*
G37*
%LPD*%
D19*
X00960898Y00891144D02*
G03*
X00960898Y00891144I-00002000J00000000D01*
G01*
D21*
X00941148Y00880894D02*
G03*
X00941148Y00880894I-00001250J00000000D01*
G01*
X00936500Y00848250D02*
G03*
X00936500Y00848250I-00001250J00000000D01*
G01*
X00903000Y00850000D02*
G03*
X00903000Y00850000I-00001250J00000000D01*
G01*
X01045500Y00778250D02*
G03*
X01045500Y00778250I-00001250J00000000D01*
G01*
D61*
X01044000Y00877250D02*
G03*
X01044000Y00877250I-00000500J00000000D01*
G01*
X00970379Y00852571D02*
G03*
X00970379Y00852571I-00000500J00000000D01*
G01*
X00885500Y00897500D02*
X00889500D01*
X00885500Y00903000D02*
X00889500D01*
X00885750Y00915250D02*
X00889750D01*
X00885750Y00909750D02*
X00889750D01*
X00913250Y00909500D02*
X00917250D01*
X00913250Y00915000D02*
X00917250D01*
X00924500Y00891000D02*
Y00895000D01*
X00919000Y00891000D02*
Y00895000D01*
X00910000Y00891000D02*
Y00895000D01*
X00904500Y00891000D02*
Y00895000D01*
X01004250Y00915000D02*
X01008250D01*
X01004250Y00909500D02*
X01008250D01*
X00965500Y00868500D02*
X00969500D01*
X00965500Y00874000D02*
X00969500D01*
X00940000D02*
X00944000D01*
X00940000Y00868500D02*
X00944000D01*
X00911500Y00874000D02*
X00915500D01*
X00911500Y00868500D02*
X00915500D01*
X00997000Y00839000D02*
Y00843000D01*
X01002500Y00839000D02*
Y00843000D01*
X01030500Y00731000D02*
Y00735000D01*
X01025000Y00731000D02*
Y00735000D01*
X01044500Y00725250D02*
X01048500D01*
X01044500Y00730750D02*
X01048500D01*
X01005750Y00731250D02*
Y00735250D01*
X01000250Y00731250D02*
Y00735250D01*
X00916750Y00734500D02*
Y00738500D01*
X00922250Y00734500D02*
Y00738500D01*
X00930000Y00734500D02*
Y00738500D01*
X00935500Y00734500D02*
Y00738500D01*
D62*
X01011500Y00853000D02*
G03*
X01011500Y00840000I00006500J-00006500D01*
G01*
X01037500D02*
G03*
X01037500Y00853000I-00006500J00006500D01*
G01*
X01011500Y00837750D02*
G03*
X01011500Y00824750I00006500J-00006500D01*
G01*
X01037500D02*
G03*
X01037500Y00837750I-00006500J00006500D01*
G01*
X01011500Y00840000D02*
X01037500D01*
X01011500Y00853000D02*
X01037500D01*
X01011500Y00824750D02*
X01037500D01*
X01011500Y00837750D02*
X01037500D01*
D63*
X01043500Y00881250D02*
Y00883300D01*
Y00899200D02*
Y00901250D01*
X01020500Y00881250D02*
Y00883300D01*
Y00899200D02*
Y00901250D01*
X00950898Y00913144D02*
X00972898D01*
X00950898Y00883144D02*
X00972898D01*
Y00913144D01*
X00950898Y00883144D02*
Y00913144D01*
X00938000Y00833750D02*
Y00838750D01*
X00969000Y00833750D02*
Y00838750D01*
X00938000D02*
X00969000D01*
X00938000Y00833750D02*
X00969000D01*
X00904500Y00835500D02*
Y00840500D01*
X00935500Y00835500D02*
Y00840500D01*
X00904500D02*
X00935500D01*
X00904500Y00835500D02*
X00935500D01*
X00901750Y00908000D02*
Y00917000D01*
X00902750Y00879000D02*
X00911750D01*
X00927500Y00866750D02*
Y00875750D01*
X00971150Y00802500D02*
Y00804500D01*
X00978350Y00802500D02*
Y00804500D01*
X00952500Y00803150D02*
X00954500D01*
X00952500Y00810350D02*
X00954500D01*
X00919000Y00810400D02*
X00921000D01*
X00919000Y00817600D02*
X00921000D01*
X01022500Y00850500D02*
X01026500D01*
X01022500Y00842500D02*
X01026500D01*
X01022500Y00835250D02*
X01026500D01*
X01022500Y00827250D02*
X01026500D01*
M02*
