G04 Layer_Color=32896*
%FSLAX24Y24*%
%MOIN*%
G70*
G01*
G75*
G36*
X31062Y31650D02*
X30860D01*
Y31688D01*
X31019D01*
Y31972D01*
X31062D01*
Y31650D01*
D02*
G37*
G36*
X31261Y31977D02*
X31276Y31975D01*
X31289Y31972D01*
X31295Y31970D01*
X31301Y31968D01*
X31306Y31966D01*
X31310Y31965D01*
X31314Y31963D01*
X31318Y31962D01*
X31320Y31960D01*
X31322Y31959D01*
X31323Y31959D01*
X31324Y31958D01*
X31337Y31951D01*
X31347Y31941D01*
X31357Y31932D01*
X31364Y31923D01*
X31371Y31914D01*
X31373Y31910D01*
X31375Y31907D01*
X31377Y31905D01*
X31378Y31903D01*
X31378Y31902D01*
X31378Y31901D01*
X31385Y31887D01*
X31390Y31872D01*
X31393Y31857D01*
X31395Y31843D01*
X31396Y31837D01*
X31397Y31831D01*
X31397Y31827D01*
Y31822D01*
X31398Y31819D01*
Y31816D01*
Y31814D01*
Y31814D01*
X31397Y31797D01*
X31395Y31780D01*
X31392Y31766D01*
X31391Y31759D01*
X31389Y31753D01*
X31388Y31747D01*
X31386Y31742D01*
X31385Y31738D01*
X31384Y31734D01*
X31382Y31731D01*
X31382Y31729D01*
X31381Y31727D01*
Y31727D01*
X31374Y31713D01*
X31366Y31700D01*
X31357Y31690D01*
X31353Y31685D01*
X31350Y31681D01*
X31346Y31677D01*
X31342Y31674D01*
X31339Y31671D01*
X31336Y31670D01*
X31334Y31668D01*
X31332Y31666D01*
X31331Y31666D01*
X31331Y31665D01*
X31324Y31662D01*
X31318Y31658D01*
X31304Y31653D01*
X31290Y31650D01*
X31276Y31647D01*
X31270Y31646D01*
X31264Y31645D01*
X31259Y31645D01*
X31255D01*
X31251Y31644D01*
X31246D01*
X31237Y31645D01*
X31228Y31646D01*
X31220Y31647D01*
X31212Y31649D01*
X31204Y31651D01*
X31197Y31653D01*
X31191Y31656D01*
X31185Y31658D01*
X31179Y31661D01*
X31174Y31663D01*
X31171Y31665D01*
X31167Y31668D01*
X31165Y31670D01*
X31162Y31670D01*
X31161Y31671D01*
X31161Y31672D01*
X31154Y31677D01*
X31149Y31683D01*
X31144Y31690D01*
X31138Y31696D01*
X31130Y31709D01*
X31124Y31722D01*
X31121Y31728D01*
X31118Y31734D01*
X31117Y31739D01*
X31115Y31743D01*
X31114Y31747D01*
X31113Y31750D01*
X31112Y31752D01*
Y31752D01*
X31155Y31763D01*
X31157Y31755D01*
X31159Y31748D01*
X31162Y31742D01*
X31164Y31736D01*
X31167Y31730D01*
X31170Y31725D01*
X31173Y31721D01*
X31176Y31717D01*
X31178Y31713D01*
X31181Y31710D01*
X31183Y31707D01*
X31185Y31705D01*
X31187Y31704D01*
X31188Y31702D01*
X31189Y31702D01*
X31189Y31701D01*
X31194Y31698D01*
X31199Y31695D01*
X31209Y31690D01*
X31219Y31686D01*
X31229Y31684D01*
X31237Y31682D01*
X31241Y31681D01*
X31244D01*
X31247Y31681D01*
X31250D01*
X31261Y31681D01*
X31271Y31683D01*
X31280Y31685D01*
X31289Y31688D01*
X31295Y31691D01*
X31298Y31692D01*
X31300Y31693D01*
X31302Y31694D01*
X31303Y31695D01*
X31304Y31696D01*
X31305D01*
X31314Y31702D01*
X31321Y31709D01*
X31328Y31717D01*
X31333Y31725D01*
X31337Y31731D01*
X31340Y31737D01*
X31341Y31739D01*
X31342Y31740D01*
X31342Y31741D01*
Y31742D01*
X31346Y31754D01*
X31349Y31766D01*
X31351Y31778D01*
X31352Y31789D01*
X31353Y31794D01*
X31353Y31799D01*
Y31803D01*
X31354Y31807D01*
Y31809D01*
Y31812D01*
Y31813D01*
Y31814D01*
X31353Y31826D01*
X31352Y31837D01*
X31351Y31847D01*
X31349Y31856D01*
X31347Y31864D01*
X31346Y31868D01*
X31345Y31870D01*
X31345Y31873D01*
X31344Y31874D01*
X31344Y31875D01*
Y31876D01*
X31339Y31886D01*
X31334Y31896D01*
X31329Y31904D01*
X31323Y31911D01*
X31317Y31917D01*
X31313Y31920D01*
X31310Y31923D01*
X31309Y31924D01*
X31309D01*
X31299Y31930D01*
X31289Y31934D01*
X31278Y31938D01*
X31268Y31939D01*
X31260Y31941D01*
X31256Y31941D01*
X31253D01*
X31250Y31942D01*
X31247D01*
X31235Y31941D01*
X31224Y31939D01*
X31215Y31937D01*
X31207Y31934D01*
X31201Y31931D01*
X31197Y31928D01*
X31194Y31926D01*
X31193Y31925D01*
X31186Y31918D01*
X31179Y31910D01*
X31173Y31902D01*
X31168Y31894D01*
X31165Y31886D01*
X31163Y31883D01*
X31162Y31880D01*
X31161Y31877D01*
X31160Y31876D01*
X31160Y31875D01*
Y31874D01*
X31118Y31884D01*
X31121Y31892D01*
X31124Y31900D01*
X31127Y31907D01*
X31131Y31914D01*
X31134Y31920D01*
X31138Y31925D01*
X31142Y31931D01*
X31146Y31936D01*
X31150Y31939D01*
X31153Y31943D01*
X31156Y31946D01*
X31159Y31949D01*
X31161Y31951D01*
X31163Y31952D01*
X31164Y31953D01*
X31164Y31953D01*
X31171Y31958D01*
X31177Y31962D01*
X31184Y31965D01*
X31191Y31968D01*
X31205Y31972D01*
X31217Y31975D01*
X31223Y31976D01*
X31228Y31977D01*
X31234Y31977D01*
X31238Y31978D01*
X31241Y31978D01*
X31246D01*
X31261Y31977D01*
D02*
G37*
G36*
X31013Y32400D02*
X30897D01*
X30886Y32400D01*
X30877Y32401D01*
X30868Y32402D01*
X30860Y32403D01*
X30854Y32404D01*
X30849Y32404D01*
X30848Y32405D01*
X30846Y32405D01*
X30845D01*
X30837Y32407D01*
X30830Y32410D01*
X30823Y32413D01*
X30817Y32415D01*
X30813Y32418D01*
X30809Y32420D01*
X30808Y32421D01*
X30807Y32421D01*
X30801Y32426D01*
X30795Y32431D01*
X30790Y32435D01*
X30786Y32440D01*
X30782Y32444D01*
X30780Y32448D01*
X30778Y32450D01*
X30777Y32451D01*
X30773Y32458D01*
X30768Y32466D01*
X30764Y32474D01*
X30761Y32481D01*
X30759Y32488D01*
X30757Y32493D01*
X30756Y32495D01*
X30756Y32496D01*
X30755Y32497D01*
Y32497D01*
X30753Y32509D01*
X30750Y32520D01*
X30749Y32530D01*
X30747Y32541D01*
X30747Y32550D01*
Y32553D01*
X30747Y32557D01*
Y32559D01*
Y32561D01*
Y32562D01*
Y32563D01*
X30747Y32578D01*
X30748Y32593D01*
X30751Y32606D01*
X30752Y32612D01*
X30753Y32617D01*
X30754Y32622D01*
X30755Y32626D01*
X30756Y32630D01*
X30758Y32633D01*
X30758Y32636D01*
X30759Y32638D01*
X30760Y32639D01*
Y32640D01*
X30765Y32652D01*
X30771Y32662D01*
X30777Y32672D01*
X30783Y32680D01*
X30789Y32686D01*
X30794Y32691D01*
X30795Y32692D01*
X30797Y32694D01*
X30797Y32694D01*
X30798Y32695D01*
X30805Y32701D01*
X30813Y32705D01*
X30821Y32709D01*
X30829Y32713D01*
X30835Y32715D01*
X30840Y32716D01*
X30842Y32717D01*
X30843D01*
X30844Y32718D01*
X30845D01*
X30853Y32719D01*
X30862Y32721D01*
X30871Y32722D01*
X30881Y32722D01*
X30889Y32722D01*
X31013D01*
Y32400D01*
D02*
G37*
G36*
X31587Y31978D02*
X31597Y31976D01*
X31608Y31974D01*
X31617Y31972D01*
X31624Y31971D01*
X31627Y31970D01*
X31629Y31969D01*
X31631Y31968D01*
X31632Y31967D01*
X31633Y31967D01*
X31634D01*
X31643Y31962D01*
X31652Y31957D01*
X31659Y31951D01*
X31664Y31946D01*
X31668Y31942D01*
X31672Y31938D01*
X31674Y31935D01*
X31674Y31935D01*
Y31934D01*
X31679Y31926D01*
X31682Y31918D01*
X31685Y31910D01*
X31686Y31904D01*
X31687Y31897D01*
X31688Y31893D01*
Y31891D01*
Y31890D01*
Y31889D01*
Y31889D01*
X31687Y31881D01*
X31686Y31873D01*
X31684Y31866D01*
X31682Y31860D01*
X31680Y31856D01*
X31679Y31852D01*
X31677Y31849D01*
X31677Y31849D01*
X31672Y31842D01*
X31666Y31836D01*
X31661Y31831D01*
X31655Y31827D01*
X31651Y31823D01*
X31646Y31821D01*
X31644Y31819D01*
X31643Y31818D01*
X31643D01*
X31639Y31816D01*
X31635Y31814D01*
X31625Y31811D01*
X31615Y31808D01*
X31604Y31805D01*
X31595Y31802D01*
X31591Y31801D01*
X31587Y31800D01*
X31584Y31799D01*
X31582Y31799D01*
X31581Y31798D01*
X31580D01*
X31572Y31796D01*
X31565Y31794D01*
X31558Y31793D01*
X31553Y31791D01*
X31547Y31790D01*
X31542Y31788D01*
X31538Y31787D01*
X31535Y31786D01*
X31532Y31785D01*
X31529Y31785D01*
X31526Y31783D01*
X31523Y31783D01*
X31523Y31782D01*
X31516Y31780D01*
X31510Y31776D01*
X31505Y31773D01*
X31501Y31770D01*
X31498Y31767D01*
X31496Y31766D01*
X31494Y31764D01*
X31494Y31764D01*
X31491Y31760D01*
X31488Y31755D01*
X31487Y31750D01*
X31486Y31746D01*
X31485Y31743D01*
X31485Y31740D01*
Y31738D01*
Y31737D01*
X31485Y31732D01*
X31486Y31726D01*
X31488Y31722D01*
X31489Y31718D01*
X31491Y31714D01*
X31493Y31712D01*
X31494Y31710D01*
X31494Y31710D01*
X31498Y31705D01*
X31502Y31701D01*
X31507Y31698D01*
X31511Y31695D01*
X31515Y31693D01*
X31519Y31691D01*
X31521Y31690D01*
X31522Y31690D01*
X31529Y31687D01*
X31536Y31685D01*
X31544Y31684D01*
X31550Y31684D01*
X31556Y31683D01*
X31561Y31683D01*
X31565D01*
X31575Y31683D01*
X31584Y31684D01*
X31593Y31685D01*
X31600Y31687D01*
X31606Y31689D01*
X31611Y31691D01*
X31612Y31691D01*
X31614Y31691D01*
X31614Y31692D01*
X31615D01*
X31622Y31696D01*
X31629Y31700D01*
X31634Y31704D01*
X31639Y31708D01*
X31643Y31712D01*
X31645Y31715D01*
X31646Y31717D01*
X31647Y31717D01*
X31650Y31723D01*
X31653Y31730D01*
X31655Y31737D01*
X31657Y31743D01*
X31659Y31749D01*
X31659Y31753D01*
Y31755D01*
X31660Y31756D01*
Y31757D01*
Y31757D01*
X31700Y31753D01*
X31699Y31742D01*
X31697Y31731D01*
X31694Y31721D01*
X31691Y31712D01*
X31688Y31705D01*
X31686Y31702D01*
X31686Y31700D01*
X31684Y31698D01*
X31684Y31697D01*
X31683Y31696D01*
Y31695D01*
X31676Y31686D01*
X31668Y31678D01*
X31660Y31672D01*
X31653Y31666D01*
X31646Y31662D01*
X31641Y31659D01*
X31639Y31658D01*
X31638Y31657D01*
X31637Y31657D01*
X31636D01*
X31625Y31653D01*
X31612Y31650D01*
X31600Y31648D01*
X31589Y31646D01*
X31583Y31645D01*
X31578Y31645D01*
X31574D01*
X31570Y31644D01*
X31563D01*
X31550Y31645D01*
X31539Y31646D01*
X31528Y31649D01*
X31519Y31651D01*
X31512Y31653D01*
X31508Y31654D01*
X31506Y31655D01*
X31504Y31656D01*
X31502Y31657D01*
X31501Y31657D01*
X31501D01*
X31491Y31662D01*
X31483Y31668D01*
X31475Y31674D01*
X31469Y31679D01*
X31465Y31684D01*
X31461Y31688D01*
X31459Y31691D01*
X31459Y31691D01*
Y31692D01*
X31453Y31701D01*
X31450Y31709D01*
X31447Y31717D01*
X31446Y31725D01*
X31445Y31731D01*
X31444Y31736D01*
Y31738D01*
Y31739D01*
Y31740D01*
Y31740D01*
X31444Y31750D01*
X31446Y31759D01*
X31448Y31767D01*
X31450Y31773D01*
X31453Y31779D01*
X31455Y31783D01*
X31457Y31785D01*
X31457Y31786D01*
X31463Y31793D01*
X31469Y31800D01*
X31476Y31805D01*
X31483Y31810D01*
X31489Y31814D01*
X31494Y31817D01*
X31496Y31818D01*
X31498Y31819D01*
X31499Y31819D01*
X31499D01*
X31503Y31821D01*
X31508Y31822D01*
X31513Y31824D01*
X31518Y31826D01*
X31530Y31829D01*
X31542Y31833D01*
X31548Y31834D01*
X31553Y31835D01*
X31558Y31837D01*
X31562Y31838D01*
X31565Y31839D01*
X31568Y31839D01*
X31570Y31840D01*
X31570D01*
X31580Y31842D01*
X31588Y31844D01*
X31596Y31846D01*
X31602Y31848D01*
X31608Y31850D01*
X31613Y31852D01*
X31618Y31854D01*
X31622Y31856D01*
X31625Y31857D01*
X31628Y31859D01*
X31630Y31860D01*
X31632Y31861D01*
X31634Y31862D01*
X31635Y31863D01*
X31639Y31868D01*
X31642Y31872D01*
X31644Y31877D01*
X31645Y31882D01*
X31646Y31885D01*
X31647Y31889D01*
Y31890D01*
Y31891D01*
X31646Y31899D01*
X31644Y31905D01*
X31641Y31911D01*
X31638Y31916D01*
X31635Y31920D01*
X31632Y31923D01*
X31631Y31925D01*
X31630Y31925D01*
X31626Y31928D01*
X31622Y31930D01*
X31613Y31934D01*
X31604Y31936D01*
X31595Y31938D01*
X31586Y31939D01*
X31583Y31939D01*
X31580Y31940D01*
X31573D01*
X31560Y31939D01*
X31549Y31938D01*
X31539Y31935D01*
X31531Y31932D01*
X31525Y31929D01*
X31521Y31926D01*
X31518Y31924D01*
X31517Y31924D01*
X31511Y31917D01*
X31506Y31910D01*
X31501Y31903D01*
X31499Y31896D01*
X31497Y31889D01*
X31495Y31883D01*
X31495Y31881D01*
X31494Y31880D01*
Y31879D01*
Y31878D01*
X31453Y31882D01*
X31454Y31892D01*
X31457Y31901D01*
X31459Y31910D01*
X31462Y31917D01*
X31465Y31924D01*
X31467Y31928D01*
X31468Y31930D01*
X31469Y31931D01*
X31470Y31931D01*
Y31932D01*
X31476Y31940D01*
X31482Y31947D01*
X31489Y31953D01*
X31496Y31958D01*
X31502Y31962D01*
X31507Y31964D01*
X31509Y31965D01*
X31510Y31966D01*
X31511Y31966D01*
X31512D01*
X31522Y31970D01*
X31533Y31973D01*
X31543Y31975D01*
X31553Y31977D01*
X31562Y31978D01*
X31565D01*
X31569Y31978D01*
X31575D01*
X31587Y31978D01*
D02*
G37*
G36*
X30687D02*
X30697Y31976D01*
X30708Y31974D01*
X30717Y31972D01*
X30724Y31971D01*
X30727Y31970D01*
X30729Y31969D01*
X30731Y31968D01*
X30732Y31967D01*
X30733Y31967D01*
X30734D01*
X30743Y31962D01*
X30752Y31957D01*
X30759Y31951D01*
X30764Y31946D01*
X30768Y31942D01*
X30772Y31938D01*
X30774Y31935D01*
X30774Y31935D01*
Y31934D01*
X30779Y31926D01*
X30782Y31918D01*
X30785Y31910D01*
X30786Y31904D01*
X30787Y31897D01*
X30788Y31893D01*
Y31891D01*
Y31890D01*
Y31889D01*
Y31889D01*
X30787Y31881D01*
X30786Y31873D01*
X30784Y31866D01*
X30782Y31860D01*
X30780Y31856D01*
X30779Y31852D01*
X30777Y31849D01*
X30777Y31849D01*
X30772Y31842D01*
X30766Y31836D01*
X30761Y31831D01*
X30755Y31827D01*
X30751Y31823D01*
X30746Y31821D01*
X30744Y31819D01*
X30743Y31818D01*
X30743D01*
X30739Y31816D01*
X30735Y31814D01*
X30725Y31811D01*
X30715Y31808D01*
X30704Y31805D01*
X30695Y31802D01*
X30691Y31801D01*
X30687Y31800D01*
X30684Y31799D01*
X30682Y31799D01*
X30681Y31798D01*
X30680D01*
X30672Y31796D01*
X30665Y31794D01*
X30658Y31793D01*
X30653Y31791D01*
X30647Y31790D01*
X30642Y31788D01*
X30638Y31787D01*
X30635Y31786D01*
X30632Y31785D01*
X30629Y31785D01*
X30626Y31783D01*
X30623Y31783D01*
X30623Y31782D01*
X30616Y31780D01*
X30610Y31776D01*
X30605Y31773D01*
X30601Y31770D01*
X30598Y31767D01*
X30596Y31766D01*
X30594Y31764D01*
X30594Y31764D01*
X30591Y31760D01*
X30588Y31755D01*
X30587Y31750D01*
X30586Y31746D01*
X30585Y31743D01*
X30585Y31740D01*
Y31738D01*
Y31737D01*
X30585Y31732D01*
X30586Y31726D01*
X30587Y31722D01*
X30589Y31718D01*
X30591Y31714D01*
X30593Y31712D01*
X30594Y31710D01*
X30594Y31710D01*
X30598Y31705D01*
X30602Y31701D01*
X30607Y31698D01*
X30611Y31695D01*
X30615Y31693D01*
X30619Y31691D01*
X30621Y31690D01*
X30622Y31690D01*
X30629Y31687D01*
X30636Y31685D01*
X30644Y31684D01*
X30650Y31684D01*
X30656Y31683D01*
X30661Y31683D01*
X30665D01*
X30675Y31683D01*
X30684Y31684D01*
X30693Y31685D01*
X30700Y31687D01*
X30706Y31689D01*
X30711Y31691D01*
X30712Y31691D01*
X30714Y31691D01*
X30714Y31692D01*
X30715D01*
X30722Y31696D01*
X30729Y31700D01*
X30734Y31704D01*
X30739Y31708D01*
X30743Y31712D01*
X30745Y31715D01*
X30746Y31717D01*
X30747Y31717D01*
X30750Y31723D01*
X30753Y31730D01*
X30755Y31737D01*
X30757Y31743D01*
X30759Y31749D01*
X30759Y31753D01*
Y31755D01*
X30760Y31756D01*
Y31757D01*
Y31757D01*
X30800Y31753D01*
X30799Y31742D01*
X30797Y31731D01*
X30794Y31721D01*
X30791Y31712D01*
X30788Y31705D01*
X30786Y31702D01*
X30786Y31700D01*
X30784Y31698D01*
X30784Y31697D01*
X30783Y31696D01*
Y31695D01*
X30776Y31686D01*
X30768Y31678D01*
X30760Y31672D01*
X30753Y31666D01*
X30746Y31662D01*
X30741Y31659D01*
X30739Y31658D01*
X30738Y31657D01*
X30737Y31657D01*
X30736D01*
X30725Y31653D01*
X30712Y31650D01*
X30700Y31648D01*
X30689Y31646D01*
X30683Y31645D01*
X30678Y31645D01*
X30674D01*
X30670Y31644D01*
X30663D01*
X30650Y31645D01*
X30639Y31646D01*
X30628Y31649D01*
X30619Y31651D01*
X30612Y31653D01*
X30608Y31654D01*
X30606Y31655D01*
X30604Y31656D01*
X30602Y31657D01*
X30601Y31657D01*
X30601D01*
X30591Y31662D01*
X30583Y31668D01*
X30575Y31674D01*
X30569Y31679D01*
X30565Y31684D01*
X30561Y31688D01*
X30559Y31691D01*
X30559Y31691D01*
Y31692D01*
X30553Y31701D01*
X30550Y31709D01*
X30547Y31717D01*
X30546Y31725D01*
X30545Y31731D01*
X30544Y31736D01*
Y31738D01*
Y31739D01*
Y31740D01*
Y31740D01*
X30544Y31750D01*
X30546Y31759D01*
X30548Y31767D01*
X30550Y31773D01*
X30553Y31779D01*
X30555Y31783D01*
X30557Y31785D01*
X30557Y31786D01*
X30563Y31793D01*
X30569Y31800D01*
X30576Y31805D01*
X30583Y31810D01*
X30589Y31814D01*
X30594Y31817D01*
X30596Y31818D01*
X30598Y31819D01*
X30599Y31819D01*
X30599D01*
X30603Y31821D01*
X30608Y31822D01*
X30613Y31824D01*
X30618Y31826D01*
X30630Y31829D01*
X30642Y31833D01*
X30648Y31834D01*
X30653Y31835D01*
X30658Y31837D01*
X30662Y31838D01*
X30665Y31839D01*
X30668Y31839D01*
X30670Y31840D01*
X30670D01*
X30680Y31842D01*
X30688Y31844D01*
X30696Y31846D01*
X30702Y31848D01*
X30708Y31850D01*
X30713Y31852D01*
X30718Y31854D01*
X30722Y31856D01*
X30725Y31857D01*
X30728Y31859D01*
X30730Y31860D01*
X30732Y31861D01*
X30734Y31862D01*
X30735Y31863D01*
X30739Y31868D01*
X30742Y31872D01*
X30744Y31877D01*
X30745Y31882D01*
X30746Y31885D01*
X30747Y31889D01*
Y31890D01*
Y31891D01*
X30746Y31899D01*
X30744Y31905D01*
X30741Y31911D01*
X30738Y31916D01*
X30735Y31920D01*
X30732Y31923D01*
X30731Y31925D01*
X30730Y31925D01*
X30726Y31928D01*
X30722Y31930D01*
X30713Y31934D01*
X30704Y31936D01*
X30695Y31938D01*
X30686Y31939D01*
X30683Y31939D01*
X30680Y31940D01*
X30673D01*
X30660Y31939D01*
X30649Y31938D01*
X30639Y31935D01*
X30631Y31932D01*
X30625Y31929D01*
X30621Y31926D01*
X30618Y31924D01*
X30617Y31924D01*
X30611Y31917D01*
X30606Y31910D01*
X30601Y31903D01*
X30599Y31896D01*
X30597Y31889D01*
X30595Y31883D01*
X30595Y31881D01*
X30594Y31880D01*
Y31879D01*
Y31878D01*
X30553Y31882D01*
X30554Y31892D01*
X30557Y31901D01*
X30559Y31910D01*
X30562Y31917D01*
X30565Y31924D01*
X30567Y31928D01*
X30568Y31930D01*
X30569Y31931D01*
X30570Y31931D01*
Y31932D01*
X30576Y31940D01*
X30582Y31947D01*
X30589Y31953D01*
X30596Y31958D01*
X30602Y31962D01*
X30607Y31964D01*
X30609Y31965D01*
X30610Y31966D01*
X30611Y31966D01*
X30612D01*
X30622Y31970D01*
X30633Y31973D01*
X30643Y31975D01*
X30653Y31977D01*
X30662Y31978D01*
X30665D01*
X30669Y31978D01*
X30675D01*
X30687Y31978D01*
D02*
G37*
G36*
X30195Y31650D02*
X30150D01*
X30115Y31748D01*
X29980D01*
X29942Y31650D01*
X29894D01*
X30026Y31972D01*
X30072D01*
X30195Y31650D01*
D02*
G37*
G36*
X30485D02*
X30369D01*
X30358Y31650D01*
X30348Y31651D01*
X30340Y31652D01*
X30332Y31653D01*
X30326Y31654D01*
X30321Y31654D01*
X30320Y31655D01*
X30318Y31655D01*
X30317D01*
X30309Y31657D01*
X30301Y31660D01*
X30295Y31663D01*
X30289Y31665D01*
X30285Y31668D01*
X30281Y31670D01*
X30279Y31671D01*
X30279Y31671D01*
X30272Y31676D01*
X30267Y31681D01*
X30262Y31685D01*
X30258Y31690D01*
X30254Y31694D01*
X30252Y31698D01*
X30250Y31700D01*
X30249Y31701D01*
X30245Y31708D01*
X30240Y31716D01*
X30236Y31724D01*
X30233Y31731D01*
X30231Y31738D01*
X30229Y31743D01*
X30228Y31745D01*
X30228Y31746D01*
X30227Y31747D01*
Y31747D01*
X30224Y31759D01*
X30222Y31770D01*
X30221Y31780D01*
X30219Y31791D01*
X30219Y31800D01*
Y31803D01*
X30218Y31807D01*
Y31809D01*
Y31811D01*
Y31812D01*
Y31813D01*
X30219Y31828D01*
X30220Y31843D01*
X30223Y31856D01*
X30224Y31862D01*
X30225Y31867D01*
X30226Y31872D01*
X30227Y31876D01*
X30228Y31880D01*
X30230Y31883D01*
X30230Y31886D01*
X30231Y31888D01*
X30231Y31889D01*
Y31890D01*
X30237Y31902D01*
X30243Y31912D01*
X30249Y31922D01*
X30255Y31930D01*
X30261Y31936D01*
X30266Y31941D01*
X30267Y31942D01*
X30269Y31944D01*
X30269Y31944D01*
X30270Y31945D01*
X30277Y31951D01*
X30285Y31955D01*
X30293Y31959D01*
X30300Y31963D01*
X30307Y31965D01*
X30312Y31966D01*
X30314Y31967D01*
X30315D01*
X30316Y31968D01*
X30317D01*
X30325Y31969D01*
X30334Y31971D01*
X30343Y31972D01*
X30353Y31972D01*
X30361Y31972D01*
X30485D01*
Y31650D01*
D02*
G37*
G36*
X31556Y32727D02*
X31572Y32725D01*
X31580Y32723D01*
X31587Y32722D01*
X31593Y32720D01*
X31599Y32718D01*
X31605Y32716D01*
X31610Y32715D01*
X31614Y32713D01*
X31618Y32711D01*
X31620Y32710D01*
X31622Y32709D01*
X31624Y32708D01*
X31624Y32708D01*
X31631Y32704D01*
X31637Y32700D01*
X31648Y32690D01*
X31658Y32680D01*
X31666Y32670D01*
X31673Y32661D01*
X31675Y32657D01*
X31677Y32654D01*
X31679Y32651D01*
X31679Y32649D01*
X31680Y32647D01*
X31680Y32647D01*
X31687Y32632D01*
X31692Y32616D01*
X31695Y32601D01*
X31696Y32594D01*
X31698Y32588D01*
X31698Y32582D01*
X31699Y32577D01*
X31700Y32571D01*
Y32567D01*
X31700Y32564D01*
Y32562D01*
Y32560D01*
Y32559D01*
X31699Y32542D01*
X31697Y32526D01*
X31695Y32518D01*
X31694Y32511D01*
X31692Y32504D01*
X31690Y32498D01*
X31688Y32493D01*
X31686Y32488D01*
X31685Y32483D01*
X31684Y32480D01*
X31682Y32477D01*
X31681Y32475D01*
X31680Y32474D01*
Y32473D01*
X31672Y32460D01*
X31663Y32448D01*
X31653Y32438D01*
X31644Y32429D01*
X31635Y32423D01*
X31632Y32420D01*
X31628Y32418D01*
X31625Y32417D01*
X31624Y32415D01*
X31622Y32415D01*
X31622Y32414D01*
X31614Y32411D01*
X31607Y32408D01*
X31592Y32403D01*
X31577Y32400D01*
X31564Y32397D01*
X31558Y32396D01*
X31552Y32395D01*
X31547Y32395D01*
X31543D01*
X31540Y32394D01*
X31535D01*
X31522Y32395D01*
X31509Y32396D01*
X31498Y32399D01*
X31488Y32401D01*
X31483Y32402D01*
X31479Y32403D01*
X31475Y32404D01*
X31472Y32405D01*
X31470Y32406D01*
X31468Y32407D01*
X31467Y32407D01*
X31467D01*
X31454Y32412D01*
X31442Y32418D01*
X31431Y32425D01*
X31421Y32431D01*
X31417Y32434D01*
X31413Y32436D01*
X31410Y32439D01*
X31407Y32441D01*
X31405Y32442D01*
X31403Y32444D01*
X31402Y32444D01*
X31401Y32445D01*
Y32564D01*
X31538D01*
Y32526D01*
X31443D01*
Y32466D01*
X31449Y32461D01*
X31455Y32457D01*
X31462Y32453D01*
X31469Y32450D01*
X31474Y32447D01*
X31480Y32445D01*
X31481Y32444D01*
X31482Y32443D01*
X31483Y32443D01*
X31484D01*
X31494Y32440D01*
X31503Y32437D01*
X31512Y32435D01*
X31521Y32434D01*
X31528Y32433D01*
X31530D01*
X31533Y32433D01*
X31538D01*
X31549Y32433D01*
X31561Y32435D01*
X31571Y32437D01*
X31580Y32440D01*
X31588Y32442D01*
X31591Y32443D01*
X31593Y32444D01*
X31596Y32445D01*
X31597Y32446D01*
X31598Y32447D01*
X31598D01*
X31608Y32453D01*
X31617Y32459D01*
X31625Y32466D01*
X31631Y32473D01*
X31636Y32480D01*
X31639Y32485D01*
X31640Y32487D01*
X31641Y32488D01*
X31642Y32489D01*
Y32489D01*
X31646Y32501D01*
X31650Y32513D01*
X31652Y32525D01*
X31654Y32537D01*
X31655Y32542D01*
X31655Y32547D01*
X31656Y32551D01*
Y32555D01*
X31656Y32558D01*
Y32560D01*
Y32562D01*
Y32562D01*
X31656Y32575D01*
X31654Y32587D01*
X31652Y32598D01*
X31650Y32608D01*
X31649Y32612D01*
X31648Y32616D01*
X31647Y32619D01*
X31646Y32622D01*
X31645Y32624D01*
X31645Y32626D01*
X31644Y32626D01*
Y32627D01*
X31641Y32633D01*
X31638Y32640D01*
X31634Y32645D01*
X31631Y32650D01*
X31628Y32654D01*
X31626Y32657D01*
X31624Y32659D01*
X31624Y32659D01*
X31618Y32664D01*
X31613Y32669D01*
X31607Y32673D01*
X31601Y32676D01*
X31597Y32679D01*
X31593Y32681D01*
X31590Y32682D01*
X31589Y32682D01*
X31581Y32686D01*
X31572Y32688D01*
X31563Y32689D01*
X31556Y32691D01*
X31549Y32691D01*
X31546D01*
X31543Y32692D01*
X31538D01*
X31529Y32691D01*
X31521Y32690D01*
X31514Y32689D01*
X31507Y32688D01*
X31501Y32686D01*
X31497Y32684D01*
X31495Y32683D01*
X31494Y32683D01*
X31487Y32680D01*
X31481Y32676D01*
X31475Y32672D01*
X31471Y32668D01*
X31468Y32665D01*
X31465Y32663D01*
X31464Y32661D01*
X31463Y32660D01*
X31459Y32655D01*
X31456Y32648D01*
X31453Y32642D01*
X31450Y32636D01*
X31448Y32630D01*
X31446Y32626D01*
X31446Y32624D01*
X31446Y32623D01*
X31445Y32622D01*
Y32622D01*
X31406Y32632D01*
X31410Y32644D01*
X31414Y32654D01*
X31418Y32663D01*
X31422Y32671D01*
X31426Y32677D01*
X31428Y32681D01*
X31430Y32684D01*
X31431Y32685D01*
X31438Y32692D01*
X31445Y32698D01*
X31452Y32704D01*
X31459Y32708D01*
X31466Y32712D01*
X31471Y32715D01*
X31473Y32715D01*
X31474Y32716D01*
X31475Y32716D01*
X31475D01*
X31486Y32720D01*
X31497Y32723D01*
X31508Y32725D01*
X31517Y32727D01*
X31526Y32728D01*
X31530D01*
X31533Y32728D01*
X31548D01*
X31556Y32727D01*
D02*
G37*
G36*
X30087Y32723D02*
X30099Y32721D01*
X30110Y32717D01*
X30119Y32713D01*
X30124Y32711D01*
X30127Y32709D01*
X30130Y32707D01*
X30132Y32705D01*
X30134Y32704D01*
X30136Y32703D01*
X30137Y32702D01*
X30137Y32702D01*
X30146Y32693D01*
X30153Y32683D01*
X30159Y32673D01*
X30163Y32663D01*
X30166Y32654D01*
X30167Y32650D01*
X30168Y32647D01*
X30169Y32644D01*
X30169Y32642D01*
X30170Y32641D01*
Y32640D01*
X30130Y32633D01*
X30128Y32644D01*
X30125Y32653D01*
X30122Y32660D01*
X30119Y32666D01*
X30116Y32671D01*
X30113Y32674D01*
X30111Y32676D01*
X30111Y32677D01*
X30104Y32681D01*
X30098Y32685D01*
X30092Y32688D01*
X30086Y32689D01*
X30080Y32690D01*
X30076Y32691D01*
X30072D01*
X30064Y32691D01*
X30057Y32689D01*
X30050Y32687D01*
X30044Y32684D01*
X30040Y32681D01*
X30037Y32679D01*
X30035Y32677D01*
X30034Y32677D01*
X30029Y32671D01*
X30025Y32665D01*
X30023Y32659D01*
X30021Y32654D01*
X30020Y32648D01*
X30019Y32645D01*
Y32642D01*
Y32641D01*
Y32641D01*
Y32636D01*
X30020Y32631D01*
X30022Y32623D01*
X30026Y32616D01*
X30029Y32610D01*
X30033Y32606D01*
X30036Y32603D01*
X30039Y32601D01*
X30039Y32600D01*
X30040D01*
X30048Y32596D01*
X30055Y32593D01*
X30063Y32591D01*
X30070Y32589D01*
X30076Y32588D01*
X30081Y32587D01*
X30087D01*
X30089Y32588D01*
X30091D01*
X30096Y32553D01*
X30090Y32554D01*
X30084Y32555D01*
X30080Y32556D01*
X30076Y32557D01*
X30072Y32557D01*
X30068D01*
X30058Y32556D01*
X30050Y32554D01*
X30042Y32551D01*
X30035Y32548D01*
X30030Y32545D01*
X30026Y32542D01*
X30024Y32540D01*
X30023Y32539D01*
X30017Y32532D01*
X30012Y32525D01*
X30009Y32517D01*
X30007Y32510D01*
X30006Y32504D01*
X30005Y32499D01*
X30005Y32497D01*
Y32496D01*
Y32495D01*
Y32494D01*
X30006Y32484D01*
X30008Y32475D01*
X30011Y32467D01*
X30015Y32460D01*
X30018Y32454D01*
X30021Y32450D01*
X30023Y32447D01*
X30024Y32446D01*
X30032Y32440D01*
X30040Y32435D01*
X30048Y32432D01*
X30055Y32429D01*
X30062Y32428D01*
X30067Y32427D01*
X30069Y32427D01*
X30071D01*
X30080Y32427D01*
X30088Y32429D01*
X30095Y32432D01*
X30100Y32434D01*
X30105Y32437D01*
X30109Y32439D01*
X30111Y32441D01*
X30111Y32441D01*
X30117Y32448D01*
X30122Y32455D01*
X30126Y32463D01*
X30129Y32472D01*
X30132Y32479D01*
X30132Y32482D01*
X30133Y32485D01*
X30133Y32487D01*
X30134Y32489D01*
X30134Y32490D01*
Y32490D01*
X30174Y32485D01*
X30173Y32478D01*
X30172Y32471D01*
X30167Y32458D01*
X30162Y32447D01*
X30159Y32442D01*
X30157Y32437D01*
X30154Y32433D01*
X30151Y32430D01*
X30149Y32427D01*
X30146Y32424D01*
X30145Y32422D01*
X30144Y32421D01*
X30143Y32420D01*
X30142Y32420D01*
X30137Y32415D01*
X30131Y32411D01*
X30125Y32408D01*
X30119Y32405D01*
X30108Y32400D01*
X30097Y32398D01*
X30091Y32397D01*
X30087Y32396D01*
X30083Y32395D01*
X30079Y32395D01*
X30076Y32394D01*
X30072D01*
X30063Y32395D01*
X30055Y32396D01*
X30047Y32397D01*
X30040Y32399D01*
X30033Y32401D01*
X30027Y32404D01*
X30021Y32407D01*
X30015Y32409D01*
X30010Y32412D01*
X30006Y32414D01*
X30002Y32417D01*
X30000Y32419D01*
X29997Y32421D01*
X29995Y32422D01*
X29995Y32423D01*
X29994Y32424D01*
X29988Y32429D01*
X29984Y32435D01*
X29980Y32441D01*
X29976Y32448D01*
X29973Y32453D01*
X29970Y32459D01*
X29967Y32470D01*
X29966Y32475D01*
X29965Y32480D01*
X29964Y32484D01*
X29963Y32488D01*
X29963Y32491D01*
Y32493D01*
Y32495D01*
Y32495D01*
X29963Y32506D01*
X29965Y32517D01*
X29968Y32525D01*
X29971Y32533D01*
X29974Y32539D01*
X29976Y32544D01*
X29978Y32546D01*
X29979Y32547D01*
X29985Y32554D01*
X29992Y32560D01*
X30000Y32565D01*
X30007Y32569D01*
X30014Y32571D01*
X30019Y32573D01*
X30021Y32574D01*
X30022Y32574D01*
X30023Y32575D01*
X30023D01*
X30015Y32579D01*
X30009Y32583D01*
X30003Y32588D01*
X29999Y32592D01*
X29995Y32596D01*
X29992Y32599D01*
X29991Y32601D01*
X29990Y32602D01*
X29987Y32608D01*
X29984Y32615D01*
X29981Y32621D01*
X29980Y32627D01*
X29979Y32633D01*
X29979Y32636D01*
Y32639D01*
Y32640D01*
X29979Y32648D01*
X29981Y32656D01*
X29982Y32663D01*
X29985Y32669D01*
X29987Y32674D01*
X29989Y32678D01*
X29990Y32681D01*
X29991Y32681D01*
X29995Y32688D01*
X30001Y32695D01*
X30007Y32700D01*
X30012Y32704D01*
X30017Y32708D01*
X30021Y32710D01*
X30024Y32712D01*
X30024Y32712D01*
X30025D01*
X30033Y32716D01*
X30042Y32719D01*
X30050Y32721D01*
X30057Y32722D01*
X30064Y32723D01*
X30069Y32724D01*
X30080D01*
X30087Y32723D01*
D02*
G37*
G36*
X30003Y32873D02*
X29999Y32864D01*
X29995Y32856D01*
X29991Y32848D01*
X29988Y32842D01*
X29985Y32836D01*
X29983Y32833D01*
X29982Y32832D01*
Y32832D01*
X29976Y32822D01*
X29970Y32813D01*
X29965Y32805D01*
X29960Y32799D01*
X29956Y32793D01*
X29953Y32790D01*
X29950Y32787D01*
X29950Y32787D01*
X30250D01*
Y32739D01*
X29864D01*
Y32770D01*
X29874Y32776D01*
X29883Y32782D01*
X29891Y32789D01*
X29899Y32796D01*
X29906Y32802D01*
X29911Y32807D01*
X29913Y32809D01*
X29915Y32811D01*
X29915Y32812D01*
X29916Y32812D01*
X29925Y32824D01*
X29934Y32835D01*
X29942Y32847D01*
X29948Y32858D01*
X29954Y32867D01*
X29956Y32871D01*
X29958Y32874D01*
X29959Y32877D01*
X29960Y32879D01*
X29961Y32880D01*
Y32881D01*
X30006D01*
X30003Y32873D01*
D02*
G37*
G36*
X30463Y32723D02*
X30475Y32721D01*
X30486Y32717D01*
X30495Y32713D01*
X30500Y32711D01*
X30503Y32709D01*
X30506Y32707D01*
X30509Y32705D01*
X30510Y32704D01*
X30512Y32703D01*
X30513Y32702D01*
X30513Y32702D01*
X30522Y32693D01*
X30529Y32683D01*
X30535Y32673D01*
X30539Y32663D01*
X30542Y32654D01*
X30543Y32650D01*
X30544Y32647D01*
X30545Y32644D01*
X30545Y32642D01*
X30546Y32641D01*
Y32640D01*
X30506Y32633D01*
X30504Y32644D01*
X30502Y32653D01*
X30498Y32660D01*
X30495Y32666D01*
X30492Y32671D01*
X30489Y32674D01*
X30487Y32676D01*
X30487Y32677D01*
X30481Y32681D01*
X30474Y32685D01*
X30468Y32688D01*
X30462Y32689D01*
X30456Y32690D01*
X30452Y32691D01*
X30448D01*
X30440Y32691D01*
X30433Y32689D01*
X30426Y32687D01*
X30420Y32684D01*
X30416Y32681D01*
X30413Y32679D01*
X30411Y32677D01*
X30410Y32677D01*
X30405Y32671D01*
X30401Y32665D01*
X30399Y32659D01*
X30397Y32654D01*
X30396Y32648D01*
X30395Y32645D01*
Y32642D01*
Y32641D01*
Y32641D01*
Y32636D01*
X30396Y32631D01*
X30399Y32623D01*
X30402Y32616D01*
X30406Y32610D01*
X30409Y32606D01*
X30413Y32603D01*
X30415Y32601D01*
X30415Y32600D01*
X30416D01*
X30424Y32596D01*
X30431Y32593D01*
X30439Y32591D01*
X30446Y32589D01*
X30452Y32588D01*
X30457Y32587D01*
X30463D01*
X30465Y32588D01*
X30468D01*
X30472Y32553D01*
X30466Y32554D01*
X30461Y32555D01*
X30456Y32556D01*
X30452Y32557D01*
X30448Y32557D01*
X30444D01*
X30434Y32556D01*
X30426Y32554D01*
X30418Y32551D01*
X30411Y32548D01*
X30406Y32545D01*
X30402Y32542D01*
X30400Y32540D01*
X30399Y32539D01*
X30393Y32532D01*
X30388Y32525D01*
X30385Y32517D01*
X30383Y32510D01*
X30382Y32504D01*
X30381Y32499D01*
X30381Y32497D01*
Y32496D01*
Y32495D01*
Y32494D01*
X30382Y32484D01*
X30384Y32475D01*
X30387Y32467D01*
X30391Y32460D01*
X30394Y32454D01*
X30397Y32450D01*
X30399Y32447D01*
X30400Y32446D01*
X30408Y32440D01*
X30416Y32435D01*
X30424Y32432D01*
X30431Y32429D01*
X30438Y32428D01*
X30443Y32427D01*
X30445Y32427D01*
X30447D01*
X30456Y32427D01*
X30464Y32429D01*
X30471Y32432D01*
X30476Y32434D01*
X30481Y32437D01*
X30485Y32439D01*
X30487Y32441D01*
X30488Y32441D01*
X30493Y32448D01*
X30498Y32455D01*
X30502Y32463D01*
X30505Y32472D01*
X30508Y32479D01*
X30509Y32482D01*
X30509Y32485D01*
X30509Y32487D01*
X30510Y32489D01*
X30510Y32490D01*
Y32490D01*
X30550Y32485D01*
X30549Y32478D01*
X30548Y32471D01*
X30543Y32458D01*
X30538Y32447D01*
X30536Y32442D01*
X30533Y32437D01*
X30530Y32433D01*
X30527Y32430D01*
X30525Y32427D01*
X30523Y32424D01*
X30521Y32422D01*
X30520Y32421D01*
X30519Y32420D01*
X30518Y32420D01*
X30513Y32415D01*
X30507Y32411D01*
X30502Y32408D01*
X30495Y32405D01*
X30484Y32400D01*
X30473Y32398D01*
X30468Y32397D01*
X30463Y32396D01*
X30459Y32395D01*
X30455Y32395D01*
X30452Y32394D01*
X30448D01*
X30439Y32395D01*
X30431Y32396D01*
X30423Y32397D01*
X30416Y32399D01*
X30409Y32401D01*
X30403Y32404D01*
X30397Y32407D01*
X30392Y32409D01*
X30386Y32412D01*
X30382Y32414D01*
X30379Y32417D01*
X30376Y32419D01*
X30373Y32421D01*
X30372Y32422D01*
X30371Y32423D01*
X30370Y32424D01*
X30365Y32429D01*
X30360Y32435D01*
X30356Y32441D01*
X30352Y32448D01*
X30349Y32453D01*
X30346Y32459D01*
X30343Y32470D01*
X30342Y32475D01*
X30341Y32480D01*
X30340Y32484D01*
X30339Y32488D01*
X30339Y32491D01*
Y32493D01*
Y32495D01*
Y32495D01*
X30339Y32506D01*
X30341Y32517D01*
X30344Y32525D01*
X30347Y32533D01*
X30350Y32539D01*
X30352Y32544D01*
X30354Y32546D01*
X30355Y32547D01*
X30361Y32554D01*
X30368Y32560D01*
X30376Y32565D01*
X30383Y32569D01*
X30390Y32571D01*
X30395Y32573D01*
X30397Y32574D01*
X30398Y32574D01*
X30399Y32575D01*
X30399D01*
X30392Y32579D01*
X30385Y32583D01*
X30379Y32588D01*
X30375Y32592D01*
X30371Y32596D01*
X30368Y32599D01*
X30367Y32601D01*
X30366Y32602D01*
X30363Y32608D01*
X30360Y32615D01*
X30358Y32621D01*
X30356Y32627D01*
X30355Y32633D01*
X30355Y32636D01*
Y32639D01*
Y32640D01*
X30355Y32648D01*
X30357Y32656D01*
X30358Y32663D01*
X30361Y32669D01*
X30363Y32674D01*
X30365Y32678D01*
X30366Y32681D01*
X30367Y32681D01*
X30372Y32688D01*
X30377Y32695D01*
X30383Y32700D01*
X30388Y32704D01*
X30393Y32708D01*
X30397Y32710D01*
X30400Y32712D01*
X30400Y32712D01*
X30401D01*
X30409Y32716D01*
X30418Y32719D01*
X30426Y32721D01*
X30433Y32722D01*
X30440Y32723D01*
X30445Y32724D01*
X30456D01*
X30463Y32723D01*
D02*
G37*
G36*
X30075Y33299D02*
X30095Y33297D01*
X30112Y33294D01*
X30120Y33292D01*
X30127Y33290D01*
X30134Y33288D01*
X30140Y33286D01*
X30146Y33284D01*
X30150Y33283D01*
X30153Y33282D01*
X30156Y33281D01*
X30158Y33280D01*
X30158D01*
X30175Y33272D01*
X30190Y33262D01*
X30203Y33252D01*
X30208Y33247D01*
X30213Y33243D01*
X30217Y33238D01*
X30221Y33234D01*
X30224Y33230D01*
X30227Y33227D01*
X30229Y33225D01*
X30231Y33222D01*
X30231Y33221D01*
X30232Y33221D01*
X30236Y33213D01*
X30240Y33205D01*
X30246Y33188D01*
X30251Y33172D01*
X30253Y33156D01*
X30254Y33148D01*
X30256Y33141D01*
X30256Y33135D01*
Y33130D01*
X30257Y33126D01*
Y33122D01*
Y33120D01*
Y33120D01*
X30256Y33109D01*
X30255Y33098D01*
X30254Y33088D01*
X30252Y33079D01*
X30249Y33070D01*
X30246Y33061D01*
X30243Y33054D01*
X30240Y33046D01*
X30237Y33040D01*
X30234Y33034D01*
X30232Y33030D01*
X30229Y33025D01*
X30227Y33022D01*
X30226Y33020D01*
X30224Y33019D01*
X30224Y33018D01*
X30217Y33010D01*
X30211Y33004D01*
X30203Y32998D01*
X30195Y32991D01*
X30180Y32981D01*
X30164Y32974D01*
X30157Y32970D01*
X30150Y32968D01*
X30144Y32965D01*
X30139Y32964D01*
X30135Y32962D01*
X30131Y32961D01*
X30129Y32960D01*
X30128D01*
X30116Y33011D01*
X30125Y33014D01*
X30133Y33016D01*
X30141Y33019D01*
X30148Y33022D01*
X30155Y33025D01*
X30160Y33029D01*
X30166Y33032D01*
X30171Y33036D01*
X30175Y33039D01*
X30178Y33042D01*
X30182Y33045D01*
X30185Y33047D01*
X30186Y33049D01*
X30188Y33051D01*
X30188Y33051D01*
X30189Y33052D01*
X30193Y33057D01*
X30197Y33064D01*
X30203Y33076D01*
X30207Y33087D01*
X30210Y33099D01*
X30212Y33109D01*
X30213Y33113D01*
Y33117D01*
X30213Y33120D01*
Y33122D01*
Y33124D01*
Y33124D01*
X30213Y33137D01*
X30211Y33149D01*
X30208Y33160D01*
X30204Y33170D01*
X30201Y33178D01*
X30199Y33181D01*
X30198Y33184D01*
X30197Y33186D01*
X30196Y33188D01*
X30196Y33189D01*
Y33190D01*
X30188Y33200D01*
X30180Y33209D01*
X30170Y33217D01*
X30161Y33223D01*
X30153Y33228D01*
X30147Y33231D01*
X30144Y33232D01*
X30142Y33233D01*
X30141Y33234D01*
X30141D01*
X30126Y33238D01*
X30112Y33242D01*
X30097Y33245D01*
X30084Y33246D01*
X30078Y33247D01*
X30072Y33247D01*
X30067D01*
X30064Y33248D01*
X30055D01*
X30041Y33247D01*
X30027Y33246D01*
X30015Y33244D01*
X30004Y33242D01*
X29995Y33240D01*
X29991Y33239D01*
X29987Y33238D01*
X29985Y33237D01*
X29983Y33237D01*
X29982Y33236D01*
X29981D01*
X29969Y33231D01*
X29957Y33225D01*
X29948Y33218D01*
X29939Y33211D01*
X29933Y33205D01*
X29928Y33200D01*
X29925Y33196D01*
X29924Y33195D01*
Y33195D01*
X29917Y33183D01*
X29911Y33170D01*
X29908Y33158D01*
X29905Y33146D01*
X29904Y33136D01*
X29903Y33131D01*
Y33127D01*
X29903Y33125D01*
Y33122D01*
Y33121D01*
Y33120D01*
X29903Y33106D01*
X29905Y33094D01*
X29909Y33083D01*
X29912Y33074D01*
X29916Y33066D01*
X29919Y33061D01*
X29921Y33057D01*
X29922Y33056D01*
X29930Y33047D01*
X29940Y33039D01*
X29950Y33032D01*
X29960Y33027D01*
X29969Y33022D01*
X29973Y33021D01*
X29976Y33020D01*
X29979Y33019D01*
X29981Y33018D01*
X29982Y33017D01*
X29983D01*
X29971Y32967D01*
X29961Y32970D01*
X29953Y32974D01*
X29944Y32978D01*
X29936Y32982D01*
X29929Y32986D01*
X29922Y32991D01*
X29915Y32996D01*
X29910Y33000D01*
X29905Y33005D01*
X29901Y33009D01*
X29897Y33013D01*
X29894Y33015D01*
X29891Y33018D01*
X29890Y33020D01*
X29889Y33021D01*
X29889Y33022D01*
X29884Y33030D01*
X29879Y33037D01*
X29875Y33045D01*
X29871Y33054D01*
X29866Y33070D01*
X29863Y33085D01*
X29862Y33092D01*
X29861Y33099D01*
X29860Y33105D01*
X29860Y33110D01*
X29859Y33114D01*
Y33116D01*
Y33119D01*
Y33119D01*
X29860Y33137D01*
X29863Y33155D01*
X29866Y33171D01*
X29869Y33178D01*
X29871Y33185D01*
X29873Y33191D01*
X29875Y33196D01*
X29877Y33201D01*
X29879Y33205D01*
X29880Y33208D01*
X29881Y33210D01*
X29882Y33212D01*
X29883Y33212D01*
X29892Y33227D01*
X29903Y33240D01*
X29914Y33251D01*
X29925Y33261D01*
X29935Y33268D01*
X29940Y33271D01*
X29944Y33273D01*
X29946Y33275D01*
X29949Y33276D01*
X29950Y33277D01*
X29951Y33277D01*
X29968Y33285D01*
X29986Y33291D01*
X30004Y33294D01*
X30020Y33297D01*
X30027Y33298D01*
X30034Y33299D01*
X30040Y33299D01*
X30045D01*
X30049Y33300D01*
X30055D01*
X30075Y33299D01*
D02*
G37*
G36*
X31339Y32400D02*
X31298D01*
Y32653D01*
X31129Y32400D01*
X31085D01*
Y32722D01*
X31126D01*
Y32469D01*
X31295Y32722D01*
X31339D01*
Y32400D01*
D02*
G37*
G36*
X30277D02*
X30232D01*
Y32445D01*
X30277D01*
Y32400D01*
D02*
G37*
%LPC*%
G36*
X30970Y32684D02*
X30896D01*
X30890Y32684D01*
X30884D01*
X30878Y32683D01*
X30869Y32682D01*
X30861Y32681D01*
X30855Y32680D01*
X30851Y32678D01*
X30849Y32678D01*
X30848Y32677D01*
X30839Y32673D01*
X30831Y32668D01*
X30824Y32662D01*
X30818Y32656D01*
X30814Y32650D01*
X30810Y32646D01*
X30809Y32644D01*
X30808Y32642D01*
X30807Y32641D01*
Y32641D01*
X30804Y32636D01*
X30802Y32630D01*
X30797Y32618D01*
X30795Y32605D01*
X30792Y32592D01*
X30792Y32586D01*
X30791Y32581D01*
X30791Y32576D01*
Y32572D01*
X30790Y32568D01*
Y32566D01*
Y32564D01*
Y32564D01*
X30791Y32551D01*
X30792Y32538D01*
X30793Y32528D01*
X30795Y32518D01*
X30795Y32515D01*
X30796Y32511D01*
X30797Y32508D01*
X30798Y32506D01*
X30798Y32504D01*
X30799Y32503D01*
X30799Y32502D01*
Y32501D01*
X30802Y32492D01*
X30806Y32484D01*
X30810Y32477D01*
X30814Y32471D01*
X30817Y32467D01*
X30820Y32463D01*
X30822Y32462D01*
X30823Y32461D01*
X30827Y32457D01*
X30832Y32454D01*
X30837Y32451D01*
X30841Y32448D01*
X30845Y32446D01*
X30849Y32445D01*
X30851Y32444D01*
X30852Y32444D01*
X30859Y32442D01*
X30867Y32441D01*
X30876Y32440D01*
X30884Y32439D01*
X30891Y32439D01*
X30894Y32438D01*
X30970D01*
Y32684D01*
D02*
G37*
G36*
X30050Y31939D02*
X30046Y31928D01*
X30043Y31917D01*
X30039Y31906D01*
X30035Y31895D01*
X30033Y31890D01*
X30032Y31886D01*
X30031Y31882D01*
X30029Y31878D01*
X30028Y31876D01*
X30027Y31873D01*
X30027Y31872D01*
Y31871D01*
X29993Y31783D01*
X30102D01*
X30067Y31877D01*
X30063Y31889D01*
X30060Y31900D01*
X30057Y31910D01*
X30054Y31919D01*
X30053Y31927D01*
X30052Y31931D01*
X30051Y31934D01*
X30050Y31936D01*
Y31938D01*
X30050Y31938D01*
Y31939D01*
D02*
G37*
G36*
X30442Y31934D02*
X30368D01*
X30361Y31934D01*
X30355D01*
X30350Y31933D01*
X30341Y31932D01*
X30333Y31931D01*
X30327Y31930D01*
X30323Y31928D01*
X30320Y31928D01*
X30320Y31927D01*
X30311Y31923D01*
X30303Y31918D01*
X30296Y31912D01*
X30290Y31906D01*
X30286Y31900D01*
X30282Y31896D01*
X30281Y31894D01*
X30280Y31892D01*
X30279Y31891D01*
Y31891D01*
X30276Y31886D01*
X30273Y31880D01*
X30269Y31868D01*
X30266Y31855D01*
X30264Y31842D01*
X30264Y31836D01*
X30263Y31831D01*
X30263Y31826D01*
Y31822D01*
X30262Y31818D01*
Y31816D01*
Y31814D01*
Y31814D01*
X30263Y31801D01*
X30264Y31788D01*
X30265Y31778D01*
X30266Y31768D01*
X30267Y31765D01*
X30268Y31761D01*
X30269Y31758D01*
X30270Y31756D01*
X30270Y31754D01*
X30271Y31753D01*
X30271Y31752D01*
Y31751D01*
X30274Y31742D01*
X30278Y31734D01*
X30282Y31727D01*
X30286Y31721D01*
X30289Y31717D01*
X30292Y31713D01*
X30294Y31712D01*
X30294Y31711D01*
X30299Y31707D01*
X30304Y31704D01*
X30308Y31701D01*
X30313Y31698D01*
X30317Y31696D01*
X30320Y31695D01*
X30323Y31694D01*
X30324Y31694D01*
X30331Y31692D01*
X30339Y31691D01*
X30348Y31690D01*
X30355Y31689D01*
X30362Y31689D01*
X30366Y31688D01*
X30442D01*
Y31934D01*
D02*
G37*
%LPD*%
M02*
