G04 Layer_Physical_Order=2*
G04 Layer_Color=16711680*
%FSLAX24Y24*%
%MOIN*%
G70*
G01*
G75*
%ADD11C,0.0100*%
%ADD12C,0.0394*%
%ADD13R,0.0354X0.0276*%
%ADD14R,0.0315X0.0354*%
D11*
X48000Y24150D02*
X48105Y24045D01*
X48000Y23600D02*
X48300Y23300D01*
X48874D01*
Y22800D02*
X48874Y22800D01*
X49476D02*
X50250D01*
X50300Y22850D01*
X49150Y23855D02*
X49624D01*
X50205D01*
X50300Y23950D01*
X48295Y24445D02*
X48676D01*
X48000Y24150D02*
X48295Y24445D01*
X48000Y24700D02*
X48033Y24733D01*
X48915D01*
X49150Y24498D01*
Y24445D02*
Y24498D01*
X49624Y24445D02*
X50195D01*
X50300Y24550D01*
X48874Y22800D02*
Y22850D01*
Y23300D01*
X49426Y22850D02*
X49476Y22800D01*
X50200Y23300D02*
X50300Y23400D01*
X48676Y23855D02*
X49150D01*
X49426Y23300D02*
X50200D01*
D12*
X50300Y23950D02*
D03*
Y22850D02*
D03*
Y23400D02*
D03*
X48000Y23600D02*
D03*
Y24150D02*
D03*
Y24700D02*
D03*
X50300Y24550D02*
D03*
D13*
X49624Y24445D02*
D03*
Y23855D02*
D03*
X49150Y24445D02*
D03*
Y23855D02*
D03*
X48676Y24445D02*
D03*
Y23855D02*
D03*
D14*
X49426Y22850D02*
D03*
X48874D02*
D03*
X48874Y23350D02*
D03*
X49426D02*
D03*
M02*
