G04 Layer_Color=65535*
%FSLAX24Y24*%
%MOIN*%
G70*
G01*
G75*
%ADD15C,0.0039*%
%ADD16C,0.0079*%
G36*
X48800Y22128D02*
X48807Y22127D01*
X48814Y22126D01*
X48823Y22124D01*
X48831Y22121D01*
X48840Y22117D01*
X48840D01*
X48841Y22116D01*
X48843Y22115D01*
X48848Y22112D01*
X48852Y22109D01*
X48858Y22104D01*
X48864Y22099D01*
X48869Y22093D01*
X48874Y22086D01*
X48875Y22085D01*
X48876Y22082D01*
X48878Y22078D01*
X48880Y22073D01*
X48883Y22067D01*
X48885Y22060D01*
X48886Y22052D01*
X48887Y22044D01*
Y22043D01*
Y22040D01*
X48886Y22036D01*
X48885Y22031D01*
X48884Y22025D01*
X48881Y22018D01*
X48878Y22011D01*
X48875Y22005D01*
X48874Y22004D01*
X48873Y22002D01*
X48870Y21999D01*
X48866Y21995D01*
X48861Y21991D01*
X48856Y21986D01*
X48849Y21982D01*
X48841Y21977D01*
X48842D01*
X48843Y21977D01*
X48844Y21976D01*
X48846Y21976D01*
X48851Y21974D01*
X48858Y21971D01*
X48865Y21967D01*
X48873Y21963D01*
X48880Y21957D01*
X48887Y21949D01*
X48887Y21949D01*
X48889Y21946D01*
X48892Y21941D01*
X48895Y21935D01*
X48897Y21927D01*
X48900Y21918D01*
X48902Y21908D01*
X48903Y21896D01*
Y21896D01*
Y21895D01*
Y21892D01*
X48902Y21889D01*
X48902Y21886D01*
X48901Y21881D01*
X48900Y21877D01*
X48899Y21871D01*
X48895Y21860D01*
X48892Y21854D01*
X48889Y21848D01*
X48886Y21842D01*
X48881Y21836D01*
X48877Y21830D01*
X48871Y21824D01*
X48870Y21824D01*
X48869Y21823D01*
X48868Y21821D01*
X48865Y21819D01*
X48862Y21817D01*
X48859Y21815D01*
X48854Y21812D01*
X48849Y21809D01*
X48844Y21807D01*
X48838Y21804D01*
X48832Y21801D01*
X48825Y21799D01*
X48817Y21797D01*
X48809Y21796D01*
X48801Y21795D01*
X48792Y21794D01*
X48788D01*
X48785Y21795D01*
X48781Y21795D01*
X48777Y21796D01*
X48772Y21797D01*
X48767Y21798D01*
X48755Y21800D01*
X48744Y21805D01*
X48738Y21808D01*
X48732Y21811D01*
X48726Y21816D01*
X48720Y21820D01*
X48720Y21820D01*
X48719Y21821D01*
X48718Y21823D01*
X48716Y21825D01*
X48714Y21827D01*
X48712Y21830D01*
X48709Y21834D01*
X48706Y21838D01*
X48703Y21843D01*
X48700Y21847D01*
X48695Y21859D01*
X48691Y21872D01*
X48689Y21879D01*
X48688Y21887D01*
X48729Y21892D01*
Y21891D01*
X48729Y21890D01*
X48729Y21888D01*
X48730Y21886D01*
X48730Y21883D01*
X48731Y21880D01*
X48734Y21873D01*
X48737Y21864D01*
X48741Y21856D01*
X48746Y21849D01*
X48752Y21842D01*
X48753Y21842D01*
X48755Y21840D01*
X48758Y21837D01*
X48763Y21835D01*
X48769Y21832D01*
X48776Y21830D01*
X48784Y21828D01*
X48792Y21827D01*
X48795D01*
X48797Y21828D01*
X48802Y21828D01*
X48809Y21830D01*
X48817Y21832D01*
X48825Y21835D01*
X48833Y21840D01*
X48840Y21847D01*
X48841Y21848D01*
X48843Y21851D01*
X48846Y21855D01*
X48850Y21861D01*
X48854Y21868D01*
X48857Y21876D01*
X48859Y21885D01*
X48860Y21896D01*
Y21896D01*
Y21897D01*
Y21898D01*
X48860Y21900D01*
X48859Y21905D01*
X48858Y21912D01*
X48856Y21919D01*
X48852Y21927D01*
X48848Y21934D01*
X48842Y21941D01*
X48841Y21942D01*
X48838Y21944D01*
X48834Y21947D01*
X48829Y21950D01*
X48823Y21954D01*
X48815Y21957D01*
X48806Y21958D01*
X48796Y21959D01*
X48791D01*
X48788Y21959D01*
X48784Y21958D01*
X48779Y21958D01*
X48773Y21957D01*
X48767Y21955D01*
X48772Y21991D01*
X48774D01*
X48776Y21990D01*
X48782D01*
X48788Y21991D01*
X48794Y21992D01*
X48801Y21993D01*
X48809Y21996D01*
X48817Y21999D01*
X48825Y22003D01*
X48825D01*
X48825Y22004D01*
X48828Y22006D01*
X48831Y22009D01*
X48835Y22013D01*
X48839Y22019D01*
X48842Y22027D01*
X48844Y22035D01*
X48845Y22039D01*
Y22045D01*
Y22045D01*
Y22045D01*
Y22048D01*
X48844Y22052D01*
X48843Y22057D01*
X48842Y22063D01*
X48839Y22069D01*
X48835Y22075D01*
X48830Y22081D01*
X48830Y22081D01*
X48827Y22083D01*
X48824Y22086D01*
X48820Y22089D01*
X48814Y22091D01*
X48808Y22093D01*
X48800Y22095D01*
X48791Y22096D01*
X48788D01*
X48783Y22095D01*
X48778Y22094D01*
X48772Y22092D01*
X48765Y22089D01*
X48759Y22086D01*
X48753Y22081D01*
X48752Y22080D01*
X48750Y22078D01*
X48747Y22075D01*
X48744Y22070D01*
X48741Y22064D01*
X48738Y22056D01*
X48735Y22047D01*
X48733Y22037D01*
X48693Y22044D01*
Y22045D01*
X48693Y22046D01*
X48694Y22048D01*
X48694Y22051D01*
X48695Y22054D01*
X48696Y22058D01*
X48699Y22067D01*
X48704Y22077D01*
X48710Y22088D01*
X48717Y22098D01*
X48726Y22106D01*
X48726Y22107D01*
X48727Y22107D01*
X48729Y22108D01*
X48730Y22110D01*
X48733Y22112D01*
X48736Y22114D01*
X48739Y22115D01*
X48744Y22118D01*
X48753Y22122D01*
X48764Y22125D01*
X48777Y22128D01*
X48783Y22129D01*
X48795D01*
X48800Y22128D01*
D02*
G37*
G36*
X49011Y21800D02*
X48965D01*
Y21846D01*
X49011D01*
Y21800D01*
D02*
G37*
G36*
X49182Y22128D02*
X49188Y22127D01*
X49196Y22126D01*
X49204Y22124D01*
X49213Y22121D01*
X49221Y22117D01*
X49222D01*
X49222Y22116D01*
X49225Y22115D01*
X49229Y22112D01*
X49234Y22109D01*
X49240Y22104D01*
X49246Y22099D01*
X49251Y22093D01*
X49256Y22086D01*
X49256Y22085D01*
X49258Y22082D01*
X49260Y22078D01*
X49262Y22073D01*
X49264Y22067D01*
X49266Y22060D01*
X49268Y22052D01*
X49268Y22044D01*
Y22043D01*
Y22040D01*
X49268Y22036D01*
X49267Y22031D01*
X49265Y22025D01*
X49263Y22018D01*
X49260Y22011D01*
X49256Y22005D01*
X49256Y22004D01*
X49255Y22002D01*
X49252Y21999D01*
X49248Y21995D01*
X49243Y21991D01*
X49237Y21986D01*
X49231Y21982D01*
X49223Y21977D01*
X49223D01*
X49224Y21977D01*
X49226Y21976D01*
X49228Y21976D01*
X49233Y21974D01*
X49239Y21971D01*
X49247Y21967D01*
X49255Y21963D01*
X49262Y21957D01*
X49268Y21949D01*
X49269Y21949D01*
X49271Y21946D01*
X49273Y21941D01*
X49276Y21935D01*
X49279Y21927D01*
X49282Y21918D01*
X49284Y21908D01*
X49284Y21896D01*
Y21896D01*
Y21895D01*
Y21892D01*
X49284Y21889D01*
X49283Y21886D01*
X49282Y21881D01*
X49281Y21877D01*
X49281Y21871D01*
X49277Y21860D01*
X49274Y21854D01*
X49271Y21848D01*
X49267Y21842D01*
X49263Y21836D01*
X49258Y21830D01*
X49253Y21824D01*
X49252Y21824D01*
X49251Y21823D01*
X49249Y21821D01*
X49247Y21819D01*
X49244Y21817D01*
X49240Y21815D01*
X49236Y21812D01*
X49231Y21809D01*
X49226Y21807D01*
X49220Y21804D01*
X49213Y21801D01*
X49206Y21799D01*
X49199Y21797D01*
X49191Y21796D01*
X49183Y21795D01*
X49174Y21794D01*
X49169D01*
X49167Y21795D01*
X49163Y21795D01*
X49159Y21796D01*
X49154Y21797D01*
X49149Y21798D01*
X49137Y21800D01*
X49125Y21805D01*
X49119Y21808D01*
X49114Y21811D01*
X49108Y21816D01*
X49102Y21820D01*
X49102Y21820D01*
X49101Y21821D01*
X49099Y21823D01*
X49098Y21825D01*
X49096Y21827D01*
X49093Y21830D01*
X49090Y21834D01*
X49088Y21838D01*
X49085Y21843D01*
X49082Y21847D01*
X49077Y21859D01*
X49072Y21872D01*
X49071Y21879D01*
X49070Y21887D01*
X49110Y21892D01*
Y21891D01*
X49111Y21890D01*
X49111Y21888D01*
X49112Y21886D01*
X49112Y21883D01*
X49113Y21880D01*
X49115Y21873D01*
X49119Y21864D01*
X49123Y21856D01*
X49128Y21849D01*
X49133Y21842D01*
X49134Y21842D01*
X49136Y21840D01*
X49140Y21837D01*
X49145Y21835D01*
X49150Y21832D01*
X49158Y21830D01*
X49166Y21828D01*
X49174Y21827D01*
X49177D01*
X49179Y21828D01*
X49184Y21828D01*
X49191Y21830D01*
X49198Y21832D01*
X49206Y21835D01*
X49214Y21840D01*
X49222Y21847D01*
X49223Y21848D01*
X49225Y21851D01*
X49228Y21855D01*
X49232Y21861D01*
X49236Y21868D01*
X49238Y21876D01*
X49241Y21885D01*
X49242Y21896D01*
Y21896D01*
Y21897D01*
Y21898D01*
X49241Y21900D01*
X49241Y21905D01*
X49239Y21912D01*
X49237Y21919D01*
X49234Y21927D01*
X49229Y21934D01*
X49223Y21941D01*
X49222Y21942D01*
X49220Y21944D01*
X49216Y21947D01*
X49211Y21950D01*
X49204Y21954D01*
X49196Y21957D01*
X49187Y21958D01*
X49177Y21959D01*
X49173D01*
X49170Y21959D01*
X49166Y21958D01*
X49161Y21958D01*
X49155Y21957D01*
X49149Y21955D01*
X49154Y21991D01*
X49156D01*
X49158Y21990D01*
X49164D01*
X49169Y21991D01*
X49176Y21992D01*
X49183Y21993D01*
X49191Y21996D01*
X49198Y21999D01*
X49206Y22003D01*
X49207D01*
X49207Y22004D01*
X49210Y22006D01*
X49213Y22009D01*
X49217Y22013D01*
X49220Y22019D01*
X49224Y22027D01*
X49226Y22035D01*
X49227Y22039D01*
Y22045D01*
Y22045D01*
Y22045D01*
Y22048D01*
X49226Y22052D01*
X49225Y22057D01*
X49223Y22063D01*
X49221Y22069D01*
X49217Y22075D01*
X49212Y22081D01*
X49211Y22081D01*
X49209Y22083D01*
X49206Y22086D01*
X49202Y22089D01*
X49196Y22091D01*
X49189Y22093D01*
X49182Y22095D01*
X49173Y22096D01*
X49169D01*
X49165Y22095D01*
X49159Y22094D01*
X49153Y22092D01*
X49147Y22089D01*
X49141Y22086D01*
X49134Y22081D01*
X49134Y22080D01*
X49132Y22078D01*
X49129Y22075D01*
X49126Y22070D01*
X49123Y22064D01*
X49119Y22056D01*
X49116Y22047D01*
X49115Y22037D01*
X49074Y22044D01*
Y22045D01*
X49075Y22046D01*
X49075Y22048D01*
X49076Y22051D01*
X49077Y22054D01*
X49078Y22058D01*
X49081Y22067D01*
X49086Y22077D01*
X49091Y22088D01*
X49098Y22098D01*
X49107Y22106D01*
X49108Y22107D01*
X49109Y22107D01*
X49110Y22108D01*
X49112Y22110D01*
X49115Y22112D01*
X49118Y22114D01*
X49121Y22115D01*
X49125Y22118D01*
X49135Y22122D01*
X49146Y22125D01*
X49159Y22128D01*
X49165Y22129D01*
X49177D01*
X49182Y22128D01*
D02*
G37*
G36*
X48718Y22150D02*
X48675D01*
Y22477D01*
X48718D01*
Y22150D01*
D02*
G37*
G36*
X48421D02*
X48380D01*
Y22406D01*
X48380Y22405D01*
X48378Y22404D01*
X48375Y22401D01*
X48370Y22397D01*
X48365Y22393D01*
X48358Y22388D01*
X48351Y22383D01*
X48342Y22378D01*
X48342D01*
X48341Y22378D01*
X48338Y22376D01*
X48334Y22373D01*
X48328Y22370D01*
X48321Y22367D01*
X48314Y22364D01*
X48307Y22360D01*
X48300Y22358D01*
Y22396D01*
X48300D01*
X48301Y22397D01*
X48303Y22398D01*
X48306Y22399D01*
X48309Y22401D01*
X48312Y22403D01*
X48320Y22407D01*
X48329Y22413D01*
X48339Y22419D01*
X48349Y22427D01*
X48359Y22435D01*
X48359Y22435D01*
X48360Y22436D01*
X48361Y22437D01*
X48363Y22439D01*
X48367Y22443D01*
X48373Y22449D01*
X48379Y22456D01*
X48385Y22463D01*
X48390Y22471D01*
X48395Y22479D01*
X48421D01*
Y22150D01*
D02*
G37*
G36*
X48423Y22128D02*
X48426Y22128D01*
X48431Y22127D01*
X48436Y22126D01*
X48441Y22125D01*
X48454Y22122D01*
X48466Y22117D01*
X48472Y22115D01*
X48478Y22111D01*
X48484Y22107D01*
X48489Y22102D01*
X48490Y22102D01*
X48491Y22101D01*
X48492Y22099D01*
X48493Y22098D01*
X48496Y22095D01*
X48498Y22092D01*
X48501Y22089D01*
X48503Y22084D01*
X48508Y22075D01*
X48513Y22064D01*
X48515Y22058D01*
X48516Y22052D01*
X48517Y22045D01*
X48517Y22038D01*
Y22037D01*
Y22035D01*
X48517Y22031D01*
X48516Y22026D01*
X48515Y22020D01*
X48513Y22013D01*
X48511Y22006D01*
X48509Y21999D01*
X48508Y21998D01*
X48507Y21996D01*
X48505Y21992D01*
X48502Y21987D01*
X48499Y21981D01*
X48494Y21974D01*
X48488Y21967D01*
X48482Y21959D01*
X48481Y21958D01*
X48478Y21955D01*
X48476Y21953D01*
X48474Y21950D01*
X48471Y21948D01*
X48467Y21944D01*
X48463Y21940D01*
X48458Y21936D01*
X48454Y21931D01*
X48448Y21926D01*
X48442Y21921D01*
X48435Y21914D01*
X48428Y21908D01*
X48420Y21902D01*
X48420Y21901D01*
X48419Y21900D01*
X48417Y21899D01*
X48414Y21897D01*
X48412Y21894D01*
X48408Y21891D01*
X48401Y21885D01*
X48393Y21878D01*
X48385Y21871D01*
X48379Y21865D01*
X48376Y21862D01*
X48373Y21860D01*
X48373Y21860D01*
X48371Y21858D01*
X48370Y21856D01*
X48367Y21853D01*
X48365Y21850D01*
X48362Y21847D01*
X48356Y21839D01*
X48518D01*
Y21800D01*
X48300D01*
Y21800D01*
Y21802D01*
Y21805D01*
X48301Y21809D01*
X48301Y21813D01*
X48302Y21818D01*
X48303Y21823D01*
X48305Y21828D01*
Y21828D01*
X48306Y21829D01*
X48307Y21832D01*
X48309Y21836D01*
X48311Y21842D01*
X48315Y21848D01*
X48320Y21856D01*
X48325Y21863D01*
X48332Y21871D01*
Y21872D01*
X48333Y21872D01*
X48335Y21875D01*
X48339Y21879D01*
X48345Y21886D01*
X48352Y21893D01*
X48361Y21901D01*
X48372Y21911D01*
X48384Y21921D01*
X48385Y21921D01*
X48387Y21923D01*
X48389Y21925D01*
X48393Y21928D01*
X48397Y21931D01*
X48402Y21936D01*
X48407Y21940D01*
X48414Y21946D01*
X48425Y21957D01*
X48437Y21968D01*
X48443Y21974D01*
X48448Y21980D01*
X48453Y21985D01*
X48457Y21990D01*
Y21991D01*
X48458Y21991D01*
X48458Y21993D01*
X48459Y21994D01*
X48463Y22000D01*
X48467Y22006D01*
X48470Y22013D01*
X48473Y22021D01*
X48475Y22030D01*
X48476Y22039D01*
Y22039D01*
Y22040D01*
X48475Y22043D01*
X48475Y22047D01*
X48474Y22053D01*
X48472Y22059D01*
X48468Y22066D01*
X48464Y22072D01*
X48458Y22079D01*
X48458Y22080D01*
X48455Y22082D01*
X48452Y22084D01*
X48447Y22088D01*
X48440Y22090D01*
X48432Y22093D01*
X48423Y22095D01*
X48414Y22096D01*
X48411D01*
X48409Y22095D01*
X48403Y22095D01*
X48396Y22093D01*
X48389Y22091D01*
X48381Y22088D01*
X48374Y22084D01*
X48367Y22078D01*
X48366Y22077D01*
X48364Y22075D01*
X48361Y22071D01*
X48358Y22065D01*
X48355Y22059D01*
X48352Y22050D01*
X48350Y22041D01*
X48349Y22030D01*
X48308Y22034D01*
Y22035D01*
X48309Y22036D01*
Y22038D01*
X48309Y22042D01*
X48310Y22045D01*
X48311Y22050D01*
X48312Y22055D01*
X48314Y22060D01*
X48317Y22071D01*
X48323Y22083D01*
X48326Y22089D01*
X48331Y22094D01*
X48335Y22099D01*
X48340Y22104D01*
X48340Y22105D01*
X48341Y22105D01*
X48343Y22106D01*
X48345Y22108D01*
X48348Y22110D01*
X48351Y22112D01*
X48355Y22114D01*
X48360Y22116D01*
X48365Y22119D01*
X48370Y22121D01*
X48377Y22123D01*
X48383Y22125D01*
X48390Y22126D01*
X48398Y22128D01*
X48406Y22128D01*
X48414Y22129D01*
X48419D01*
X48423Y22128D01*
D02*
G37*
G36*
X50047Y22085D02*
X49916D01*
X49898Y21996D01*
X49899Y21997D01*
X49900Y21997D01*
X49901Y21998D01*
X49904Y22000D01*
X49906Y22001D01*
X49910Y22003D01*
X49917Y22007D01*
X49927Y22010D01*
X49937Y22014D01*
X49949Y22016D01*
X49954Y22017D01*
X49965D01*
X49967Y22017D01*
X49971Y22016D01*
X49976Y22016D01*
X49980Y22015D01*
X49985Y22013D01*
X49997Y22010D01*
X50003Y22008D01*
X50009Y22004D01*
X50015Y22001D01*
X50021Y21997D01*
X50027Y21993D01*
X50033Y21987D01*
X50033Y21987D01*
X50034Y21986D01*
X50036Y21984D01*
X50037Y21982D01*
X50040Y21979D01*
X50042Y21975D01*
X50045Y21971D01*
X50048Y21967D01*
X50050Y21961D01*
X50053Y21956D01*
X50055Y21949D01*
X50058Y21942D01*
X50060Y21935D01*
X50061Y21927D01*
X50062Y21919D01*
X50063Y21911D01*
Y21910D01*
Y21909D01*
Y21906D01*
X50062Y21903D01*
X50062Y21899D01*
X50061Y21895D01*
X50060Y21890D01*
X50059Y21885D01*
X50056Y21872D01*
X50052Y21860D01*
X50049Y21853D01*
X50045Y21847D01*
X50041Y21840D01*
X50037Y21834D01*
X50036Y21834D01*
X50035Y21832D01*
X50033Y21830D01*
X50031Y21828D01*
X50028Y21825D01*
X50024Y21821D01*
X50019Y21818D01*
X50014Y21814D01*
X50008Y21810D01*
X50002Y21807D01*
X49994Y21804D01*
X49987Y21800D01*
X49979Y21798D01*
X49970Y21796D01*
X49960Y21795D01*
X49950Y21794D01*
X49946D01*
X49943Y21795D01*
X49939Y21795D01*
X49935Y21796D01*
X49930Y21796D01*
X49924Y21798D01*
X49913Y21800D01*
X49901Y21805D01*
X49895Y21808D01*
X49888Y21811D01*
X49883Y21815D01*
X49877Y21819D01*
X49877Y21819D01*
X49876Y21820D01*
X49875Y21822D01*
X49873Y21824D01*
X49871Y21826D01*
X49868Y21829D01*
X49865Y21833D01*
X49863Y21837D01*
X49860Y21841D01*
X49857Y21846D01*
X49852Y21858D01*
X49848Y21871D01*
X49846Y21878D01*
X49845Y21886D01*
X49888Y21889D01*
Y21888D01*
Y21888D01*
X49888Y21886D01*
X49888Y21884D01*
X49890Y21879D01*
X49892Y21871D01*
X49895Y21864D01*
X49898Y21856D01*
X49903Y21849D01*
X49909Y21843D01*
X49910Y21842D01*
X49912Y21840D01*
X49915Y21838D01*
X49921Y21835D01*
X49926Y21832D01*
X49933Y21830D01*
X49941Y21828D01*
X49950Y21827D01*
X49953D01*
X49955Y21828D01*
X49961Y21828D01*
X49967Y21830D01*
X49976Y21833D01*
X49984Y21836D01*
X49992Y21842D01*
X49996Y21845D01*
X50000Y21849D01*
X50000Y21850D01*
X50001Y21850D01*
X50002Y21852D01*
X50003Y21853D01*
X50006Y21858D01*
X50010Y21865D01*
X50013Y21873D01*
X50017Y21883D01*
X50019Y21895D01*
X50020Y21901D01*
Y21907D01*
Y21908D01*
Y21909D01*
Y21911D01*
X50019Y21913D01*
Y21916D01*
X50019Y21919D01*
X50018Y21927D01*
X50015Y21936D01*
X50012Y21945D01*
X50007Y21953D01*
X50001Y21961D01*
Y21962D01*
X50000Y21962D01*
X49997Y21965D01*
X49993Y21968D01*
X49987Y21972D01*
X49980Y21975D01*
X49971Y21978D01*
X49961Y21981D01*
X49956Y21982D01*
X49947D01*
X49943Y21981D01*
X49938Y21981D01*
X49932Y21979D01*
X49927Y21978D01*
X49921Y21975D01*
X49914Y21973D01*
X49914Y21972D01*
X49912Y21971D01*
X49909Y21969D01*
X49906Y21967D01*
X49902Y21963D01*
X49898Y21959D01*
X49894Y21955D01*
X49890Y21949D01*
X49853Y21955D01*
X49884Y22123D01*
X50047D01*
Y22085D01*
D02*
G37*
G36*
X49633Y21915D02*
X49677D01*
Y21879D01*
X49633D01*
Y21800D01*
X49592D01*
Y21879D01*
X49450D01*
Y21915D01*
X49600Y22127D01*
X49633D01*
Y21915D01*
D02*
G37*
G36*
X49964Y22478D02*
X49968Y22478D01*
X49973Y22477D01*
X49977Y22477D01*
X49982Y22475D01*
X49993Y22473D01*
X50005Y22468D01*
X50010Y22465D01*
X50016Y22462D01*
X50021Y22458D01*
X50026Y22454D01*
X50027Y22453D01*
X50027Y22453D01*
X50029Y22451D01*
X50031Y22449D01*
X50033Y22447D01*
X50035Y22444D01*
X50040Y22437D01*
X50044Y22428D01*
X50049Y22417D01*
X50052Y22405D01*
X50052Y22399D01*
X50053Y22393D01*
Y22392D01*
Y22392D01*
Y22389D01*
X50052Y22385D01*
X50052Y22379D01*
X50050Y22373D01*
X50048Y22366D01*
X50045Y22360D01*
X50041Y22353D01*
X50040Y22352D01*
X50038Y22350D01*
X50035Y22347D01*
X50032Y22343D01*
X50026Y22339D01*
X50020Y22335D01*
X50013Y22331D01*
X50005Y22327D01*
X50005D01*
X50006Y22326D01*
X50008Y22326D01*
X50009Y22325D01*
X50015Y22323D01*
X50022Y22319D01*
X50029Y22315D01*
X50036Y22309D01*
X50043Y22303D01*
X50050Y22295D01*
Y22295D01*
X50051Y22294D01*
X50052Y22291D01*
X50055Y22287D01*
X50058Y22281D01*
X50061Y22273D01*
X50064Y22264D01*
X50066Y22254D01*
X50066Y22243D01*
Y22243D01*
Y22241D01*
Y22239D01*
X50066Y22236D01*
X50065Y22233D01*
X50065Y22229D01*
X50064Y22224D01*
X50062Y22219D01*
X50059Y22208D01*
X50057Y22202D01*
X50053Y22196D01*
X50050Y22190D01*
X50046Y22184D01*
X50042Y22178D01*
X50036Y22173D01*
X50036Y22172D01*
X50035Y22171D01*
X50034Y22170D01*
X50031Y22168D01*
X50028Y22166D01*
X50025Y22164D01*
X50020Y22161D01*
X50016Y22159D01*
X50010Y22156D01*
X50004Y22153D01*
X49998Y22151D01*
X49991Y22149D01*
X49983Y22147D01*
X49975Y22146D01*
X49967Y22145D01*
X49958Y22144D01*
X49954D01*
X49950Y22145D01*
X49946Y22145D01*
X49941Y22146D01*
X49936Y22147D01*
X49930Y22148D01*
X49918Y22151D01*
X49911Y22154D01*
X49905Y22156D01*
X49898Y22159D01*
X49892Y22163D01*
X49886Y22167D01*
X49880Y22173D01*
X49879Y22173D01*
X49878Y22174D01*
X49877Y22176D01*
X49875Y22178D01*
X49873Y22181D01*
X49870Y22184D01*
X49868Y22188D01*
X49865Y22193D01*
X49862Y22197D01*
X49860Y22203D01*
X49855Y22215D01*
X49853Y22222D01*
X49852Y22229D01*
X49851Y22237D01*
X49850Y22244D01*
Y22245D01*
Y22246D01*
Y22247D01*
X49851Y22249D01*
Y22252D01*
X49851Y22255D01*
X49852Y22263D01*
X49854Y22272D01*
X49857Y22280D01*
X49861Y22289D01*
X49867Y22298D01*
Y22298D01*
X49868Y22299D01*
X49869Y22301D01*
X49873Y22305D01*
X49878Y22309D01*
X49885Y22314D01*
X49893Y22319D01*
X49902Y22324D01*
X49913Y22327D01*
X49912D01*
X49912Y22327D01*
X49911Y22328D01*
X49909Y22329D01*
X49904Y22331D01*
X49899Y22334D01*
X49893Y22337D01*
X49886Y22342D01*
X49881Y22347D01*
X49876Y22353D01*
X49875Y22354D01*
X49874Y22356D01*
X49872Y22360D01*
X49870Y22364D01*
X49868Y22370D01*
X49866Y22378D01*
X49864Y22386D01*
X49864Y22394D01*
Y22395D01*
Y22395D01*
Y22397D01*
X49864Y22400D01*
X49865Y22403D01*
X49865Y22407D01*
X49867Y22415D01*
X49870Y22424D01*
X49875Y22434D01*
X49877Y22439D01*
X49881Y22445D01*
X49885Y22449D01*
X49889Y22454D01*
X49890Y22455D01*
X49891Y22455D01*
X49892Y22457D01*
X49894Y22458D01*
X49896Y22460D01*
X49900Y22462D01*
X49903Y22464D01*
X49907Y22466D01*
X49912Y22469D01*
X49917Y22471D01*
X49923Y22473D01*
X49929Y22475D01*
X49942Y22478D01*
X49950Y22478D01*
X49957Y22479D01*
X49962D01*
X49964Y22478D01*
D02*
G37*
G36*
X49792Y22150D02*
X49746D01*
Y22196D01*
X49792D01*
Y22150D01*
D02*
G37*
G36*
X49621D02*
X49580D01*
Y22406D01*
X49580Y22405D01*
X49578Y22404D01*
X49575Y22401D01*
X49570Y22397D01*
X49565Y22393D01*
X49558Y22388D01*
X49551Y22383D01*
X49542Y22378D01*
X49542D01*
X49541Y22378D01*
X49538Y22376D01*
X49534Y22373D01*
X49528Y22370D01*
X49521Y22367D01*
X49514Y22364D01*
X49507Y22360D01*
X49500Y22358D01*
Y22396D01*
X49500D01*
X49501Y22397D01*
X49503Y22398D01*
X49506Y22399D01*
X49509Y22401D01*
X49512Y22403D01*
X49520Y22407D01*
X49529Y22413D01*
X49539Y22419D01*
X49549Y22427D01*
X49559Y22435D01*
X49559Y22435D01*
X49560Y22436D01*
X49561Y22437D01*
X49563Y22439D01*
X49567Y22443D01*
X49573Y22449D01*
X49579Y22456D01*
X49585Y22463D01*
X49590Y22471D01*
X49595Y22479D01*
X49621D01*
Y22150D01*
D02*
G37*
G36*
X48819Y25733D02*
X48823Y25732D01*
X48829Y25732D01*
X48834Y25731D01*
X48840Y25730D01*
X48853Y25727D01*
X48867Y25723D01*
X48874Y25720D01*
X48881Y25716D01*
X48887Y25712D01*
X48894Y25708D01*
X48894Y25707D01*
X48895Y25707D01*
X48897Y25706D01*
X48900Y25703D01*
X48902Y25701D01*
X48905Y25698D01*
X48909Y25694D01*
X48912Y25690D01*
X48916Y25685D01*
X48920Y25680D01*
X48924Y25674D01*
X48928Y25668D01*
X48931Y25661D01*
X48935Y25654D01*
X48938Y25646D01*
X48941Y25637D01*
X48898Y25628D01*
Y25628D01*
X48898Y25629D01*
X48897Y25631D01*
X48896Y25633D01*
X48895Y25636D01*
X48893Y25640D01*
X48890Y25647D01*
X48885Y25656D01*
X48879Y25664D01*
X48872Y25672D01*
X48865Y25680D01*
X48864Y25680D01*
X48861Y25682D01*
X48856Y25685D01*
X48850Y25688D01*
X48842Y25691D01*
X48833Y25694D01*
X48822Y25696D01*
X48810Y25696D01*
X48806D01*
X48804Y25696D01*
X48801D01*
X48797Y25695D01*
X48788Y25694D01*
X48778Y25692D01*
X48768Y25689D01*
X48757Y25684D01*
X48747Y25678D01*
X48746D01*
X48746Y25677D01*
X48743Y25674D01*
X48738Y25671D01*
X48733Y25665D01*
X48727Y25658D01*
X48721Y25650D01*
X48716Y25640D01*
X48711Y25629D01*
Y25628D01*
X48711Y25628D01*
X48710Y25626D01*
X48710Y25624D01*
X48709Y25621D01*
X48708Y25618D01*
X48707Y25610D01*
X48705Y25600D01*
X48703Y25590D01*
X48702Y25578D01*
X48701Y25566D01*
Y25566D01*
Y25564D01*
Y25562D01*
Y25559D01*
X48702Y25556D01*
Y25551D01*
X48702Y25547D01*
X48703Y25541D01*
X48704Y25530D01*
X48707Y25518D01*
X48709Y25505D01*
X48713Y25493D01*
Y25493D01*
X48714Y25492D01*
X48715Y25490D01*
X48716Y25488D01*
X48718Y25482D01*
X48723Y25476D01*
X48728Y25468D01*
X48735Y25460D01*
X48742Y25453D01*
X48751Y25446D01*
X48752D01*
X48753Y25446D01*
X48754Y25445D01*
X48756Y25444D01*
X48758Y25443D01*
X48761Y25442D01*
X48768Y25439D01*
X48776Y25436D01*
X48786Y25434D01*
X48796Y25432D01*
X48807Y25431D01*
X48810D01*
X48813Y25432D01*
X48816D01*
X48820Y25432D01*
X48828Y25434D01*
X48838Y25436D01*
X48848Y25440D01*
X48858Y25445D01*
X48864Y25448D01*
X48868Y25452D01*
X48869Y25452D01*
X48869Y25453D01*
X48871Y25454D01*
X48873Y25456D01*
X48875Y25458D01*
X48877Y25461D01*
X48880Y25464D01*
X48882Y25468D01*
X48885Y25472D01*
X48888Y25477D01*
X48891Y25481D01*
X48894Y25487D01*
X48896Y25493D01*
X48899Y25500D01*
X48901Y25507D01*
X48903Y25514D01*
X48946Y25504D01*
Y25503D01*
X48946Y25501D01*
X48945Y25498D01*
X48944Y25495D01*
X48942Y25490D01*
X48940Y25485D01*
X48938Y25479D01*
X48935Y25473D01*
X48928Y25460D01*
X48920Y25447D01*
X48915Y25440D01*
X48910Y25434D01*
X48904Y25428D01*
X48897Y25422D01*
X48897Y25422D01*
X48896Y25421D01*
X48893Y25420D01*
X48891Y25418D01*
X48887Y25416D01*
X48884Y25413D01*
X48878Y25411D01*
X48873Y25409D01*
X48867Y25406D01*
X48860Y25403D01*
X48853Y25401D01*
X48846Y25399D01*
X48838Y25397D01*
X48829Y25396D01*
X48820Y25395D01*
X48811Y25394D01*
X48805D01*
X48802Y25395D01*
X48797D01*
X48792Y25395D01*
X48787Y25396D01*
X48780Y25397D01*
X48766Y25400D01*
X48752Y25403D01*
X48738Y25409D01*
X48731Y25412D01*
X48725Y25416D01*
X48724Y25416D01*
X48723Y25417D01*
X48721Y25418D01*
X48719Y25420D01*
X48717Y25422D01*
X48713Y25425D01*
X48709Y25428D01*
X48706Y25432D01*
X48702Y25436D01*
X48698Y25440D01*
X48689Y25451D01*
X48681Y25464D01*
X48674Y25478D01*
Y25479D01*
X48673Y25480D01*
X48673Y25482D01*
X48671Y25485D01*
X48670Y25489D01*
X48669Y25494D01*
X48667Y25499D01*
X48665Y25505D01*
X48664Y25511D01*
X48662Y25518D01*
X48660Y25532D01*
X48658Y25549D01*
X48657Y25566D01*
Y25566D01*
Y25568D01*
Y25571D01*
X48657Y25575D01*
Y25579D01*
X48658Y25584D01*
X48658Y25590D01*
X48659Y25596D01*
X48662Y25610D01*
X48665Y25625D01*
X48670Y25640D01*
X48676Y25655D01*
X48677Y25655D01*
X48677Y25657D01*
X48678Y25659D01*
X48680Y25661D01*
X48682Y25664D01*
X48684Y25668D01*
X48691Y25677D01*
X48699Y25686D01*
X48708Y25696D01*
X48719Y25705D01*
X48732Y25713D01*
X48732Y25714D01*
X48734Y25714D01*
X48735Y25715D01*
X48738Y25716D01*
X48742Y25718D01*
X48745Y25719D01*
X48750Y25721D01*
X48755Y25723D01*
X48761Y25725D01*
X48767Y25727D01*
X48780Y25730D01*
X48796Y25732D01*
X48811Y25733D01*
X48816D01*
X48819Y25733D01*
D02*
G37*
G36*
X48487D02*
X48490D01*
X48499Y25732D01*
X48509Y25730D01*
X48519Y25728D01*
X48531Y25725D01*
X48541Y25721D01*
X48542D01*
X48543Y25721D01*
X48544Y25720D01*
X48546Y25719D01*
X48551Y25716D01*
X48557Y25712D01*
X48564Y25707D01*
X48571Y25701D01*
X48578Y25694D01*
X48584Y25686D01*
Y25686D01*
X48584Y25685D01*
X48585Y25684D01*
X48586Y25682D01*
X48588Y25678D01*
X48591Y25672D01*
X48595Y25664D01*
X48597Y25655D01*
X48599Y25645D01*
X48600Y25635D01*
X48559Y25632D01*
Y25632D01*
Y25633D01*
X48558Y25635D01*
X48558Y25637D01*
X48556Y25642D01*
X48554Y25649D01*
X48552Y25657D01*
X48547Y25664D01*
X48542Y25672D01*
X48535Y25678D01*
X48534Y25679D01*
X48532Y25680D01*
X48527Y25683D01*
X48521Y25686D01*
X48513Y25689D01*
X48504Y25692D01*
X48492Y25694D01*
X48479Y25694D01*
X48472D01*
X48469Y25694D01*
X48465Y25693D01*
X48457Y25692D01*
X48447Y25690D01*
X48438Y25688D01*
X48429Y25684D01*
X48425Y25682D01*
X48421Y25680D01*
X48420Y25679D01*
X48419Y25677D01*
X48416Y25674D01*
X48413Y25670D01*
X48410Y25665D01*
X48407Y25659D01*
X48405Y25653D01*
X48404Y25645D01*
Y25644D01*
Y25642D01*
X48404Y25639D01*
X48405Y25635D01*
X48407Y25630D01*
X48409Y25626D01*
X48412Y25621D01*
X48416Y25616D01*
X48417Y25616D01*
X48419Y25614D01*
X48421Y25613D01*
X48423Y25612D01*
X48426Y25610D01*
X48429Y25609D01*
X48433Y25607D01*
X48438Y25605D01*
X48443Y25603D01*
X48449Y25601D01*
X48456Y25599D01*
X48464Y25597D01*
X48472Y25595D01*
X48481Y25593D01*
X48482D01*
X48484Y25592D01*
X48487Y25592D01*
X48490Y25591D01*
X48494Y25590D01*
X48499Y25588D01*
X48505Y25587D01*
X48510Y25585D01*
X48523Y25582D01*
X48534Y25579D01*
X48540Y25577D01*
X48545Y25575D01*
X48550Y25574D01*
X48554Y25572D01*
X48554D01*
X48555Y25571D01*
X48557Y25570D01*
X48559Y25569D01*
X48564Y25566D01*
X48570Y25563D01*
X48577Y25558D01*
X48584Y25552D01*
X48591Y25545D01*
X48596Y25538D01*
X48597Y25537D01*
X48599Y25535D01*
X48601Y25531D01*
X48604Y25525D01*
X48606Y25518D01*
X48608Y25510D01*
X48610Y25501D01*
X48610Y25492D01*
Y25491D01*
Y25491D01*
Y25489D01*
Y25488D01*
X48609Y25482D01*
X48608Y25476D01*
X48606Y25468D01*
X48604Y25460D01*
X48600Y25452D01*
X48595Y25443D01*
Y25442D01*
X48595Y25442D01*
X48592Y25439D01*
X48589Y25435D01*
X48584Y25430D01*
X48578Y25424D01*
X48570Y25418D01*
X48562Y25412D01*
X48552Y25407D01*
X48552D01*
X48551Y25407D01*
X48549Y25406D01*
X48547Y25405D01*
X48544Y25404D01*
X48541Y25403D01*
X48534Y25401D01*
X48525Y25399D01*
X48514Y25396D01*
X48502Y25395D01*
X48489Y25394D01*
X48481D01*
X48478Y25395D01*
X48473D01*
X48469Y25395D01*
X48463Y25396D01*
X48451Y25398D01*
X48439Y25400D01*
X48427Y25403D01*
X48415Y25407D01*
X48414D01*
X48413Y25408D01*
X48412Y25409D01*
X48410Y25409D01*
X48404Y25412D01*
X48398Y25417D01*
X48390Y25422D01*
X48382Y25429D01*
X48375Y25437D01*
X48368Y25446D01*
Y25446D01*
X48367Y25447D01*
X48366Y25449D01*
X48365Y25451D01*
X48364Y25453D01*
X48362Y25456D01*
X48359Y25463D01*
X48356Y25472D01*
X48353Y25482D01*
X48351Y25493D01*
X48350Y25505D01*
X48391Y25509D01*
Y25508D01*
Y25508D01*
X48391Y25506D01*
Y25505D01*
X48392Y25500D01*
X48394Y25494D01*
X48395Y25488D01*
X48397Y25481D01*
X48401Y25474D01*
X48404Y25468D01*
X48404Y25468D01*
X48406Y25466D01*
X48408Y25462D01*
X48412Y25459D01*
X48417Y25455D01*
X48422Y25451D01*
X48429Y25446D01*
X48437Y25443D01*
X48437D01*
X48438Y25442D01*
X48439Y25442D01*
X48440Y25441D01*
X48445Y25440D01*
X48451Y25438D01*
X48459Y25436D01*
X48467Y25435D01*
X48477Y25434D01*
X48487Y25433D01*
X48491D01*
X48496Y25434D01*
X48502Y25434D01*
X48508Y25435D01*
X48516Y25436D01*
X48524Y25438D01*
X48531Y25440D01*
X48532Y25441D01*
X48534Y25442D01*
X48537Y25444D01*
X48542Y25445D01*
X48546Y25449D01*
X48551Y25452D01*
X48555Y25456D01*
X48559Y25461D01*
X48560Y25461D01*
X48560Y25463D01*
X48562Y25465D01*
X48564Y25469D01*
X48566Y25473D01*
X48567Y25478D01*
X48568Y25483D01*
X48569Y25488D01*
Y25489D01*
Y25491D01*
X48568Y25494D01*
X48568Y25498D01*
X48566Y25502D01*
X48565Y25506D01*
X48562Y25511D01*
X48559Y25515D01*
X48559Y25516D01*
X48557Y25517D01*
X48555Y25519D01*
X48552Y25522D01*
X48548Y25525D01*
X48543Y25528D01*
X48537Y25531D01*
X48530Y25534D01*
X48529Y25535D01*
X48527Y25535D01*
X48523Y25537D01*
X48521Y25537D01*
X48517Y25538D01*
X48514Y25540D01*
X48510Y25540D01*
X48505Y25542D01*
X48499Y25543D01*
X48494Y25545D01*
X48487Y25547D01*
X48480Y25549D01*
X48472Y25550D01*
X48471D01*
X48470Y25551D01*
X48467Y25551D01*
X48464Y25552D01*
X48461Y25553D01*
X48456Y25554D01*
X48447Y25557D01*
X48437Y25560D01*
X48426Y25564D01*
X48416Y25567D01*
X48412Y25569D01*
X48408Y25571D01*
X48408D01*
X48407Y25571D01*
X48404Y25573D01*
X48400Y25575D01*
X48395Y25579D01*
X48390Y25584D01*
X48384Y25589D01*
X48378Y25595D01*
X48374Y25601D01*
X48373Y25602D01*
X48372Y25605D01*
X48370Y25609D01*
X48368Y25613D01*
X48366Y25619D01*
X48364Y25627D01*
X48363Y25634D01*
X48362Y25642D01*
Y25643D01*
Y25643D01*
Y25645D01*
Y25646D01*
X48363Y25651D01*
X48364Y25657D01*
X48366Y25664D01*
X48368Y25672D01*
X48371Y25680D01*
X48376Y25689D01*
Y25689D01*
X48376Y25689D01*
X48379Y25692D01*
X48382Y25696D01*
X48386Y25701D01*
X48392Y25706D01*
X48399Y25712D01*
X48408Y25717D01*
X48417Y25722D01*
X48418D01*
X48419Y25722D01*
X48420Y25723D01*
X48422Y25724D01*
X48424Y25724D01*
X48428Y25725D01*
X48435Y25727D01*
X48444Y25729D01*
X48454Y25731D01*
X48465Y25733D01*
X48477Y25733D01*
X48483D01*
X48487Y25733D01*
D02*
G37*
G36*
Y25383D02*
X48490D01*
X48499Y25382D01*
X48509Y25380D01*
X48519Y25378D01*
X48531Y25375D01*
X48541Y25371D01*
X48542D01*
X48543Y25371D01*
X48544Y25370D01*
X48546Y25369D01*
X48551Y25366D01*
X48557Y25362D01*
X48564Y25357D01*
X48571Y25351D01*
X48578Y25344D01*
X48584Y25336D01*
Y25336D01*
X48584Y25335D01*
X48585Y25334D01*
X48586Y25332D01*
X48588Y25328D01*
X48591Y25322D01*
X48595Y25314D01*
X48597Y25305D01*
X48599Y25295D01*
X48600Y25285D01*
X48559Y25282D01*
Y25282D01*
Y25283D01*
X48558Y25285D01*
X48558Y25287D01*
X48556Y25292D01*
X48554Y25299D01*
X48552Y25307D01*
X48547Y25314D01*
X48542Y25322D01*
X48535Y25328D01*
X48534Y25329D01*
X48532Y25330D01*
X48527Y25333D01*
X48521Y25336D01*
X48513Y25339D01*
X48504Y25342D01*
X48492Y25344D01*
X48479Y25344D01*
X48472D01*
X48469Y25344D01*
X48465Y25343D01*
X48457Y25342D01*
X48447Y25340D01*
X48438Y25338D01*
X48429Y25334D01*
X48425Y25332D01*
X48421Y25330D01*
X48420Y25329D01*
X48419Y25327D01*
X48416Y25324D01*
X48413Y25320D01*
X48410Y25315D01*
X48407Y25309D01*
X48405Y25303D01*
X48404Y25295D01*
Y25294D01*
Y25292D01*
X48404Y25289D01*
X48405Y25285D01*
X48407Y25280D01*
X48409Y25276D01*
X48412Y25271D01*
X48416Y25266D01*
X48417Y25266D01*
X48419Y25264D01*
X48421Y25263D01*
X48423Y25262D01*
X48426Y25260D01*
X48429Y25259D01*
X48433Y25257D01*
X48438Y25255D01*
X48443Y25253D01*
X48449Y25251D01*
X48456Y25249D01*
X48464Y25247D01*
X48472Y25245D01*
X48481Y25243D01*
X48482D01*
X48484Y25242D01*
X48487Y25242D01*
X48490Y25241D01*
X48494Y25240D01*
X48499Y25238D01*
X48505Y25237D01*
X48510Y25235D01*
X48523Y25232D01*
X48534Y25229D01*
X48540Y25227D01*
X48545Y25225D01*
X48550Y25224D01*
X48554Y25222D01*
X48554D01*
X48555Y25221D01*
X48557Y25220D01*
X48559Y25219D01*
X48564Y25217D01*
X48570Y25213D01*
X48577Y25208D01*
X48584Y25202D01*
X48591Y25195D01*
X48596Y25188D01*
X48597Y25187D01*
X48599Y25185D01*
X48601Y25181D01*
X48604Y25175D01*
X48606Y25168D01*
X48608Y25160D01*
X48610Y25151D01*
X48610Y25142D01*
Y25141D01*
Y25141D01*
Y25139D01*
Y25138D01*
X48609Y25132D01*
X48608Y25126D01*
X48606Y25118D01*
X48604Y25110D01*
X48600Y25102D01*
X48595Y25093D01*
Y25092D01*
X48595Y25092D01*
X48592Y25089D01*
X48589Y25085D01*
X48584Y25080D01*
X48578Y25074D01*
X48570Y25068D01*
X48562Y25062D01*
X48552Y25057D01*
X48552D01*
X48551Y25057D01*
X48549Y25056D01*
X48547Y25055D01*
X48544Y25054D01*
X48541Y25053D01*
X48534Y25051D01*
X48525Y25049D01*
X48514Y25046D01*
X48502Y25045D01*
X48489Y25044D01*
X48481D01*
X48478Y25045D01*
X48473D01*
X48469Y25045D01*
X48463Y25046D01*
X48451Y25048D01*
X48439Y25050D01*
X48427Y25053D01*
X48415Y25057D01*
X48414D01*
X48413Y25058D01*
X48412Y25059D01*
X48410Y25059D01*
X48404Y25062D01*
X48398Y25067D01*
X48390Y25072D01*
X48382Y25079D01*
X48375Y25087D01*
X48368Y25096D01*
Y25096D01*
X48367Y25097D01*
X48366Y25099D01*
X48365Y25101D01*
X48364Y25103D01*
X48362Y25106D01*
X48359Y25113D01*
X48356Y25122D01*
X48353Y25132D01*
X48351Y25143D01*
X48350Y25155D01*
X48391Y25159D01*
Y25158D01*
Y25158D01*
X48391Y25156D01*
Y25155D01*
X48392Y25150D01*
X48394Y25144D01*
X48395Y25138D01*
X48397Y25131D01*
X48401Y25124D01*
X48404Y25118D01*
X48404Y25118D01*
X48406Y25116D01*
X48408Y25112D01*
X48412Y25109D01*
X48417Y25105D01*
X48422Y25101D01*
X48429Y25096D01*
X48437Y25093D01*
X48437D01*
X48438Y25092D01*
X48439Y25092D01*
X48440Y25091D01*
X48445Y25090D01*
X48451Y25088D01*
X48459Y25086D01*
X48467Y25085D01*
X48477Y25084D01*
X48487Y25083D01*
X48491D01*
X48496Y25084D01*
X48502Y25084D01*
X48508Y25085D01*
X48516Y25086D01*
X48524Y25088D01*
X48531Y25090D01*
X48532Y25091D01*
X48534Y25092D01*
X48537Y25094D01*
X48542Y25095D01*
X48546Y25099D01*
X48551Y25102D01*
X48555Y25106D01*
X48559Y25111D01*
X48560Y25111D01*
X48560Y25113D01*
X48562Y25115D01*
X48564Y25119D01*
X48566Y25123D01*
X48567Y25128D01*
X48568Y25133D01*
X48569Y25138D01*
Y25139D01*
Y25141D01*
X48568Y25144D01*
X48568Y25148D01*
X48566Y25152D01*
X48565Y25156D01*
X48562Y25161D01*
X48559Y25165D01*
X48559Y25166D01*
X48557Y25167D01*
X48555Y25169D01*
X48552Y25172D01*
X48548Y25175D01*
X48543Y25178D01*
X48537Y25181D01*
X48530Y25184D01*
X48529Y25185D01*
X48527Y25185D01*
X48523Y25187D01*
X48521Y25187D01*
X48517Y25188D01*
X48514Y25190D01*
X48510Y25190D01*
X48505Y25192D01*
X48499Y25193D01*
X48494Y25195D01*
X48487Y25197D01*
X48480Y25199D01*
X48472Y25200D01*
X48471D01*
X48470Y25201D01*
X48467Y25201D01*
X48464Y25202D01*
X48461Y25203D01*
X48456Y25204D01*
X48447Y25207D01*
X48437Y25210D01*
X48426Y25214D01*
X48416Y25217D01*
X48412Y25219D01*
X48408Y25221D01*
X48408D01*
X48407Y25221D01*
X48404Y25223D01*
X48400Y25225D01*
X48395Y25229D01*
X48390Y25234D01*
X48384Y25239D01*
X48378Y25245D01*
X48374Y25252D01*
X48373Y25252D01*
X48372Y25255D01*
X48370Y25259D01*
X48368Y25263D01*
X48366Y25269D01*
X48364Y25277D01*
X48363Y25284D01*
X48362Y25292D01*
Y25293D01*
Y25293D01*
Y25295D01*
Y25296D01*
X48363Y25301D01*
X48364Y25307D01*
X48366Y25314D01*
X48368Y25322D01*
X48371Y25330D01*
X48376Y25339D01*
Y25339D01*
X48376Y25339D01*
X48379Y25342D01*
X48382Y25346D01*
X48386Y25351D01*
X48392Y25356D01*
X48399Y25362D01*
X48408Y25367D01*
X48417Y25372D01*
X48418D01*
X48419Y25372D01*
X48420Y25373D01*
X48422Y25374D01*
X48424Y25374D01*
X48428Y25375D01*
X48435Y25377D01*
X48444Y25379D01*
X48454Y25381D01*
X48465Y25383D01*
X48477Y25383D01*
X48483D01*
X48487Y25383D01*
D02*
G37*
G36*
X49042Y25439D02*
X49203D01*
Y25400D01*
X48998D01*
Y25727D01*
X49042D01*
Y25439D01*
D02*
G37*
G36*
X49270Y25050D02*
X49221D01*
X49182Y25149D01*
X49045D01*
X49010Y25050D01*
X48964D01*
X49089Y25377D01*
X49136D01*
X49270Y25050D01*
D02*
G37*
G36*
X49360Y22439D02*
X49252D01*
Y22150D01*
X49208D01*
Y22439D01*
X49100D01*
Y22477D01*
X49360D01*
Y22439D01*
D02*
G37*
G36*
X49052Y22150D02*
X49007D01*
X48836Y22407D01*
Y22150D01*
X48794D01*
Y22477D01*
X48839D01*
X49010Y22220D01*
Y22477D01*
X49052D01*
Y22150D01*
D02*
G37*
G36*
X48804Y25377D02*
X48814Y25376D01*
X48823Y25375D01*
X48832Y25374D01*
X48840Y25373D01*
X48841D01*
X48842Y25372D01*
X48843D01*
X48845Y25371D01*
X48850Y25370D01*
X48857Y25367D01*
X48865Y25364D01*
X48873Y25360D01*
X48881Y25355D01*
X48888Y25349D01*
X48889Y25348D01*
X48889Y25348D01*
X48891Y25347D01*
X48893Y25345D01*
X48897Y25340D01*
X48903Y25334D01*
X48909Y25326D01*
X48916Y25316D01*
X48922Y25305D01*
X48927Y25293D01*
Y25293D01*
X48928Y25292D01*
X48928Y25290D01*
X48929Y25287D01*
X48930Y25284D01*
X48931Y25280D01*
X48932Y25276D01*
X48934Y25270D01*
X48935Y25265D01*
X48936Y25259D01*
X48938Y25246D01*
X48940Y25231D01*
X48940Y25215D01*
Y25215D01*
Y25214D01*
Y25211D01*
Y25209D01*
X48940Y25206D01*
Y25202D01*
X48939Y25193D01*
X48938Y25182D01*
X48937Y25172D01*
X48934Y25160D01*
X48931Y25149D01*
Y25148D01*
X48931Y25147D01*
X48930Y25146D01*
X48930Y25144D01*
X48928Y25139D01*
X48925Y25132D01*
X48922Y25125D01*
X48919Y25117D01*
X48914Y25109D01*
X48909Y25102D01*
X48909Y25101D01*
X48907Y25098D01*
X48904Y25095D01*
X48900Y25091D01*
X48896Y25086D01*
X48891Y25081D01*
X48885Y25076D01*
X48879Y25072D01*
X48878Y25071D01*
X48876Y25070D01*
X48873Y25068D01*
X48868Y25066D01*
X48863Y25063D01*
X48856Y25060D01*
X48849Y25058D01*
X48840Y25055D01*
X48839D01*
X48838Y25055D01*
X48836Y25054D01*
X48832Y25054D01*
X48825Y25053D01*
X48817Y25052D01*
X48808Y25051D01*
X48798Y25050D01*
X48788Y25050D01*
X48670D01*
Y25377D01*
X48796D01*
X48804Y25377D01*
D02*
G37*
G36*
X48023Y23333D02*
X48026D01*
X48035Y23332D01*
X48045Y23330D01*
X48056Y23328D01*
X48067Y23325D01*
X48078Y23321D01*
X48078D01*
X48079Y23321D01*
X48081Y23320D01*
X48083Y23319D01*
X48088Y23316D01*
X48095Y23313D01*
X48102Y23308D01*
X48109Y23303D01*
X48116Y23297D01*
X48123Y23289D01*
X48124Y23288D01*
X48126Y23285D01*
X48129Y23281D01*
X48132Y23275D01*
X48136Y23267D01*
X48140Y23258D01*
X48145Y23247D01*
X48148Y23236D01*
X48109Y23225D01*
Y23226D01*
X48108Y23226D01*
X48108Y23228D01*
X48107Y23229D01*
X48106Y23234D01*
X48104Y23239D01*
X48101Y23246D01*
X48098Y23252D01*
X48095Y23259D01*
X48090Y23264D01*
X48090Y23265D01*
X48088Y23267D01*
X48086Y23269D01*
X48082Y23272D01*
X48078Y23276D01*
X48072Y23280D01*
X48066Y23284D01*
X48059Y23287D01*
X48058Y23288D01*
X48056Y23289D01*
X48052Y23290D01*
X48046Y23292D01*
X48039Y23293D01*
X48032Y23295D01*
X48023Y23296D01*
X48014Y23296D01*
X48009D01*
X48007Y23296D01*
X48004D01*
X47997Y23295D01*
X47989Y23294D01*
X47980Y23292D01*
X47971Y23290D01*
X47963Y23287D01*
X47962Y23286D01*
X47959Y23285D01*
X47955Y23283D01*
X47950Y23280D01*
X47945Y23277D01*
X47938Y23273D01*
X47933Y23268D01*
X47928Y23263D01*
X47927Y23263D01*
X47925Y23261D01*
X47923Y23257D01*
X47920Y23254D01*
X47917Y23249D01*
X47913Y23243D01*
X47910Y23237D01*
X47907Y23230D01*
Y23230D01*
X47906Y23229D01*
X47906Y23228D01*
X47905Y23225D01*
X47904Y23222D01*
X47903Y23219D01*
X47902Y23215D01*
X47901Y23211D01*
X47898Y23201D01*
X47896Y23190D01*
X47895Y23178D01*
X47894Y23165D01*
Y23164D01*
Y23163D01*
Y23160D01*
X47895Y23158D01*
Y23154D01*
X47895Y23149D01*
X47896Y23144D01*
X47896Y23139D01*
X47898Y23127D01*
X47901Y23115D01*
X47904Y23103D01*
X47909Y23091D01*
Y23090D01*
X47910Y23089D01*
X47911Y23088D01*
X47912Y23086D01*
X47915Y23081D01*
X47920Y23074D01*
X47927Y23067D01*
X47934Y23060D01*
X47943Y23053D01*
X47953Y23047D01*
X47954D01*
X47955Y23047D01*
X47956Y23046D01*
X47958Y23045D01*
X47961Y23044D01*
X47964Y23043D01*
X47972Y23040D01*
X47981Y23038D01*
X47991Y23035D01*
X48003Y23034D01*
X48015Y23033D01*
X48019D01*
X48022Y23034D01*
X48025D01*
X48032Y23035D01*
X48041Y23035D01*
X48050Y23037D01*
X48060Y23040D01*
X48069Y23044D01*
X48070D01*
X48071Y23044D01*
X48072Y23044D01*
X48074Y23045D01*
X48079Y23048D01*
X48085Y23051D01*
X48091Y23054D01*
X48098Y23058D01*
X48105Y23062D01*
X48111Y23067D01*
Y23128D01*
X48014D01*
Y23167D01*
X48153D01*
Y23045D01*
X48153Y23045D01*
X48152Y23044D01*
X48150Y23043D01*
X48148Y23041D01*
X48145Y23039D01*
X48141Y23037D01*
X48137Y23034D01*
X48133Y23031D01*
X48123Y23025D01*
X48112Y23018D01*
X48100Y23012D01*
X48087Y23007D01*
X48087D01*
X48086Y23007D01*
X48084Y23006D01*
X48081Y23005D01*
X48078Y23004D01*
X48074Y23003D01*
X48070Y23002D01*
X48066Y23001D01*
X48055Y22999D01*
X48043Y22996D01*
X48031Y22995D01*
X48017Y22994D01*
X48013D01*
X48009Y22995D01*
X48005D01*
X48000Y22995D01*
X47994Y22996D01*
X47988Y22997D01*
X47974Y23000D01*
X47960Y23003D01*
X47945Y23008D01*
X47937Y23011D01*
X47929Y23015D01*
X47929Y23015D01*
X47928Y23016D01*
X47926Y23017D01*
X47923Y23018D01*
X47920Y23021D01*
X47916Y23023D01*
X47907Y23030D01*
X47898Y23038D01*
X47888Y23049D01*
X47878Y23061D01*
X47870Y23074D01*
Y23075D01*
X47869Y23076D01*
X47868Y23078D01*
X47867Y23081D01*
X47865Y23085D01*
X47864Y23089D01*
X47862Y23094D01*
X47860Y23100D01*
X47858Y23106D01*
X47856Y23113D01*
X47855Y23120D01*
X47853Y23128D01*
X47851Y23144D01*
X47850Y23162D01*
Y23162D01*
Y23164D01*
Y23166D01*
X47850Y23170D01*
Y23174D01*
X47851Y23179D01*
X47852Y23184D01*
X47852Y23191D01*
X47854Y23197D01*
X47855Y23204D01*
X47859Y23219D01*
X47863Y23235D01*
X47870Y23251D01*
X47870Y23251D01*
X47871Y23253D01*
X47872Y23254D01*
X47874Y23257D01*
X47876Y23261D01*
X47878Y23265D01*
X47885Y23274D01*
X47893Y23284D01*
X47902Y23294D01*
X47914Y23304D01*
X47920Y23308D01*
X47927Y23313D01*
X47928Y23313D01*
X47929Y23314D01*
X47931Y23315D01*
X47934Y23316D01*
X47938Y23317D01*
X47942Y23319D01*
X47946Y23321D01*
X47952Y23323D01*
X47958Y23325D01*
X47965Y23326D01*
X47972Y23328D01*
X47980Y23330D01*
X47996Y23332D01*
X48005Y23333D01*
X48020D01*
X48023Y23333D01*
D02*
G37*
%LPC*%
G36*
X49592Y22062D02*
X49489Y21915D01*
X49592D01*
Y22062D01*
D02*
G37*
G36*
X49958Y22446D02*
X49955D01*
X49950Y22445D01*
X49945Y22444D01*
X49938Y22442D01*
X49932Y22439D01*
X49926Y22436D01*
X49920Y22430D01*
X49919Y22430D01*
X49917Y22428D01*
X49915Y22425D01*
X49912Y22421D01*
X49910Y22415D01*
X49907Y22409D01*
X49905Y22403D01*
X49905Y22395D01*
Y22395D01*
Y22394D01*
X49905Y22391D01*
X49906Y22387D01*
X49907Y22382D01*
X49909Y22376D01*
X49911Y22369D01*
X49915Y22363D01*
X49920Y22357D01*
X49920Y22357D01*
X49922Y22355D01*
X49926Y22352D01*
X49930Y22350D01*
X49936Y22347D01*
X49942Y22345D01*
X49950Y22343D01*
X49958Y22343D01*
X49959D01*
X49962Y22343D01*
X49966Y22343D01*
X49972Y22344D01*
X49978Y22346D01*
X49984Y22349D01*
X49991Y22352D01*
X49997Y22357D01*
X49997Y22358D01*
X49999Y22360D01*
X50001Y22363D01*
X50004Y22367D01*
X50007Y22372D01*
X50009Y22378D01*
X50011Y22386D01*
X50012Y22393D01*
Y22394D01*
Y22394D01*
Y22397D01*
X50011Y22401D01*
X50010Y22406D01*
X50008Y22412D01*
X50005Y22418D01*
X50001Y22424D01*
X49996Y22430D01*
X49996Y22431D01*
X49993Y22433D01*
X49990Y22435D01*
X49986Y22438D01*
X49980Y22441D01*
X49974Y22443D01*
X49966Y22445D01*
X49958Y22446D01*
D02*
G37*
G36*
X49957Y22310D02*
X49954D01*
X49952Y22309D01*
X49947Y22309D01*
X49940Y22308D01*
X49933Y22305D01*
X49925Y22302D01*
X49917Y22297D01*
X49910Y22291D01*
X49909Y22290D01*
X49907Y22288D01*
X49904Y22283D01*
X49901Y22278D01*
X49897Y22271D01*
X49894Y22263D01*
X49893Y22254D01*
X49892Y22244D01*
Y22243D01*
Y22241D01*
X49892Y22238D01*
X49893Y22234D01*
X49894Y22229D01*
X49895Y22223D01*
X49897Y22217D01*
X49899Y22211D01*
X49900Y22211D01*
X49901Y22208D01*
X49903Y22205D01*
X49905Y22202D01*
X49909Y22198D01*
X49913Y22194D01*
X49918Y22190D01*
X49923Y22186D01*
X49924Y22185D01*
X49926Y22185D01*
X49929Y22183D01*
X49934Y22182D01*
X49939Y22180D01*
X49945Y22179D01*
X49952Y22178D01*
X49958Y22177D01*
X49961D01*
X49963Y22178D01*
X49969Y22178D01*
X49975Y22180D01*
X49983Y22182D01*
X49991Y22185D01*
X49999Y22190D01*
X50006Y22196D01*
X50007Y22197D01*
X50009Y22199D01*
X50012Y22203D01*
X50016Y22209D01*
X50019Y22215D01*
X50022Y22223D01*
X50024Y22233D01*
X50025Y22243D01*
Y22243D01*
Y22244D01*
Y22246D01*
X50025Y22247D01*
X50024Y22253D01*
X50023Y22260D01*
X50020Y22267D01*
X50017Y22275D01*
X50012Y22283D01*
X50006Y22290D01*
X50005Y22291D01*
X50002Y22293D01*
X49998Y22297D01*
X49992Y22300D01*
X49985Y22304D01*
X49977Y22307D01*
X49967Y22309D01*
X49957Y22310D01*
D02*
G37*
G36*
X49112Y25343D02*
Y25343D01*
X49111Y25342D01*
Y25340D01*
X49110Y25338D01*
X49110Y25335D01*
X49109Y25331D01*
X49107Y25323D01*
X49104Y25314D01*
X49101Y25304D01*
X49098Y25292D01*
X49094Y25280D01*
X49058Y25185D01*
X49169D01*
X49135Y25275D01*
Y25275D01*
X49134Y25277D01*
X49133Y25279D01*
X49132Y25282D01*
X49131Y25285D01*
X49130Y25289D01*
X49128Y25294D01*
X49126Y25299D01*
X49122Y25310D01*
X49119Y25321D01*
X49115Y25332D01*
X49112Y25343D01*
D02*
G37*
G36*
X48789Y25339D02*
X48713D01*
Y25089D01*
X48791D01*
X48794Y25089D01*
X48801Y25090D01*
X48809Y25090D01*
X48818Y25091D01*
X48826Y25093D01*
X48833Y25094D01*
X48834Y25095D01*
X48837Y25095D01*
X48840Y25097D01*
X48844Y25099D01*
X48849Y25102D01*
X48854Y25104D01*
X48858Y25108D01*
X48863Y25111D01*
X48864Y25112D01*
X48866Y25114D01*
X48868Y25118D01*
X48872Y25122D01*
X48875Y25129D01*
X48880Y25136D01*
X48884Y25144D01*
X48887Y25153D01*
Y25153D01*
X48887Y25154D01*
X48888Y25155D01*
X48888Y25157D01*
X48889Y25160D01*
X48890Y25163D01*
X48891Y25166D01*
X48892Y25170D01*
X48893Y25180D01*
X48894Y25190D01*
X48895Y25203D01*
X48896Y25216D01*
Y25217D01*
Y25218D01*
Y25221D01*
X48895Y25225D01*
Y25229D01*
X48895Y25234D01*
X48894Y25239D01*
X48894Y25245D01*
X48892Y25258D01*
X48889Y25271D01*
X48884Y25283D01*
X48882Y25289D01*
X48879Y25295D01*
Y25295D01*
X48878Y25296D01*
X48877Y25297D01*
X48876Y25299D01*
X48872Y25304D01*
X48867Y25310D01*
X48861Y25316D01*
X48854Y25322D01*
X48846Y25327D01*
X48838Y25331D01*
X48837Y25332D01*
X48834Y25332D01*
X48830Y25334D01*
X48824Y25335D01*
X48816Y25336D01*
X48807Y25338D01*
X48801Y25338D01*
X48795D01*
X48789Y25339D01*
D02*
G37*
%LPD*%
D15*
X48220Y24950D02*
G03*
X48220Y24950I-20J0D01*
G01*
D16*
X48400Y24931D02*
X49819D01*
X48481Y22569D02*
X49819D01*
Y24931D02*
X49900D01*
Y22569D02*
Y24931D01*
X48400Y22569D02*
X49900D01*
X48400D02*
Y24931D01*
M02*
