M48
;Layer_Color=9474304
;FILE_FORMAT=4:4
METRIC
;TYPE=PLATED
T1F00S00C0.2000
T2F00S00C0.3000
%
T01
X00983000Y00792000
X00994000
Y00803000
X00983000
Y00814000
X00994000
Y00825000
X00983000
T02
X00899250Y00764500
X00978000Y00748500
X00999500Y00760500
X00991750Y00774000
X01023750Y00784000
X01035689Y00757482
X01036750Y00748500
X01056250Y00727250
X01065500Y00732750
X01015049Y00803549
X01015000Y00822750
X01022000Y00820000
X01031250Y00832500
Y00839000
X01031223Y00846682
X01046750Y00846000
X01048500Y00853307
X01048301Y00860042
X01048551Y00871042
X01046301Y00880543
X01044500Y00899500
X01036500Y00896250
X01021000Y00902000
X01013250Y00902000
X00999662
X00984690Y00884560
X00970500Y00861250
X00976750Y00844500
X00984250
X00991500Y00844250
X01000500Y00849250
X01007750Y00837500
X01011750Y00866000
X01020732Y00871460
X01019750Y00882000
X01050000Y00915250
X00956797Y00899794
X00938250Y00906750
X00902500Y00905150
X00891750Y00877250
X00891794Y00869542
X00891500Y00851250
X00927545Y00854292
X00931045Y00844291
X00936796Y00849041
X00944500Y00874467
X00917000Y00877000
X00907732Y00820439
X00926750Y00819250
X00937000Y00794250
M30
