G04 Layer_Color=32896*
%FSAX44Y44*%
%MOMM*%
G71*
G01*
G75*
%ADD14C,0.2500*%
%ADD15C,0.2000*%
%ADD54C,0.1500*%
%ADD55C,0.1000*%
G36*
X01049221Y00844000D02*
X01048136D01*
Y00847629D01*
X01046740D01*
X01046613Y00847621D01*
X01046509Y00847613D01*
X01046429D01*
X01046366Y00847605D01*
X01046318Y00847597D01*
X01046294Y00847589D01*
X01046286D01*
X01046190Y00847565D01*
X01046102Y00847525D01*
X01046022Y00847493D01*
X01045951Y00847453D01*
X01045887Y00847421D01*
X01045839Y00847390D01*
X01045807Y00847374D01*
X01045799Y00847366D01*
X01045704Y00847302D01*
X01045608Y00847214D01*
X01045520Y00847126D01*
X01045432Y00847039D01*
X01045360Y00846959D01*
X01045297Y00846887D01*
X01045265Y00846839D01*
X01045249Y00846831D01*
Y00846823D01*
X01045185Y00846744D01*
X01045129Y00846664D01*
X01044994Y00846480D01*
X01044866Y00846297D01*
X01044738Y00846114D01*
X01044635Y00845954D01*
X01044587Y00845882D01*
X01044547Y00845818D01*
X01044515Y00845771D01*
X01044491Y00845731D01*
X01044475Y00845707D01*
X01044467Y00845699D01*
X01043383Y00844000D01*
X01042035D01*
X01043446Y00846217D01*
X01043606Y00846449D01*
X01043765Y00846664D01*
X01043917Y00846847D01*
X01044053Y00847007D01*
X01044116Y00847079D01*
X01044172Y00847134D01*
X01044220Y00847190D01*
X01044260Y00847230D01*
X01044292Y00847262D01*
X01044316Y00847294D01*
X01044332Y00847302D01*
X01044340Y00847310D01*
X01044435Y00847382D01*
X01044539Y00847461D01*
X01044643Y00847525D01*
X01044746Y00847589D01*
X01044842Y00847637D01*
X01044922Y00847685D01*
X01044954Y00847693D01*
X01044978Y00847709D01*
X01044986Y00847717D01*
X01044994D01*
X01044778Y00847748D01*
X01044579Y00847796D01*
X01044396Y00847844D01*
X01044228Y00847900D01*
X01044069Y00847964D01*
X01043925Y00848028D01*
X01043797Y00848092D01*
X01043686Y00848155D01*
X01043582Y00848219D01*
X01043494Y00848275D01*
X01043422Y00848331D01*
X01043359Y00848379D01*
X01043311Y00848419D01*
X01043279Y00848450D01*
X01043263Y00848466D01*
X01043255Y00848474D01*
X01043151Y00848586D01*
X01043072Y00848706D01*
X01042992Y00848833D01*
X01042928Y00848953D01*
X01042872Y00849080D01*
X01042824Y00849200D01*
X01042792Y00849320D01*
X01042760Y00849431D01*
X01042737Y00849535D01*
X01042721Y00849639D01*
X01042705Y00849718D01*
X01042697Y00849798D01*
X01042689Y00849854D01*
Y00849902D01*
Y00849934D01*
Y00849942D01*
Y00850069D01*
X01042705Y00850189D01*
X01042745Y00850420D01*
X01042800Y00850628D01*
X01042856Y00850811D01*
X01042888Y00850891D01*
X01042920Y00850955D01*
X01042952Y00851019D01*
X01042976Y00851074D01*
X01043000Y00851114D01*
X01043016Y00851146D01*
X01043024Y00851162D01*
X01043032Y00851170D01*
X01043167Y00851361D01*
X01043319Y00851529D01*
X01043470Y00851665D01*
X01043614Y00851768D01*
X01043742Y00851848D01*
X01043797Y00851880D01*
X01043845Y00851912D01*
X01043885Y00851928D01*
X01043917Y00851944D01*
X01043933Y00851952D01*
X01043941D01*
X01044053Y00851992D01*
X01044172Y00852023D01*
X01044435Y00852079D01*
X01044715Y00852119D01*
X01044986Y00852151D01*
X01045105Y00852159D01*
X01045225Y00852167D01*
X01045329D01*
X01045416Y00852175D01*
X01049221D01*
Y00844000D01*
D02*
G37*
G36*
X01053504Y00852199D02*
X01053655Y00852183D01*
X01053807Y00852159D01*
X01053942Y00852135D01*
X01054078Y00852095D01*
X01054197Y00852055D01*
X01054309Y00852016D01*
X01054413Y00851968D01*
X01054501Y00851920D01*
X01054588Y00851880D01*
X01054652Y00851840D01*
X01054716Y00851800D01*
X01054756Y00851776D01*
X01054796Y00851752D01*
X01054812Y00851736D01*
X01054820Y00851728D01*
X01054923Y00851633D01*
X01055027Y00851529D01*
X01055210Y00851314D01*
X01055362Y00851090D01*
X01055482Y00850867D01*
X01055537Y00850763D01*
X01055577Y00850668D01*
X01055617Y00850588D01*
X01055649Y00850508D01*
X01055673Y00850452D01*
X01055689Y00850404D01*
X01055705Y00850372D01*
Y00850365D01*
X01055753Y00850189D01*
X01055801Y00850014D01*
X01055872Y00849623D01*
X01055928Y00849240D01*
X01055944Y00849048D01*
X01055960Y00848865D01*
X01055976Y00848690D01*
X01055984Y00848530D01*
X01055992Y00848394D01*
Y00848267D01*
X01056000Y00848171D01*
Y00848092D01*
Y00848044D01*
Y00848036D01*
Y00848028D01*
X01055992Y00847613D01*
X01055968Y00847222D01*
X01055928Y00846871D01*
X01055872Y00846536D01*
X01055817Y00846241D01*
X01055745Y00845970D01*
X01055673Y00845723D01*
X01055593Y00845507D01*
X01055521Y00845316D01*
X01055450Y00845148D01*
X01055378Y00845013D01*
X01055322Y00844901D01*
X01055266Y00844814D01*
X01055226Y00844750D01*
X01055202Y00844718D01*
X01055194Y00844702D01*
X01055067Y00844558D01*
X01054923Y00844423D01*
X01054772Y00844311D01*
X01054620Y00844215D01*
X01054469Y00844136D01*
X01054309Y00844072D01*
X01054158Y00844016D01*
X01054014Y00843968D01*
X01053878Y00843936D01*
X01053751Y00843912D01*
X01053631Y00843888D01*
X01053536Y00843880D01*
X01053448Y00843872D01*
X01053392Y00843864D01*
X01053336D01*
X01053169Y00843872D01*
X01053017Y00843888D01*
X01052866Y00843912D01*
X01052730Y00843936D01*
X01052594Y00843976D01*
X01052475Y00844016D01*
X01052363Y00844056D01*
X01052259Y00844104D01*
X01052172Y00844152D01*
X01052092Y00844191D01*
X01052020Y00844231D01*
X01051964Y00844271D01*
X01051917Y00844295D01*
X01051885Y00844319D01*
X01051869Y00844335D01*
X01051861Y00844343D01*
X01051757Y00844439D01*
X01051653Y00844542D01*
X01051470Y00844758D01*
X01051318Y00844989D01*
X01051199Y00845204D01*
X01051143Y00845308D01*
X01051103Y00845404D01*
X01051063Y00845483D01*
X01051031Y00845563D01*
X01051007Y00845619D01*
X01050991Y00845667D01*
X01050975Y00845699D01*
Y00845707D01*
X01050919Y00845882D01*
X01050872Y00846058D01*
X01050800Y00846441D01*
X01050744Y00846831D01*
X01050728Y00847015D01*
X01050712Y00847198D01*
X01050696Y00847374D01*
X01050688Y00847525D01*
X01050680Y00847669D01*
Y00847788D01*
X01050672Y00847892D01*
Y00847964D01*
Y00848012D01*
Y00848028D01*
Y00848251D01*
X01050680Y00848458D01*
X01050688Y00848658D01*
X01050704Y00848841D01*
X01050720Y00849017D01*
X01050736Y00849168D01*
X01050752Y00849320D01*
X01050768Y00849447D01*
X01050784Y00849567D01*
X01050800Y00849671D01*
X01050816Y00849758D01*
X01050832Y00849830D01*
X01050848Y00849886D01*
X01050856Y00849926D01*
X01050864Y00849950D01*
Y00849958D01*
X01050936Y00850213D01*
X01051023Y00850452D01*
X01051103Y00850660D01*
X01051143Y00850747D01*
X01051183Y00850835D01*
X01051223Y00850907D01*
X01051255Y00850979D01*
X01051286Y00851034D01*
X01051310Y00851082D01*
X01051334Y00851122D01*
X01051350Y00851146D01*
X01051366Y00851162D01*
Y00851170D01*
X01051494Y00851346D01*
X01051629Y00851505D01*
X01051765Y00851633D01*
X01051893Y00851744D01*
X01052012Y00851824D01*
X01052100Y00851888D01*
X01052140Y00851912D01*
X01052164Y00851920D01*
X01052180Y00851936D01*
X01052188D01*
X01052379Y00852023D01*
X01052579Y00852095D01*
X01052770Y00852143D01*
X01052945Y00852175D01*
X01053025Y00852183D01*
X01053105Y00852191D01*
X01053169Y00852199D01*
X01053224Y00852207D01*
X01053336D01*
X01053504Y00852199D01*
D02*
G37*
G36*
X01049813Y00863358D02*
X01047117D01*
Y00856149D01*
X01046032D01*
Y00863358D01*
X01043328D01*
Y00864324D01*
X01049813D01*
Y00863358D01*
D02*
G37*
G36*
X01053457Y00864347D02*
X01053609Y00864332D01*
X01053761Y00864307D01*
X01053896Y00864284D01*
X01054032Y00864244D01*
X01054151Y00864204D01*
X01054263Y00864164D01*
X01054367Y00864116D01*
X01054454Y00864068D01*
X01054542Y00864028D01*
X01054606Y00863988D01*
X01054670Y00863949D01*
X01054710Y00863925D01*
X01054750Y00863901D01*
X01054765Y00863885D01*
X01054773Y00863877D01*
X01054877Y00863781D01*
X01054981Y00863678D01*
X01055164Y00863462D01*
X01055316Y00863239D01*
X01055435Y00863016D01*
X01055491Y00862912D01*
X01055531Y00862816D01*
X01055571Y00862736D01*
X01055603Y00862657D01*
X01055627Y00862601D01*
X01055643Y00862553D01*
X01055659Y00862521D01*
Y00862513D01*
X01055707Y00862338D01*
X01055754Y00862162D01*
X01055826Y00861771D01*
X01055882Y00861388D01*
X01055898Y00861197D01*
X01055914Y00861014D01*
X01055930Y00860838D01*
X01055938Y00860679D01*
X01055946Y00860543D01*
Y00860415D01*
X01055954Y00860320D01*
Y00860240D01*
Y00860192D01*
Y00860184D01*
Y00860176D01*
X01055946Y00859762D01*
X01055922Y00859371D01*
X01055882Y00859020D01*
X01055826Y00858685D01*
X01055770Y00858390D01*
X01055699Y00858119D01*
X01055627Y00857871D01*
X01055547Y00857656D01*
X01055475Y00857465D01*
X01055404Y00857297D01*
X01055332Y00857161D01*
X01055276Y00857050D01*
X01055220Y00856962D01*
X01055180Y00856898D01*
X01055156Y00856866D01*
X01055148Y00856850D01*
X01055021Y00856707D01*
X01054877Y00856571D01*
X01054726Y00856460D01*
X01054574Y00856364D01*
X01054423Y00856284D01*
X01054263Y00856220D01*
X01054111Y00856164D01*
X01053968Y00856117D01*
X01053832Y00856085D01*
X01053705Y00856061D01*
X01053585Y00856037D01*
X01053489Y00856029D01*
X01053402Y00856021D01*
X01053346Y00856013D01*
X01053290D01*
X01053122Y00856021D01*
X01052971Y00856037D01*
X01052819Y00856061D01*
X01052684Y00856085D01*
X01052548Y00856125D01*
X01052429Y00856164D01*
X01052317Y00856204D01*
X01052213Y00856252D01*
X01052126Y00856300D01*
X01052046Y00856340D01*
X01051974Y00856380D01*
X01051918Y00856420D01*
X01051870Y00856444D01*
X01051838Y00856468D01*
X01051823Y00856484D01*
X01051814Y00856491D01*
X01051711Y00856587D01*
X01051607Y00856691D01*
X01051424Y00856906D01*
X01051272Y00857138D01*
X01051152Y00857353D01*
X01051097Y00857457D01*
X01051057Y00857552D01*
X01051017Y00857632D01*
X01050985Y00857712D01*
X01050961Y00857768D01*
X01050945Y00857815D01*
X01050929Y00857847D01*
Y00857855D01*
X01050873Y00858031D01*
X01050826Y00858206D01*
X01050754Y00858589D01*
X01050698Y00858980D01*
X01050682Y00859163D01*
X01050666Y00859347D01*
X01050650Y00859522D01*
X01050642Y00859674D01*
X01050634Y00859817D01*
Y00859937D01*
X01050626Y00860041D01*
Y00860112D01*
Y00860160D01*
Y00860176D01*
Y00860399D01*
X01050634Y00860607D01*
X01050642Y00860806D01*
X01050658Y00860990D01*
X01050674Y00861165D01*
X01050690Y00861317D01*
X01050706Y00861468D01*
X01050722Y00861596D01*
X01050738Y00861715D01*
X01050754Y00861819D01*
X01050770Y00861907D01*
X01050786Y00861979D01*
X01050802Y00862035D01*
X01050810Y00862074D01*
X01050818Y00862098D01*
Y00862106D01*
X01050889Y00862362D01*
X01050977Y00862601D01*
X01051057Y00862808D01*
X01051097Y00862896D01*
X01051137Y00862984D01*
X01051177Y00863055D01*
X01051208Y00863127D01*
X01051240Y00863183D01*
X01051264Y00863231D01*
X01051288Y00863271D01*
X01051304Y00863295D01*
X01051320Y00863311D01*
Y00863319D01*
X01051448Y00863494D01*
X01051583Y00863653D01*
X01051719Y00863781D01*
X01051846Y00863893D01*
X01051966Y00863973D01*
X01052054Y00864036D01*
X01052094Y00864060D01*
X01052118Y00864068D01*
X01052133Y00864084D01*
X01052141D01*
X01052333Y00864172D01*
X01052532Y00864244D01*
X01052724Y00864292D01*
X01052899Y00864324D01*
X01052979Y00864332D01*
X01053059Y00864339D01*
X01053122Y00864347D01*
X01053178Y00864355D01*
X01053290D01*
X01053457Y00864347D01*
D02*
G37*
G36*
X01009568Y00728248D02*
X01011793D01*
Y00727315D01*
X01009568D01*
Y00725074D01*
X01008619D01*
Y00727315D01*
X01006394D01*
Y00728248D01*
X01008619D01*
Y00730473D01*
X01009568D01*
Y00728248D01*
D02*
G37*
G36*
X01016842Y00723750D02*
X01015717D01*
X01012519Y00731925D01*
X01013620D01*
X01015837Y00725983D01*
X01015925Y00725736D01*
X01016012Y00725489D01*
X01016084Y00725265D01*
X01016148Y00725066D01*
X01016180Y00724970D01*
X01016204Y00724891D01*
X01016220Y00724819D01*
X01016244Y00724755D01*
X01016259Y00724707D01*
X01016267Y00724675D01*
X01016275Y00724651D01*
Y00724643D01*
X01016347Y00724883D01*
X01016419Y00725114D01*
X01016491Y00725337D01*
X01016554Y00725545D01*
X01016586Y00725640D01*
X01016618Y00725720D01*
X01016642Y00725800D01*
X01016666Y00725863D01*
X01016682Y00725911D01*
X01016698Y00725951D01*
X01016706Y00725975D01*
Y00725983D01*
X01018828Y00731925D01*
X01020000D01*
X01016842Y00723750D01*
D02*
G37*
G36*
X01056822Y00726207D02*
X01053736D01*
Y00727219D01*
X01056822D01*
Y00726207D01*
D02*
G37*
G36*
X01061592Y00723750D02*
X01060467D01*
X01057269Y00731925D01*
X01058370D01*
X01060587Y00725983D01*
X01060675Y00725736D01*
X01060762Y00725489D01*
X01060834Y00725265D01*
X01060898Y00725066D01*
X01060930Y00724970D01*
X01060954Y00724891D01*
X01060970Y00724819D01*
X01060993Y00724755D01*
X01061009Y00724707D01*
X01061017Y00724675D01*
X01061025Y00724651D01*
Y00724643D01*
X01061097Y00724883D01*
X01061169Y00725114D01*
X01061241Y00725337D01*
X01061304Y00725545D01*
X01061336Y00725640D01*
X01061368Y00725720D01*
X01061392Y00725800D01*
X01061416Y00725863D01*
X01061432Y00725911D01*
X01061448Y00725951D01*
X01061456Y00725975D01*
Y00725983D01*
X01063578Y00731925D01*
X01064750D01*
X01061592Y00723750D01*
D02*
G37*
G36*
X00890764Y00863675D02*
X00891004D01*
Y00863436D01*
X00891243D01*
Y00863196D01*
Y00862956D01*
Y00862717D01*
X00891004D01*
Y00862477D01*
X00891243D01*
Y00862237D01*
Y00861998D01*
Y00861758D01*
X00891004D01*
Y00861518D01*
X00891243D01*
Y00861279D01*
Y00861039D01*
Y00860799D01*
X00891004D01*
Y00860560D01*
X00891243D01*
Y00860320D01*
Y00860080D01*
Y00859841D01*
X00891004D01*
Y00859601D01*
X00891243D01*
Y00859361D01*
Y00859122D01*
Y00858882D01*
X00891004D01*
Y00858642D01*
X00891243D01*
Y00858403D01*
Y00858163D01*
Y00857923D01*
X00891004D01*
Y00857684D01*
X00891243D01*
Y00857444D01*
Y00857204D01*
Y00856965D01*
X00891004D01*
Y00856725D01*
X00891243D01*
Y00856486D01*
Y00856246D01*
Y00856006D01*
X00891004D01*
Y00855767D01*
X00891243D01*
Y00855527D01*
Y00855287D01*
Y00855048D01*
X00891004D01*
Y00854808D01*
X00891243D01*
Y00854568D01*
Y00854329D01*
Y00854089D01*
X00891004D01*
Y00853849D01*
X00891243D01*
Y00853609D01*
Y00853370D01*
Y00853130D01*
X00891004D01*
Y00852890D01*
X00891243D01*
Y00852651D01*
Y00852411D01*
Y00852171D01*
X00891004D01*
Y00851932D01*
X00891243D01*
Y00851692D01*
Y00851453D01*
Y00851213D01*
X00891004D01*
Y00850973D01*
X00891243D01*
Y00850734D01*
Y00850494D01*
Y00850254D01*
X00891004D01*
Y00850015D01*
X00891243D01*
Y00849775D01*
Y00849535D01*
Y00849296D01*
X00891004D01*
Y00849056D01*
X00891243D01*
Y00848816D01*
Y00848577D01*
Y00848337D01*
X00891004D01*
Y00848097D01*
X00891243D01*
Y00847858D01*
Y00847618D01*
Y00847378D01*
X00891004D01*
Y00847139D01*
X00891243D01*
Y00846899D01*
Y00846659D01*
Y00846420D01*
X00891004D01*
Y00846180D01*
X00891243D01*
Y00845940D01*
Y00845701D01*
Y00845461D01*
X00891004D01*
Y00845221D01*
X00891243D01*
Y00844982D01*
Y00844742D01*
Y00844502D01*
X00891004D01*
Y00844263D01*
X00891243D01*
Y00844023D01*
Y00843783D01*
Y00843544D01*
X00891004D01*
Y00843304D01*
X00891243D01*
Y00843064D01*
X00891004D01*
Y00842825D01*
X00890764D01*
Y00842585D01*
X00890524D01*
Y00842825D01*
X00890285D01*
Y00842585D01*
X00890045D01*
Y00842825D01*
X00889806D01*
Y00842585D01*
X00889566D01*
Y00842825D01*
X00889326D01*
Y00842585D01*
X00889087D01*
Y00842825D01*
X00888847D01*
Y00842585D01*
X00888607D01*
Y00842825D01*
X00888367D01*
Y00842585D01*
X00888128D01*
Y00842825D01*
X00887888D01*
Y00842585D01*
X00887648D01*
Y00842825D01*
X00887409D01*
Y00842585D01*
X00887169D01*
Y00842825D01*
X00886929D01*
Y00842585D01*
X00886690D01*
Y00842825D01*
X00886450D01*
Y00842585D01*
X00886210D01*
Y00842825D01*
X00885971D01*
Y00842585D01*
X00885731D01*
Y00842825D01*
X00885491D01*
Y00842585D01*
X00885252D01*
Y00842825D01*
X00885012D01*
Y00842585D01*
X00884773D01*
Y00842825D01*
X00884533D01*
Y00842585D01*
X00884293D01*
Y00842825D01*
X00884054D01*
Y00842585D01*
X00883814D01*
Y00842825D01*
X00883574D01*
Y00842585D01*
X00883335D01*
Y00842825D01*
X00883095D01*
Y00842585D01*
X00882855D01*
Y00842825D01*
X00881657D01*
Y00843064D01*
X00881417D01*
Y00842825D01*
X00881178D01*
Y00843064D01*
X00880938D01*
Y00842825D01*
X00880698D01*
Y00843064D01*
X00879979D01*
Y00843304D01*
X00879740D01*
Y00843544D01*
X00879500D01*
Y00843304D01*
X00879740D01*
Y00843064D01*
X00879500D01*
Y00843304D01*
X00879260D01*
Y00843544D01*
X00878541D01*
Y00843783D01*
X00878302D01*
Y00844023D01*
X00877583D01*
Y00844263D01*
X00877343D01*
Y00844502D01*
X00877103D01*
Y00844742D01*
X00876864D01*
Y00844982D01*
X00876624D01*
Y00845221D01*
X00876384D01*
Y00845461D01*
X00876145D01*
Y00845701D01*
Y00845940D01*
X00875665D01*
Y00846180D01*
X00875905D01*
Y00846420D01*
X00875665D01*
Y00846659D01*
X00875426D01*
Y00846899D01*
X00875186D01*
Y00847139D01*
Y00847378D01*
Y00847618D01*
X00874946D01*
Y00847858D01*
X00874707D01*
Y00848097D01*
X00874946D01*
Y00848337D01*
X00874707D01*
Y00848577D01*
Y00848816D01*
X00874467D01*
Y00849056D01*
Y00849296D01*
X00874227D01*
Y00849535D01*
X00874467D01*
Y00849775D01*
X00874227D01*
Y00850015D01*
Y00850254D01*
Y00850494D01*
X00873988D01*
Y00850734D01*
X00874227D01*
Y00850973D01*
X00873988D01*
Y00851213D01*
Y00851453D01*
Y00851692D01*
X00873748D01*
Y00851932D01*
X00873988D01*
Y00852171D01*
Y00852411D01*
Y00852651D01*
X00873748D01*
Y00852890D01*
X00873988D01*
Y00853130D01*
Y00853370D01*
Y00853609D01*
X00873748D01*
Y00853849D01*
X00873988D01*
Y00854089D01*
Y00854329D01*
Y00854568D01*
X00873748D01*
Y00854808D01*
X00873988D01*
Y00855048D01*
X00874227D01*
Y00855287D01*
X00873988D01*
Y00855527D01*
X00874227D01*
Y00855767D01*
Y00856006D01*
Y00856246D01*
X00874467D01*
Y00856486D01*
X00874227D01*
Y00856725D01*
X00874467D01*
Y00856965D01*
X00874227D01*
Y00857204D01*
X00874467D01*
Y00857444D01*
X00874707D01*
Y00857684D01*
Y00857923D01*
Y00858163D01*
X00874946D01*
Y00858403D01*
X00874707D01*
Y00858642D01*
X00874946D01*
Y00858882D01*
X00875186D01*
Y00859122D01*
X00875426D01*
Y00859361D01*
Y00859601D01*
Y00859841D01*
X00875665D01*
Y00860080D01*
X00875905D01*
Y00860320D01*
X00876145D01*
Y00860560D01*
X00876384D01*
Y00860799D01*
X00876145D01*
Y00861039D01*
X00875905D01*
Y00860799D01*
X00875186D01*
Y00861039D01*
X00874946D01*
Y00860799D01*
X00874227D01*
Y00861039D01*
X00873988D01*
Y00860799D01*
X00873269D01*
Y00861039D01*
X00873029D01*
Y00860799D01*
X00872310D01*
Y00861039D01*
X00872070D01*
Y00860799D01*
X00871831D01*
Y00861039D01*
X00871591D01*
Y00861279D01*
X00871351D01*
Y00861518D01*
X00871591D01*
Y00861758D01*
X00871351D01*
Y00861998D01*
X00871591D01*
Y00862237D01*
X00871351D01*
Y00862477D01*
X00871591D01*
Y00862717D01*
X00871351D01*
Y00862956D01*
X00871591D01*
Y00863196D01*
X00871351D01*
Y00863436D01*
X00871591D01*
Y00863675D01*
X00871831D01*
Y00863915D01*
X00872070D01*
Y00863675D01*
X00872310D01*
Y00863915D01*
X00872550D01*
Y00863675D01*
X00872790D01*
Y00863915D01*
X00873029D01*
Y00863675D01*
X00873269D01*
Y00863915D01*
X00873508D01*
Y00863675D01*
X00873748D01*
Y00863915D01*
X00873988D01*
Y00863675D01*
X00874227D01*
Y00863915D01*
X00874467D01*
Y00863675D01*
X00874707D01*
Y00863915D01*
X00874946D01*
Y00863675D01*
X00875186D01*
Y00863915D01*
X00875426D01*
Y00863675D01*
X00875665D01*
Y00863915D01*
X00875905D01*
Y00863675D01*
X00876145D01*
Y00863915D01*
X00876384D01*
Y00863675D01*
X00876624D01*
Y00863915D01*
X00876864D01*
Y00863675D01*
X00877103D01*
Y00863915D01*
X00877343D01*
Y00863675D01*
X00877583D01*
Y00863915D01*
X00877822D01*
Y00863675D01*
X00878062D01*
Y00863915D01*
X00878302D01*
Y00863675D01*
X00878541D01*
Y00863915D01*
X00878781D01*
Y00863675D01*
X00879021D01*
Y00863915D01*
X00879260D01*
Y00863675D01*
X00879500D01*
Y00863915D01*
X00879740D01*
Y00863675D01*
X00879979D01*
Y00863915D01*
X00880219D01*
Y00863675D01*
X00880459D01*
Y00863915D01*
X00880698D01*
Y00863675D01*
X00880938D01*
Y00863915D01*
X00881178D01*
Y00863675D01*
X00881417D01*
Y00863915D01*
X00881657D01*
Y00863675D01*
X00881897D01*
Y00863915D01*
X00882136D01*
Y00863675D01*
X00882376D01*
Y00863915D01*
X00882616D01*
Y00863675D01*
X00882855D01*
Y00863915D01*
X00883095D01*
Y00863675D01*
X00883335D01*
Y00863915D01*
X00883574D01*
Y00863675D01*
X00883814D01*
Y00863915D01*
X00884054D01*
Y00863675D01*
X00884293D01*
Y00863915D01*
X00884533D01*
Y00863675D01*
X00884773D01*
Y00863915D01*
X00885012D01*
Y00863675D01*
X00885252D01*
Y00863915D01*
X00885491D01*
Y00863675D01*
X00885731D01*
Y00863915D01*
X00885971D01*
Y00863675D01*
X00886210D01*
Y00863915D01*
X00886450D01*
Y00863675D01*
X00886690D01*
Y00863915D01*
X00886929D01*
Y00863675D01*
X00887169D01*
Y00863915D01*
X00887409D01*
Y00863675D01*
X00887648D01*
Y00863915D01*
X00887888D01*
Y00863675D01*
X00888128D01*
Y00863915D01*
X00888367D01*
Y00863675D01*
X00888607D01*
Y00863915D01*
X00888847D01*
Y00863675D01*
X00889087D01*
Y00863915D01*
X00889326D01*
Y00863675D01*
X00889566D01*
Y00863915D01*
X00889806D01*
Y00863675D01*
X00890045D01*
Y00863915D01*
X00890285D01*
Y00863675D01*
X00890524D01*
Y00863915D01*
X00890764D01*
Y00863675D01*
D02*
G37*
%LPC*%
G36*
X01048136Y00851274D02*
X01045385D01*
X01045233Y00851258D01*
X01045097Y00851242D01*
X01044962Y00851218D01*
X01044842Y00851186D01*
X01044738Y00851154D01*
X01044643Y00851122D01*
X01044555Y00851090D01*
X01044475Y00851050D01*
X01044411Y00851019D01*
X01044356Y00850987D01*
X01044308Y00850955D01*
X01044276Y00850931D01*
X01044244Y00850915D01*
X01044236Y00850907D01*
X01044228Y00850899D01*
X01044156Y00850827D01*
X01044084Y00850747D01*
X01044029Y00850676D01*
X01043981Y00850588D01*
X01043909Y00850428D01*
X01043861Y00850277D01*
X01043829Y00850149D01*
X01043821Y00850085D01*
X01043813Y00850038D01*
X01043805Y00849998D01*
Y00849966D01*
Y00849950D01*
Y00849942D01*
X01043813Y00849798D01*
X01043837Y00849655D01*
X01043877Y00849535D01*
X01043917Y00849423D01*
X01043957Y00849328D01*
X01043997Y00849264D01*
X01044021Y00849216D01*
X01044029Y00849208D01*
Y00849200D01*
X01044116Y00849080D01*
X01044220Y00848985D01*
X01044324Y00848897D01*
X01044427Y00848833D01*
X01044515Y00848777D01*
X01044587Y00848745D01*
X01044643Y00848721D01*
X01044651Y00848714D01*
X01044659D01*
X01044826Y00848666D01*
X01045018Y00848626D01*
X01045209Y00848602D01*
X01045392Y00848578D01*
X01045480D01*
X01045560Y00848570D01*
X01045632D01*
X01045695Y00848562D01*
X01048136D01*
Y00851274D01*
D02*
G37*
G36*
X01053416Y00851377D02*
X01053352D01*
X01053224Y00851369D01*
X01053097Y00851346D01*
X01052977Y00851314D01*
X01052866Y00851274D01*
X01052666Y00851162D01*
X01052579Y00851106D01*
X01052499Y00851042D01*
X01052419Y00850979D01*
X01052355Y00850923D01*
X01052299Y00850867D01*
X01052259Y00850811D01*
X01052220Y00850771D01*
X01052196Y00850739D01*
X01052180Y00850715D01*
X01052172Y00850707D01*
X01052092Y00850572D01*
X01052012Y00850404D01*
X01051956Y00850213D01*
X01051900Y00850014D01*
X01051853Y00849790D01*
X01051813Y00849567D01*
X01051757Y00849120D01*
X01051741Y00848905D01*
X01051725Y00848698D01*
X01051717Y00848514D01*
X01051709Y00848355D01*
Y00848283D01*
X01051701Y00848219D01*
Y00848163D01*
Y00848115D01*
Y00848075D01*
Y00848052D01*
Y00848036D01*
Y00848028D01*
X01051709Y00847669D01*
X01051725Y00847334D01*
X01051749Y00847031D01*
X01051773Y00846759D01*
X01051813Y00846512D01*
X01051853Y00846297D01*
X01051893Y00846105D01*
X01051940Y00845938D01*
X01051988Y00845787D01*
X01052028Y00845667D01*
X01052068Y00845563D01*
X01052108Y00845483D01*
X01052132Y00845420D01*
X01052156Y00845380D01*
X01052172Y00845356D01*
X01052180Y00845348D01*
X01052267Y00845228D01*
X01052363Y00845133D01*
X01052459Y00845045D01*
X01052562Y00844965D01*
X01052658Y00844901D01*
X01052754Y00844845D01*
X01052842Y00844806D01*
X01052937Y00844766D01*
X01053017Y00844742D01*
X01053097Y00844718D01*
X01053161Y00844710D01*
X01053224Y00844694D01*
X01053272D01*
X01053304Y00844686D01*
X01053336D01*
X01053464Y00844694D01*
X01053583Y00844718D01*
X01053703Y00844750D01*
X01053807Y00844790D01*
X01054006Y00844893D01*
X01054094Y00844957D01*
X01054182Y00845021D01*
X01054253Y00845077D01*
X01054317Y00845141D01*
X01054373Y00845196D01*
X01054413Y00845244D01*
X01054453Y00845284D01*
X01054477Y00845316D01*
X01054493Y00845340D01*
X01054501Y00845348D01*
X01054580Y00845483D01*
X01054652Y00845651D01*
X01054716Y00845842D01*
X01054772Y00846050D01*
X01054820Y00846265D01*
X01054859Y00846488D01*
X01054915Y00846935D01*
X01054931Y00847150D01*
X01054947Y00847358D01*
X01054955Y00847541D01*
X01054963Y00847701D01*
Y00847772D01*
X01054971Y00847836D01*
Y00847892D01*
Y00847940D01*
Y00847980D01*
Y00848004D01*
Y00848020D01*
Y00848028D01*
X01054963Y00848387D01*
X01054947Y00848721D01*
X01054923Y00849033D01*
X01054891Y00849304D01*
X01054852Y00849559D01*
X01054812Y00849782D01*
X01054764Y00849982D01*
X01054716Y00850165D01*
X01054668Y00850317D01*
X01054620Y00850444D01*
X01054580Y00850556D01*
X01054540Y00850636D01*
X01054509Y00850707D01*
X01054485Y00850755D01*
X01054469Y00850779D01*
X01054461Y00850787D01*
X01054381Y00850891D01*
X01054293Y00850979D01*
X01054205Y00851058D01*
X01054110Y00851130D01*
X01054022Y00851186D01*
X01053926Y00851234D01*
X01053839Y00851274D01*
X01053751Y00851306D01*
X01053591Y00851346D01*
X01053528Y00851361D01*
X01053464Y00851369D01*
X01053416Y00851377D01*
D02*
G37*
G36*
X01053370Y00863526D02*
X01053306D01*
X01053178Y00863518D01*
X01053051Y00863494D01*
X01052931Y00863462D01*
X01052819Y00863422D01*
X01052620Y00863311D01*
X01052532Y00863255D01*
X01052453Y00863191D01*
X01052373Y00863127D01*
X01052309Y00863071D01*
X01052253Y00863016D01*
X01052213Y00862960D01*
X01052173Y00862920D01*
X01052150Y00862888D01*
X01052133Y00862864D01*
X01052126Y00862856D01*
X01052046Y00862720D01*
X01051966Y00862553D01*
X01051910Y00862362D01*
X01051854Y00862162D01*
X01051806Y00861939D01*
X01051767Y00861715D01*
X01051711Y00861269D01*
X01051695Y00861053D01*
X01051679Y00860846D01*
X01051671Y00860663D01*
X01051663Y00860503D01*
Y00860431D01*
X01051655Y00860368D01*
Y00860312D01*
Y00860264D01*
Y00860224D01*
Y00860200D01*
Y00860184D01*
Y00860176D01*
X01051663Y00859817D01*
X01051679Y00859482D01*
X01051703Y00859179D01*
X01051727Y00858908D01*
X01051767Y00858661D01*
X01051806Y00858446D01*
X01051846Y00858254D01*
X01051894Y00858087D01*
X01051942Y00857935D01*
X01051982Y00857815D01*
X01052022Y00857712D01*
X01052062Y00857632D01*
X01052086Y00857568D01*
X01052110Y00857528D01*
X01052126Y00857504D01*
X01052133Y00857496D01*
X01052221Y00857377D01*
X01052317Y00857281D01*
X01052413Y00857193D01*
X01052516Y00857114D01*
X01052612Y00857050D01*
X01052708Y00856994D01*
X01052795Y00856954D01*
X01052891Y00856914D01*
X01052971Y00856890D01*
X01053051Y00856866D01*
X01053114Y00856858D01*
X01053178Y00856842D01*
X01053226D01*
X01053258Y00856834D01*
X01053290D01*
X01053418Y00856842D01*
X01053537Y00856866D01*
X01053657Y00856898D01*
X01053761Y00856938D01*
X01053960Y00857042D01*
X01054048Y00857106D01*
X01054135Y00857169D01*
X01054207Y00857225D01*
X01054271Y00857289D01*
X01054327Y00857345D01*
X01054367Y00857393D01*
X01054407Y00857433D01*
X01054430Y00857465D01*
X01054446Y00857488D01*
X01054454Y00857496D01*
X01054534Y00857632D01*
X01054606Y00857800D01*
X01054670Y00857991D01*
X01054726Y00858198D01*
X01054773Y00858414D01*
X01054813Y00858637D01*
X01054869Y00859083D01*
X01054885Y00859299D01*
X01054901Y00859506D01*
X01054909Y00859690D01*
X01054917Y00859849D01*
Y00859921D01*
X01054925Y00859985D01*
Y00860041D01*
Y00860088D01*
Y00860128D01*
Y00860152D01*
Y00860168D01*
Y00860176D01*
X01054917Y00860535D01*
X01054901Y00860870D01*
X01054877Y00861181D01*
X01054845Y00861452D01*
X01054805Y00861708D01*
X01054765Y00861931D01*
X01054718Y00862130D01*
X01054670Y00862314D01*
X01054622Y00862465D01*
X01054574Y00862593D01*
X01054534Y00862704D01*
X01054494Y00862784D01*
X01054462Y00862856D01*
X01054438Y00862904D01*
X01054423Y00862928D01*
X01054415Y00862936D01*
X01054335Y00863039D01*
X01054247Y00863127D01*
X01054159Y00863207D01*
X01054064Y00863279D01*
X01053976Y00863335D01*
X01053880Y00863382D01*
X01053792Y00863422D01*
X01053705Y00863454D01*
X01053545Y00863494D01*
X01053481Y00863510D01*
X01053418Y00863518D01*
X01053370Y00863526D01*
D02*
G37*
G36*
X00888128Y00852890D02*
X00887648D01*
Y00852651D01*
X00887409D01*
Y00852411D01*
X00886929D01*
Y00852171D01*
Y00851932D01*
Y00851692D01*
X00887169D01*
Y00851453D01*
X00887409D01*
Y00851213D01*
Y00850973D01*
Y00850734D01*
X00887648D01*
Y00850494D01*
Y00850254D01*
X00887888D01*
Y00850015D01*
X00888128D01*
Y00850254D01*
Y00850494D01*
Y00850734D01*
Y00850973D01*
Y00851213D01*
Y00851453D01*
Y00851692D01*
Y00851932D01*
Y00852171D01*
Y00852411D01*
Y00852651D01*
Y00852890D01*
D02*
G37*
G36*
X00879740Y00859361D02*
X00879260D01*
Y00859122D01*
X00879021D01*
Y00858882D01*
X00878781D01*
Y00858642D01*
X00878541D01*
Y00858403D01*
X00878302D01*
Y00858163D01*
Y00857923D01*
X00878062D01*
Y00857684D01*
Y00857444D01*
X00877822D01*
Y00857204D01*
Y00856965D01*
X00877583D01*
Y00856725D01*
Y00856486D01*
Y00856246D01*
X00877343D01*
Y00856006D01*
Y00855767D01*
Y00855527D01*
Y00855287D01*
Y00855048D01*
Y00854808D01*
Y00854568D01*
X00877103D01*
Y00854329D01*
Y00854089D01*
Y00853849D01*
Y00853609D01*
Y00853370D01*
Y00853130D01*
Y00852890D01*
Y00852651D01*
Y00852411D01*
Y00852171D01*
Y00851932D01*
X00877343D01*
Y00851692D01*
Y00851453D01*
Y00851213D01*
Y00850973D01*
Y00850734D01*
Y00850494D01*
Y00850254D01*
X00877583D01*
Y00850015D01*
Y00849775D01*
Y00849535D01*
Y00849296D01*
X00877822D01*
Y00849056D01*
Y00848816D01*
X00878062D01*
Y00848577D01*
Y00848337D01*
X00878302D01*
Y00848097D01*
Y00847858D01*
X00878541D01*
Y00847618D01*
X00878781D01*
Y00847378D01*
Y00847139D01*
X00879021D01*
Y00846899D01*
X00879500D01*
Y00846659D01*
X00879740D01*
Y00846899D01*
Y00847139D01*
X00879500D01*
Y00847378D01*
Y00847618D01*
Y00847858D01*
Y00848097D01*
Y00848337D01*
Y00848577D01*
Y00848816D01*
Y00849056D01*
Y00849296D01*
Y00849535D01*
Y00849775D01*
Y00850015D01*
Y00850254D01*
Y00850494D01*
Y00850734D01*
Y00850973D01*
Y00851213D01*
Y00851453D01*
Y00851692D01*
Y00851932D01*
Y00852171D01*
Y00852411D01*
Y00852651D01*
Y00852890D01*
Y00853130D01*
Y00853370D01*
Y00853609D01*
Y00853849D01*
Y00854089D01*
Y00854329D01*
Y00854568D01*
Y00854808D01*
Y00855048D01*
Y00855287D01*
Y00855527D01*
Y00855767D01*
Y00856006D01*
Y00856246D01*
Y00856486D01*
Y00856725D01*
Y00856965D01*
Y00857204D01*
Y00857444D01*
Y00857684D01*
Y00857923D01*
Y00858163D01*
Y00858403D01*
Y00858642D01*
Y00858882D01*
X00879740D01*
Y00859122D01*
Y00859361D01*
D02*
G37*
G36*
X00887169Y00860799D02*
X00886929D01*
Y00860560D01*
X00886450D01*
Y00860320D01*
X00887169D01*
Y00860080D01*
X00887648D01*
Y00859841D01*
X00887888D01*
Y00859601D01*
X00888128D01*
Y00859841D01*
Y00860080D01*
Y00860320D01*
Y00860560D01*
X00887169D01*
Y00860799D01*
D02*
G37*
G36*
X00886690Y00858642D02*
X00883814D01*
Y00858403D01*
Y00858163D01*
Y00857923D01*
Y00857684D01*
Y00857444D01*
Y00857204D01*
Y00856965D01*
Y00856725D01*
Y00856486D01*
Y00856246D01*
Y00856006D01*
Y00855767D01*
Y00855527D01*
Y00855287D01*
Y00855048D01*
Y00854808D01*
Y00854568D01*
Y00854329D01*
Y00854089D01*
Y00853849D01*
X00886690D01*
Y00854089D01*
X00886929D01*
Y00854329D01*
X00887169D01*
Y00854568D01*
X00887409D01*
Y00854808D01*
Y00855048D01*
X00887648D01*
Y00855287D01*
Y00855527D01*
Y00855767D01*
Y00856006D01*
Y00856246D01*
Y00856486D01*
Y00856725D01*
Y00856965D01*
Y00857204D01*
Y00857444D01*
X00887409D01*
Y00857684D01*
Y00857923D01*
X00887169D01*
Y00858163D01*
X00886929D01*
Y00858403D01*
X00886690D01*
Y00858642D01*
D02*
G37*
G36*
X00877822Y00844502D02*
X00877583D01*
Y00844263D01*
X00877822D01*
Y00844502D01*
D02*
G37*
G36*
X00885252Y00852171D02*
X00883814D01*
Y00851932D01*
Y00851692D01*
Y00851453D01*
Y00851213D01*
Y00850973D01*
Y00850734D01*
Y00850494D01*
Y00850254D01*
Y00850015D01*
Y00849775D01*
Y00849535D01*
Y00849296D01*
Y00849056D01*
Y00848816D01*
Y00848577D01*
Y00848337D01*
Y00848097D01*
Y00847858D01*
Y00847618D01*
Y00847378D01*
Y00847139D01*
Y00846899D01*
Y00846659D01*
Y00846420D01*
Y00846180D01*
Y00845940D01*
Y00845701D01*
X00887888D01*
Y00845940D01*
Y00846180D01*
Y00846420D01*
X00887648D01*
Y00846659D01*
Y00846899D01*
Y00847139D01*
X00887409D01*
Y00847378D01*
Y00847618D01*
Y00847858D01*
X00887169D01*
Y00848097D01*
Y00848337D01*
Y00848577D01*
X00886929D01*
Y00848816D01*
Y00849056D01*
Y00849296D01*
X00886690D01*
Y00849535D01*
Y00849775D01*
Y00850015D01*
X00886450D01*
Y00850254D01*
Y00850494D01*
Y00850734D01*
X00886210D01*
Y00850973D01*
Y00851213D01*
X00885971D01*
Y00851453D01*
X00885731D01*
Y00851692D01*
Y00851932D01*
X00885252D01*
Y00852171D01*
D02*
G37*
%LPD*%
D14*
X00962750Y00780500D02*
G03*
X00962750Y00780500I-00001250J00000000D01*
G01*
X01021500Y00880000D02*
G03*
X01021500Y00880000I-00001250J00000000D01*
G01*
D15*
X00968000Y00779000D02*
Y00781000D01*
Y00779000D02*
X00971000D01*
X01006000D02*
X01009000D01*
Y00781000D01*
Y00836000D02*
Y00838000D01*
X01006000D02*
X01009000D01*
X00968000Y00836000D02*
Y00838000D01*
X00971000D01*
X00962100Y00749100D02*
Y00751100D01*
X00941900Y00749100D02*
Y00751100D01*
X01048000Y00770500D02*
Y00779500D01*
D54*
X01002500Y00738000D02*
G03*
X01002500Y00747000I-00004500J00004500D01*
G01*
X00984500D02*
G03*
X00984500Y00738000I00004500J-00004500D01*
G01*
X00975000Y00753000D02*
G03*
X00966000Y00753000I-00004500J-00004500D01*
G01*
Y00735000D02*
G03*
X00975000Y00735000I00004500J00004500D01*
G01*
X00929750Y00736500D02*
G03*
X00938750Y00736500I00004500J00004500D01*
G01*
Y00754500D02*
G03*
X00929750Y00754500I-00004500J-00004500D01*
G01*
X00913250Y00877250D02*
G03*
X00913250Y00886250I-00004500J00004500D01*
G01*
X00895250D02*
G03*
X00895250Y00877250I00004500J-00004500D01*
G01*
X01058000Y00873000D02*
G03*
X01067000Y00873000I00004500J00004500D01*
G01*
Y00891000D02*
G03*
X01058000Y00891000I-00004500J-00004500D01*
G01*
X01067000Y00916000D02*
G03*
X01058000Y00916000I-00004500J-00004500D01*
G01*
Y00898000D02*
G03*
X01067000Y00898000I00004500J00004500D01*
G01*
X00929750Y00798500D02*
G03*
X00938750Y00798500I00004500J00004500D01*
G01*
Y00816500D02*
G03*
X00929750Y00816500I-00004500J-00004500D01*
G01*
X01065500Y00817500D02*
G03*
X01056500Y00817500I-00004500J-00004500D01*
G01*
Y00799500D02*
G03*
X01065500Y00799500I00004500J00004500D01*
G01*
X01029000Y00841750D02*
G03*
X01020000Y00841750I-00004500J-00004500D01*
G01*
Y00823750D02*
G03*
X01029000Y00823750I00004500J00004500D01*
G01*
X01020250Y00807250D02*
G03*
X01020250Y00798250I00004500J-00004500D01*
G01*
X01038250D02*
G03*
X01038250Y00807250I-00004500J00004500D01*
G01*
X01031500Y00809500D02*
G03*
X01031500Y00818500I-00004500J00004500D01*
G01*
X01013500D02*
G03*
X01013500Y00809500I00004500J-00004500D01*
G01*
X00977000Y00752500D02*
G03*
X00986000Y00752500I00004500J00004500D01*
G01*
Y00770500D02*
G03*
X00977000Y00770500I-00004500J-00004500D01*
G01*
X01022000Y00764500D02*
G03*
X01013000Y00764500I-00004500J-00004500D01*
G01*
Y00746500D02*
G03*
X01022000Y00746500I00004500J00004500D01*
G01*
X00895000Y00863500D02*
G03*
X00895000Y00854500I00004500J-00004500D01*
G01*
X00913000D02*
G03*
X00913000Y00863500I-00004500J00004500D01*
G01*
X00941500Y00889000D02*
G03*
X00932500Y00889000I-00004500J-00004500D01*
G01*
Y00871000D02*
G03*
X00941500Y00871000I00004500J00004500D01*
G01*
X00921500Y00866750D02*
G03*
X00921500Y00857750I00004500J-00004500D01*
G01*
X00939500D02*
G03*
X00939500Y00866750I-00004500J00004500D01*
G01*
X00976750Y00857250D02*
G03*
X00976750Y00848250I00004500J-00004500D01*
G01*
X00994750D02*
G03*
X00994750Y00857250I-00004500J00004500D01*
G01*
X00949000Y00873500D02*
G03*
X00949000Y00864500I00004500J-00004500D01*
G01*
X00967000D02*
G03*
X00967000Y00873500I-00004500J00004500D01*
G01*
X00927000Y00847500D02*
G03*
X00918000Y00847500I-00004500J-00004500D01*
G01*
Y00829500D02*
G03*
X00927000Y00829500I00004500J00004500D01*
G01*
X00938750Y00840500D02*
G03*
X00929750Y00840500I-00004500J-00004500D01*
G01*
Y00822500D02*
G03*
X00938750Y00822500I00004500J00004500D01*
G01*
X00950500Y00802750D02*
G03*
X00941500Y00802750I-00004500J-00004500D01*
G01*
Y00784750D02*
G03*
X00950500Y00784750I00004500J00004500D01*
G01*
X01018000Y00861000D02*
G03*
X01009000Y00861000I-00004500J-00004500D01*
G01*
Y00843000D02*
G03*
X01018000Y00843000I00004500J00004500D01*
G01*
X01001500Y00752500D02*
G03*
X01010500Y00752500I00004500J00004500D01*
G01*
Y00770500D02*
G03*
X01001500Y00770500I-00004500J-00004500D01*
G01*
X01020500Y00773500D02*
Y00793500D01*
X01011500Y00773500D02*
Y00793500D01*
Y00773500D02*
X01020500D01*
X01011500Y00793500D02*
X01020500D01*
X00984500Y00747000D02*
X01002500D01*
X00984500Y00738000D02*
X01002500D01*
X01023000Y00795500D02*
X01043000D01*
X01023000Y00786500D02*
X01043000D01*
Y00795500D01*
X01023000Y00786500D02*
Y00795500D01*
X01049750Y00746500D02*
Y00766500D01*
X01040750Y00746500D02*
Y00766500D01*
Y00746500D02*
X01049750D01*
X01040750Y00766500D02*
X01049750D01*
X00941750Y00806500D02*
X00961750D01*
X00941750Y00815500D02*
X00961750D01*
X00941750Y00806500D02*
Y00815500D01*
X00961750Y00806500D02*
Y00815500D01*
X00938750Y00771000D02*
Y00791000D01*
X00929750Y00771000D02*
Y00791000D01*
Y00771000D02*
X00938750D01*
X00929750Y00791000D02*
X00938750D01*
X01045750Y00786500D02*
X01065750D01*
X01045750Y00795500D02*
X01065750D01*
X01045750Y00786500D02*
Y00795500D01*
X01065750Y00786500D02*
Y00795500D01*
X01061000Y00763250D02*
Y00783250D01*
X01052000Y00763250D02*
Y00783250D01*
Y00763250D02*
X01061000D01*
X01052000Y00783250D02*
X01061000D01*
X00928000Y00870000D02*
Y00890000D01*
X00919000Y00870000D02*
Y00890000D01*
Y00870000D02*
X00928000D01*
X00919000Y00890000D02*
X00928000D01*
X00894000Y00865750D02*
X00914000D01*
X00894000Y00874750D02*
X00914000D01*
X00894000Y00865750D02*
Y00874750D01*
X00914000Y00865750D02*
Y00874750D01*
X00946249Y00875750D02*
Y00895750D01*
X00955249Y00875750D02*
Y00895750D01*
X00946249D02*
X00955249D01*
X00946249Y00875750D02*
X00955249D01*
X00960248D02*
Y00895750D01*
X00969249Y00875750D02*
Y00895750D01*
X00960248D02*
X00969249D01*
X00960248Y00875750D02*
X00969249D01*
X00906000Y00828500D02*
Y00848500D01*
X00915000Y00828500D02*
Y00848500D01*
X00906000D02*
X00915000D01*
X00906000Y00828500D02*
X00915000D01*
X00903000D02*
Y00848500D01*
X00894000Y00828500D02*
Y00848500D01*
Y00828500D02*
X00903000D01*
X00894000Y00848500D02*
X00903000D01*
X00961695Y00783695D02*
Y00803695D01*
X00952695Y00783695D02*
Y00803695D01*
Y00783695D02*
X00961695D01*
X00952695Y00803695D02*
X00961695D01*
X00941250Y00780000D02*
X00961250D01*
X00941250Y00771000D02*
X00961250D01*
Y00780000D01*
X00941250Y00771000D02*
Y00780000D01*
X01029500Y00846250D02*
Y00866250D01*
X01020500Y00846250D02*
Y00866250D01*
Y00846250D02*
X01029500D01*
X01020500Y00866250D02*
X01029500D01*
X00989750Y00751250D02*
Y00771250D01*
X00998750Y00751250D02*
Y00771250D01*
X00989750D02*
X00998750D01*
X00989750Y00751250D02*
X00998750D01*
X01031750Y00847500D02*
Y00867500D01*
X01040750Y00847500D02*
Y00867500D01*
X01031750D02*
X01040750D01*
X01031750Y00847500D02*
X01040750D01*
X01024250Y00879750D02*
X01044250D01*
X01024250Y00870750D02*
X01044250D01*
Y00879750D01*
X01024250Y00870750D02*
Y00879750D01*
X01056250Y00735500D02*
Y00755500D01*
X01065250Y00735500D02*
Y00755500D01*
X01056250D02*
X01065250D01*
X01056250Y00735500D02*
X01065250D01*
X01024250Y00746500D02*
Y00766500D01*
X01033250Y00746500D02*
Y00766500D01*
X01024250D02*
X01033250D01*
X01024250Y00746500D02*
X01033250D01*
X00966000Y00735000D02*
Y00753000D01*
X00975000Y00735000D02*
Y00753000D01*
X00938750Y00736500D02*
Y00754500D01*
X00929750Y00736500D02*
Y00754500D01*
X00895250Y00886250D02*
X00913250D01*
X00895250Y00877250D02*
X00913250D01*
X01067000Y00873000D02*
Y00891000D01*
X01058000Y00873000D02*
Y00891000D01*
X01058000Y00898000D02*
Y00916000D01*
X01067000Y00898000D02*
Y00916000D01*
X00938750Y00798500D02*
Y00816500D01*
X00929750Y00798500D02*
Y00816500D01*
X01056500Y00799500D02*
Y00817500D01*
X01065500Y00799500D02*
Y00817500D01*
X01020000Y00823750D02*
Y00841750D01*
X01029000Y00823750D02*
Y00841750D01*
X01020250Y00798250D02*
X01038250D01*
X01020250Y00807250D02*
X01038250D01*
X01013500Y00818500D02*
X01031500D01*
X01013500Y00809500D02*
X01031500D01*
X00986000Y00752500D02*
Y00770500D01*
X00977000Y00752500D02*
Y00770500D01*
X01013000Y00746500D02*
Y00764500D01*
X01022000Y00746500D02*
Y00764500D01*
X00895000Y00854500D02*
X00913000D01*
X00895000Y00863500D02*
X00913000D01*
X00932500Y00871000D02*
Y00889000D01*
X00941500Y00871000D02*
Y00889000D01*
X00921500Y00857750D02*
X00939500D01*
X00921500Y00866750D02*
X00939500D01*
X00976750Y00848250D02*
X00994750D01*
X00976750Y00857250D02*
X00994750D01*
X00949000Y00864500D02*
X00967000D01*
X00949000Y00873500D02*
X00967000D01*
X00918000Y00829500D02*
Y00847500D01*
X00927000Y00829500D02*
Y00847500D01*
X00929750Y00822500D02*
Y00840500D01*
X00938750Y00822500D02*
Y00840500D01*
X00941500Y00784750D02*
Y00802750D01*
X00950500Y00784750D02*
Y00802750D01*
X01009000Y00843000D02*
Y00861000D01*
X01018000Y00843000D02*
Y00861000D01*
X01010500Y00752500D02*
Y00770500D01*
X01001500Y00752500D02*
Y00770500D01*
X00927826Y00724050D02*
Y00824380D01*
X00880836D02*
X00927826D01*
X00880836Y00724050D02*
Y00824380D01*
Y00724050D02*
X00927826D01*
D55*
X01032000Y00777750D02*
X01036000D01*
X01032000Y00772250D02*
X01036000D01*
M02*
