G04 Layer_Physical_Order=1*
G04 Layer_Color=255*
%FSAX44Y44*%
%MOMM*%
G71*
G01*
G75*
%ADD10R,1.5000X0.9000*%
%ADD11R,1.5000X0.9500*%
%ADD12R,0.9500X1.5000*%
%ADD13C,0.2540*%
%ADD14C,0.2500*%
%ADD15C,0.2000*%
%ADD16C,0.4000*%
%ADD17C,0.5000*%
%ADD18C,0.6000*%
G36*
X01039636Y00900760D02*
X01039692Y00900455D01*
X01039471Y00900214D01*
X01038196Y00899928D01*
X01038061Y00900018D01*
X01036500Y00900328D01*
X01034939Y00900018D01*
X01033616Y00899134D01*
X01032732Y00897811D01*
X01032422Y00896250D01*
X01032732Y00894689D01*
X01033616Y00893366D01*
X01033676Y00893326D01*
Y00876449D01*
X01032406Y00875923D01*
X01024332Y00883997D01*
X01023415Y00884609D01*
X01022726Y00884746D01*
X01022634Y00884884D01*
X01021311Y00885768D01*
X01019750Y00886078D01*
X01018189Y00885768D01*
X01016866Y00884884D01*
X01016826Y00884824D01*
X01013379D01*
X01001177Y00897027D01*
X01001549Y00898450D01*
X01002546Y00899116D01*
X01003430Y00900439D01*
X01003740Y00902000D01*
X01003430Y00903561D01*
X01002546Y00904884D01*
X01001223Y00905768D01*
X00999662Y00906078D01*
X00998102Y00905768D01*
X00996778Y00904884D01*
X00996725Y00904804D01*
X00963177D01*
X00960954Y00907027D01*
X00960044Y00907634D01*
X00958971Y00907848D01*
X00954622D01*
X00953549Y00907634D01*
X00952639Y00907027D01*
X00949564Y00903951D01*
X00948956Y00903042D01*
X00948743Y00901969D01*
Y00897453D01*
X00948956Y00896380D01*
X00949564Y00895471D01*
X00952474Y00892561D01*
X00953383Y00891954D01*
X00954456Y00891740D01*
X00990545D01*
X00992196Y00890089D01*
Y00881411D01*
X00988839Y00878054D01*
X00962289D01*
X00961216Y00877840D01*
X00960307Y00877233D01*
X00955095Y00872020D01*
X00949088D01*
X00948344Y00873290D01*
X00948578Y00874467D01*
X00948268Y00876027D01*
X00947384Y00877350D01*
X00946061Y00878234D01*
X00944500Y00878545D01*
X00942939Y00878234D01*
X00941932Y00877562D01*
X00940997Y00878497D01*
X00940081Y00879109D01*
X00939000Y00879324D01*
X00939000Y00879324D01*
X00920258D01*
X00919884Y00879884D01*
X00918561Y00880768D01*
X00917000Y00881078D01*
X00915439Y00880768D01*
X00914116Y00879884D01*
X00913232Y00878561D01*
X00912922Y00877000D01*
X00913232Y00875439D01*
X00914116Y00874116D01*
X00915439Y00873232D01*
X00917000Y00872922D01*
X00918561Y00873232D01*
X00919225Y00873676D01*
X00936953D01*
X00937188Y00873324D01*
X00936509Y00872054D01*
X00920250D01*
X00919177Y00871840D01*
X00918267Y00871233D01*
X00905017Y00857983D01*
X00904410Y00857073D01*
X00904196Y00856000D01*
Y00843500D01*
X00904410Y00842427D01*
X00905017Y00841517D01*
X00923283Y00823252D01*
X00923866Y00822134D01*
X00922982Y00820811D01*
X00922672Y00819250D01*
X00922982Y00817689D01*
X00923866Y00816366D01*
X00925189Y00815482D01*
X00926750Y00815172D01*
X00928311Y00815482D01*
X00929634Y00816366D01*
X00930518Y00817689D01*
X00930828Y00819250D01*
X00930518Y00820811D01*
X00929634Y00822134D01*
X00929554Y00822187D01*
Y00823750D01*
X00929340Y00824823D01*
X00928733Y00825733D01*
X00909804Y00844661D01*
Y00854839D01*
X00921411Y00866446D01*
X00942158D01*
X00942325Y00866413D01*
X00956256D01*
X00957329Y00866626D01*
X00958239Y00867234D01*
X00963451Y00872446D01*
X00990000D01*
X00991073Y00872660D01*
X00991983Y00873267D01*
X00996983Y00878267D01*
X00997590Y00879177D01*
X00997804Y00880250D01*
Y00890615D01*
X00999074Y00891141D01*
X01010212Y00880003D01*
X01010212Y00880003D01*
X01011128Y00879391D01*
X01012209Y00879176D01*
X01016826D01*
X01016866Y00879116D01*
X01018189Y00878232D01*
X01019750Y00877922D01*
X01021311Y00878232D01*
X01021789Y00878552D01*
X01028399Y00871942D01*
Y00849606D01*
X01028339Y00849566D01*
X01027592Y00848448D01*
X01026216Y00848028D01*
X01022997Y00851247D01*
X01022081Y00851859D01*
X01021000Y00852074D01*
X01021000Y00852074D01*
X01016194D01*
X01016069Y00853344D01*
X01016616Y00853453D01*
X01017773Y00854227D01*
X01023273Y00859727D01*
X01024047Y00860884D01*
X01024319Y00862250D01*
X01024301Y00862339D01*
Y00869601D01*
X01024500Y00869899D01*
X01024811Y00871460D01*
X01024500Y00873021D01*
X01023616Y00874344D01*
X01022293Y00875228D01*
X01020732Y00875538D01*
X01019172Y00875228D01*
X01017848Y00874344D01*
X01016964Y00873021D01*
X01016654Y00871460D01*
X01016964Y00869899D01*
X01017164Y00869601D01*
Y00863710D01*
X01013772Y00860319D01*
X00976478D01*
X00974338Y00862459D01*
X00974268Y00862811D01*
X00973384Y00864134D01*
X00973351Y00864156D01*
X00973736Y00865426D01*
X01007786D01*
X01007982Y00864439D01*
X01008866Y00863116D01*
X01010189Y00862232D01*
X01011750Y00861922D01*
X01013311Y00862232D01*
X01014634Y00863116D01*
X01015518Y00864439D01*
X01015828Y00866000D01*
X01015518Y00867561D01*
X01014634Y00868884D01*
X01013311Y00869768D01*
X01011750Y00870078D01*
X01011680Y00870064D01*
X01011497Y00870247D01*
X01010581Y00870859D01*
X01009500Y00871074D01*
X01009500Y00871074D01*
X00967250D01*
X00967250Y00871074D01*
X00966169Y00870859D01*
X00965253Y00870247D01*
X00965253Y00870247D01*
X00957830Y00862824D01*
X00922300D01*
X00921220Y00862609D01*
X00920303Y00861997D01*
X00920303Y00861997D01*
X00914253Y00855947D01*
X00913641Y00855030D01*
X00913426Y00853950D01*
X00913426Y00853949D01*
Y00845750D01*
X00913426Y00845750D01*
X00913641Y00844669D01*
X00914253Y00843753D01*
X00934176Y00823830D01*
Y00797174D01*
X00934116Y00797134D01*
X00933232Y00795811D01*
X00932922Y00794250D01*
X00933232Y00792689D01*
X00934116Y00791366D01*
X00935439Y00790482D01*
X00937000Y00790172D01*
X00938561Y00790482D01*
X00939884Y00791366D01*
X00939924Y00791426D01*
X00954080D01*
X00987003Y00758503D01*
X00987919Y00757891D01*
X00989000Y00757676D01*
X00996576D01*
X00996616Y00757616D01*
X00997939Y00756732D01*
X00999500Y00756422D01*
X01001061Y00756732D01*
X01002384Y00757616D01*
X01003268Y00758939D01*
X01003578Y00760500D01*
X01003268Y00762061D01*
X01002384Y00763384D01*
X01001061Y00764268D01*
X00999500Y00764578D01*
X00997939Y00764268D01*
X00996616Y00763384D01*
X00996576Y00763324D01*
X00990170D01*
X00957247Y00796247D01*
X00956331Y00796859D01*
X00955250Y00797074D01*
X00955250Y00797074D01*
X00939924D01*
X00939884Y00797134D01*
X00939824Y00797174D01*
Y00825000D01*
X00939609Y00826081D01*
X00938997Y00826997D01*
X00927428Y00838566D01*
X00928238Y00839552D01*
X00928899Y00839110D01*
X00929795Y00838932D01*
Y00844291D01*
X00932295D01*
Y00838932D01*
X00933191Y00839110D01*
X00935011Y00840326D01*
X00936226Y00842145D01*
X00936653Y00844291D01*
X00937776Y00845158D01*
X00938356Y00845274D01*
X00939680Y00846158D01*
X00940564Y00847481D01*
X00940625Y00847790D01*
X00942011Y00849176D01*
X00971736D01*
X00972411Y00847906D01*
X00971569Y00846646D01*
X00971391Y00845750D01*
X00976750D01*
Y00844500D01*
X00978000D01*
Y00839141D01*
X00978896Y00839319D01*
X00980715Y00840535D01*
X00981416Y00841583D01*
X00982689Y00840732D01*
X00983107Y00840649D01*
X00992252Y00831504D01*
X00991982Y00830296D01*
X00991809Y00830151D01*
X00990035Y00828965D01*
X00989249Y00827790D01*
X00987751D01*
X00986965Y00828965D01*
X00985146Y00830181D01*
X00984250Y00830359D01*
Y00825000D01*
X00983000D01*
Y00823750D01*
X00977641D01*
X00977819Y00822854D01*
X00979035Y00821035D01*
X00980210Y00820249D01*
Y00818751D01*
X00979035Y00817965D01*
X00977819Y00816146D01*
X00977641Y00815250D01*
X00983000D01*
Y00812750D01*
X00977641D01*
X00977819Y00811854D01*
X00979035Y00810035D01*
X00980210Y00809249D01*
Y00807751D01*
X00979035Y00806965D01*
X00977819Y00805146D01*
X00977641Y00804250D01*
X00983000D01*
Y00801750D01*
X00977641D01*
X00977819Y00800854D01*
X00979035Y00799035D01*
X00980210Y00798249D01*
Y00796751D01*
X00979035Y00795965D01*
X00977819Y00794146D01*
X00977641Y00793250D01*
X00983000D01*
Y00792000D01*
X00984250D01*
Y00786641D01*
X00985146Y00786819D01*
X00986965Y00788035D01*
X00987751Y00789210D01*
X00989249D01*
X00990035Y00788035D01*
X00991854Y00786819D01*
X00992750Y00786641D01*
Y00792000D01*
X00994000D01*
Y00793250D01*
X00999359D01*
X00999181Y00794146D01*
X00997965Y00795965D01*
X00996790Y00796751D01*
Y00798249D01*
X00997965Y00799035D01*
X00999181Y00800854D01*
X00999359Y00801750D01*
X00994000D01*
Y00804250D01*
X00999359D01*
X00999181Y00805146D01*
X00997965Y00806965D01*
X00996790Y00807751D01*
Y00809249D01*
X00997965Y00810035D01*
X00999181Y00811854D01*
X00999359Y00812750D01*
X00994000D01*
Y00815250D01*
X00999359D01*
X00999181Y00816146D01*
X00997965Y00817965D01*
X00996790Y00818751D01*
Y00820249D01*
X00997965Y00821035D01*
X00999151Y00822809D01*
X00999296Y00822983D01*
X01000504Y00823252D01*
X01003003Y00820753D01*
X01003919Y00820141D01*
X01005000Y00819926D01*
X01012076D01*
X01012116Y00819866D01*
X01012225Y00819794D01*
Y00806473D01*
X01012165Y00806433D01*
X01011281Y00805110D01*
X01010971Y00803549D01*
X01011281Y00801988D01*
X01012165Y00800665D01*
X01012225Y00800625D01*
Y00791276D01*
X01012225Y00791276D01*
X01012440Y00790195D01*
X01013052Y00789279D01*
X01019044Y00783288D01*
X01012580Y00776824D01*
X00994674D01*
X00994634Y00776884D01*
X00993311Y00777768D01*
X00991750Y00778078D01*
X00990189Y00777768D01*
X00988866Y00776884D01*
X00987982Y00775561D01*
X00987672Y00774000D01*
X00987982Y00772439D01*
X00988866Y00771116D01*
X00990189Y00770232D01*
X00991750Y00769922D01*
X00993311Y00770232D01*
X00994634Y00771116D01*
X00994674Y00771176D01*
X01013750D01*
X01013750Y00771176D01*
X01014831Y00771391D01*
X01015747Y00772003D01*
X01023680Y00779936D01*
X01023750Y00779922D01*
X01025311Y00780232D01*
X01026634Y00781116D01*
X01027518Y00782439D01*
X01027828Y00784000D01*
X01027518Y00785561D01*
X01026634Y00786884D01*
X01025311Y00787768D01*
X01023750Y00788078D01*
X01022491Y00787828D01*
X01017873Y00792446D01*
Y00800625D01*
X01017933Y00800665D01*
X01018817Y00801988D01*
X01019127Y00803549D01*
X01018817Y00805110D01*
X01017933Y00806433D01*
X01017873Y00806473D01*
Y00814615D01*
X01019143Y00815294D01*
X01019854Y00814819D01*
X01020750Y00814641D01*
Y00820000D01*
X01023250D01*
Y00814641D01*
X01024146Y00814819D01*
X01025965Y00816035D01*
X01026629Y00817028D01*
X01028248Y00817205D01*
X01041681Y00803772D01*
Y00753131D01*
X01040411Y00752668D01*
X01039191Y00753484D01*
X01039062Y00753717D01*
X01038853Y00754580D01*
X01038834Y00754988D01*
X01039457Y00755921D01*
X01039768Y00757482D01*
X01039457Y00759043D01*
X01038573Y00760366D01*
X01037250Y00761250D01*
X01035689Y00761560D01*
X01034128Y00761250D01*
X01032805Y00760366D01*
X01032766Y00760306D01*
X01027590D01*
X01027500Y00760324D01*
X01026419Y00760109D01*
X01025503Y00759497D01*
X01025503Y00759497D01*
X01011830Y00745824D01*
X00984238D01*
X00983328Y00747094D01*
X00983359Y00747250D01*
X00972641D01*
X00972672Y00747094D01*
X00971762Y00745824D01*
X00967420D01*
X00920824Y00792420D01*
Y00822000D01*
X00920824Y00822000D01*
X00920609Y00823081D01*
X00919997Y00823997D01*
X00919997Y00823997D01*
X00897497Y00846497D01*
X00896581Y00847109D01*
X00895500Y00847324D01*
X00895500Y00847324D01*
X00895099D01*
X00894799Y00847762D01*
X00894536Y00848594D01*
X00895268Y00849689D01*
X00895578Y00851250D01*
X00895268Y00852811D01*
X00894782Y00853538D01*
X00903497Y00862253D01*
X00904109Y00863169D01*
X00904324Y00864250D01*
X00904324Y00864250D01*
Y00889615D01*
X00904324Y00889615D01*
X00904109Y00890696D01*
X00903497Y00891612D01*
X00903497Y00891612D01*
X00895779Y00899330D01*
Y00908424D01*
X00896906Y00909551D01*
X00899601D01*
X00899986Y00908281D01*
X00899616Y00908034D01*
X00898732Y00906711D01*
X00898422Y00905150D01*
X00898732Y00903589D01*
X00899616Y00902266D01*
X00900939Y00901382D01*
X00901794Y00901212D01*
X00920443Y00882563D01*
X00920443Y00882563D01*
X00921359Y00881951D01*
X00922440Y00881736D01*
X00922440Y00881736D01*
X00981766D01*
X00981806Y00881676D01*
X00983129Y00880792D01*
X00984690Y00880482D01*
X00986251Y00880792D01*
X00987574Y00881676D01*
X00988458Y00882999D01*
X00988768Y00884560D01*
X00988458Y00886121D01*
X00987574Y00887444D01*
X00986251Y00888328D01*
X00984690Y00888638D01*
X00983129Y00888328D01*
X00981806Y00887444D01*
X00981766Y00887384D01*
X00923610D01*
X00906457Y00904538D01*
X00906578Y00905150D01*
X00906268Y00906711D01*
X00905384Y00908034D01*
X00905014Y00908281D01*
X00905399Y00909551D01*
X00932096D01*
X00932947Y00908281D01*
X00932891Y00908000D01*
X00943609D01*
X00943553Y00908281D01*
X00944404Y00909551D01*
X01009844D01*
X01011032Y00908363D01*
X01010693Y00906906D01*
X01009285Y00905965D01*
X01008069Y00904146D01*
X01007891Y00903250D01*
X01013250D01*
Y00902000D01*
X01014500D01*
Y00896641D01*
X01015396Y00896819D01*
X01017215Y00898035D01*
X01017321Y00898194D01*
X01019049Y00898493D01*
X01019439Y00898232D01*
X01021000Y00897922D01*
X01022561Y00898232D01*
X01023884Y00899116D01*
X01024768Y00900439D01*
X01025078Y00902000D01*
X01024768Y00903561D01*
X01023884Y00904884D01*
X01022561Y00905768D01*
X01021000Y00906078D01*
X01020605Y00906000D01*
X01015327Y00911278D01*
X01015813Y00912451D01*
X01027944D01*
X01039636Y00900760D01*
D02*
G37*
G36*
X01045124Y00917852D02*
X01044819Y00917396D01*
X01044641Y00916500D01*
X01050000D01*
Y00914000D01*
X01044641D01*
X01044819Y00913104D01*
X01046035Y00911285D01*
X01047854Y00910069D01*
X01049637Y00909714D01*
Y00909250D01*
X01060196D01*
Y00906750D01*
X01049637D01*
Y00903500D01*
X01049870Y00902329D01*
X01050533Y00901337D01*
X01051454Y00900722D01*
X01051072Y00899800D01*
Y00890800D01*
X01051548Y00889652D01*
X01051583Y00889637D01*
Y00888263D01*
X01051548Y00888248D01*
X01051072Y00887100D01*
Y00885414D01*
X01049802Y00884818D01*
X01048447Y00885724D01*
X01047551Y00885902D01*
Y00880543D01*
X01046301D01*
Y00879293D01*
X01040942D01*
X01041120Y00878397D01*
X01042336Y00876578D01*
X01044155Y00875362D01*
X01045272Y00875140D01*
X01045425Y00874671D01*
X01045573Y00873785D01*
X01044783Y00872603D01*
X01044473Y00871042D01*
X01044783Y00869482D01*
X01045667Y00868159D01*
X01046990Y00867275D01*
X01048551Y00866964D01*
X01048926Y00867039D01*
X01049551Y00865868D01*
X01047680Y00863997D01*
X01046740Y00863810D01*
X01045417Y00862926D01*
X01044533Y00861603D01*
X01044223Y00860042D01*
X01044533Y00858481D01*
X01045417Y00857158D01*
X01045296Y00855712D01*
X01044732Y00854867D01*
X01044422Y00853307D01*
X01044732Y00851746D01*
X01045189Y00851063D01*
X01045189Y00849941D01*
X01044811Y00849515D01*
X01043866Y00848884D01*
X01042982Y00847561D01*
X01042672Y00846000D01*
X01042982Y00844439D01*
X01043866Y00843116D01*
X01045189Y00842232D01*
X01046750Y00841922D01*
X01048311Y00842232D01*
X01049634Y00843116D01*
X01049674Y00843176D01*
X01051072D01*
Y00839750D01*
X01051382Y00839004D01*
X01051490Y00838150D01*
X01051382Y00837296D01*
X01051072Y00836550D01*
Y00827050D01*
X01051382Y00826304D01*
X01051490Y00825450D01*
X01051382Y00824596D01*
X01051072Y00823850D01*
Y00814350D01*
X01051382Y00813604D01*
X01051490Y00812750D01*
X01051382Y00811896D01*
X01051072Y00811150D01*
Y00801650D01*
X01051382Y00800904D01*
X01051490Y00800050D01*
X01051382Y00799196D01*
X01051072Y00798450D01*
Y00788950D01*
X01051382Y00788204D01*
X01051490Y00787350D01*
X01051382Y00786496D01*
X01051072Y00785750D01*
Y00776250D01*
X01051382Y00775504D01*
X01051490Y00774650D01*
X01051382Y00773796D01*
X01051072Y00773050D01*
Y00763550D01*
X01051382Y00762804D01*
X01051490Y00761950D01*
X01051382Y00761096D01*
X01051072Y00760350D01*
Y00750850D01*
X01051382Y00750104D01*
X01051490Y00749250D01*
X01051382Y00748396D01*
X01051072Y00747650D01*
Y00738150D01*
X01051548Y00737002D01*
X01052696Y00736526D01*
X01061084D01*
X01061763Y00735256D01*
X01061261Y00734506D01*
X01060912Y00732750D01*
X01061261Y00730994D01*
X01062256Y00729506D01*
X01063744Y00728511D01*
X01065500Y00728162D01*
X01067256Y00728511D01*
X01067562Y00728716D01*
X01068832Y00728037D01*
Y00720090D01*
X01035939D01*
X01034897Y00721360D01*
X01034905Y00721400D01*
Y00727650D01*
X01027096D01*
Y00728900D01*
X01025846D01*
Y00739459D01*
X01022346D01*
X01021176Y00739226D01*
X01020183Y00738563D01*
X01019676Y00737804D01*
X01019146Y00738024D01*
X01009646D01*
X01008498Y00737548D01*
X01007594Y00737548D01*
X01006446Y00738024D01*
X00996946D01*
X00995798Y00737548D01*
X00994894Y00737548D01*
X00993746Y00738024D01*
X00984246D01*
X00983098Y00737548D01*
X00982194Y00737548D01*
X00981046Y00738024D01*
X00971546D01*
X00970398Y00737548D01*
X00969494Y00737548D01*
X00968346Y00738024D01*
X00958846D01*
X00957698Y00737548D01*
X00956794Y00737548D01*
X00955646Y00738024D01*
X00946146D01*
X00944998Y00737548D01*
X00944094Y00737548D01*
X00942946Y00738024D01*
X00933446D01*
X00932298Y00737548D01*
X00931394Y00737548D01*
X00930246Y00738024D01*
X00920746D01*
X00920216Y00737804D01*
X00919709Y00738563D01*
X00918717Y00739226D01*
X00917546Y00739459D01*
X00914046D01*
Y00728900D01*
X00912796D01*
Y00727650D01*
X00904987D01*
Y00721400D01*
X00904995Y00721360D01*
X00903953Y00720090D01*
X00870712D01*
Y00735766D01*
X00871982Y00736615D01*
X00872196Y00736526D01*
X00887196D01*
X00888344Y00737002D01*
X00888820Y00738150D01*
Y00747650D01*
X00888511Y00748396D01*
X00888402Y00749250D01*
X00888511Y00750104D01*
X00888820Y00750850D01*
Y00760350D01*
X00888511Y00761096D01*
X00888402Y00761950D01*
X00888511Y00762804D01*
X00888820Y00763550D01*
Y00773050D01*
X00888511Y00773796D01*
X00888402Y00774650D01*
X00888511Y00775504D01*
X00888820Y00776250D01*
Y00785750D01*
X00888511Y00786496D01*
X00888402Y00787350D01*
X00888511Y00788204D01*
X00888820Y00788950D01*
Y00798450D01*
X00888511Y00799196D01*
X00888402Y00800050D01*
X00888511Y00800904D01*
X00888820Y00801650D01*
Y00811150D01*
X00888511Y00811896D01*
X00888402Y00812750D01*
X00888511Y00813604D01*
X00888820Y00814350D01*
Y00823850D01*
X00888511Y00824596D01*
X00888344Y00825902D01*
X00888363Y00825949D01*
X00889609Y00826197D01*
X00891553Y00824253D01*
X00891553Y00824253D01*
X00892469Y00823641D01*
X00893550Y00823426D01*
X00898580D01*
X00903564Y00818442D01*
X00903564Y00818442D01*
X00904480Y00817830D01*
X00904693Y00817787D01*
X00904848Y00817555D01*
X00906171Y00816671D01*
X00907732Y00816361D01*
X00909293Y00816671D01*
X00910616Y00817555D01*
X00911500Y00818878D01*
X00911810Y00820439D01*
X00911500Y00822000D01*
X00910616Y00823323D01*
X00909293Y00824207D01*
X00907732Y00824518D01*
X00906171Y00824207D01*
X00905941Y00824053D01*
X00901747Y00828247D01*
X00900831Y00828859D01*
X00899750Y00829074D01*
X00899750Y00829074D01*
X00894720D01*
X00889997Y00833797D01*
X00889081Y00834409D01*
X00888820Y00834461D01*
Y00836550D01*
X00888511Y00837296D01*
X00888402Y00838150D01*
X00888511Y00839004D01*
X00888820Y00839750D01*
Y00841676D01*
X00894330D01*
X00915176Y00820830D01*
Y00791250D01*
X00915176Y00791250D01*
X00915391Y00790169D01*
X00916003Y00789253D01*
X00964253Y00741003D01*
X00964253Y00741003D01*
X00965169Y00740391D01*
X00966250Y00740176D01*
X00966250Y00740176D01*
X01013000D01*
X01013000Y00740176D01*
X01014081Y00740391D01*
X01014997Y00741003D01*
X01028652Y00754658D01*
X01032125D01*
X01032915Y00753905D01*
X01032826Y00752493D01*
X01032785Y00752465D01*
X01031569Y00750646D01*
X01031391Y00749750D01*
X01036750D01*
Y00748500D01*
X01038000D01*
Y00743141D01*
X01038896Y00743319D01*
X01040411Y00744332D01*
X01041681Y00743869D01*
Y00735250D01*
X01041953Y00733884D01*
X01042727Y00732727D01*
X01050727Y00724727D01*
X01051884Y00723953D01*
X01053250Y00723681D01*
X01054391D01*
X01054689Y00723482D01*
X01056250Y00723172D01*
X01057811Y00723482D01*
X01059134Y00724366D01*
X01060018Y00725689D01*
X01060328Y00727250D01*
X01060018Y00728811D01*
X01059134Y00730134D01*
X01057811Y00731018D01*
X01056250Y00731328D01*
X01054689Y00731018D01*
X01054593Y00730954D01*
X01048819Y00736728D01*
Y00805250D01*
X01048547Y00806616D01*
X01047773Y00807773D01*
X01022023Y00833523D01*
X01020866Y00834297D01*
X01019500Y00834569D01*
X01013817D01*
X01013027Y00835839D01*
X01013109Y00836250D01*
X01007750D01*
Y00837500D01*
X01006500D01*
Y00842859D01*
X01005604Y00842681D01*
X01003785Y00841465D01*
X01002821Y00840022D01*
X01001377Y00839669D01*
X00995276Y00845771D01*
X00995268Y00845811D01*
X00995069Y00846109D01*
Y00846500D01*
X00994797Y00847866D01*
X00994023Y00849023D01*
X00991039Y00852008D01*
X00991525Y00853181D01*
X00996905D01*
X00997214Y00852727D01*
X00997468Y00851911D01*
X00996732Y00850811D01*
X00996422Y00849250D01*
X00996732Y00847689D01*
X00997616Y00846366D01*
X00998939Y00845482D01*
X01000500Y00845172D01*
X01002061Y00845482D01*
X01003384Y00846366D01*
X01003424Y00846426D01*
X01019830D01*
X01027186Y00839070D01*
X01027172Y00839000D01*
X01027482Y00837439D01*
X01027999Y00836666D01*
X01028366Y00835384D01*
X01027482Y00834061D01*
X01027172Y00832500D01*
X01027482Y00830939D01*
X01028366Y00829616D01*
X01029689Y00828732D01*
X01031250Y00828422D01*
X01032811Y00828732D01*
X01034134Y00829616D01*
X01035018Y00830939D01*
X01035101Y00831357D01*
X01038247Y00834503D01*
X01038247Y00834503D01*
X01038342Y00834645D01*
X01038517Y00834820D01*
X01039129Y00835736D01*
X01039344Y00836817D01*
Y00843986D01*
X01039317Y00844121D01*
Y00852229D01*
X01039324Y00852264D01*
Y00893326D01*
X01039384Y00893366D01*
X01040268Y00894689D01*
X01040522Y00895967D01*
X01041117Y00896320D01*
X01041265Y00896377D01*
X01041820Y00896480D01*
X01042939Y00895732D01*
X01044500Y00895422D01*
X01046061Y00895732D01*
X01047384Y00896616D01*
X01048268Y00897939D01*
X01048578Y00899500D01*
X01048268Y00901061D01*
X01047384Y00902384D01*
X01046061Y00903268D01*
X01044500Y00903578D01*
X01044105Y00903500D01*
X01030802Y00916802D01*
X01029976Y00917355D01*
X01029000Y00917549D01*
X00891895D01*
X00890920Y00917355D01*
X00890093Y00916802D01*
X00888516Y00915226D01*
X00888366Y00915326D01*
X00887196Y00915559D01*
X00880946D01*
Y00908000D01*
X00878446D01*
Y00915559D01*
X00872196D01*
X00871982Y00915516D01*
X00870712Y00916528D01*
Y00918972D01*
X01044525D01*
X01045124Y00917852D01*
D02*
G37*
%LPC*%
G36*
X00979250Y00753859D02*
Y00749750D01*
X00983359D01*
X00983181Y00750646D01*
X00981965Y00752465D01*
X00980146Y00753681D01*
X00979250Y00753859D01*
D02*
G37*
G36*
X00976750D02*
X00975854Y00753681D01*
X00974035Y00752465D01*
X00972819Y00750646D01*
X00972641Y00749750D01*
X00976750D01*
Y00753859D01*
D02*
G37*
G36*
X01012000Y00900750D02*
X01007891D01*
X01008069Y00899854D01*
X01009285Y00898035D01*
X01011104Y00896819D01*
X01012000Y00896641D01*
Y00900750D01*
D02*
G37*
G36*
X00943609Y00905500D02*
X00939500D01*
Y00901391D01*
X00940396Y00901569D01*
X00942215Y00902785D01*
X00943431Y00904604D01*
X00943609Y00905500D01*
D02*
G37*
G36*
X00937000D02*
X00932891D01*
X00933069Y00904604D01*
X00934285Y00902785D01*
X00936104Y00901569D01*
X00937000Y00901391D01*
Y00905500D01*
D02*
G37*
G36*
X00975500Y00843250D02*
X00971391D01*
X00971569Y00842354D01*
X00972785Y00840535D01*
X00974604Y00839319D01*
X00975500Y00839141D01*
Y00843250D01*
D02*
G37*
G36*
X00999359Y00790750D02*
X00995250D01*
Y00786641D01*
X00996146Y00786819D01*
X00997965Y00788035D01*
X00999181Y00789854D01*
X00999359Y00790750D01*
D02*
G37*
G36*
X00981750D02*
X00977641D01*
X00977819Y00789854D01*
X00979035Y00788035D01*
X00980854Y00786819D01*
X00981750Y00786641D01*
Y00790750D01*
D02*
G37*
G36*
Y00830359D02*
X00980854Y00830181D01*
X00979035Y00828965D01*
X00977819Y00827146D01*
X00977641Y00826250D01*
X00981750D01*
Y00830359D01*
D02*
G37*
G36*
X00900500Y00769859D02*
Y00765750D01*
X00904609D01*
X00904431Y00766646D01*
X00903215Y00768465D01*
X00901396Y00769681D01*
X00900500Y00769859D01*
D02*
G37*
G36*
X00898000Y00763250D02*
X00893891D01*
X00894069Y00762354D01*
X00895285Y00760535D01*
X00897104Y00759319D01*
X00898000Y00759141D01*
Y00763250D01*
D02*
G37*
G36*
Y00769859D02*
X00897104Y00769681D01*
X00895285Y00768465D01*
X00894069Y00766646D01*
X00893891Y00765750D01*
X00898000D01*
Y00769859D01*
D02*
G37*
G36*
X00904609Y00763250D02*
X00900500D01*
Y00759141D01*
X00901396Y00759319D01*
X00903215Y00760535D01*
X00904431Y00762354D01*
X00904609Y00763250D01*
D02*
G37*
G36*
X01031846Y00739459D02*
X01028346D01*
Y00730150D01*
X01034905D01*
Y00736400D01*
X01034672Y00737570D01*
X01034009Y00738563D01*
X01033017Y00739226D01*
X01031846Y00739459D01*
D02*
G37*
G36*
X00911546D02*
X00908046D01*
X00906876Y00739226D01*
X00905883Y00738563D01*
X00905220Y00737570D01*
X00904987Y00736400D01*
Y00730150D01*
X00911546D01*
Y00739459D01*
D02*
G37*
G36*
X01035500Y00747250D02*
X01031391D01*
X01031569Y00746354D01*
X01032785Y00744535D01*
X01034604Y00743319D01*
X01035500Y00743141D01*
Y00747250D01*
D02*
G37*
G36*
X01045051Y00885902D02*
X01044155Y00885724D01*
X01042336Y00884508D01*
X01041120Y00882689D01*
X01040942Y00881793D01*
X01045051D01*
Y00885902D01*
D02*
G37*
G36*
X01009000Y00842859D02*
Y00838750D01*
X01013109D01*
X01012931Y00839646D01*
X01011715Y00841465D01*
X01009896Y00842681D01*
X01009000Y00842859D01*
D02*
G37*
%LPD*%
D10*
X01060196Y00908000D02*
D03*
Y00895300D02*
D03*
Y00882600D02*
D03*
X00879696D02*
D03*
Y00895300D02*
D03*
Y00908000D02*
D03*
D11*
X01060196Y00869900D02*
D03*
Y00857200D02*
D03*
Y00844500D02*
D03*
Y00831800D02*
D03*
Y00819100D02*
D03*
Y00806400D02*
D03*
Y00793700D02*
D03*
Y00781000D02*
D03*
Y00768300D02*
D03*
Y00755600D02*
D03*
Y00742900D02*
D03*
X00879696D02*
D03*
Y00755600D02*
D03*
Y00768300D02*
D03*
Y00781000D02*
D03*
Y00793700D02*
D03*
Y00806400D02*
D03*
Y00819100D02*
D03*
Y00831800D02*
D03*
Y00844500D02*
D03*
Y00857200D02*
D03*
Y00869900D02*
D03*
D12*
X01027096Y00728900D02*
D03*
X01014396D02*
D03*
X01001696D02*
D03*
X00988996D02*
D03*
X00976296D02*
D03*
X00963596D02*
D03*
X00950896D02*
D03*
X00938196D02*
D03*
X00925496D02*
D03*
X00912796D02*
D03*
D13*
X01057096Y00868500D02*
X01059346Y00870750D01*
X01056177Y00868500D02*
X01057096D01*
X01048301Y00860624D02*
X01056177Y00868500D01*
X01012209Y00882000D02*
X01019750D01*
X00996245Y00897964D02*
X01012209Y00882000D01*
X00958627Y00897964D02*
X00996245D01*
X00956797Y00899794D02*
X00958627Y00897964D01*
X00902500Y00904500D02*
Y00905150D01*
X00901500Y00864250D02*
Y00889615D01*
X00893230Y00897885D02*
X00901500Y00889615D01*
X00902500Y00904500D02*
X00922440Y00884560D01*
X00891500Y00854250D02*
X00901500Y00864250D01*
X00891500Y00851250D02*
Y00854250D01*
X00922440Y00884560D02*
X00984690D01*
X00940841Y00852000D02*
X00976750D01*
X00936796Y00847954D02*
X00940841Y00852000D01*
X00976750D02*
X00984250Y00844500D01*
X00955250Y00794250D02*
X00989000Y00760500D01*
X00999500D01*
X00966250Y00743000D02*
X01013000D01*
X00918000Y00791250D02*
X00966250Y00743000D01*
X01027518Y00757482D02*
X01035689D01*
X01027500Y00757500D02*
X01027518Y00757482D01*
X01013000Y00743000D02*
X01027500Y00757500D01*
X01031250Y00832500D02*
X01032250D01*
X00967250Y00868250D02*
X01009500D01*
X00959000Y00860000D02*
X00967250Y00868250D01*
X00922300Y00860000D02*
X00959000D01*
X01009500Y00868250D02*
X01011750Y00866000D01*
X00937000Y00794250D02*
Y00825000D01*
X00916250Y00845750D02*
X00937000Y00825000D01*
X00916250Y00845750D02*
Y00853950D01*
X00931545Y00854292D02*
X00936796Y00849041D01*
Y00847954D02*
Y00849041D01*
X00927545Y00854292D02*
X00931545D01*
X00916250Y00853950D02*
X00922300Y00860000D01*
X01021000Y00849250D02*
X01031250Y00839000D01*
X01000500Y00849250D02*
X01021000D01*
X00984250Y00843500D02*
X01005000Y00822750D01*
X00984250Y00843500D02*
Y00844500D01*
X01005000Y00822750D02*
X01015000D01*
X01048696Y00875446D02*
X01055850Y00882600D01*
X01060196D01*
X01048696Y00873233D02*
Y00875446D01*
X01036500Y00852264D02*
Y00896250D01*
X01022335Y00882000D02*
X01031250Y00873085D01*
X01031223Y00873058D02*
X01031250Y00873085D01*
X01031223Y00846682D02*
Y00873058D01*
X01036493Y00852257D02*
X01036500Y00852264D01*
X01036493Y00843960D02*
Y00852257D01*
Y00843960D02*
X01036520Y00843986D01*
Y00836817D02*
Y00843986D01*
X01036250Y00836547D02*
X01036520Y00836817D01*
X01036250Y00836500D02*
Y00836547D01*
X01032250Y00832500D02*
X01036250Y00836500D01*
X01048551Y00871042D02*
Y00873088D01*
X01048696Y00873233D01*
X01048301Y00860042D02*
Y00860624D01*
X01048500Y00853307D02*
X01055219D01*
X01059204Y00857292D01*
X01019750Y00882000D02*
X01022335D01*
X01046750Y00846000D02*
X01058696D01*
X01060196Y00844500D01*
X01059746Y00856750D02*
X01060196Y00857200D01*
X01015049Y00791276D02*
Y00803549D01*
Y00791276D02*
X01022325Y00784000D01*
X01023750D01*
X01013750Y00774000D02*
X01023750Y00784000D01*
X00991750Y00774000D02*
X01013750D01*
X00917000Y00876500D02*
Y00877000D01*
X00937000Y00794250D02*
X00955250D01*
X01015000Y00822750D02*
X01015049Y00822701D01*
Y00803549D02*
Y00822701D01*
X01059204Y00857292D02*
X01059746Y00856750D01*
X00888000Y00831800D02*
X00893550Y00826250D01*
X00879696Y00831800D02*
X00888000D01*
X00893550Y00826250D02*
X00899750D01*
X00905561Y00820439D01*
X00907732D01*
X00879696Y00844500D02*
X00895500D01*
X00918000Y00791250D02*
Y00822000D01*
X00917000Y00876500D02*
X00939000D01*
X01065500Y00732750D02*
Y00737596D01*
X01060196Y00742900D02*
X01065500Y00737596D01*
X00895500Y00844500D02*
X00918000Y00822000D01*
X00939000Y00876500D02*
X00941033Y00874467D01*
X00944500D01*
D14*
X00962015Y00902000D02*
X00999662D01*
X00958971Y00905044D02*
X00962015Y00902000D01*
X00954622Y00905044D02*
X00958971D01*
X00951547Y00901969D02*
X00954622Y00905044D01*
X00990000Y00875250D02*
X00995000Y00880250D01*
X00962289Y00875250D02*
X00990000D01*
X00956256Y00869217D02*
X00962289Y00875250D01*
X00995000Y00880250D02*
Y00891250D01*
X00991706Y00894544D02*
X00995000Y00891250D01*
X00954456Y00894544D02*
X00991706D01*
X00942325Y00869217D02*
X00956256D01*
X00942292Y00869250D02*
X00942325Y00869217D01*
X00920250Y00869250D02*
X00942292D01*
X00907000Y00856000D02*
X00920250Y00869250D01*
X00926750Y00819250D02*
Y00823750D01*
X00907000Y00843500D02*
X00926750Y00823750D01*
X00907000Y00843500D02*
Y00856000D01*
X00951547Y00897453D02*
X00954456Y00894544D01*
X00951547Y00897453D02*
Y00901969D01*
D15*
X00898000Y00865750D02*
Y00888250D01*
X00889790Y00896460D02*
X00898000Y00888250D01*
X00893230Y00897885D02*
Y00909480D01*
X00889790Y00896460D02*
Y00912895D01*
X00893230Y00909480D02*
X00895850Y00912100D01*
X01010900D01*
X00889790Y00912895D02*
X00891895Y00915000D01*
X01029000D01*
X01010900Y00912100D02*
X01021000Y00902000D01*
X01029000Y00915000D02*
X01044500Y00899500D01*
X01037760Y00752482D02*
X01039858Y00754580D01*
X01032518Y00752482D02*
X01037760D01*
X01031750Y00753250D02*
X01032518Y00752482D01*
X00879696Y00857200D02*
X00889450D01*
X00898000Y00865750D01*
X00879696Y00869900D02*
X00886100D01*
X00885742Y00869542D02*
X00886100Y00869900D01*
X00885742Y00869542D02*
X00891794D01*
D16*
X00981250Y00856750D02*
X00991500Y00846500D01*
X00970500Y00861250D02*
X00975000Y00856750D01*
X01015250D01*
X01020750Y00862250D01*
X01020732D02*
X01020750D01*
X01020732D02*
Y00871460D01*
X01045250Y00735250D02*
Y00805250D01*
X01019500Y00831000D02*
X01045250Y00805250D01*
X01005000Y00831000D02*
X01019500D01*
X00991368Y00844632D02*
X00991500Y00844765D01*
X00879696Y00882600D02*
Y00895300D01*
Y00882600D02*
X00886400D01*
X00891750Y00877250D01*
X00991500Y00844765D02*
Y00846500D01*
Y00844250D02*
Y00844500D01*
Y00844765D01*
X00991368Y00844632D02*
X00991500Y00844500D01*
X01005000Y00831000D01*
X01045250Y00735250D02*
X01053250Y00727250D01*
X01056250D01*
D17*
X01013250Y00902000D02*
D03*
X00999662D02*
D03*
X00938250Y00906750D02*
D03*
X00902500Y00905150D02*
D03*
X01050000Y00915250D02*
D03*
X01046301Y00880543D02*
D03*
X01022000Y00820000D02*
D03*
X00976750Y00844500D02*
D03*
X00999500Y00760500D02*
D03*
X01035689Y00757482D02*
D03*
X01031250Y00832500D02*
D03*
X00899250Y00764500D02*
D03*
X01036750Y00748500D02*
D03*
X00970500Y00861250D02*
D03*
X00931045Y00844291D02*
D03*
X00936796Y00849041D02*
D03*
X00927545Y00854292D02*
D03*
X01000500Y00849250D02*
D03*
X01011750Y00866000D02*
D03*
X00956797Y00899794D02*
D03*
X01044500Y00899500D02*
D03*
X01021000Y00902000D02*
D03*
X01036500Y00896250D02*
D03*
X01031223Y00846682D02*
D03*
X01031250Y00839000D02*
D03*
X01048551Y00871042D02*
D03*
X01048301Y00860042D02*
D03*
X01048500Y00853307D02*
D03*
X01046750Y00846000D02*
D03*
X00984250Y00844500D02*
D03*
X00991500Y00844250D02*
D03*
X01023750Y00784000D02*
D03*
X00983000Y00792000D02*
D03*
X00994000D02*
D03*
X00983000Y00803000D02*
D03*
X00994000D02*
D03*
X00983000Y00814000D02*
D03*
X00994000D02*
D03*
X00983000Y00825000D02*
D03*
X00994000D02*
D03*
X01007750Y00837500D02*
D03*
X00917000Y00877000D02*
D03*
X00891750Y00877250D02*
D03*
X00978000Y00748500D02*
D03*
X00991750Y00774000D02*
D03*
X00937000Y00794250D02*
D03*
X01015000Y00822750D02*
D03*
X01015049Y00803549D02*
D03*
X01056250Y00727250D02*
D03*
X00891500Y00851250D02*
D03*
X01019750Y00882000D02*
D03*
X01020732Y00871460D02*
D03*
X00984690Y00884560D02*
D03*
X00907732Y00820439D02*
D03*
X00926750Y00819250D02*
D03*
X00891794Y00869542D02*
D03*
X00944500Y00874467D02*
D03*
D18*
X01065500Y00732750D02*
D03*
M02*
