G04 Layer_Color=16711935*
%FSAX44Y44*%
%MOMM*%
G71*
G01*
G75*
%ADD36R,1.7032X1.1532*%
%ADD38C,0.7032*%
%ADD39R,1.0532X2.4032*%
%ADD40R,1.1532X1.1532*%
G04:AMPARAMS|DCode=41|XSize=0.7032mm|YSize=0.8032mm|CornerRadius=0.1641mm|HoleSize=0mm|Usage=FLASHONLY|Rotation=180.000|XOffset=0mm|YOffset=0mm|HoleType=Round|Shape=RoundedRectangle|*
%AMROUNDEDRECTD41*
21,1,0.7032,0.4750,0,0,180.0*
21,1,0.3750,0.8032,0,0,180.0*
1,1,0.3282,-0.1875,0.2375*
1,1,0.3282,0.1875,0.2375*
1,1,0.3282,0.1875,-0.2375*
1,1,0.3282,-0.1875,-0.2375*
%
%ADD41ROUNDEDRECTD41*%
G04:AMPARAMS|DCode=42|XSize=0.7032mm|YSize=0.8032mm|CornerRadius=0.1641mm|HoleSize=0mm|Usage=FLASHONLY|Rotation=90.000|XOffset=0mm|YOffset=0mm|HoleType=Round|Shape=RoundedRectangle|*
%AMROUNDEDRECTD42*
21,1,0.7032,0.4750,0,0,90.0*
21,1,0.3750,0.8032,0,0,90.0*
1,1,0.3282,0.2375,0.1875*
1,1,0.3282,0.2375,-0.1875*
1,1,0.3282,-0.2375,-0.1875*
1,1,0.3282,-0.2375,0.1875*
%
%ADD42ROUNDEDRECTD42*%
%ADD43R,0.7532X0.5032*%
%ADD44R,0.5032X0.7532*%
%ADD45R,2.8532X4.8532*%
%ADD46R,0.8032X0.6032*%
%ADD47R,0.6032X0.8032*%
%ADD48R,2.0232X1.3932*%
%ADD49R,2.4232X1.4232*%
%ADD50R,1.3932X2.0232*%
%ADD51R,0.9032X1.1032*%
%ADD52R,1.6032X0.6032*%
%ADD53R,2.1032X2.5032*%
D36*
X00979250Y00910750D02*
D03*
X00961750D02*
D03*
X00996750D02*
D03*
X01014250D02*
D03*
X00979500Y00893250D02*
D03*
X00996750D02*
D03*
X01014250D02*
D03*
X00884250Y00893500D02*
D03*
X00908000D02*
D03*
X00914000Y00909500D02*
D03*
X00884750D02*
D03*
D38*
X00983000Y00792000D02*
D03*
X00994000D02*
D03*
X00983000Y00803000D02*
D03*
X00994000D02*
D03*
X00983000Y00814000D02*
D03*
X00994000D02*
D03*
X00983000Y00825000D02*
D03*
X00994000D02*
D03*
D39*
X01028750Y00733250D02*
D03*
X01045500D02*
D03*
D40*
X01062000Y00860750D02*
D03*
Y00847600D02*
D03*
D41*
X01016000Y00778500D02*
D03*
Y00788500D02*
D03*
X01045250Y00751500D02*
D03*
Y00761500D02*
D03*
X00934250Y00776000D02*
D03*
Y00786000D02*
D03*
X01056500Y00768250D02*
D03*
Y00778250D02*
D03*
X00923500Y00875000D02*
D03*
Y00885000D02*
D03*
X00950749Y00890750D02*
D03*
Y00880750D02*
D03*
X00964749Y00890750D02*
D03*
Y00880750D02*
D03*
X00910500Y00843500D02*
D03*
Y00833500D02*
D03*
X00898500Y00833500D02*
D03*
Y00843500D02*
D03*
X00957195Y00788695D02*
D03*
Y00798695D02*
D03*
X01025000Y00851250D02*
D03*
Y00861250D02*
D03*
X00994250Y00766250D02*
D03*
Y00756250D02*
D03*
X01036250Y00862500D02*
D03*
Y00852500D02*
D03*
X01060750Y00750500D02*
D03*
Y00740500D02*
D03*
X01028750Y00761500D02*
D03*
Y00751500D02*
D03*
X00970500Y00749000D02*
D03*
Y00739000D02*
D03*
X00934250Y00740500D02*
D03*
Y00750500D02*
D03*
X01062500Y00877000D02*
D03*
Y00887000D02*
D03*
X01062500Y00912000D02*
D03*
Y00902000D02*
D03*
X00934250Y00802500D02*
D03*
Y00812500D02*
D03*
X01061000Y00813500D02*
D03*
Y00803500D02*
D03*
X01024500Y00837750D02*
D03*
Y00827750D02*
D03*
X00981500Y00756500D02*
D03*
Y00766500D02*
D03*
X01017500Y00760500D02*
D03*
Y00750500D02*
D03*
X00937000Y00885000D02*
D03*
Y00875000D02*
D03*
X00922500Y00843500D02*
D03*
Y00833500D02*
D03*
X00934250Y00836500D02*
D03*
Y00826500D02*
D03*
X00946000Y00798750D02*
D03*
Y00788750D02*
D03*
X01013500Y00857000D02*
D03*
Y00847000D02*
D03*
X01006000Y00756500D02*
D03*
Y00766500D02*
D03*
D42*
X00998500Y00742500D02*
D03*
X00988500D02*
D03*
X01038000Y00791000D02*
D03*
X01028000D02*
D03*
X00946750Y00811000D02*
D03*
X00956750D02*
D03*
X01050750Y00791000D02*
D03*
X01060750D02*
D03*
X00899000Y00870250D02*
D03*
X00909000D02*
D03*
X00956250Y00775500D02*
D03*
X00946250D02*
D03*
X01039250Y00875250D02*
D03*
X01029250D02*
D03*
X00909250Y00881750D02*
D03*
X00899250D02*
D03*
X01024250Y00802750D02*
D03*
X01034250D02*
D03*
X01027500Y00814000D02*
D03*
X01017500D02*
D03*
X00899000Y00859000D02*
D03*
X00909000D02*
D03*
X00925500Y00862250D02*
D03*
X00935500D02*
D03*
X00980750Y00852750D02*
D03*
X00990750D02*
D03*
X00953000Y00869000D02*
D03*
X00963000D02*
D03*
D43*
X00970750Y00786500D02*
D03*
Y00790500D02*
D03*
Y00794500D02*
D03*
Y00798500D02*
D03*
Y00802500D02*
D03*
Y00806500D02*
D03*
Y00810500D02*
D03*
Y00814500D02*
D03*
Y00818500D02*
D03*
Y00822500D02*
D03*
Y00826500D02*
D03*
Y00830500D02*
D03*
X01006250D02*
D03*
Y00826500D02*
D03*
Y00822500D02*
D03*
Y00818500D02*
D03*
Y00814500D02*
D03*
Y00810500D02*
D03*
Y00806500D02*
D03*
Y00802500D02*
D03*
Y00798500D02*
D03*
Y00794500D02*
D03*
Y00790500D02*
D03*
Y00786500D02*
D03*
D44*
X00976500Y00836250D02*
D03*
X00980500D02*
D03*
X00984500D02*
D03*
X00988500D02*
D03*
X00992500D02*
D03*
X00996500D02*
D03*
X01000500D02*
D03*
Y00780750D02*
D03*
X00996500D02*
D03*
X00992500D02*
D03*
X00988500D02*
D03*
X00984500D02*
D03*
X00980500D02*
D03*
X00976500D02*
D03*
D45*
X00988500Y00808500D02*
D03*
D46*
X01028750Y00890000D02*
D03*
Y00895000D02*
D03*
Y00900000D02*
D03*
Y00905000D02*
D03*
X01051750D02*
D03*
Y00900000D02*
D03*
Y00895000D02*
D03*
Y00890000D02*
D03*
D47*
X01035250Y00906500D02*
D03*
X01040250D02*
D03*
X01045250D02*
D03*
Y00888500D02*
D03*
X01040250D02*
D03*
X01035250D02*
D03*
D48*
X01044750Y00835100D02*
D03*
Y00818000D02*
D03*
X00950000Y00844550D02*
D03*
Y00827450D02*
D03*
D49*
X00952000Y00739450D02*
D03*
Y00760750D02*
D03*
D50*
X01000050Y00870500D02*
D03*
X00982950D02*
D03*
D51*
X01041500Y00775000D02*
D03*
X01026500D02*
D03*
D52*
X00918682Y00787296D02*
D03*
Y00780692D02*
D03*
Y00774088D02*
D03*
Y00767484D02*
D03*
Y00760880D02*
D03*
D53*
X00891250Y00736750D02*
D03*
Y00811680D02*
D03*
M02*
