G04 Layer_Physical_Order=2*
G04 Layer_Color=16711680*
%FSAX44Y44*%
%MOMM*%
G71*
G01*
G75*
%ADD11R,1.5000X0.9500*%
%ADD13C,0.2540*%
%ADD14C,0.2500*%
%ADD15C,0.2000*%
%ADD16C,0.4000*%
%ADD17C,0.5000*%
%ADD18C,0.6000*%
%ADD19R,0.8500X2.2000*%
%ADD20R,0.9500X0.9500*%
G04:AMPARAMS|DCode=21|XSize=0.5mm|YSize=0.6mm|CornerRadius=0.0625mm|HoleSize=0mm|Usage=FLASHONLY|Rotation=180.000|XOffset=0mm|YOffset=0mm|HoleType=Round|Shape=RoundedRectangle|*
%AMROUNDEDRECTD21*
21,1,0.5000,0.4750,0,0,180.0*
21,1,0.3750,0.6000,0,0,180.0*
1,1,0.1250,-0.1875,0.2375*
1,1,0.1250,0.1875,0.2375*
1,1,0.1250,0.1875,-0.2375*
1,1,0.1250,-0.1875,-0.2375*
%
%ADD21ROUNDEDRECTD21*%
G04:AMPARAMS|DCode=22|XSize=0.5mm|YSize=0.6mm|CornerRadius=0.0625mm|HoleSize=0mm|Usage=FLASHONLY|Rotation=90.000|XOffset=0mm|YOffset=0mm|HoleType=Round|Shape=RoundedRectangle|*
%AMROUNDEDRECTD22*
21,1,0.5000,0.4750,0,0,90.0*
21,1,0.3750,0.6000,0,0,90.0*
1,1,0.1250,0.2375,0.1875*
1,1,0.1250,0.2375,-0.1875*
1,1,0.1250,-0.2375,-0.1875*
1,1,0.1250,-0.2375,0.1875*
%
%ADD22ROUNDEDRECTD22*%
%ADD23R,0.5500X0.3000*%
%ADD24R,0.3000X0.5500*%
%ADD25R,2.6500X4.6500*%
%ADD26R,0.6000X0.4000*%
%ADD27R,0.4000X0.6000*%
%ADD28R,1.8200X1.1900*%
%ADD29R,2.2200X1.2200*%
%ADD30R,1.1900X1.8200*%
%ADD31R,0.7000X0.9000*%
%ADD32R,1.4000X0.4000*%
%ADD33R,1.9000X2.3000*%
%ADD34C,0.3000*%
G36*
X01057543Y00882640D02*
X01057843Y00881736D01*
X01057210Y00880789D01*
X01056929Y00879375D01*
Y00878250D01*
X01062500D01*
Y00877000D01*
X01063750D01*
Y00870929D01*
X01064375D01*
X01065789Y00871210D01*
X01066989Y00872011D01*
X01067562Y00872870D01*
X01068832Y00872485D01*
Y00867374D01*
X01067562Y00866787D01*
X01066750Y00867124D01*
X01057250D01*
X01056102Y00866648D01*
X01055626Y00865500D01*
Y00862866D01*
X01051225D01*
X01051185Y00862926D01*
X01049862Y00863810D01*
X01048301Y00864120D01*
X01046740Y00863810D01*
X01045417Y00862926D01*
X01044533Y00861603D01*
X01044223Y00860042D01*
X01044533Y00858481D01*
X01045417Y00857158D01*
X01045296Y00855712D01*
X01044732Y00854867D01*
X01044422Y00853307D01*
X01044732Y00851746D01*
X01045189Y00851063D01*
X01045189Y00849941D01*
X01044851Y00849560D01*
X01043769Y00848975D01*
X01040292Y00852452D01*
Y00854875D01*
X01040127Y00855704D01*
X01039657Y00856407D01*
X01039010Y00856840D01*
X01038954Y00857224D01*
Y00857776D01*
X01039010Y00858160D01*
X01039657Y00858593D01*
X01040127Y00859296D01*
X01040292Y00860125D01*
Y00864875D01*
X01040127Y00865704D01*
X01039657Y00866407D01*
X01038954Y00866877D01*
X01038125Y00867042D01*
X01036755D01*
X01033819Y00869978D01*
Y00870551D01*
X01033988Y00871405D01*
Y00871584D01*
X01035258Y00871969D01*
X01035343Y00871843D01*
X01036046Y00871373D01*
X01036875Y00871208D01*
X01041547D01*
X01043710Y00869045D01*
X01044627Y00868433D01*
X01045615Y00868236D01*
X01045667Y00868159D01*
X01046990Y00867275D01*
X01048551Y00866964D01*
X01050112Y00867275D01*
X01051435Y00868159D01*
X01052319Y00869482D01*
X01052629Y00871042D01*
X01052319Y00872603D01*
X01051435Y00873926D01*
X01050112Y00874810D01*
X01049954Y00874842D01*
X01049686Y00876190D01*
X01050266Y00876578D01*
X01051482Y00878397D01*
X01051660Y00879293D01*
X01046301D01*
Y00881793D01*
X01051717D01*
X01052681Y00883006D01*
X01057280D01*
X01057543Y00882640D01*
D02*
G37*
G36*
X01068832Y00840976D02*
Y00811530D01*
Y00738035D01*
X01067562Y00737650D01*
X01067497Y00737747D01*
X01067497Y00737747D01*
X01064792Y00740452D01*
Y00742875D01*
X01064627Y00743704D01*
X01064157Y00744407D01*
X01063510Y00744839D01*
X01063454Y00745224D01*
Y00745776D01*
X01063510Y00746161D01*
X01064157Y00746593D01*
X01064627Y00747296D01*
X01064792Y00748125D01*
Y00752875D01*
X01064627Y00753704D01*
X01064157Y00754407D01*
X01063454Y00754877D01*
X01062625Y00755042D01*
X01058875D01*
X01058046Y00754877D01*
X01057343Y00754407D01*
X01056873Y00753704D01*
X01056708Y00752875D01*
Y00751505D01*
X01052827Y00747623D01*
X01052637Y00747340D01*
X01052469Y00747124D01*
X01051603Y00747190D01*
X01050672Y00748375D01*
X01050821Y00749125D01*
Y00750250D01*
X01045250D01*
Y00752750D01*
X01050821D01*
Y00753875D01*
X01050540Y00755289D01*
X01049738Y00756488D01*
X01049456Y00756677D01*
X01049424Y00756714D01*
X01049127Y00758296D01*
X01049292Y00759125D01*
Y00763875D01*
X01049127Y00764704D01*
X01048657Y00765407D01*
X01047954Y00765877D01*
X01047125Y00766042D01*
X01043375D01*
X01042546Y00765877D01*
X01041843Y00765407D01*
X01041617Y00765069D01*
X01039859D01*
X01039333Y00766339D01*
X01041870Y00768876D01*
X01045000D01*
X01046148Y00769352D01*
X01046624Y00770500D01*
Y00779500D01*
X01046148Y00780648D01*
X01045000Y00781124D01*
X01038000D01*
X01036852Y00780648D01*
X01036376Y00779500D01*
Y00771371D01*
X01035330Y00770324D01*
X01031741D01*
X01031624Y00770500D01*
Y00779500D01*
X01031148Y00780648D01*
X01030000Y00781124D01*
X01028324D01*
Y00782250D01*
X01028109Y00783331D01*
X01027790Y00783808D01*
X01027828Y00784000D01*
X01027518Y00785561D01*
X01027433Y00785688D01*
X01028111Y00786958D01*
X01030375D01*
X01031204Y00787123D01*
X01032786Y00786826D01*
X01032823Y00786794D01*
X01033011Y00786512D01*
X01034211Y00785710D01*
X01035625Y00785429D01*
X01036750D01*
Y00791000D01*
X01038000D01*
Y00792250D01*
X01044071D01*
Y00792549D01*
X01044872Y00793022D01*
X01045313Y00793103D01*
X01046208Y00792207D01*
Y00789125D01*
X01046373Y00788296D01*
X01046843Y00787593D01*
X01047546Y00787123D01*
X01048375Y00786958D01*
X01050798D01*
X01053676Y00784080D01*
Y00782546D01*
X01053093Y00782157D01*
X01052623Y00781454D01*
X01052458Y00780625D01*
Y00775875D01*
X01052623Y00775046D01*
X01052326Y00773464D01*
X01052294Y00773427D01*
X01052011Y00773239D01*
X01051210Y00772039D01*
X01050929Y00770625D01*
Y00769500D01*
X01056500D01*
X01062071D01*
Y00770625D01*
X01061790Y00772039D01*
X01060988Y00773239D01*
X01060706Y00773427D01*
X01060674Y00773464D01*
X01060377Y00775046D01*
X01060542Y00775875D01*
Y00780625D01*
X01060377Y00781454D01*
X01059907Y00782157D01*
X01059324Y00782546D01*
Y00785250D01*
X01059324Y00785250D01*
X01059237Y00785688D01*
X01060101Y00786958D01*
X01063125D01*
X01063954Y00787123D01*
X01064657Y00787593D01*
X01065127Y00788296D01*
X01065292Y00789125D01*
Y00792875D01*
X01065127Y00793704D01*
X01064657Y00794407D01*
X01063954Y00794877D01*
X01063574Y00794952D01*
Y00799098D01*
X01063704Y00799123D01*
X01064407Y00799593D01*
X01064877Y00800296D01*
X01065042Y00801125D01*
Y00805875D01*
X01064877Y00806704D01*
X01065174Y00808286D01*
X01065206Y00808323D01*
X01065489Y00808512D01*
X01066290Y00809711D01*
X01066571Y00811125D01*
Y00812250D01*
X01061000D01*
Y00813500D01*
X01059750D01*
Y00819571D01*
X01059154D01*
Y00827580D01*
X01059154Y00827580D01*
X01058939Y00828661D01*
X01058327Y00829577D01*
X01055474Y00832431D01*
Y00840671D01*
X01056373Y00841377D01*
X01056647Y00841476D01*
X01057250Y00841226D01*
X01066750D01*
X01067562Y00841563D01*
X01068832Y00840976D01*
D02*
G37*
G36*
X00998664Y00918972D02*
X00999273Y00917702D01*
X00998820Y00917124D01*
X00989250D01*
X00989101Y00917062D01*
X00988000Y00916683D01*
X00986899Y00917062D01*
X00986750Y00917124D01*
X00971750D01*
X00970602Y00916648D01*
X00970398Y00916648D01*
X00969250Y00917124D01*
X00954250D01*
X00953102Y00916648D01*
X00952626Y00915500D01*
Y00906000D01*
X00953102Y00904852D01*
X00953682Y00904612D01*
X00954018Y00903224D01*
X00953459Y00902618D01*
X00943631D01*
X00942953Y00903888D01*
X00943431Y00904604D01*
X00943609Y00905500D01*
X00932891D01*
X00933069Y00904604D01*
X00933547Y00903888D01*
X00932869Y00902618D01*
X00925876D01*
X00923124Y00905371D01*
Y00914250D01*
X00922648Y00915398D01*
X00921500Y00915874D01*
X00906500D01*
X00905352Y00915398D01*
X00904876Y00914250D01*
Y00909784D01*
X00903606Y00909008D01*
X00902500Y00909228D01*
X00900939Y00908918D01*
X00899616Y00908034D01*
X00899576Y00907974D01*
X00893874D01*
Y00914250D01*
X00893398Y00915398D01*
X00892250Y00915874D01*
X00877250D01*
X00876102Y00915398D01*
X00875626Y00914250D01*
Y00904750D01*
X00876102Y00903602D01*
X00877250Y00903126D01*
X00889895D01*
X00890419Y00902571D01*
X00889940Y00901309D01*
X00885500D01*
Y00893500D01*
Y00885691D01*
X00887856D01*
X00888342Y00884518D01*
X00883698Y00879873D01*
X00883145Y00879046D01*
X00882951Y00878071D01*
Y00872500D01*
X00883145Y00871525D01*
X00883698Y00870698D01*
X00886655Y00867740D01*
X00887482Y00867188D01*
X00888458Y00866993D01*
X00888686D01*
X00888910Y00866659D01*
X00890233Y00865775D01*
X00891794Y00865464D01*
X00893354Y00865775D01*
X00893561Y00865913D01*
X00894604Y00865162D01*
Y00863885D01*
X00894012Y00863488D01*
X00893210Y00862289D01*
X00892929Y00860875D01*
Y00860250D01*
X00899000D01*
Y00857750D01*
X00892929D01*
Y00857125D01*
X00893092Y00856307D01*
X00892163Y00855229D01*
X00892114Y00855206D01*
X00891500Y00855328D01*
X00889939Y00855018D01*
X00888616Y00854134D01*
X00887732Y00852811D01*
X00887422Y00851250D01*
X00887732Y00849689D01*
X00888616Y00848366D01*
X00888676Y00848326D01*
Y00828250D01*
X00888676Y00828250D01*
X00888891Y00827169D01*
X00889503Y00826253D01*
X00889779Y00825977D01*
X00889293Y00824804D01*
X00881750D01*
X00880602Y00824328D01*
X00880126Y00823180D01*
Y00800180D01*
X00880602Y00799032D01*
X00881750Y00798556D01*
X00900750D01*
X00901898Y00799032D01*
X00902374Y00800180D01*
Y00817953D01*
X00903644Y00818942D01*
X00903964Y00818878D01*
X00904848Y00817555D01*
X00906171Y00816671D01*
X00907732Y00816361D01*
X00909293Y00816671D01*
X00910616Y00817555D01*
X00911500Y00818878D01*
X00911810Y00820439D01*
X00911500Y00822000D01*
X00910616Y00823323D01*
X00909293Y00824207D01*
X00907732Y00824518D01*
X00906684Y00824309D01*
X00903600Y00827393D01*
X00902989Y00828512D01*
X00903790Y00829711D01*
X00904071Y00831125D01*
Y00832250D01*
X00898500D01*
Y00834750D01*
X00904071D01*
Y00835875D01*
X00903790Y00837289D01*
X00902989Y00838488D01*
X00902896Y00838550D01*
X00902628Y00839889D01*
X00903350Y00840951D01*
X00906493D01*
X00906623Y00840296D01*
X00907093Y00839593D01*
X00907740Y00839161D01*
X00907796Y00838776D01*
Y00838224D01*
X00907740Y00837840D01*
X00907093Y00837407D01*
X00906623Y00836704D01*
X00906458Y00835875D01*
Y00831125D01*
X00906623Y00830296D01*
X00907093Y00829593D01*
X00907796Y00829123D01*
X00908625Y00828958D01*
X00912375D01*
X00913204Y00829123D01*
X00913907Y00829593D01*
X00914377Y00830296D01*
X00914406Y00830441D01*
X00918594D01*
X00918623Y00830296D01*
X00919093Y00829593D01*
X00919796Y00829123D01*
X00920625Y00828958D01*
X00922716D01*
X00927126Y00824548D01*
X00926841Y00823623D01*
X00926618Y00823302D01*
X00925189Y00823018D01*
X00923866Y00822134D01*
X00922982Y00820811D01*
X00922672Y00819250D01*
X00922982Y00817689D01*
X00923866Y00816366D01*
X00925189Y00815482D01*
X00926750Y00815172D01*
X00928311Y00815482D01*
X00929220Y00816089D01*
X00930165Y00815370D01*
X00930264Y00815156D01*
X00930208Y00814875D01*
Y00810125D01*
X00930373Y00809296D01*
X00930076Y00807714D01*
X00930044Y00807677D01*
X00929762Y00807488D01*
X00928960Y00806289D01*
X00928679Y00804875D01*
Y00803750D01*
X00934250D01*
Y00801250D01*
X00928679D01*
Y00800125D01*
X00928960Y00798711D01*
X00929762Y00797512D01*
X00930961Y00796710D01*
X00932167Y00796470D01*
X00932338Y00796365D01*
X00932517Y00796181D01*
X00933102Y00795159D01*
X00932922Y00794250D01*
X00933232Y00792689D01*
X00933819Y00791812D01*
X00933238Y00790542D01*
X00932375D01*
X00931546Y00790377D01*
X00930843Y00789907D01*
X00930373Y00789204D01*
X00930208Y00788375D01*
Y00783625D01*
X00930373Y00782796D01*
X00930843Y00782093D01*
X00931490Y00781661D01*
X00931546Y00781276D01*
Y00780724D01*
X00931490Y00780340D01*
X00930843Y00779907D01*
X00930373Y00779204D01*
X00930208Y00778375D01*
Y00773625D01*
X00930373Y00772796D01*
X00930843Y00772093D01*
X00931546Y00771623D01*
X00932375Y00771458D01*
X00934797D01*
X00938253Y00768003D01*
X00939169Y00767391D01*
X00939356Y00767041D01*
X00939276Y00766850D01*
Y00754650D01*
X00939126Y00754425D01*
X00937661Y00754407D01*
X00937643Y00754416D01*
X00936954Y00754877D01*
X00936125Y00755042D01*
X00932375D01*
X00931546Y00754877D01*
X00930843Y00754407D01*
X00930259Y00754350D01*
X00926844Y00757765D01*
X00927306Y00758880D01*
Y00762880D01*
X00926830Y00764028D01*
X00926830Y00764336D01*
X00927306Y00765484D01*
Y00769484D01*
X00926830Y00770632D01*
X00926830Y00770940D01*
X00927306Y00772088D01*
Y00776088D01*
X00926830Y00777236D01*
X00926830Y00777544D01*
X00927306Y00778692D01*
Y00782692D01*
X00927279Y00782755D01*
X00927845Y00783133D01*
X00928508Y00784126D01*
X00928741Y00785296D01*
Y00786046D01*
X00918682D01*
X00908623D01*
Y00785296D01*
X00908856Y00784126D01*
X00909519Y00783133D01*
X00910085Y00782755D01*
X00910058Y00782692D01*
Y00778692D01*
X00910534Y00777544D01*
X00910534Y00777236D01*
X00910058Y00776088D01*
Y00772088D01*
X00910534Y00770940D01*
X00910534Y00770632D01*
X00910058Y00769484D01*
Y00765484D01*
X00910534Y00764336D01*
X00910534Y00764028D01*
X00910058Y00762880D01*
Y00758880D01*
X00910534Y00757732D01*
X00911682Y00757256D01*
X00917259D01*
X00926789Y00747727D01*
X00927946Y00746953D01*
X00929273Y00746689D01*
X00929365Y00746542D01*
X00929601Y00745914D01*
X00929710Y00745411D01*
X00928960Y00744289D01*
X00928679Y00742875D01*
Y00741750D01*
X00934250D01*
Y00740500D01*
X00935500D01*
Y00734429D01*
X00936125D01*
X00937539Y00734710D01*
X00938006Y00735022D01*
X00939276Y00734343D01*
Y00733350D01*
X00939752Y00732202D01*
X00940900Y00731726D01*
X00955729D01*
X00956703Y00730753D01*
X00957619Y00730141D01*
X00958700Y00729926D01*
X00958700Y00729926D01*
X00978250D01*
X00978250Y00729926D01*
X00979331Y00730141D01*
X00980247Y00730753D01*
X00987952Y00738458D01*
X00990875D01*
X00991704Y00738623D01*
X00993286Y00738326D01*
X00993323Y00738294D01*
X00993512Y00738011D01*
X00994711Y00737210D01*
X00996125Y00736929D01*
X00997250D01*
Y00742500D01*
Y00748071D01*
X00996125D01*
X00994711Y00747790D01*
X00993512Y00746989D01*
X00993466Y00746920D01*
X00992116Y00746652D01*
X00991074Y00747367D01*
Y00750777D01*
X00992344Y00751714D01*
X00992375Y00751708D01*
X00996125D01*
X00996954Y00751873D01*
X00997657Y00752343D01*
X00998127Y00753046D01*
X00998292Y00753875D01*
Y00755297D01*
X00999159Y00756165D01*
X01000193Y00755853D01*
X01000429Y00755659D01*
Y00754125D01*
X01000710Y00752711D01*
X01001512Y00751512D01*
X01002711Y00750710D01*
X01004125Y00750429D01*
X01004750D01*
Y00756500D01*
X01007250D01*
Y00750429D01*
X01007875D01*
X01009289Y00750710D01*
X01010489Y00751512D01*
X01010659Y00751767D01*
X01010714Y00751750D01*
X01017500D01*
Y00750500D01*
X01018750D01*
Y00744429D01*
X01019375D01*
X01020789Y00744710D01*
X01021989Y00745511D01*
X01022083Y00745653D01*
X01023208Y00745051D01*
X01022876Y00744250D01*
Y00722250D01*
X01023245Y00721360D01*
X01022704Y00720090D01*
X00870966D01*
Y00918972D01*
X00998664Y00918972D01*
D02*
G37*
%LPC*%
G36*
X01061250Y00875750D02*
X01056929D01*
Y00874625D01*
X01057210Y00873211D01*
X01058011Y00872011D01*
X01059211Y00871210D01*
X01060625Y00870929D01*
X01061250D01*
Y00875750D01*
D02*
G37*
G36*
X01055250Y00767000D02*
X01050929D01*
Y00765875D01*
X01051210Y00764461D01*
X01052011Y00763261D01*
X01053211Y00762460D01*
X01054625Y00762179D01*
X01055250D01*
Y00767000D01*
D02*
G37*
G36*
X01062071D02*
X01057750D01*
Y00762179D01*
X01058375D01*
X01059789Y00762460D01*
X01060988Y00763261D01*
X01061790Y00764461D01*
X01062071Y00765875D01*
Y00767000D01*
D02*
G37*
G36*
X01044071Y00789750D02*
X01039250D01*
Y00785429D01*
X01040375D01*
X01041789Y00785710D01*
X01042989Y00786512D01*
X01043790Y00787711D01*
X01044071Y00789125D01*
Y00789750D01*
D02*
G37*
G36*
X01062875Y00819571D02*
X01062250D01*
Y00814750D01*
X01066571D01*
Y00815875D01*
X01066290Y00817289D01*
X01065489Y00818488D01*
X01064289Y00819290D01*
X01062875Y00819571D01*
D02*
G37*
G36*
X00904609Y00763250D02*
X00900500D01*
Y00759141D01*
X00901396Y00759319D01*
X00903215Y00760535D01*
X00904431Y00762354D01*
X00904609Y00763250D01*
D02*
G37*
G36*
X00898000D02*
X00893891D01*
X00894069Y00762354D01*
X00895285Y00760535D01*
X00897104Y00759319D01*
X00898000Y00759141D01*
Y00763250D01*
D02*
G37*
G36*
Y00769859D02*
X00897104Y00769681D01*
X00895285Y00768465D01*
X00894069Y00766646D01*
X00893891Y00765750D01*
X00898000D01*
Y00769859D01*
D02*
G37*
G36*
X01000875Y00748071D02*
X00999750D01*
Y00743750D01*
X01004571D01*
Y00744375D01*
X01004290Y00745789D01*
X01003488Y00746989D01*
X01002289Y00747790D01*
X01000875Y00748071D01*
D02*
G37*
G36*
X01004571Y00741250D02*
X00999750D01*
Y00736929D01*
X01000875D01*
X01002289Y00737210D01*
X01003488Y00738011D01*
X01004290Y00739211D01*
X01004571Y00740625D01*
Y00741250D01*
D02*
G37*
G36*
X01016250Y00749250D02*
X01011929D01*
Y00748125D01*
X01012210Y00746711D01*
X01013011Y00745511D01*
X01014211Y00744710D01*
X01015625Y00744429D01*
X01016250D01*
Y00749250D01*
D02*
G37*
G36*
X00933000Y00739250D02*
X00928679D01*
Y00738125D01*
X00928960Y00736711D01*
X00929762Y00735511D01*
X00930961Y00734710D01*
X00932375Y00734429D01*
X00933000D01*
Y00739250D01*
D02*
G37*
G36*
X00900750Y00749874D02*
X00881750D01*
X00880602Y00749398D01*
X00880126Y00748250D01*
Y00725250D01*
X00880602Y00724102D01*
X00881750Y00723626D01*
X00900750D01*
X00901898Y00724102D01*
X00902374Y00725250D01*
Y00748250D01*
X00901898Y00749398D01*
X00900750Y00749874D01*
D02*
G37*
G36*
X00883000Y00892250D02*
X00873691D01*
Y00888750D01*
X00873924Y00887579D01*
X00874587Y00886587D01*
X00875580Y00885924D01*
X00876750Y00885691D01*
X00883000D01*
Y00892250D01*
D02*
G37*
G36*
Y00901309D02*
X00876750D01*
X00875580Y00901076D01*
X00874587Y00900413D01*
X00873924Y00899420D01*
X00873691Y00898250D01*
Y00894750D01*
X00883000D01*
Y00901309D01*
D02*
G37*
G36*
X00939500Y00912109D02*
Y00908000D01*
X00943609D01*
X00943431Y00908896D01*
X00942215Y00910715D01*
X00940396Y00911931D01*
X00939500Y00912109D01*
D02*
G37*
G36*
X00937000D02*
X00936104Y00911931D01*
X00934285Y00910715D01*
X00933069Y00908896D01*
X00932891Y00908000D01*
X00937000D01*
Y00912109D01*
D02*
G37*
G36*
X00900500Y00769859D02*
Y00765750D01*
X00904609D01*
X00904431Y00766646D01*
X00903215Y00768465D01*
X00901396Y00769681D01*
X00900500Y00769859D01*
D02*
G37*
G36*
X00917432Y00792355D02*
X00911682D01*
X00910511Y00792122D01*
X00909519Y00791459D01*
X00908856Y00790467D01*
X00908623Y00789296D01*
Y00788546D01*
X00917432D01*
Y00792355D01*
D02*
G37*
G36*
X00925682D02*
X00919932D01*
Y00788546D01*
X00928741D01*
Y00789296D01*
X00928508Y00790467D01*
X00927845Y00791459D01*
X00926852Y00792122D01*
X00925682Y00792355D01*
D02*
G37*
%LPD*%
D11*
X00979250Y00910750D02*
D03*
X00961750D02*
D03*
X00996750D02*
D03*
X01014250D02*
D03*
X00979500Y00893250D02*
D03*
X00996750D02*
D03*
X01014250D02*
D03*
X00884250Y00893500D02*
D03*
X00908000D02*
D03*
X00914000Y00909500D02*
D03*
X00884750D02*
D03*
D13*
X00891938Y00905150D02*
X00902500D01*
X00889044Y00908044D02*
X00891938Y00905150D01*
X01028830Y00917670D02*
X01035250Y00911250D01*
X00996750Y00910750D02*
X01003670Y00917670D01*
X01028830D01*
X01045250Y00887600D02*
Y00888500D01*
Y00887600D02*
X01047020Y00885830D01*
X01061330D01*
X01037000Y00896750D02*
X01039520Y00894230D01*
X01035250Y00897500D02*
Y00906500D01*
Y00897500D02*
X01036500Y00896250D01*
X01061330Y00885830D02*
X01062500Y00887000D01*
X01014750Y00816750D02*
Y00822500D01*
Y00816750D02*
X01017500Y00814000D01*
X01019250Y00832500D02*
X01024500Y00837750D01*
X01019250Y00827000D02*
Y00832500D01*
X01023980Y00846473D02*
Y00851230D01*
X01019750Y00847000D02*
X01023980Y00851230D01*
X01013500Y00847000D02*
X01019750D01*
X00971480Y00854777D02*
X00983750Y00867047D01*
X00971480Y00841270D02*
Y00854777D01*
X00925500Y00862250D02*
X00927297D01*
X00932086Y00857461D01*
X00959783Y00857450D02*
X00964600Y00852633D01*
X00943320Y00857450D02*
X00959783D01*
X00943309Y00857461D02*
X00943320Y00857450D01*
X00932086Y00857461D02*
X00943309D01*
X00936849Y00860901D02*
X00944734D01*
X00961860Y00860890D02*
X00968040Y00854710D01*
Y00831460D02*
Y00854710D01*
X00964600Y00828400D02*
Y00852633D01*
X00924706Y00899794D02*
X00956797D01*
X00918125Y00906375D02*
X00924706Y00899794D01*
X00914000Y00909500D02*
X00918125Y00906375D01*
X00910083Y00859000D02*
X00914792Y00854292D01*
X00909000Y00859000D02*
X00910083D01*
X00934250Y00822250D02*
Y00826500D01*
X00926750Y00819250D02*
X00937250D01*
X00934250Y00822250D02*
X00937250Y00819250D01*
X00937390Y00819110D02*
X00958390D01*
X00934250Y00812500D02*
X00938500D01*
X01058292Y00860042D02*
X01059000Y00860750D01*
X01048301Y00860042D02*
X01058292D01*
X01059000Y00860750D02*
X01062000D01*
X00964600Y00828400D02*
X00966500Y00826500D01*
X00971480Y00841270D02*
X00976500Y00836250D01*
X00968040Y00831460D02*
X00968500Y00831000D01*
X00982500Y00838250D02*
Y00844500D01*
X00980500Y00836250D02*
X00982500Y00838250D01*
X00994250Y00755250D02*
X00999500Y00760500D01*
X01031250Y00832500D02*
X01032203D01*
X01000850Y00872000D02*
X01005770Y00867080D01*
X01000500Y00837703D02*
X01005770Y00842973D01*
Y00867080D01*
X00938500Y00812500D02*
X00941670Y00815670D01*
X00952080D01*
X00956750Y00811000D01*
X00958390Y00819110D02*
X00958750Y00818750D01*
X00983750Y00867047D02*
Y00872000D01*
X00936796Y00847954D02*
Y00849041D01*
X00914792Y00854292D02*
X00927545D01*
X00936546Y00847704D02*
X00936796Y00847954D01*
X00936546Y00847704D02*
X00939700Y00844550D01*
X01000000Y00844547D02*
Y00848750D01*
X01000500Y00849250D01*
X01011750Y00866000D02*
X01020915D01*
X01020958Y00866042D01*
X01026250Y00860750D01*
X00888500Y00907500D02*
X00889044Y00908044D01*
X01045000Y00900000D02*
X01051750D01*
X01044500Y00899500D02*
X01045000Y00900000D01*
X01021000Y00902000D02*
X01024000Y00905000D01*
X01028750D01*
X01044420Y00889330D02*
X01045250Y00888500D01*
X01044420Y00889330D02*
Y00892399D01*
X01042589Y00894230D02*
X01044420Y00892399D01*
X01039520Y00894230D02*
X01042589D01*
X01040250Y00875500D02*
Y00888500D01*
Y00875500D02*
X01040750Y00876000D01*
X01031223Y00845723D02*
X01031800Y00846300D01*
X01031223Y00847473D02*
X01036250Y00852500D01*
X01031223Y00846682D02*
Y00847473D01*
X01031000Y00845500D02*
X01031223Y00845723D01*
X01027533Y00842920D02*
X01031250Y00839203D01*
X01027533Y00842920D02*
X01027533D01*
X01023980Y00846473D02*
X01027533Y00842920D01*
X01031223Y00845723D02*
Y00846682D01*
X01031250Y00839000D02*
Y00839203D01*
X01032203Y00832500D02*
X01034803Y00835100D01*
X01044750D01*
X01036250Y00852500D02*
X01042750Y00846000D01*
X01046750D01*
X01040750Y00876000D02*
X01045707Y00871042D01*
X01048551D01*
X01035250Y00887000D02*
Y00888500D01*
X01031670Y00883420D02*
X01035250Y00887000D01*
X01048019Y00853307D02*
X01049694D01*
X01025183Y00879980D02*
X01033095D01*
X01021933Y00876730D02*
X01025183Y00879980D01*
X01033095D02*
X01033115Y00880000D01*
X00982500Y00844500D02*
X00984250D01*
X01055000Y00848000D02*
X01062000Y00847600D01*
X01062500Y00902000D02*
X01062500Y00902000D01*
Y00887000D02*
Y00902000D01*
X01051750Y00905000D02*
X01059500D01*
X01062500Y00902000D01*
X00996500Y00836250D02*
Y00841047D01*
X01000500Y00836250D02*
Y00837703D01*
X00992100Y00836250D02*
X00992500D01*
X01023750Y00784000D02*
X01025500Y00782250D01*
Y00774750D02*
Y00782250D01*
X01016000Y00778500D02*
X01019000Y00775500D01*
X01013500Y00847000D02*
X01013500Y00847000D01*
Y00828703D02*
Y00847000D01*
X01006250Y00802500D02*
X01014000D01*
X01006250Y00790500D02*
X01006580Y00790170D01*
X01006250Y00790500D02*
X01014000D01*
X01016000Y00788500D01*
X01006250Y00826500D02*
X01011297D01*
X01013500Y00828703D01*
X01023750Y00802250D02*
X01024250D01*
X01050750Y00791000D02*
Y00791660D01*
X01056500Y00778250D02*
Y00785250D01*
X01050750Y00791000D02*
X01056500Y00785250D01*
X01040500Y00771500D02*
Y00774750D01*
X00970420Y00794830D02*
X00970750Y00794500D01*
X00965250Y00786500D02*
X00970750D01*
X01045580Y00796830D02*
X01050750Y00791660D01*
X01020250Y00794500D02*
X01023750Y00791000D01*
X01027000D01*
X01022785Y00796830D02*
X01045580D01*
X01021155Y00798460D02*
X01022785Y00796830D01*
X01019960Y00798460D02*
X01023750Y00802250D01*
X01019960Y00798460D02*
X01021155D01*
X00961060Y00794830D02*
X00970420D01*
X00939700Y00844550D02*
X00950000D01*
X00909000Y00870750D02*
X00919250D01*
X00923500Y00875000D01*
X00923500Y00885000D02*
X00937000D01*
X00923500Y00885000D02*
X00923500Y00885000D01*
X00963750Y00801250D02*
Y00803750D01*
Y00801250D02*
X00966500Y00798500D01*
X00970750D01*
X00957195Y00798695D02*
X00961060Y00794830D01*
X00967431Y00790500D02*
X00970750D01*
X00957195Y00788695D02*
Y00790500D01*
X00970750D01*
X00956750Y00810750D02*
X00963750Y00803750D01*
X00947250Y00788750D02*
X00957195Y00798695D01*
X00946000Y00788750D02*
X00947250D01*
X00937000D02*
X00946000D01*
X00946250Y00775500D02*
Y00788500D01*
X00946000Y00788750D02*
X00946250Y00788500D01*
X00956250Y00775500D02*
Y00777500D01*
X00965250Y00786500D01*
X00972000Y00780750D02*
X00976500D01*
X00951250Y00760650D02*
X00958400D01*
X00978118Y00773250D02*
X00980309Y00775441D01*
X00971000Y00773250D02*
X00978118D01*
X00958400Y00760650D02*
X00971000Y00773250D01*
X00934250Y00776000D02*
X00940250Y00770000D01*
X00961250D01*
X00972000Y00780750D01*
X00980500Y00836250D02*
X00984500D01*
X00964749Y00870500D02*
Y00880750D01*
X00950749Y00870000D02*
X00952499Y00868250D01*
X00950749Y00870000D02*
Y00880750D01*
X00962499Y00868250D02*
X00964749Y00870500D01*
X00963000Y00866250D02*
Y00869000D01*
X00956500Y00810750D02*
X00956750Y00811000D01*
X00956500Y00810750D02*
X00956750D01*
X00952000Y00739450D02*
X00958700Y00732750D01*
X00978250D01*
X00989250Y00743750D01*
X00988250D02*
Y00770500D01*
X00991750Y00774000D01*
X00992500Y00780750D02*
X00992500Y00780750D01*
X00991750Y00774000D02*
X00992500Y00774750D01*
Y00780750D01*
X00937000Y00788750D02*
Y00794250D01*
X00937000Y00794250D01*
X00934250Y00786000D02*
Y00786000D01*
X00937000Y00788750D01*
X00994250Y00755250D02*
Y00756250D01*
X01034250Y00802750D02*
X01059500D01*
X01060750Y00791000D02*
Y00801500D01*
X01006250Y00822500D02*
X01014750D01*
X01015000Y00822750D02*
X01019250Y00827000D01*
X01014000Y00802500D02*
X01015049Y00803549D01*
X01006250Y00794500D02*
X01020250D01*
X01006250Y00798460D02*
X01006431Y00798279D01*
X01019779D02*
X01019960Y00798460D01*
X01006431Y00798279D02*
X01019779D01*
X01056330Y00808170D02*
X01061000Y00803500D01*
X01056330Y00808170D02*
Y00827580D01*
X01048810Y00835100D02*
X01056330Y00827580D01*
X01044750Y00835100D02*
X01048810D01*
X01059875Y00802375D02*
X01060750Y00801500D01*
X01049694Y00853307D02*
X01055000Y00848000D01*
X01035250Y00906500D02*
Y00911250D01*
X00979250Y00890000D02*
X00979500Y00893000D01*
X00966500Y00826500D02*
X00970750D01*
X01014170Y00886330D02*
X01018500Y00882000D01*
X01019750D01*
X01017567Y00876730D02*
X01021933D01*
X01011407Y00882890D02*
X01017567Y00876730D01*
X01019750Y00882000D02*
X01021170Y00883420D01*
X01031670D01*
X00996750Y00893250D02*
X00998931D01*
X00984690Y00884560D02*
X00997690D01*
X00999360Y00882890D01*
X01011407D01*
X01002420Y00886330D02*
X01014170D01*
X00996750Y00892000D02*
X01002420Y00886330D01*
X00996750Y00892000D02*
Y00893250D01*
X00979250Y00890000D02*
X00984690Y00884560D01*
X01036500Y00767500D02*
X01040500Y00771500D01*
X01019000Y00769750D02*
Y00775500D01*
Y00769750D02*
X01021250Y00767500D01*
X01036500D01*
X00980500Y00775441D02*
Y00780750D01*
X00891500Y00828250D02*
Y00851250D01*
Y00828250D02*
X00893500Y00826250D01*
X00917000Y00877000D02*
X00919000Y00875000D01*
X00923500D01*
X00935500Y00862250D02*
X00937000Y00863750D01*
Y00875000D01*
X00923500Y00864250D02*
X00925500Y00862250D01*
X00923500Y00864250D02*
Y00875000D01*
X00996500Y00841047D02*
X01000000Y00844547D01*
X01033115Y00880000D02*
X01040250D01*
X00893500Y00826250D02*
X00900749D01*
X00906560Y00820439D01*
X00907732D01*
X00884750Y00909500D02*
X00888500Y00907500D01*
X00935500Y00862250D02*
X00936849Y00860901D01*
X01065500Y00732750D02*
Y00735750D01*
X01060750Y00740500D02*
X01065500Y00735750D01*
X00946170Y00864330D02*
X00961080D01*
X00944500Y00866000D02*
X00946170Y00864330D01*
X00961080D02*
X00963000Y00866250D01*
X00944734Y00860901D02*
X00944745Y00860890D01*
X00961860D01*
X00944500Y00866000D02*
Y00874467D01*
D14*
X00999662Y00902000D02*
X01005750D01*
X01014250Y00910500D01*
Y00910750D01*
D15*
X00885500Y00872500D02*
Y00878071D01*
X00896000Y00888571D02*
Y00896437D01*
X00885500Y00878071D02*
X00896000Y00888571D01*
X01013250Y00902000D02*
X01014250Y00901000D01*
Y00893250D02*
Y00901000D01*
X00899713Y00900150D02*
X00918638D01*
X00896000Y00896437D02*
X00899713Y00900150D01*
X01045250Y00906500D02*
Y00910500D01*
X01050000Y00915250D01*
X01059250D01*
X01062500Y00912000D01*
X01024500Y00822500D02*
Y00828000D01*
X01022000Y00820000D02*
X01024500Y00822500D01*
X01022000Y00819500D02*
Y00820000D01*
Y00819500D02*
X01027500Y00814000D01*
X00958709Y00854041D02*
X00961430Y00851320D01*
X00934725Y00854041D02*
X00958709D01*
X00954526Y00894794D02*
X00960044D01*
X00953670Y00895650D02*
X00954526Y00894794D01*
X00960044D02*
X00964500Y00899250D01*
X00918638Y00900150D02*
X00923138Y00895650D01*
X00885500Y00872500D02*
X00888458Y00869542D01*
X00976750Y00848750D02*
X00980750Y00852750D01*
X00976750Y00844500D02*
Y00848750D01*
X00961430Y00827087D02*
X00966017Y00822500D01*
X00961430Y00827087D02*
Y00851320D01*
X00931045Y00844291D02*
X00934250Y00841087D01*
Y00836500D02*
Y00841087D01*
X01013250Y00857000D02*
X01013500D01*
X01009100Y00852850D02*
X01013250Y00857000D01*
X01009100Y00838850D02*
Y00852850D01*
X01007750Y00837500D02*
X01009100Y00838850D01*
X01006000Y00756500D02*
X01011500D01*
X01017500Y00750500D01*
X00978000Y00746500D02*
Y00748500D01*
X00970500Y00739000D02*
X00978000Y00746500D01*
X01045250Y00733500D02*
X01045500Y00733250D01*
X01045250Y00733500D02*
Y00751500D01*
X01036750Y00748500D02*
X01039750Y00751500D01*
X01045250D01*
X00946000Y00810250D02*
X00946750Y00811000D01*
X00946000Y00798750D02*
Y00810250D01*
X00942250Y00802500D02*
X00946000Y00798750D01*
X00934250Y00802500D02*
X00942250D01*
X00899000Y00870250D02*
Y00871500D01*
Y00869678D02*
Y00870250D01*
Y00871500D02*
X00909250Y00881750D01*
X01014250Y00893250D02*
X01016000Y00895000D01*
X01028750D01*
Y00890000D02*
Y00895000D01*
Y00900000D01*
X01040250Y00906500D02*
X01045250D01*
X00929792Y00849292D02*
X00933920Y00853420D01*
X00926116Y00849292D02*
X00929792D01*
X00925116Y00848292D02*
X00926116Y00849292D01*
X00934103Y00853420D02*
X00934725Y00854041D01*
X00923138Y00895650D02*
X00953670D01*
X00964500Y00899250D02*
Y00908000D01*
X00961750Y00910750D02*
X00964500Y00908000D01*
X00933920Y00853420D02*
X00934103D01*
X01006250Y00806500D02*
X01006250Y00806500D01*
X00970750D02*
X00970750Y00806500D01*
X01002250Y00830500D02*
X01006250D01*
X00988500Y00808500D02*
Y00816750D01*
X00970750Y00802500D02*
X00982500D01*
X00983000Y00803000D01*
X00988500Y00808500D01*
X00970750Y00818500D02*
X00978500D01*
X00988500Y00808500D01*
Y00816750D02*
X01002250Y00830500D01*
X01004500Y00766500D02*
Y00772250D01*
X01002500Y00774250D02*
X01004500Y00772250D01*
X00998500Y00774250D02*
X01002500D01*
X00993000Y00766500D02*
X01004500D01*
X00966017Y00822500D02*
X00970750D01*
X00910500Y00843500D02*
X00910500Y00843500D01*
X00898500Y00843500D02*
X00910500D01*
X00898500Y00843500D02*
X00898500Y00843500D01*
X00922500Y00843500D02*
Y00845750D01*
X00910500Y00833500D02*
X00910500Y00833500D01*
X00996750Y00776000D02*
X00998500Y00774250D01*
X00996500Y00780750D02*
X00996750Y00780500D01*
Y00776000D02*
Y00780500D01*
X01006250Y00806500D02*
X01010049D01*
X01035250Y00808500D02*
X01044750Y00818000D01*
X01017120Y00808549D02*
X01017169Y00808500D01*
X01035250D01*
X01012098Y00808549D02*
X01017120D01*
X01010049Y00806500D02*
X01012098Y00808549D01*
X00952500Y00829813D02*
X00967813Y00814500D01*
X00970750D01*
X00949750Y00827450D02*
X00952500Y00830200D01*
Y00829813D02*
Y00830500D01*
X00888458Y00869542D02*
X00891794D01*
X00892072Y00862750D02*
X00899000Y00869678D01*
X00981500Y00752000D02*
Y00756500D01*
X00978000Y00748500D02*
X00981500Y00752000D01*
X00922500Y00845750D02*
X00925042Y00848292D01*
X00910500Y00843500D02*
X00922500D01*
X00925042Y00848292D02*
X00925116D01*
D16*
X00896250Y00881750D02*
X00899250D01*
X00908000Y00890500D02*
Y00893500D01*
X00899250Y00881750D02*
X00908000Y00890500D01*
X00964749Y00890750D02*
X00970499Y00884999D01*
X00970500Y00885000D01*
Y00861250D02*
Y00885000D01*
X01029250Y00761500D02*
X01033268Y00757482D01*
X01035689D02*
Y00759689D01*
X01037500Y00761500D01*
X01033268Y00757482D02*
X01035689D01*
X01037500Y00761500D02*
X01045000D01*
X00950749Y00890750D02*
X00964749D01*
X00950355Y00891144D02*
X00950749Y00890750D01*
X00910356Y00891144D02*
X00950355D01*
X00968750Y00901101D02*
X00978399Y00910750D01*
X00968750Y00894751D02*
Y00901101D01*
X00964749Y00890750D02*
X00968750Y00894751D01*
X00908000Y00893500D02*
X00910356Y00891144D01*
X00978399Y00910750D02*
X00979250D01*
X01030250Y00868500D02*
X01036250Y00862500D01*
X01030250Y00868500D02*
Y00871235D01*
X01030420Y00871405D02*
Y00874080D01*
X01030250Y00871235D02*
X01030420Y00871405D01*
X00989750Y00838600D02*
X00992100Y00836250D01*
X01000900Y00780750D02*
X01003750D01*
X01014830Y00769670D01*
Y00763170D02*
Y00769670D01*
Y00763170D02*
X01017500Y00760500D01*
X01019750D01*
X01028750Y00751500D01*
X01028750Y00751500D02*
X01028750Y00751500D01*
X01028750Y00733250D02*
Y00751500D01*
X00918682Y00760880D02*
X00929312Y00750250D01*
X00891750Y00877250D02*
X00896250Y00881750D01*
X00969250Y00750250D02*
X00970500Y00749000D01*
X00929312Y00750250D02*
X00969250D01*
X00970500Y00749000D02*
Y00757000D01*
X00979750Y00766250D01*
X01055350Y00728150D02*
X01056250Y00727250D01*
X01055350Y00728150D02*
Y00745100D01*
X01060750Y00750500D01*
X01029250Y00875250D02*
X01030420Y00874080D01*
X01020732Y00871460D02*
X01025460D01*
X01029250Y00875250D01*
X00991500Y00844250D02*
Y00852000D01*
X00990750Y00852750D02*
X00991500Y00852000D01*
X00989750Y00838600D02*
X00992330Y00841180D01*
Y00844330D01*
D17*
X01013250Y00902000D02*
D03*
X00999662D02*
D03*
X00938250Y00906750D02*
D03*
X00902500Y00905150D02*
D03*
X01050000Y00915250D02*
D03*
X01046301Y00880543D02*
D03*
X01022000Y00820000D02*
D03*
X00976750Y00844500D02*
D03*
X00999500Y00760500D02*
D03*
X01035689Y00757482D02*
D03*
X01031250Y00832500D02*
D03*
X00899250Y00764500D02*
D03*
X01036750Y00748500D02*
D03*
X00970500Y00861250D02*
D03*
X00931045Y00844291D02*
D03*
X00936796Y00849041D02*
D03*
X00927545Y00854292D02*
D03*
X01000500Y00849250D02*
D03*
X01011750Y00866000D02*
D03*
X00956797Y00899794D02*
D03*
X01044500Y00899500D02*
D03*
X01021000Y00902000D02*
D03*
X01036500Y00896250D02*
D03*
X01031223Y00846682D02*
D03*
X01031250Y00839000D02*
D03*
X01048551Y00871042D02*
D03*
X01048301Y00860042D02*
D03*
X01048500Y00853307D02*
D03*
X01046750Y00846000D02*
D03*
X00984250Y00844500D02*
D03*
X00991500Y00844250D02*
D03*
X01023750Y00784000D02*
D03*
X00983000Y00792000D02*
D03*
X00994000D02*
D03*
X00983000Y00803000D02*
D03*
X00994000D02*
D03*
X00983000Y00814000D02*
D03*
X00994000D02*
D03*
X00983000Y00825000D02*
D03*
X00994000D02*
D03*
X01007750Y00837500D02*
D03*
X00917000Y00877000D02*
D03*
X00891750Y00877250D02*
D03*
X00978000Y00748500D02*
D03*
X00991750Y00774000D02*
D03*
X00937000Y00794250D02*
D03*
X01015000Y00822750D02*
D03*
X01015049Y00803549D02*
D03*
X01056250Y00727250D02*
D03*
X00891500Y00851250D02*
D03*
X01019750Y00882000D02*
D03*
X01020732Y00871460D02*
D03*
X00984690Y00884560D02*
D03*
X00907732Y00820439D02*
D03*
X00926750Y00819250D02*
D03*
X00891794Y00869542D02*
D03*
X00944500Y00874467D02*
D03*
D18*
X01065500Y00732750D02*
D03*
D19*
X01028750Y00733250D02*
D03*
X01045500D02*
D03*
D20*
X01062000Y00860750D02*
D03*
Y00847600D02*
D03*
D21*
X01016000Y00778500D02*
D03*
Y00788500D02*
D03*
X01045250Y00751500D02*
D03*
Y00761500D02*
D03*
X00934250Y00776000D02*
D03*
Y00786000D02*
D03*
X01056500Y00768250D02*
D03*
Y00778250D02*
D03*
X00923500Y00875000D02*
D03*
Y00885000D02*
D03*
X00950749Y00890750D02*
D03*
Y00880750D02*
D03*
X00964749Y00890750D02*
D03*
Y00880750D02*
D03*
X00910500Y00843500D02*
D03*
Y00833500D02*
D03*
X00898500Y00833500D02*
D03*
Y00843500D02*
D03*
X00957195Y00788695D02*
D03*
Y00798695D02*
D03*
X01025000Y00851250D02*
D03*
Y00861250D02*
D03*
X00994250Y00766250D02*
D03*
Y00756250D02*
D03*
X01036250Y00862500D02*
D03*
Y00852500D02*
D03*
X01060750Y00750500D02*
D03*
Y00740500D02*
D03*
X01028750Y00761500D02*
D03*
Y00751500D02*
D03*
X00970500Y00749000D02*
D03*
Y00739000D02*
D03*
X00934250Y00740500D02*
D03*
Y00750500D02*
D03*
X01062500Y00877000D02*
D03*
Y00887000D02*
D03*
X01062500Y00912000D02*
D03*
Y00902000D02*
D03*
X00934250Y00802500D02*
D03*
Y00812500D02*
D03*
X01061000Y00813500D02*
D03*
Y00803500D02*
D03*
X01024500Y00837750D02*
D03*
Y00827750D02*
D03*
X00981500Y00756500D02*
D03*
Y00766500D02*
D03*
X01017500Y00760500D02*
D03*
Y00750500D02*
D03*
X00937000Y00885000D02*
D03*
Y00875000D02*
D03*
X00922500Y00843500D02*
D03*
Y00833500D02*
D03*
X00934250Y00836500D02*
D03*
Y00826500D02*
D03*
X00946000Y00798750D02*
D03*
Y00788750D02*
D03*
X01013500Y00857000D02*
D03*
Y00847000D02*
D03*
X01006000Y00756500D02*
D03*
Y00766500D02*
D03*
D22*
X00998500Y00742500D02*
D03*
X00988500D02*
D03*
X01038000Y00791000D02*
D03*
X01028000D02*
D03*
X00946750Y00811000D02*
D03*
X00956750D02*
D03*
X01050750Y00791000D02*
D03*
X01060750D02*
D03*
X00899000Y00870250D02*
D03*
X00909000D02*
D03*
X00956250Y00775500D02*
D03*
X00946250D02*
D03*
X01039250Y00875250D02*
D03*
X01029250D02*
D03*
X00909250Y00881750D02*
D03*
X00899250D02*
D03*
X01024250Y00802750D02*
D03*
X01034250D02*
D03*
X01027500Y00814000D02*
D03*
X01017500D02*
D03*
X00899000Y00859000D02*
D03*
X00909000D02*
D03*
X00925500Y00862250D02*
D03*
X00935500D02*
D03*
X00980750Y00852750D02*
D03*
X00990750D02*
D03*
X00953000Y00869000D02*
D03*
X00963000D02*
D03*
D23*
X00970750Y00786500D02*
D03*
Y00790500D02*
D03*
Y00794500D02*
D03*
Y00798500D02*
D03*
Y00802500D02*
D03*
Y00806500D02*
D03*
Y00810500D02*
D03*
Y00814500D02*
D03*
Y00818500D02*
D03*
Y00822500D02*
D03*
Y00826500D02*
D03*
Y00830500D02*
D03*
X01006250D02*
D03*
Y00826500D02*
D03*
Y00822500D02*
D03*
Y00818500D02*
D03*
Y00814500D02*
D03*
Y00810500D02*
D03*
Y00806500D02*
D03*
Y00802500D02*
D03*
Y00798500D02*
D03*
Y00794500D02*
D03*
Y00790500D02*
D03*
Y00786500D02*
D03*
D24*
X00976500Y00836250D02*
D03*
X00980500D02*
D03*
X00984500D02*
D03*
X00988500D02*
D03*
X00992500D02*
D03*
X00996500D02*
D03*
X01000500D02*
D03*
Y00780750D02*
D03*
X00996500D02*
D03*
X00992500D02*
D03*
X00988500D02*
D03*
X00984500D02*
D03*
X00980500D02*
D03*
X00976500D02*
D03*
D25*
X00988500Y00808500D02*
D03*
D26*
X01028750Y00890000D02*
D03*
Y00895000D02*
D03*
Y00900000D02*
D03*
Y00905000D02*
D03*
X01051750D02*
D03*
Y00900000D02*
D03*
Y00895000D02*
D03*
Y00890000D02*
D03*
D27*
X01035250Y00906500D02*
D03*
X01040250D02*
D03*
X01045250D02*
D03*
Y00888500D02*
D03*
X01040250D02*
D03*
X01035250D02*
D03*
D28*
X01044750Y00835100D02*
D03*
Y00818000D02*
D03*
X00950000Y00844550D02*
D03*
Y00827450D02*
D03*
D29*
X00952000Y00739450D02*
D03*
Y00760750D02*
D03*
D30*
X01000050Y00870500D02*
D03*
X00982950D02*
D03*
D31*
X01041500Y00775000D02*
D03*
X01026500D02*
D03*
D32*
X00918682Y00787296D02*
D03*
Y00780692D02*
D03*
Y00774088D02*
D03*
Y00767484D02*
D03*
Y00760880D02*
D03*
D33*
X00891250Y00736750D02*
D03*
Y00811680D02*
D03*
D34*
X00958750Y00818750D02*
X00967000Y00810500D01*
X00988500Y00836250D02*
X00992100D01*
X00984400Y00769400D02*
Y00780650D01*
X00984500Y00780750D01*
X00988500D01*
X00970750Y00806500D02*
Y00810500D01*
X00967000D02*
X00970750D01*
X00922500Y00833500D02*
X00929500Y00826500D01*
X00934250D01*
X00981500Y00766500D02*
X00984400Y00769400D01*
X00910500Y00833500D02*
X00922500D01*
M02*
