G04 Layer_Color=32896*
%FSLAX44Y44*%
%MOMM*%
G71*
G01*
G75*
G36*
X365559Y1173972D02*
X366053Y1173915D01*
X366490Y1173845D01*
X366701Y1173789D01*
X366885Y1173746D01*
X367054Y1173704D01*
X367209Y1173648D01*
X367350Y1173605D01*
X367463Y1173577D01*
X367547Y1173535D01*
X367618Y1173521D01*
X367660Y1173493D01*
X367674D01*
X368097Y1173281D01*
X368478Y1173041D01*
X368802Y1172788D01*
X368929Y1172661D01*
X369055Y1172548D01*
X369168Y1172435D01*
X369267Y1172322D01*
X369352Y1172224D01*
X369408Y1172139D01*
X369464Y1172083D01*
X369507Y1172026D01*
X369521Y1171998D01*
X369535Y1171984D01*
X369648Y1171787D01*
X369746Y1171589D01*
X369901Y1171167D01*
X370014Y1170744D01*
X370085Y1170335D01*
X370113Y1170137D01*
X370141Y1169968D01*
X370155Y1169813D01*
Y1169686D01*
X370169Y1169574D01*
Y1169489D01*
Y1169433D01*
Y1169418D01*
X370155Y1169137D01*
X370127Y1168869D01*
X370099Y1168615D01*
X370042Y1168375D01*
X369972Y1168150D01*
X369901Y1167938D01*
X369831Y1167741D01*
X369746Y1167558D01*
X369676Y1167403D01*
X369605Y1167247D01*
X369535Y1167135D01*
X369464Y1167022D01*
X369408Y1166952D01*
X369380Y1166881D01*
X369352Y1166853D01*
X369337Y1166839D01*
X369168Y1166641D01*
X368999Y1166472D01*
X368802Y1166317D01*
X368604Y1166162D01*
X368210Y1165908D01*
X367815Y1165711D01*
X367632Y1165626D01*
X367463Y1165556D01*
X367308Y1165499D01*
X367181Y1165457D01*
X367068Y1165415D01*
X366983Y1165387D01*
X366927Y1165373D01*
X366913D01*
X366589Y1166669D01*
X366814Y1166726D01*
X367025Y1166796D01*
X367223Y1166867D01*
X367406Y1166937D01*
X367575Y1167022D01*
X367716Y1167107D01*
X367857Y1167205D01*
X367984Y1167290D01*
X368097Y1167360D01*
X368181Y1167445D01*
X368266Y1167515D01*
X368337Y1167572D01*
X368379Y1167628D01*
X368421Y1167670D01*
X368435Y1167684D01*
X368449Y1167699D01*
X368562Y1167840D01*
X368647Y1167995D01*
X368802Y1168305D01*
X368914Y1168601D01*
X368985Y1168897D01*
X369041Y1169151D01*
X369055Y1169249D01*
Y1169348D01*
X369070Y1169433D01*
Y1169489D01*
Y1169517D01*
Y1169531D01*
X369055Y1169855D01*
X368999Y1170166D01*
X368929Y1170447D01*
X368844Y1170701D01*
X368759Y1170899D01*
X368717Y1170983D01*
X368689Y1171054D01*
X368661Y1171110D01*
X368633Y1171152D01*
X368619Y1171181D01*
Y1171195D01*
X368421Y1171462D01*
X368210Y1171688D01*
X367970Y1171885D01*
X367744Y1172040D01*
X367547Y1172167D01*
X367378Y1172252D01*
X367308Y1172280D01*
X367265Y1172308D01*
X367237Y1172322D01*
X367223D01*
X366856Y1172435D01*
X366490Y1172520D01*
X366123Y1172590D01*
X365785Y1172633D01*
X365630Y1172647D01*
X365489Y1172661D01*
X365362D01*
X365263Y1172675D01*
X365052D01*
X364685Y1172661D01*
X364347Y1172633D01*
X364037Y1172576D01*
X363755Y1172520D01*
X363515Y1172477D01*
X363417Y1172449D01*
X363332Y1172421D01*
X363262Y1172407D01*
X363219Y1172393D01*
X363191Y1172379D01*
X363177D01*
X362853Y1172238D01*
X362557Y1172083D01*
X362317Y1171914D01*
X362106Y1171730D01*
X361936Y1171575D01*
X361824Y1171448D01*
X361753Y1171350D01*
X361725Y1171336D01*
Y1171322D01*
X361542Y1171025D01*
X361401Y1170701D01*
X361302Y1170391D01*
X361246Y1170095D01*
X361203Y1169827D01*
X361189Y1169715D01*
Y1169616D01*
X361175Y1169545D01*
Y1169489D01*
Y1169447D01*
Y1169433D01*
X361189Y1169080D01*
X361246Y1168756D01*
X361330Y1168488D01*
X361415Y1168248D01*
X361514Y1168065D01*
X361584Y1167924D01*
X361641Y1167840D01*
X361669Y1167811D01*
X361880Y1167586D01*
X362120Y1167374D01*
X362374Y1167205D01*
X362627Y1167064D01*
X362853Y1166952D01*
X362966Y1166909D01*
X363050Y1166881D01*
X363121Y1166853D01*
X363177Y1166825D01*
X363205Y1166811D01*
X363219D01*
X362923Y1165542D01*
X362670Y1165626D01*
X362444Y1165711D01*
X362233Y1165824D01*
X362021Y1165922D01*
X361838Y1166035D01*
X361669Y1166162D01*
X361499Y1166275D01*
X361358Y1166388D01*
X361246Y1166500D01*
X361133Y1166599D01*
X361034Y1166698D01*
X360964Y1166768D01*
X360893Y1166839D01*
X360851Y1166895D01*
X360837Y1166923D01*
X360823Y1166937D01*
X360696Y1167135D01*
X360569Y1167332D01*
X360470Y1167530D01*
X360386Y1167741D01*
X360259Y1168164D01*
X360174Y1168544D01*
X360132Y1168728D01*
X360118Y1168883D01*
X360104Y1169038D01*
X360090Y1169165D01*
X360076Y1169263D01*
Y1169334D01*
Y1169390D01*
Y1169404D01*
X360104Y1169870D01*
X360174Y1170321D01*
X360259Y1170715D01*
X360315Y1170899D01*
X360372Y1171068D01*
X360428Y1171223D01*
X360485Y1171364D01*
X360527Y1171477D01*
X360569Y1171589D01*
X360611Y1171660D01*
X360640Y1171716D01*
X360654Y1171759D01*
X360668Y1171773D01*
X360907Y1172153D01*
X361189Y1172477D01*
X361471Y1172759D01*
X361753Y1172999D01*
X362007Y1173182D01*
X362120Y1173253D01*
X362219Y1173309D01*
X362289Y1173366D01*
X362345Y1173394D01*
X362388Y1173408D01*
X362402Y1173422D01*
X362839Y1173619D01*
X363290Y1173760D01*
X363741Y1173859D01*
X364150Y1173930D01*
X364333Y1173958D01*
X364516Y1173972D01*
X364657Y1173986D01*
X364798D01*
X364897Y1174000D01*
X365052D01*
X365559Y1173972D01*
D02*
G37*
G36*
X454067Y1148792D02*
X456590D01*
Y1147086D01*
X454067D01*
Y1144521D01*
X452319D01*
Y1147086D01*
X449795D01*
Y1148792D01*
X452319D01*
Y1151344D01*
X454067D01*
Y1148792D01*
D02*
G37*
G36*
X370000Y1151177D02*
X369986Y1150853D01*
X369972Y1150557D01*
X369944Y1150289D01*
X369915Y1150063D01*
X369887Y1149866D01*
X369873Y1149725D01*
X369859Y1149683D01*
X369845Y1149640D01*
Y1149626D01*
Y1149612D01*
X369774Y1149358D01*
X369690Y1149133D01*
X369619Y1148935D01*
X369535Y1148766D01*
X369464Y1148625D01*
X369408Y1148527D01*
X369366Y1148470D01*
X369352Y1148442D01*
X369225Y1148259D01*
X369070Y1148104D01*
X368929Y1147949D01*
X368788Y1147822D01*
X368661Y1147709D01*
X368562Y1147625D01*
X368492Y1147568D01*
X368463Y1147554D01*
X368238Y1147413D01*
X367998Y1147272D01*
X367773Y1147159D01*
X367547Y1147075D01*
X367350Y1146990D01*
X367195Y1146934D01*
X367138Y1146920D01*
X367096Y1146906D01*
X367068Y1146891D01*
X367054D01*
X366715Y1146807D01*
X366377Y1146736D01*
X366053Y1146694D01*
X365743Y1146652D01*
X365475Y1146638D01*
X365362D01*
X365263Y1146624D01*
X365080D01*
X364601Y1146638D01*
X364164Y1146680D01*
X363769Y1146750D01*
X363586Y1146779D01*
X363431Y1146821D01*
X363276Y1146863D01*
X363149Y1146891D01*
X363036Y1146920D01*
X362937Y1146962D01*
X362853Y1146976D01*
X362796Y1147004D01*
X362768Y1147018D01*
X362754D01*
X362388Y1147173D01*
X362063Y1147357D01*
X361781Y1147554D01*
X361542Y1147737D01*
X361344Y1147906D01*
X361203Y1148047D01*
X361161Y1148104D01*
X361119Y1148146D01*
X361105Y1148160D01*
X361091Y1148174D01*
X360907Y1148400D01*
X360766Y1148640D01*
X360640Y1148879D01*
X360541Y1149105D01*
X360470Y1149302D01*
X360428Y1149457D01*
X360400Y1149513D01*
Y1149556D01*
X360386Y1149584D01*
Y1149598D01*
X360344Y1149838D01*
X360301Y1150120D01*
X360273Y1150402D01*
X360259Y1150684D01*
X360245Y1150937D01*
Y1151050D01*
Y1151149D01*
Y1151219D01*
Y1151276D01*
Y1151318D01*
Y1151332D01*
Y1154687D01*
X370000D01*
Y1151177D01*
D02*
G37*
G36*
X367223Y1164189D02*
X367561Y1164132D01*
X367857Y1164047D01*
X368125Y1163949D01*
X368337Y1163850D01*
X368421Y1163808D01*
X368492Y1163780D01*
X368548Y1163737D01*
X368590Y1163723D01*
X368619Y1163695D01*
X368633D01*
X368900Y1163484D01*
X369140Y1163258D01*
X369337Y1163018D01*
X369507Y1162793D01*
X369633Y1162596D01*
X369718Y1162426D01*
X369746Y1162370D01*
X369774Y1162328D01*
X369789Y1162299D01*
Y1162285D01*
X369915Y1161933D01*
X370014Y1161566D01*
X370070Y1161200D01*
X370127Y1160847D01*
X370141Y1160678D01*
X370155Y1160537D01*
Y1160411D01*
X370169Y1160298D01*
Y1160199D01*
Y1160128D01*
Y1160086D01*
Y1160072D01*
X370155Y1159691D01*
X370113Y1159339D01*
X370042Y1159015D01*
X369972Y1158747D01*
X369915Y1158521D01*
X369873Y1158423D01*
X369845Y1158338D01*
X369817Y1158282D01*
X369803Y1158240D01*
X369789Y1158211D01*
Y1158197D01*
X369633Y1157901D01*
X369464Y1157647D01*
X369281Y1157422D01*
X369112Y1157239D01*
X368971Y1157098D01*
X368844Y1156999D01*
X368759Y1156928D01*
X368745Y1156914D01*
X368731D01*
X368463Y1156759D01*
X368210Y1156647D01*
X367970Y1156576D01*
X367744Y1156520D01*
X367547Y1156491D01*
X367392Y1156463D01*
X367265D01*
X366983Y1156477D01*
X366715Y1156520D01*
X366476Y1156590D01*
X366278Y1156661D01*
X366109Y1156745D01*
X365982Y1156802D01*
X365912Y1156858D01*
X365884Y1156872D01*
X365672Y1157041D01*
X365475Y1157239D01*
X365306Y1157450D01*
X365151Y1157662D01*
X365038Y1157845D01*
X364953Y1158000D01*
X364925Y1158056D01*
X364897Y1158099D01*
X364883Y1158127D01*
Y1158141D01*
X364826Y1158254D01*
X364784Y1158395D01*
X364728Y1158550D01*
X364671Y1158719D01*
X364573Y1159071D01*
X364474Y1159438D01*
X364432Y1159607D01*
X364389Y1159762D01*
X364347Y1159917D01*
X364319Y1160044D01*
X364291Y1160143D01*
X364277Y1160227D01*
X364263Y1160284D01*
Y1160298D01*
X364192Y1160580D01*
X364136Y1160833D01*
X364065Y1161059D01*
X364009Y1161256D01*
X363938Y1161440D01*
X363882Y1161595D01*
X363825Y1161736D01*
X363783Y1161862D01*
X363727Y1161961D01*
X363685Y1162046D01*
X363656Y1162102D01*
X363614Y1162159D01*
X363572Y1162229D01*
X363558Y1162243D01*
X363417Y1162370D01*
X363276Y1162455D01*
X363135Y1162525D01*
X362994Y1162567D01*
X362881Y1162596D01*
X362782Y1162610D01*
X362698D01*
X362472Y1162581D01*
X362275Y1162525D01*
X362106Y1162440D01*
X361951Y1162342D01*
X361838Y1162257D01*
X361739Y1162173D01*
X361683Y1162116D01*
X361669Y1162088D01*
X361598Y1161975D01*
X361528Y1161862D01*
X361415Y1161595D01*
X361344Y1161313D01*
X361288Y1161031D01*
X361260Y1160777D01*
X361246Y1160664D01*
X361232Y1160580D01*
Y1160495D01*
Y1160439D01*
Y1160396D01*
Y1160382D01*
X361246Y1159988D01*
X361302Y1159635D01*
X361387Y1159353D01*
X361471Y1159114D01*
X361556Y1158930D01*
X361641Y1158789D01*
X361697Y1158719D01*
X361711Y1158691D01*
X361908Y1158493D01*
X362120Y1158338D01*
X362345Y1158211D01*
X362571Y1158127D01*
X362782Y1158070D01*
X362937Y1158028D01*
X363008Y1158014D01*
X363050Y1158000D01*
X363092D01*
X362994Y1156759D01*
X362684Y1156788D01*
X362402Y1156858D01*
X362134Y1156928D01*
X361908Y1157027D01*
X361725Y1157112D01*
X361584Y1157182D01*
X361542Y1157210D01*
X361499Y1157239D01*
X361485Y1157253D01*
X361471D01*
X361232Y1157436D01*
X361020Y1157633D01*
X360837Y1157845D01*
X360696Y1158056D01*
X360569Y1158240D01*
X360499Y1158381D01*
X360470Y1158437D01*
X360442Y1158479D01*
X360428Y1158507D01*
Y1158521D01*
X360315Y1158832D01*
X360231Y1159170D01*
X360160Y1159480D01*
X360118Y1159776D01*
X360090Y1160044D01*
Y1160143D01*
X360076Y1160241D01*
Y1160312D01*
Y1160382D01*
Y1160411D01*
Y1160425D01*
X360090Y1160791D01*
X360132Y1161115D01*
X360188Y1161425D01*
X360245Y1161693D01*
X360301Y1161905D01*
X360330Y1162003D01*
X360358Y1162074D01*
X360386Y1162130D01*
X360400Y1162173D01*
X360414Y1162201D01*
Y1162215D01*
X360555Y1162497D01*
X360710Y1162751D01*
X360879Y1162962D01*
X361034Y1163131D01*
X361175Y1163258D01*
X361288Y1163357D01*
X361373Y1163427D01*
X361387Y1163441D01*
X361401D01*
X361641Y1163582D01*
X361880Y1163681D01*
X362120Y1163752D01*
X362331Y1163794D01*
X362514Y1163822D01*
X362655Y1163850D01*
X362782D01*
X363022Y1163836D01*
X363247Y1163794D01*
X363459Y1163737D01*
X363642Y1163681D01*
X363783Y1163625D01*
X363896Y1163568D01*
X363966Y1163526D01*
X363995Y1163512D01*
X364192Y1163371D01*
X364375Y1163202D01*
X364530Y1163033D01*
X364657Y1162863D01*
X364770Y1162722D01*
X364841Y1162596D01*
X364897Y1162511D01*
X364911Y1162497D01*
Y1162483D01*
X364967Y1162370D01*
X365024Y1162243D01*
X365122Y1161961D01*
X365221Y1161637D01*
X365320Y1161327D01*
X365404Y1161045D01*
X365433Y1160918D01*
X365461Y1160805D01*
X365489Y1160721D01*
X365503Y1160650D01*
X365517Y1160608D01*
Y1160594D01*
X365574Y1160354D01*
X365630Y1160128D01*
X365686Y1159931D01*
X365729Y1159762D01*
X365771Y1159593D01*
X365813Y1159452D01*
X365841Y1159325D01*
X365884Y1159226D01*
X365912Y1159128D01*
X365926Y1159057D01*
X365968Y1158944D01*
X365982Y1158874D01*
X365996Y1158860D01*
X366081Y1158648D01*
X366180Y1158465D01*
X366278Y1158310D01*
X366363Y1158197D01*
X366448Y1158099D01*
X366504Y1158042D01*
X366546Y1158000D01*
X366560Y1157986D01*
X366687Y1157887D01*
X366828Y1157817D01*
X366969Y1157774D01*
X367082Y1157732D01*
X367195Y1157718D01*
X367279Y1157704D01*
X367364D01*
X367533Y1157718D01*
X367688Y1157746D01*
X367829Y1157788D01*
X367942Y1157845D01*
X368055Y1157901D01*
X368125Y1157943D01*
X368181Y1157972D01*
X368196Y1157986D01*
X368337Y1158099D01*
X368449Y1158240D01*
X368548Y1158381D01*
X368647Y1158507D01*
X368703Y1158634D01*
X368759Y1158733D01*
X368788Y1158803D01*
X368802Y1158832D01*
X368872Y1159043D01*
X368929Y1159269D01*
X368957Y1159494D01*
X368985Y1159691D01*
X368999Y1159861D01*
X369013Y1160002D01*
Y1160058D01*
Y1160100D01*
Y1160114D01*
Y1160128D01*
X368999Y1160439D01*
X368971Y1160721D01*
X368929Y1160974D01*
X368872Y1161200D01*
X368816Y1161383D01*
X368774Y1161524D01*
X368759Y1161566D01*
X368745Y1161609D01*
X368731Y1161623D01*
Y1161637D01*
X368619Y1161862D01*
X368492Y1162074D01*
X368365Y1162229D01*
X368238Y1162370D01*
X368139Y1162483D01*
X368041Y1162553D01*
X367984Y1162596D01*
X367970Y1162610D01*
X367787Y1162708D01*
X367589Y1162807D01*
X367378Y1162863D01*
X367195Y1162920D01*
X367011Y1162962D01*
X366885Y1162990D01*
X366828D01*
X366786Y1163004D01*
X366758D01*
X366870Y1164217D01*
X367223Y1164189D01*
D02*
G37*
G36*
X458000Y1157504D02*
Y1155375D01*
X448245Y1151907D01*
Y1154008D01*
X455462Y1156390D01*
X448245Y1158871D01*
Y1161000D01*
X458000Y1157504D01*
D02*
G37*
G36*
X382650Y1160893D02*
X382932Y1160696D01*
X383186Y1160513D01*
X383397Y1160330D01*
X383595Y1160174D01*
X383736Y1160033D01*
X383848Y1159921D01*
X383919Y1159850D01*
X383947Y1159822D01*
X384032Y1159709D01*
X384130Y1159582D01*
X384286Y1159329D01*
X384342Y1159216D01*
X384398Y1159131D01*
X384426Y1159075D01*
X384441Y1159047D01*
X384483Y1159301D01*
X384525Y1159540D01*
X384596Y1159752D01*
X384652Y1159963D01*
X384723Y1160146D01*
X384807Y1160315D01*
X384878Y1160471D01*
X384948Y1160611D01*
X385033Y1160724D01*
X385103Y1160837D01*
X385159Y1160922D01*
X385216Y1160992D01*
X385258Y1161049D01*
X385300Y1161091D01*
X385315Y1161105D01*
X385329Y1161119D01*
X385470Y1161232D01*
X385611Y1161345D01*
X385907Y1161514D01*
X386203Y1161627D01*
X386485Y1161711D01*
X386724Y1161768D01*
X386823Y1161781D01*
X386922D01*
X386992Y1161796D01*
X387091D01*
X387387Y1161781D01*
X387655Y1161739D01*
X387908Y1161669D01*
X388120Y1161598D01*
X388303Y1161514D01*
X388444Y1161457D01*
X388529Y1161401D01*
X388543Y1161387D01*
X388557D01*
X388782Y1161218D01*
X388980Y1161049D01*
X389149Y1160865D01*
X389276Y1160696D01*
X389375Y1160541D01*
X389431Y1160414D01*
X389473Y1160330D01*
X389487Y1160315D01*
Y1160301D01*
X389530Y1160174D01*
X389572Y1160019D01*
X389642Y1159709D01*
X389685Y1159371D01*
X389727Y1159061D01*
X389741Y1158765D01*
Y1158638D01*
X389755Y1158525D01*
Y1158441D01*
Y1158370D01*
Y1158328D01*
Y1158314D01*
Y1154000D01*
X380000D01*
Y1155297D01*
X384328D01*
Y1156791D01*
Y1156960D01*
X384314Y1157115D01*
Y1157228D01*
X384300Y1157327D01*
X384286Y1157397D01*
Y1157454D01*
X384271Y1157482D01*
Y1157496D01*
X384201Y1157722D01*
X384159Y1157820D01*
X384116Y1157905D01*
X384074Y1157990D01*
X384046Y1158046D01*
X384032Y1158074D01*
X384018Y1158088D01*
X383933Y1158201D01*
X383834Y1158314D01*
X383623Y1158525D01*
X383524Y1158624D01*
X383440Y1158694D01*
X383383Y1158737D01*
X383369Y1158751D01*
X383172Y1158892D01*
X382960Y1159047D01*
X382735Y1159202D01*
X382523Y1159357D01*
X382326Y1159484D01*
X382171Y1159582D01*
X382115Y1159625D01*
X382072Y1159653D01*
X382044Y1159681D01*
X382030D01*
X380000Y1160964D01*
Y1162571D01*
X382650Y1160893D01*
D02*
G37*
G36*
X381156Y1164827D02*
X381396Y1164996D01*
X381494Y1165080D01*
X381593Y1165151D01*
X381678Y1165221D01*
X381734Y1165278D01*
X381776Y1165320D01*
X381790Y1165334D01*
X381861Y1165405D01*
X381931Y1165489D01*
X382115Y1165686D01*
X382326Y1165912D01*
X382537Y1166152D01*
X382721Y1166377D01*
X382805Y1166476D01*
X382890Y1166560D01*
X382946Y1166631D01*
X382989Y1166687D01*
X383017Y1166715D01*
X383031Y1166730D01*
X383228Y1166955D01*
X383411Y1167181D01*
X383595Y1167378D01*
X383750Y1167561D01*
X383905Y1167730D01*
X384046Y1167871D01*
X384173Y1168012D01*
X384286Y1168125D01*
X384398Y1168238D01*
X384483Y1168323D01*
X384553Y1168393D01*
X384624Y1168464D01*
X384708Y1168534D01*
X384737Y1168562D01*
X384976Y1168760D01*
X385188Y1168929D01*
X385399Y1169070D01*
X385568Y1169183D01*
X385723Y1169267D01*
X385836Y1169323D01*
X385907Y1169352D01*
X385935Y1169366D01*
X386146Y1169450D01*
X386358Y1169507D01*
X386555Y1169563D01*
X386724Y1169591D01*
X386879Y1169605D01*
X386992Y1169620D01*
X387091D01*
X387302Y1169605D01*
X387500Y1169577D01*
X387697Y1169549D01*
X387866Y1169493D01*
X388204Y1169352D01*
X388472Y1169211D01*
X388599Y1169126D01*
X388698Y1169056D01*
X388797Y1168985D01*
X388867Y1168915D01*
X388923Y1168858D01*
X388980Y1168830D01*
X388994Y1168802D01*
X389008Y1168788D01*
X389149Y1168633D01*
X389276Y1168464D01*
X389375Y1168280D01*
X389459Y1168097D01*
X389600Y1167730D01*
X389699Y1167364D01*
X389727Y1167209D01*
X389755Y1167054D01*
X389769Y1166913D01*
X389783Y1166800D01*
X389797Y1166701D01*
Y1166617D01*
Y1166574D01*
Y1166560D01*
X389783Y1166307D01*
X389769Y1166067D01*
X389727Y1165842D01*
X389685Y1165630D01*
X389628Y1165433D01*
X389572Y1165249D01*
X389501Y1165080D01*
X389431Y1164925D01*
X389360Y1164784D01*
X389290Y1164671D01*
X389234Y1164573D01*
X389177Y1164488D01*
X389135Y1164418D01*
X389093Y1164375D01*
X389078Y1164347D01*
X389064Y1164333D01*
X388923Y1164192D01*
X388768Y1164065D01*
X388599Y1163938D01*
X388430Y1163840D01*
X388092Y1163671D01*
X387753Y1163558D01*
X387598Y1163515D01*
X387443Y1163473D01*
X387316Y1163445D01*
X387204Y1163417D01*
X387105Y1163403D01*
X387034D01*
X386992Y1163389D01*
X386978D01*
X386851Y1164615D01*
X387175Y1164643D01*
X387457Y1164700D01*
X387711Y1164784D01*
X387908Y1164883D01*
X388078Y1164967D01*
X388190Y1165052D01*
X388261Y1165108D01*
X388289Y1165137D01*
X388458Y1165348D01*
X388585Y1165574D01*
X388684Y1165813D01*
X388740Y1166025D01*
X388782Y1166222D01*
X388797Y1166391D01*
X388811Y1166448D01*
Y1166490D01*
Y1166518D01*
Y1166532D01*
X388797Y1166828D01*
X388740Y1167096D01*
X388656Y1167322D01*
X388571Y1167519D01*
X388472Y1167674D01*
X388402Y1167773D01*
X388345Y1167843D01*
X388317Y1167871D01*
X388120Y1168041D01*
X387923Y1168167D01*
X387725Y1168266D01*
X387528Y1168323D01*
X387373Y1168365D01*
X387232Y1168379D01*
X387147Y1168393D01*
X387119D01*
X386865Y1168365D01*
X386597Y1168308D01*
X386358Y1168210D01*
X386132Y1168111D01*
X385949Y1167998D01*
X385794Y1167900D01*
X385737Y1167871D01*
X385695Y1167843D01*
X385681Y1167815D01*
X385667D01*
X385512Y1167702D01*
X385357Y1167561D01*
X385188Y1167406D01*
X385019Y1167237D01*
X384680Y1166885D01*
X384342Y1166532D01*
X384187Y1166349D01*
X384046Y1166194D01*
X383919Y1166039D01*
X383806Y1165912D01*
X383722Y1165813D01*
X383651Y1165729D01*
X383609Y1165672D01*
X383595Y1165658D01*
X383299Y1165306D01*
X383017Y1164982D01*
X382763Y1164714D01*
X382552Y1164502D01*
X382368Y1164319D01*
X382241Y1164192D01*
X382157Y1164122D01*
X382143Y1164093D01*
X382129D01*
X381889Y1163896D01*
X381663Y1163741D01*
X381438Y1163600D01*
X381241Y1163487D01*
X381071Y1163403D01*
X380945Y1163346D01*
X380860Y1163318D01*
X380846Y1163304D01*
X380832D01*
X380677Y1163248D01*
X380536Y1163219D01*
X380395Y1163191D01*
X380268Y1163177D01*
X380155Y1163163D01*
X380000D01*
Y1169634D01*
X381156D01*
Y1164827D01*
D02*
G37*
G36*
X400699Y1166141D02*
X400924Y1166113D01*
X401136Y1166070D01*
X401333Y1166000D01*
X401714Y1165845D01*
X401869Y1165746D01*
X402024Y1165662D01*
X402165Y1165563D01*
X402278Y1165478D01*
X402376Y1165394D01*
X402475Y1165323D01*
X402545Y1165253D01*
X402588Y1165210D01*
X402616Y1165182D01*
X402630Y1165168D01*
X402785Y1164971D01*
X402926Y1164759D01*
X403053Y1164548D01*
X403152Y1164308D01*
X403236Y1164083D01*
X403307Y1163843D01*
X403419Y1163392D01*
X403462Y1163181D01*
X403490Y1162983D01*
X403504Y1162814D01*
X403518Y1162659D01*
X403532Y1162532D01*
Y1162448D01*
Y1162377D01*
Y1162363D01*
X403518Y1162081D01*
X403504Y1161813D01*
X403462Y1161573D01*
X403419Y1161362D01*
X403377Y1161179D01*
X403349Y1161038D01*
X403335Y1160995D01*
X403321Y1160953D01*
X403307Y1160939D01*
Y1160925D01*
X403222Y1160685D01*
X403123Y1160460D01*
X403025Y1160263D01*
X402926Y1160093D01*
X402841Y1159967D01*
X402771Y1159868D01*
X402729Y1159797D01*
X402715Y1159783D01*
X402574Y1159614D01*
X402404Y1159459D01*
X402249Y1159332D01*
X402094Y1159233D01*
X401967Y1159149D01*
X401855Y1159078D01*
X401784Y1159050D01*
X401756Y1159036D01*
X401544Y1158951D01*
X401319Y1158881D01*
X401107Y1158839D01*
X400924Y1158796D01*
X400769Y1158782D01*
X400642Y1158768D01*
X400530D01*
X400318Y1158782D01*
X400107Y1158811D01*
X399909Y1158853D01*
X399726Y1158923D01*
X399402Y1159064D01*
X399120Y1159248D01*
X399007Y1159332D01*
X398894Y1159417D01*
X398810Y1159501D01*
X398739Y1159572D01*
X398669Y1159642D01*
X398626Y1159685D01*
X398612Y1159713D01*
X398598Y1159727D01*
Y1156245D01*
X397400D01*
Y1166000D01*
X398514D01*
Y1165112D01*
X398655Y1165295D01*
X398796Y1165450D01*
X398951Y1165591D01*
X399120Y1165718D01*
X399275Y1165817D01*
X399444Y1165901D01*
X399599Y1165972D01*
X399754Y1166028D01*
X400036Y1166099D01*
X400163Y1166127D01*
X400262Y1166141D01*
X400346D01*
X400417Y1166155D01*
X400473D01*
X400699Y1166141D01*
D02*
G37*
G36*
X410708Y1158923D02*
X409636D01*
Y1159882D01*
X409495Y1159685D01*
X409340Y1159515D01*
X409171Y1159360D01*
X409002Y1159233D01*
X408833Y1159135D01*
X408663Y1159036D01*
X408494Y1158966D01*
X408325Y1158909D01*
X408170Y1158867D01*
X408029Y1158825D01*
X407902Y1158796D01*
X407789Y1158782D01*
X407705Y1158768D01*
X407578D01*
X407268Y1158782D01*
X406986Y1158839D01*
X406718Y1158909D01*
X406493Y1158980D01*
X406295Y1159064D01*
X406154Y1159135D01*
X406098Y1159163D01*
X406056Y1159191D01*
X406041Y1159205D01*
X406027D01*
X405774Y1159389D01*
X405562Y1159586D01*
X405379Y1159797D01*
X405224Y1160009D01*
X405111Y1160192D01*
X405027Y1160347D01*
X404998Y1160404D01*
X404970Y1160446D01*
X404956Y1160474D01*
Y1160488D01*
X404829Y1160812D01*
X404744Y1161151D01*
X404674Y1161461D01*
X404632Y1161757D01*
X404604Y1162025D01*
Y1162137D01*
X404590Y1162222D01*
Y1162307D01*
Y1162363D01*
Y1162391D01*
Y1162405D01*
X404604Y1162729D01*
X404632Y1163026D01*
X404674Y1163307D01*
X404730Y1163575D01*
X404801Y1163815D01*
X404871Y1164041D01*
X404956Y1164252D01*
X405041Y1164435D01*
X405125Y1164604D01*
X405210Y1164745D01*
X405280Y1164872D01*
X405351Y1164971D01*
X405407Y1165055D01*
X405449Y1165112D01*
X405478Y1165140D01*
X405492Y1165154D01*
X405661Y1165323D01*
X405844Y1165478D01*
X406027Y1165619D01*
X406225Y1165732D01*
X406408Y1165831D01*
X406577Y1165915D01*
X406760Y1165972D01*
X406916Y1166028D01*
X407071Y1166070D01*
X407211Y1166099D01*
X407338Y1166127D01*
X407451Y1166141D01*
X407536Y1166155D01*
X407663D01*
X407874Y1166141D01*
X408071Y1166113D01*
X408241Y1166070D01*
X408410Y1166028D01*
X408537Y1165986D01*
X408635Y1165944D01*
X408692Y1165915D01*
X408720Y1165901D01*
X408903Y1165803D01*
X409058Y1165690D01*
X409199Y1165591D01*
X409312Y1165478D01*
X409397Y1165394D01*
X409453Y1165323D01*
X409495Y1165267D01*
X409509Y1165253D01*
Y1168707D01*
X410708D01*
Y1158923D01*
D02*
G37*
G36*
X421727Y1143540D02*
X421628Y1143329D01*
X421530Y1143117D01*
X421431Y1142920D01*
X421346Y1142751D01*
X421276Y1142610D01*
X421219Y1142525D01*
X421205Y1142511D01*
Y1142497D01*
X421050Y1142243D01*
X420895Y1142018D01*
X420754Y1141820D01*
X420627Y1141665D01*
X420529Y1141524D01*
X420444Y1141440D01*
X420388Y1141369D01*
X420373Y1141355D01*
X428000D01*
Y1140157D01*
X418203D01*
Y1140932D01*
X418442Y1141073D01*
X418668Y1141228D01*
X418893Y1141411D01*
X419091Y1141581D01*
X419260Y1141750D01*
X419401Y1141877D01*
X419443Y1141933D01*
X419485Y1141975D01*
X419500Y1141989D01*
X419514Y1142003D01*
X419753Y1142299D01*
X419979Y1142596D01*
X420176Y1142878D01*
X420331Y1143159D01*
X420472Y1143399D01*
X420529Y1143498D01*
X420571Y1143582D01*
X420613Y1143653D01*
X420627Y1143709D01*
X420656Y1143737D01*
Y1143752D01*
X421811D01*
X421727Y1143540D01*
D02*
G37*
G36*
X428000Y1152703D02*
X423672D01*
Y1151209D01*
Y1151040D01*
X423686Y1150885D01*
Y1150772D01*
X423700Y1150673D01*
X423714Y1150603D01*
Y1150546D01*
X423729Y1150518D01*
Y1150504D01*
X423799Y1150278D01*
X423841Y1150180D01*
X423884Y1150095D01*
X423926Y1150011D01*
X423954Y1149954D01*
X423968Y1149926D01*
X423982Y1149912D01*
X424067Y1149799D01*
X424166Y1149686D01*
X424377Y1149475D01*
X424476Y1149376D01*
X424560Y1149306D01*
X424617Y1149263D01*
X424631Y1149249D01*
X424828Y1149108D01*
X425040Y1148953D01*
X425265Y1148798D01*
X425477Y1148643D01*
X425674Y1148516D01*
X425829Y1148418D01*
X425886Y1148375D01*
X425928Y1148347D01*
X425956Y1148319D01*
X425970D01*
X428000Y1147036D01*
Y1145429D01*
X425350Y1147107D01*
X425068Y1147304D01*
X424814Y1147487D01*
X424603Y1147671D01*
X424405Y1147825D01*
X424264Y1147967D01*
X424151Y1148079D01*
X424081Y1148150D01*
X424053Y1148178D01*
X423968Y1148291D01*
X423870Y1148418D01*
X423714Y1148671D01*
X423658Y1148784D01*
X423602Y1148869D01*
X423573Y1148925D01*
X423559Y1148953D01*
X423517Y1148699D01*
X423475Y1148460D01*
X423404Y1148248D01*
X423348Y1148037D01*
X423278Y1147854D01*
X423193Y1147684D01*
X423122Y1147530D01*
X423052Y1147389D01*
X422967Y1147276D01*
X422897Y1147163D01*
X422840Y1147078D01*
X422784Y1147008D01*
X422742Y1146952D01*
X422700Y1146909D01*
X422685Y1146895D01*
X422671Y1146881D01*
X422530Y1146768D01*
X422389Y1146656D01*
X422093Y1146486D01*
X421797Y1146374D01*
X421515Y1146289D01*
X421276Y1146233D01*
X421177Y1146218D01*
X421078D01*
X421008Y1146204D01*
X420909D01*
X420613Y1146218D01*
X420345Y1146261D01*
X420092Y1146331D01*
X419880Y1146402D01*
X419697Y1146486D01*
X419556Y1146543D01*
X419471Y1146599D01*
X419457Y1146613D01*
X419443D01*
X419218Y1146782D01*
X419020Y1146952D01*
X418851Y1147135D01*
X418724Y1147304D01*
X418625Y1147459D01*
X418569Y1147586D01*
X418527Y1147671D01*
X418513Y1147684D01*
Y1147699D01*
X418470Y1147825D01*
X418428Y1147981D01*
X418358Y1148291D01*
X418315Y1148629D01*
X418273Y1148939D01*
X418259Y1149235D01*
Y1149362D01*
X418245Y1149475D01*
Y1149559D01*
Y1149630D01*
Y1149672D01*
Y1149686D01*
Y1154000D01*
X428000D01*
Y1152703D01*
D02*
G37*
G36*
X408870Y1143896D02*
X409321Y1143826D01*
X409715Y1143741D01*
X409899Y1143685D01*
X410068Y1143628D01*
X410223Y1143572D01*
X410364Y1143515D01*
X410477Y1143473D01*
X410589Y1143431D01*
X410660Y1143389D01*
X410716Y1143360D01*
X410759Y1143346D01*
X410773Y1143332D01*
X411153Y1143093D01*
X411478Y1142811D01*
X411759Y1142529D01*
X411999Y1142247D01*
X412182Y1141993D01*
X412253Y1141880D01*
X412309Y1141781D01*
X412366Y1141711D01*
X412394Y1141655D01*
X412408Y1141612D01*
X412422Y1141598D01*
X412619Y1141161D01*
X412760Y1140710D01*
X412859Y1140259D01*
X412929Y1139850D01*
X412958Y1139667D01*
X412972Y1139484D01*
X412986Y1139343D01*
Y1139202D01*
X413000Y1139103D01*
Y1139018D01*
Y1138962D01*
Y1138948D01*
X412972Y1138440D01*
X412915Y1137947D01*
X412845Y1137510D01*
X412789Y1137299D01*
X412746Y1137115D01*
X412704Y1136946D01*
X412648Y1136791D01*
X412605Y1136650D01*
X412577Y1136537D01*
X412535Y1136453D01*
X412521Y1136382D01*
X412492Y1136340D01*
Y1136326D01*
X412281Y1135903D01*
X412041Y1135523D01*
X411788Y1135198D01*
X411661Y1135071D01*
X411548Y1134945D01*
X411435Y1134832D01*
X411323Y1134733D01*
X411224Y1134649D01*
X411139Y1134592D01*
X411083Y1134536D01*
X411026Y1134493D01*
X410998Y1134479D01*
X410984Y1134465D01*
X410787Y1134352D01*
X410589Y1134254D01*
X410167Y1134099D01*
X409744Y1133986D01*
X409335Y1133915D01*
X409137Y1133887D01*
X408968Y1133859D01*
X408813Y1133845D01*
X408686D01*
X408574Y1133831D01*
X408419D01*
X408136Y1133845D01*
X407869Y1133873D01*
X407615Y1133901D01*
X407375Y1133958D01*
X407150Y1134028D01*
X406938Y1134099D01*
X406741Y1134169D01*
X406558Y1134254D01*
X406403Y1134324D01*
X406247Y1134395D01*
X406135Y1134465D01*
X406022Y1134536D01*
X405951Y1134592D01*
X405881Y1134620D01*
X405853Y1134649D01*
X405839Y1134663D01*
X405641Y1134832D01*
X405472Y1135001D01*
X405317Y1135198D01*
X405162Y1135396D01*
X404908Y1135790D01*
X404711Y1136185D01*
X404626Y1136368D01*
X404556Y1136537D01*
X404500Y1136693D01*
X404457Y1136819D01*
X404415Y1136932D01*
X404387Y1137017D01*
X404373Y1137073D01*
Y1137087D01*
X405670Y1137411D01*
X405726Y1137186D01*
X405796Y1136974D01*
X405867Y1136777D01*
X405937Y1136594D01*
X406022Y1136425D01*
X406107Y1136284D01*
X406205Y1136143D01*
X406290Y1136016D01*
X406360Y1135903D01*
X406445Y1135818D01*
X406515Y1135734D01*
X406572Y1135663D01*
X406628Y1135621D01*
X406670Y1135579D01*
X406685Y1135565D01*
X406699Y1135551D01*
X406840Y1135438D01*
X406995Y1135353D01*
X407305Y1135198D01*
X407601Y1135086D01*
X407897Y1135015D01*
X408151Y1134959D01*
X408249Y1134945D01*
X408348D01*
X408433Y1134930D01*
X408531D01*
X408856Y1134945D01*
X409166Y1135001D01*
X409448Y1135071D01*
X409701Y1135156D01*
X409899Y1135240D01*
X409983Y1135283D01*
X410054Y1135311D01*
X410110Y1135339D01*
X410152Y1135367D01*
X410181Y1135381D01*
X410195D01*
X410463Y1135579D01*
X410688Y1135790D01*
X410886Y1136030D01*
X411040Y1136255D01*
X411167Y1136453D01*
X411252Y1136622D01*
X411280Y1136693D01*
X411308Y1136735D01*
X411323Y1136763D01*
Y1136777D01*
X411435Y1137144D01*
X411520Y1137510D01*
X411590Y1137877D01*
X411633Y1138215D01*
X411647Y1138370D01*
X411661Y1138511D01*
Y1138638D01*
X411675Y1138737D01*
Y1138821D01*
Y1138892D01*
Y1138934D01*
Y1138948D01*
X411661Y1139315D01*
X411633Y1139653D01*
X411576Y1139963D01*
X411520Y1140245D01*
X411478Y1140485D01*
X411449Y1140583D01*
X411421Y1140668D01*
X411407Y1140738D01*
X411393Y1140781D01*
X411379Y1140809D01*
Y1140823D01*
X411238Y1141147D01*
X411083Y1141443D01*
X410914Y1141683D01*
X410730Y1141894D01*
X410575Y1142064D01*
X410448Y1142176D01*
X410350Y1142247D01*
X410336Y1142275D01*
X410322D01*
X410025Y1142458D01*
X409701Y1142599D01*
X409391Y1142698D01*
X409095Y1142754D01*
X408827Y1142796D01*
X408714Y1142811D01*
X408616D01*
X408545Y1142825D01*
X408433D01*
X408080Y1142811D01*
X407756Y1142754D01*
X407488Y1142670D01*
X407248Y1142585D01*
X407065Y1142486D01*
X406924Y1142416D01*
X406840Y1142359D01*
X406811Y1142331D01*
X406586Y1142120D01*
X406374Y1141880D01*
X406205Y1141627D01*
X406064Y1141373D01*
X405951Y1141147D01*
X405909Y1141034D01*
X405881Y1140950D01*
X405853Y1140879D01*
X405825Y1140823D01*
X405811Y1140795D01*
Y1140781D01*
X404542Y1141077D01*
X404626Y1141330D01*
X404711Y1141556D01*
X404824Y1141767D01*
X404922Y1141979D01*
X405035Y1142162D01*
X405162Y1142331D01*
X405275Y1142501D01*
X405388Y1142642D01*
X405500Y1142754D01*
X405599Y1142867D01*
X405698Y1142966D01*
X405768Y1143036D01*
X405839Y1143107D01*
X405895Y1143149D01*
X405923Y1143163D01*
X405937Y1143177D01*
X406135Y1143304D01*
X406332Y1143431D01*
X406530Y1143530D01*
X406741Y1143614D01*
X407164Y1143741D01*
X407545Y1143826D01*
X407728Y1143868D01*
X407883Y1143882D01*
X408038Y1143896D01*
X408165Y1143910D01*
X408263Y1143924D01*
X408404D01*
X408870Y1143896D01*
D02*
G37*
G36*
X399678Y1143558D02*
X399833Y1143332D01*
X400017Y1143107D01*
X400186Y1142909D01*
X400355Y1142740D01*
X400482Y1142599D01*
X400538Y1142557D01*
X400581Y1142515D01*
X400595Y1142501D01*
X400609Y1142486D01*
X400905Y1142247D01*
X401201Y1142021D01*
X401483Y1141824D01*
X401765Y1141669D01*
X402004Y1141528D01*
X402103Y1141471D01*
X402188Y1141429D01*
X402258Y1141387D01*
X402314Y1141373D01*
X402343Y1141345D01*
X402357D01*
Y1140189D01*
X402145Y1140273D01*
X401934Y1140372D01*
X401722Y1140471D01*
X401525Y1140569D01*
X401356Y1140654D01*
X401215Y1140724D01*
X401130Y1140781D01*
X401116Y1140795D01*
X401102D01*
X400848Y1140950D01*
X400623Y1141105D01*
X400425Y1141246D01*
X400270Y1141373D01*
X400130Y1141471D01*
X400045Y1141556D01*
X399974Y1141612D01*
X399960Y1141627D01*
Y1134000D01*
X398762D01*
Y1143797D01*
X399537D01*
X399678Y1143558D01*
D02*
G37*
G36*
X438743Y1140606D02*
X441421D01*
Y1139478D01*
X438743D01*
Y1136828D01*
X437629D01*
Y1139478D01*
X434979D01*
Y1140606D01*
X437629D01*
Y1143256D01*
X438743D01*
Y1140606D01*
D02*
G37*
G36*
X443000Y1160976D02*
X442112D01*
X442295Y1160835D01*
X442450Y1160694D01*
X442591Y1160539D01*
X442718Y1160370D01*
X442817Y1160215D01*
X442901Y1160046D01*
X442972Y1159891D01*
X443028Y1159736D01*
X443099Y1159454D01*
X443127Y1159327D01*
X443141Y1159228D01*
Y1159144D01*
X443155Y1159073D01*
Y1159031D01*
Y1159017D01*
X443141Y1158791D01*
X443113Y1158566D01*
X443070Y1158354D01*
X443000Y1158157D01*
X442845Y1157776D01*
X442746Y1157621D01*
X442662Y1157466D01*
X442563Y1157325D01*
X442478Y1157212D01*
X442394Y1157114D01*
X442323Y1157015D01*
X442253Y1156944D01*
X442211Y1156902D01*
X442182Y1156874D01*
X442168Y1156860D01*
X441971Y1156705D01*
X441759Y1156564D01*
X441548Y1156437D01*
X441308Y1156338D01*
X441083Y1156254D01*
X440843Y1156183D01*
X440392Y1156070D01*
X440181Y1156028D01*
X439983Y1156000D01*
X439814Y1155986D01*
X439659Y1155972D01*
X439532Y1155958D01*
X439363D01*
X439081Y1155972D01*
X438813Y1155986D01*
X438573Y1156028D01*
X438362Y1156070D01*
X438179Y1156113D01*
X438038Y1156141D01*
X437996Y1156155D01*
X437953Y1156169D01*
X437939Y1156183D01*
X437925D01*
X437685Y1156268D01*
X437460Y1156366D01*
X437262Y1156465D01*
X437093Y1156564D01*
X436967Y1156648D01*
X436868Y1156719D01*
X436797Y1156761D01*
X436783Y1156775D01*
X436614Y1156916D01*
X436459Y1157085D01*
X436332Y1157240D01*
X436233Y1157395D01*
X436149Y1157522D01*
X436078Y1157635D01*
X436050Y1157706D01*
X436036Y1157734D01*
X435951Y1157945D01*
X435881Y1158171D01*
X435839Y1158382D01*
X435796Y1158566D01*
X435782Y1158721D01*
X435768Y1158848D01*
Y1158932D01*
Y1158946D01*
Y1158960D01*
X435782Y1159172D01*
X435811Y1159383D01*
X435853Y1159581D01*
X435923Y1159764D01*
X436064Y1160088D01*
X436247Y1160370D01*
X436332Y1160483D01*
X436417Y1160595D01*
X436501Y1160680D01*
X436572Y1160751D01*
X436642Y1160821D01*
X436684Y1160863D01*
X436713Y1160878D01*
X436727Y1160892D01*
X433245D01*
Y1162090D01*
X443000D01*
Y1160976D01*
D02*
G37*
G36*
Y1168236D02*
Y1166883D01*
X433245Y1163077D01*
Y1164388D01*
X440336Y1167038D01*
X440632Y1167151D01*
X440914Y1167249D01*
X441181Y1167334D01*
X441421Y1167404D01*
X441633Y1167475D01*
X441788Y1167517D01*
X441844Y1167531D01*
X441886Y1167545D01*
X441914Y1167559D01*
X441929D01*
X441365Y1167729D01*
X441097Y1167813D01*
X440857Y1167898D01*
X440646Y1167968D01*
X440561Y1167996D01*
X440477Y1168010D01*
X440420Y1168039D01*
X440378Y1168053D01*
X440350Y1168067D01*
X440336D01*
X433245Y1170604D01*
Y1172014D01*
X443000Y1168236D01*
D02*
G37*
G36*
X436854Y1146696D02*
X441308D01*
X441463Y1146682D01*
X441618Y1146668D01*
X441745D01*
X441858Y1146654D01*
X442041Y1146625D01*
X442182Y1146597D01*
X442281Y1146583D01*
X442337Y1146555D01*
X442351D01*
X442478Y1146498D01*
X442577Y1146414D01*
X442676Y1146329D01*
X442746Y1146259D01*
X442817Y1146174D01*
X442859Y1146118D01*
X442887Y1146076D01*
X442901Y1146061D01*
X442972Y1145906D01*
X443014Y1145751D01*
X443056Y1145582D01*
X443070Y1145413D01*
X443085Y1145272D01*
X443099Y1145159D01*
Y1145075D01*
Y1145046D01*
X443085Y1144736D01*
X443070Y1144581D01*
X443042Y1144440D01*
X443028Y1144314D01*
X443014Y1144215D01*
X443000Y1144158D01*
Y1144130D01*
X441943Y1144285D01*
X441957Y1144398D01*
X441971Y1144511D01*
Y1144610D01*
X441985Y1144680D01*
Y1144736D01*
Y1144779D01*
Y1144807D01*
Y1144821D01*
X441971Y1145004D01*
X441943Y1145131D01*
X441914Y1145202D01*
X441900Y1145230D01*
X441830Y1145329D01*
X441759Y1145385D01*
X441703Y1145427D01*
X441675Y1145441D01*
X441604Y1145455D01*
X441506Y1145469D01*
X441280Y1145483D01*
X441181Y1145498D01*
X436854D01*
Y1144285D01*
X435923D01*
Y1145498D01*
X433456D01*
X434175Y1146696D01*
X435923D01*
Y1147584D01*
X436854D01*
Y1146696D01*
D02*
G37*
G36*
X441308Y1154872D02*
X441449Y1154858D01*
X441745Y1154788D01*
X441985Y1154689D01*
X442197Y1154576D01*
X442366Y1154463D01*
X442492Y1154365D01*
X442563Y1154294D01*
X442591Y1154266D01*
X442775Y1154012D01*
X442915Y1153730D01*
X443014Y1153420D01*
X443085Y1153138D01*
X443127Y1152885D01*
X443141Y1152772D01*
Y1152673D01*
X443155Y1152588D01*
Y1152532D01*
Y1152490D01*
Y1152476D01*
X443141Y1152222D01*
X443113Y1151968D01*
X443085Y1151743D01*
X443042Y1151545D01*
X443000Y1151390D01*
X442958Y1151263D01*
X442944Y1151179D01*
X442929Y1151151D01*
X442831Y1150911D01*
X442704Y1150685D01*
X442563Y1150474D01*
X442436Y1150262D01*
X442309Y1150093D01*
X442211Y1149966D01*
X442140Y1149882D01*
X442112Y1149868D01*
Y1149854D01*
X442295Y1149825D01*
X442464Y1149797D01*
X442619Y1149769D01*
X442746Y1149727D01*
X442859Y1149684D01*
X442929Y1149656D01*
X442986Y1149642D01*
X443000Y1149628D01*
Y1148373D01*
X442845Y1148444D01*
X442690Y1148514D01*
X442549Y1148571D01*
X442422Y1148599D01*
X442309Y1148641D01*
X442225Y1148655D01*
X442168Y1148670D01*
X442154D01*
X442056Y1148684D01*
X441929Y1148698D01*
X441788D01*
X441633Y1148712D01*
X441280Y1148726D01*
X440928D01*
X440589Y1148740D01*
X438165D01*
X437925Y1148754D01*
X437742Y1148768D01*
X437587D01*
X437474Y1148782D01*
X437389Y1148796D01*
X437347Y1148810D01*
X437333D01*
X437150Y1148853D01*
X436995Y1148909D01*
X436868Y1148966D01*
X436741Y1149036D01*
X436656Y1149092D01*
X436586Y1149135D01*
X436544Y1149163D01*
X436530Y1149177D01*
X436417Y1149290D01*
X436304Y1149417D01*
X436219Y1149558D01*
X436135Y1149698D01*
X436078Y1149825D01*
X436036Y1149924D01*
X436008Y1149995D01*
X435994Y1150023D01*
X435923Y1150248D01*
X435867Y1150488D01*
X435825Y1150728D01*
X435796Y1150967D01*
X435782Y1151179D01*
X435768Y1151334D01*
Y1151404D01*
Y1151447D01*
Y1151475D01*
Y1151489D01*
X435782Y1151827D01*
X435811Y1152123D01*
X435853Y1152405D01*
X435895Y1152631D01*
X435937Y1152828D01*
X435980Y1152969D01*
X435994Y1153025D01*
X436008Y1153068D01*
X436022Y1153082D01*
Y1153096D01*
X436121Y1153336D01*
X436247Y1153547D01*
X436360Y1153730D01*
X436473Y1153885D01*
X436586Y1153998D01*
X436670Y1154083D01*
X436727Y1154139D01*
X436741Y1154153D01*
X436924Y1154280D01*
X437122Y1154393D01*
X437319Y1154477D01*
X437502Y1154548D01*
X437685Y1154604D01*
X437812Y1154647D01*
X437869Y1154661D01*
X437911D01*
X437925Y1154675D01*
X437939D01*
X438094Y1153505D01*
X437840Y1153420D01*
X437615Y1153336D01*
X437432Y1153237D01*
X437291Y1153152D01*
X437178Y1153068D01*
X437108Y1152997D01*
X437065Y1152941D01*
X437051Y1152927D01*
X436952Y1152758D01*
X436882Y1152560D01*
X436825Y1152349D01*
X436797Y1152151D01*
X436769Y1151954D01*
X436755Y1151813D01*
Y1151757D01*
Y1151714D01*
Y1151686D01*
Y1151672D01*
X436769Y1151348D01*
X436811Y1151066D01*
X436882Y1150840D01*
X436952Y1150643D01*
X437037Y1150502D01*
X437093Y1150389D01*
X437150Y1150319D01*
X437164Y1150305D01*
X437291Y1150192D01*
X437446Y1150107D01*
X437615Y1150037D01*
X437784Y1149995D01*
X437939Y1149966D01*
X438080Y1149952D01*
X438376D01*
X438461Y1149966D01*
X438503D01*
X438545Y1150107D01*
X438588Y1150262D01*
X438672Y1150587D01*
X438743Y1150953D01*
X438813Y1151292D01*
X438841Y1151461D01*
X438856Y1151616D01*
X438884Y1151757D01*
X438898Y1151870D01*
X438912Y1151968D01*
Y1152039D01*
X438926Y1152095D01*
Y1152109D01*
X438954Y1152363D01*
X438997Y1152574D01*
X439025Y1152758D01*
X439053Y1152899D01*
X439067Y1153011D01*
X439095Y1153096D01*
X439109Y1153152D01*
Y1153166D01*
X439166Y1153350D01*
X439222Y1153505D01*
X439292Y1153660D01*
X439349Y1153787D01*
X439405Y1153899D01*
X439462Y1153970D01*
X439490Y1154026D01*
X439504Y1154040D01*
X439603Y1154181D01*
X439715Y1154294D01*
X439828Y1154407D01*
X439941Y1154492D01*
X440040Y1154562D01*
X440124Y1154618D01*
X440181Y1154647D01*
X440195Y1154661D01*
X440350Y1154731D01*
X440519Y1154788D01*
X440674Y1154830D01*
X440829Y1154858D01*
X440956Y1154872D01*
X441055Y1154886D01*
X441139D01*
X441308Y1154872D01*
D02*
G37*
G36*
X344000Y1159236D02*
Y1157883D01*
X334245Y1154077D01*
Y1155388D01*
X341336Y1158038D01*
X341632Y1158151D01*
X341914Y1158249D01*
X342182Y1158334D01*
X342421Y1158404D01*
X342633Y1158475D01*
X342788Y1158517D01*
X342844Y1158531D01*
X342886Y1158545D01*
X342915Y1158559D01*
X342929D01*
X342365Y1158729D01*
X342097Y1158813D01*
X341857Y1158898D01*
X341646Y1158968D01*
X341561Y1158997D01*
X341477Y1159011D01*
X341420Y1159039D01*
X341378Y1159053D01*
X341350Y1159067D01*
X341336D01*
X334245Y1161604D01*
Y1163014D01*
X344000Y1159236D01*
D02*
G37*
G36*
X345135Y1143797D02*
X345374Y1143769D01*
X345614Y1143713D01*
X345825Y1143656D01*
X346023Y1143572D01*
X346206Y1143487D01*
X346361Y1143403D01*
X346516Y1143304D01*
X346643Y1143205D01*
X346770Y1143121D01*
X346869Y1143036D01*
X346939Y1142952D01*
X347010Y1142895D01*
X347052Y1142839D01*
X347080Y1142811D01*
X347094Y1142796D01*
X347263Y1142557D01*
X347404Y1142275D01*
X347531Y1141979D01*
X347644Y1141669D01*
X347728Y1141345D01*
X347813Y1141006D01*
X347869Y1140682D01*
X347926Y1140358D01*
X347954Y1140048D01*
X347982Y1139766D01*
X348010Y1139498D01*
X348024Y1139272D01*
X348038Y1139089D01*
Y1138948D01*
Y1138892D01*
Y1138849D01*
Y1138835D01*
Y1138821D01*
X348024Y1138314D01*
X347996Y1137849D01*
X347954Y1137411D01*
X347898Y1137017D01*
X347841Y1136664D01*
X347771Y1136340D01*
X347686Y1136058D01*
X347602Y1135804D01*
X347531Y1135593D01*
X347447Y1135396D01*
X347376Y1135240D01*
X347305Y1135114D01*
X347263Y1135029D01*
X347221Y1134959D01*
X347193Y1134916D01*
X347179Y1134902D01*
X347010Y1134705D01*
X346826Y1134550D01*
X346643Y1134395D01*
X346446Y1134282D01*
X346262Y1134169D01*
X346065Y1134085D01*
X345882Y1134014D01*
X345698Y1133958D01*
X345529Y1133901D01*
X345374Y1133873D01*
X345233Y1133845D01*
X345121Y1133831D01*
X345022D01*
X344937Y1133817D01*
X344881D01*
X344627Y1133831D01*
X344387Y1133859D01*
X344148Y1133915D01*
X343936Y1133972D01*
X343739Y1134042D01*
X343556Y1134127D01*
X343401Y1134225D01*
X343246Y1134324D01*
X343119Y1134409D01*
X342992Y1134508D01*
X342893Y1134592D01*
X342809Y1134663D01*
X342752Y1134719D01*
X342710Y1134775D01*
X342682Y1134803D01*
X342668Y1134818D01*
X342498Y1135057D01*
X342357Y1135339D01*
X342216Y1135635D01*
X342118Y1135959D01*
X342019Y1136284D01*
X341949Y1136608D01*
X341878Y1136946D01*
X341822Y1137271D01*
X341794Y1137581D01*
X341765Y1137863D01*
X341737Y1138130D01*
X341723Y1138356D01*
X341709Y1138539D01*
Y1138680D01*
Y1138737D01*
Y1138779D01*
Y1138793D01*
Y1138807D01*
X341723Y1139315D01*
X341751Y1139780D01*
X341794Y1140203D01*
X341864Y1140597D01*
X341935Y1140964D01*
X342005Y1141288D01*
X342104Y1141584D01*
X342188Y1141838D01*
X342273Y1142078D01*
X342357Y1142261D01*
X342442Y1142430D01*
X342513Y1142571D01*
X342583Y1142670D01*
X342625Y1142740D01*
X342654Y1142782D01*
X342668Y1142796D01*
X342823Y1142980D01*
X342992Y1143135D01*
X343175Y1143262D01*
X343358Y1143389D01*
X343542Y1143487D01*
X343725Y1143558D01*
X343894Y1143628D01*
X344077Y1143685D01*
X344246Y1143727D01*
X344387Y1143755D01*
X344528Y1143783D01*
X344641Y1143797D01*
X344740Y1143811D01*
X344881D01*
X345135Y1143797D01*
D02*
G37*
G36*
X332000Y1163236D02*
Y1161883D01*
X322245Y1158077D01*
Y1159388D01*
X329336Y1162038D01*
X329632Y1162151D01*
X329914Y1162249D01*
X330182Y1162334D01*
X330421Y1162404D01*
X330633Y1162475D01*
X330788Y1162517D01*
X330844Y1162531D01*
X330886Y1162545D01*
X330914Y1162559D01*
X330929D01*
X330365Y1162729D01*
X330097Y1162813D01*
X329857Y1162898D01*
X329646Y1162968D01*
X329561Y1162997D01*
X329477Y1163011D01*
X329420Y1163039D01*
X329378Y1163053D01*
X329350Y1163067D01*
X329336D01*
X322245Y1165604D01*
Y1167014D01*
X332000Y1163236D01*
D02*
G37*
G36*
X341068Y1149833D02*
X339870D01*
Y1153541D01*
X341068D01*
Y1149833D01*
D02*
G37*
G36*
X351436Y1134000D02*
X349561D01*
Y1135875D01*
X351436D01*
Y1134000D01*
D02*
G37*
G36*
X364673D02*
X362981D01*
X360176Y1141077D01*
X362093D01*
X363447Y1137454D01*
X363531Y1137242D01*
X363587Y1137045D01*
X363616Y1136974D01*
X363630Y1136918D01*
X363644Y1136876D01*
Y1136862D01*
X363658Y1136791D01*
X363686Y1136707D01*
X363757Y1136495D01*
X363785Y1136411D01*
X363813Y1136326D01*
X363827Y1136270D01*
X363841Y1136255D01*
X364222Y1137454D01*
X365561Y1141077D01*
X367521D01*
X364673Y1134000D01*
D02*
G37*
G36*
X356440Y1143797D02*
X356666Y1143783D01*
X357103Y1143713D01*
X357469Y1143600D01*
X357639Y1143544D01*
X357794Y1143473D01*
X357935Y1143417D01*
X358047Y1143346D01*
X358160Y1143290D01*
X358245Y1143248D01*
X358315Y1143191D01*
X358358Y1143163D01*
X358386Y1143149D01*
X358400Y1143135D01*
X358555Y1142994D01*
X358696Y1142853D01*
X358823Y1142684D01*
X358936Y1142501D01*
X359105Y1142134D01*
X359246Y1141781D01*
X359288Y1141598D01*
X359330Y1141443D01*
X359372Y1141302D01*
X359387Y1141175D01*
X359415Y1141063D01*
Y1140992D01*
X359429Y1140936D01*
Y1140922D01*
X357568Y1140738D01*
X357540Y1141020D01*
X357483Y1141260D01*
X357427Y1141471D01*
X357357Y1141627D01*
X357300Y1141753D01*
X357244Y1141838D01*
X357202Y1141894D01*
X357188Y1141908D01*
X357047Y1142021D01*
X356892Y1142106D01*
X356736Y1142176D01*
X356581Y1142218D01*
X356455Y1142247D01*
X356342Y1142261D01*
X356243D01*
X356031Y1142247D01*
X355848Y1142204D01*
X355693Y1142148D01*
X355552Y1142092D01*
X355454Y1142035D01*
X355369Y1141979D01*
X355327Y1141937D01*
X355313Y1141923D01*
X355200Y1141781D01*
X355115Y1141627D01*
X355059Y1141471D01*
X355017Y1141316D01*
X354988Y1141175D01*
X354974Y1141049D01*
Y1140978D01*
Y1140964D01*
Y1140950D01*
X354988Y1140738D01*
X355031Y1140541D01*
X355101Y1140344D01*
X355172Y1140174D01*
X355242Y1140019D01*
X355313Y1139907D01*
X355355Y1139836D01*
X355369Y1139808D01*
X355425Y1139723D01*
X355510Y1139625D01*
X355623Y1139498D01*
X355736Y1139385D01*
X355989Y1139117D01*
X356243Y1138849D01*
X356497Y1138596D01*
X356609Y1138483D01*
X356722Y1138398D01*
X356807Y1138314D01*
X356863Y1138257D01*
X356906Y1138215D01*
X356920Y1138201D01*
X357202Y1137933D01*
X357455Y1137679D01*
X357695Y1137440D01*
X357906Y1137228D01*
X358104Y1137017D01*
X358273Y1136819D01*
X358428Y1136650D01*
X358555Y1136481D01*
X358668Y1136340D01*
X358766Y1136213D01*
X358851Y1136115D01*
X358907Y1136016D01*
X358964Y1135959D01*
X358992Y1135903D01*
X359020Y1135875D01*
Y1135861D01*
X359203Y1135537D01*
X359344Y1135198D01*
X359457Y1134888D01*
X359542Y1134606D01*
X359598Y1134352D01*
X359612Y1134254D01*
X359626Y1134169D01*
X359640Y1134099D01*
X359655Y1134042D01*
Y1134014D01*
Y1134000D01*
X353099D01*
Y1135734D01*
X356821D01*
X356708Y1135917D01*
X356581Y1136072D01*
X356525Y1136143D01*
X356483Y1136199D01*
X356455Y1136227D01*
X356440Y1136241D01*
X356384Y1136298D01*
X356328Y1136368D01*
X356158Y1136523D01*
X355975Y1136707D01*
X355792Y1136890D01*
X355609Y1137059D01*
X355454Y1137200D01*
X355397Y1137256D01*
X355355Y1137299D01*
X355327Y1137313D01*
X355313Y1137327D01*
X355003Y1137623D01*
X354749Y1137863D01*
X354537Y1138088D01*
X354368Y1138257D01*
X354241Y1138398D01*
X354157Y1138497D01*
X354100Y1138567D01*
X354086Y1138581D01*
X353903Y1138821D01*
X353748Y1139047D01*
X353621Y1139258D01*
X353522Y1139441D01*
X353438Y1139596D01*
X353381Y1139723D01*
X353353Y1139794D01*
X353339Y1139822D01*
X353254Y1140048D01*
X353198Y1140273D01*
X353156Y1140485D01*
X353128Y1140682D01*
X353114Y1140837D01*
X353099Y1140964D01*
Y1141049D01*
Y1141077D01*
X353114Y1141288D01*
X353142Y1141500D01*
X353170Y1141697D01*
X353226Y1141880D01*
X353367Y1142204D01*
X353508Y1142486D01*
X353593Y1142613D01*
X353663Y1142712D01*
X353734Y1142811D01*
X353804Y1142881D01*
X353861Y1142937D01*
X353889Y1142994D01*
X353917Y1143008D01*
X353931Y1143022D01*
X354086Y1143163D01*
X354269Y1143290D01*
X354439Y1143389D01*
X354636Y1143473D01*
X355003Y1143614D01*
X355369Y1143713D01*
X355538Y1143741D01*
X355693Y1143769D01*
X355834Y1143783D01*
X355961Y1143797D01*
X356060Y1143811D01*
X356201D01*
X356440Y1143797D01*
D02*
G37*
G36*
X384000Y1134000D02*
X382026D01*
Y1138074D01*
X381392D01*
X381195Y1138060D01*
X381026Y1138046D01*
X380885Y1138018D01*
X380772Y1138003D01*
X380701Y1137975D01*
X380659Y1137961D01*
X380645D01*
X380532Y1137905D01*
X380419Y1137849D01*
X380321Y1137778D01*
X380222Y1137722D01*
X380151Y1137651D01*
X380095Y1137595D01*
X380067Y1137567D01*
X380053Y1137552D01*
X379996Y1137482D01*
X379926Y1137411D01*
X379771Y1137200D01*
X379602Y1136974D01*
X379418Y1136721D01*
X379263Y1136495D01*
X379193Y1136382D01*
X379137Y1136298D01*
X379080Y1136227D01*
X379038Y1136171D01*
X379024Y1136129D01*
X379010Y1136115D01*
X377600Y1134000D01*
X375232D01*
X376430Y1135903D01*
X376557Y1136100D01*
X376684Y1136298D01*
X376796Y1136467D01*
X376909Y1136622D01*
X377008Y1136763D01*
X377093Y1136904D01*
X377262Y1137115D01*
X377388Y1137285D01*
X377473Y1137397D01*
X377544Y1137468D01*
X377558Y1137482D01*
X377713Y1137651D01*
X377896Y1137806D01*
X378065Y1137933D01*
X378234Y1138060D01*
X378375Y1138159D01*
X378488Y1138229D01*
X378573Y1138286D01*
X378587Y1138300D01*
X378601D01*
X378361Y1138342D01*
X378150Y1138398D01*
X377952Y1138455D01*
X377755Y1138525D01*
X377586Y1138596D01*
X377431Y1138666D01*
X377276Y1138737D01*
X377149Y1138821D01*
X377036Y1138892D01*
X376937Y1138962D01*
X376853Y1139033D01*
X376796Y1139089D01*
X376740Y1139131D01*
X376698Y1139174D01*
X376684Y1139188D01*
X376670Y1139202D01*
X376557Y1139343D01*
X376458Y1139484D01*
X376289Y1139794D01*
X376176Y1140090D01*
X376106Y1140386D01*
X376049Y1140640D01*
X376035Y1140738D01*
Y1140837D01*
X376021Y1140908D01*
Y1140978D01*
Y1141006D01*
Y1141020D01*
X376035Y1141330D01*
X376092Y1141627D01*
X376162Y1141880D01*
X376232Y1142106D01*
X376317Y1142289D01*
X376388Y1142430D01*
X376416Y1142472D01*
X376444Y1142515D01*
X376458Y1142529D01*
Y1142543D01*
X376627Y1142782D01*
X376810Y1142980D01*
X376994Y1143135D01*
X377177Y1143276D01*
X377346Y1143360D01*
X377473Y1143431D01*
X377558Y1143473D01*
X377572Y1143487D01*
X377586D01*
X377727Y1143530D01*
X377882Y1143572D01*
X378234Y1143642D01*
X378615Y1143685D01*
X378982Y1143727D01*
X379165D01*
X379320Y1143741D01*
X379475D01*
X379602Y1143755D01*
X384000D01*
Y1134000D01*
D02*
G37*
G36*
X371750Y1141218D02*
X371989Y1141189D01*
X372229Y1141133D01*
X372440Y1141077D01*
X372652Y1141006D01*
X372835Y1140922D01*
X373018Y1140823D01*
X373173Y1140738D01*
X373315Y1140640D01*
X373441Y1140541D01*
X373554Y1140456D01*
X373639Y1140386D01*
X373709Y1140330D01*
X373766Y1140273D01*
X373794Y1140245D01*
X373808Y1140231D01*
X373963Y1140033D01*
X374104Y1139822D01*
X374231Y1139611D01*
X374343Y1139385D01*
X374428Y1139145D01*
X374499Y1138920D01*
X374611Y1138483D01*
X374654Y1138271D01*
X374682Y1138088D01*
X374696Y1137919D01*
X374710Y1137778D01*
X374724Y1137651D01*
Y1137552D01*
Y1137496D01*
Y1137482D01*
X374710Y1137214D01*
X374696Y1136946D01*
X374654Y1136707D01*
X374611Y1136481D01*
X374569Y1136255D01*
X374499Y1136058D01*
X374442Y1135875D01*
X374372Y1135706D01*
X374315Y1135551D01*
X374245Y1135424D01*
X374188Y1135311D01*
X374146Y1135212D01*
X374090Y1135142D01*
X374062Y1135086D01*
X374048Y1135057D01*
X374033Y1135043D01*
X373850Y1134832D01*
X373667Y1134649D01*
X373455Y1134493D01*
X373230Y1134352D01*
X373004Y1134240D01*
X372779Y1134141D01*
X372553Y1134056D01*
X372328Y1134000D01*
X372130Y1133944D01*
X371933Y1133915D01*
X371750Y1133887D01*
X371595Y1133859D01*
X371468D01*
X371383Y1133845D01*
X371299D01*
X370890Y1133873D01*
X370509Y1133930D01*
X370185Y1134014D01*
X369903Y1134113D01*
X369776Y1134169D01*
X369677Y1134211D01*
X369579Y1134254D01*
X369508Y1134296D01*
X369452Y1134338D01*
X369395Y1134352D01*
X369381Y1134381D01*
X369367D01*
X369100Y1134606D01*
X368860Y1134846D01*
X368662Y1135114D01*
X368507Y1135367D01*
X368381Y1135593D01*
X368338Y1135692D01*
X368296Y1135776D01*
X368268Y1135847D01*
X368240Y1135903D01*
X368226Y1135931D01*
Y1135945D01*
X370086Y1136255D01*
X370157Y1136072D01*
X370227Y1135903D01*
X370298Y1135776D01*
X370382Y1135663D01*
X370439Y1135579D01*
X370495Y1135523D01*
X370537Y1135494D01*
X370551Y1135480D01*
X370664Y1135396D01*
X370791Y1135339D01*
X370918Y1135297D01*
X371031Y1135269D01*
X371129Y1135255D01*
X371214Y1135240D01*
X371284D01*
X371510Y1135255D01*
X371721Y1135311D01*
X371919Y1135381D01*
X372074Y1135466D01*
X372201Y1135551D01*
X372285Y1135621D01*
X372356Y1135677D01*
X372370Y1135692D01*
X372511Y1135875D01*
X372610Y1136086D01*
X372694Y1136312D01*
X372751Y1136509D01*
X372779Y1136707D01*
X372793Y1136848D01*
X372807Y1136904D01*
Y1136946D01*
Y1136974D01*
Y1136989D01*
X368127D01*
Y1137383D01*
X368155Y1137736D01*
X368197Y1138074D01*
X368254Y1138384D01*
X368324Y1138680D01*
X368395Y1138934D01*
X368479Y1139174D01*
X368564Y1139385D01*
X368648Y1139568D01*
X368733Y1139737D01*
X368803Y1139864D01*
X368874Y1139977D01*
X368930Y1140062D01*
X368973Y1140132D01*
X369001Y1140160D01*
X369015Y1140174D01*
X369184Y1140358D01*
X369381Y1140527D01*
X369579Y1140668D01*
X369776Y1140781D01*
X369988Y1140893D01*
X370199Y1140978D01*
X370396Y1141049D01*
X370594Y1141105D01*
X370777Y1141147D01*
X370946Y1141175D01*
X371101Y1141204D01*
X371228Y1141218D01*
X371341Y1141232D01*
X371496D01*
X371750Y1141218D01*
D02*
G37*
G36*
X330308Y1149872D02*
X330449Y1149858D01*
X330745Y1149788D01*
X330985Y1149689D01*
X331197Y1149576D01*
X331366Y1149463D01*
X331493Y1149365D01*
X331563Y1149294D01*
X331591Y1149266D01*
X331774Y1149012D01*
X331915Y1148730D01*
X332014Y1148420D01*
X332085Y1148138D01*
X332127Y1147885D01*
X332141Y1147772D01*
Y1147673D01*
X332155Y1147588D01*
Y1147532D01*
Y1147490D01*
Y1147476D01*
X332141Y1147222D01*
X332113Y1146968D01*
X332085Y1146743D01*
X332042Y1146545D01*
X332000Y1146390D01*
X331958Y1146263D01*
X331944Y1146179D01*
X331930Y1146151D01*
X331831Y1145911D01*
X331704Y1145685D01*
X331563Y1145474D01*
X331436Y1145262D01*
X331309Y1145093D01*
X331211Y1144966D01*
X331140Y1144882D01*
X331112Y1144868D01*
Y1144854D01*
X331295Y1144825D01*
X331464Y1144797D01*
X331619Y1144769D01*
X331746Y1144727D01*
X331859Y1144685D01*
X331930Y1144656D01*
X331986Y1144642D01*
X332000Y1144628D01*
Y1143373D01*
X331845Y1143444D01*
X331690Y1143514D01*
X331549Y1143571D01*
X331422Y1143599D01*
X331309Y1143641D01*
X331225Y1143655D01*
X331168Y1143670D01*
X331154D01*
X331055Y1143684D01*
X330929Y1143698D01*
X330788D01*
X330633Y1143712D01*
X330280Y1143726D01*
X329928D01*
X329589Y1143740D01*
X327165D01*
X326925Y1143754D01*
X326742Y1143768D01*
X326587D01*
X326474Y1143782D01*
X326389Y1143796D01*
X326347Y1143810D01*
X326333D01*
X326150Y1143853D01*
X325995Y1143909D01*
X325868Y1143966D01*
X325741Y1144036D01*
X325656Y1144092D01*
X325586Y1144135D01*
X325544Y1144163D01*
X325530Y1144177D01*
X325417Y1144290D01*
X325304Y1144417D01*
X325219Y1144558D01*
X325135Y1144698D01*
X325078Y1144825D01*
X325036Y1144924D01*
X325008Y1144995D01*
X324994Y1145023D01*
X324923Y1145248D01*
X324867Y1145488D01*
X324825Y1145728D01*
X324796Y1145967D01*
X324782Y1146179D01*
X324768Y1146334D01*
Y1146404D01*
Y1146447D01*
Y1146475D01*
Y1146489D01*
X324782Y1146827D01*
X324810Y1147123D01*
X324853Y1147405D01*
X324895Y1147631D01*
X324937Y1147828D01*
X324980Y1147969D01*
X324994Y1148025D01*
X325008Y1148068D01*
X325022Y1148082D01*
Y1148096D01*
X325121Y1148336D01*
X325247Y1148547D01*
X325360Y1148730D01*
X325473Y1148885D01*
X325586Y1148998D01*
X325670Y1149083D01*
X325727Y1149139D01*
X325741Y1149153D01*
X325924Y1149280D01*
X326121Y1149393D01*
X326319Y1149477D01*
X326502Y1149548D01*
X326685Y1149604D01*
X326812Y1149647D01*
X326869Y1149661D01*
X326911D01*
X326925Y1149675D01*
X326939D01*
X327094Y1148505D01*
X326841Y1148420D01*
X326615Y1148336D01*
X326432Y1148237D01*
X326291Y1148152D01*
X326178Y1148068D01*
X326107Y1147997D01*
X326065Y1147941D01*
X326051Y1147927D01*
X325952Y1147758D01*
X325882Y1147560D01*
X325826Y1147349D01*
X325797Y1147151D01*
X325769Y1146954D01*
X325755Y1146813D01*
Y1146757D01*
Y1146714D01*
Y1146686D01*
Y1146672D01*
X325769Y1146348D01*
X325811Y1146066D01*
X325882Y1145840D01*
X325952Y1145643D01*
X326037Y1145502D01*
X326093Y1145389D01*
X326150Y1145319D01*
X326164Y1145305D01*
X326291Y1145192D01*
X326446Y1145107D01*
X326615Y1145037D01*
X326784Y1144995D01*
X326939Y1144966D01*
X327080Y1144952D01*
X327376D01*
X327461Y1144966D01*
X327503D01*
X327545Y1145107D01*
X327588Y1145262D01*
X327672Y1145587D01*
X327743Y1145953D01*
X327813Y1146292D01*
X327841Y1146461D01*
X327855Y1146616D01*
X327884Y1146757D01*
X327898Y1146870D01*
X327912Y1146968D01*
Y1147039D01*
X327926Y1147095D01*
Y1147109D01*
X327954Y1147363D01*
X327996Y1147574D01*
X328025Y1147758D01*
X328053Y1147899D01*
X328067Y1148011D01*
X328095Y1148096D01*
X328109Y1148152D01*
Y1148166D01*
X328166Y1148350D01*
X328222Y1148505D01*
X328293Y1148660D01*
X328349Y1148787D01*
X328405Y1148900D01*
X328462Y1148970D01*
X328490Y1149026D01*
X328504Y1149040D01*
X328603Y1149181D01*
X328715Y1149294D01*
X328828Y1149407D01*
X328941Y1149492D01*
X329040Y1149562D01*
X329124Y1149618D01*
X329181Y1149647D01*
X329195Y1149661D01*
X329350Y1149731D01*
X329519Y1149788D01*
X329674Y1149830D01*
X329829Y1149858D01*
X329956Y1149872D01*
X330055Y1149886D01*
X330139D01*
X330308Y1149872D01*
D02*
G37*
G36*
X325854Y1141696D02*
X330308D01*
X330463Y1141682D01*
X330619Y1141668D01*
X330745D01*
X330858Y1141654D01*
X331041Y1141625D01*
X331182Y1141597D01*
X331281Y1141583D01*
X331337Y1141555D01*
X331352D01*
X331478Y1141498D01*
X331577Y1141414D01*
X331676Y1141329D01*
X331746Y1141259D01*
X331817Y1141174D01*
X331859Y1141118D01*
X331887Y1141076D01*
X331901Y1141061D01*
X331972Y1140907D01*
X332014Y1140751D01*
X332056Y1140582D01*
X332071Y1140413D01*
X332085Y1140272D01*
X332099Y1140159D01*
Y1140075D01*
Y1140046D01*
X332085Y1139736D01*
X332071Y1139581D01*
X332042Y1139440D01*
X332028Y1139314D01*
X332014Y1139215D01*
X332000Y1139158D01*
Y1139130D01*
X330943Y1139285D01*
X330957Y1139398D01*
X330971Y1139511D01*
Y1139610D01*
X330985Y1139680D01*
Y1139736D01*
Y1139779D01*
Y1139807D01*
Y1139821D01*
X330971Y1140004D01*
X330943Y1140131D01*
X330914Y1140202D01*
X330900Y1140230D01*
X330830Y1140329D01*
X330760Y1140385D01*
X330703Y1140427D01*
X330675Y1140441D01*
X330604Y1140455D01*
X330506Y1140469D01*
X330280Y1140483D01*
X330182Y1140498D01*
X325854D01*
Y1139285D01*
X324923D01*
Y1140498D01*
X322456D01*
X323175Y1141696D01*
X324923D01*
Y1142584D01*
X325854D01*
Y1141696D01*
D02*
G37*
G36*
X329068Y1134873D02*
X327870D01*
Y1138580D01*
X329068D01*
Y1134873D01*
D02*
G37*
G36*
X332000Y1155976D02*
X331112D01*
X331295Y1155835D01*
X331450Y1155694D01*
X331591Y1155539D01*
X331718Y1155370D01*
X331817Y1155215D01*
X331901Y1155046D01*
X331972Y1154891D01*
X332028Y1154736D01*
X332099Y1154454D01*
X332127Y1154327D01*
X332141Y1154228D01*
Y1154144D01*
X332155Y1154073D01*
Y1154031D01*
Y1154017D01*
X332141Y1153791D01*
X332113Y1153566D01*
X332071Y1153354D01*
X332000Y1153157D01*
X331845Y1152776D01*
X331746Y1152621D01*
X331662Y1152466D01*
X331563Y1152325D01*
X331478Y1152212D01*
X331394Y1152114D01*
X331323Y1152015D01*
X331253Y1151944D01*
X331211Y1151902D01*
X331182Y1151874D01*
X331168Y1151860D01*
X330971Y1151705D01*
X330760Y1151564D01*
X330548Y1151437D01*
X330308Y1151338D01*
X330083Y1151254D01*
X329843Y1151183D01*
X329392Y1151070D01*
X329181Y1151028D01*
X328983Y1151000D01*
X328814Y1150986D01*
X328659Y1150972D01*
X328532Y1150958D01*
X328363D01*
X328081Y1150972D01*
X327813Y1150986D01*
X327574Y1151028D01*
X327362Y1151070D01*
X327179Y1151113D01*
X327038Y1151141D01*
X326996Y1151155D01*
X326953Y1151169D01*
X326939Y1151183D01*
X326925D01*
X326685Y1151268D01*
X326460Y1151366D01*
X326263Y1151465D01*
X326093Y1151564D01*
X325966Y1151648D01*
X325868Y1151719D01*
X325797Y1151761D01*
X325783Y1151775D01*
X325614Y1151916D01*
X325459Y1152085D01*
X325332Y1152240D01*
X325233Y1152395D01*
X325149Y1152522D01*
X325078Y1152635D01*
X325050Y1152706D01*
X325036Y1152734D01*
X324952Y1152945D01*
X324881Y1153171D01*
X324839Y1153382D01*
X324796Y1153566D01*
X324782Y1153721D01*
X324768Y1153848D01*
Y1153932D01*
Y1153946D01*
Y1153960D01*
X324782Y1154172D01*
X324810Y1154383D01*
X324853Y1154581D01*
X324923Y1154764D01*
X325064Y1155088D01*
X325247Y1155370D01*
X325332Y1155483D01*
X325417Y1155595D01*
X325501Y1155680D01*
X325572Y1155751D01*
X325642Y1155821D01*
X325685Y1155863D01*
X325713Y1155878D01*
X325727Y1155892D01*
X322245D01*
Y1157090D01*
X332000D01*
Y1155976D01*
D02*
G37*
%LPC*%
G36*
X368844Y1153390D02*
X361401D01*
Y1151346D01*
Y1151135D01*
X361415Y1150951D01*
Y1150768D01*
X361429Y1150599D01*
X361471Y1150317D01*
X361499Y1150091D01*
X361542Y1149908D01*
X361584Y1149781D01*
X361598Y1149711D01*
X361612Y1149683D01*
X361739Y1149429D01*
X361894Y1149189D01*
X362077Y1148978D01*
X362261Y1148795D01*
X362430Y1148654D01*
X362571Y1148541D01*
X362627Y1148513D01*
X362670Y1148484D01*
X362698Y1148456D01*
X362712D01*
X362867Y1148372D01*
X363050Y1148287D01*
X363417Y1148160D01*
X363811Y1148076D01*
X364192Y1148005D01*
X364361Y1147991D01*
X364530Y1147977D01*
X364671Y1147963D01*
X364798D01*
X364911Y1147949D01*
X365052D01*
X365447Y1147963D01*
X365813Y1147991D01*
X366137Y1148033D01*
X366419Y1148076D01*
X366532Y1148104D01*
X366631Y1148132D01*
X366730Y1148160D01*
X366800Y1148174D01*
X366856Y1148188D01*
X366899Y1148203D01*
X366927Y1148217D01*
X366941D01*
X367209Y1148315D01*
X367448Y1148428D01*
X367660Y1148555D01*
X367843Y1148668D01*
X367984Y1148766D01*
X368083Y1148851D01*
X368139Y1148907D01*
X368167Y1148921D01*
X368280Y1149062D01*
X368379Y1149203D01*
X368463Y1149344D01*
X368548Y1149485D01*
X368604Y1149612D01*
X368647Y1149711D01*
X368661Y1149781D01*
X368675Y1149809D01*
X368731Y1150021D01*
X368774Y1150275D01*
X368802Y1150528D01*
X368816Y1150768D01*
X368830Y1150980D01*
X368844Y1151078D01*
Y1151163D01*
Y1151219D01*
Y1151276D01*
Y1151304D01*
Y1151318D01*
Y1153390D01*
D02*
G37*
G36*
X387105Y1160471D02*
X387077D01*
X386908Y1160456D01*
X386738Y1160428D01*
X386597Y1160386D01*
X386470Y1160344D01*
X386358Y1160287D01*
X386273Y1160245D01*
X386217Y1160217D01*
X386203Y1160203D01*
X386062Y1160104D01*
X385935Y1159977D01*
X385836Y1159850D01*
X385752Y1159723D01*
X385695Y1159611D01*
X385653Y1159526D01*
X385625Y1159470D01*
X385611Y1159441D01*
X385554Y1159244D01*
X385512Y1159018D01*
X385484Y1158793D01*
X385470Y1158567D01*
X385456Y1158370D01*
X385441Y1158201D01*
Y1158145D01*
Y1158102D01*
Y1158074D01*
Y1158060D01*
Y1155297D01*
X388670D01*
Y1158370D01*
X388656Y1158751D01*
X388599Y1159075D01*
X388529Y1159357D01*
X388444Y1159568D01*
X388359Y1159752D01*
X388289Y1159864D01*
X388233Y1159935D01*
X388219Y1159963D01*
X388035Y1160132D01*
X387852Y1160259D01*
X387655Y1160344D01*
X387486Y1160414D01*
X387316Y1160442D01*
X387189Y1160456D01*
X387105Y1160471D01*
D02*
G37*
G36*
X400445Y1165168D02*
X400374D01*
X400191Y1165154D01*
X400036Y1165126D01*
X399867Y1165084D01*
X399726Y1165027D01*
X399458Y1164872D01*
X399247Y1164703D01*
X399063Y1164548D01*
X398937Y1164393D01*
X398894Y1164336D01*
X398866Y1164294D01*
X398838Y1164266D01*
Y1164252D01*
X398782Y1164139D01*
X398725Y1164012D01*
X398641Y1163730D01*
X398584Y1163420D01*
X398542Y1163124D01*
X398514Y1162856D01*
Y1162729D01*
X398500Y1162631D01*
Y1162546D01*
Y1162476D01*
Y1162433D01*
Y1162419D01*
Y1162180D01*
X398528Y1161968D01*
X398556Y1161757D01*
X398584Y1161559D01*
X398626Y1161390D01*
X398683Y1161221D01*
X398725Y1161080D01*
X398782Y1160939D01*
X398838Y1160826D01*
X398880Y1160728D01*
X398937Y1160643D01*
X398979Y1160573D01*
X399007Y1160516D01*
X399035Y1160474D01*
X399063Y1160460D01*
Y1160446D01*
X399176Y1160319D01*
X399289Y1160220D01*
X399402Y1160122D01*
X399515Y1160051D01*
X399740Y1159924D01*
X399952Y1159840D01*
X400135Y1159797D01*
X400290Y1159769D01*
X400346Y1159755D01*
X400558D01*
X400699Y1159783D01*
X400966Y1159854D01*
X401192Y1159967D01*
X401389Y1160079D01*
X401544Y1160206D01*
X401657Y1160319D01*
X401728Y1160389D01*
X401756Y1160404D01*
Y1160418D01*
X401855Y1160544D01*
X401939Y1160699D01*
X402080Y1161010D01*
X402179Y1161362D01*
X402235Y1161686D01*
X402278Y1161982D01*
X402292Y1162123D01*
Y1162236D01*
X402306Y1162335D01*
Y1162405D01*
Y1162448D01*
Y1162462D01*
Y1162701D01*
X402278Y1162941D01*
X402249Y1163152D01*
X402221Y1163350D01*
X402179Y1163533D01*
X402122Y1163702D01*
X402066Y1163843D01*
X402024Y1163984D01*
X401967Y1164097D01*
X401911Y1164210D01*
X401869Y1164294D01*
X401812Y1164365D01*
X401784Y1164421D01*
X401756Y1164463D01*
X401728Y1164477D01*
Y1164492D01*
X401615Y1164604D01*
X401502Y1164717D01*
X401277Y1164886D01*
X401051Y1164999D01*
X400840Y1165084D01*
X400656Y1165126D01*
X400501Y1165154D01*
X400445Y1165168D01*
D02*
G37*
G36*
X407832D02*
X407761D01*
X407620Y1165154D01*
X407465Y1165140D01*
X407211Y1165055D01*
X406972Y1164957D01*
X406774Y1164830D01*
X406605Y1164703D01*
X406479Y1164590D01*
X406408Y1164520D01*
X406394Y1164506D01*
X406380Y1164492D01*
X406281Y1164351D01*
X406197Y1164210D01*
X406056Y1163885D01*
X405957Y1163547D01*
X405886Y1163209D01*
X405844Y1162913D01*
X405830Y1162786D01*
Y1162673D01*
X405816Y1162574D01*
Y1162504D01*
Y1162462D01*
Y1162448D01*
Y1162194D01*
X405844Y1161954D01*
X405872Y1161729D01*
X405900Y1161531D01*
X405943Y1161348D01*
X405985Y1161179D01*
X406027Y1161024D01*
X406084Y1160883D01*
X406140Y1160756D01*
X406182Y1160657D01*
X406225Y1160573D01*
X406267Y1160502D01*
X406309Y1160446D01*
X406323Y1160404D01*
X406352Y1160389D01*
Y1160375D01*
X406464Y1160263D01*
X406563Y1160150D01*
X406789Y1159995D01*
X407014Y1159868D01*
X407226Y1159797D01*
X407409Y1159741D01*
X407550Y1159727D01*
X407606Y1159713D01*
X407677D01*
X407818Y1159727D01*
X407959Y1159741D01*
X408227Y1159826D01*
X408452Y1159938D01*
X408663Y1160065D01*
X408819Y1160206D01*
X408945Y1160319D01*
X409016Y1160404D01*
X409044Y1160418D01*
Y1160432D01*
X409143Y1160573D01*
X409241Y1160728D01*
X409382Y1161066D01*
X409495Y1161419D01*
X409566Y1161757D01*
X409594Y1161926D01*
X409608Y1162067D01*
X409622Y1162208D01*
Y1162321D01*
X409636Y1162419D01*
Y1162504D01*
Y1162546D01*
Y1162560D01*
Y1162800D01*
X409608Y1163026D01*
X409580Y1163223D01*
X409552Y1163420D01*
X409509Y1163589D01*
X409453Y1163759D01*
X409411Y1163900D01*
X409354Y1164026D01*
X409298Y1164139D01*
X409256Y1164252D01*
X409199Y1164322D01*
X409157Y1164393D01*
X409129Y1164449D01*
X409100Y1164492D01*
X409072Y1164506D01*
Y1164520D01*
X408974Y1164633D01*
X408861Y1164731D01*
X408635Y1164900D01*
X408410Y1165013D01*
X408212Y1165084D01*
X408029Y1165140D01*
X407888Y1165154D01*
X407832Y1165168D01*
D02*
G37*
G36*
X422559Y1152703D02*
X419330D01*
Y1149630D01*
X419344Y1149249D01*
X419401Y1148925D01*
X419471Y1148643D01*
X419556Y1148432D01*
X419641Y1148248D01*
X419711Y1148136D01*
X419767Y1148065D01*
X419781Y1148037D01*
X419965Y1147868D01*
X420148Y1147741D01*
X420345Y1147656D01*
X420514Y1147586D01*
X420684Y1147558D01*
X420811Y1147544D01*
X420895Y1147530D01*
X420923D01*
X421092Y1147544D01*
X421262Y1147572D01*
X421403Y1147614D01*
X421530Y1147656D01*
X421642Y1147713D01*
X421727Y1147755D01*
X421783Y1147783D01*
X421797Y1147797D01*
X421938Y1147896D01*
X422065Y1148023D01*
X422164Y1148150D01*
X422248Y1148277D01*
X422305Y1148389D01*
X422347Y1148474D01*
X422375Y1148530D01*
X422389Y1148559D01*
X422446Y1148756D01*
X422488Y1148981D01*
X422516Y1149207D01*
X422530Y1149433D01*
X422545Y1149630D01*
X422559Y1149799D01*
Y1149855D01*
Y1149898D01*
Y1149926D01*
Y1149940D01*
Y1152703D01*
D02*
G37*
G36*
X439631Y1160990D02*
X439180D01*
X438968Y1160962D01*
X438757Y1160934D01*
X438559Y1160906D01*
X438390Y1160863D01*
X438221Y1160807D01*
X438080Y1160765D01*
X437939Y1160708D01*
X437826Y1160652D01*
X437728Y1160610D01*
X437643Y1160553D01*
X437573Y1160511D01*
X437516Y1160483D01*
X437474Y1160454D01*
X437460Y1160426D01*
X437446D01*
X437319Y1160314D01*
X437220Y1160201D01*
X437122Y1160088D01*
X437051Y1159975D01*
X436924Y1159750D01*
X436840Y1159538D01*
X436797Y1159355D01*
X436769Y1159200D01*
X436755Y1159144D01*
Y1159101D01*
Y1159087D01*
Y1159073D01*
Y1158932D01*
X436783Y1158791D01*
X436854Y1158523D01*
X436967Y1158298D01*
X437079Y1158100D01*
X437206Y1157945D01*
X437319Y1157832D01*
X437389Y1157762D01*
X437403Y1157734D01*
X437418D01*
X437545Y1157635D01*
X437700Y1157551D01*
X438010Y1157410D01*
X438362Y1157311D01*
X438686Y1157254D01*
X438982Y1157212D01*
X439123Y1157198D01*
X439236D01*
X439335Y1157184D01*
X439701D01*
X439941Y1157212D01*
X440152Y1157240D01*
X440350Y1157269D01*
X440533Y1157311D01*
X440702Y1157367D01*
X440843Y1157424D01*
X440984Y1157466D01*
X441097Y1157522D01*
X441210Y1157579D01*
X441294Y1157621D01*
X441365Y1157677D01*
X441421Y1157706D01*
X441463Y1157734D01*
X441478Y1157762D01*
X441492D01*
X441604Y1157875D01*
X441717Y1157988D01*
X441886Y1158213D01*
X441999Y1158439D01*
X442084Y1158650D01*
X442126Y1158833D01*
X442154Y1158988D01*
X442168Y1159045D01*
Y1159087D01*
Y1159101D01*
Y1159115D01*
X442154Y1159299D01*
X442126Y1159454D01*
X442084Y1159623D01*
X442027Y1159764D01*
X441872Y1160032D01*
X441703Y1160243D01*
X441548Y1160426D01*
X441393Y1160553D01*
X441337Y1160595D01*
X441294Y1160624D01*
X441266Y1160652D01*
X441252D01*
X441139Y1160708D01*
X441012Y1160765D01*
X440730Y1160849D01*
X440420Y1160906D01*
X440124Y1160948D01*
X439856Y1160976D01*
X439729D01*
X439631Y1160990D01*
D02*
G37*
G36*
X441181Y1153603D02*
X441097D01*
X440984Y1153589D01*
X440871Y1153575D01*
X440787Y1153547D01*
X440702Y1153519D01*
X440632Y1153491D01*
X440575Y1153476D01*
X440547Y1153448D01*
X440533D01*
X440364Y1153307D01*
X440251Y1153138D01*
X440209Y1153082D01*
X440181Y1153025D01*
X440152Y1152983D01*
Y1152969D01*
X440096Y1152828D01*
X440054Y1152673D01*
X440011Y1152504D01*
X439983Y1152335D01*
X439955Y1152180D01*
X439927Y1152039D01*
X439913Y1151954D01*
Y1151940D01*
Y1151926D01*
X439870Y1151686D01*
X439842Y1151461D01*
X439800Y1151263D01*
X439758Y1151066D01*
X439715Y1150883D01*
X439673Y1150728D01*
X439645Y1150573D01*
X439603Y1150446D01*
X439574Y1150333D01*
X439546Y1150234D01*
X439518Y1150150D01*
X439490Y1150079D01*
X439476Y1150023D01*
X439462Y1149980D01*
X439448Y1149966D01*
Y1149952D01*
X439899Y1149966D01*
X440181Y1149980D01*
X440420Y1149995D01*
X440618Y1150023D01*
X440787Y1150065D01*
X440914Y1150107D01*
X441012Y1150135D01*
X441069Y1150150D01*
X441083Y1150164D01*
X441266Y1150276D01*
X441435Y1150389D01*
X441576Y1150530D01*
X441689Y1150657D01*
X441788Y1150770D01*
X441858Y1150869D01*
X441900Y1150925D01*
X441914Y1150953D01*
X442013Y1151165D01*
X442084Y1151376D01*
X442140Y1151573D01*
X442168Y1151771D01*
X442197Y1151926D01*
X442211Y1152067D01*
Y1152151D01*
Y1152166D01*
Y1152180D01*
X442197Y1152433D01*
X442168Y1152645D01*
X442112Y1152828D01*
X442056Y1152983D01*
X441999Y1153096D01*
X441943Y1153180D01*
X441914Y1153237D01*
X441900Y1153251D01*
X441774Y1153364D01*
X441633Y1153448D01*
X441506Y1153519D01*
X441379Y1153561D01*
X441266Y1153589D01*
X441181Y1153603D01*
D02*
G37*
G36*
X344937Y1142261D02*
X344881D01*
X344754Y1142247D01*
X344641Y1142233D01*
X344543Y1142190D01*
X344458Y1142148D01*
X344387Y1142106D01*
X344331Y1142078D01*
X344303Y1142049D01*
X344289Y1142035D01*
X344204Y1141937D01*
X344120Y1141810D01*
X344049Y1141669D01*
X343979Y1141528D01*
X343936Y1141387D01*
X343894Y1141274D01*
X343880Y1141204D01*
X343866Y1141189D01*
Y1141175D01*
X343838Y1141049D01*
X343809Y1140893D01*
X343781Y1140710D01*
X343753Y1140527D01*
X343725Y1140146D01*
X343711Y1139752D01*
X343697Y1139568D01*
Y1139385D01*
X343683Y1139230D01*
Y1139089D01*
Y1138976D01*
Y1138878D01*
Y1138821D01*
Y1138807D01*
Y1138497D01*
X343697Y1138201D01*
Y1137933D01*
X343711Y1137693D01*
X343725Y1137468D01*
X343739Y1137271D01*
X343767Y1137087D01*
X343781Y1136932D01*
X343795Y1136791D01*
X343824Y1136678D01*
X343838Y1136580D01*
X343852Y1136495D01*
X343866Y1136439D01*
Y1136382D01*
X343880Y1136368D01*
Y1136354D01*
X343936Y1136157D01*
X344007Y1136002D01*
X344077Y1135861D01*
X344134Y1135762D01*
X344190Y1135677D01*
X344246Y1135621D01*
X344275Y1135593D01*
X344289Y1135579D01*
X344387Y1135508D01*
X344486Y1135452D01*
X344585Y1135424D01*
X344683Y1135396D01*
X344754Y1135381D01*
X344824Y1135367D01*
X344881D01*
X345008Y1135381D01*
X345121Y1135396D01*
X345219Y1135438D01*
X345304Y1135480D01*
X345374Y1135508D01*
X345431Y1135551D01*
X345459Y1135565D01*
X345473Y1135579D01*
X345558Y1135677D01*
X345642Y1135804D01*
X345713Y1135945D01*
X345783Y1136086D01*
X345825Y1136213D01*
X345868Y1136326D01*
X345882Y1136396D01*
X345896Y1136425D01*
X345924Y1136566D01*
X345952Y1136721D01*
X345980Y1136890D01*
X345994Y1137073D01*
X346023Y1137468D01*
X346037Y1137863D01*
X346051Y1138046D01*
Y1138229D01*
X346065Y1138384D01*
Y1138525D01*
Y1138638D01*
Y1138737D01*
Y1138793D01*
Y1138807D01*
Y1139117D01*
X346051Y1139413D01*
Y1139667D01*
X346037Y1139921D01*
X346023Y1140132D01*
X346009Y1140344D01*
X345994Y1140513D01*
X345966Y1140682D01*
X345952Y1140823D01*
X345938Y1140936D01*
X345924Y1141034D01*
X345910Y1141119D01*
X345896Y1141175D01*
Y1141232D01*
X345882Y1141246D01*
Y1141260D01*
X345825Y1141457D01*
X345755Y1141627D01*
X345698Y1141753D01*
X345628Y1141866D01*
X345572Y1141937D01*
X345529Y1141993D01*
X345501Y1142021D01*
X345487Y1142035D01*
X345388Y1142106D01*
X345275Y1142162D01*
X345177Y1142204D01*
X345078Y1142233D01*
X345008Y1142247D01*
X344937Y1142261D01*
D02*
G37*
G36*
X382026Y1142106D02*
X379771D01*
X379644Y1142092D01*
X379334D01*
X379207Y1142078D01*
X379122D01*
X379080Y1142064D01*
X379066D01*
X378897Y1142021D01*
X378742Y1141965D01*
X378615Y1141908D01*
X378516Y1141838D01*
X378432Y1141767D01*
X378361Y1141725D01*
X378333Y1141683D01*
X378319Y1141669D01*
X378234Y1141556D01*
X378164Y1141415D01*
X378121Y1141288D01*
X378079Y1141161D01*
X378065Y1141049D01*
X378051Y1140964D01*
Y1140908D01*
Y1140879D01*
X378065Y1140724D01*
X378079Y1140583D01*
X378121Y1140456D01*
X378150Y1140344D01*
X378192Y1140259D01*
X378234Y1140203D01*
X378248Y1140160D01*
X378262Y1140146D01*
X378347Y1140048D01*
X378432Y1139963D01*
X378615Y1139836D01*
X378685Y1139794D01*
X378756Y1139766D01*
X378798Y1139737D01*
X378812D01*
X378883Y1139723D01*
X378996Y1139695D01*
X379108Y1139681D01*
X379235Y1139667D01*
X379531Y1139653D01*
X379827Y1139639D01*
X380109Y1139625D01*
X382026D01*
Y1142106D01*
D02*
G37*
G36*
X371482Y1139794D02*
X371383D01*
X371172Y1139780D01*
X370989Y1139723D01*
X370819Y1139653D01*
X370678Y1139582D01*
X370566Y1139498D01*
X370481Y1139427D01*
X370425Y1139371D01*
X370410Y1139357D01*
X370284Y1139188D01*
X370171Y1138990D01*
X370100Y1138779D01*
X370044Y1138581D01*
X370016Y1138412D01*
X370002Y1138257D01*
X369988Y1138201D01*
Y1138173D01*
Y1138145D01*
Y1138130D01*
X372779D01*
X372765Y1138398D01*
X372722Y1138638D01*
X372666Y1138849D01*
X372581Y1139018D01*
X372511Y1139159D01*
X372440Y1139258D01*
X372398Y1139329D01*
X372384Y1139343D01*
X372229Y1139498D01*
X372060Y1139611D01*
X371891Y1139681D01*
X371736Y1139737D01*
X371595Y1139766D01*
X371482Y1139794D01*
D02*
G37*
G36*
X330182Y1148603D02*
X330097D01*
X329984Y1148589D01*
X329871Y1148575D01*
X329787Y1148547D01*
X329702Y1148519D01*
X329632Y1148491D01*
X329575Y1148476D01*
X329547Y1148448D01*
X329533D01*
X329364Y1148307D01*
X329251Y1148138D01*
X329209Y1148082D01*
X329181Y1148025D01*
X329152Y1147983D01*
Y1147969D01*
X329096Y1147828D01*
X329054Y1147673D01*
X329011Y1147504D01*
X328983Y1147335D01*
X328955Y1147180D01*
X328927Y1147039D01*
X328913Y1146954D01*
Y1146940D01*
Y1146926D01*
X328871Y1146686D01*
X328842Y1146461D01*
X328800Y1146263D01*
X328758Y1146066D01*
X328715Y1145883D01*
X328673Y1145728D01*
X328645Y1145573D01*
X328603Y1145446D01*
X328574Y1145333D01*
X328546Y1145234D01*
X328518Y1145150D01*
X328490Y1145079D01*
X328476Y1145023D01*
X328462Y1144980D01*
X328448Y1144966D01*
Y1144952D01*
X328899Y1144966D01*
X329181Y1144980D01*
X329420Y1144995D01*
X329618Y1145023D01*
X329787Y1145065D01*
X329914Y1145107D01*
X330012Y1145136D01*
X330069Y1145150D01*
X330083Y1145164D01*
X330266Y1145276D01*
X330435Y1145389D01*
X330576Y1145530D01*
X330689Y1145657D01*
X330788Y1145770D01*
X330858Y1145869D01*
X330900Y1145925D01*
X330914Y1145953D01*
X331013Y1146165D01*
X331084Y1146376D01*
X331140Y1146573D01*
X331168Y1146771D01*
X331197Y1146926D01*
X331211Y1147067D01*
Y1147151D01*
Y1147166D01*
Y1147180D01*
X331197Y1147433D01*
X331168Y1147645D01*
X331112Y1147828D01*
X331055Y1147983D01*
X330999Y1148096D01*
X330943Y1148180D01*
X330914Y1148237D01*
X330900Y1148251D01*
X330774Y1148364D01*
X330633Y1148448D01*
X330506Y1148519D01*
X330379Y1148561D01*
X330266Y1148589D01*
X330182Y1148603D01*
D02*
G37*
G36*
X328631Y1155990D02*
X328180D01*
X327968Y1155962D01*
X327757Y1155934D01*
X327559Y1155906D01*
X327390Y1155863D01*
X327221Y1155807D01*
X327080Y1155765D01*
X326939Y1155708D01*
X326826Y1155652D01*
X326728Y1155610D01*
X326643Y1155553D01*
X326573Y1155511D01*
X326516Y1155483D01*
X326474Y1155455D01*
X326460Y1155426D01*
X326446D01*
X326319Y1155314D01*
X326220Y1155201D01*
X326121Y1155088D01*
X326051Y1154975D01*
X325924Y1154750D01*
X325840Y1154538D01*
X325797Y1154355D01*
X325769Y1154200D01*
X325755Y1154144D01*
Y1154101D01*
Y1154087D01*
Y1154073D01*
Y1153932D01*
X325783Y1153791D01*
X325854Y1153523D01*
X325966Y1153298D01*
X326079Y1153100D01*
X326206Y1152945D01*
X326319Y1152832D01*
X326389Y1152762D01*
X326404Y1152734D01*
X326418D01*
X326544Y1152635D01*
X326699Y1152551D01*
X327010Y1152410D01*
X327362Y1152311D01*
X327686Y1152254D01*
X327982Y1152212D01*
X328123Y1152198D01*
X328236D01*
X328335Y1152184D01*
X328701D01*
X328941Y1152212D01*
X329152Y1152240D01*
X329350Y1152269D01*
X329533Y1152311D01*
X329702Y1152367D01*
X329843Y1152424D01*
X329984Y1152466D01*
X330097Y1152522D01*
X330210Y1152579D01*
X330294Y1152621D01*
X330365Y1152678D01*
X330421Y1152706D01*
X330463Y1152734D01*
X330477Y1152762D01*
X330492D01*
X330604Y1152875D01*
X330717Y1152988D01*
X330886Y1153213D01*
X330999Y1153439D01*
X331084Y1153650D01*
X331126Y1153833D01*
X331154Y1153988D01*
X331168Y1154045D01*
Y1154087D01*
Y1154101D01*
Y1154115D01*
X331154Y1154299D01*
X331126Y1154454D01*
X331084Y1154623D01*
X331027Y1154764D01*
X330872Y1155032D01*
X330703Y1155243D01*
X330548Y1155426D01*
X330393Y1155553D01*
X330337Y1155595D01*
X330294Y1155624D01*
X330266Y1155652D01*
X330252D01*
X330139Y1155708D01*
X330012Y1155765D01*
X329730Y1155849D01*
X329420Y1155906D01*
X329124Y1155948D01*
X328856Y1155976D01*
X328730D01*
X328631Y1155990D01*
D02*
G37*
%LPD*%
M02*
