G04*
G04 #@! TF.GenerationSoftware,Altium Limited,Altium Designer,18.0.11 (651)*
G04*
G04 Layer_Physical_Order=1*
G04 Layer_Color=255*
%FSAX44Y44*%
%MOMM*%
G71*
G01*
G75*
%ADD14R,1.5000X0.9000*%
%ADD15R,1.5000X0.9500*%
%ADD16R,0.9500X1.5000*%
%ADD17C,0.2540*%
%ADD18C,0.4000*%
%ADD19C,0.2000*%
%ADD20C,0.5000*%
G36*
X01017982Y00901414D02*
X01017909Y00900881D01*
X01016566Y00900429D01*
X01016247Y00900747D01*
X01015331Y00901359D01*
X01014250Y00901574D01*
X01014250Y00901574D01*
X01012674D01*
X01012634Y00901634D01*
X01011311Y00902518D01*
X01009750Y00902828D01*
X01008189Y00902518D01*
X01006866Y00901634D01*
X01005982Y00900311D01*
X01005672Y00898750D01*
X01005982Y00897189D01*
X01006866Y00895866D01*
X01008189Y00894982D01*
X01009750Y00894672D01*
X01011311Y00894982D01*
X01012634Y00895866D01*
X01013739Y00895267D01*
X01024676Y00884330D01*
Y00827250D01*
X01024676Y00827250D01*
X01024891Y00826169D01*
X01025503Y00825253D01*
X01026391Y00824365D01*
X01025865Y00823095D01*
X01023245D01*
X01022384Y00824384D01*
X01021061Y00825268D01*
X01019500Y00825578D01*
X01017939Y00825268D01*
X01017844Y00825204D01*
X01016574Y00825883D01*
Y00851627D01*
X01019939Y00854992D01*
X01020551Y00855908D01*
X01020766Y00856989D01*
X01020766Y00856989D01*
Y00884433D01*
X01020551Y00885514D01*
X01019939Y00886430D01*
X01019939Y00886430D01*
X01014872Y00891497D01*
X01013955Y00892109D01*
X01012875Y00892324D01*
X01012874Y00892324D01*
X00964670D01*
X00954977Y00902017D01*
X00954061Y00902629D01*
X00952980Y00902844D01*
X00952980Y00902844D01*
X00930020D01*
X00930020Y00902844D01*
X00928939Y00902629D01*
X00928023Y00902017D01*
X00928023Y00902017D01*
X00916503Y00890497D01*
X00915891Y00889581D01*
X00915676Y00888500D01*
X00915676Y00888500D01*
Y00879174D01*
X00915616Y00879134D01*
X00914732Y00877811D01*
X00914422Y00876250D01*
X00914732Y00874689D01*
X00915616Y00873366D01*
X00916939Y00872482D01*
X00918500Y00872172D01*
X00920061Y00872482D01*
X00921384Y00873366D01*
X00922268Y00874689D01*
X00922578Y00876250D01*
X00922268Y00877811D01*
X00921384Y00879134D01*
X00921324Y00879174D01*
Y00887330D01*
X00931190Y00897196D01*
X00934912D01*
X00935656Y00895926D01*
X00935422Y00894750D01*
X00935732Y00893189D01*
X00936616Y00891866D01*
X00936676Y00891826D01*
Y00884420D01*
X00910253Y00857997D01*
X00909641Y00857081D01*
X00909426Y00856000D01*
X00909426Y00856000D01*
Y00848500D01*
X00909426Y00848500D01*
X00909641Y00847419D01*
X00910253Y00846503D01*
X00920426Y00836330D01*
Y00824424D01*
X00920366Y00824384D01*
X00919482Y00823061D01*
X00919172Y00821500D01*
X00919482Y00819939D01*
X00920366Y00818616D01*
X00921689Y00817732D01*
X00923250Y00817422D01*
X00924811Y00817732D01*
X00926134Y00818616D01*
X00927018Y00819939D01*
X00927328Y00821500D01*
X00927018Y00823061D01*
X00926134Y00824384D01*
X00926074Y00824424D01*
Y00837500D01*
X00925859Y00838581D01*
X00925247Y00839497D01*
X00925247Y00839497D01*
X00915074Y00849670D01*
Y00854830D01*
X00941747Y00881503D01*
X00941747Y00881503D01*
X00942359Y00882419D01*
X00942574Y00883500D01*
X00942359Y00884581D01*
X00942324Y00884633D01*
Y00891826D01*
X00942384Y00891866D01*
X00943268Y00893189D01*
X00943578Y00894750D01*
X00943344Y00895926D01*
X00944088Y00897196D01*
X00951810D01*
X00961503Y00887503D01*
X00962419Y00886891D01*
X00963500Y00886676D01*
X01009809D01*
X01010195Y00885406D01*
X01009788Y00885134D01*
X01008904Y00883811D01*
X01008593Y00882250D01*
X01008904Y00880689D01*
X01008926Y00880656D01*
Y00862319D01*
X00974478D01*
X00974338Y00862459D01*
X00974268Y00862811D01*
X00973384Y00864134D01*
X00972061Y00865018D01*
X00970500Y00865328D01*
X00968939Y00865018D01*
X00967616Y00864134D01*
X00966732Y00862811D01*
X00966422Y00861250D01*
X00966732Y00859689D01*
X00967616Y00858366D01*
X00968939Y00857482D01*
X00969291Y00857412D01*
X00970477Y00856227D01*
X00971634Y00855453D01*
X00973000Y00855181D01*
X00989147D01*
X00989480Y00854848D01*
Y00846900D01*
X00989280Y00846602D01*
X00988970Y00845041D01*
X00989280Y00843481D01*
X00990165Y00842157D01*
X00991488Y00841273D01*
X00991901Y00841191D01*
X00992319Y00839813D01*
X00987830Y00835324D01*
X00974000D01*
X00972919Y00835109D01*
X00972003Y00834497D01*
X00972003Y00834497D01*
X00962003Y00824497D01*
X00961391Y00823581D01*
X00961176Y00822500D01*
X00961176Y00822500D01*
Y00774174D01*
X00961116Y00774134D01*
X00960232Y00772811D01*
X00959922Y00771250D01*
X00960232Y00769689D01*
X00961116Y00768366D01*
X00962439Y00767482D01*
X00964000Y00767172D01*
X00965561Y00767482D01*
X00966884Y00768366D01*
X00967768Y00769689D01*
X00968078Y00771250D01*
X00967768Y00772811D01*
X00966884Y00774134D01*
X00966824Y00774174D01*
Y00821330D01*
X00975170Y00829676D01*
X00989000D01*
X00989000Y00829676D01*
X00990081Y00829891D01*
X00990997Y00830503D01*
X01001745Y00841251D01*
X01001860Y00841273D01*
X01003183Y00842157D01*
X01004067Y00843481D01*
X01004377Y00845041D01*
X01004067Y00846602D01*
X01003183Y00847925D01*
X01001860Y00848809D01*
X01000299Y00849120D01*
X00998738Y00848809D01*
X00997887Y00848241D01*
X00996617Y00848843D01*
Y00855181D01*
X01009767D01*
X01010439Y00854732D01*
X01011030Y00853320D01*
X01010926Y00852797D01*
X01010926Y00852797D01*
Y00819750D01*
X01010926Y00819750D01*
X01011141Y00818669D01*
X01011753Y00817753D01*
X01013737Y00815769D01*
X01013368Y00814554D01*
X01013189Y00814518D01*
X01011866Y00813634D01*
X01010982Y00812311D01*
X01010672Y00810750D01*
X01010982Y00809189D01*
X01011866Y00807866D01*
X01013189Y00806982D01*
X01014750Y00806672D01*
X01016311Y00806982D01*
X01017634Y00807866D01*
X01018739Y00807267D01*
X01019618Y00806388D01*
X01019232Y00805811D01*
X01018922Y00804250D01*
X01019232Y00802689D01*
X01020116Y00801366D01*
X01020176Y00801326D01*
Y00798920D01*
X01017253Y00795997D01*
X01005116Y00783860D01*
X00998642D01*
X00998642Y00783860D01*
X00997561Y00783645D01*
X00996645Y00783033D01*
X00992211Y00778599D01*
X00990738Y00778306D01*
X00989415Y00777422D01*
X00988531Y00776098D01*
X00988220Y00774538D01*
X00988234Y00774467D01*
X00982723Y00768957D01*
X00982466Y00768785D01*
X00982466Y00768785D01*
X00982466Y00768784D01*
X00979214Y00765533D01*
X00973721D01*
X00973681Y00765593D01*
X00972358Y00766477D01*
X00970797Y00766787D01*
X00969237Y00766477D01*
X00967914Y00765593D01*
X00967233Y00764574D01*
X00961670D01*
X00939620Y00786624D01*
Y00845130D01*
X00971215D01*
X00973592Y00842753D01*
X00973592Y00842753D01*
X00974508Y00842141D01*
X00975589Y00841926D01*
X00975589Y00841926D01*
X00979326D01*
X00979366Y00841866D01*
X00980689Y00840982D01*
X00982250Y00840672D01*
X00983811Y00840982D01*
X00985134Y00841866D01*
X00986018Y00843189D01*
X00986328Y00844750D01*
X00986018Y00846311D01*
X00985134Y00847634D01*
X00983811Y00848518D01*
X00982250Y00848828D01*
X00980689Y00848518D01*
X00979366Y00847634D01*
X00979326Y00847574D01*
X00976759D01*
X00974382Y00849951D01*
X00973465Y00850564D01*
X00972384Y00850779D01*
X00972384Y00850779D01*
X00940446D01*
X00939680Y00851925D01*
X00938356Y00852809D01*
X00936796Y00853120D01*
X00936725Y00853106D01*
X00935747Y00854084D01*
X00934831Y00854696D01*
X00933750Y00854911D01*
X00933521Y00854866D01*
X00924219D01*
X00924179Y00854925D01*
X00922856Y00855809D01*
X00921295Y00856120D01*
X00919734Y00855809D01*
X00918411Y00854925D01*
X00917527Y00853602D01*
X00917217Y00852042D01*
X00917527Y00850481D01*
X00918411Y00849158D01*
X00919734Y00848274D01*
X00921295Y00847963D01*
X00922856Y00848274D01*
X00924179Y00849158D01*
X00924219Y00849217D01*
X00931486D01*
X00932717Y00849041D01*
X00933028Y00847481D01*
X00933912Y00846158D01*
X00933971Y00846118D01*
Y00785454D01*
X00933971Y00785454D01*
X00934186Y00784373D01*
X00934799Y00783457D01*
X00958503Y00759753D01*
X00958503Y00759753D01*
X00959419Y00759141D01*
X00960500Y00758926D01*
X00960500Y00758926D01*
X00969314D01*
X00970797Y00758631D01*
X00972358Y00758941D01*
X00973681Y00759825D01*
X00973721Y00759885D01*
X00980384D01*
X00980384Y00759885D01*
X00981465Y00760100D01*
X00982381Y00760712D01*
X00986245Y00764575D01*
X00986502Y00764747D01*
X00986502Y00764747D01*
X00986502Y00764748D01*
X00992228Y00770473D01*
X00992298Y00770459D01*
X00993859Y00770770D01*
X00995182Y00771654D01*
X00996066Y00772977D01*
X00996377Y00774538D01*
X00996337Y00774736D01*
X00999812Y00778211D01*
X01006285D01*
X01006285Y00778211D01*
X01007366Y00778426D01*
X01008283Y00779038D01*
X01019250Y00790006D01*
X01032445Y00776811D01*
X01032445Y00776811D01*
X01033362Y00776198D01*
X01034442Y00775984D01*
X01037689D01*
X01038439Y00775482D01*
X01040000Y00775172D01*
X01041561Y00775482D01*
X01042884Y00776366D01*
X01043768Y00777689D01*
X01044078Y00779250D01*
X01043768Y00780811D01*
X01042884Y00782134D01*
X01041561Y00783018D01*
X01040000Y00783328D01*
X01038439Y00783018D01*
X01037116Y00782134D01*
X01036843Y00781726D01*
X01035589Y00781655D01*
X01023244Y00794000D01*
X01024997Y00795753D01*
X01024997Y00795753D01*
X01025609Y00796669D01*
X01025824Y00797750D01*
X01025824Y00797750D01*
Y00801326D01*
X01025884Y00801366D01*
X01026768Y00802689D01*
X01026976Y00803734D01*
X01028279Y00804227D01*
X01046176Y00786330D01*
Y00751477D01*
X01046176Y00751477D01*
X01046391Y00750396D01*
X01047003Y00749480D01*
X01051196Y00745287D01*
Y00736650D01*
X01068832D01*
Y00720090D01*
X01020646D01*
Y00737900D01*
X01008146D01*
Y00737900D01*
X01007946D01*
Y00737900D01*
X00995446D01*
Y00737900D01*
X00995246D01*
Y00737900D01*
X00982746D01*
Y00737900D01*
X00982546D01*
Y00737900D01*
X00970046D01*
Y00737900D01*
X00969846D01*
Y00737900D01*
X00957346D01*
Y00737900D01*
X00957146D01*
Y00737900D01*
X00944646D01*
Y00737900D01*
X00944446D01*
Y00737900D01*
X00931946D01*
Y00737900D01*
X00931746D01*
Y00737900D01*
X00919246D01*
Y00720090D01*
X00870712D01*
Y00736650D01*
X00888696D01*
Y00749150D01*
X00888696D01*
Y00749350D01*
X00888696D01*
Y00750951D01*
X00907147D01*
X00907634Y00750040D01*
X00907706Y00749681D01*
X00907422Y00748250D01*
X00907732Y00746689D01*
X00908616Y00745366D01*
X00909939Y00744482D01*
X00911500Y00744172D01*
X00911570Y00744186D01*
X00915503Y00740253D01*
X00915503Y00740253D01*
X00916419Y00739641D01*
X00917500Y00739426D01*
X00917500Y00739426D01*
X00985250D01*
X00985250Y00739426D01*
X00986331Y00739641D01*
X00987247Y00740253D01*
X00994670Y00747676D01*
X01012825D01*
X01013366Y00746866D01*
X01014689Y00745982D01*
X01016250Y00745672D01*
X01017811Y00745982D01*
X01019134Y00746866D01*
X01020018Y00748189D01*
X01020328Y00749750D01*
X01020018Y00751311D01*
X01019134Y00752634D01*
X01017811Y00753518D01*
X01016250Y00753828D01*
X01014689Y00753518D01*
X01014399Y00753324D01*
X00993500D01*
X00993500Y00753324D01*
X00992419Y00753109D01*
X00991503Y00752497D01*
X00991503Y00752497D01*
X00984080Y00745074D01*
X00918670D01*
X00915564Y00748180D01*
X00915578Y00748250D01*
X00915294Y00749681D01*
X00915366Y00750040D01*
X00915853Y00750951D01*
X00968440D01*
X00968623Y00750988D01*
X00972471D01*
X00972655Y00750951D01*
X00986500D01*
X00987475Y00751145D01*
X00988302Y00751698D01*
X01003021Y00766416D01*
X01003988Y00765770D01*
X01005549Y00765459D01*
X01007110Y00765770D01*
X01008433Y00766654D01*
X01009317Y00767977D01*
X01009627Y00769538D01*
X01009317Y00771098D01*
X01008433Y00772421D01*
X01007110Y00773306D01*
X01005549Y00773616D01*
X01003988Y00773306D01*
X01002665Y00772421D01*
X01002427Y00772065D01*
X01001562Y00771892D01*
X01000735Y00771340D01*
X00985444Y00756049D01*
X00972802D01*
X00972618Y00756086D01*
X00968476D01*
X00968293Y00756049D01*
X00888696D01*
Y00761850D01*
X00888696D01*
Y00762050D01*
X00888696D01*
Y00774550D01*
X00888696D01*
Y00774750D01*
X00888696D01*
Y00787250D01*
X00888696D01*
Y00787450D01*
X00888696D01*
Y00799950D01*
X00888696D01*
Y00800150D01*
X00888696D01*
Y00812650D01*
X00888696D01*
Y00812850D01*
X00888696D01*
Y00825350D01*
X00888696D01*
Y00825550D01*
X00888696D01*
Y00828203D01*
X00889966Y00828881D01*
X00890189Y00828732D01*
X00891750Y00828422D01*
X00893311Y00828732D01*
X00894634Y00829616D01*
X00895518Y00830939D01*
X00895828Y00832500D01*
X00895518Y00834061D01*
X00894634Y00835384D01*
X00893311Y00836268D01*
X00891750Y00836578D01*
X00890189Y00836268D01*
X00889966Y00836119D01*
X00888696Y00836798D01*
Y00838050D01*
X00888696D01*
Y00838250D01*
X00888696D01*
Y00841696D01*
X00900310D01*
X00906551Y00835455D01*
Y00800045D01*
X00898753Y00792247D01*
X00898141Y00791331D01*
X00897926Y00790250D01*
X00897926Y00790250D01*
Y00767424D01*
X00897866Y00767384D01*
X00896982Y00766061D01*
X00896672Y00764500D01*
X00896982Y00762939D01*
X00897866Y00761616D01*
X00899189Y00760732D01*
X00900750Y00760422D01*
X00902311Y00760732D01*
X00903634Y00761616D01*
X00904518Y00762939D01*
X00904828Y00764500D01*
X00904518Y00766061D01*
X00903634Y00767384D01*
X00903574Y00767424D01*
Y00789080D01*
X00911372Y00796878D01*
X00911372Y00796878D01*
X00911984Y00797794D01*
X00912199Y00798875D01*
Y00836625D01*
X00911984Y00837706D01*
X00911372Y00838622D01*
X00911372Y00838622D01*
X00903477Y00846517D01*
X00902561Y00847129D01*
X00901480Y00847344D01*
X00901480Y00847344D01*
X00895112D01*
X00894842Y00847723D01*
X00894550Y00848614D01*
X00895268Y00849689D01*
X00895578Y00851250D01*
X00895268Y00852811D01*
X00894526Y00853921D01*
X00909302Y00868698D01*
X00909855Y00869525D01*
X00910049Y00870500D01*
Y00888380D01*
X00926620Y00904951D01*
X01014444D01*
X01017982Y00901414D01*
D02*
G37*
G36*
X01068832Y00918718D02*
Y00901300D01*
X01051196D01*
Y00889300D01*
X01051196D01*
Y00888600D01*
X01051196D01*
Y00881940D01*
X01046031Y00876775D01*
X01045551Y00876871D01*
X01043990Y00876561D01*
X01042667Y00875676D01*
X01041783Y00874353D01*
X01041690Y00873887D01*
X01034503Y00866700D01*
X01033891Y00865784D01*
X01033676Y00864703D01*
X01033676Y00864703D01*
Y00854924D01*
X01033616Y00854884D01*
X01032732Y00853561D01*
X01032422Y00852000D01*
X01032732Y00850439D01*
X01033616Y00849116D01*
X01034939Y00848232D01*
X01036500Y00847922D01*
X01038061Y00848232D01*
X01039384Y00849116D01*
X01040268Y00850439D01*
X01040578Y00852000D01*
X01040268Y00853561D01*
X01039384Y00854884D01*
X01039324Y00854924D01*
Y00863533D01*
X01044679Y00868888D01*
X01045551Y00868714D01*
X01047112Y00869025D01*
X01048235Y00869775D01*
X01049045Y00868789D01*
X01048523Y00868267D01*
X01047911Y00867351D01*
X01047696Y00866270D01*
X01047696Y00866270D01*
Y00864228D01*
X01045734Y00862266D01*
X01045122Y00861350D01*
X01044906Y00860269D01*
X01044926Y00860173D01*
Y00858924D01*
X01044866Y00858884D01*
X01043982Y00857561D01*
X01043672Y00856000D01*
X01043982Y00854439D01*
X01044866Y00853116D01*
X01046189Y00852232D01*
X01046714Y00852128D01*
X01046943Y00851579D01*
X01046982Y00850953D01*
X01046954Y00850785D01*
X01045667Y00849925D01*
X01044783Y00848602D01*
X01044473Y00847041D01*
X01044499Y00846908D01*
X01043468Y00845607D01*
X01043077Y00845595D01*
X01042884Y00845884D01*
X01041561Y00846768D01*
X01040000Y00847078D01*
X01038439Y00846768D01*
X01037116Y00845884D01*
X01036232Y00844561D01*
X01035922Y00843000D01*
X01036232Y00841439D01*
X01037116Y00840116D01*
X01038439Y00839232D01*
X01040000Y00838922D01*
X01040678Y00839056D01*
X01041229Y00838947D01*
X01050298D01*
X01051196Y00838050D01*
Y00825550D01*
X01051196D01*
Y00825350D01*
X01051196D01*
Y00821924D01*
X01035573D01*
X01035230Y00822267D01*
X01035210Y00822281D01*
X01034816Y00823976D01*
X01034818Y00823980D01*
X01035129Y00825540D01*
X01034818Y00827101D01*
X01033934Y00828424D01*
X01032611Y00829308D01*
X01031050Y00829619D01*
X01030324Y00830214D01*
Y00885500D01*
X01030324Y00885500D01*
X01030109Y00886581D01*
X01029497Y00887497D01*
X01029497Y00887497D01*
X01021760Y00895234D01*
X01022386Y00896404D01*
X01022550Y00896372D01*
X01024111Y00896682D01*
X01025434Y00897566D01*
X01026318Y00898889D01*
X01026628Y00900450D01*
X01026318Y00902011D01*
X01025434Y00903334D01*
X01024111Y00904218D01*
X01022550Y00904528D01*
X01022155Y00904450D01*
X01019927Y00906678D01*
X01020413Y00907851D01*
X01024544D01*
X01040285Y00892110D01*
X01040223Y00891794D01*
X01040533Y00890233D01*
X01041417Y00888910D01*
X01042740Y00888026D01*
X01044301Y00887715D01*
X01045862Y00888026D01*
X01047185Y00888910D01*
X01048069Y00890233D01*
X01048379Y00891794D01*
X01048069Y00893354D01*
X01047185Y00894677D01*
X01045862Y00895561D01*
X01044301Y00895872D01*
X01043827Y00895778D01*
X01027402Y00912202D01*
X01026575Y00912755D01*
X01025600Y00912949D01*
X00924363D01*
X00923387Y00912755D01*
X00922560Y00912202D01*
X00901948Y00891590D01*
X00901395Y00890763D01*
X00901201Y00889787D01*
Y00872556D01*
X00889869Y00861224D01*
X00888696Y00861710D01*
Y00863450D01*
X00888696D01*
Y00863650D01*
X00888696D01*
Y00868270D01*
X00898802Y00878377D01*
X00899355Y00879204D01*
X00899549Y00880179D01*
Y00887000D01*
X00899355Y00887975D01*
X00898802Y00888802D01*
X00898000Y00889605D01*
X00898078Y00890000D01*
X00897768Y00891561D01*
X00896884Y00892884D01*
X00895561Y00893768D01*
X00894000Y00894078D01*
X00892439Y00893768D01*
X00891116Y00892884D01*
X00890232Y00891561D01*
X00889966Y00890223D01*
X00888696Y00890348D01*
Y00901300D01*
X00870712D01*
Y00918972D01*
X01068578D01*
X01068832Y00918718D01*
D02*
G37*
D14*
X00879696Y00908000D02*
D03*
Y00895300D02*
D03*
Y00882600D02*
D03*
X01060196D02*
D03*
Y00895300D02*
D03*
Y00908000D02*
D03*
D15*
X00879696Y00869900D02*
D03*
Y00857200D02*
D03*
Y00844500D02*
D03*
Y00831800D02*
D03*
Y00819100D02*
D03*
Y00806400D02*
D03*
Y00793700D02*
D03*
Y00781000D02*
D03*
Y00768300D02*
D03*
Y00755600D02*
D03*
Y00742900D02*
D03*
X01060196D02*
D03*
Y00755600D02*
D03*
Y00768300D02*
D03*
Y00781000D02*
D03*
Y00793700D02*
D03*
Y00806400D02*
D03*
Y00819100D02*
D03*
Y00831800D02*
D03*
Y00844500D02*
D03*
Y00857200D02*
D03*
Y00869900D02*
D03*
D16*
X00912796Y00728900D02*
D03*
X00925496D02*
D03*
X00938196D02*
D03*
X00950896D02*
D03*
X00963596D02*
D03*
X00976296D02*
D03*
X00988996D02*
D03*
X01001696D02*
D03*
X01014396D02*
D03*
X01027096D02*
D03*
D17*
X01027500Y00827250D02*
Y00885500D01*
X01014250Y00898750D02*
X01027500Y00885500D01*
X01009750Y00898750D02*
X01014250D01*
X01017942Y00856989D02*
Y00884433D01*
X00963500Y00889500D02*
X01012875D01*
X01017942Y00884433D01*
X00952980Y00900020D02*
X00963500Y00889500D01*
X01013750Y00852797D02*
X01017942Y00856989D01*
X01049000Y00751477D02*
Y00787500D01*
X01022310Y00814190D02*
X01049000Y00787500D01*
X01019310Y00814190D02*
X01022310D01*
X00989000Y00832500D02*
X01000299Y00843799D01*
X00974000Y00832500D02*
X00989000D01*
X00975589Y00844750D02*
X00982250D01*
X01013750Y00819750D02*
Y00852797D01*
Y00819750D02*
X01019310Y00814190D01*
X01034404Y00819100D02*
X01060196D01*
X01033233Y00820270D02*
X01034404Y00819100D01*
X01020730Y00820270D02*
X01033233D01*
X01019500Y00821500D02*
X01020730Y00820270D01*
X00936796Y00847954D02*
X00972384D01*
X01014750Y00810750D02*
X01019250D01*
X01023000Y00807000D01*
X01019250Y00794000D02*
X01023000Y00797750D01*
Y00804250D01*
Y00807000D01*
X00969838Y00761750D02*
X00970797Y00762709D01*
X00960500Y00761750D02*
X00969838D01*
X00936796Y00785454D02*
X00960500Y00761750D01*
X00936796Y00785454D02*
Y00847954D01*
X00970797Y00762709D02*
X00980384D01*
X00984463Y00766787D01*
X01054467Y00841771D02*
X01058696Y00846000D01*
X01045551Y00872301D02*
X01055850Y00882600D01*
X00930020Y00900020D02*
X00952980D01*
X00918500Y00888500D02*
X00930020Y00900020D01*
X00985250Y00742250D02*
X00993500Y00750500D01*
X00917500Y00742250D02*
X00985250D01*
X00911500Y00748250D02*
X00917500Y00742250D01*
X00918500Y00876250D02*
Y00888500D01*
X01027500Y00827250D02*
X01029210Y00825540D01*
X01031050D01*
X01011750Y00858750D02*
Y00881328D01*
X01012672Y00882250D01*
X00964000Y00771250D02*
Y00822500D01*
X00974000Y00832500D01*
X00939500Y00883750D02*
Y00894750D01*
Y00883750D02*
X00939750Y00883500D01*
X00912250Y00856000D02*
X00939750Y00883500D01*
X01049000Y00751477D02*
X01057577Y00742900D01*
X00900750Y00790250D02*
X00909375Y00798875D01*
X00900750Y00764500D02*
Y00790250D01*
X01015500Y00750500D02*
X01016250Y00749750D01*
X00993500Y00750500D02*
X01015500D01*
X00901480Y00844520D02*
X00909375Y00836625D01*
Y00798875D02*
Y00836625D01*
X00879716Y00844520D02*
X00901480D01*
X00984505Y00766745D02*
X00992298Y00774538D01*
X00984463Y00766787D02*
X00984505Y00766745D01*
X01057577Y00742900D02*
X01060196D01*
X01057096Y00868500D02*
X01059346Y00870750D01*
X01047731Y00860269D02*
X01050520Y00863058D01*
Y00866270D01*
X01052750Y00868500D01*
X01036500Y00852000D02*
Y00864703D01*
X01044590Y00872793D01*
X01045551D01*
X01047750Y00856000D02*
Y00860250D01*
X01047731Y00860269D02*
X01047750Y00860250D01*
X01045551Y00872301D02*
Y00872793D01*
X01052750Y00868500D02*
X01057096D01*
X01048551Y00847041D02*
Y00848174D01*
X01058437Y00858059D02*
X01059746Y00856750D01*
X01048551Y00848174D02*
X01058437Y00858059D01*
X01041229Y00841771D02*
X01054467D01*
X01040000Y00843000D02*
X01041229Y00841771D01*
X00912250Y00848500D02*
Y00856000D01*
Y00848500D02*
X00923250Y00837500D01*
Y00821500D02*
Y00837500D01*
X00921295Y00852042D02*
X00933750D01*
Y00852087D01*
X00936796Y00849041D01*
Y00847954D02*
Y00849041D01*
X00879696Y00831800D02*
X00880396Y00832500D01*
X00891750D01*
X00879696Y00844500D02*
X00879716Y00844520D01*
X00972384Y00847954D02*
X00975589Y00844750D01*
X01000299Y00843799D02*
Y00845041D01*
X00992298Y00774692D02*
X00998642Y00781036D01*
X00992298Y00774538D02*
Y00774692D01*
X00998642Y00781036D02*
X01006285D01*
X01019250Y00794000D01*
X01034442Y00778808D01*
X01039558D01*
X01040000Y00779250D01*
X01059746Y00856750D02*
X01060196Y00857200D01*
X01058696Y00846000D02*
X01060196Y00844500D01*
X01055850Y00882600D02*
X01060196D01*
D18*
X00993048Y00845041D02*
Y00856327D01*
X00991500Y00857875D02*
X00993048Y00856327D01*
X00992375Y00858750D02*
X01011750D01*
X00973000D02*
X00992375D01*
X00991500Y00857875D02*
X00992375Y00858750D01*
X00879696Y00882600D02*
X00880046Y00882250D01*
X00892000D01*
X00970500Y00861250D02*
X00973000Y00858750D01*
X00879696Y00882600D02*
Y00895300D01*
D19*
X01002538Y00769538D02*
X01005549D01*
X00986500Y00753500D02*
X01002538Y00769538D01*
X00972655Y00753500D02*
X00986500D01*
X00907500Y00870500D02*
Y00889436D01*
X00891500Y00854500D02*
X00907500Y00870500D01*
X00891500Y00851250D02*
Y00854500D01*
X00894000Y00890000D02*
X00897000Y00887000D01*
Y00880179D02*
Y00887000D01*
X00886721Y00869900D02*
X00897000Y00880179D01*
X00903750Y00889787D02*
X00924363Y00910400D01*
X00903750Y00871500D02*
Y00889787D01*
X00889450Y00857200D02*
X00903750Y00871500D01*
X00907500Y00889436D02*
X00925564Y00907500D01*
X01015500D02*
X01022550Y00900450D01*
X01025600Y00910400D02*
X01044206Y00891794D01*
X01044301D01*
X00924363Y00910400D02*
X01025600D01*
X00925564Y00907500D02*
X01015500D01*
X00879696Y00869900D02*
X00886721D01*
X00879696Y00857200D02*
X00889450D01*
X00972618Y00753537D02*
X00972655Y00753500D01*
X00968476Y00753537D02*
X00972618D01*
X00968440Y00753500D02*
X00968476Y00753537D01*
X00881796Y00753500D02*
X00968440D01*
X00879696Y00755600D02*
X00881796Y00753500D01*
D20*
X01009750Y00898750D02*
D03*
X00993048Y00845041D02*
D03*
X00982250Y00844750D02*
D03*
X01014750Y00810750D02*
D03*
X01023000Y00804250D02*
D03*
X01019500Y00821500D02*
D03*
X00970797Y00762709D02*
D03*
X01004000Y00883500D02*
D03*
X01044750Y00906250D02*
D03*
X00893750Y00908500D02*
D03*
X00983000Y00876750D02*
D03*
X01031050Y00825540D02*
D03*
X01012672Y00882250D02*
D03*
X00939500Y00894750D02*
D03*
X01022550Y00900450D02*
D03*
X01044301Y00891794D02*
D03*
X00900750Y00764500D02*
D03*
X00911500Y00748250D02*
D03*
X01005549Y00769538D02*
D03*
X00918500Y00876250D02*
D03*
X01045250Y00866000D02*
D03*
X01045551Y00872793D02*
D03*
X01047750Y00856000D02*
D03*
X01048551Y00847041D02*
D03*
X01036500Y00852000D02*
D03*
X01040000Y00843000D02*
D03*
X00892000Y00882250D02*
D03*
X00894000Y00890000D02*
D03*
X01012000Y00858500D02*
D03*
X00921295Y00852042D02*
D03*
X00891750Y00832500D02*
D03*
X00923250Y00821500D02*
D03*
X00983000Y00825000D02*
D03*
Y00792000D02*
D03*
X00994000D02*
D03*
X00983000Y00803000D02*
D03*
X00994000D02*
D03*
X00983000Y00814000D02*
D03*
X00994000D02*
D03*
Y00825000D02*
D03*
X01000299Y00845041D02*
D03*
X00970547Y00748537D02*
D03*
X00992298Y00774538D02*
D03*
X01040000Y00779250D02*
D03*
X01016250Y00749750D02*
D03*
X01013500Y00757750D02*
D03*
X00964000Y00771250D02*
D03*
X00936796Y00849041D02*
D03*
X00891500Y00851250D02*
D03*
X01007750Y00837500D02*
D03*
X00970500Y00861250D02*
D03*
M02*
