M48
;Layer_Color=9474304
;FILE_FORMAT=4:4
METRIC
;TYPE=PLATED
T1F00S00C0.2000
T2F00S00C0.3000
%
T01
X00983000Y00792000
X00994000
Y00803000
X00983000
Y00814000
Y00825000
X00994000
Y00814000
T02
X00911500Y00748250
X00900750Y00764500
X00964000Y00771250
X00970797Y00762709
X00970547Y00748537
X01016250Y00749750
X01013500Y00757750
X01005549Y00769538
X00992298Y00774538
X01040000Y00779250
X01023000Y00804250
X01014750Y00810750
X01019500Y00821500
X01031050Y00825540
X01040000Y00843000
X01036500Y00852000
X01047750Y00856000
X01048551Y00847041
X01045250Y00866000
X01045551Y00872793
X01044301Y00891794
X01044750Y00906250
X01022550Y00900450
X01009750Y00898750
X01012672Y00882250
X01004000Y00883500
X00983000Y00876750
X00970500Y00861250
X00982250Y00844750
X00993048Y00845041
X01000299
X01007750Y00837500
X01012000Y00858500
X00936796Y00849041
X00921295Y00852042
X00918500Y00876250
X00892000Y00882250
X00894000Y00890000
X00893750Y00908500
X00939500Y00894750
X00923250Y00821500
X00891750Y00832500
X00891500Y00851250
M30
