G04*
G04 #@! TF.GenerationSoftware,Altium Limited,Altium Designer,18.0.11 (651)*
G04*
G04 Layer_Color=16711935*
%FSAX44Y44*%
%MOMM*%
G71*
G01*
G75*
%ADD12R,1.7032X1.1532*%
%ADD40R,0.7532X0.5032*%
%ADD41R,0.5032X0.7532*%
%ADD42R,2.8532X4.8532*%
%ADD43R,1.9032X1.0032*%
%ADD44R,1.0032X1.1032*%
%ADD45R,1.1032X1.0032*%
G04:AMPARAMS|DCode=46|XSize=0.7032mm|YSize=0.8032mm|CornerRadius=0.1641mm|HoleSize=0mm|Usage=FLASHONLY|Rotation=90.000|XOffset=0mm|YOffset=0mm|HoleType=Round|Shape=RoundedRectangle|*
%AMROUNDEDRECTD46*
21,1,0.7032,0.4750,0,0,90.0*
21,1,0.3750,0.8032,0,0,90.0*
1,1,0.3282,0.2375,0.1875*
1,1,0.3282,0.2375,-0.1875*
1,1,0.3282,-0.2375,-0.1875*
1,1,0.3282,-0.2375,0.1875*
%
%ADD46ROUNDEDRECTD46*%
%ADD47R,2.1032X2.5032*%
%ADD48R,1.6032X0.6032*%
G04:AMPARAMS|DCode=49|XSize=0.7032mm|YSize=0.8032mm|CornerRadius=0.1641mm|HoleSize=0mm|Usage=FLASHONLY|Rotation=180.000|XOffset=0mm|YOffset=0mm|HoleType=Round|Shape=RoundedRectangle|*
%AMROUNDEDRECTD49*
21,1,0.7032,0.4750,0,0,180.0*
21,1,0.3750,0.8032,0,0,180.0*
1,1,0.3282,-0.1875,0.2375*
1,1,0.3282,0.1875,0.2375*
1,1,0.3282,0.1875,-0.2375*
1,1,0.3282,-0.1875,-0.2375*
%
%ADD49ROUNDEDRECTD49*%
%ADD50R,1.1032X0.9032*%
%ADD51R,2.0232X1.3932*%
%ADD52R,1.3932X2.0232*%
%ADD53R,1.4232X2.4232*%
%ADD54R,0.6032X0.8032*%
%ADD55R,0.8032X0.6032*%
%ADD56R,1.1532X1.1532*%
%ADD57R,1.0532X2.4032*%
%ADD58C,0.7032*%
D12*
X00978750Y00899250D02*
D03*
X00998000D02*
D03*
X00908000Y00893500D02*
D03*
X00881250Y00910750D02*
D03*
X00951500Y00912250D02*
D03*
X00991500D02*
D03*
X00971500D02*
D03*
X00931500D02*
D03*
X01011500D02*
D03*
X00881250Y00897750D02*
D03*
X00908250Y00910750D02*
D03*
D40*
X00970750Y00786500D02*
D03*
Y00790500D02*
D03*
Y00794500D02*
D03*
Y00798500D02*
D03*
Y00802500D02*
D03*
Y00806500D02*
D03*
Y00810500D02*
D03*
Y00814500D02*
D03*
Y00818500D02*
D03*
Y00822500D02*
D03*
Y00826500D02*
D03*
Y00830500D02*
D03*
X01006250D02*
D03*
Y00826500D02*
D03*
Y00822500D02*
D03*
Y00818500D02*
D03*
Y00814500D02*
D03*
Y00810500D02*
D03*
Y00806500D02*
D03*
Y00802500D02*
D03*
Y00798500D02*
D03*
Y00794500D02*
D03*
Y00790500D02*
D03*
Y00786500D02*
D03*
D41*
X00976500Y00836250D02*
D03*
X00980500D02*
D03*
X00984500D02*
D03*
X00988500D02*
D03*
X00992500D02*
D03*
X00996500D02*
D03*
X01000500D02*
D03*
Y00780750D02*
D03*
X00996500D02*
D03*
X00992500D02*
D03*
X00988500D02*
D03*
X00984500D02*
D03*
X00980500D02*
D03*
X00976500D02*
D03*
D42*
X00988500Y00808500D02*
D03*
D43*
X01051000Y00751500D02*
D03*
Y00787500D02*
D03*
D44*
X00953000Y00736000D02*
D03*
X00937000D02*
D03*
X01018000Y00728500D02*
D03*
X01002000D02*
D03*
X00970000Y00736000D02*
D03*
X00986000D02*
D03*
D45*
X00883000Y00850000D02*
D03*
Y00834000D02*
D03*
X01017750Y00833000D02*
D03*
Y00849000D02*
D03*
X00883000Y00867250D02*
D03*
Y00883250D02*
D03*
D46*
X00996500Y00752250D02*
D03*
X01006500D02*
D03*
X00937500Y00862500D02*
D03*
X00927500D02*
D03*
X00961000D02*
D03*
X00951000D02*
D03*
X01006500Y00763000D02*
D03*
X00996500D02*
D03*
X01037500Y00912750D02*
D03*
X01027500D02*
D03*
X01051250Y00912750D02*
D03*
X01061250D02*
D03*
X01032250Y00741500D02*
D03*
X01022250D02*
D03*
X00922500Y00843250D02*
D03*
X00912500D02*
D03*
X00912500Y00831500D02*
D03*
X00922500D02*
D03*
X00911000Y00857250D02*
D03*
X00901000D02*
D03*
X00956750Y00811000D02*
D03*
X00946750D02*
D03*
X01010500Y00741500D02*
D03*
X01000500D02*
D03*
X01020250Y00794250D02*
D03*
X01030250D02*
D03*
D47*
X00891250Y00811680D02*
D03*
Y00736750D02*
D03*
D48*
X00918682Y00760880D02*
D03*
Y00767484D02*
D03*
Y00774088D02*
D03*
Y00780692D02*
D03*
Y00787296D02*
D03*
D49*
X00934250Y00751500D02*
D03*
Y00761500D02*
D03*
X00934250Y00784750D02*
D03*
Y00774750D02*
D03*
X00934250Y00821500D02*
D03*
Y00831500D02*
D03*
X00961000Y00874500D02*
D03*
Y00884500D02*
D03*
X00899250Y00842172D02*
D03*
Y00832172D02*
D03*
X01030250Y00816250D02*
D03*
Y00806250D02*
D03*
X01063000Y00810500D02*
D03*
Y00800500D02*
D03*
X00934250Y00808000D02*
D03*
Y00798000D02*
D03*
X00911500Y00869500D02*
D03*
Y00879500D02*
D03*
X01030500Y00857750D02*
D03*
Y00867750D02*
D03*
Y00835500D02*
D03*
Y00845500D02*
D03*
X00946250Y00799500D02*
D03*
Y00789500D02*
D03*
X00945000Y00761250D02*
D03*
Y00751250D02*
D03*
X00939250Y00874500D02*
D03*
Y00884500D02*
D03*
X00928250Y00874500D02*
D03*
Y00884500D02*
D03*
X00950250Y00884500D02*
D03*
Y00874500D02*
D03*
X01052250Y00810250D02*
D03*
Y00800250D02*
D03*
X01041500Y00810250D02*
D03*
Y00800250D02*
D03*
X00957250Y00799500D02*
D03*
Y00789500D02*
D03*
X01019000Y00782750D02*
D03*
Y00772750D02*
D03*
D50*
X01030750Y00783750D02*
D03*
Y00768750D02*
D03*
D51*
X00950750Y00827450D02*
D03*
Y00844550D02*
D03*
D52*
X00982700Y00858250D02*
D03*
X00999800D02*
D03*
X01043450Y00828500D02*
D03*
X01060550D02*
D03*
D53*
X00980900Y00755750D02*
D03*
X00959600D02*
D03*
D54*
X01037000Y00881000D02*
D03*
X01042000D02*
D03*
X01047000D02*
D03*
Y00899000D02*
D03*
X01042000D02*
D03*
X01037000D02*
D03*
D55*
X01053500Y00882500D02*
D03*
Y00887500D02*
D03*
Y00892500D02*
D03*
Y00897500D02*
D03*
X01030500D02*
D03*
Y00892500D02*
D03*
Y00887500D02*
D03*
Y00882500D02*
D03*
D56*
X01062000Y00847600D02*
D03*
Y00860750D02*
D03*
D57*
X01043750Y00733000D02*
D03*
X01063000D02*
D03*
D58*
X00983000Y00825000D02*
D03*
Y00792000D02*
D03*
X00994000D02*
D03*
X00983000Y00803000D02*
D03*
X00994000D02*
D03*
X00983000Y00814000D02*
D03*
X00994000D02*
D03*
Y00825000D02*
D03*
M02*
